<?xml version="1.0" encoding="UTF-8" standalone="no"?>
<!DOCTYPE svg PUBLIC "-//W3C//DTD SVG 1.1//EN"
 "http://www.w3.org/Graphics/SVG/1.1/DTD/svg11.dtd">
<!-- Generated by graphviz version 2.43.0 (0)
 -->
<!-- Title: G Pages: 1 -->
<svg width="1659pt" height="1301pt"
 viewBox="0.00 0.00 1659.00 1301.00" xmlns="http://www.w3.org/2000/svg" xmlns:xlink="http://www.w3.org/1999/xlink">
<g id="graph0" class="graph" transform="scale(1 1) rotate(0) translate(4 1297)">
<title>G</title>
<polygon fill="white" stroke="transparent" points="-4,4 -4,-1297 1655,-1297 1655,4 -4,4"/>
<!-- TRUSTABLE&#45;SOFTWARE -->
<g id="node1" class="node">
<title>TRUSTABLE&#45;SOFTWARE</title>
<g id="a_node1"><a xlink:href="https://score-json.github.io/nlohmann_json/main/_images/custom_TRUSTABLE-SOFTWARE_graph.svg" xlink:title="TRUSTABLE&#45;SOFTWARE: This\nrelease of JSON&#45;Library\nalso referred in the\ndocumentation as nlohmann/json\nlibrary is Trustable.\n" target="_top">
<polygon fill="none" stroke="black" points="951.5,-1293 703.5,-1293 703.5,-1210 951.5,-1210 951.5,-1293"/>
<text text-anchor="middle" x="827.5" y="-1277.8" font-family="Open Sans" font-size="14.00">TRUSTABLE&#45;SOFTWARE: This</text>
<text text-anchor="middle" x="827.5" y="-1262.8" font-family="Open Sans" font-size="14.00">release of JSON&#45;Library</text>
<text text-anchor="middle" x="827.5" y="-1247.8" font-family="Open Sans" font-size="14.00">also referred in the</text>
<text text-anchor="middle" x="827.5" y="-1232.8" font-family="Open Sans" font-size="14.00">documentation as nlohmann/json</text>
<text text-anchor="middle" x="827.5" y="-1217.8" font-family="Open Sans" font-size="14.00">library is Trustable.</text>
</a>
</g>
</g>
<!-- TT&#45;EXPECTATIONS -->
<g id="node12" class="node">
<title>TT&#45;EXPECTATIONS</title>
<g id="a_node12"><a xlink:href="https://score-json.github.io/nlohmann_json/main/_images/custom_TT-EXPECTATIONS_graph.svg" xlink:title="TT&#45;EXPECTATIONS: Documentation\nis provided within eclipse&#45;score/inc_nlohmann_json,\nspecifying what the nlohmann/json\nlibrary is expected to\ndo, and what it must\nnot do, and how this\nis verified. " target="_top">
<polygon fill="none" stroke="black" points="1015,-1066 640,-1066 640,-953 1015,-953 1015,-1066"/>
<text text-anchor="middle" x="827.5" y="-1050.8" font-family="Open Sans" font-size="14.00">TT&#45;EXPECTATIONS: Documentation</text>
<text text-anchor="middle" x="827.5" y="-1035.8" font-family="Open Sans" font-size="14.00">is provided within eclipse&#45;score/inc_nlohmann_json,</text>
<text text-anchor="middle" x="827.5" y="-1020.8" font-family="Open Sans" font-size="14.00">specifying what the nlohmann/json</text>
<text text-anchor="middle" x="827.5" y="-1005.8" font-family="Open Sans" font-size="14.00">library is expected to</text>
<text text-anchor="middle" x="827.5" y="-990.8" font-family="Open Sans" font-size="14.00">do, and what it must</text>
<text text-anchor="middle" x="827.5" y="-975.8" font-family="Open Sans" font-size="14.00">not do, and how this</text>
<text text-anchor="middle" x="827.5" y="-960.8" font-family="Open Sans" font-size="14.00">is verified. </text>
</a>
</g>
</g>
<!-- TRUSTABLE&#45;SOFTWARE&#45;&gt;TT&#45;EXPECTATIONS -->
<g id="edge1" class="edge">
<title>TRUSTABLE&#45;SOFTWARE&#45;&gt;TT&#45;EXPECTATIONS</title>
<path fill="none" stroke="black" d="M827.5,-1209.79C827.5,-1173.26 827.5,-1119 827.5,-1076.32"/>
<polygon fill="black" stroke="black" points="831,-1076.29 827.5,-1066.29 824,-1076.29 831,-1076.29"/>
</g>
<!-- JLEX&#45;02 -->
<g id="node2" class="node">
<title>JLEX&#45;02</title>
<g id="a_node2"><a xlink:href="https://score-json.github.io/nlohmann_json/main/_images/custom_JLEX-02_graph.svg" xlink:title="JLEX&#45;02: The requirement\nregarding [JSON Deserialization](https://eclipse&#45;score.github.io/score/main/modules/baselibs/json/docs/requirements/index.html#comp_req__json__deserialization)\nis fulfilled. " target="_top">
<polygon fill="none" stroke="black" points="1398.5,-567 256.5,-567 256.5,-514 1398.5,-514 1398.5,-567"/>
<text text-anchor="middle" x="827.5" y="-551.8" font-family="Open Sans" font-size="14.00">JLEX&#45;02: The requirement</text>
<text text-anchor="middle" x="827.5" y="-536.8" font-family="Open Sans" font-size="14.00">regarding [JSON Deserialization](https://eclipse&#45;score.github.io/score/main/modules/baselibs/json/docs/requirements/index.html#comp_req__json__deserialization)</text>
<text text-anchor="middle" x="827.5" y="-521.8" font-family="Open Sans" font-size="14.00">is fulfilled. </text>
</a>
</g>
</g>
<!-- PJD&#45;03 -->
<g id="node10" class="node">
<title>PJD&#45;03</title>
<g id="a_node10"><a xlink:href="https://score-json.github.io/nlohmann_json/main/_images/custom_PJD-03_graph.svg" xlink:title="PJD&#45;03: The service provided\nby the nlohmann/json\nlibrary parses all texts\nthat conform to the JSON\ngrammar. " target="_top">
<polygon fill="none" stroke="black" points="936,-370 719,-370 719,-287 936,-287 936,-370"/>
<text text-anchor="middle" x="827.5" y="-354.8" font-family="Open Sans" font-size="14.00">PJD&#45;03: The service provided</text>
<text text-anchor="middle" x="827.5" y="-339.8" font-family="Open Sans" font-size="14.00">by the nlohmann/json</text>
<text text-anchor="middle" x="827.5" y="-324.8" font-family="Open Sans" font-size="14.00">library parses all texts</text>
<text text-anchor="middle" x="827.5" y="-309.8" font-family="Open Sans" font-size="14.00">that conform to the JSON</text>
<text text-anchor="middle" x="827.5" y="-294.8" font-family="Open Sans" font-size="14.00">grammar. </text>
</a>
</g>
</g>
<!-- JLEX&#45;02&#45;&gt;PJD&#45;03 -->
<g id="edge2" class="edge">
<title>JLEX&#45;02&#45;&gt;PJD&#45;03</title>
<path fill="none" stroke="black" d="M827.5,-513.75C827.5,-480.66 827.5,-422.48 827.5,-380.33"/>
<polygon fill="black" stroke="black" points="831,-380.25 827.5,-370.25 824,-380.25 831,-380.25"/>
</g>
<!-- NPF&#45;02 -->
<g id="node3" class="node">
<title>NPF&#45;02</title>
<g id="a_node3"><a xlink:href="https://score-json.github.io/nlohmann_json/main/_images/custom_NPF-02_graph.svg" xlink:title="NPF&#45;02: The service provided\nby the nlohmann/json\nlibrary parses numbers\naccording to RFC8259.\n" target="_top">
<polygon fill="none" stroke="black" points="221,-105.5 0,-105.5 0,-37.5 221,-37.5 221,-105.5"/>
<text text-anchor="middle" x="110.5" y="-90.3" font-family="Open Sans" font-size="14.00">NPF&#45;02: The service provided</text>
<text text-anchor="middle" x="110.5" y="-75.3" font-family="Open Sans" font-size="14.00">by the nlohmann/json</text>
<text text-anchor="middle" x="110.5" y="-60.3" font-family="Open Sans" font-size="14.00">library parses numbers</text>
<text text-anchor="middle" x="110.5" y="-45.3" font-family="Open Sans" font-size="14.00">according to RFC8259.</text>
</a>
</g>
</g>
<!-- NPF&#45;03 -->
<g id="node4" class="node">
<title>NPF&#45;03</title>
<g id="a_node4"><a xlink:href="https://score-json.github.io/nlohmann_json/main/_images/custom_NPF-03_graph.svg" xlink:title="NPF&#45;03: The service provided\nby the nlohmann/json\nlibrary parses strings\naccording to RFC8259.\n" target="_top">
<polygon fill="none" stroke="black" points="460,-105.5 239,-105.5 239,-37.5 460,-37.5 460,-105.5"/>
<text text-anchor="middle" x="349.5" y="-90.3" font-family="Open Sans" font-size="14.00">NPF&#45;03: The service provided</text>
<text text-anchor="middle" x="349.5" y="-75.3" font-family="Open Sans" font-size="14.00">by the nlohmann/json</text>
<text text-anchor="middle" x="349.5" y="-60.3" font-family="Open Sans" font-size="14.00">library parses strings</text>
<text text-anchor="middle" x="349.5" y="-45.3" font-family="Open Sans" font-size="14.00">according to RFC8259.</text>
</a>
</g>
</g>
<!-- NPF&#45;04 -->
<g id="node5" class="node">
<title>NPF&#45;04</title>
<g id="a_node5"><a xlink:href="https://score-json.github.io/nlohmann_json/main/_images/custom_NPF-04_graph.svg" xlink:title="NPF&#45;04: The service provided\nby the nlohmann/json\nlibrary parses literal\nnames &quot;true&quot;, &quot;false&quot;\nand &quot;null&quot; according\nto RFC8259. " target="_top">
<polygon fill="none" stroke="black" points="699,-120.5 478,-120.5 478,-22.5 699,-22.5 699,-120.5"/>
<text text-anchor="middle" x="588.5" y="-105.3" font-family="Open Sans" font-size="14.00">NPF&#45;04: The service provided</text>
<text text-anchor="middle" x="588.5" y="-90.3" font-family="Open Sans" font-size="14.00">by the nlohmann/json</text>
<text text-anchor="middle" x="588.5" y="-75.3" font-family="Open Sans" font-size="14.00">library parses literal</text>
<text text-anchor="middle" x="588.5" y="-60.3" font-family="Open Sans" font-size="14.00">names &quot;true&quot;, &quot;false&quot;</text>
<text text-anchor="middle" x="588.5" y="-45.3" font-family="Open Sans" font-size="14.00">and &quot;null&quot; according</text>
<text text-anchor="middle" x="588.5" y="-30.3" font-family="Open Sans" font-size="14.00">to RFC8259. </text>
</a>
</g>
</g>
<!-- NPF&#45;05 -->
<g id="node6" class="node">
<title>NPF&#45;05</title>
<g id="a_node6"><a xlink:href="https://score-json.github.io/nlohmann_json/main/_images/custom_NPF-05_graph.svg" xlink:title="NPF&#45;05: The service provided\nby the nlohmann/json\nlibrary parses arrays\naccording to RFC8259.\n" target="_top">
<polygon fill="none" stroke="black" points="938,-105.5 717,-105.5 717,-37.5 938,-37.5 938,-105.5"/>
<text text-anchor="middle" x="827.5" y="-90.3" font-family="Open Sans" font-size="14.00">NPF&#45;05: The service provided</text>
<text text-anchor="middle" x="827.5" y="-75.3" font-family="Open Sans" font-size="14.00">by the nlohmann/json</text>
<text text-anchor="middle" x="827.5" y="-60.3" font-family="Open Sans" font-size="14.00">library parses arrays</text>
<text text-anchor="middle" x="827.5" y="-45.3" font-family="Open Sans" font-size="14.00">according to RFC8259.</text>
</a>
</g>
</g>
<!-- NPF&#45;06 -->
<g id="node7" class="node">
<title>NPF&#45;06</title>
<g id="a_node7"><a xlink:href="https://score-json.github.io/nlohmann_json/main/_images/custom_NPF-06_graph.svg" xlink:title="NPF&#45;06: The service provided\nby the nlohmann/json\nlibrary parses objects\naccording to RFC8259.\n" target="_top">
<polygon fill="none" stroke="black" points="1177,-105.5 956,-105.5 956,-37.5 1177,-37.5 1177,-105.5"/>
<text text-anchor="middle" x="1066.5" y="-90.3" font-family="Open Sans" font-size="14.00">NPF&#45;06: The service provided</text>
<text text-anchor="middle" x="1066.5" y="-75.3" font-family="Open Sans" font-size="14.00">by the nlohmann/json</text>
<text text-anchor="middle" x="1066.5" y="-60.3" font-family="Open Sans" font-size="14.00">library parses objects</text>
<text text-anchor="middle" x="1066.5" y="-45.3" font-family="Open Sans" font-size="14.00">according to RFC8259.</text>
</a>
</g>
</g>
<!-- NPF&#45;07 -->
<g id="node8" class="node">
<title>NPF&#45;07</title>
<g id="a_node8"><a xlink:href="https://score-json.github.io/nlohmann_json/main/_images/custom_NPF-07_graph.svg" xlink:title="NPF&#45;07: The service provided\nby the nlohmann/json\nlibrary parses well&#45;formed\nUTF&#45;8 encoded data only.\n" target="_top">
<polygon fill="none" stroke="black" points="1416,-105.5 1195,-105.5 1195,-37.5 1416,-37.5 1416,-105.5"/>
<text text-anchor="middle" x="1305.5" y="-90.3" font-family="Open Sans" font-size="14.00">NPF&#45;07: The service provided</text>
<text text-anchor="middle" x="1305.5" y="-75.3" font-family="Open Sans" font-size="14.00">by the nlohmann/json</text>
<text text-anchor="middle" x="1305.5" y="-60.3" font-family="Open Sans" font-size="14.00">library parses well&#45;formed</text>
<text text-anchor="middle" x="1305.5" y="-45.3" font-family="Open Sans" font-size="14.00">UTF&#45;8 encoded data only.</text>
</a>
</g>
</g>
<!-- PJD&#45;02 -->
<g id="node9" class="node">
<title>PJD&#45;02</title>
<g id="a_node9"><a xlink:href="https://score-json.github.io/nlohmann_json/main/generated/PJD.html#pjd-02" xlink:title="PJD&#45;02: The service provided\nby the nlohmann/json\nlibrary transforms a\nJSON text into a C++\nrepresentation using\nC++ containers (for arrays\nand objects) and primitive\ndatatypes (for strings,\nnumbers, boolean, null).\n" target="_top">
<polygon fill="none" stroke="black" points="1651,-143 1434,-143 1434,0 1651,0 1651,-143"/>
<text text-anchor="middle" x="1542.5" y="-127.8" font-family="Open Sans" font-size="14.00">PJD&#45;02: The service provided</text>
<text text-anchor="middle" x="1542.5" y="-112.8" font-family="Open Sans" font-size="14.00">by the nlohmann/json</text>
<text text-anchor="middle" x="1542.5" y="-97.8" font-family="Open Sans" font-size="14.00">library transforms a</text>
<text text-anchor="middle" x="1542.5" y="-82.8" font-family="Open Sans" font-size="14.00">JSON text into a C++</text>
<text text-anchor="middle" x="1542.5" y="-67.8" font-family="Open Sans" font-size="14.00">representation using</text>
<text text-anchor="middle" x="1542.5" y="-52.8" font-family="Open Sans" font-size="14.00">C++ containers (for arrays</text>
<text text-anchor="middle" x="1542.5" y="-37.8" font-family="Open Sans" font-size="14.00">and objects) and primitive</text>
<text text-anchor="middle" x="1542.5" y="-22.8" font-family="Open Sans" font-size="14.00">datatypes (for strings,</text>
<text text-anchor="middle" x="1542.5" y="-7.8" font-family="Open Sans" font-size="14.00">numbers, boolean, null).</text>
</a>
</g>
</g>
<!-- PJD&#45;03&#45;&gt;NPF&#45;02 -->
<g id="edge3" class="edge">
<title>PJD&#45;03&#45;&gt;NPF&#45;02</title>
<path fill="none" stroke="black" d="M718.88,-302.21C596.89,-271.94 394.4,-216.06 229.5,-143 209.13,-133.97 187.88,-122.23 169.08,-110.92"/>
<polygon fill="black" stroke="black" points="170.71,-107.81 160.35,-105.59 167.06,-113.79 170.71,-107.81"/>
</g>
<!-- PJD&#45;03&#45;&gt;NPF&#45;03 -->
<g id="edge8" class="edge">
<title>PJD&#45;03&#45;&gt;NPF&#45;03</title>
<path fill="none" stroke="black" d="M745.13,-286.93C671.89,-250.44 562.19,-194.77 468.5,-143 450.17,-132.87 430.51,-121.46 412.56,-110.81"/>
<polygon fill="black" stroke="black" points="414.29,-107.77 403.9,-105.66 410.71,-113.78 414.29,-107.77"/>
</g>
<!-- PJD&#45;03&#45;&gt;NPF&#45;04 -->
<g id="edge4" class="edge">
<title>PJD&#45;03&#45;&gt;NPF&#45;04</title>
<path fill="none" stroke="black" d="M789.37,-286.81C749.21,-243.97 685.71,-176.22 640.87,-128.38"/>
<polygon fill="black" stroke="black" points="643.23,-125.78 633.84,-120.88 638.13,-130.57 643.23,-125.78"/>
</g>
<!-- PJD&#45;03&#45;&gt;NPF&#45;05 -->
<g id="edge5" class="edge">
<title>PJD&#45;03&#45;&gt;NPF&#45;05</title>
<path fill="none" stroke="black" d="M827.5,-286.81C827.5,-240.05 827.5,-163.6 827.5,-115.77"/>
<polygon fill="black" stroke="black" points="831,-115.73 827.5,-105.73 824,-115.73 831,-115.73"/>
</g>
<!-- PJD&#45;03&#45;&gt;NPF&#45;06 -->
<g id="edge6" class="edge">
<title>PJD&#45;03&#45;&gt;NPF&#45;06</title>
<path fill="none" stroke="black" d="M865.63,-286.81C910.29,-239.16 983.83,-160.71 1028.45,-113.1"/>
<polygon fill="black" stroke="black" points="1031.07,-115.42 1035.36,-105.73 1025.96,-110.63 1031.07,-115.42"/>
</g>
<!-- PJD&#45;03&#45;&gt;NPF&#45;07 -->
<g id="edge7" class="edge">
<title>PJD&#45;03&#45;&gt;NPF&#45;07</title>
<path fill="none" stroke="black" d="M909.87,-286.93C983.11,-250.44 1092.81,-194.77 1186.5,-143 1204.83,-132.87 1224.49,-121.46 1242.44,-110.81"/>
<polygon fill="black" stroke="black" points="1244.29,-113.78 1251.1,-105.66 1240.71,-107.77 1244.29,-113.78"/>
</g>
<!-- PJD&#45;03&#45;&gt;PJD&#45;02 -->
<g id="edge9" class="edge">
<title>PJD&#45;03&#45;&gt;PJD&#45;02</title>
<path fill="none" stroke="black" d="M936.22,-302.44C1056.16,-272.91 1253.78,-218.62 1424.83,-143.14"/>
<polygon fill="black" stroke="black" points="1426.27,-146.33 1433.98,-139.07 1423.42,-139.94 1426.27,-146.33"/>
</g>
<!-- TA&#45;BEHAVIOURS -->
<g id="node11" class="node">
<title>TA&#45;BEHAVIOURS</title>
<g id="a_node11"><a xlink:href="https://score-json.github.io/nlohmann_json/main/_images/custom_TA-BEHAVIOURS_graph.svg" xlink:title="TA&#45;BEHAVIOURS: Expected\nor required behaviours\nfor the nlohmann/json\nlibrary are identified,\nspecified, verified and\nvalidated based on analysis.\n" target="_top">
<polygon fill="none" stroke="black" points="934.5,-809 720.5,-809 720.5,-711 934.5,-711 934.5,-809"/>
<text text-anchor="middle" x="827.5" y="-793.8" font-family="Open Sans" font-size="14.00">TA&#45;BEHAVIOURS: Expected</text>
<text text-anchor="middle" x="827.5" y="-778.8" font-family="Open Sans" font-size="14.00">or required behaviours</text>
<text text-anchor="middle" x="827.5" y="-763.8" font-family="Open Sans" font-size="14.00">for the nlohmann/json</text>
<text text-anchor="middle" x="827.5" y="-748.8" font-family="Open Sans" font-size="14.00">library are identified,</text>
<text text-anchor="middle" x="827.5" y="-733.8" font-family="Open Sans" font-size="14.00">specified, verified and</text>
<text text-anchor="middle" x="827.5" y="-718.8" font-family="Open Sans" font-size="14.00">validated based on analysis.</text>
</a>
</g>
</g>
<!-- TA&#45;BEHAVIOURS&#45;&gt;JLEX&#45;02 -->
<g id="edge10" class="edge">
<title>TA&#45;BEHAVIOURS&#45;&gt;JLEX&#45;02</title>
<path fill="none" stroke="black" d="M827.5,-711C827.5,-670.58 827.5,-613.67 827.5,-577.18"/>
<polygon fill="black" stroke="black" points="831,-577.01 827.5,-567.01 824,-577.01 831,-577.01"/>
</g>
<!-- TT&#45;EXPECTATIONS&#45;&gt;TA&#45;BEHAVIOURS -->
<g id="edge11" class="edge">
<title>TT&#45;EXPECTATIONS&#45;&gt;TA&#45;BEHAVIOURS</title>
<path fill="none" stroke="black" d="M827.5,-952.96C827.5,-913.23 827.5,-859.87 827.5,-819.49"/>
<polygon fill="black" stroke="black" points="831,-819.26 827.5,-809.26 824,-819.26 831,-819.26"/>
</g>
</g>
</svg>
