<?xml version="1.0" encoding="UTF-8" standalone="no"?>
<!DOCTYPE svg PUBLIC "-//W3C//DTD SVG 1.1//EN"
 "http://www.w3.org/Graphics/SVG/1.1/DTD/svg11.dtd">
<!-- Generated by graphviz version 2.43.0 (0)
 -->
<!-- Title: G Pages: 1 -->
<svg width="1150pt" height="1393pt"
 viewBox="0.00 0.00 1150.00 1393.00" xmlns="http://www.w3.org/2000/svg" xmlns:xlink="http://www.w3.org/1999/xlink">
<g id="graph0" class="graph" transform="scale(1 1) rotate(0) translate(4 1389)">
<title>G</title>
<polygon fill="white" stroke="transparent" points="-4,4 -4,-1389 1146,-1389 1146,4 -4,4"/>
<!-- TRUSTABLE&#45;SOFTWARE -->
<g id="node1" class="node">
<title>TRUSTABLE&#45;SOFTWARE</title>
<g id="a_node1"><a xlink:href="https://score-json.github.io/nlohmann_json/main/_images/custom_TRUSTABLE-SOFTWARE_graph.svg" xlink:title="TRUSTABLE&#45;SOFTWARE: This\nrelease of JSON&#45;Library\nalso reffered in the\ndocumentation as nlohmann/json\nlibrary is Trustable.\n" target="_top">
<polygon fill="none" stroke="black" points="695,-1385 447,-1385 447,-1302 695,-1302 695,-1385"/>
<text text-anchor="middle" x="571" y="-1369.8" font-family="Open Sans" font-size="14.00">TRUSTABLE&#45;SOFTWARE: This</text>
<text text-anchor="middle" x="571" y="-1354.8" font-family="Open Sans" font-size="14.00">release of JSON&#45;Library</text>
<text text-anchor="middle" x="571" y="-1339.8" font-family="Open Sans" font-size="14.00">also reffered in the</text>
<text text-anchor="middle" x="571" y="-1324.8" font-family="Open Sans" font-size="14.00">documentation as nlohmann/json</text>
<text text-anchor="middle" x="571" y="-1309.8" font-family="Open Sans" font-size="14.00">library is Trustable.</text>
</a>
</g>
</g>
<!-- TT&#45;EXPECTATIONS -->
<g id="node10" class="node">
<title>TT&#45;EXPECTATIONS</title>
<g id="a_node10"><a xlink:href="https://score-json.github.io/nlohmann_json/main/_images/custom_TT-EXPECTATIONS_graph.svg" xlink:title="TT&#45;EXPECTATIONS: Documentation\nis provided, specifying\nwhat nlohmann/json library\nis expected to do, and\nwhat it must not do,\nand how this is verified.\n" target="_top">
<polygon fill="none" stroke="black" points="699.5,-1158 442.5,-1158 442.5,-1060 699.5,-1060 699.5,-1158"/>
<text text-anchor="middle" x="571" y="-1142.8" font-family="Open Sans" font-size="14.00">TT&#45;EXPECTATIONS: Documentation</text>
<text text-anchor="middle" x="571" y="-1127.8" font-family="Open Sans" font-size="14.00">is provided, specifying</text>
<text text-anchor="middle" x="571" y="-1112.8" font-family="Open Sans" font-size="14.00">what nlohmann/json library</text>
<text text-anchor="middle" x="571" y="-1097.8" font-family="Open Sans" font-size="14.00">is expected to do, and</text>
<text text-anchor="middle" x="571" y="-1082.8" font-family="Open Sans" font-size="14.00">what it must not do,</text>
<text text-anchor="middle" x="571" y="-1067.8" font-family="Open Sans" font-size="14.00">and how this is verified.</text>
</a>
</g>
</g>
<!-- TRUSTABLE&#45;SOFTWARE&#45;&gt;TT&#45;EXPECTATIONS -->
<g id="edge1" class="edge">
<title>TRUSTABLE&#45;SOFTWARE&#45;&gt;TT&#45;EXPECTATIONS</title>
<path fill="none" stroke="black" d="M571,-1301.74C571,-1264.88 571,-1210.18 571,-1168.63"/>
<polygon fill="black" stroke="black" points="574.5,-1168.37 571,-1158.37 567.5,-1168.37 574.5,-1168.37"/>
</g>
<!-- JLEX&#45;02 -->
<g id="node2" class="node">
<title>JLEX&#45;02</title>
<g id="a_node2"><a xlink:href="https://score-json.github.io/nlohmann_json/main/_images/custom_JLEX-02_graph.svg" xlink:title="JLEX&#45;02: The requirement\nregarding [JSON Deserialization](https://eclipse&#45;score.github.io/score/main/modules/baselibs/json/docs/requirements/index.html#comp_req__json__deserialization)\nis fulfilled. " target="_top">
<polygon fill="none" stroke="black" points="1142,-674 0,-674 0,-621 1142,-621 1142,-674"/>
<text text-anchor="middle" x="571" y="-658.8" font-family="Open Sans" font-size="14.00">JLEX&#45;02: The requirement</text>
<text text-anchor="middle" x="571" y="-643.8" font-family="Open Sans" font-size="14.00">regarding [JSON Deserialization](https://eclipse&#45;score.github.io/score/main/modules/baselibs/json/docs/requirements/index.html#comp_req__json__deserialization)</text>
<text text-anchor="middle" x="571" y="-628.8" font-family="Open Sans" font-size="14.00">is fulfilled. </text>
</a>
</g>
</g>
<!-- PJD&#45;03 -->
<g id="node8" class="node">
<title>PJD&#45;03</title>
<g id="a_node8"><a xlink:href="https://score-json.github.io/nlohmann_json/main/_images/custom_PJD-03_graph.svg" xlink:title="PJD&#45;03: The service parses\nall texts that conform\nto the JSON grammar.\n" target="_top">
<polygon fill="none" stroke="black" points="672.5,-477 469.5,-477 469.5,-424 672.5,-424 672.5,-477"/>
<text text-anchor="middle" x="571" y="-461.8" font-family="Open Sans" font-size="14.00">PJD&#45;03: The service parses</text>
<text text-anchor="middle" x="571" y="-446.8" font-family="Open Sans" font-size="14.00">all texts that conform</text>
<text text-anchor="middle" x="571" y="-431.8" font-family="Open Sans" font-size="14.00">to the JSON grammar.</text>
</a>
</g>
</g>
<!-- JLEX&#45;02&#45;&gt;PJD&#45;03 -->
<g id="edge2" class="edge">
<title>JLEX&#45;02&#45;&gt;PJD&#45;03</title>
<path fill="none" stroke="black" d="M571,-620.61C571,-586.42 571,-526.06 571,-487.46"/>
<polygon fill="black" stroke="black" points="574.5,-487.19 571,-477.19 567.5,-487.19 574.5,-487.19"/>
</g>
<!-- NPF&#45;06 -->
<g id="node3" class="node">
<title>NPF&#45;06</title>
<g id="a_node3"><a xlink:href="https://score-json.github.io/nlohmann_json/main/_images/custom_NPF-06_graph.svg" xlink:title="NPF&#45;06: The service parses\nobjects according to\nRFC8259. " target="_top">
<polygon fill="none" stroke="black" points="674,-280 468,-280 468,-227 674,-227 674,-280"/>
<text text-anchor="middle" x="571" y="-264.8" font-family="Open Sans" font-size="14.00">NPF&#45;06: The service parses</text>
<text text-anchor="middle" x="571" y="-249.8" font-family="Open Sans" font-size="14.00">objects according to</text>
<text text-anchor="middle" x="571" y="-234.8" font-family="Open Sans" font-size="14.00">RFC8259. </text>
</a>
</g>
</g>
<!-- NPF&#45;06.1 -->
<g id="node4" class="node">
<title>NPF&#45;06.1</title>
<g id="a_node4"><a xlink:href="https://score-json.github.io/nlohmann_json/main/generated/NPF.html#npf-06.1" xlink:title="NPF&#45;06.1: The service\nignores leading and trailing\nwhitespace for name and\nvalue of each member.\n" target="_top">
<polygon fill="none" stroke="black" points="358.5,-75.5 151.5,-75.5 151.5,-7.5 358.5,-7.5 358.5,-75.5"/>
<text text-anchor="middle" x="255" y="-60.3" font-family="Open Sans" font-size="14.00">NPF&#45;06.1: The service</text>
<text text-anchor="middle" x="255" y="-45.3" font-family="Open Sans" font-size="14.00">ignores leading and trailing</text>
<text text-anchor="middle" x="255" y="-30.3" font-family="Open Sans" font-size="14.00">whitespace for name and</text>
<text text-anchor="middle" x="255" y="-15.3" font-family="Open Sans" font-size="14.00">value of each member.</text>
</a>
</g>
</g>
<!-- NPF&#45;06&#45;&gt;NPF&#45;06.1 -->
<g id="edge3" class="edge">
<title>NPF&#45;06&#45;&gt;NPF&#45;06.1</title>
<path fill="none" stroke="black" d="M532.57,-226.96C477.87,-190.61 377.12,-123.65 313.22,-81.19"/>
<polygon fill="black" stroke="black" points="315.11,-78.24 304.85,-75.63 311.24,-84.07 315.11,-78.24"/>
</g>
<!-- NPF&#45;06.2 -->
<g id="node5" class="node">
<title>NPF&#45;06.2</title>
<g id="a_node5"><a xlink:href="https://score-json.github.io/nlohmann_json/main/generated/NPF.html#npf-06.2" xlink:title="NPF&#45;06.2: The service\nparses duplicate names\nwithout error and reports\nthe last member with\nthat name only. " target="_top">
<polygon fill="none" stroke="black" points="567.5,-83 376.5,-83 376.5,0 567.5,0 567.5,-83"/>
<text text-anchor="middle" x="472" y="-67.8" font-family="Open Sans" font-size="14.00">NPF&#45;06.2: The service</text>
<text text-anchor="middle" x="472" y="-52.8" font-family="Open Sans" font-size="14.00">parses duplicate names</text>
<text text-anchor="middle" x="472" y="-37.8" font-family="Open Sans" font-size="14.00">without error and reports</text>
<text text-anchor="middle" x="472" y="-22.8" font-family="Open Sans" font-size="14.00">the last member with</text>
<text text-anchor="middle" x="472" y="-7.8" font-family="Open Sans" font-size="14.00">that name only. </text>
</a>
</g>
</g>
<!-- NPF&#45;06&#45;&gt;NPF&#45;06.2 -->
<g id="edge4" class="edge">
<title>NPF&#45;06&#45;&gt;NPF&#45;06.2</title>
<path fill="none" stroke="black" d="M558.86,-226.75C543.16,-193.45 515.48,-134.74 495.59,-92.53"/>
<polygon fill="black" stroke="black" points="498.64,-90.81 491.21,-83.25 492.31,-93.79 498.64,-90.81"/>
</g>
<!-- NPF&#45;06.3 -->
<g id="node6" class="node">
<title>NPF&#45;06.3</title>
<g id="a_node6"><a xlink:href="https://score-json.github.io/nlohmann_json/main/generated/NPF.html#npf-06.3" xlink:title="NPF&#45;06.3: The service\nparses empty objects.\n" target="_top">
<polygon fill="none" stroke="black" points="756,-60.5 586,-60.5 586,-22.5 756,-22.5 756,-60.5"/>
<text text-anchor="middle" x="671" y="-45.3" font-family="Open Sans" font-size="14.00">NPF&#45;06.3: The service</text>
<text text-anchor="middle" x="671" y="-30.3" font-family="Open Sans" font-size="14.00">parses empty objects.</text>
</a>
</g>
</g>
<!-- NPF&#45;06&#45;&gt;NPF&#45;06.3 -->
<g id="edge5" class="edge">
<title>NPF&#45;06&#45;&gt;NPF&#45;06.3</title>
<path fill="none" stroke="black" d="M583.26,-226.75C602.24,-186.9 638.55,-110.65 657.98,-69.85"/>
<polygon fill="black" stroke="black" points="661.17,-71.29 662.31,-60.76 654.85,-68.28 661.17,-71.29"/>
</g>
<!-- NPF&#45;06.4 -->
<g id="node7" class="node">
<title>NPF&#45;06.4</title>
<g id="a_node7"><a xlink:href="https://score-json.github.io/nlohmann_json/main/generated/NPF.html#npf-06.4" xlink:title="NPF&#45;06.4: The service\nparses non&#45;empty objects.\n" target="_top">
<polygon fill="none" stroke="black" points="976,-60.5 774,-60.5 774,-22.5 976,-22.5 976,-60.5"/>
<text text-anchor="middle" x="875" y="-45.3" font-family="Open Sans" font-size="14.00">NPF&#45;06.4: The service</text>
<text text-anchor="middle" x="875" y="-30.3" font-family="Open Sans" font-size="14.00">parses non&#45;empty objects.</text>
</a>
</g>
</g>
<!-- NPF&#45;06&#45;&gt;NPF&#45;06.4 -->
<g id="edge6" class="edge">
<title>NPF&#45;06&#45;&gt;NPF&#45;06.4</title>
<path fill="none" stroke="black" d="M607.97,-226.96C667.27,-186 782.83,-106.17 840.51,-66.32"/>
<polygon fill="black" stroke="black" points="842.68,-69.08 848.92,-60.51 838.7,-63.32 842.68,-69.08"/>
</g>
<!-- PJD&#45;03&#45;&gt;NPF&#45;06 -->
<g id="edge7" class="edge">
<title>PJD&#45;03&#45;&gt;NPF&#45;06</title>
<path fill="none" stroke="black" d="M571,-423.61C571,-389.42 571,-329.06 571,-290.46"/>
<polygon fill="black" stroke="black" points="574.5,-290.19 571,-280.19 567.5,-290.19 574.5,-290.19"/>
</g>
<!-- TA&#45;BEHAVIOURS -->
<g id="node9" class="node">
<title>TA&#45;BEHAVIOURS</title>
<g id="a_node9"><a xlink:href="https://score-json.github.io/nlohmann_json/main/_images/custom_TA-BEHAVIOURS_graph.svg" xlink:title="TA&#45;BEHAVIOURS: Expected\nor required behaviours\nfor nlohmann/json library\nare identified, specified,\nverified and validated\nbased on analysis. " target="_top">
<polygon fill="none" stroke="black" points="673,-916 469,-916 469,-818 673,-818 673,-916"/>
<text text-anchor="middle" x="571" y="-900.8" font-family="Open Sans" font-size="14.00">TA&#45;BEHAVIOURS: Expected</text>
<text text-anchor="middle" x="571" y="-885.8" font-family="Open Sans" font-size="14.00">or required behaviours</text>
<text text-anchor="middle" x="571" y="-870.8" font-family="Open Sans" font-size="14.00">for nlohmann/json library</text>
<text text-anchor="middle" x="571" y="-855.8" font-family="Open Sans" font-size="14.00">are identified, specified,</text>
<text text-anchor="middle" x="571" y="-840.8" font-family="Open Sans" font-size="14.00">verified and validated</text>
<text text-anchor="middle" x="571" y="-825.8" font-family="Open Sans" font-size="14.00">based on analysis. </text>
</a>
</g>
</g>
<!-- TA&#45;BEHAVIOURS&#45;&gt;JLEX&#45;02 -->
<g id="edge8" class="edge">
<title>TA&#45;BEHAVIOURS&#45;&gt;JLEX&#45;02</title>
<path fill="none" stroke="black" d="M571,-818C571,-777.58 571,-720.67 571,-684.18"/>
<polygon fill="black" stroke="black" points="574.5,-684.01 571,-674.01 567.5,-684.01 574.5,-684.01"/>
</g>
<!-- TT&#45;EXPECTATIONS&#45;&gt;TA&#45;BEHAVIOURS -->
<g id="edge9" class="edge">
<title>TT&#45;EXPECTATIONS&#45;&gt;TA&#45;BEHAVIOURS</title>
<path fill="none" stroke="black" d="M571,-1059.72C571,-1021.23 571,-967.2 571,-926.3"/>
<polygon fill="black" stroke="black" points="574.5,-926.2 571,-916.2 567.5,-926.2 574.5,-926.2"/>
</g>
</g>
</svg>
