<?xml version="1.0" encoding="UTF-8" standalone="no"?>
<!DOCTYPE svg PUBLIC "-//W3C//DTD SVG 1.1//EN"
 "http://www.w3.org/Graphics/SVG/1.1/DTD/svg11.dtd">
<!-- Generated by graphviz version 2.43.0 (0)
 -->
<!-- Title: G Pages: 1 -->
<svg width="1691pt" height="1378pt"
 viewBox="0.00 0.00 1691.00 1378.00" xmlns="http://www.w3.org/2000/svg" xmlns:xlink="http://www.w3.org/1999/xlink">
<g id="graph0" class="graph" transform="scale(1 1) rotate(0) translate(4 1374)">
<title>G</title>
<polygon fill="white" stroke="transparent" points="-4,4 -4,-1374 1687,-1374 1687,4 -4,4"/>
<!-- TRUSTABLE&#45;SOFTWARE -->
<g id="node1" class="node">
<title>TRUSTABLE&#45;SOFTWARE</title>
<g id="a_node1"><a xlink:href="https://score-json.github.io/nlohmann_json/main/_images/custom_TRUSTABLE-SOFTWARE_graph.svg" xlink:title="TRUSTABLE&#45;SOFTWARE: This\nrelease of JSON&#45;Library\nalso reffered in the\ndocumentation as nlohmann/json\nlibrary is Trustable.\n" target="_top">
<polygon fill="none" stroke="black" points="957.5,-1370 709.5,-1370 709.5,-1287 957.5,-1287 957.5,-1370"/>
<text text-anchor="middle" x="833.5" y="-1354.8" font-family="Open Sans" font-size="14.00">TRUSTABLE&#45;SOFTWARE: This</text>
<text text-anchor="middle" x="833.5" y="-1339.8" font-family="Open Sans" font-size="14.00">release of JSON&#45;Library</text>
<text text-anchor="middle" x="833.5" y="-1324.8" font-family="Open Sans" font-size="14.00">also reffered in the</text>
<text text-anchor="middle" x="833.5" y="-1309.8" font-family="Open Sans" font-size="14.00">documentation as nlohmann/json</text>
<text text-anchor="middle" x="833.5" y="-1294.8" font-family="Open Sans" font-size="14.00">library is Trustable.</text>
</a>
</g>
</g>
<!-- TT&#45;EXPECTATIONS -->
<g id="node13" class="node">
<title>TT&#45;EXPECTATIONS</title>
<g id="a_node13"><a xlink:href="https://score-json.github.io/nlohmann_json/main/_images/custom_TT-EXPECTATIONS_graph.svg" xlink:title="TT&#45;EXPECTATIONS: Documentation\nis provided, specifying\nwhat nlohmann/json library\nis expected to do, and\nwhat it must not do,\nand how this is verified.\n" target="_top">
<polygon fill="none" stroke="black" points="962,-1143 705,-1143 705,-1045 962,-1045 962,-1143"/>
<text text-anchor="middle" x="833.5" y="-1127.8" font-family="Open Sans" font-size="14.00">TT&#45;EXPECTATIONS: Documentation</text>
<text text-anchor="middle" x="833.5" y="-1112.8" font-family="Open Sans" font-size="14.00">is provided, specifying</text>
<text text-anchor="middle" x="833.5" y="-1097.8" font-family="Open Sans" font-size="14.00">what nlohmann/json library</text>
<text text-anchor="middle" x="833.5" y="-1082.8" font-family="Open Sans" font-size="14.00">is expected to do, and</text>
<text text-anchor="middle" x="833.5" y="-1067.8" font-family="Open Sans" font-size="14.00">what it must not do,</text>
<text text-anchor="middle" x="833.5" y="-1052.8" font-family="Open Sans" font-size="14.00">and how this is verified.</text>
</a>
</g>
</g>
<!-- TRUSTABLE&#45;SOFTWARE&#45;&gt;TT&#45;EXPECTATIONS -->
<g id="edge1" class="edge">
<title>TRUSTABLE&#45;SOFTWARE&#45;&gt;TT&#45;EXPECTATIONS</title>
<path fill="none" stroke="black" d="M833.5,-1286.74C833.5,-1249.88 833.5,-1195.18 833.5,-1153.63"/>
<polygon fill="black" stroke="black" points="837,-1153.37 833.5,-1143.37 830,-1153.37 837,-1153.37"/>
</g>
<!-- JLEX&#45;01 -->
<g id="node2" class="node">
<title>JLEX&#45;01</title>
<g id="a_node2"><a xlink:href="https://score-json.github.io/nlohmann_json/main/_images/custom_JLEX-01_graph.svg" xlink:title="JLEX&#45;01: The requirement\nregarding [JSON Validation](https://eclipse&#45;score.github.io/score/main/modules/baselibs/json/docs/requirements/index.html#comp_req__json__validation)\nis fulfilled. " target="_top">
<polygon fill="none" stroke="black" points="1371,-659 296,-659 296,-606 1371,-606 1371,-659"/>
<text text-anchor="middle" x="833.5" y="-643.8" font-family="Open Sans" font-size="14.00">JLEX&#45;01: The requirement</text>
<text text-anchor="middle" x="833.5" y="-628.8" font-family="Open Sans" font-size="14.00">regarding [JSON Validation](https://eclipse&#45;score.github.io/score/main/modules/baselibs/json/docs/requirements/index.html#comp_req__json__validation)</text>
<text text-anchor="middle" x="833.5" y="-613.8" font-family="Open Sans" font-size="14.00">is fulfilled. </text>
</a>
</g>
</g>
<!-- WFJ&#45;05 -->
<g id="node14" class="node">
<title>WFJ&#45;05</title>
<g id="a_node14"><a xlink:href="https://score-json.github.io/nlohmann_json/main/_images/custom_WFJ-05_graph.svg" xlink:title="WFJ&#45;05: The service checks\nthe well&#45;formedness of\nobjects. " target="_top">
<polygon fill="none" stroke="black" points="936.5,-462 730.5,-462 730.5,-409 936.5,-409 936.5,-462"/>
<text text-anchor="middle" x="833.5" y="-446.8" font-family="Open Sans" font-size="14.00">WFJ&#45;05: The service checks</text>
<text text-anchor="middle" x="833.5" y="-431.8" font-family="Open Sans" font-size="14.00">the well&#45;formedness of</text>
<text text-anchor="middle" x="833.5" y="-416.8" font-family="Open Sans" font-size="14.00">objects. </text>
</a>
</g>
</g>
<!-- JLEX&#45;01&#45;&gt;WFJ&#45;05 -->
<g id="edge2" class="edge">
<title>JLEX&#45;01&#45;&gt;WFJ&#45;05</title>
<path fill="none" stroke="black" d="M833.5,-605.61C833.5,-571.42 833.5,-511.06 833.5,-472.46"/>
<polygon fill="black" stroke="black" points="837,-472.19 833.5,-462.19 830,-472.19 837,-472.19"/>
</g>
<!-- NJF&#45;06 -->
<g id="node3" class="node">
<title>NJF&#45;06</title>
<g id="a_node3"><a xlink:href="https://score-json.github.io/nlohmann_json/main/_images/custom_NJF-06_graph.svg" xlink:title="NJF&#45;06: The service accepts\nand rejects objects according\nto RFC8259 ยง4. " target="_top">
<polygon fill="none" stroke="black" points="943,-265 724,-265 724,-212 943,-212 943,-265"/>
<text text-anchor="middle" x="833.5" y="-249.8" font-family="Open Sans" font-size="14.00">NJF&#45;06: The service accepts</text>
<text text-anchor="middle" x="833.5" y="-234.8" font-family="Open Sans" font-size="14.00">and rejects objects according</text>
<text text-anchor="middle" x="833.5" y="-219.8" font-family="Open Sans" font-size="14.00">to RFC8259 ยง4. </text>
</a>
</g>
</g>
<!-- NJF&#45;06.1 -->
<g id="node4" class="node">
<title>NJF&#45;06.1</title>
<g id="a_node4"><a xlink:href="https://score-json.github.io/nlohmann_json/main/generated/NJF.html#njf-06.1" xlink:title="NJF&#45;06.1: The service\naccepts the empty object.\n" target="_top">
<polygon fill="none" stroke="black" points="197,-53 0,-53 0,-15 197,-15 197,-53"/>
<text text-anchor="middle" x="98.5" y="-37.8" font-family="Open Sans" font-size="14.00">NJF&#45;06.1: The service</text>
<text text-anchor="middle" x="98.5" y="-22.8" font-family="Open Sans" font-size="14.00">accepts the empty object.</text>
</a>
</g>
</g>
<!-- NJF&#45;06&#45;&gt;NJF&#45;06.1 -->
<g id="edge3" class="edge">
<title>NJF&#45;06&#45;&gt;NJF&#45;06.1</title>
<path fill="none" stroke="black" d="M735.21,-211.99C611.53,-179.64 392.75,-121.61 206.5,-68 193.39,-64.22 179.42,-60.06 166.03,-56"/>
<polygon fill="black" stroke="black" points="166.99,-52.64 156.41,-53.07 164.95,-59.33 166.99,-52.64"/>
</g>
<!-- NJF&#45;06.2 -->
<g id="node5" class="node">
<title>NJF&#45;06.2</title>
<g id="a_node5"><a xlink:href="https://score-json.github.io/nlohmann_json/main/generated/NJF.html#njf-06.2" xlink:title="NJF&#45;06.2: The service\ndoes not accept improperly\nbounded objects. " target="_top">
<polygon fill="none" stroke="black" points="421.5,-60.5 215.5,-60.5 215.5,-7.5 421.5,-7.5 421.5,-60.5"/>
<text text-anchor="middle" x="318.5" y="-45.3" font-family="Open Sans" font-size="14.00">NJF&#45;06.2: The service</text>
<text text-anchor="middle" x="318.5" y="-30.3" font-family="Open Sans" font-size="14.00">does not accept improperly</text>
<text text-anchor="middle" x="318.5" y="-15.3" font-family="Open Sans" font-size="14.00">bounded objects. </text>
</a>
</g>
</g>
<!-- NJF&#45;06&#45;&gt;NJF&#45;06.2 -->
<g id="edge4" class="edge">
<title>NJF&#45;06&#45;&gt;NJF&#45;06.2</title>
<path fill="none" stroke="black" d="M768.54,-211.96C672.79,-174.31 494.24,-104.1 393.21,-64.37"/>
<polygon fill="black" stroke="black" points="394.26,-61.03 383.68,-60.63 391.7,-67.54 394.26,-61.03"/>
</g>
<!-- NJF&#45;06.3 -->
<g id="node6" class="node">
<title>NJF&#45;06.3</title>
<g id="a_node6"><a xlink:href="https://score-json.github.io/nlohmann_json/main/generated/NJF.html#njf-06.3" xlink:title="NJF&#45;06.3: The service\naccepts the non&#45;empty\nobjects. " target="_top">
<polygon fill="none" stroke="black" points="617,-60.5 440,-60.5 440,-7.5 617,-7.5 617,-60.5"/>
<text text-anchor="middle" x="528.5" y="-45.3" font-family="Open Sans" font-size="14.00">NJF&#45;06.3: The service</text>
<text text-anchor="middle" x="528.5" y="-30.3" font-family="Open Sans" font-size="14.00">accepts the non&#45;empty</text>
<text text-anchor="middle" x="528.5" y="-15.3" font-family="Open Sans" font-size="14.00">objects. </text>
</a>
</g>
</g>
<!-- NJF&#45;06&#45;&gt;NJF&#45;06.3 -->
<g id="edge5" class="edge">
<title>NJF&#45;06&#45;&gt;NJF&#45;06.3</title>
<path fill="none" stroke="black" d="M794.87,-211.85C739.11,-174.83 636.14,-106.47 575.87,-66.45"/>
<polygon fill="black" stroke="black" points="577.56,-63.37 567.3,-60.76 573.69,-69.2 577.56,-63.37"/>
</g>
<!-- NJF&#45;06.4 -->
<g id="node7" class="node">
<title>NJF&#45;06.4</title>
<g id="a_node7"><a xlink:href="https://score-json.github.io/nlohmann_json/main/_images/custom_NJF-06.4_graph.svg" xlink:title="NJF&#45;06.4: The admissible\nmembers of an object\nhave the form name :\nvalue. " target="_top">
<polygon fill="none" stroke="black" points="825.5,-68 635.5,-68 635.5,0 825.5,0 825.5,-68"/>
<text text-anchor="middle" x="730.5" y="-52.8" font-family="Open Sans" font-size="14.00">NJF&#45;06.4: The admissible</text>
<text text-anchor="middle" x="730.5" y="-37.8" font-family="Open Sans" font-size="14.00">members of an object</text>
<text text-anchor="middle" x="730.5" y="-22.8" font-family="Open Sans" font-size="14.00">have the form name :</text>
<text text-anchor="middle" x="730.5" y="-7.8" font-family="Open Sans" font-size="14.00">value. </text>
</a>
</g>
</g>
<!-- NJF&#45;06&#45;&gt;NJF&#45;06.4 -->
<g id="edge6" class="edge">
<title>NJF&#45;06&#45;&gt;NJF&#45;06.4</title>
<path fill="none" stroke="black" d="M820.45,-211.85C803.23,-177.99 772.67,-117.9 752,-77.27"/>
<polygon fill="black" stroke="black" points="755.02,-75.48 747.36,-68.15 748.78,-78.65 755.02,-75.48"/>
</g>
<!-- NJF&#45;06.5 -->
<g id="node8" class="node">
<title>NJF&#45;06.5</title>
<g id="a_node8"><a xlink:href="https://score-json.github.io/nlohmann_json/main/_images/custom_NJF-06.5_graph.svg" xlink:title="NJF&#45;06.5: The service\ndoes not accept objects\nwith improper members.\n" target="_top">
<polygon fill="none" stroke="black" points="1031.5,-60.5 843.5,-60.5 843.5,-7.5 1031.5,-7.5 1031.5,-60.5"/>
<text text-anchor="middle" x="937.5" y="-45.3" font-family="Open Sans" font-size="14.00">NJF&#45;06.5: The service</text>
<text text-anchor="middle" x="937.5" y="-30.3" font-family="Open Sans" font-size="14.00">does not accept objects</text>
<text text-anchor="middle" x="937.5" y="-15.3" font-family="Open Sans" font-size="14.00">with improper members.</text>
</a>
</g>
</g>
<!-- NJF&#45;06&#45;&gt;NJF&#45;06.5 -->
<g id="edge7" class="edge">
<title>NJF&#45;06&#45;&gt;NJF&#45;06.5</title>
<path fill="none" stroke="black" d="M846.67,-211.85C865.18,-175.82 898.94,-110.09 919.68,-69.71"/>
<polygon fill="black" stroke="black" points="922.82,-71.25 924.27,-60.76 916.59,-68.05 922.82,-71.25"/>
</g>
<!-- NJF&#45;06.6 -->
<g id="node9" class="node">
<title>NJF&#45;06.6</title>
<g id="a_node9"><a xlink:href="https://score-json.github.io/nlohmann_json/main/generated/NJF.html#njf-06.6" xlink:title="NJF&#45;06.6: The service\naccept the nested objects.\n" target="_top">
<polygon fill="none" stroke="black" points="1249.5,-53 1049.5,-53 1049.5,-15 1249.5,-15 1249.5,-53"/>
<text text-anchor="middle" x="1149.5" y="-37.8" font-family="Open Sans" font-size="14.00">NJF&#45;06.6: The service</text>
<text text-anchor="middle" x="1149.5" y="-22.8" font-family="Open Sans" font-size="14.00">accept the nested objects.</text>
</a>
</g>
</g>
<!-- NJF&#45;06&#45;&gt;NJF&#45;06.6 -->
<g id="edge8" class="edge">
<title>NJF&#45;06&#45;&gt;NJF&#45;06.6</title>
<path fill="none" stroke="black" d="M873.52,-211.85C935.13,-172.37 1052.34,-97.27 1112.24,-58.88"/>
<polygon fill="black" stroke="black" points="1114.46,-61.61 1120.99,-53.27 1110.68,-55.72 1114.46,-61.61"/>
</g>
<!-- NJF&#45;06.6.0 -->
<g id="node10" class="node">
<title>NJF&#45;06.6.0</title>
<g id="a_node10"><a xlink:href="https://score-json.github.io/nlohmann_json/main/generated/NJF.html#njf-06.6.0" xlink:title="NJF&#45;06.6.0: The acceptance\nof nested objects does\nnot depend on the depth\nof nesting. " target="_top">
<polygon fill="none" stroke="black" points="1475.5,-68 1267.5,-68 1267.5,0 1475.5,0 1475.5,-68"/>
<text text-anchor="middle" x="1371.5" y="-52.8" font-family="Open Sans" font-size="14.00">NJF&#45;06.6.0: The acceptance</text>
<text text-anchor="middle" x="1371.5" y="-37.8" font-family="Open Sans" font-size="14.00">of nested objects does</text>
<text text-anchor="middle" x="1371.5" y="-22.8" font-family="Open Sans" font-size="14.00">not depend on the depth</text>
<text text-anchor="middle" x="1371.5" y="-7.8" font-family="Open Sans" font-size="14.00">of nesting. </text>
</a>
</g>
</g>
<!-- NJF&#45;06&#45;&gt;NJF&#45;06.6.0 -->
<g id="edge10" class="edge">
<title>NJF&#45;06&#45;&gt;NJF&#45;06.6.0</title>
<path fill="none" stroke="black" d="M901.37,-211.96C995.56,-176.5 1166.46,-112.18 1274.21,-71.62"/>
<polygon fill="black" stroke="black" points="1275.66,-74.81 1283.79,-68.02 1273.19,-68.26 1275.66,-74.81"/>
</g>
<!-- NJF&#45;06.7 -->
<g id="node11" class="node">
<title>NJF&#45;06.7</title>
<g id="a_node11"><a xlink:href="https://score-json.github.io/nlohmann_json/main/_images/custom_NJF-06.7_graph.svg" xlink:title="NJF&#45;06.7: The service\ndoes only accept comma\nas member separator.\n" target="_top">
<polygon fill="none" stroke="black" points="1683,-60.5 1494,-60.5 1494,-7.5 1683,-7.5 1683,-60.5"/>
<text text-anchor="middle" x="1588.5" y="-45.3" font-family="Open Sans" font-size="14.00">NJF&#45;06.7: The service</text>
<text text-anchor="middle" x="1588.5" y="-30.3" font-family="Open Sans" font-size="14.00">does only accept comma</text>
<text text-anchor="middle" x="1588.5" y="-15.3" font-family="Open Sans" font-size="14.00">as member separator.</text>
</a>
</g>
</g>
<!-- NJF&#45;06&#45;&gt;NJF&#45;06.7 -->
<g id="edge9" class="edge">
<title>NJF&#45;06&#45;&gt;NJF&#45;06.7</title>
<path fill="none" stroke="black" d="M938.54,-211.96C1067.61,-180.15 1293.04,-123.26 1484.5,-68 1489.44,-66.58 1494.49,-65.08 1499.59,-63.55"/>
<polygon fill="black" stroke="black" points="1500.87,-66.82 1509.42,-60.57 1498.83,-60.12 1500.87,-66.82"/>
</g>
<!-- TA&#45;BEHAVIOURS -->
<g id="node12" class="node">
<title>TA&#45;BEHAVIOURS</title>
<g id="a_node12"><a xlink:href="https://score-json.github.io/nlohmann_json/main/_images/custom_TA-BEHAVIOURS_graph.svg" xlink:title="TA&#45;BEHAVIOURS: Expected\nor required behaviours\nfor nlohmann/json library\nare identified, specified,\nverified and validated\nbased on analysis. " target="_top">
<polygon fill="none" stroke="black" points="935.5,-901 731.5,-901 731.5,-803 935.5,-803 935.5,-901"/>
<text text-anchor="middle" x="833.5" y="-885.8" font-family="Open Sans" font-size="14.00">TA&#45;BEHAVIOURS: Expected</text>
<text text-anchor="middle" x="833.5" y="-870.8" font-family="Open Sans" font-size="14.00">or required behaviours</text>
<text text-anchor="middle" x="833.5" y="-855.8" font-family="Open Sans" font-size="14.00">for nlohmann/json library</text>
<text text-anchor="middle" x="833.5" y="-840.8" font-family="Open Sans" font-size="14.00">are identified, specified,</text>
<text text-anchor="middle" x="833.5" y="-825.8" font-family="Open Sans" font-size="14.00">verified and validated</text>
<text text-anchor="middle" x="833.5" y="-810.8" font-family="Open Sans" font-size="14.00">based on analysis. </text>
</a>
</g>
</g>
<!-- TA&#45;BEHAVIOURS&#45;&gt;JLEX&#45;01 -->
<g id="edge11" class="edge">
<title>TA&#45;BEHAVIOURS&#45;&gt;JLEX&#45;01</title>
<path fill="none" stroke="black" d="M833.5,-803C833.5,-762.58 833.5,-705.67 833.5,-669.18"/>
<polygon fill="black" stroke="black" points="837,-669.01 833.5,-659.01 830,-669.01 837,-669.01"/>
</g>
<!-- TT&#45;EXPECTATIONS&#45;&gt;TA&#45;BEHAVIOURS -->
<g id="edge12" class="edge">
<title>TT&#45;EXPECTATIONS&#45;&gt;TA&#45;BEHAVIOURS</title>
<path fill="none" stroke="black" d="M833.5,-1044.72C833.5,-1006.23 833.5,-952.2 833.5,-911.3"/>
<polygon fill="black" stroke="black" points="837,-911.2 833.5,-901.2 830,-911.2 837,-911.2"/>
</g>
<!-- WFJ&#45;05&#45;&gt;NJF&#45;06 -->
<g id="edge13" class="edge">
<title>WFJ&#45;05&#45;&gt;NJF&#45;06</title>
<path fill="none" stroke="black" d="M833.5,-408.61C833.5,-374.42 833.5,-314.06 833.5,-275.46"/>
<polygon fill="black" stroke="black" points="837,-275.19 833.5,-265.19 830,-275.19 837,-275.19"/>
</g>
</g>
</svg>
