<?xml version="1.0" encoding="UTF-8" standalone="no"?>
<!DOCTYPE svg PUBLIC "-//W3C//DTD SVG 1.1//EN"
 "http://www.w3.org/Graphics/SVG/1.1/DTD/svg11.dtd">
<!-- Generated by graphviz version 2.43.0 (0)
 -->
<!-- Title: G Pages: 1 -->
<svg width="1249pt" height="1468pt"
 viewBox="0.00 0.00 1249.00 1468.00" xmlns="http://www.w3.org/2000/svg" xmlns:xlink="http://www.w3.org/1999/xlink">
<g id="graph0" class="graph" transform="scale(1 1) rotate(0) translate(4 1464)">
<title>G</title>
<polygon fill="white" stroke="transparent" points="-4,4 -4,-1464 1245,-1464 1245,4 -4,4"/>
<!-- TRUSTABLE&#45;SOFTWARE -->
<g id="node1" class="node">
<title>TRUSTABLE&#45;SOFTWARE</title>
<g id="a_node1"><a xlink:href="https://score-json.github.io/nlohmann_json/main/_images/custom_TRUSTABLE-SOFTWARE_graph.svg" xlink:title="TRUSTABLE&#45;SOFTWARE: This\nrelease of JSON&#45;Library\nalso referred in the\ndocumentation as nlohmann/json\nlibrary is Trustable.\n" target="_top">
<polygon fill="none" stroke="black" points="742.5,-1460 494.5,-1460 494.5,-1377 742.5,-1377 742.5,-1460"/>
<text text-anchor="middle" x="618.5" y="-1444.8" font-family="Open Sans" font-size="14.00">TRUSTABLE&#45;SOFTWARE: This</text>
<text text-anchor="middle" x="618.5" y="-1429.8" font-family="Open Sans" font-size="14.00">release of JSON&#45;Library</text>
<text text-anchor="middle" x="618.5" y="-1414.8" font-family="Open Sans" font-size="14.00">also referred in the</text>
<text text-anchor="middle" x="618.5" y="-1399.8" font-family="Open Sans" font-size="14.00">documentation as nlohmann/json</text>
<text text-anchor="middle" x="618.5" y="-1384.8" font-family="Open Sans" font-size="14.00">library is Trustable.</text>
</a>
</g>
</g>
<!-- TT&#45;EXPECTATIONS -->
<g id="node10" class="node">
<title>TT&#45;EXPECTATIONS</title>
<g id="a_node10"><a xlink:href="https://score-json.github.io/nlohmann_json/main/_images/custom_TT-EXPECTATIONS_graph.svg" xlink:title="TT&#45;EXPECTATIONS: Documentation\nis provided within eclipse&#45;score/inc_nlohmann_json,\nspecifying what the nlohmann/json\nlibrary is expected to\ndo, and what it must\nnot do, and how this\nis verified. " target="_top">
<polygon fill="none" stroke="black" points="806,-1233 431,-1233 431,-1120 806,-1120 806,-1233"/>
<text text-anchor="middle" x="618.5" y="-1217.8" font-family="Open Sans" font-size="14.00">TT&#45;EXPECTATIONS: Documentation</text>
<text text-anchor="middle" x="618.5" y="-1202.8" font-family="Open Sans" font-size="14.00">is provided within eclipse&#45;score/inc_nlohmann_json,</text>
<text text-anchor="middle" x="618.5" y="-1187.8" font-family="Open Sans" font-size="14.00">specifying what the nlohmann/json</text>
<text text-anchor="middle" x="618.5" y="-1172.8" font-family="Open Sans" font-size="14.00">library is expected to</text>
<text text-anchor="middle" x="618.5" y="-1157.8" font-family="Open Sans" font-size="14.00">do, and what it must</text>
<text text-anchor="middle" x="618.5" y="-1142.8" font-family="Open Sans" font-size="14.00">not do, and how this</text>
<text text-anchor="middle" x="618.5" y="-1127.8" font-family="Open Sans" font-size="14.00">is verified. </text>
</a>
</g>
</g>
<!-- TRUSTABLE&#45;SOFTWARE&#45;&gt;TT&#45;EXPECTATIONS -->
<g id="edge1" class="edge">
<title>TRUSTABLE&#45;SOFTWARE&#45;&gt;TT&#45;EXPECTATIONS</title>
<path fill="none" stroke="black" d="M618.5,-1376.79C618.5,-1340.26 618.5,-1286 618.5,-1243.32"/>
<polygon fill="black" stroke="black" points="622,-1243.29 618.5,-1233.29 615,-1243.29 622,-1243.29"/>
</g>
<!-- JLEX&#45;01 -->
<g id="node2" class="node">
<title>JLEX&#45;01</title>
<g id="a_node2"><a xlink:href="https://score-json.github.io/nlohmann_json/main/_images/custom_JLEX-01_graph.svg" xlink:title="JLEX&#45;01: The requirement\nregarding [JSON Validation](https://eclipse&#45;score.github.io/score/main/modules/baselibs/json/docs/requirements/index.html#comp_req__json__validation)\nis fulfilled. " target="_top">
<polygon fill="none" stroke="black" points="1156,-734 81,-734 81,-681 1156,-681 1156,-734"/>
<text text-anchor="middle" x="618.5" y="-718.8" font-family="Open Sans" font-size="14.00">JLEX&#45;01: The requirement</text>
<text text-anchor="middle" x="618.5" y="-703.8" font-family="Open Sans" font-size="14.00">regarding [JSON Validation](https://eclipse&#45;score.github.io/score/main/modules/baselibs/json/docs/requirements/index.html#comp_req__json__validation)</text>
<text text-anchor="middle" x="618.5" y="-688.8" font-family="Open Sans" font-size="14.00">is fulfilled. </text>
</a>
</g>
</g>
<!-- WFJ&#45;07 -->
<g id="node11" class="node">
<title>WFJ&#45;07</title>
<g id="a_node11"><a xlink:href="https://score-json.github.io/nlohmann_json/main/_images/custom_WFJ-07_graph.svg" xlink:title="WFJ&#45;07: The service provided\nby the nlohmann/json\nlibrary checks that JSON\nis only serialized using\nUTF&#45;8. " target="_top">
<polygon fill="none" stroke="black" points="728,-537 509,-537 509,-454 728,-454 728,-537"/>
<text text-anchor="middle" x="618.5" y="-521.8" font-family="Open Sans" font-size="14.00">WFJ&#45;07: The service provided</text>
<text text-anchor="middle" x="618.5" y="-506.8" font-family="Open Sans" font-size="14.00">by the nlohmann/json</text>
<text text-anchor="middle" x="618.5" y="-491.8" font-family="Open Sans" font-size="14.00">library checks that JSON</text>
<text text-anchor="middle" x="618.5" y="-476.8" font-family="Open Sans" font-size="14.00">is only serialized using</text>
<text text-anchor="middle" x="618.5" y="-461.8" font-family="Open Sans" font-size="14.00">UTF&#45;8. </text>
</a>
</g>
</g>
<!-- JLEX&#45;01&#45;&gt;WFJ&#45;07 -->
<g id="edge2" class="edge">
<title>JLEX&#45;01&#45;&gt;WFJ&#45;07</title>
<path fill="none" stroke="black" d="M618.5,-680.75C618.5,-647.66 618.5,-589.48 618.5,-547.33"/>
<polygon fill="black" stroke="black" points="622,-547.25 618.5,-537.25 615,-547.25 622,-547.25"/>
</g>
<!-- NJF&#45;12 -->
<g id="node3" class="node">
<title>NJF&#45;12</title>
<g id="a_node3"><a xlink:href="https://score-json.github.io/nlohmann_json/main/_images/custom_NJF-12_graph.svg" xlink:title="NJF&#45;12: The service provided\nby the nlohmann/json\nlibrary decodes UTF&#45;8\ndata. " target="_top">
<polygon fill="none" stroke="black" points="727,-310 510,-310 510,-242 727,-242 727,-310"/>
<text text-anchor="middle" x="618.5" y="-294.8" font-family="Open Sans" font-size="14.00">NJF&#45;12: The service provided</text>
<text text-anchor="middle" x="618.5" y="-279.8" font-family="Open Sans" font-size="14.00">by the nlohmann/json</text>
<text text-anchor="middle" x="618.5" y="-264.8" font-family="Open Sans" font-size="14.00">library decodes UTF&#45;8</text>
<text text-anchor="middle" x="618.5" y="-249.8" font-family="Open Sans" font-size="14.00">data. </text>
</a>
</g>
</g>
<!-- NJF&#45;12.1 -->
<g id="node4" class="node">
<title>NJF&#45;12.1</title>
<g id="a_node4"><a xlink:href="https://score-json.github.io/nlohmann_json/main/generated/NJF.html#njf-12.1" xlink:title="NJF&#45;12.1: The service\nprovided by the nlohmann/json\nlibrary rejects malformed\nUTF&#45;8 data. " target="_top">
<polygon fill="none" stroke="black" points="233,-83 0,-83 0,-15 233,-15 233,-83"/>
<text text-anchor="middle" x="116.5" y="-67.8" font-family="Open Sans" font-size="14.00">NJF&#45;12.1: The service</text>
<text text-anchor="middle" x="116.5" y="-52.8" font-family="Open Sans" font-size="14.00">provided by the nlohmann/json</text>
<text text-anchor="middle" x="116.5" y="-37.8" font-family="Open Sans" font-size="14.00">library rejects malformed</text>
<text text-anchor="middle" x="116.5" y="-22.8" font-family="Open Sans" font-size="14.00">UTF&#45;8 data. </text>
</a>
</g>
</g>
<!-- NJF&#45;12&#45;&gt;NJF&#45;12.1 -->
<g id="edge3" class="edge">
<title>NJF&#45;12&#45;&gt;NJF&#45;12.1</title>
<path fill="none" stroke="black" d="M544.7,-241.92C452.65,-200.66 295.71,-130.32 199.54,-87.22"/>
<polygon fill="black" stroke="black" points="200.7,-83.9 190.14,-83.01 197.84,-90.29 200.7,-83.9"/>
</g>
<!-- NJF&#45;12.2 -->
<g id="node5" class="node">
<title>NJF&#45;12.2</title>
<g id="a_node5"><a xlink:href="https://score-json.github.io/nlohmann_json/main/generated/NJF.html#njf-12.2" xlink:title="NJF&#45;12.2: The service\nprovided by the nlohmann/json\nlibrary rejects &quot;overlong\nsequences&quot;. " target="_top">
<polygon fill="none" stroke="black" points="484,-83 251,-83 251,-15 484,-15 484,-83"/>
<text text-anchor="middle" x="367.5" y="-67.8" font-family="Open Sans" font-size="14.00">NJF&#45;12.2: The service</text>
<text text-anchor="middle" x="367.5" y="-52.8" font-family="Open Sans" font-size="14.00">provided by the nlohmann/json</text>
<text text-anchor="middle" x="367.5" y="-37.8" font-family="Open Sans" font-size="14.00">library rejects &quot;overlong</text>
<text text-anchor="middle" x="367.5" y="-22.8" font-family="Open Sans" font-size="14.00">sequences&quot;. </text>
</a>
</g>
</g>
<!-- NJF&#45;12&#45;&gt;NJF&#45;12.2 -->
<g id="edge4" class="edge">
<title>NJF&#45;12&#45;&gt;NJF&#45;12.2</title>
<path fill="none" stroke="black" d="M581.46,-241.8C536.42,-201.42 460.44,-133.31 412.18,-90.06"/>
<polygon fill="black" stroke="black" points="414.47,-87.4 404.69,-83.34 409.8,-92.62 414.47,-87.4"/>
</g>
<!-- NJF&#45;12.3 -->
<g id="node6" class="node">
<title>NJF&#45;12.3</title>
<g id="a_node6"><a xlink:href="https://score-json.github.io/nlohmann_json/main/generated/NJF.html#njf-12.3" xlink:title="NJF&#45;12.3: The service\nprovided by the nlohmann/json\nlibrary rejects single\nescaped and unescaped,\nand paired unescaped\nutf&#45;16 surrogates. " target="_top">
<polygon fill="none" stroke="black" points="735,-98 502,-98 502,0 735,0 735,-98"/>
<text text-anchor="middle" x="618.5" y="-82.8" font-family="Open Sans" font-size="14.00">NJF&#45;12.3: The service</text>
<text text-anchor="middle" x="618.5" y="-67.8" font-family="Open Sans" font-size="14.00">provided by the nlohmann/json</text>
<text text-anchor="middle" x="618.5" y="-52.8" font-family="Open Sans" font-size="14.00">library rejects single</text>
<text text-anchor="middle" x="618.5" y="-37.8" font-family="Open Sans" font-size="14.00">escaped and unescaped,</text>
<text text-anchor="middle" x="618.5" y="-22.8" font-family="Open Sans" font-size="14.00">and paired unescaped</text>
<text text-anchor="middle" x="618.5" y="-7.8" font-family="Open Sans" font-size="14.00">utf&#45;16 surrogates. </text>
</a>
</g>
</g>
<!-- NJF&#45;12&#45;&gt;NJF&#45;12.3 -->
<g id="edge5" class="edge">
<title>NJF&#45;12&#45;&gt;NJF&#45;12.3</title>
<path fill="none" stroke="black" d="M618.5,-241.8C618.5,-206.79 618.5,-150.94 618.5,-108.51"/>
<polygon fill="black" stroke="black" points="622,-108.31 618.5,-98.31 615,-108.31 622,-108.31"/>
</g>
<!-- NJF&#45;12.5 -->
<g id="node7" class="node">
<title>NJF&#45;12.5</title>
<g id="a_node7"><a xlink:href="https://score-json.github.io/nlohmann_json/main/generated/NJF.html#njf-12.5" xlink:title="NJF&#45;12.5: The service\nprovided by the nlohmann/json\nlibrary accepts Non&#45;Characters.\n" target="_top">
<polygon fill="none" stroke="black" points="990,-75.5 753,-75.5 753,-22.5 990,-22.5 990,-75.5"/>
<text text-anchor="middle" x="871.5" y="-60.3" font-family="Open Sans" font-size="14.00">NJF&#45;12.5: The service</text>
<text text-anchor="middle" x="871.5" y="-45.3" font-family="Open Sans" font-size="14.00">provided by the nlohmann/json</text>
<text text-anchor="middle" x="871.5" y="-30.3" font-family="Open Sans" font-size="14.00">library accepts Non&#45;Characters.</text>
</a>
</g>
</g>
<!-- NJF&#45;12&#45;&gt;NJF&#45;12.5 -->
<g id="edge6" class="edge">
<title>NJF&#45;12&#45;&gt;NJF&#45;12.5</title>
<path fill="none" stroke="black" d="M655.83,-241.8C704.01,-198.96 787.29,-124.89 835.04,-82.43"/>
<polygon fill="black" stroke="black" points="837.52,-84.9 842.67,-75.64 832.87,-79.67 837.52,-84.9"/>
</g>
<!-- NJF&#45;12.6 -->
<g id="node8" class="node">
<title>NJF&#45;12.6</title>
<g id="a_node8"><a xlink:href="https://score-json.github.io/nlohmann_json/main/generated/NJF.html#njf-12.6" xlink:title="NJF&#45;12.6: The service\nprovided by the nlohmann/json\nlibrary accepts well&#45;formed\nUTF&#45;8 data. " target="_top">
<polygon fill="none" stroke="black" points="1241,-83 1008,-83 1008,-15 1241,-15 1241,-83"/>
<text text-anchor="middle" x="1124.5" y="-67.8" font-family="Open Sans" font-size="14.00">NJF&#45;12.6: The service</text>
<text text-anchor="middle" x="1124.5" y="-52.8" font-family="Open Sans" font-size="14.00">provided by the nlohmann/json</text>
<text text-anchor="middle" x="1124.5" y="-37.8" font-family="Open Sans" font-size="14.00">library accepts well&#45;formed</text>
<text text-anchor="middle" x="1124.5" y="-22.8" font-family="Open Sans" font-size="14.00">UTF&#45;8 data. </text>
</a>
</g>
</g>
<!-- NJF&#45;12&#45;&gt;NJF&#45;12.6 -->
<g id="edge7" class="edge">
<title>NJF&#45;12&#45;&gt;NJF&#45;12.6</title>
<path fill="none" stroke="black" d="M692.89,-241.92C785.77,-200.62 944.19,-130.18 1041.09,-87.09"/>
<polygon fill="black" stroke="black" points="1042.55,-90.27 1050.27,-83.01 1039.71,-83.87 1042.55,-90.27"/>
</g>
<!-- TA&#45;BEHAVIOURS -->
<g id="node9" class="node">
<title>TA&#45;BEHAVIOURS</title>
<g id="a_node9"><a xlink:href="https://score-json.github.io/nlohmann_json/main/_images/custom_TA-BEHAVIOURS_graph.svg" xlink:title="TA&#45;BEHAVIOURS: Expected\nor required behaviours\nfor the nlohmann/json\nlibrary are identified,\nspecified, verified and\nvalidated based on analysis.\n" target="_top">
<polygon fill="none" stroke="black" points="725.5,-976 511.5,-976 511.5,-878 725.5,-878 725.5,-976"/>
<text text-anchor="middle" x="618.5" y="-960.8" font-family="Open Sans" font-size="14.00">TA&#45;BEHAVIOURS: Expected</text>
<text text-anchor="middle" x="618.5" y="-945.8" font-family="Open Sans" font-size="14.00">or required behaviours</text>
<text text-anchor="middle" x="618.5" y="-930.8" font-family="Open Sans" font-size="14.00">for the nlohmann/json</text>
<text text-anchor="middle" x="618.5" y="-915.8" font-family="Open Sans" font-size="14.00">library are identified,</text>
<text text-anchor="middle" x="618.5" y="-900.8" font-family="Open Sans" font-size="14.00">specified, verified and</text>
<text text-anchor="middle" x="618.5" y="-885.8" font-family="Open Sans" font-size="14.00">validated based on analysis.</text>
</a>
</g>
</g>
<!-- TA&#45;BEHAVIOURS&#45;&gt;JLEX&#45;01 -->
<g id="edge8" class="edge">
<title>TA&#45;BEHAVIOURS&#45;&gt;JLEX&#45;01</title>
<path fill="none" stroke="black" d="M618.5,-878C618.5,-837.58 618.5,-780.67 618.5,-744.18"/>
<polygon fill="black" stroke="black" points="622,-744.01 618.5,-734.01 615,-744.01 622,-744.01"/>
</g>
<!-- TT&#45;EXPECTATIONS&#45;&gt;TA&#45;BEHAVIOURS -->
<g id="edge9" class="edge">
<title>TT&#45;EXPECTATIONS&#45;&gt;TA&#45;BEHAVIOURS</title>
<path fill="none" stroke="black" d="M618.5,-1119.96C618.5,-1080.23 618.5,-1026.87 618.5,-986.49"/>
<polygon fill="black" stroke="black" points="622,-986.26 618.5,-976.26 615,-986.26 622,-986.26"/>
</g>
<!-- WFJ&#45;07&#45;&gt;NJF&#45;12 -->
<g id="edge10" class="edge">
<title>WFJ&#45;07&#45;&gt;NJF&#45;12</title>
<path fill="none" stroke="black" d="M618.5,-453.85C618.5,-415.97 618.5,-359.66 618.5,-320.8"/>
<polygon fill="black" stroke="black" points="622,-320.33 618.5,-310.33 615,-320.33 622,-320.33"/>
</g>
</g>
</svg>
