<?xml version="1.0" encoding="UTF-8" standalone="no"?>
<!DOCTYPE svg PUBLIC "-//W3C//DTD SVG 1.1//EN"
 "http://www.w3.org/Graphics/SVG/1.1/DTD/svg11.dtd">
<!-- Generated by graphviz version 2.43.0 (0)
 -->
<!-- Title: G Pages: 1 -->
<svg width="1351pt" height="817pt"
 viewBox="0.00 0.00 1350.50 817.00" xmlns="http://www.w3.org/2000/svg" xmlns:xlink="http://www.w3.org/1999/xlink">
<g id="graph0" class="graph" transform="scale(1 1) rotate(0) translate(4 813)">
<title>G</title>
<polygon fill="white" stroke="transparent" points="-4,4 -4,-813 1346.5,-813 1346.5,4 -4,4"/>
<!-- TRUSTABLE&#45;SOFTWARE -->
<g id="node1" class="node">
<title>TRUSTABLE&#45;SOFTWARE</title>
<g id="a_node1"><a xlink:href="https://score-json.github.io/nlohmann_json/main/_images/custom_TRUSTABLE-SOFTWARE_graph.svg" xlink:title="TRUSTABLE&#45;SOFTWARE: This\nrelease of JSON&#45;Library\nalso referred in the\ndocumentation as nlohmann/json\nlibrary is Trustable.\n" target="_top">
<polygon fill="none" stroke="black" points="780.5,-809 532.5,-809 532.5,-726 780.5,-726 780.5,-809"/>
<text text-anchor="middle" x="656.5" y="-793.8" font-family="Open Sans" font-size="14.00">TRUSTABLE&#45;SOFTWARE: This</text>
<text text-anchor="middle" x="656.5" y="-778.8" font-family="Open Sans" font-size="14.00">release of JSON&#45;Library</text>
<text text-anchor="middle" x="656.5" y="-763.8" font-family="Open Sans" font-size="14.00">also referred in the</text>
<text text-anchor="middle" x="656.5" y="-748.8" font-family="Open Sans" font-size="14.00">documentation as nlohmann/json</text>
<text text-anchor="middle" x="656.5" y="-733.8" font-family="Open Sans" font-size="14.00">library is Trustable.</text>
</a>
</g>
</g>
<!-- TT&#45;CHANGES -->
<g id="node9" class="node">
<title>TT&#45;CHANGES</title>
<g id="a_node9"><a xlink:href="https://score-json.github.io/nlohmann_json/main/_images/custom_TT-CHANGES_graph.svg" xlink:title="TT&#45;CHANGES: The nlohmann/json\nlibrary is actively maintained,\nwith regular updates\nto dependencies, and\nchanges are verified\nto prevent regressions.\n" target="_top">
<polygon fill="none" stroke="black" points="780.5,-582 532.5,-582 532.5,-484 780.5,-484 780.5,-582"/>
<text text-anchor="middle" x="656.5" y="-566.8" font-family="Open Sans" font-size="14.00">TT&#45;CHANGES: The nlohmann/json</text>
<text text-anchor="middle" x="656.5" y="-551.8" font-family="Open Sans" font-size="14.00">library is actively maintained,</text>
<text text-anchor="middle" x="656.5" y="-536.8" font-family="Open Sans" font-size="14.00">with regular updates</text>
<text text-anchor="middle" x="656.5" y="-521.8" font-family="Open Sans" font-size="14.00">to dependencies, and</text>
<text text-anchor="middle" x="656.5" y="-506.8" font-family="Open Sans" font-size="14.00">changes are verified</text>
<text text-anchor="middle" x="656.5" y="-491.8" font-family="Open Sans" font-size="14.00">to prevent regressions.</text>
</a>
</g>
</g>
<!-- TRUSTABLE&#45;SOFTWARE&#45;&gt;TT&#45;CHANGES -->
<g id="edge1" class="edge">
<title>TRUSTABLE&#45;SOFTWARE&#45;&gt;TT&#45;CHANGES</title>
<path fill="none" stroke="black" d="M656.5,-725.74C656.5,-688.88 656.5,-634.18 656.5,-592.63"/>
<polygon fill="black" stroke="black" points="660,-592.37 656.5,-582.37 653,-592.37 660,-592.37"/>
</g>
<!-- JLS&#45;06 -->
<g id="node2" class="node">
<title>JLS&#45;06</title>
<g id="a_node2"><a xlink:href="https://score-json.github.io/nlohmann_json/main/generated/JLS.html#jls-06" xlink:title="JLS&#45;06: Pull requests\nin the nlohmann/json\nrepository are merged\nonly after code review.\n" target="_top">
<polygon fill="none" stroke="black" points="173,-83 0,-83 0,-15 173,-15 173,-83"/>
<text text-anchor="middle" x="86.5" y="-67.8" font-family="Open Sans" font-size="14.00">JLS&#45;06: Pull requests</text>
<text text-anchor="middle" x="86.5" y="-52.8" font-family="Open Sans" font-size="14.00">in the nlohmann/json</text>
<text text-anchor="middle" x="86.5" y="-37.8" font-family="Open Sans" font-size="14.00">repository are merged</text>
<text text-anchor="middle" x="86.5" y="-22.8" font-family="Open Sans" font-size="14.00">only after code review.</text>
</a>
</g>
</g>
<!-- JLS&#45;07 -->
<g id="node3" class="node">
<title>JLS&#45;07</title>
<g id="a_node3"><a xlink:href="https://score-json.github.io/nlohmann_json/main/generated/JLS.html#jls-07" xlink:title="JLS&#45;07: The develop branch\nof nlohmann/json is protected,\ni.e. no direct commits\nare possible. " target="_top">
<polygon fill="none" stroke="black" points="419.5,-83 191.5,-83 191.5,-15 419.5,-15 419.5,-83"/>
<text text-anchor="middle" x="305.5" y="-67.8" font-family="Open Sans" font-size="14.00">JLS&#45;07: The develop branch</text>
<text text-anchor="middle" x="305.5" y="-52.8" font-family="Open Sans" font-size="14.00">of nlohmann/json is protected,</text>
<text text-anchor="middle" x="305.5" y="-37.8" font-family="Open Sans" font-size="14.00">i.e. no direct commits</text>
<text text-anchor="middle" x="305.5" y="-22.8" font-family="Open Sans" font-size="14.00">are possible. </text>
</a>
</g>
</g>
<!-- JLS&#45;12 -->
<g id="node4" class="node">
<title>JLS&#45;12</title>
<g id="a_node4"><a xlink:href="https://score-json.github.io/nlohmann_json/main/generated/JLS.html#jls-12" xlink:title="JLS&#45;12: The nlohmann/json\nrepository has well&#45;defined\ncommunity standards,\nincluding a contribution\nguideline and a security\npolicy. " target="_top">
<polygon fill="none" stroke="black" points="643,-98 438,-98 438,0 643,0 643,-98"/>
<text text-anchor="middle" x="540.5" y="-82.8" font-family="Open Sans" font-size="14.00">JLS&#45;12: The nlohmann/json</text>
<text text-anchor="middle" x="540.5" y="-67.8" font-family="Open Sans" font-size="14.00">repository has well&#45;defined</text>
<text text-anchor="middle" x="540.5" y="-52.8" font-family="Open Sans" font-size="14.00">community standards,</text>
<text text-anchor="middle" x="540.5" y="-37.8" font-family="Open Sans" font-size="14.00">including a contribution</text>
<text text-anchor="middle" x="540.5" y="-22.8" font-family="Open Sans" font-size="14.00">guideline and a security</text>
<text text-anchor="middle" x="540.5" y="-7.8" font-family="Open Sans" font-size="14.00">policy. </text>
</a>
</g>
</g>
<!-- JLS&#45;32 -->
<g id="node5" class="node">
<title>JLS&#45;32</title>
<g id="a_node5"><a xlink:href="https://score-json.github.io/nlohmann_json/main/generated/JLS.html#jls-32" xlink:title="JLS&#45;32: All pull requests\nto the develop branch\nin the nlohmann/json\nrepository trigger a\nrequest for review from\nNiels Lohmann (@nlohmann).\n" target="_top">
<polygon fill="none" stroke="black" points="884,-98 661,-98 661,0 884,0 884,-98"/>
<text text-anchor="middle" x="772.5" y="-82.8" font-family="Open Sans" font-size="14.00">JLS&#45;32: All pull requests</text>
<text text-anchor="middle" x="772.5" y="-67.8" font-family="Open Sans" font-size="14.00">to the develop branch</text>
<text text-anchor="middle" x="772.5" y="-52.8" font-family="Open Sans" font-size="14.00">in the nlohmann/json</text>
<text text-anchor="middle" x="772.5" y="-37.8" font-family="Open Sans" font-size="14.00">repository trigger a</text>
<text text-anchor="middle" x="772.5" y="-22.8" font-family="Open Sans" font-size="14.00">request for review from</text>
<text text-anchor="middle" x="772.5" y="-7.8" font-family="Open Sans" font-size="14.00">Niels Lohmann (@nlohmann).</text>
</a>
</g>
</g>
<!-- JLS&#45;34 -->
<g id="node6" class="node">
<title>JLS&#45;34</title>
<g id="a_node6"><a xlink:href="https://score-json.github.io/nlohmann_json/main/generated/JLS.html#jls-34" xlink:title="JLS&#45;34: The nlohmann/json\nlibrary has no external\ncomponents or dependencies\nbesides the C++ standard\ncomponents. " target="_top">
<polygon fill="none" stroke="black" points="1124.5,-90.5 902.5,-90.5 902.5,-7.5 1124.5,-7.5 1124.5,-90.5"/>
<text text-anchor="middle" x="1013.5" y="-75.3" font-family="Open Sans" font-size="14.00">JLS&#45;34: The nlohmann/json</text>
<text text-anchor="middle" x="1013.5" y="-60.3" font-family="Open Sans" font-size="14.00">library has no external</text>
<text text-anchor="middle" x="1013.5" y="-45.3" font-family="Open Sans" font-size="14.00">components or dependencies</text>
<text text-anchor="middle" x="1013.5" y="-30.3" font-family="Open Sans" font-size="14.00">besides the C++ standard</text>
<text text-anchor="middle" x="1013.5" y="-15.3" font-family="Open Sans" font-size="14.00">components. </text>
</a>
</g>
</g>
<!-- JLS&#45;35 -->
<g id="node7" class="node">
<title>JLS&#45;35</title>
<g id="a_node7"><a xlink:href="https://score-json.github.io/nlohmann_json/main/generated/JLS.html#jls-35" xlink:title="JLS&#45;35: Pull requests\nin the nlohmann/json\nrepository are merged\nonly after running CI&#45;tests\nand successfully passing\nthe pipeline. " target="_top">
<polygon fill="none" stroke="black" points="1342.5,-98 1142.5,-98 1142.5,0 1342.5,0 1342.5,-98"/>
<text text-anchor="middle" x="1242.5" y="-82.8" font-family="Open Sans" font-size="14.00">JLS&#45;35: Pull requests</text>
<text text-anchor="middle" x="1242.5" y="-67.8" font-family="Open Sans" font-size="14.00">in the nlohmann/json</text>
<text text-anchor="middle" x="1242.5" y="-52.8" font-family="Open Sans" font-size="14.00">repository are merged</text>
<text text-anchor="middle" x="1242.5" y="-37.8" font-family="Open Sans" font-size="14.00">only after running CI&#45;tests</text>
<text text-anchor="middle" x="1242.5" y="-22.8" font-family="Open Sans" font-size="14.00">and successfully passing</text>
<text text-anchor="middle" x="1242.5" y="-7.8" font-family="Open Sans" font-size="14.00">the pipeline. </text>
</a>
</g>
</g>
<!-- TA&#45;UPDATES -->
<g id="node8" class="node">
<title>TA&#45;UPDATES</title>
<g id="a_node8"><a xlink:href="https://score-json.github.io/nlohmann_json/main/_images/custom_TA-UPDATES_graph.svg" xlink:title="TA&#45;UPDATES: nlohmann/json\nlibrary components, configurations\nand tools are updated\nunder specified change\nand configuration management\ncontrols. " target="_top">
<polygon fill="none" stroke="black" points="786.5,-340 526.5,-340 526.5,-242 786.5,-242 786.5,-340"/>
<text text-anchor="middle" x="656.5" y="-324.8" font-family="Open Sans" font-size="14.00">TA&#45;UPDATES: nlohmann/json</text>
<text text-anchor="middle" x="656.5" y="-309.8" font-family="Open Sans" font-size="14.00">library components, configurations</text>
<text text-anchor="middle" x="656.5" y="-294.8" font-family="Open Sans" font-size="14.00">and tools are updated</text>
<text text-anchor="middle" x="656.5" y="-279.8" font-family="Open Sans" font-size="14.00">under specified change</text>
<text text-anchor="middle" x="656.5" y="-264.8" font-family="Open Sans" font-size="14.00">and configuration management</text>
<text text-anchor="middle" x="656.5" y="-249.8" font-family="Open Sans" font-size="14.00">controls. </text>
</a>
</g>
</g>
<!-- TA&#45;UPDATES&#45;&gt;JLS&#45;06 -->
<g id="edge2" class="edge">
<title>TA&#45;UPDATES&#45;&gt;JLS&#45;06</title>
<path fill="none" stroke="black" d="M530.11,-241.93C433.96,-204.61 298.82,-150.54 182.5,-98 175.28,-94.74 167.8,-91.23 160.36,-87.66"/>
<polygon fill="black" stroke="black" points="161.5,-84.32 150.97,-83.11 158.44,-90.62 161.5,-84.32"/>
</g>
<!-- TA&#45;UPDATES&#45;&gt;JLS&#45;07 -->
<g id="edge3" class="edge">
<title>TA&#45;UPDATES&#45;&gt;JLS&#45;07</title>
<path fill="none" stroke="black" d="M585.89,-241.72C520.12,-196.75 423.3,-130.55 362.36,-88.88"/>
<polygon fill="black" stroke="black" points="364.24,-85.93 354.01,-83.17 360.29,-91.7 364.24,-85.93"/>
</g>
<!-- TA&#45;UPDATES&#45;&gt;JLS&#45;12 -->
<g id="edge4" class="edge">
<title>TA&#45;UPDATES&#45;&gt;JLS&#45;12</title>
<path fill="none" stroke="black" d="M633.17,-241.72C614.41,-202.91 588,-148.28 568.18,-107.26"/>
<polygon fill="black" stroke="black" points="571.3,-105.68 563.8,-98.2 565,-108.73 571.3,-105.68"/>
</g>
<!-- TA&#45;UPDATES&#45;&gt;JLS&#45;32 -->
<g id="edge5" class="edge">
<title>TA&#45;UPDATES&#45;&gt;JLS&#45;32</title>
<path fill="none" stroke="black" d="M679.83,-241.72C698.59,-202.91 725,-148.28 744.82,-107.26"/>
<polygon fill="black" stroke="black" points="748,-108.73 749.2,-98.2 741.7,-105.68 748,-108.73"/>
</g>
<!-- TA&#45;UPDATES&#45;&gt;JLS&#45;34 -->
<g id="edge7" class="edge">
<title>TA&#45;UPDATES&#45;&gt;JLS&#45;34</title>
<path fill="none" stroke="black" d="M728.31,-241.72C791.32,-199.36 882.34,-138.17 944.5,-96.39"/>
<polygon fill="black" stroke="black" points="946.72,-99.11 953.07,-90.63 942.82,-93.3 946.72,-99.11"/>
</g>
<!-- TA&#45;UPDATES&#45;&gt;JLS&#45;35 -->
<g id="edge6" class="edge">
<title>TA&#45;UPDATES&#45;&gt;JLS&#45;35</title>
<path fill="none" stroke="black" d="M778.99,-241.95C873.25,-204.68 1006.88,-151.2 1133.02,-98.18"/>
<polygon fill="black" stroke="black" points="1134.61,-101.3 1142.47,-94.2 1131.9,-94.85 1134.61,-101.3"/>
</g>
<!-- TT&#45;CHANGES&#45;&gt;TA&#45;UPDATES -->
<g id="edge8" class="edge">
<title>TT&#45;CHANGES&#45;&gt;TA&#45;UPDATES</title>
<path fill="none" stroke="black" d="M656.5,-483.72C656.5,-445.23 656.5,-391.2 656.5,-350.3"/>
<polygon fill="black" stroke="black" points="660,-350.2 656.5,-340.2 653,-350.2 660,-350.2"/>
</g>
</g>
</svg>
