<?xml version="1.0" encoding="UTF-8" standalone="no"?>
<!DOCTYPE svg PUBLIC "-//W3C//DTD SVG 1.1//EN"
 "http://www.w3.org/Graphics/SVG/1.1/DTD/svg11.dtd">
<!-- Generated by graphviz version 2.43.0 (0)
 -->
<!-- Title: G Pages: 1 -->
<svg width="2094pt" height="1453pt"
 viewBox="0.00 0.00 2094.00 1453.00" xmlns="http://www.w3.org/2000/svg" xmlns:xlink="http://www.w3.org/1999/xlink">
<g id="graph0" class="graph" transform="scale(1 1) rotate(0) translate(4 1449)">
<title>G</title>
<polygon fill="white" stroke="transparent" points="-4,4 -4,-1449 2090,-1449 2090,4 -4,4"/>
<!-- TRUSTABLE&#45;SOFTWARE -->
<g id="node1" class="node">
<title>TRUSTABLE&#45;SOFTWARE</title>
<g id="a_node1"><a xlink:href="https://score-json.github.io/nlohmann_json/main/_images/custom_TRUSTABLE-SOFTWARE_graph.svg" xlink:title="TRUSTABLE&#45;SOFTWARE: This\nrelease of JSON&#45;Library\nalso referred in the\ndocumentation as nlohmann/json\nlibrary is Trustable.\n" target="_top">
<polygon fill="none" stroke="black" points="1208.5,-1445 960.5,-1445 960.5,-1362 1208.5,-1362 1208.5,-1445"/>
<text text-anchor="middle" x="1084.5" y="-1429.8" font-family="Open Sans" font-size="14.00">TRUSTABLE&#45;SOFTWARE: This</text>
<text text-anchor="middle" x="1084.5" y="-1414.8" font-family="Open Sans" font-size="14.00">release of JSON&#45;Library</text>
<text text-anchor="middle" x="1084.5" y="-1399.8" font-family="Open Sans" font-size="14.00">also referred in the</text>
<text text-anchor="middle" x="1084.5" y="-1384.8" font-family="Open Sans" font-size="14.00">documentation as nlohmann/json</text>
<text text-anchor="middle" x="1084.5" y="-1369.8" font-family="Open Sans" font-size="14.00">library is Trustable.</text>
</a>
</g>
</g>
<!-- TT&#45;EXPECTATIONS -->
<g id="node13" class="node">
<title>TT&#45;EXPECTATIONS</title>
<g id="a_node13"><a xlink:href="https://score-json.github.io/nlohmann_json/main/_images/custom_TT-EXPECTATIONS_graph.svg" xlink:title="TT&#45;EXPECTATIONS: Documentation\nis provided within eclipse&#45;score/inc_nlohmann_json,\nspecifying what the nlohmann/json\nlibrary is expected to\ndo, and what it must\nnot do, and how this\nis verified. " target="_top">
<polygon fill="none" stroke="black" points="1272,-1218 897,-1218 897,-1105 1272,-1105 1272,-1218"/>
<text text-anchor="middle" x="1084.5" y="-1202.8" font-family="Open Sans" font-size="14.00">TT&#45;EXPECTATIONS: Documentation</text>
<text text-anchor="middle" x="1084.5" y="-1187.8" font-family="Open Sans" font-size="14.00">is provided within eclipse&#45;score/inc_nlohmann_json,</text>
<text text-anchor="middle" x="1084.5" y="-1172.8" font-family="Open Sans" font-size="14.00">specifying what the nlohmann/json</text>
<text text-anchor="middle" x="1084.5" y="-1157.8" font-family="Open Sans" font-size="14.00">library is expected to</text>
<text text-anchor="middle" x="1084.5" y="-1142.8" font-family="Open Sans" font-size="14.00">do, and what it must</text>
<text text-anchor="middle" x="1084.5" y="-1127.8" font-family="Open Sans" font-size="14.00">not do, and how this</text>
<text text-anchor="middle" x="1084.5" y="-1112.8" font-family="Open Sans" font-size="14.00">is verified. </text>
</a>
</g>
</g>
<!-- TRUSTABLE&#45;SOFTWARE&#45;&gt;TT&#45;EXPECTATIONS -->
<g id="edge1" class="edge">
<title>TRUSTABLE&#45;SOFTWARE&#45;&gt;TT&#45;EXPECTATIONS</title>
<path fill="none" stroke="black" d="M1084.5,-1361.79C1084.5,-1325.26 1084.5,-1271 1084.5,-1228.32"/>
<polygon fill="black" stroke="black" points="1088,-1228.29 1084.5,-1218.29 1081,-1228.29 1088,-1228.29"/>
</g>
<!-- JLEX&#45;01 -->
<g id="node2" class="node">
<title>JLEX&#45;01</title>
<g id="a_node2"><a xlink:href="https://score-json.github.io/nlohmann_json/main/_images/custom_JLEX-01_graph.svg" xlink:title="JLEX&#45;01: The requirement\nregarding [JSON Validation](https://eclipse&#45;score.github.io/score/main/modules/baselibs/json/docs/requirements/index.html#comp_req__json__validation)\nis fulfilled. " target="_top">
<polygon fill="none" stroke="black" points="1622,-719 547,-719 547,-666 1622,-666 1622,-719"/>
<text text-anchor="middle" x="1084.5" y="-703.8" font-family="Open Sans" font-size="14.00">JLEX&#45;01: The requirement</text>
<text text-anchor="middle" x="1084.5" y="-688.8" font-family="Open Sans" font-size="14.00">regarding [JSON Validation](https://eclipse&#45;score.github.io/score/main/modules/baselibs/json/docs/requirements/index.html#comp_req__json__validation)</text>
<text text-anchor="middle" x="1084.5" y="-673.8" font-family="Open Sans" font-size="14.00">is fulfilled. </text>
</a>
</g>
</g>
<!-- WFJ&#45;05 -->
<g id="node14" class="node">
<title>WFJ&#45;05</title>
<g id="a_node14"><a xlink:href="https://score-json.github.io/nlohmann_json/main/_images/custom_WFJ-05_graph.svg" xlink:title="WFJ&#45;05: The service provided\nby the nlohmann/json\nlibrary checks the well&#45;formedness\nof objects. " target="_top">
<polygon fill="none" stroke="black" points="1214.5,-522 954.5,-522 954.5,-454 1214.5,-454 1214.5,-522"/>
<text text-anchor="middle" x="1084.5" y="-506.8" font-family="Open Sans" font-size="14.00">WFJ&#45;05: The service provided</text>
<text text-anchor="middle" x="1084.5" y="-491.8" font-family="Open Sans" font-size="14.00">by the nlohmann/json</text>
<text text-anchor="middle" x="1084.5" y="-476.8" font-family="Open Sans" font-size="14.00">library checks the well&#45;formedness</text>
<text text-anchor="middle" x="1084.5" y="-461.8" font-family="Open Sans" font-size="14.00">of objects. </text>
</a>
</g>
</g>
<!-- JLEX&#45;01&#45;&gt;WFJ&#45;05 -->
<g id="edge2" class="edge">
<title>JLEX&#45;01&#45;&gt;WFJ&#45;05</title>
<path fill="none" stroke="black" d="M1084.5,-665.85C1084.5,-632.27 1084.5,-572.91 1084.5,-532.3"/>
<polygon fill="black" stroke="black" points="1088,-532.15 1084.5,-522.15 1081,-532.15 1088,-532.15"/>
</g>
<!-- NJF&#45;06 -->
<g id="node3" class="node">
<title>NJF&#45;06</title>
<g id="a_node3"><a xlink:href="https://score-json.github.io/nlohmann_json/main/_images/custom_NJF-06_graph.svg" xlink:title="NJF&#45;06: The service provided\nby the nlohmann/json\nlibrary accepts and rejects\nobjects according to\nRFC8259 ยง4. " target="_top">
<polygon fill="none" stroke="black" points="1193,-310 976,-310 976,-227 1193,-227 1193,-310"/>
<text text-anchor="middle" x="1084.5" y="-294.8" font-family="Open Sans" font-size="14.00">NJF&#45;06: The service provided</text>
<text text-anchor="middle" x="1084.5" y="-279.8" font-family="Open Sans" font-size="14.00">by the nlohmann/json</text>
<text text-anchor="middle" x="1084.5" y="-264.8" font-family="Open Sans" font-size="14.00">library accepts and rejects</text>
<text text-anchor="middle" x="1084.5" y="-249.8" font-family="Open Sans" font-size="14.00">objects according to</text>
<text text-anchor="middle" x="1084.5" y="-234.8" font-family="Open Sans" font-size="14.00">RFC8259 ยง4. </text>
</a>
</g>
</g>
<!-- NJF&#45;06.1 -->
<g id="node4" class="node">
<title>NJF&#45;06.1</title>
<g id="a_node4"><a xlink:href="https://score-json.github.io/nlohmann_json/main/generated/NJF.html#njf-06.1" xlink:title="NJF&#45;06.1: The service\nprovided by the nlohmann/json\nlibrary accepts the empty\nobject. " target="_top">
<polygon fill="none" stroke="black" points="233,-75.5 0,-75.5 0,-7.5 233,-7.5 233,-75.5"/>
<text text-anchor="middle" x="116.5" y="-60.3" font-family="Open Sans" font-size="14.00">NJF&#45;06.1: The service</text>
<text text-anchor="middle" x="116.5" y="-45.3" font-family="Open Sans" font-size="14.00">provided by the nlohmann/json</text>
<text text-anchor="middle" x="116.5" y="-30.3" font-family="Open Sans" font-size="14.00">library accepts the empty</text>
<text text-anchor="middle" x="116.5" y="-15.3" font-family="Open Sans" font-size="14.00">object. </text>
</a>
</g>
</g>
<!-- NJF&#45;06&#45;&gt;NJF&#45;06.1 -->
<g id="edge3" class="edge">
<title>NJF&#45;06&#45;&gt;NJF&#45;06.1</title>
<path fill="none" stroke="black" d="M975.89,-247.26C814.55,-216.4 502.53,-153.67 241.5,-83 236.2,-81.57 230.79,-80.04 225.35,-78.46"/>
<polygon fill="black" stroke="black" points="226.09,-75.03 215.51,-75.56 224.11,-81.75 226.09,-75.03"/>
</g>
<!-- NJF&#45;06.2 -->
<g id="node5" class="node">
<title>NJF&#45;06.2</title>
<g id="a_node5"><a xlink:href="https://score-json.github.io/nlohmann_json/main/generated/NJF.html#njf-06.2" xlink:title="NJF&#45;06.2: The service\nprovided by the nlohmann/json\nlibrary does not accept\nimproperly bounded objects.\n" target="_top">
<polygon fill="none" stroke="black" points="484,-75.5 251,-75.5 251,-7.5 484,-7.5 484,-75.5"/>
<text text-anchor="middle" x="367.5" y="-60.3" font-family="Open Sans" font-size="14.00">NJF&#45;06.2: The service</text>
<text text-anchor="middle" x="367.5" y="-45.3" font-family="Open Sans" font-size="14.00">provided by the nlohmann/json</text>
<text text-anchor="middle" x="367.5" y="-30.3" font-family="Open Sans" font-size="14.00">library does not accept</text>
<text text-anchor="middle" x="367.5" y="-15.3" font-family="Open Sans" font-size="14.00">improperly bounded objects.</text>
</a>
</g>
</g>
<!-- NJF&#45;06&#45;&gt;NJF&#45;06.2 -->
<g id="edge4" class="edge">
<title>NJF&#45;06&#45;&gt;NJF&#45;06.2</title>
<path fill="none" stroke="black" d="M975.82,-234.03C856.99,-197.34 661.01,-136.56 492.5,-83 487.98,-81.56 483.37,-80.09 478.72,-78.61"/>
<polygon fill="black" stroke="black" points="479.71,-75.25 469.12,-75.53 477.57,-81.91 479.71,-75.25"/>
</g>
<!-- NJF&#45;06.3 -->
<g id="node6" class="node">
<title>NJF&#45;06.3</title>
<g id="a_node6"><a xlink:href="https://score-json.github.io/nlohmann_json/main/generated/NJF.html#njf-06.3" xlink:title="NJF&#45;06.3: The service\nprovided by the nlohmann/json\nlibrary accepts the non&#45;empty\nobjects. " target="_top">
<polygon fill="none" stroke="black" points="735,-75.5 502,-75.5 502,-7.5 735,-7.5 735,-75.5"/>
<text text-anchor="middle" x="618.5" y="-60.3" font-family="Open Sans" font-size="14.00">NJF&#45;06.3: The service</text>
<text text-anchor="middle" x="618.5" y="-45.3" font-family="Open Sans" font-size="14.00">provided by the nlohmann/json</text>
<text text-anchor="middle" x="618.5" y="-30.3" font-family="Open Sans" font-size="14.00">library accepts the non&#45;empty</text>
<text text-anchor="middle" x="618.5" y="-15.3" font-family="Open Sans" font-size="14.00">objects. </text>
</a>
</g>
</g>
<!-- NJF&#45;06&#45;&gt;NJF&#45;06.3 -->
<g id="edge5" class="edge">
<title>NJF&#45;06&#45;&gt;NJF&#45;06.3</title>
<path fill="none" stroke="black" d="M1000.38,-226.88C913.96,-185.16 780.52,-120.73 696.43,-80.13"/>
<polygon fill="black" stroke="black" points="697.72,-76.86 687.19,-75.67 694.67,-83.17 697.72,-76.86"/>
</g>
<!-- NJF&#45;06.4 -->
<g id="node7" class="node">
<title>NJF&#45;06.4</title>
<g id="a_node7"><a xlink:href="https://score-json.github.io/nlohmann_json/main/_images/custom_NJF-06.4_graph.svg" xlink:title="NJF&#45;06.4: The admissible\nmembers of an object\nprovided to the eclipse&#45;score/inc_nlohmann_json\nhave the form name :\nvalue. " target="_top">
<polygon fill="none" stroke="black" points="1106,-83 753,-83 753,0 1106,0 1106,-83"/>
<text text-anchor="middle" x="929.5" y="-67.8" font-family="Open Sans" font-size="14.00">NJF&#45;06.4: The admissible</text>
<text text-anchor="middle" x="929.5" y="-52.8" font-family="Open Sans" font-size="14.00">members of an object</text>
<text text-anchor="middle" x="929.5" y="-37.8" font-family="Open Sans" font-size="14.00">provided to the eclipse&#45;score/inc_nlohmann_json</text>
<text text-anchor="middle" x="929.5" y="-22.8" font-family="Open Sans" font-size="14.00">have the form name :</text>
<text text-anchor="middle" x="929.5" y="-7.8" font-family="Open Sans" font-size="14.00">value. </text>
</a>
</g>
</g>
<!-- NJF&#45;06&#45;&gt;NJF&#45;06.4 -->
<g id="edge6" class="edge">
<title>NJF&#45;06&#45;&gt;NJF&#45;06.4</title>
<path fill="none" stroke="black" d="M1056.43,-226.75C1030.29,-188.8 991.26,-132.15 963.39,-91.7"/>
<polygon fill="black" stroke="black" points="966.18,-89.57 957.62,-83.32 960.41,-93.54 966.18,-89.57"/>
</g>
<!-- NJF&#45;06.5 -->
<g id="node8" class="node">
<title>NJF&#45;06.5</title>
<g id="a_node8"><a xlink:href="https://score-json.github.io/nlohmann_json/main/_images/custom_NJF-06.5_graph.svg" xlink:title="NJF&#45;06.5: The service\nprovided by the nlohmann/json\nlibrary does not accept\nobjects with improper\nmembers. " target="_top">
<polygon fill="none" stroke="black" points="1357,-83 1124,-83 1124,0 1357,0 1357,-83"/>
<text text-anchor="middle" x="1240.5" y="-67.8" font-family="Open Sans" font-size="14.00">NJF&#45;06.5: The service</text>
<text text-anchor="middle" x="1240.5" y="-52.8" font-family="Open Sans" font-size="14.00">provided by the nlohmann/json</text>
<text text-anchor="middle" x="1240.5" y="-37.8" font-family="Open Sans" font-size="14.00">library does not accept</text>
<text text-anchor="middle" x="1240.5" y="-22.8" font-family="Open Sans" font-size="14.00">objects with improper</text>
<text text-anchor="middle" x="1240.5" y="-7.8" font-family="Open Sans" font-size="14.00">members. </text>
</a>
</g>
</g>
<!-- NJF&#45;06&#45;&gt;NJF&#45;06.5 -->
<g id="edge7" class="edge">
<title>NJF&#45;06&#45;&gt;NJF&#45;06.5</title>
<path fill="none" stroke="black" d="M1112.75,-226.75C1139.06,-188.8 1178.34,-132.15 1206.39,-91.7"/>
<polygon fill="black" stroke="black" points="1209.38,-93.53 1212.2,-83.32 1203.62,-89.55 1209.38,-93.53"/>
</g>
<!-- NJF&#45;06.6 -->
<g id="node9" class="node">
<title>NJF&#45;06.6</title>
<g id="a_node9"><a xlink:href="https://score-json.github.io/nlohmann_json/main/generated/NJF.html#njf-06.6" xlink:title="NJF&#45;06.6: The service\nprovided by the nlohmann/json\nlibrary accepts the nested\nobjects. " target="_top">
<polygon fill="none" stroke="black" points="1608,-75.5 1375,-75.5 1375,-7.5 1608,-7.5 1608,-75.5"/>
<text text-anchor="middle" x="1491.5" y="-60.3" font-family="Open Sans" font-size="14.00">NJF&#45;06.6: The service</text>
<text text-anchor="middle" x="1491.5" y="-45.3" font-family="Open Sans" font-size="14.00">provided by the nlohmann/json</text>
<text text-anchor="middle" x="1491.5" y="-30.3" font-family="Open Sans" font-size="14.00">library accepts the nested</text>
<text text-anchor="middle" x="1491.5" y="-15.3" font-family="Open Sans" font-size="14.00">objects. </text>
</a>
</g>
</g>
<!-- NJF&#45;06&#45;&gt;NJF&#45;06.6 -->
<g id="edge8" class="edge">
<title>NJF&#45;06&#45;&gt;NJF&#45;06.6</title>
<path fill="none" stroke="black" d="M1158.2,-226.75C1233.33,-185.22 1348.97,-121.29 1422.4,-80.7"/>
<polygon fill="black" stroke="black" points="1424.52,-83.53 1431.58,-75.63 1421.13,-77.4 1424.52,-83.53"/>
</g>
<!-- NJF&#45;06.6.0 -->
<g id="node10" class="node">
<title>NJF&#45;06.6.0</title>
<g id="a_node10"><a xlink:href="https://score-json.github.io/nlohmann_json/main/generated/NJF.html#njf-06.6.0" xlink:title="NJF&#45;06.6.0: The acceptance\nof nested objects inside\nthe nlohmann/json library\ndoes not depend on the\ndepth of nesting. " target="_top">
<polygon fill="none" stroke="black" points="1834.5,-83 1626.5,-83 1626.5,0 1834.5,0 1834.5,-83"/>
<text text-anchor="middle" x="1730.5" y="-67.8" font-family="Open Sans" font-size="14.00">NJF&#45;06.6.0: The acceptance</text>
<text text-anchor="middle" x="1730.5" y="-52.8" font-family="Open Sans" font-size="14.00">of nested objects inside</text>
<text text-anchor="middle" x="1730.5" y="-37.8" font-family="Open Sans" font-size="14.00">the nlohmann/json library</text>
<text text-anchor="middle" x="1730.5" y="-22.8" font-family="Open Sans" font-size="14.00">does not depend on the</text>
<text text-anchor="middle" x="1730.5" y="-7.8" font-family="Open Sans" font-size="14.00">depth of nesting. </text>
</a>
</g>
</g>
<!-- NJF&#45;06&#45;&gt;NJF&#45;06.6.0 -->
<g id="edge10" class="edge">
<title>NJF&#45;06&#45;&gt;NJF&#45;06.6.0</title>
<path fill="none" stroke="black" d="M1193.08,-230.3C1298.66,-194.04 1463.82,-137.08 1616.86,-83.22"/>
<polygon fill="black" stroke="black" points="1618.19,-86.46 1626.46,-79.84 1615.86,-79.86 1618.19,-86.46"/>
</g>
<!-- NJF&#45;06.7 -->
<g id="node11" class="node">
<title>NJF&#45;06.7</title>
<g id="a_node11"><a xlink:href="https://score-json.github.io/nlohmann_json/main/_images/custom_NJF-06.7_graph.svg" xlink:title="NJF&#45;06.7: The service\nprovided by the nlohmann/json\nlibrary does only accept\ncomma as member separator.\n" target="_top">
<polygon fill="none" stroke="black" points="2086,-75.5 1853,-75.5 1853,-7.5 2086,-7.5 2086,-75.5"/>
<text text-anchor="middle" x="1969.5" y="-60.3" font-family="Open Sans" font-size="14.00">NJF&#45;06.7: The service</text>
<text text-anchor="middle" x="1969.5" y="-45.3" font-family="Open Sans" font-size="14.00">provided by the nlohmann/json</text>
<text text-anchor="middle" x="1969.5" y="-30.3" font-family="Open Sans" font-size="14.00">library does only accept</text>
<text text-anchor="middle" x="1969.5" y="-15.3" font-family="Open Sans" font-size="14.00">comma as member separator.</text>
</a>
</g>
</g>
<!-- NJF&#45;06&#45;&gt;NJF&#45;06.7 -->
<g id="edge9" class="edge">
<title>NJF&#45;06&#45;&gt;NJF&#45;06.7</title>
<path fill="none" stroke="black" d="M1193.24,-243.68C1341.18,-210.67 1613.78,-147.75 1843.5,-83 1848.68,-81.54 1853.97,-80.01 1859.31,-78.43"/>
<polygon fill="black" stroke="black" points="1860.37,-81.76 1868.94,-75.54 1858.36,-75.06 1860.37,-81.76"/>
</g>
<!-- TA&#45;BEHAVIOURS -->
<g id="node12" class="node">
<title>TA&#45;BEHAVIOURS</title>
<g id="a_node12"><a xlink:href="https://score-json.github.io/nlohmann_json/main/_images/custom_TA-BEHAVIOURS_graph.svg" xlink:title="TA&#45;BEHAVIOURS: Expected\nor required behaviours\nfor the nlohmann/json\nlibrary are identified,\nspecified, verified and\nvalidated based on analysis.\n" target="_top">
<polygon fill="none" stroke="black" points="1191.5,-961 977.5,-961 977.5,-863 1191.5,-863 1191.5,-961"/>
<text text-anchor="middle" x="1084.5" y="-945.8" font-family="Open Sans" font-size="14.00">TA&#45;BEHAVIOURS: Expected</text>
<text text-anchor="middle" x="1084.5" y="-930.8" font-family="Open Sans" font-size="14.00">or required behaviours</text>
<text text-anchor="middle" x="1084.5" y="-915.8" font-family="Open Sans" font-size="14.00">for the nlohmann/json</text>
<text text-anchor="middle" x="1084.5" y="-900.8" font-family="Open Sans" font-size="14.00">library are identified,</text>
<text text-anchor="middle" x="1084.5" y="-885.8" font-family="Open Sans" font-size="14.00">specified, verified and</text>
<text text-anchor="middle" x="1084.5" y="-870.8" font-family="Open Sans" font-size="14.00">validated based on analysis.</text>
</a>
</g>
</g>
<!-- TA&#45;BEHAVIOURS&#45;&gt;JLEX&#45;01 -->
<g id="edge11" class="edge">
<title>TA&#45;BEHAVIOURS&#45;&gt;JLEX&#45;01</title>
<path fill="none" stroke="black" d="M1084.5,-863C1084.5,-822.58 1084.5,-765.67 1084.5,-729.18"/>
<polygon fill="black" stroke="black" points="1088,-729.01 1084.5,-719.01 1081,-729.01 1088,-729.01"/>
</g>
<!-- TT&#45;EXPECTATIONS&#45;&gt;TA&#45;BEHAVIOURS -->
<g id="edge12" class="edge">
<title>TT&#45;EXPECTATIONS&#45;&gt;TA&#45;BEHAVIOURS</title>
<path fill="none" stroke="black" d="M1084.5,-1104.96C1084.5,-1065.23 1084.5,-1011.87 1084.5,-971.49"/>
<polygon fill="black" stroke="black" points="1088,-971.26 1084.5,-961.26 1081,-971.26 1088,-971.26"/>
</g>
<!-- WFJ&#45;05&#45;&gt;NJF&#45;06 -->
<g id="edge13" class="edge">
<title>WFJ&#45;05&#45;&gt;NJF&#45;06</title>
<path fill="none" stroke="black" d="M1084.5,-453.97C1084.5,-418.47 1084.5,-361.61 1084.5,-320.39"/>
<polygon fill="black" stroke="black" points="1088,-320.27 1084.5,-310.27 1081,-320.27 1088,-320.27"/>
</g>
</g>
</svg>
