<?xml version="1.0" encoding="UTF-8" standalone="no"?>
<!DOCTYPE svg PUBLIC "-//W3C//DTD SVG 1.1//EN"
 "http://www.w3.org/Graphics/SVG/1.1/DTD/svg11.dtd">
<!-- Generated by graphviz version 2.43.0 (0)
 -->
<!-- Title: G Pages: 1 -->
<svg width="1105pt" height="1363pt"
 viewBox="0.00 0.00 1104.50 1363.00" xmlns="http://www.w3.org/2000/svg" xmlns:xlink="http://www.w3.org/1999/xlink">
<g id="graph0" class="graph" transform="scale(1 1) rotate(0) translate(4 1359)">
<title>G</title>
<polygon fill="white" stroke="transparent" points="-4,4 -4,-1359 1100.5,-1359 1100.5,4 -4,4"/>
<!-- TRUSTABLE&#45;SOFTWARE -->
<g id="node1" class="node">
<title>TRUSTABLE&#45;SOFTWARE</title>
<g id="a_node1"><a xlink:href="https://score-json.github.io/nlohmann_json/main/_images/custom_TRUSTABLE-SOFTWARE_graph.svg" xlink:title="TRUSTABLE&#45;SOFTWARE: This\nrelease of JSON&#45;Library\nalso reffered in the\ndocumentation as nlohmann/json\nlibrary is Trustable.\n" target="_top">
<polygon fill="none" stroke="black" points="683,-1355 435,-1355 435,-1272 683,-1272 683,-1355"/>
<text text-anchor="middle" x="559" y="-1339.8" font-family="Open Sans" font-size="14.00">TRUSTABLE&#45;SOFTWARE: This</text>
<text text-anchor="middle" x="559" y="-1324.8" font-family="Open Sans" font-size="14.00">release of JSON&#45;Library</text>
<text text-anchor="middle" x="559" y="-1309.8" font-family="Open Sans" font-size="14.00">also reffered in the</text>
<text text-anchor="middle" x="559" y="-1294.8" font-family="Open Sans" font-size="14.00">documentation as nlohmann/json</text>
<text text-anchor="middle" x="559" y="-1279.8" font-family="Open Sans" font-size="14.00">library is Trustable.</text>
</a>
</g>
</g>
<!-- TT&#45;EXPECTATIONS -->
<g id="node10" class="node">
<title>TT&#45;EXPECTATIONS</title>
<g id="a_node10"><a xlink:href="https://score-json.github.io/nlohmann_json/main/_images/custom_TT-EXPECTATIONS_graph.svg" xlink:title="TT&#45;EXPECTATIONS: Documentation\nis provided, specifying\nwhat nlohmann/json library\nis expected to do, and\nwhat it must not do,\nand how this is verified.\n" target="_top">
<polygon fill="none" stroke="black" points="687.5,-1128 430.5,-1128 430.5,-1030 687.5,-1030 687.5,-1128"/>
<text text-anchor="middle" x="559" y="-1112.8" font-family="Open Sans" font-size="14.00">TT&#45;EXPECTATIONS: Documentation</text>
<text text-anchor="middle" x="559" y="-1097.8" font-family="Open Sans" font-size="14.00">is provided, specifying</text>
<text text-anchor="middle" x="559" y="-1082.8" font-family="Open Sans" font-size="14.00">what nlohmann/json library</text>
<text text-anchor="middle" x="559" y="-1067.8" font-family="Open Sans" font-size="14.00">is expected to do, and</text>
<text text-anchor="middle" x="559" y="-1052.8" font-family="Open Sans" font-size="14.00">what it must not do,</text>
<text text-anchor="middle" x="559" y="-1037.8" font-family="Open Sans" font-size="14.00">and how this is verified.</text>
</a>
</g>
</g>
<!-- TRUSTABLE&#45;SOFTWARE&#45;&gt;TT&#45;EXPECTATIONS -->
<g id="edge1" class="edge">
<title>TRUSTABLE&#45;SOFTWARE&#45;&gt;TT&#45;EXPECTATIONS</title>
<path fill="none" stroke="black" d="M559,-1271.74C559,-1234.88 559,-1180.18 559,-1138.63"/>
<polygon fill="black" stroke="black" points="562.5,-1138.37 559,-1128.37 555.5,-1138.37 562.5,-1138.37"/>
</g>
<!-- JLEX&#45;01 -->
<g id="node2" class="node">
<title>JLEX&#45;01</title>
<g id="a_node2"><a xlink:href="https://score-json.github.io/nlohmann_json/main/_images/custom_JLEX-01_graph.svg" xlink:title="JLEX&#45;01: The requirement\nregarding [JSON Validation](https://eclipse&#45;score.github.io/score/main/modules/baselibs/json/docs/requirements/index.html#comp_req__json__validation)\nis fulfilled. " target="_top">
<polygon fill="none" stroke="black" points="1096.5,-644 21.5,-644 21.5,-591 1096.5,-591 1096.5,-644"/>
<text text-anchor="middle" x="559" y="-628.8" font-family="Open Sans" font-size="14.00">JLEX&#45;01: The requirement</text>
<text text-anchor="middle" x="559" y="-613.8" font-family="Open Sans" font-size="14.00">regarding [JSON Validation](https://eclipse&#45;score.github.io/score/main/modules/baselibs/json/docs/requirements/index.html#comp_req__json__validation)</text>
<text text-anchor="middle" x="559" y="-598.8" font-family="Open Sans" font-size="14.00">is fulfilled. </text>
</a>
</g>
</g>
<!-- WFJ&#45;07 -->
<g id="node11" class="node">
<title>WFJ&#45;07</title>
<g id="a_node11"><a xlink:href="https://score-json.github.io/nlohmann_json/main/_images/custom_WFJ-07_graph.svg" xlink:title="WFJ&#45;07: The service checks\nthat JSON is only serialized\nusing UTF&#45;8. " target="_top">
<polygon fill="none" stroke="black" points="662,-447 456,-447 456,-394 662,-394 662,-447"/>
<text text-anchor="middle" x="559" y="-431.8" font-family="Open Sans" font-size="14.00">WFJ&#45;07: The service checks</text>
<text text-anchor="middle" x="559" y="-416.8" font-family="Open Sans" font-size="14.00">that JSON is only serialized</text>
<text text-anchor="middle" x="559" y="-401.8" font-family="Open Sans" font-size="14.00">using UTF&#45;8. </text>
</a>
</g>
</g>
<!-- JLEX&#45;01&#45;&gt;WFJ&#45;07 -->
<g id="edge2" class="edge">
<title>JLEX&#45;01&#45;&gt;WFJ&#45;07</title>
<path fill="none" stroke="black" d="M559,-590.61C559,-556.42 559,-496.06 559,-457.46"/>
<polygon fill="black" stroke="black" points="562.5,-457.19 559,-447.19 555.5,-457.19 562.5,-457.19"/>
</g>
<!-- NJF&#45;12 -->
<g id="node3" class="node">
<title>NJF&#45;12</title>
<g id="a_node3"><a xlink:href="https://score-json.github.io/nlohmann_json/main/_images/custom_NJF-12_graph.svg" xlink:title="NJF&#45;12: The service decodes\nUTF&#45;8 data. " target="_top">
<polygon fill="none" stroke="black" points="666,-250 452,-250 452,-212 666,-212 666,-250"/>
<text text-anchor="middle" x="559" y="-234.8" font-family="Open Sans" font-size="14.00">NJF&#45;12: The service decodes</text>
<text text-anchor="middle" x="559" y="-219.8" font-family="Open Sans" font-size="14.00">UTF&#45;8 data. </text>
</a>
</g>
</g>
<!-- NJF&#45;12.1 -->
<g id="node4" class="node">
<title>NJF&#45;12.1</title>
<g id="a_node4"><a xlink:href="https://score-json.github.io/nlohmann_json/main/generated/NJF.html#njf-12.1" xlink:title="NJF&#45;12.1: The service\nrejects malformed UTF&#45;8\ndata. " target="_top">
<polygon fill="none" stroke="black" points="188,-60.5 0,-60.5 0,-7.5 188,-7.5 188,-60.5"/>
<text text-anchor="middle" x="94" y="-45.3" font-family="Open Sans" font-size="14.00">NJF&#45;12.1: The service</text>
<text text-anchor="middle" x="94" y="-30.3" font-family="Open Sans" font-size="14.00">rejects malformed UTF&#45;8</text>
<text text-anchor="middle" x="94" y="-15.3" font-family="Open Sans" font-size="14.00">data. </text>
</a>
</g>
</g>
<!-- NJF&#45;12&#45;&gt;NJF&#45;12.1 -->
<g id="edge3" class="edge">
<title>NJF&#45;12&#45;&gt;NJF&#45;12.1</title>
<path fill="none" stroke="black" d="M515.67,-211.83C435.16,-178.07 261.82,-105.38 164.32,-64.49"/>
<polygon fill="black" stroke="black" points="165.41,-61.15 154.84,-60.51 162.7,-67.61 165.41,-61.15"/>
</g>
<!-- NJF&#45;12.2 -->
<g id="node5" class="node">
<title>NJF&#45;12.2</title>
<g id="a_node5"><a xlink:href="https://score-json.github.io/nlohmann_json/main/generated/NJF.html#njf-12.2" xlink:title="NJF&#45;12.2: The service\nrejects &quot;overlong sequences&quot;.\n" target="_top">
<polygon fill="none" stroke="black" points="430,-53 206,-53 206,-15 430,-15 430,-53"/>
<text text-anchor="middle" x="318" y="-37.8" font-family="Open Sans" font-size="14.00">NJF&#45;12.2: The service</text>
<text text-anchor="middle" x="318" y="-22.8" font-family="Open Sans" font-size="14.00">rejects &quot;overlong sequences&quot;.</text>
</a>
</g>
</g>
<!-- NJF&#45;12&#45;&gt;NJF&#45;12.2 -->
<g id="edge4" class="edge">
<title>NJF&#45;12&#45;&gt;NJF&#45;12.2</title>
<path fill="none" stroke="black" d="M536.33,-211.65C492.8,-176.43 397.49,-99.32 348.46,-59.65"/>
<polygon fill="black" stroke="black" points="350.41,-56.72 340.44,-53.15 346.01,-62.17 350.41,-56.72"/>
</g>
<!-- NJF&#45;12.3 -->
<g id="node6" class="node">
<title>NJF&#45;12.3</title>
<g id="a_node6"><a xlink:href="https://score-json.github.io/nlohmann_json/main/generated/NJF.html#njf-12.3" xlink:title="NJF&#45;12.3: The service\nrejects single escaped\nand unescaped, and paired\nunescaped utf&#45;16 surrogates.\n" target="_top">
<polygon fill="none" stroke="black" points="669.5,-68 448.5,-68 448.5,0 669.5,0 669.5,-68"/>
<text text-anchor="middle" x="559" y="-52.8" font-family="Open Sans" font-size="14.00">NJF&#45;12.3: The service</text>
<text text-anchor="middle" x="559" y="-37.8" font-family="Open Sans" font-size="14.00">rejects single escaped</text>
<text text-anchor="middle" x="559" y="-22.8" font-family="Open Sans" font-size="14.00">and unescaped, and paired</text>
<text text-anchor="middle" x="559" y="-7.8" font-family="Open Sans" font-size="14.00">unescaped utf&#45;16 surrogates.</text>
</a>
</g>
</g>
<!-- NJF&#45;12&#45;&gt;NJF&#45;12.3 -->
<g id="edge5" class="edge">
<title>NJF&#45;12&#45;&gt;NJF&#45;12.3</title>
<path fill="none" stroke="black" d="M559,-211.65C559,-181.41 559,-120.29 559,-78.5"/>
<polygon fill="black" stroke="black" points="562.5,-78.32 559,-68.32 555.5,-78.32 562.5,-78.32"/>
</g>
<!-- NJF&#45;12.5 -->
<g id="node7" class="node">
<title>NJF&#45;12.5</title>
<g id="a_node7"><a xlink:href="https://score-json.github.io/nlohmann_json/main/generated/NJF.html#njf-12.5" xlink:title="NJF&#45;12.5: The service\naccepts Non&#45;Characters.\n" target="_top">
<polygon fill="none" stroke="black" points="876,-53 688,-53 688,-15 876,-15 876,-53"/>
<text text-anchor="middle" x="782" y="-37.8" font-family="Open Sans" font-size="14.00">NJF&#45;12.5: The service</text>
<text text-anchor="middle" x="782" y="-22.8" font-family="Open Sans" font-size="14.00">accepts Non&#45;Characters.</text>
</a>
</g>
</g>
<!-- NJF&#45;12&#45;&gt;NJF&#45;12.5 -->
<g id="edge6" class="edge">
<title>NJF&#45;12&#45;&gt;NJF&#45;12.5</title>
<path fill="none" stroke="black" d="M579.98,-211.65C620.18,-176.51 708.08,-99.64 753.53,-59.89"/>
<polygon fill="black" stroke="black" points="756.01,-62.37 761.24,-53.15 751.41,-57.1 756.01,-62.37"/>
</g>
<!-- NJF&#45;12.6 -->
<g id="node8" class="node">
<title>NJF&#45;12.6</title>
<g id="a_node8"><a xlink:href="https://score-json.github.io/nlohmann_json/main/generated/NJF.html#njf-12.6" xlink:title="NJF&#45;12.6: The service\naccepts well&#45;formed UTF&#45;8\ndata. " target="_top">
<polygon fill="none" stroke="black" points="1096,-60.5 894,-60.5 894,-7.5 1096,-7.5 1096,-60.5"/>
<text text-anchor="middle" x="995" y="-45.3" font-family="Open Sans" font-size="14.00">NJF&#45;12.6: The service</text>
<text text-anchor="middle" x="995" y="-30.3" font-family="Open Sans" font-size="14.00">accepts well&#45;formed UTF&#45;8</text>
<text text-anchor="middle" x="995" y="-15.3" font-family="Open Sans" font-size="14.00">data. </text>
</a>
</g>
</g>
<!-- NJF&#45;12&#45;&gt;NJF&#45;12.6 -->
<g id="edge7" class="edge">
<title>NJF&#45;12&#45;&gt;NJF&#45;12.6</title>
<path fill="none" stroke="black" d="M599.63,-211.83C675.04,-178.1 837.31,-105.52 928.79,-64.61"/>
<polygon fill="black" stroke="black" points="930.26,-67.79 937.96,-60.51 927.4,-61.4 930.26,-67.79"/>
</g>
<!-- TA&#45;BEHAVIOURS -->
<g id="node9" class="node">
<title>TA&#45;BEHAVIOURS</title>
<g id="a_node9"><a xlink:href="https://score-json.github.io/nlohmann_json/main/_images/custom_TA-BEHAVIOURS_graph.svg" xlink:title="TA&#45;BEHAVIOURS: Expected\nor required behaviours\nfor nlohmann/json library\nare identified, specified,\nverified and validated\nbased on analysis. " target="_top">
<polygon fill="none" stroke="black" points="661,-886 457,-886 457,-788 661,-788 661,-886"/>
<text text-anchor="middle" x="559" y="-870.8" font-family="Open Sans" font-size="14.00">TA&#45;BEHAVIOURS: Expected</text>
<text text-anchor="middle" x="559" y="-855.8" font-family="Open Sans" font-size="14.00">or required behaviours</text>
<text text-anchor="middle" x="559" y="-840.8" font-family="Open Sans" font-size="14.00">for nlohmann/json library</text>
<text text-anchor="middle" x="559" y="-825.8" font-family="Open Sans" font-size="14.00">are identified, specified,</text>
<text text-anchor="middle" x="559" y="-810.8" font-family="Open Sans" font-size="14.00">verified and validated</text>
<text text-anchor="middle" x="559" y="-795.8" font-family="Open Sans" font-size="14.00">based on analysis. </text>
</a>
</g>
</g>
<!-- TA&#45;BEHAVIOURS&#45;&gt;JLEX&#45;01 -->
<g id="edge8" class="edge">
<title>TA&#45;BEHAVIOURS&#45;&gt;JLEX&#45;01</title>
<path fill="none" stroke="black" d="M559,-788C559,-747.58 559,-690.67 559,-654.18"/>
<polygon fill="black" stroke="black" points="562.5,-654.01 559,-644.01 555.5,-654.01 562.5,-654.01"/>
</g>
<!-- TT&#45;EXPECTATIONS&#45;&gt;TA&#45;BEHAVIOURS -->
<g id="edge9" class="edge">
<title>TT&#45;EXPECTATIONS&#45;&gt;TA&#45;BEHAVIOURS</title>
<path fill="none" stroke="black" d="M559,-1029.72C559,-991.23 559,-937.2 559,-896.3"/>
<polygon fill="black" stroke="black" points="562.5,-896.2 559,-886.2 555.5,-896.2 562.5,-896.2"/>
</g>
<!-- WFJ&#45;07&#45;&gt;NJF&#45;12 -->
<g id="edge10" class="edge">
<title>WFJ&#45;07&#45;&gt;NJF&#45;12</title>
<path fill="none" stroke="black" d="M559,-393.82C559,-358.92 559,-296.7 559,-260.43"/>
<polygon fill="black" stroke="black" points="562.5,-260.06 559,-250.06 555.5,-260.06 562.5,-260.06"/>
</g>
</g>
</svg>
