<?xml version="1.0" encoding="UTF-8" standalone="no"?>
<!DOCTYPE svg PUBLIC "-//W3C//DTD SVG 1.1//EN"
 "http://www.w3.org/Graphics/SVG/1.1/DTD/svg11.dtd">
<!-- Generated by graphviz version 2.43.0 (0)
 -->
<!-- Title: G Pages: 1 -->
<svg width="1083pt" height="1560pt"
 viewBox="0.00 0.00 1083.00 1560.00" xmlns="http://www.w3.org/2000/svg" xmlns:xlink="http://www.w3.org/1999/xlink">
<g id="graph0" class="graph" transform="scale(1 1) rotate(0) translate(4 1556)">
<title>G</title>
<polygon fill="white" stroke="transparent" points="-4,4 -4,-1556 1079,-1556 1079,4 -4,4"/>
<!-- TRUSTABLE&#45;SOFTWARE -->
<g id="node1" class="node">
<title>TRUSTABLE&#45;SOFTWARE</title>
<g id="a_node1"><a xlink:href="https://score-json.github.io/nlohmann_json/main/_images/custom_TRUSTABLE-SOFTWARE_graph.svg" xlink:title="TRUSTABLE&#45;SOFTWARE: This\nrelease of JSON&#45;Library\nalso reffered in the\ndocumentation as nlohmann/json\nlibrary is Trustable.\n" target="_top">
<polygon fill="none" stroke="black" points="661.5,-1552 413.5,-1552 413.5,-1469 661.5,-1469 661.5,-1552"/>
<text text-anchor="middle" x="537.5" y="-1536.8" font-family="Open Sans" font-size="14.00">TRUSTABLE&#45;SOFTWARE: This</text>
<text text-anchor="middle" x="537.5" y="-1521.8" font-family="Open Sans" font-size="14.00">release of JSON&#45;Library</text>
<text text-anchor="middle" x="537.5" y="-1506.8" font-family="Open Sans" font-size="14.00">also reffered in the</text>
<text text-anchor="middle" x="537.5" y="-1491.8" font-family="Open Sans" font-size="14.00">documentation as nlohmann/json</text>
<text text-anchor="middle" x="537.5" y="-1476.8" font-family="Open Sans" font-size="14.00">library is Trustable.</text>
</a>
</g>
</g>
<!-- TT&#45;EXPECTATIONS -->
<g id="node8" class="node">
<title>TT&#45;EXPECTATIONS</title>
<g id="a_node8"><a xlink:href="https://score-json.github.io/nlohmann_json/main/_images/custom_TT-EXPECTATIONS_graph.svg" xlink:title="TT&#45;EXPECTATIONS: Documentation\nis provided, specifying\nwhat nlohmann/json library\nis expected to do, and\nwhat it must not do,\nand how this is verified.\n" target="_top">
<polygon fill="none" stroke="black" points="666,-1325 409,-1325 409,-1227 666,-1227 666,-1325"/>
<text text-anchor="middle" x="537.5" y="-1309.8" font-family="Open Sans" font-size="14.00">TT&#45;EXPECTATIONS: Documentation</text>
<text text-anchor="middle" x="537.5" y="-1294.8" font-family="Open Sans" font-size="14.00">is provided, specifying</text>
<text text-anchor="middle" x="537.5" y="-1279.8" font-family="Open Sans" font-size="14.00">what nlohmann/json library</text>
<text text-anchor="middle" x="537.5" y="-1264.8" font-family="Open Sans" font-size="14.00">is expected to do, and</text>
<text text-anchor="middle" x="537.5" y="-1249.8" font-family="Open Sans" font-size="14.00">what it must not do,</text>
<text text-anchor="middle" x="537.5" y="-1234.8" font-family="Open Sans" font-size="14.00">and how this is verified.</text>
</a>
</g>
</g>
<!-- TRUSTABLE&#45;SOFTWARE&#45;&gt;TT&#45;EXPECTATIONS -->
<g id="edge1" class="edge">
<title>TRUSTABLE&#45;SOFTWARE&#45;&gt;TT&#45;EXPECTATIONS</title>
<path fill="none" stroke="black" d="M537.5,-1468.74C537.5,-1431.88 537.5,-1377.18 537.5,-1335.63"/>
<polygon fill="black" stroke="black" points="541,-1335.37 537.5,-1325.37 534,-1335.37 541,-1335.37"/>
</g>
<!-- JLEX&#45;01 -->
<g id="node2" class="node">
<title>JLEX&#45;01</title>
<g id="a_node2"><a xlink:href="https://score-json.github.io/nlohmann_json/main/_images/custom_JLEX-01_graph.svg" xlink:title="JLEX&#45;01: The requirement\nregarding [JSON Validation](https://eclipse&#45;score.github.io/score/main/modules/baselibs/json/docs/requirements/index.html#comp_req__json__validation)\nis fulfilled. " target="_top">
<polygon fill="none" stroke="black" points="1075,-841 0,-841 0,-788 1075,-788 1075,-841"/>
<text text-anchor="middle" x="537.5" y="-825.8" font-family="Open Sans" font-size="14.00">JLEX&#45;01: The requirement</text>
<text text-anchor="middle" x="537.5" y="-810.8" font-family="Open Sans" font-size="14.00">regarding [JSON Validation](https://eclipse&#45;score.github.io/score/main/modules/baselibs/json/docs/requirements/index.html#comp_req__json__validation)</text>
<text text-anchor="middle" x="537.5" y="-795.8" font-family="Open Sans" font-size="14.00">is fulfilled. </text>
</a>
</g>
</g>
<!-- WFJ&#45;05 -->
<g id="node9" class="node">
<title>WFJ&#45;05</title>
<g id="a_node9"><a xlink:href="https://score-json.github.io/nlohmann_json/main/_images/custom_WFJ-05_graph.svg" xlink:title="WFJ&#45;05: The service checks\nthe well&#45;formedness of\nobjects. " target="_top">
<polygon fill="none" stroke="black" points="640.5,-644 434.5,-644 434.5,-591 640.5,-591 640.5,-644"/>
<text text-anchor="middle" x="537.5" y="-628.8" font-family="Open Sans" font-size="14.00">WFJ&#45;05: The service checks</text>
<text text-anchor="middle" x="537.5" y="-613.8" font-family="Open Sans" font-size="14.00">the well&#45;formedness of</text>
<text text-anchor="middle" x="537.5" y="-598.8" font-family="Open Sans" font-size="14.00">objects. </text>
</a>
</g>
</g>
<!-- JLEX&#45;01&#45;&gt;WFJ&#45;05 -->
<g id="edge2" class="edge">
<title>JLEX&#45;01&#45;&gt;WFJ&#45;05</title>
<path fill="none" stroke="black" d="M537.5,-787.61C537.5,-753.42 537.5,-693.06 537.5,-654.46"/>
<polygon fill="black" stroke="black" points="541,-654.19 537.5,-644.19 534,-654.19 541,-654.19"/>
</g>
<!-- NJF&#45;06 -->
<g id="node3" class="node">
<title>NJF&#45;06</title>
<g id="a_node3"><a xlink:href="https://score-json.github.io/nlohmann_json/main/_images/custom_NJF-06_graph.svg" xlink:title="NJF&#45;06: The service accepts\nand rejects objects according\nto RFC8259 ยง4. " target="_top">
<polygon fill="none" stroke="black" points="647,-447 428,-447 428,-394 647,-394 647,-447"/>
<text text-anchor="middle" x="537.5" y="-431.8" font-family="Open Sans" font-size="14.00">NJF&#45;06: The service accepts</text>
<text text-anchor="middle" x="537.5" y="-416.8" font-family="Open Sans" font-size="14.00">and rejects objects according</text>
<text text-anchor="middle" x="537.5" y="-401.8" font-family="Open Sans" font-size="14.00">to RFC8259 ยง4. </text>
</a>
</g>
</g>
<!-- NJF&#45;06.7 -->
<g id="node4" class="node">
<title>NJF&#45;06.7</title>
<g id="a_node4"><a xlink:href="https://score-json.github.io/nlohmann_json/main/_images/custom_NJF-06.7_graph.svg" xlink:title="NJF&#45;06.7: The service\ndoes only accept comma\nas member separator.\n" target="_top">
<polygon fill="none" stroke="black" points="632,-250 443,-250 443,-197 632,-197 632,-250"/>
<text text-anchor="middle" x="537.5" y="-234.8" font-family="Open Sans" font-size="14.00">NJF&#45;06.7: The service</text>
<text text-anchor="middle" x="537.5" y="-219.8" font-family="Open Sans" font-size="14.00">does only accept comma</text>
<text text-anchor="middle" x="537.5" y="-204.8" font-family="Open Sans" font-size="14.00">as member separator.</text>
</a>
</g>
</g>
<!-- NJF&#45;06&#45;&gt;NJF&#45;06.7 -->
<g id="edge3" class="edge">
<title>NJF&#45;06&#45;&gt;NJF&#45;06.7</title>
<path fill="none" stroke="black" d="M537.5,-393.61C537.5,-359.42 537.5,-299.06 537.5,-260.46"/>
<polygon fill="black" stroke="black" points="541,-260.19 537.5,-250.19 534,-260.19 541,-260.19"/>
</g>
<!-- NJF&#45;06.7.1 -->
<g id="node5" class="node">
<title>NJF&#45;06.7.1</title>
<g id="a_node5"><a xlink:href="https://score-json.github.io/nlohmann_json/main/generated/NJF.html#njf-06.7.1" xlink:title="NJF&#45;06.7.1: The service\naccepts comma as member\nseparator. " target="_top">
<polygon fill="none" stroke="black" points="531,-53 322,-53 322,0 531,0 531,-53"/>
<text text-anchor="middle" x="426.5" y="-37.8" font-family="Open Sans" font-size="14.00">NJF&#45;06.7.1: The service</text>
<text text-anchor="middle" x="426.5" y="-22.8" font-family="Open Sans" font-size="14.00">accepts comma as member</text>
<text text-anchor="middle" x="426.5" y="-7.8" font-family="Open Sans" font-size="14.00">separator. </text>
</a>
</g>
</g>
<!-- NJF&#45;06.7&#45;&gt;NJF&#45;06.7.1 -->
<g id="edge4" class="edge">
<title>NJF&#45;06.7&#45;&gt;NJF&#45;06.7.1</title>
<path fill="none" stroke="black" d="M522.76,-196.61C503.05,-161.98 468.06,-100.51 446.13,-61.99"/>
<polygon fill="black" stroke="black" points="449.11,-60.15 441.12,-53.19 443.03,-63.61 449.11,-60.15"/>
</g>
<!-- NJF&#45;06.7.2 -->
<g id="node6" class="node">
<title>NJF&#45;06.7.2</title>
<g id="a_node6"><a xlink:href="https://score-json.github.io/nlohmann_json/main/generated/NJF.html#njf-06.7.2" xlink:title="NJF&#45;06.7.2: The service\ndoes not accept any other\nmember separator. " target="_top">
<polygon fill="none" stroke="black" points="747.5,-53 549.5,-53 549.5,0 747.5,0 747.5,-53"/>
<text text-anchor="middle" x="648.5" y="-37.8" font-family="Open Sans" font-size="14.00">NJF&#45;06.7.2: The service</text>
<text text-anchor="middle" x="648.5" y="-22.8" font-family="Open Sans" font-size="14.00">does not accept any other</text>
<text text-anchor="middle" x="648.5" y="-7.8" font-family="Open Sans" font-size="14.00">member separator. </text>
</a>
</g>
</g>
<!-- NJF&#45;06.7&#45;&gt;NJF&#45;06.7.2 -->
<g id="edge5" class="edge">
<title>NJF&#45;06.7&#45;&gt;NJF&#45;06.7.2</title>
<path fill="none" stroke="black" d="M552.24,-196.61C571.95,-161.98 606.94,-100.51 628.87,-61.99"/>
<polygon fill="black" stroke="black" points="631.97,-63.61 633.88,-53.19 625.89,-60.15 631.97,-63.61"/>
</g>
<!-- TA&#45;BEHAVIOURS -->
<g id="node7" class="node">
<title>TA&#45;BEHAVIOURS</title>
<g id="a_node7"><a xlink:href="https://score-json.github.io/nlohmann_json/main/_images/custom_TA-BEHAVIOURS_graph.svg" xlink:title="TA&#45;BEHAVIOURS: Expected\nor required behaviours\nfor nlohmann/json library\nare identified, specified,\nverified and validated\nbased on analysis. " target="_top">
<polygon fill="none" stroke="black" points="639.5,-1083 435.5,-1083 435.5,-985 639.5,-985 639.5,-1083"/>
<text text-anchor="middle" x="537.5" y="-1067.8" font-family="Open Sans" font-size="14.00">TA&#45;BEHAVIOURS: Expected</text>
<text text-anchor="middle" x="537.5" y="-1052.8" font-family="Open Sans" font-size="14.00">or required behaviours</text>
<text text-anchor="middle" x="537.5" y="-1037.8" font-family="Open Sans" font-size="14.00">for nlohmann/json library</text>
<text text-anchor="middle" x="537.5" y="-1022.8" font-family="Open Sans" font-size="14.00">are identified, specified,</text>
<text text-anchor="middle" x="537.5" y="-1007.8" font-family="Open Sans" font-size="14.00">verified and validated</text>
<text text-anchor="middle" x="537.5" y="-992.8" font-family="Open Sans" font-size="14.00">based on analysis. </text>
</a>
</g>
</g>
<!-- TA&#45;BEHAVIOURS&#45;&gt;JLEX&#45;01 -->
<g id="edge6" class="edge">
<title>TA&#45;BEHAVIOURS&#45;&gt;JLEX&#45;01</title>
<path fill="none" stroke="black" d="M537.5,-985C537.5,-944.58 537.5,-887.67 537.5,-851.18"/>
<polygon fill="black" stroke="black" points="541,-851.01 537.5,-841.01 534,-851.01 541,-851.01"/>
</g>
<!-- TT&#45;EXPECTATIONS&#45;&gt;TA&#45;BEHAVIOURS -->
<g id="edge7" class="edge">
<title>TT&#45;EXPECTATIONS&#45;&gt;TA&#45;BEHAVIOURS</title>
<path fill="none" stroke="black" d="M537.5,-1226.72C537.5,-1188.23 537.5,-1134.2 537.5,-1093.3"/>
<polygon fill="black" stroke="black" points="541,-1093.2 537.5,-1083.2 534,-1093.2 541,-1093.2"/>
</g>
<!-- WFJ&#45;05&#45;&gt;NJF&#45;06 -->
<g id="edge8" class="edge">
<title>WFJ&#45;05&#45;&gt;NJF&#45;06</title>
<path fill="none" stroke="black" d="M537.5,-590.61C537.5,-556.42 537.5,-496.06 537.5,-457.46"/>
<polygon fill="black" stroke="black" points="541,-457.19 537.5,-447.19 534,-457.19 541,-457.19"/>
</g>
</g>
</svg>
