<?xml version="1.0" encoding="UTF-8" standalone="no"?>
<!DOCTYPE svg PUBLIC "-//W3C//DTD SVG 1.1//EN"
 "http://www.w3.org/Graphics/SVG/1.1/DTD/svg11.dtd">
<!-- Generated by graphviz version 2.43.0 (0)
 -->
<!-- Title: G Pages: 1 -->
<svg width="1083pt" height="1151pt"
 viewBox="0.00 0.00 1083.00 1151.00" xmlns="http://www.w3.org/2000/svg" xmlns:xlink="http://www.w3.org/1999/xlink">
<g id="graph0" class="graph" transform="scale(1 1) rotate(0) translate(4 1147)">
<title>G</title>
<polygon fill="white" stroke="transparent" points="-4,4 -4,-1147 1079,-1147 1079,4 -4,4"/>
<!-- TRUSTABLE&#45;SOFTWARE -->
<g id="node1" class="node">
<title>TRUSTABLE&#45;SOFTWARE</title>
<g id="a_node1"><a xlink:href="https://score-json.github.io/nlohmann_json/main/_images/custom_TRUSTABLE-SOFTWARE_graph.svg" xlink:title="TRUSTABLE&#45;SOFTWARE: This\nrelease of JSON&#45;Library\nalso reffered in the\ndocumentation as nlohmann/json\nlibrary is Trustable.\n" target="_top">
<polygon fill="none" stroke="black" points="661.5,-1143 413.5,-1143 413.5,-1060 661.5,-1060 661.5,-1143"/>
<text text-anchor="middle" x="537.5" y="-1127.8" font-family="Open Sans" font-size="14.00">TRUSTABLE&#45;SOFTWARE: This</text>
<text text-anchor="middle" x="537.5" y="-1112.8" font-family="Open Sans" font-size="14.00">release of JSON&#45;Library</text>
<text text-anchor="middle" x="537.5" y="-1097.8" font-family="Open Sans" font-size="14.00">also reffered in the</text>
<text text-anchor="middle" x="537.5" y="-1082.8" font-family="Open Sans" font-size="14.00">documentation as nlohmann/json</text>
<text text-anchor="middle" x="537.5" y="-1067.8" font-family="Open Sans" font-size="14.00">library is Trustable.</text>
</a>
</g>
</g>
<!-- TT&#45;EXPECTATIONS -->
<g id="node5" class="node">
<title>TT&#45;EXPECTATIONS</title>
<g id="a_node5"><a xlink:href="https://score-json.github.io/nlohmann_json/main/_images/custom_TT-EXPECTATIONS_graph.svg" xlink:title="TT&#45;EXPECTATIONS: Documentation\nis provided, specifying\nwhat nlohmann/json library\nis expected to do, and\nwhat it must not do,\nand how this is verified.\n" target="_top">
<polygon fill="none" stroke="black" points="666,-916 409,-916 409,-818 666,-818 666,-916"/>
<text text-anchor="middle" x="537.5" y="-900.8" font-family="Open Sans" font-size="14.00">TT&#45;EXPECTATIONS: Documentation</text>
<text text-anchor="middle" x="537.5" y="-885.8" font-family="Open Sans" font-size="14.00">is provided, specifying</text>
<text text-anchor="middle" x="537.5" y="-870.8" font-family="Open Sans" font-size="14.00">what nlohmann/json library</text>
<text text-anchor="middle" x="537.5" y="-855.8" font-family="Open Sans" font-size="14.00">is expected to do, and</text>
<text text-anchor="middle" x="537.5" y="-840.8" font-family="Open Sans" font-size="14.00">what it must not do,</text>
<text text-anchor="middle" x="537.5" y="-825.8" font-family="Open Sans" font-size="14.00">and how this is verified.</text>
</a>
</g>
</g>
<!-- TRUSTABLE&#45;SOFTWARE&#45;&gt;TT&#45;EXPECTATIONS -->
<g id="edge1" class="edge">
<title>TRUSTABLE&#45;SOFTWARE&#45;&gt;TT&#45;EXPECTATIONS</title>
<path fill="none" stroke="black" d="M537.5,-1059.74C537.5,-1022.88 537.5,-968.18 537.5,-926.63"/>
<polygon fill="black" stroke="black" points="541,-926.37 537.5,-916.37 534,-926.37 541,-926.37"/>
</g>
<!-- JLEX&#45;01 -->
<g id="node2" class="node">
<title>JLEX&#45;01</title>
<g id="a_node2"><a xlink:href="https://score-json.github.io/nlohmann_json/main/_images/custom_JLEX-01_graph.svg" xlink:title="JLEX&#45;01: The requirement\nregarding [JSON Validation](https://eclipse&#45;score.github.io/score/main/modules/baselibs/json/docs/requirements/index.html#comp_req__json__validation)\nis fulfilled. " target="_top">
<polygon fill="none" stroke="black" points="1075,-432 0,-432 0,-379 1075,-379 1075,-432"/>
<text text-anchor="middle" x="537.5" y="-416.8" font-family="Open Sans" font-size="14.00">JLEX&#45;01: The requirement</text>
<text text-anchor="middle" x="537.5" y="-401.8" font-family="Open Sans" font-size="14.00">regarding [JSON Validation](https://eclipse&#45;score.github.io/score/main/modules/baselibs/json/docs/requirements/index.html#comp_req__json__validation)</text>
<text text-anchor="middle" x="537.5" y="-386.8" font-family="Open Sans" font-size="14.00">is fulfilled. </text>
</a>
</g>
</g>
<!-- WFJ&#45;07 -->
<g id="node6" class="node">
<title>WFJ&#45;07</title>
<g id="a_node6"><a xlink:href="https://score-json.github.io/nlohmann_json/main/_images/custom_WFJ-07_graph.svg" xlink:title="WFJ&#45;07: The service checks\nthat JSON is only serialized\nusing UTF&#45;8. " target="_top">
<polygon fill="none" stroke="black" points="640.5,-235 434.5,-235 434.5,-182 640.5,-182 640.5,-235"/>
<text text-anchor="middle" x="537.5" y="-219.8" font-family="Open Sans" font-size="14.00">WFJ&#45;07: The service checks</text>
<text text-anchor="middle" x="537.5" y="-204.8" font-family="Open Sans" font-size="14.00">that JSON is only serialized</text>
<text text-anchor="middle" x="537.5" y="-189.8" font-family="Open Sans" font-size="14.00">using UTF&#45;8. </text>
</a>
</g>
</g>
<!-- JLEX&#45;01&#45;&gt;WFJ&#45;07 -->
<g id="edge2" class="edge">
<title>JLEX&#45;01&#45;&gt;WFJ&#45;07</title>
<path fill="none" stroke="black" d="M537.5,-378.61C537.5,-344.42 537.5,-284.06 537.5,-245.46"/>
<polygon fill="black" stroke="black" points="541,-245.19 537.5,-235.19 534,-245.19 541,-245.19"/>
</g>
<!-- NJF&#45;12 -->
<g id="node3" class="node">
<title>NJF&#45;12</title>
<g id="a_node3"><a xlink:href="https://score-json.github.io/nlohmann_json/main/_images/custom_NJF-12_graph.svg" xlink:title="NJF&#45;12: The service decodes\nUTF&#45;8 data. " target="_top">
<polygon fill="none" stroke="black" points="644.5,-38 430.5,-38 430.5,0 644.5,0 644.5,-38"/>
<text text-anchor="middle" x="537.5" y="-22.8" font-family="Open Sans" font-size="14.00">NJF&#45;12: The service decodes</text>
<text text-anchor="middle" x="537.5" y="-7.8" font-family="Open Sans" font-size="14.00">UTF&#45;8 data. </text>
</a>
</g>
</g>
<!-- TA&#45;BEHAVIOURS -->
<g id="node4" class="node">
<title>TA&#45;BEHAVIOURS</title>
<g id="a_node4"><a xlink:href="https://score-json.github.io/nlohmann_json/main/_images/custom_TA-BEHAVIOURS_graph.svg" xlink:title="TA&#45;BEHAVIOURS: Expected\nor required behaviours\nfor nlohmann/json library\nare identified, specified,\nverified and validated\nbased on analysis. " target="_top">
<polygon fill="none" stroke="black" points="639.5,-674 435.5,-674 435.5,-576 639.5,-576 639.5,-674"/>
<text text-anchor="middle" x="537.5" y="-658.8" font-family="Open Sans" font-size="14.00">TA&#45;BEHAVIOURS: Expected</text>
<text text-anchor="middle" x="537.5" y="-643.8" font-family="Open Sans" font-size="14.00">or required behaviours</text>
<text text-anchor="middle" x="537.5" y="-628.8" font-family="Open Sans" font-size="14.00">for nlohmann/json library</text>
<text text-anchor="middle" x="537.5" y="-613.8" font-family="Open Sans" font-size="14.00">are identified, specified,</text>
<text text-anchor="middle" x="537.5" y="-598.8" font-family="Open Sans" font-size="14.00">verified and validated</text>
<text text-anchor="middle" x="537.5" y="-583.8" font-family="Open Sans" font-size="14.00">based on analysis. </text>
</a>
</g>
</g>
<!-- TA&#45;BEHAVIOURS&#45;&gt;JLEX&#45;01 -->
<g id="edge3" class="edge">
<title>TA&#45;BEHAVIOURS&#45;&gt;JLEX&#45;01</title>
<path fill="none" stroke="black" d="M537.5,-576C537.5,-535.58 537.5,-478.67 537.5,-442.18"/>
<polygon fill="black" stroke="black" points="541,-442.01 537.5,-432.01 534,-442.01 541,-442.01"/>
</g>
<!-- TT&#45;EXPECTATIONS&#45;&gt;TA&#45;BEHAVIOURS -->
<g id="edge4" class="edge">
<title>TT&#45;EXPECTATIONS&#45;&gt;TA&#45;BEHAVIOURS</title>
<path fill="none" stroke="black" d="M537.5,-817.72C537.5,-779.23 537.5,-725.2 537.5,-684.3"/>
<polygon fill="black" stroke="black" points="541,-684.2 537.5,-674.2 534,-684.2 541,-684.2"/>
</g>
<!-- WFJ&#45;07&#45;&gt;NJF&#45;12 -->
<g id="edge5" class="edge">
<title>WFJ&#45;07&#45;&gt;NJF&#45;12</title>
<path fill="none" stroke="black" d="M537.5,-181.82C537.5,-146.92 537.5,-84.7 537.5,-48.43"/>
<polygon fill="black" stroke="black" points="541,-48.06 537.5,-38.06 534,-48.06 541,-48.06"/>
</g>
</g>
</svg>
