<?xml version="1.0" encoding="UTF-8" standalone="no"?>
<!DOCTYPE svg PUBLIC "-//W3C//DTD SVG 1.1//EN"
 "http://www.w3.org/Graphics/SVG/1.1/DTD/svg11.dtd">
<!-- Generated by graphviz version 2.43.0 (0)
 -->
<!-- Title: G Pages: 1 -->
<svg width="1453pt" height="1408pt"
 viewBox="0.00 0.00 1452.50 1408.00" xmlns="http://www.w3.org/2000/svg" xmlns:xlink="http://www.w3.org/1999/xlink">
<g id="graph0" class="graph" transform="scale(1 1) rotate(0) translate(4 1404)">
<title>G</title>
<polygon fill="white" stroke="transparent" points="-4,4 -4,-1404 1448.5,-1404 1448.5,4 -4,4"/>
<!-- TRUSTABLE&#45;SOFTWARE -->
<g id="node1" class="node">
<title>TRUSTABLE&#45;SOFTWARE</title>
<g id="a_node1"><a xlink:href="https://score-json.github.io/nlohmann_json/main/_images/custom_TRUSTABLE-SOFTWARE_graph.svg" xlink:title="TRUSTABLE&#45;SOFTWARE: This\nrelease of JSON&#45;Library\nalso reffered in the\ndocumentation as nlohmann/json\nlibrary is Trustable.\n" target="_top">
<polygon fill="none" stroke="black" points="864.5,-1400 616.5,-1400 616.5,-1317 864.5,-1317 864.5,-1400"/>
<text text-anchor="middle" x="740.5" y="-1384.8" font-family="Open Sans" font-size="14.00">TRUSTABLE&#45;SOFTWARE: This</text>
<text text-anchor="middle" x="740.5" y="-1369.8" font-family="Open Sans" font-size="14.00">release of JSON&#45;Library</text>
<text text-anchor="middle" x="740.5" y="-1354.8" font-family="Open Sans" font-size="14.00">also reffered in the</text>
<text text-anchor="middle" x="740.5" y="-1339.8" font-family="Open Sans" font-size="14.00">documentation as nlohmann/json</text>
<text text-anchor="middle" x="740.5" y="-1324.8" font-family="Open Sans" font-size="14.00">library is Trustable.</text>
</a>
</g>
</g>
<!-- TT&#45;EXPECTATIONS -->
<g id="node13" class="node">
<title>TT&#45;EXPECTATIONS</title>
<g id="a_node13"><a xlink:href="https://score-json.github.io/nlohmann_json/main/_images/custom_TT-EXPECTATIONS_graph.svg" xlink:title="TT&#45;EXPECTATIONS: Documentation\nis provided, specifying\nwhat nlohmann/json library\nis expected to do, and\nwhat it must not do,\nand how this is verified.\n" target="_top">
<polygon fill="none" stroke="black" points="869,-1173 612,-1173 612,-1075 869,-1075 869,-1173"/>
<text text-anchor="middle" x="740.5" y="-1157.8" font-family="Open Sans" font-size="14.00">TT&#45;EXPECTATIONS: Documentation</text>
<text text-anchor="middle" x="740.5" y="-1142.8" font-family="Open Sans" font-size="14.00">is provided, specifying</text>
<text text-anchor="middle" x="740.5" y="-1127.8" font-family="Open Sans" font-size="14.00">what nlohmann/json library</text>
<text text-anchor="middle" x="740.5" y="-1112.8" font-family="Open Sans" font-size="14.00">is expected to do, and</text>
<text text-anchor="middle" x="740.5" y="-1097.8" font-family="Open Sans" font-size="14.00">what it must not do,</text>
<text text-anchor="middle" x="740.5" y="-1082.8" font-family="Open Sans" font-size="14.00">and how this is verified.</text>
</a>
</g>
</g>
<!-- TRUSTABLE&#45;SOFTWARE&#45;&gt;TT&#45;EXPECTATIONS -->
<g id="edge1" class="edge">
<title>TRUSTABLE&#45;SOFTWARE&#45;&gt;TT&#45;EXPECTATIONS</title>
<path fill="none" stroke="black" d="M740.5,-1316.74C740.5,-1279.88 740.5,-1225.18 740.5,-1183.63"/>
<polygon fill="black" stroke="black" points="744,-1183.37 740.5,-1173.37 737,-1183.37 744,-1183.37"/>
</g>
<!-- JLEX&#45;02 -->
<g id="node2" class="node">
<title>JLEX&#45;02</title>
<g id="a_node2"><a xlink:href="https://score-json.github.io/nlohmann_json/main/_images/custom_JLEX-02_graph.svg" xlink:title="JLEX&#45;02: The requirement\nregarding [JSON Deserialization](https://eclipse&#45;score.github.io/score/main/modules/baselibs/json/docs/requirements/index.html#comp_req__json__deserialization)\nis fulfilled. " target="_top">
<polygon fill="none" stroke="black" points="1311.5,-689 169.5,-689 169.5,-636 1311.5,-636 1311.5,-689"/>
<text text-anchor="middle" x="740.5" y="-673.8" font-family="Open Sans" font-size="14.00">JLEX&#45;02: The requirement</text>
<text text-anchor="middle" x="740.5" y="-658.8" font-family="Open Sans" font-size="14.00">regarding [JSON Deserialization](https://eclipse&#45;score.github.io/score/main/modules/baselibs/json/docs/requirements/index.html#comp_req__json__deserialization)</text>
<text text-anchor="middle" x="740.5" y="-643.8" font-family="Open Sans" font-size="14.00">is fulfilled. </text>
</a>
</g>
</g>
<!-- PJD&#45;03 -->
<g id="node11" class="node">
<title>PJD&#45;03</title>
<g id="a_node11"><a xlink:href="https://score-json.github.io/nlohmann_json/main/_images/custom_PJD-03_graph.svg" xlink:title="PJD&#45;03: The service parses\nall texts that conform\nto the JSON grammar.\n" target="_top">
<polygon fill="none" stroke="black" points="842,-492 639,-492 639,-439 842,-439 842,-492"/>
<text text-anchor="middle" x="740.5" y="-476.8" font-family="Open Sans" font-size="14.00">PJD&#45;03: The service parses</text>
<text text-anchor="middle" x="740.5" y="-461.8" font-family="Open Sans" font-size="14.00">all texts that conform</text>
<text text-anchor="middle" x="740.5" y="-446.8" font-family="Open Sans" font-size="14.00">to the JSON grammar.</text>
</a>
</g>
</g>
<!-- JLEX&#45;02&#45;&gt;PJD&#45;03 -->
<g id="edge2" class="edge">
<title>JLEX&#45;02&#45;&gt;PJD&#45;03</title>
<path fill="none" stroke="black" d="M740.5,-635.61C740.5,-601.42 740.5,-541.06 740.5,-502.46"/>
<polygon fill="black" stroke="black" points="744,-502.19 740.5,-492.19 737,-502.19 744,-502.19"/>
</g>
<!-- NPF&#45;03 -->
<g id="node3" class="node">
<title>NPF&#45;03</title>
<g id="a_node3"><a xlink:href="https://score-json.github.io/nlohmann_json/main/_images/custom_NPF-03_graph.svg" xlink:title="NPF&#45;03: The service parses\nstrings according to\nRFC8259. " target="_top">
<polygon fill="none" stroke="black" points="843.5,-295 637.5,-295 637.5,-242 843.5,-242 843.5,-295"/>
<text text-anchor="middle" x="740.5" y="-279.8" font-family="Open Sans" font-size="14.00">NPF&#45;03: The service parses</text>
<text text-anchor="middle" x="740.5" y="-264.8" font-family="Open Sans" font-size="14.00">strings according to</text>
<text text-anchor="middle" x="740.5" y="-249.8" font-family="Open Sans" font-size="14.00">RFC8259. </text>
</a>
</g>
</g>
<!-- NPF&#45;03.1 -->
<g id="node4" class="node">
<title>NPF&#45;03.1</title>
<g id="a_node4"><a xlink:href="https://score-json.github.io/nlohmann_json/main/generated/NPF.html#npf-03.1" xlink:title="NPF&#45;03.1: The service\nignores leading and trailing\nwhitespace. " target="_top">
<polygon fill="none" stroke="black" points="207,-75.5 0,-75.5 0,-22.5 207,-22.5 207,-75.5"/>
<text text-anchor="middle" x="103.5" y="-60.3" font-family="Open Sans" font-size="14.00">NPF&#45;03.1: The service</text>
<text text-anchor="middle" x="103.5" y="-45.3" font-family="Open Sans" font-size="14.00">ignores leading and trailing</text>
<text text-anchor="middle" x="103.5" y="-30.3" font-family="Open Sans" font-size="14.00">whitespace. </text>
</a>
</g>
</g>
<!-- NPF&#45;03&#45;&gt;NPF&#45;03.1 -->
<g id="edge3" class="edge">
<title>NPF&#45;03&#45;&gt;NPF&#45;03.1</title>
<path fill="none" stroke="black" d="M652.79,-241.9C547.85,-210.65 367.29,-154.89 215.5,-98 200.49,-92.37 184.55,-85.87 169.55,-79.51"/>
<polygon fill="black" stroke="black" points="170.92,-76.29 160.35,-75.57 168.17,-82.72 170.92,-76.29"/>
</g>
<!-- NPF&#45;03.2 -->
<g id="node5" class="node">
<title>NPF&#45;03.2</title>
<g id="a_node5"><a xlink:href="https://score-json.github.io/nlohmann_json/main/generated/NPF.html#npf-03.2" xlink:title="NPF&#45;03.2: The service\nparses escaped characters\nin the basic multilingual\nplane. " target="_top">
<polygon fill="none" stroke="black" points="428,-83 225,-83 225,-15 428,-15 428,-83"/>
<text text-anchor="middle" x="326.5" y="-67.8" font-family="Open Sans" font-size="14.00">NPF&#45;03.2: The service</text>
<text text-anchor="middle" x="326.5" y="-52.8" font-family="Open Sans" font-size="14.00">parses escaped characters</text>
<text text-anchor="middle" x="326.5" y="-37.8" font-family="Open Sans" font-size="14.00">in the basic multilingual</text>
<text text-anchor="middle" x="326.5" y="-22.8" font-family="Open Sans" font-size="14.00">plane. </text>
</a>
</g>
</g>
<!-- NPF&#45;03&#45;&gt;NPF&#45;03.2 -->
<g id="edge4" class="edge">
<title>NPF&#45;03&#45;&gt;NPF&#45;03.2</title>
<path fill="none" stroke="black" d="M691.79,-241.91C619.3,-203.83 482.57,-131.99 398.51,-87.83"/>
<polygon fill="black" stroke="black" points="400.02,-84.67 389.53,-83.12 396.76,-90.87 400.02,-84.67"/>
</g>
<!-- NPF&#45;03.3 -->
<g id="node6" class="node">
<title>NPF&#45;03.3</title>
<g id="a_node6"><a xlink:href="https://score-json.github.io/nlohmann_json/main/generated/NPF.html#npf-03.3" xlink:title="NPF&#45;03.3: The service\nignores capitalisation\nin escaped hexadecimal\nunicode. " target="_top">
<polygon fill="none" stroke="black" points="630.5,-83 446.5,-83 446.5,-15 630.5,-15 630.5,-83"/>
<text text-anchor="middle" x="538.5" y="-67.8" font-family="Open Sans" font-size="14.00">NPF&#45;03.3: The service</text>
<text text-anchor="middle" x="538.5" y="-52.8" font-family="Open Sans" font-size="14.00">ignores capitalisation</text>
<text text-anchor="middle" x="538.5" y="-37.8" font-family="Open Sans" font-size="14.00">in escaped hexadecimal</text>
<text text-anchor="middle" x="538.5" y="-22.8" font-family="Open Sans" font-size="14.00">unicode. </text>
</a>
</g>
</g>
<!-- NPF&#45;03&#45;&gt;NPF&#45;03.3 -->
<g id="edge5" class="edge">
<title>NPF&#45;03&#45;&gt;NPF&#45;03.3</title>
<path fill="none" stroke="black" d="M716.53,-241.7C681.86,-204.36 617.36,-134.91 576.25,-90.65"/>
<polygon fill="black" stroke="black" points="578.73,-88.17 569.36,-83.23 573.6,-92.94 578.73,-88.17"/>
</g>
<!-- NPF&#45;03.4 -->
<g id="node7" class="node">
<title>NPF&#45;03.4</title>
<g id="a_node7"><a xlink:href="https://score-json.github.io/nlohmann_json/main/generated/NPF.html#npf-03.4" xlink:title="NPF&#45;03.4: The service\nparses all unescaped\nutf&#45;8 characters except\nquotation mark, reverse\nsolidus and the control\ncharacters. " target="_top">
<polygon fill="none" stroke="black" points="832.5,-98 648.5,-98 648.5,0 832.5,0 832.5,-98"/>
<text text-anchor="middle" x="740.5" y="-82.8" font-family="Open Sans" font-size="14.00">NPF&#45;03.4: The service</text>
<text text-anchor="middle" x="740.5" y="-67.8" font-family="Open Sans" font-size="14.00">parses all unescaped</text>
<text text-anchor="middle" x="740.5" y="-52.8" font-family="Open Sans" font-size="14.00">utf&#45;8 characters except</text>
<text text-anchor="middle" x="740.5" y="-37.8" font-family="Open Sans" font-size="14.00">quotation mark, reverse</text>
<text text-anchor="middle" x="740.5" y="-22.8" font-family="Open Sans" font-size="14.00">solidus and the control</text>
<text text-anchor="middle" x="740.5" y="-7.8" font-family="Open Sans" font-size="14.00">characters. </text>
</a>
</g>
</g>
<!-- NPF&#45;03&#45;&gt;NPF&#45;03.4 -->
<g id="edge6" class="edge">
<title>NPF&#45;03&#45;&gt;NPF&#45;03.4</title>
<path fill="none" stroke="black" d="M740.5,-241.7C740.5,-209.09 740.5,-151.99 740.5,-108.56"/>
<polygon fill="black" stroke="black" points="744,-108.4 740.5,-98.4 737,-108.4 744,-108.4"/>
</g>
<!-- NPF&#45;03.5 -->
<g id="node8" class="node">
<title>NPF&#45;03.5</title>
<g id="a_node8"><a xlink:href="https://score-json.github.io/nlohmann_json/main/generated/NPF.html#npf-03.5" xlink:title="NPF&#45;03.5: The service\nparses \\, \\/, \\b,\\f,\n\\n, \\r, \\t and escaped\nquotation marks. " target="_top">
<polygon fill="none" stroke="black" points="1020,-83 851,-83 851,-15 1020,-15 1020,-83"/>
<text text-anchor="middle" x="935.5" y="-67.8" font-family="Open Sans" font-size="14.00">NPF&#45;03.5: The service</text>
<text text-anchor="middle" x="935.5" y="-52.8" font-family="Open Sans" font-size="14.00">parses \, \/, \b,\f,</text>
<text text-anchor="middle" x="935.5" y="-37.8" font-family="Open Sans" font-size="14.00">\n, \r, \t and escaped</text>
<text text-anchor="middle" x="935.5" y="-22.8" font-family="Open Sans" font-size="14.00">quotation marks. </text>
</a>
</g>
</g>
<!-- NPF&#45;03&#45;&gt;NPF&#45;03.5 -->
<g id="edge7" class="edge">
<title>NPF&#45;03&#45;&gt;NPF&#45;03.5</title>
<path fill="none" stroke="black" d="M763.63,-241.7C797.04,-204.44 859.12,-135.19 898.81,-90.92"/>
<polygon fill="black" stroke="black" points="901.64,-93.01 905.71,-83.23 896.43,-88.34 901.64,-93.01"/>
</g>
<!-- NPF&#45;03.6 -->
<g id="node9" class="node">
<title>NPF&#45;03.6</title>
<g id="a_node9"><a xlink:href="https://score-json.github.io/nlohmann_json/main/generated/NPF.html#npf-03.6" xlink:title="NPF&#45;03.6: The service\nparses the empty string.\n" target="_top">
<polygon fill="none" stroke="black" points="1226.5,-68 1038.5,-68 1038.5,-30 1226.5,-30 1226.5,-68"/>
<text text-anchor="middle" x="1132.5" y="-52.8" font-family="Open Sans" font-size="14.00">NPF&#45;03.6: The service</text>
<text text-anchor="middle" x="1132.5" y="-37.8" font-family="Open Sans" font-size="14.00">parses the empty string.</text>
</a>
</g>
</g>
<!-- NPF&#45;03&#45;&gt;NPF&#45;03.6 -->
<g id="edge8" class="edge">
<title>NPF&#45;03&#45;&gt;NPF&#45;03.6</title>
<path fill="none" stroke="black" d="M786.62,-241.91C863.58,-199.21 1016.99,-114.09 1090.86,-73.1"/>
<polygon fill="black" stroke="black" points="1092.84,-76.01 1099.89,-68.09 1089.45,-69.89 1092.84,-76.01"/>
</g>
<!-- NPF&#45;03.7 -->
<g id="node10" class="node">
<title>NPF&#45;03.7</title>
<g id="a_node10"><a xlink:href="https://score-json.github.io/nlohmann_json/main/generated/NPF.html#npf-03.7" xlink:title="NPF&#45;03.7: The service\nparses non&#45;empty strings.\n" target="_top">
<polygon fill="none" stroke="black" points="1444.5,-68 1244.5,-68 1244.5,-30 1444.5,-30 1444.5,-68"/>
<text text-anchor="middle" x="1344.5" y="-52.8" font-family="Open Sans" font-size="14.00">NPF&#45;03.7: The service</text>
<text text-anchor="middle" x="1344.5" y="-37.8" font-family="Open Sans" font-size="14.00">parses non&#45;empty strings.</text>
</a>
</g>
</g>
<!-- NPF&#45;03&#45;&gt;NPF&#45;03.7 -->
<g id="edge9" class="edge">
<title>NPF&#45;03&#45;&gt;NPF&#45;03.7</title>
<path fill="none" stroke="black" d="M821.86,-241.99C920.57,-210.49 1091.66,-154.18 1235.5,-98 1255.68,-90.12 1277.61,-80.64 1296.47,-72.2"/>
<polygon fill="black" stroke="black" points="1298.06,-75.33 1305.74,-68.03 1295.18,-68.94 1298.06,-75.33"/>
</g>
<!-- PJD&#45;03&#45;&gt;NPF&#45;03 -->
<g id="edge10" class="edge">
<title>PJD&#45;03&#45;&gt;NPF&#45;03</title>
<path fill="none" stroke="black" d="M740.5,-438.61C740.5,-404.42 740.5,-344.06 740.5,-305.46"/>
<polygon fill="black" stroke="black" points="744,-305.19 740.5,-295.19 737,-305.19 744,-305.19"/>
</g>
<!-- TA&#45;BEHAVIOURS -->
<g id="node12" class="node">
<title>TA&#45;BEHAVIOURS</title>
<g id="a_node12"><a xlink:href="https://score-json.github.io/nlohmann_json/main/_images/custom_TA-BEHAVIOURS_graph.svg" xlink:title="TA&#45;BEHAVIOURS: Expected\nor required behaviours\nfor nlohmann/json library\nare identified, specified,\nverified and validated\nbased on analysis. " target="_top">
<polygon fill="none" stroke="black" points="842.5,-931 638.5,-931 638.5,-833 842.5,-833 842.5,-931"/>
<text text-anchor="middle" x="740.5" y="-915.8" font-family="Open Sans" font-size="14.00">TA&#45;BEHAVIOURS: Expected</text>
<text text-anchor="middle" x="740.5" y="-900.8" font-family="Open Sans" font-size="14.00">or required behaviours</text>
<text text-anchor="middle" x="740.5" y="-885.8" font-family="Open Sans" font-size="14.00">for nlohmann/json library</text>
<text text-anchor="middle" x="740.5" y="-870.8" font-family="Open Sans" font-size="14.00">are identified, specified,</text>
<text text-anchor="middle" x="740.5" y="-855.8" font-family="Open Sans" font-size="14.00">verified and validated</text>
<text text-anchor="middle" x="740.5" y="-840.8" font-family="Open Sans" font-size="14.00">based on analysis. </text>
</a>
</g>
</g>
<!-- TA&#45;BEHAVIOURS&#45;&gt;JLEX&#45;02 -->
<g id="edge11" class="edge">
<title>TA&#45;BEHAVIOURS&#45;&gt;JLEX&#45;02</title>
<path fill="none" stroke="black" d="M740.5,-833C740.5,-792.58 740.5,-735.67 740.5,-699.18"/>
<polygon fill="black" stroke="black" points="744,-699.01 740.5,-689.01 737,-699.01 744,-699.01"/>
</g>
<!-- TT&#45;EXPECTATIONS&#45;&gt;TA&#45;BEHAVIOURS -->
<g id="edge12" class="edge">
<title>TT&#45;EXPECTATIONS&#45;&gt;TA&#45;BEHAVIOURS</title>
<path fill="none" stroke="black" d="M740.5,-1074.72C740.5,-1036.23 740.5,-982.2 740.5,-941.3"/>
<polygon fill="black" stroke="black" points="744,-941.2 740.5,-931.2 737,-941.2 744,-941.2"/>
</g>
</g>
</svg>
