<?xml version="1.0" encoding="UTF-8" standalone="no"?>
<!DOCTYPE svg PUBLIC "-//W3C//DTD SVG 1.1//EN"
 "http://www.w3.org/Graphics/SVG/1.1/DTD/svg11.dtd">
<!-- Generated by graphviz version 2.43.0 (0)
 -->
<!-- Title: G Pages: 1 -->
<svg width="1985pt" height="1363pt"
 viewBox="0.00 0.00 1984.50 1363.00" xmlns="http://www.w3.org/2000/svg" xmlns:xlink="http://www.w3.org/1999/xlink">
<g id="graph0" class="graph" transform="scale(1 1) rotate(0) translate(4 1359)">
<title>G</title>
<polygon fill="white" stroke="transparent" points="-4,4 -4,-1359 1980.5,-1359 1980.5,4 -4,4"/>
<!-- TRUSTABLE&#45;SOFTWARE -->
<g id="node1" class="node">
<title>TRUSTABLE&#45;SOFTWARE</title>
<g id="a_node1"><a xlink:href="https://score-json.github.io/nlohmann_json/main/_images/custom_TRUSTABLE-SOFTWARE_graph.svg" xlink:title="TRUSTABLE&#45;SOFTWARE: This\nrelease of JSON&#45;Library\nalso reffered in the\ndocumentation as nlohmann/json\nlibrary is Trustable.\n" target="_top">
<polygon fill="none" stroke="black" points="1121,-1355 873,-1355 873,-1272 1121,-1272 1121,-1355"/>
<text text-anchor="middle" x="997" y="-1339.8" font-family="Open Sans" font-size="14.00">TRUSTABLE&#45;SOFTWARE: This</text>
<text text-anchor="middle" x="997" y="-1324.8" font-family="Open Sans" font-size="14.00">release of JSON&#45;Library</text>
<text text-anchor="middle" x="997" y="-1309.8" font-family="Open Sans" font-size="14.00">also reffered in the</text>
<text text-anchor="middle" x="997" y="-1294.8" font-family="Open Sans" font-size="14.00">documentation as nlohmann/json</text>
<text text-anchor="middle" x="997" y="-1279.8" font-family="Open Sans" font-size="14.00">library is Trustable.</text>
</a>
</g>
</g>
<!-- TT&#45;EXPECTATIONS -->
<g id="node14" class="node">
<title>TT&#45;EXPECTATIONS</title>
<g id="a_node14"><a xlink:href="https://score-json.github.io/nlohmann_json/main/_images/custom_TT-EXPECTATIONS_graph.svg" xlink:title="TT&#45;EXPECTATIONS: Documentation\nis provided, specifying\nwhat nlohmann/json library\nis expected to do, and\nwhat it must not do,\nand how this is verified.\n" target="_top">
<polygon fill="none" stroke="black" points="1125.5,-1128 868.5,-1128 868.5,-1030 1125.5,-1030 1125.5,-1128"/>
<text text-anchor="middle" x="997" y="-1112.8" font-family="Open Sans" font-size="14.00">TT&#45;EXPECTATIONS: Documentation</text>
<text text-anchor="middle" x="997" y="-1097.8" font-family="Open Sans" font-size="14.00">is provided, specifying</text>
<text text-anchor="middle" x="997" y="-1082.8" font-family="Open Sans" font-size="14.00">what nlohmann/json library</text>
<text text-anchor="middle" x="997" y="-1067.8" font-family="Open Sans" font-size="14.00">is expected to do, and</text>
<text text-anchor="middle" x="997" y="-1052.8" font-family="Open Sans" font-size="14.00">what it must not do,</text>
<text text-anchor="middle" x="997" y="-1037.8" font-family="Open Sans" font-size="14.00">and how this is verified.</text>
</a>
</g>
</g>
<!-- TRUSTABLE&#45;SOFTWARE&#45;&gt;TT&#45;EXPECTATIONS -->
<g id="edge1" class="edge">
<title>TRUSTABLE&#45;SOFTWARE&#45;&gt;TT&#45;EXPECTATIONS</title>
<path fill="none" stroke="black" d="M997,-1271.74C997,-1234.88 997,-1180.18 997,-1138.63"/>
<polygon fill="black" stroke="black" points="1000.5,-1138.37 997,-1128.37 993.5,-1138.37 1000.5,-1138.37"/>
</g>
<!-- JLEX&#45;01 -->
<g id="node2" class="node">
<title>JLEX&#45;01</title>
<g id="a_node2"><a xlink:href="https://score-json.github.io/nlohmann_json/main/_images/custom_JLEX-01_graph.svg" xlink:title="JLEX&#45;01: The requirement\nregarding [JSON Validation](https://eclipse&#45;score.github.io/score/main/modules/baselibs/json/docs/requirements/index.html#comp_req__json__validation)\nis fulfilled. " target="_top">
<polygon fill="none" stroke="black" points="1534.5,-644 459.5,-644 459.5,-591 1534.5,-591 1534.5,-644"/>
<text text-anchor="middle" x="997" y="-628.8" font-family="Open Sans" font-size="14.00">JLEX&#45;01: The requirement</text>
<text text-anchor="middle" x="997" y="-613.8" font-family="Open Sans" font-size="14.00">regarding [JSON Validation](https://eclipse&#45;score.github.io/score/main/modules/baselibs/json/docs/requirements/index.html#comp_req__json__validation)</text>
<text text-anchor="middle" x="997" y="-598.8" font-family="Open Sans" font-size="14.00">is fulfilled. </text>
</a>
</g>
</g>
<!-- WFJ&#45;02 -->
<g id="node15" class="node">
<title>WFJ&#45;02</title>
<g id="a_node15"><a xlink:href="https://score-json.github.io/nlohmann_json/main/_images/custom_WFJ-02_graph.svg" xlink:title="WFJ&#45;02: The service checks\nthe well&#45;formedness of\nstrings. " target="_top">
<polygon fill="none" stroke="black" points="1100,-447 894,-447 894,-394 1100,-394 1100,-447"/>
<text text-anchor="middle" x="997" y="-431.8" font-family="Open Sans" font-size="14.00">WFJ&#45;02: The service checks</text>
<text text-anchor="middle" x="997" y="-416.8" font-family="Open Sans" font-size="14.00">the well&#45;formedness of</text>
<text text-anchor="middle" x="997" y="-401.8" font-family="Open Sans" font-size="14.00">strings. </text>
</a>
</g>
</g>
<!-- JLEX&#45;01&#45;&gt;WFJ&#45;02 -->
<g id="edge2" class="edge">
<title>JLEX&#45;01&#45;&gt;WFJ&#45;02</title>
<path fill="none" stroke="black" d="M997,-590.61C997,-556.42 997,-496.06 997,-457.46"/>
<polygon fill="black" stroke="black" points="1000.5,-457.19 997,-447.19 993.5,-457.19 1000.5,-457.19"/>
</g>
<!-- NJF&#45;07 -->
<g id="node3" class="node">
<title>NJF&#45;07</title>
<g id="a_node3"><a xlink:href="https://score-json.github.io/nlohmann_json/main/_images/custom_NJF-07_graph.svg" xlink:title="NJF&#45;07: The service accepts\nand rejects strings according\nto RFC8259 ยง7. " target="_top">
<polygon fill="none" stroke="black" points="1106,-250 888,-250 888,-197 1106,-197 1106,-250"/>
<text text-anchor="middle" x="997" y="-234.8" font-family="Open Sans" font-size="14.00">NJF&#45;07: The service accepts</text>
<text text-anchor="middle" x="997" y="-219.8" font-family="Open Sans" font-size="14.00">and rejects strings according</text>
<text text-anchor="middle" x="997" y="-204.8" font-family="Open Sans" font-size="14.00">to RFC8259 ยง7. </text>
</a>
</g>
</g>
<!-- NJF&#45;07.1 -->
<g id="node4" class="node">
<title>NJF&#45;07.1</title>
<g id="a_node4"><a xlink:href="https://score-json.github.io/nlohmann_json/main/generated/NJF.html#njf-07.1" xlink:title="NJF&#45;07.1: The service\ndoes accept empty string.\n" target="_top">
<polygon fill="none" stroke="black" points="198,-45.5 0,-45.5 0,-7.5 198,-7.5 198,-45.5"/>
<text text-anchor="middle" x="99" y="-30.3" font-family="Open Sans" font-size="14.00">NJF&#45;07.1: The service</text>
<text text-anchor="middle" x="99" y="-15.3" font-family="Open Sans" font-size="14.00">does accept empty string.</text>
</a>
</g>
</g>
<!-- NJF&#45;07&#45;&gt;NJF&#45;07.1 -->
<g id="edge3" class="edge">
<title>NJF&#45;07&#45;&gt;NJF&#45;07.1</title>
<path fill="none" stroke="black" d="M887.9,-199.83C735.35,-167.96 449.73,-107.69 207,-53 199.68,-51.35 192.09,-49.61 184.48,-47.85"/>
<polygon fill="black" stroke="black" points="185.02,-44.39 174.49,-45.53 183.43,-51.2 185.02,-44.39"/>
</g>
<!-- NJF&#45;07.2 -->
<g id="node5" class="node">
<title>NJF&#45;07.2</title>
<g id="a_node5"><a xlink:href="https://score-json.github.io/nlohmann_json/main/generated/NJF.html#njf-07.2" xlink:title="NJF&#45;07.2: The service\ndoes not accept the improperly\nbounded strings. " target="_top">
<polygon fill="none" stroke="black" points="449.5,-53 216.5,-53 216.5,0 449.5,0 449.5,-53"/>
<text text-anchor="middle" x="333" y="-37.8" font-family="Open Sans" font-size="14.00">NJF&#45;07.2: The service</text>
<text text-anchor="middle" x="333" y="-22.8" font-family="Open Sans" font-size="14.00">does not accept the improperly</text>
<text text-anchor="middle" x="333" y="-7.8" font-family="Open Sans" font-size="14.00">bounded strings. </text>
</a>
</g>
</g>
<!-- NJF&#45;07&#45;&gt;NJF&#45;07.2 -->
<g id="edge4" class="edge">
<title>NJF&#45;07&#45;&gt;NJF&#45;07.2</title>
<path fill="none" stroke="black" d="M909.85,-196.91C785.8,-160.48 559.07,-93.89 429.89,-55.95"/>
<polygon fill="black" stroke="black" points="430.57,-52.51 419.99,-53.05 428.6,-59.22 430.57,-52.51"/>
</g>
<!-- NJF&#45;07.3 -->
<g id="node6" class="node">
<title>NJF&#45;07.3</title>
<g id="a_node6"><a xlink:href="https://score-json.github.io/nlohmann_json/main/generated/NJF.html#njf-07.3" xlink:title="NJF&#45;07.3: The service\ndoes not accept unescaped\ncontrol characters. " target="_top">
<polygon fill="none" stroke="black" points="674.5,-53 467.5,-53 467.5,0 674.5,0 674.5,-53"/>
<text text-anchor="middle" x="571" y="-37.8" font-family="Open Sans" font-size="14.00">NJF&#45;07.3: The service</text>
<text text-anchor="middle" x="571" y="-22.8" font-family="Open Sans" font-size="14.00">does not accept unescaped</text>
<text text-anchor="middle" x="571" y="-7.8" font-family="Open Sans" font-size="14.00">control characters. </text>
</a>
</g>
</g>
<!-- NJF&#45;07&#45;&gt;NJF&#45;07.3 -->
<g id="edge5" class="edge">
<title>NJF&#45;07&#45;&gt;NJF&#45;07.3</title>
<path fill="none" stroke="black" d="M940.87,-196.81C862.15,-160.77 719.27,-95.37 636.02,-57.26"/>
<polygon fill="black" stroke="black" points="637.47,-54.07 626.92,-53.1 634.55,-60.44 637.47,-54.07"/>
</g>
<!-- NJF&#45;07.4 -->
<g id="node7" class="node">
<title>NJF&#45;07.4</title>
<g id="a_node7"><a xlink:href="https://score-json.github.io/nlohmann_json/main/generated/NJF.html#njf-07.4" xlink:title="NJF&#45;07.4: The service\ndoes accept the escaped\ncontrol characters. " target="_top">
<polygon fill="none" stroke="black" points="881.5,-53 692.5,-53 692.5,0 881.5,0 881.5,-53"/>
<text text-anchor="middle" x="787" y="-37.8" font-family="Open Sans" font-size="14.00">NJF&#45;07.4: The service</text>
<text text-anchor="middle" x="787" y="-22.8" font-family="Open Sans" font-size="14.00">does accept the escaped</text>
<text text-anchor="middle" x="787" y="-7.8" font-family="Open Sans" font-size="14.00">control characters. </text>
</a>
</g>
</g>
<!-- NJF&#45;07&#45;&gt;NJF&#45;07.4 -->
<g id="edge6" class="edge">
<title>NJF&#45;07&#45;&gt;NJF&#45;07.4</title>
<path fill="none" stroke="black" d="M969.11,-196.61C931.2,-161.4 863.38,-98.42 822.06,-60.06"/>
<polygon fill="black" stroke="black" points="824.38,-57.43 814.67,-53.19 819.61,-62.56 824.38,-57.43"/>
</g>
<!-- NJF&#45;07.5 -->
<g id="node8" class="node">
<title>NJF&#45;07.5</title>
<g id="a_node8"><a xlink:href="https://score-json.github.io/nlohmann_json/main/generated/NJF.html#njf-07.5" xlink:title="NJF&#45;07.5: The service\naccepts UTF&#45;16 surrogate\npairs. " target="_top">
<polygon fill="none" stroke="black" points="1094.5,-53 899.5,-53 899.5,0 1094.5,0 1094.5,-53"/>
<text text-anchor="middle" x="997" y="-37.8" font-family="Open Sans" font-size="14.00">NJF&#45;07.5: The service</text>
<text text-anchor="middle" x="997" y="-22.8" font-family="Open Sans" font-size="14.00">accepts UTF&#45;16 surrogate</text>
<text text-anchor="middle" x="997" y="-7.8" font-family="Open Sans" font-size="14.00">pairs. </text>
</a>
</g>
</g>
<!-- NJF&#45;07&#45;&gt;NJF&#45;07.5 -->
<g id="edge7" class="edge">
<title>NJF&#45;07&#45;&gt;NJF&#45;07.5</title>
<path fill="none" stroke="black" d="M997,-196.61C997,-162.42 997,-102.06 997,-63.46"/>
<polygon fill="black" stroke="black" points="1000.5,-63.19 997,-53.19 993.5,-63.19 1000.5,-63.19"/>
</g>
<!-- NJF&#45;07.6 -->
<g id="node9" class="node">
<title>NJF&#45;07.6</title>
<g id="a_node9"><a xlink:href="https://score-json.github.io/nlohmann_json/main/generated/NJF.html#njf-07.6" xlink:title="NJF&#45;07.6: The service\ndoes accept the non&#45;empty\nstrings. " target="_top">
<polygon fill="none" stroke="black" points="1319.5,-53 1112.5,-53 1112.5,0 1319.5,0 1319.5,-53"/>
<text text-anchor="middle" x="1216" y="-37.8" font-family="Open Sans" font-size="14.00">NJF&#45;07.6: The service</text>
<text text-anchor="middle" x="1216" y="-22.8" font-family="Open Sans" font-size="14.00">does accept the non&#45;empty</text>
<text text-anchor="middle" x="1216" y="-7.8" font-family="Open Sans" font-size="14.00">strings. </text>
</a>
</g>
</g>
<!-- NJF&#45;07&#45;&gt;NJF&#45;07.6 -->
<g id="edge9" class="edge">
<title>NJF&#45;07&#45;&gt;NJF&#45;07.6</title>
<path fill="none" stroke="black" d="M1026.08,-196.61C1065.62,-161.4 1136.35,-98.42 1179.44,-60.06"/>
<polygon fill="black" stroke="black" points="1182.01,-62.45 1187.15,-53.19 1177.35,-57.23 1182.01,-62.45"/>
</g>
<!-- NJF&#45;07.7 -->
<g id="node10" class="node">
<title>NJF&#45;07.7</title>
<g id="a_node10"><a xlink:href="https://score-json.github.io/nlohmann_json/main/generated/NJF.html#njf-07.7" xlink:title="NJF&#45;07.7: The service\ndoes not accept escaped\ninvalid characters. " target="_top">
<polygon fill="none" stroke="black" points="1526.5,-53 1337.5,-53 1337.5,0 1526.5,0 1526.5,-53"/>
<text text-anchor="middle" x="1432" y="-37.8" font-family="Open Sans" font-size="14.00">NJF&#45;07.7: The service</text>
<text text-anchor="middle" x="1432" y="-22.8" font-family="Open Sans" font-size="14.00">does not accept escaped</text>
<text text-anchor="middle" x="1432" y="-7.8" font-family="Open Sans" font-size="14.00">invalid characters. </text>
</a>
</g>
</g>
<!-- NJF&#45;07&#45;&gt;NJF&#45;07.7 -->
<g id="edge8" class="edge">
<title>NJF&#45;07&#45;&gt;NJF&#45;07.7</title>
<path fill="none" stroke="black" d="M1054.32,-196.81C1134.7,-160.77 1280.6,-95.37 1365.61,-57.26"/>
<polygon fill="black" stroke="black" points="1367.21,-60.38 1374.9,-53.1 1364.35,-53.99 1367.21,-60.38"/>
</g>
<!-- NJF&#45;07.8 -->
<g id="node11" class="node">
<title>NJF&#45;07.8</title>
<g id="a_node11"><a xlink:href="https://score-json.github.io/nlohmann_json/main/generated/NJF.html#njf-07.8" xlink:title="NJF&#45;07.8: The service\ndoes not accept single\nunpaired utf&#45;16 surrogates.\n" target="_top">
<polygon fill="none" stroke="black" points="1751.5,-53 1544.5,-53 1544.5,0 1751.5,0 1751.5,-53"/>
<text text-anchor="middle" x="1648" y="-37.8" font-family="Open Sans" font-size="14.00">NJF&#45;07.8: The service</text>
<text text-anchor="middle" x="1648" y="-22.8" font-family="Open Sans" font-size="14.00">does not accept single</text>
<text text-anchor="middle" x="1648" y="-7.8" font-family="Open Sans" font-size="14.00">unpaired utf&#45;16 surrogates.</text>
</a>
</g>
</g>
<!-- NJF&#45;07&#45;&gt;NJF&#45;07.8 -->
<g id="edge10" class="edge">
<title>NJF&#45;07&#45;&gt;NJF&#45;07.8</title>
<path fill="none" stroke="black" d="M1082.44,-196.91C1204.06,-160.48 1426.36,-93.89 1553.01,-55.95"/>
<polygon fill="black" stroke="black" points="1554.14,-59.27 1562.71,-53.05 1552.13,-52.56 1554.14,-59.27"/>
</g>
<!-- NJF&#45;07.9 -->
<g id="node12" class="node">
<title>NJF&#45;07.9</title>
<g id="a_node12"><a xlink:href="https://score-json.github.io/nlohmann_json/main/generated/NJF.html#njf-07.9" xlink:title="NJF&#45;07.9: The service\ndoes not accept unescaped\nUTF&#45;16 surrogate pairs.\n" target="_top">
<polygon fill="none" stroke="black" points="1976.5,-53 1769.5,-53 1769.5,0 1976.5,0 1976.5,-53"/>
<text text-anchor="middle" x="1873" y="-37.8" font-family="Open Sans" font-size="14.00">NJF&#45;07.9: The service</text>
<text text-anchor="middle" x="1873" y="-22.8" font-family="Open Sans" font-size="14.00">does not accept unescaped</text>
<text text-anchor="middle" x="1873" y="-7.8" font-family="Open Sans" font-size="14.00">UTF&#45;16 surrogate pairs.</text>
</a>
</g>
</g>
<!-- NJF&#45;07&#45;&gt;NJF&#45;07.9 -->
<g id="edge11" class="edge">
<title>NJF&#45;07&#45;&gt;NJF&#45;07.9</title>
<path fill="none" stroke="black" d="M1106.16,-198.48C1252.44,-166.25 1520.41,-107.05 1759.35,-53.37"/>
<polygon fill="black" stroke="black" points="1760.28,-56.75 1769.27,-51.14 1758.75,-49.92 1760.28,-56.75"/>
</g>
<!-- TA&#45;BEHAVIOURS -->
<g id="node13" class="node">
<title>TA&#45;BEHAVIOURS</title>
<g id="a_node13"><a xlink:href="https://score-json.github.io/nlohmann_json/main/_images/custom_TA-BEHAVIOURS_graph.svg" xlink:title="TA&#45;BEHAVIOURS: Expected\nor required behaviours\nfor nlohmann/json library\nare identified, specified,\nverified and validated\nbased on analysis. " target="_top">
<polygon fill="none" stroke="black" points="1099,-886 895,-886 895,-788 1099,-788 1099,-886"/>
<text text-anchor="middle" x="997" y="-870.8" font-family="Open Sans" font-size="14.00">TA&#45;BEHAVIOURS: Expected</text>
<text text-anchor="middle" x="997" y="-855.8" font-family="Open Sans" font-size="14.00">or required behaviours</text>
<text text-anchor="middle" x="997" y="-840.8" font-family="Open Sans" font-size="14.00">for nlohmann/json library</text>
<text text-anchor="middle" x="997" y="-825.8" font-family="Open Sans" font-size="14.00">are identified, specified,</text>
<text text-anchor="middle" x="997" y="-810.8" font-family="Open Sans" font-size="14.00">verified and validated</text>
<text text-anchor="middle" x="997" y="-795.8" font-family="Open Sans" font-size="14.00">based on analysis. </text>
</a>
</g>
</g>
<!-- TA&#45;BEHAVIOURS&#45;&gt;JLEX&#45;01 -->
<g id="edge12" class="edge">
<title>TA&#45;BEHAVIOURS&#45;&gt;JLEX&#45;01</title>
<path fill="none" stroke="black" d="M997,-788C997,-747.58 997,-690.67 997,-654.18"/>
<polygon fill="black" stroke="black" points="1000.5,-654.01 997,-644.01 993.5,-654.01 1000.5,-654.01"/>
</g>
<!-- TT&#45;EXPECTATIONS&#45;&gt;TA&#45;BEHAVIOURS -->
<g id="edge13" class="edge">
<title>TT&#45;EXPECTATIONS&#45;&gt;TA&#45;BEHAVIOURS</title>
<path fill="none" stroke="black" d="M997,-1029.72C997,-991.23 997,-937.2 997,-896.3"/>
<polygon fill="black" stroke="black" points="1000.5,-896.2 997,-886.2 993.5,-896.2 1000.5,-896.2"/>
</g>
<!-- WFJ&#45;02&#45;&gt;NJF&#45;07 -->
<g id="edge14" class="edge">
<title>WFJ&#45;02&#45;&gt;NJF&#45;07</title>
<path fill="none" stroke="black" d="M997,-393.61C997,-359.42 997,-299.06 997,-260.46"/>
<polygon fill="black" stroke="black" points="1000.5,-260.19 997,-250.19 993.5,-260.19 1000.5,-260.19"/>
</g>
</g>
</svg>
