<?xml version="1.0" encoding="UTF-8" standalone="no"?>
<!DOCTYPE svg PUBLIC "-//W3C//DTD SVG 1.1//EN"
 "http://www.w3.org/Graphics/SVG/1.1/DTD/svg11.dtd">
<!-- Generated by graphviz version 2.43.0 (0)
 -->
<!-- Title: G Pages: 1 -->
<svg width="695pt" height="363pt"
 viewBox="0.00 0.00 695.00 363.00" xmlns="http://www.w3.org/2000/svg" xmlns:xlink="http://www.w3.org/1999/xlink">
<g id="graph0" class="graph" transform="scale(1 1) rotate(0) translate(4 359)">
<title>G</title>
<polygon fill="white" stroke="transparent" points="-4,4 -4,-359 691,-359 691,4 -4,4"/>
<!-- WFJ&#45;09 -->
<g id="node1" class="node">
<title>WFJ&#45;09</title>
<g id="a_node1"><a xlink:href="https://score-json.github.io/nlohmann_json/main/_images/custom_WFJ-09_graph.svg" xlink:title="WFJ&#45;09: The service provided\nby the nlohmann/json\nlibrary accepts exactly\nthe six JSON structural\ncharacters and insignificant\nleading and trailing\nwhitespace permitted\nby RFC8259. " target="_top">
<polygon fill="none" stroke="black" points="453,-355 234,-355 234,-227 453,-227 453,-355"/>
<text text-anchor="middle" x="343.5" y="-339.8" font-family="Open Sans" font-size="14.00">WFJ&#45;09: The service provided</text>
<text text-anchor="middle" x="343.5" y="-324.8" font-family="Open Sans" font-size="14.00">by the nlohmann/json</text>
<text text-anchor="middle" x="343.5" y="-309.8" font-family="Open Sans" font-size="14.00">library accepts exactly</text>
<text text-anchor="middle" x="343.5" y="-294.8" font-family="Open Sans" font-size="14.00">the six JSON structural</text>
<text text-anchor="middle" x="343.5" y="-279.8" font-family="Open Sans" font-size="14.00">characters and insignificant</text>
<text text-anchor="middle" x="343.5" y="-264.8" font-family="Open Sans" font-size="14.00">leading and trailing</text>
<text text-anchor="middle" x="343.5" y="-249.8" font-family="Open Sans" font-size="14.00">whitespace permitted</text>
<text text-anchor="middle" x="343.5" y="-234.8" font-family="Open Sans" font-size="14.00">by RFC8259. </text>
</a>
</g>
</g>
<!-- NJF&#45;09 -->
<g id="node2" class="node">
<title>NJF&#45;09</title>
<g id="a_node2"><a xlink:href="https://score-json.github.io/nlohmann_json/main/generated/NJF.html#njf-09" xlink:title="NJF&#45;09: The service provided\nby the nlohmann/json\nlibrary does accept the\nsix structural characters.\n" target="_top">
<polygon fill="none" stroke="black" points="217,-75.5 0,-75.5 0,-7.5 217,-7.5 217,-75.5"/>
<text text-anchor="middle" x="108.5" y="-60.3" font-family="Open Sans" font-size="14.00">NJF&#45;09: The service provided</text>
<text text-anchor="middle" x="108.5" y="-45.3" font-family="Open Sans" font-size="14.00">by the nlohmann/json</text>
<text text-anchor="middle" x="108.5" y="-30.3" font-family="Open Sans" font-size="14.00">library does accept the</text>
<text text-anchor="middle" x="108.5" y="-15.3" font-family="Open Sans" font-size="14.00">six structural characters.</text>
</a>
</g>
</g>
<!-- WFJ&#45;09&#45;&gt;NJF&#45;09 -->
<g id="edge1" class="edge">
<title>WFJ&#45;09&#45;&gt;NJF&#45;09</title>
<path fill="none" stroke="black" d="M283.59,-226.9C240.76,-181.79 184.35,-122.39 147.29,-83.36"/>
<polygon fill="black" stroke="black" points="149.57,-80.67 140.15,-75.83 144.49,-85.49 149.57,-80.67"/>
</g>
<!-- NJF&#45;10 -->
<g id="node3" class="node">
<title>NJF&#45;10</title>
<g id="a_node3"><a xlink:href="https://score-json.github.io/nlohmann_json/main/generated/NJF.html#njf-10" xlink:title="NJF&#45;10: The service provided\nby the nlohmann/json\nlibrary does not accept\nany other structural\ncharacters. " target="_top">
<polygon fill="none" stroke="black" points="452,-83 235,-83 235,0 452,0 452,-83"/>
<text text-anchor="middle" x="343.5" y="-67.8" font-family="Open Sans" font-size="14.00">NJF&#45;10: The service provided</text>
<text text-anchor="middle" x="343.5" y="-52.8" font-family="Open Sans" font-size="14.00">by the nlohmann/json</text>
<text text-anchor="middle" x="343.5" y="-37.8" font-family="Open Sans" font-size="14.00">library does not accept</text>
<text text-anchor="middle" x="343.5" y="-22.8" font-family="Open Sans" font-size="14.00">any other structural</text>
<text text-anchor="middle" x="343.5" y="-7.8" font-family="Open Sans" font-size="14.00">characters. </text>
</a>
</g>
</g>
<!-- WFJ&#45;09&#45;&gt;NJF&#45;10 -->
<g id="edge2" class="edge">
<title>WFJ&#45;09&#45;&gt;NJF&#45;10</title>
<path fill="none" stroke="black" d="M343.5,-226.9C343.5,-185.67 343.5,-132.49 343.5,-93.85"/>
<polygon fill="black" stroke="black" points="347,-93.36 343.5,-83.36 340,-93.36 347,-93.36"/>
</g>
<!-- NJF&#45;11 -->
<g id="node4" class="node">
<title>NJF&#45;11</title>
<g id="a_node4"><a xlink:href="https://score-json.github.io/nlohmann_json/main/generated/NJF.html#njf-11" xlink:title="NJF&#45;11: The service provided\nby the nlohmann/json\nlibrary accepts leading\nand closing whitespaces.\n" target="_top">
<polygon fill="none" stroke="black" points="687,-75.5 470,-75.5 470,-7.5 687,-7.5 687,-75.5"/>
<text text-anchor="middle" x="578.5" y="-60.3" font-family="Open Sans" font-size="14.00">NJF&#45;11: The service provided</text>
<text text-anchor="middle" x="578.5" y="-45.3" font-family="Open Sans" font-size="14.00">by the nlohmann/json</text>
<text text-anchor="middle" x="578.5" y="-30.3" font-family="Open Sans" font-size="14.00">library accepts leading</text>
<text text-anchor="middle" x="578.5" y="-15.3" font-family="Open Sans" font-size="14.00">and closing whitespaces.</text>
</a>
</g>
</g>
<!-- WFJ&#45;09&#45;&gt;NJF&#45;11 -->
<g id="edge3" class="edge">
<title>WFJ&#45;09&#45;&gt;NJF&#45;11</title>
<path fill="none" stroke="black" d="M403.41,-226.9C446.24,-181.79 502.65,-122.39 539.71,-83.36"/>
<polygon fill="black" stroke="black" points="542.51,-85.49 546.85,-75.83 537.43,-80.67 542.51,-85.49"/>
</g>
</g>
</svg>
