<?xml version="1.0" encoding="UTF-8" standalone="no"?>
<!DOCTYPE svg PUBLIC "-//W3C//DTD SVG 1.1//EN"
 "http://www.w3.org/Graphics/SVG/1.1/DTD/svg11.dtd">
<!-- Generated by graphviz version 2.43.0 (0)
 -->
<!-- Title: G Pages: 1 -->
<svg width="1725pt" height="1044pt"
 viewBox="0.00 0.00 1725.00 1044.00" xmlns="http://www.w3.org/2000/svg" xmlns:xlink="http://www.w3.org/1999/xlink">
<g id="graph0" class="graph" transform="scale(1 1) rotate(0) translate(4 1040)">
<title>G</title>
<polygon fill="white" stroke="transparent" points="-4,4 -4,-1040 1721,-1040 1721,4 -4,4"/>
<!-- TRUSTABLE&#45;SOFTWARE -->
<g id="node1" class="node">
<title>TRUSTABLE&#45;SOFTWARE</title>
<g id="a_node1"><a xlink:href="https://score-json.github.io/nlohmann_json/main/_images/custom_TRUSTABLE-SOFTWARE_graph.svg" xlink:title="TRUSTABLE&#45;SOFTWARE: This\nrelease of JSON&#45;Library\nalso referred in the\ndocumentation as nlohmann/json\nlibrary is Trustable.\n" target="_top">
<polygon fill="none" stroke="black" points="993.5,-1036 745.5,-1036 745.5,-953 993.5,-953 993.5,-1036"/>
<text text-anchor="middle" x="869.5" y="-1020.8" font-family="Open Sans" font-size="14.00">TRUSTABLE&#45;SOFTWARE: This</text>
<text text-anchor="middle" x="869.5" y="-1005.8" font-family="Open Sans" font-size="14.00">release of JSON&#45;Library</text>
<text text-anchor="middle" x="869.5" y="-990.8" font-family="Open Sans" font-size="14.00">also referred in the</text>
<text text-anchor="middle" x="869.5" y="-975.8" font-family="Open Sans" font-size="14.00">documentation as nlohmann/json</text>
<text text-anchor="middle" x="869.5" y="-960.8" font-family="Open Sans" font-size="14.00">library is Trustable.</text>
</a>
</g>
</g>
<!-- TT&#45;EXPECTATIONS -->
<g id="node11" class="node">
<title>TT&#45;EXPECTATIONS</title>
<g id="a_node11"><a xlink:href="https://score-json.github.io/nlohmann_json/main/_images/custom_TT-EXPECTATIONS_graph.svg" xlink:title="TT&#45;EXPECTATIONS: Documentation\nis provided within eclipse&#45;score/inc_nlohmann_json,\nspecifying what the nlohmann/json\nlibrary is expected to\ndo, and what it must\nnot do, and how this\nis verified. " target="_top">
<polygon fill="none" stroke="black" points="1057,-809 682,-809 682,-696 1057,-696 1057,-809"/>
<text text-anchor="middle" x="869.5" y="-793.8" font-family="Open Sans" font-size="14.00">TT&#45;EXPECTATIONS: Documentation</text>
<text text-anchor="middle" x="869.5" y="-778.8" font-family="Open Sans" font-size="14.00">is provided within eclipse&#45;score/inc_nlohmann_json,</text>
<text text-anchor="middle" x="869.5" y="-763.8" font-family="Open Sans" font-size="14.00">specifying what the nlohmann/json</text>
<text text-anchor="middle" x="869.5" y="-748.8" font-family="Open Sans" font-size="14.00">library is expected to</text>
<text text-anchor="middle" x="869.5" y="-733.8" font-family="Open Sans" font-size="14.00">do, and what it must</text>
<text text-anchor="middle" x="869.5" y="-718.8" font-family="Open Sans" font-size="14.00">not do, and how this</text>
<text text-anchor="middle" x="869.5" y="-703.8" font-family="Open Sans" font-size="14.00">is verified. </text>
</a>
</g>
</g>
<!-- TRUSTABLE&#45;SOFTWARE&#45;&gt;TT&#45;EXPECTATIONS -->
<g id="edge1" class="edge">
<title>TRUSTABLE&#45;SOFTWARE&#45;&gt;TT&#45;EXPECTATIONS</title>
<path fill="none" stroke="black" d="M869.5,-952.79C869.5,-916.26 869.5,-862 869.5,-819.32"/>
<polygon fill="black" stroke="black" points="873,-819.29 869.5,-809.29 866,-819.29 873,-819.29"/>
</g>
<!-- JLS&#45;24 -->
<g id="node2" class="node">
<title>JLS&#45;24</title>
<g id="a_node2"><a xlink:href="https://score-json.github.io/nlohmann_json/main/_images/custom_JLS-24_graph.svg" xlink:title="JLS&#45;24: The nlohmann/json\nlibrary recognizes malformed\nJSON and returns an exception\nor a discarded value.\n" target="_top">
<polygon fill="none" stroke="black" points="984.5,-295 754.5,-295 754.5,-227 984.5,-227 984.5,-295"/>
<text text-anchor="middle" x="869.5" y="-279.8" font-family="Open Sans" font-size="14.00">JLS&#45;24: The nlohmann/json</text>
<text text-anchor="middle" x="869.5" y="-264.8" font-family="Open Sans" font-size="14.00">library recognizes malformed</text>
<text text-anchor="middle" x="869.5" y="-249.8" font-family="Open Sans" font-size="14.00">JSON and returns an exception</text>
<text text-anchor="middle" x="869.5" y="-234.8" font-family="Open Sans" font-size="14.00">or a discarded value.</text>
</a>
</g>
</g>
<!-- NPF&#45;07.2 -->
<g id="node3" class="node">
<title>NPF&#45;07.2</title>
<g id="a_node3"><a xlink:href="https://score-json.github.io/nlohmann_json/main/generated/NPF.html#npf-07.2" xlink:title="NPF&#45;07.2: The service\nprovided by the nlohmann/json\nlibrary throws an exception\non ill&#45;formed UTF&#45;8 data.\n" target="_top">
<polygon fill="none" stroke="black" points="233,-75.5 0,-75.5 0,-7.5 233,-7.5 233,-75.5"/>
<text text-anchor="middle" x="116.5" y="-60.3" font-family="Open Sans" font-size="14.00">NPF&#45;07.2: The service</text>
<text text-anchor="middle" x="116.5" y="-45.3" font-family="Open Sans" font-size="14.00">provided by the nlohmann/json</text>
<text text-anchor="middle" x="116.5" y="-30.3" font-family="Open Sans" font-size="14.00">library throws an exception</text>
<text text-anchor="middle" x="116.5" y="-15.3" font-family="Open Sans" font-size="14.00">on ill&#45;formed UTF&#45;8 data.</text>
</a>
</g>
</g>
<!-- JLS&#45;24&#45;&gt;NPF&#45;07.2 -->
<g id="edge2" class="edge">
<title>JLS&#45;24&#45;&gt;NPF&#45;07.2</title>
<path fill="none" stroke="black" d="M754.23,-228.95C627.97,-194.6 419.71,-136.96 241.5,-83 236.83,-81.59 232.07,-80.13 227.27,-78.64"/>
<polygon fill="black" stroke="black" points="227.95,-75.19 217.37,-75.55 225.87,-81.87 227.95,-75.19"/>
</g>
<!-- TIJ&#45;01 -->
<g id="node5" class="node">
<title>TIJ&#45;01</title>
<g id="a_node5"><a xlink:href="https://score-json.github.io/nlohmann_json/main/_images/custom_TIJ-01_graph.svg" xlink:title="TIJ&#45;01: The parsing service\nprovided by the nlohmann/json\nlibrary throws an exception\non ill&#45;formed literal\nnames. " target="_top">
<polygon fill="none" stroke="black" points="484,-83 251,-83 251,0 484,0 484,-83"/>
<text text-anchor="middle" x="367.5" y="-67.8" font-family="Open Sans" font-size="14.00">TIJ&#45;01: The parsing service</text>
<text text-anchor="middle" x="367.5" y="-52.8" font-family="Open Sans" font-size="14.00">provided by the nlohmann/json</text>
<text text-anchor="middle" x="367.5" y="-37.8" font-family="Open Sans" font-size="14.00">library throws an exception</text>
<text text-anchor="middle" x="367.5" y="-22.8" font-family="Open Sans" font-size="14.00">on ill&#45;formed literal</text>
<text text-anchor="middle" x="367.5" y="-7.8" font-family="Open Sans" font-size="14.00">names. </text>
</a>
</g>
</g>
<!-- JLS&#45;24&#45;&gt;TIJ&#45;01 -->
<g id="edge3" class="edge">
<title>JLS&#45;24&#45;&gt;TIJ&#45;01</title>
<path fill="none" stroke="black" d="M793.26,-226.97C707.12,-189.65 566.47,-128.71 470.59,-87.17"/>
<polygon fill="black" stroke="black" points="471.73,-83.85 461.17,-83.08 468.95,-90.27 471.73,-83.85"/>
</g>
<!-- TIJ&#45;02 -->
<g id="node6" class="node">
<title>TIJ&#45;02</title>
<g id="a_node6"><a xlink:href="https://score-json.github.io/nlohmann_json/main/_images/custom_TIJ-02_graph.svg" xlink:title="TIJ&#45;02: The parsing service\nprovided by the nlohmann/json\nlibrary throws an exception\non ill&#45;formed numbers.\n" target="_top">
<polygon fill="none" stroke="black" points="735,-75.5 502,-75.5 502,-7.5 735,-7.5 735,-75.5"/>
<text text-anchor="middle" x="618.5" y="-60.3" font-family="Open Sans" font-size="14.00">TIJ&#45;02: The parsing service</text>
<text text-anchor="middle" x="618.5" y="-45.3" font-family="Open Sans" font-size="14.00">provided by the nlohmann/json</text>
<text text-anchor="middle" x="618.5" y="-30.3" font-family="Open Sans" font-size="14.00">library throws an exception</text>
<text text-anchor="middle" x="618.5" y="-15.3" font-family="Open Sans" font-size="14.00">on ill&#45;formed numbers.</text>
</a>
</g>
</g>
<!-- JLS&#45;24&#45;&gt;TIJ&#45;02 -->
<g id="edge4" class="edge">
<title>JLS&#45;24&#45;&gt;TIJ&#45;02</title>
<path fill="none" stroke="black" d="M831.38,-226.97C786.69,-188.24 712.66,-124.09 664.73,-82.56"/>
<polygon fill="black" stroke="black" points="666.83,-79.75 656.98,-75.84 662.25,-85.04 666.83,-79.75"/>
</g>
<!-- TIJ&#45;03 -->
<g id="node7" class="node">
<title>TIJ&#45;03</title>
<g id="a_node7"><a xlink:href="https://score-json.github.io/nlohmann_json/main/_images/custom_TIJ-03_graph.svg" xlink:title="TIJ&#45;03: The parsing service\nprovided by the nlohmann/json\nlibrary throws an exception\non ill&#45;formed strings.\n" target="_top">
<polygon fill="none" stroke="black" points="986,-75.5 753,-75.5 753,-7.5 986,-7.5 986,-75.5"/>
<text text-anchor="middle" x="869.5" y="-60.3" font-family="Open Sans" font-size="14.00">TIJ&#45;03: The parsing service</text>
<text text-anchor="middle" x="869.5" y="-45.3" font-family="Open Sans" font-size="14.00">provided by the nlohmann/json</text>
<text text-anchor="middle" x="869.5" y="-30.3" font-family="Open Sans" font-size="14.00">library throws an exception</text>
<text text-anchor="middle" x="869.5" y="-15.3" font-family="Open Sans" font-size="14.00">on ill&#45;formed strings.</text>
</a>
</g>
</g>
<!-- JLS&#45;24&#45;&gt;TIJ&#45;03 -->
<g id="edge5" class="edge">
<title>JLS&#45;24&#45;&gt;TIJ&#45;03</title>
<path fill="none" stroke="black" d="M869.5,-226.97C869.5,-189.28 869.5,-127.51 869.5,-85.95"/>
<polygon fill="black" stroke="black" points="873,-85.84 869.5,-75.84 866,-85.84 873,-85.84"/>
</g>
<!-- TIJ&#45;04 -->
<g id="node8" class="node">
<title>TIJ&#45;04</title>
<g id="a_node8"><a xlink:href="https://score-json.github.io/nlohmann_json/main/_images/custom_TIJ-04_graph.svg" xlink:title="TIJ&#45;04: The parsing service\nprovided by the nlohmann/json\nlibrary throws an exception\non ill&#45;formed arrays.\n" target="_top">
<polygon fill="none" stroke="black" points="1237,-75.5 1004,-75.5 1004,-7.5 1237,-7.5 1237,-75.5"/>
<text text-anchor="middle" x="1120.5" y="-60.3" font-family="Open Sans" font-size="14.00">TIJ&#45;04: The parsing service</text>
<text text-anchor="middle" x="1120.5" y="-45.3" font-family="Open Sans" font-size="14.00">provided by the nlohmann/json</text>
<text text-anchor="middle" x="1120.5" y="-30.3" font-family="Open Sans" font-size="14.00">library throws an exception</text>
<text text-anchor="middle" x="1120.5" y="-15.3" font-family="Open Sans" font-size="14.00">on ill&#45;formed arrays.</text>
</a>
</g>
</g>
<!-- JLS&#45;24&#45;&gt;TIJ&#45;04 -->
<g id="edge6" class="edge">
<title>JLS&#45;24&#45;&gt;TIJ&#45;04</title>
<path fill="none" stroke="black" d="M907.62,-226.97C952.31,-188.24 1026.34,-124.09 1074.27,-82.56"/>
<polygon fill="black" stroke="black" points="1076.75,-85.04 1082.02,-75.84 1072.17,-79.75 1076.75,-85.04"/>
</g>
<!-- TIJ&#45;05 -->
<g id="node9" class="node">
<title>TIJ&#45;05</title>
<g id="a_node9"><a xlink:href="https://score-json.github.io/nlohmann_json/main/_images/custom_TIJ-05_graph.svg" xlink:title="TIJ&#45;05: The parsing service\nprovided by the nlohmann/json\nlibrary throws an exception\non ill&#45;formed objects.\n" target="_top">
<polygon fill="none" stroke="black" points="1488,-75.5 1255,-75.5 1255,-7.5 1488,-7.5 1488,-75.5"/>
<text text-anchor="middle" x="1371.5" y="-60.3" font-family="Open Sans" font-size="14.00">TIJ&#45;05: The parsing service</text>
<text text-anchor="middle" x="1371.5" y="-45.3" font-family="Open Sans" font-size="14.00">provided by the nlohmann/json</text>
<text text-anchor="middle" x="1371.5" y="-30.3" font-family="Open Sans" font-size="14.00">library throws an exception</text>
<text text-anchor="middle" x="1371.5" y="-15.3" font-family="Open Sans" font-size="14.00">on ill&#45;formed objects.</text>
</a>
</g>
</g>
<!-- JLS&#45;24&#45;&gt;TIJ&#45;05 -->
<g id="edge7" class="edge">
<title>JLS&#45;24&#45;&gt;TIJ&#45;05</title>
<path fill="none" stroke="black" d="M945.74,-226.97C1037.19,-187.35 1190.07,-121.11 1285.6,-79.72"/>
<polygon fill="black" stroke="black" points="1287.17,-82.85 1294.95,-75.67 1284.38,-76.43 1287.17,-82.85"/>
</g>
<!-- TIJ&#45;06 -->
<g id="node10" class="node">
<title>TIJ&#45;06</title>
<g id="a_node10"><a xlink:href="https://score-json.github.io/nlohmann_json/main/_images/custom_TIJ-06_graph.svg" xlink:title="TIJ&#45;06: The service provided\nby the nlohmann/json\nlibrary recognises ill&#45;formed\nbyte&#45;order marks and\nthrows an exception.\n" target="_top">
<polygon fill="none" stroke="black" points="1717,-83 1506,-83 1506,0 1717,0 1717,-83"/>
<text text-anchor="middle" x="1611.5" y="-67.8" font-family="Open Sans" font-size="14.00">TIJ&#45;06: The service provided</text>
<text text-anchor="middle" x="1611.5" y="-52.8" font-family="Open Sans" font-size="14.00">by the nlohmann/json</text>
<text text-anchor="middle" x="1611.5" y="-37.8" font-family="Open Sans" font-size="14.00">library recognises ill&#45;formed</text>
<text text-anchor="middle" x="1611.5" y="-22.8" font-family="Open Sans" font-size="14.00">byte&#45;order marks and</text>
<text text-anchor="middle" x="1611.5" y="-7.8" font-family="Open Sans" font-size="14.00">throws an exception.</text>
</a>
</g>
</g>
<!-- JLS&#45;24&#45;&gt;TIJ&#45;06 -->
<g id="edge8" class="edge">
<title>JLS&#45;24&#45;&gt;TIJ&#45;06</title>
<path fill="none" stroke="black" d="M984.78,-229.98C1109.1,-197.04 1312.82,-141.44 1496.44,-83.29"/>
<polygon fill="black" stroke="black" points="1497.53,-86.62 1506,-80.26 1495.41,-79.95 1497.53,-86.62"/>
</g>
<!-- TA&#45;MISBEHAVIOURS -->
<g id="node4" class="node">
<title>TA&#45;MISBEHAVIOURS</title>
<g id="a_node4"><a xlink:href="https://score-json.github.io/nlohmann_json/main/_images/custom_TA-MISBEHAVIOURS_graph.svg" xlink:title="TA&#45;MISBEHAVIOURS: Prohibited\nmisbehaviours for the\nnlohmann/json library\nare identified, and mitigations\nare specified, verified\nand validated based on\nanalysis. " target="_top">
<polygon fill="none" stroke="black" points="987.5,-552 751.5,-552 751.5,-439 987.5,-439 987.5,-552"/>
<text text-anchor="middle" x="869.5" y="-536.8" font-family="Open Sans" font-size="14.00">TA&#45;MISBEHAVIOURS: Prohibited</text>
<text text-anchor="middle" x="869.5" y="-521.8" font-family="Open Sans" font-size="14.00">misbehaviours for the</text>
<text text-anchor="middle" x="869.5" y="-506.8" font-family="Open Sans" font-size="14.00">nlohmann/json library</text>
<text text-anchor="middle" x="869.5" y="-491.8" font-family="Open Sans" font-size="14.00">are identified, and mitigations</text>
<text text-anchor="middle" x="869.5" y="-476.8" font-family="Open Sans" font-size="14.00">are specified, verified</text>
<text text-anchor="middle" x="869.5" y="-461.8" font-family="Open Sans" font-size="14.00">and validated based on</text>
<text text-anchor="middle" x="869.5" y="-446.8" font-family="Open Sans" font-size="14.00">analysis. </text>
</a>
</g>
</g>
<!-- TA&#45;MISBEHAVIOURS&#45;&gt;JLS&#45;24 -->
<g id="edge9" class="edge">
<title>TA&#45;MISBEHAVIOURS&#45;&gt;JLS&#45;24</title>
<path fill="none" stroke="black" d="M869.5,-438.81C869.5,-397.92 869.5,-343.16 869.5,-305.47"/>
<polygon fill="black" stroke="black" points="873,-305.32 869.5,-295.32 866,-305.32 873,-305.32"/>
</g>
<!-- TT&#45;EXPECTATIONS&#45;&gt;TA&#45;MISBEHAVIOURS -->
<g id="edge10" class="edge">
<title>TT&#45;EXPECTATIONS&#45;&gt;TA&#45;MISBEHAVIOURS</title>
<path fill="none" stroke="black" d="M869.5,-695.85C869.5,-656.46 869.5,-603.47 869.5,-562.03"/>
<polygon fill="black" stroke="black" points="873,-562.03 869.5,-552.03 866,-562.03 873,-562.03"/>
</g>
</g>
</svg>
