<?xml version="1.0" encoding="UTF-8" standalone="no"?>
<!DOCTYPE svg PUBLIC "-//W3C//DTD SVG 1.1//EN"
 "http://www.w3.org/Graphics/SVG/1.1/DTD/svg11.dtd">
<!-- Generated by graphviz version 2.43.0 (0)
 -->
<!-- Title: G Pages: 1 -->
<svg width="1083pt" height="1166pt"
 viewBox="0.00 0.00 1083.00 1166.00" xmlns="http://www.w3.org/2000/svg" xmlns:xlink="http://www.w3.org/1999/xlink">
<g id="graph0" class="graph" transform="scale(1 1) rotate(0) translate(4 1162)">
<title>G</title>
<polygon fill="white" stroke="transparent" points="-4,4 -4,-1162 1079,-1162 1079,4 -4,4"/>
<!-- TRUSTABLE&#45;SOFTWARE -->
<g id="node1" class="node">
<title>TRUSTABLE&#45;SOFTWARE</title>
<g id="a_node1"><a xlink:href="https://score-json.github.io/nlohmann_json/main/_images/custom_TRUSTABLE-SOFTWARE_graph.svg" xlink:title="TRUSTABLE&#45;SOFTWARE: This\nrelease of JSON&#45;Library\nalso reffered in the\ndocumentation as nlohmann/json\nlibrary is Trustable.\n" target="_top">
<polygon fill="none" stroke="black" points="661.5,-1158 413.5,-1158 413.5,-1075 661.5,-1075 661.5,-1158"/>
<text text-anchor="middle" x="537.5" y="-1142.8" font-family="Open Sans" font-size="14.00">TRUSTABLE&#45;SOFTWARE: This</text>
<text text-anchor="middle" x="537.5" y="-1127.8" font-family="Open Sans" font-size="14.00">release of JSON&#45;Library</text>
<text text-anchor="middle" x="537.5" y="-1112.8" font-family="Open Sans" font-size="14.00">also reffered in the</text>
<text text-anchor="middle" x="537.5" y="-1097.8" font-family="Open Sans" font-size="14.00">documentation as nlohmann/json</text>
<text text-anchor="middle" x="537.5" y="-1082.8" font-family="Open Sans" font-size="14.00">library is Trustable.</text>
</a>
</g>
</g>
<!-- TT&#45;EXPECTATIONS -->
<g id="node8" class="node">
<title>TT&#45;EXPECTATIONS</title>
<g id="a_node8"><a xlink:href="https://score-json.github.io/nlohmann_json/main/_images/custom_TT-EXPECTATIONS_graph.svg" xlink:title="TT&#45;EXPECTATIONS: Documentation\nis provided, specifying\nwhat nlohmann/json library\nis expected to do, and\nwhat it must not do,\nand how this is verified.\n" target="_top">
<polygon fill="none" stroke="black" points="666,-931 409,-931 409,-833 666,-833 666,-931"/>
<text text-anchor="middle" x="537.5" y="-915.8" font-family="Open Sans" font-size="14.00">TT&#45;EXPECTATIONS: Documentation</text>
<text text-anchor="middle" x="537.5" y="-900.8" font-family="Open Sans" font-size="14.00">is provided, specifying</text>
<text text-anchor="middle" x="537.5" y="-885.8" font-family="Open Sans" font-size="14.00">what nlohmann/json library</text>
<text text-anchor="middle" x="537.5" y="-870.8" font-family="Open Sans" font-size="14.00">is expected to do, and</text>
<text text-anchor="middle" x="537.5" y="-855.8" font-family="Open Sans" font-size="14.00">what it must not do,</text>
<text text-anchor="middle" x="537.5" y="-840.8" font-family="Open Sans" font-size="14.00">and how this is verified.</text>
</a>
</g>
</g>
<!-- TRUSTABLE&#45;SOFTWARE&#45;&gt;TT&#45;EXPECTATIONS -->
<g id="edge1" class="edge">
<title>TRUSTABLE&#45;SOFTWARE&#45;&gt;TT&#45;EXPECTATIONS</title>
<path fill="none" stroke="black" d="M537.5,-1074.74C537.5,-1037.88 537.5,-983.18 537.5,-941.63"/>
<polygon fill="black" stroke="black" points="541,-941.37 537.5,-931.37 534,-941.37 541,-941.37"/>
</g>
<!-- JLEX&#45;01 -->
<g id="node2" class="node">
<title>JLEX&#45;01</title>
<g id="a_node2"><a xlink:href="https://score-json.github.io/nlohmann_json/main/_images/custom_JLEX-01_graph.svg" xlink:title="JLEX&#45;01: The requirement\nregarding [JSON Validation](https://eclipse&#45;score.github.io/score/main/modules/baselibs/json/docs/requirements/index.html#comp_req__json__validation)\nis fulfilled. " target="_top">
<polygon fill="none" stroke="black" points="1075,-447 0,-447 0,-394 1075,-394 1075,-447"/>
<text text-anchor="middle" x="537.5" y="-431.8" font-family="Open Sans" font-size="14.00">JLEX&#45;01: The requirement</text>
<text text-anchor="middle" x="537.5" y="-416.8" font-family="Open Sans" font-size="14.00">regarding [JSON Validation](https://eclipse&#45;score.github.io/score/main/modules/baselibs/json/docs/requirements/index.html#comp_req__json__validation)</text>
<text text-anchor="middle" x="537.5" y="-401.8" font-family="Open Sans" font-size="14.00">is fulfilled. </text>
</a>
</g>
</g>
<!-- WFJ&#45;01 -->
<g id="node9" class="node">
<title>WFJ&#45;01</title>
<g id="a_node9"><a xlink:href="https://score-json.github.io/nlohmann_json/main/_images/custom_WFJ-01_graph.svg" xlink:title="WFJ&#45;01: The service checks\nthe well&#45;formedness of\nthe literal names. " target="_top">
<polygon fill="none" stroke="black" points="640.5,-250 434.5,-250 434.5,-197 640.5,-197 640.5,-250"/>
<text text-anchor="middle" x="537.5" y="-234.8" font-family="Open Sans" font-size="14.00">WFJ&#45;01: The service checks</text>
<text text-anchor="middle" x="537.5" y="-219.8" font-family="Open Sans" font-size="14.00">the well&#45;formedness of</text>
<text text-anchor="middle" x="537.5" y="-204.8" font-family="Open Sans" font-size="14.00">the literal names. </text>
</a>
</g>
</g>
<!-- JLEX&#45;01&#45;&gt;WFJ&#45;01 -->
<g id="edge2" class="edge">
<title>JLEX&#45;01&#45;&gt;WFJ&#45;01</title>
<path fill="none" stroke="black" d="M537.5,-393.61C537.5,-359.42 537.5,-299.06 537.5,-260.46"/>
<polygon fill="black" stroke="black" points="541,-260.19 537.5,-250.19 534,-260.19 541,-260.19"/>
</g>
<!-- NJF&#45;01 -->
<g id="node3" class="node">
<title>NJF&#45;01</title>
<g id="a_node3"><a xlink:href="https://score-json.github.io/nlohmann_json/main/generated/NJF.html#njf-01" xlink:title="NJF&#45;01: The service accepts\nthe literal name null.\n" target="_top">
<polygon fill="none" stroke="black" points="302,-45.5 93,-45.5 93,-7.5 302,-7.5 302,-45.5"/>
<text text-anchor="middle" x="197.5" y="-30.3" font-family="Open Sans" font-size="14.00">NJF&#45;01: The service accepts</text>
<text text-anchor="middle" x="197.5" y="-15.3" font-family="Open Sans" font-size="14.00">the literal name null.</text>
</a>
</g>
</g>
<!-- NJF&#45;02 -->
<g id="node4" class="node">
<title>NJF&#45;02</title>
<g id="a_node4"><a xlink:href="https://score-json.github.io/nlohmann_json/main/generated/NJF.html#njf-02" xlink:title="NJF&#45;02: The service accepts\nthe literal name true.\n" target="_top">
<polygon fill="none" stroke="black" points="529,-45.5 320,-45.5 320,-7.5 529,-7.5 529,-45.5"/>
<text text-anchor="middle" x="424.5" y="-30.3" font-family="Open Sans" font-size="14.00">NJF&#45;02: The service accepts</text>
<text text-anchor="middle" x="424.5" y="-15.3" font-family="Open Sans" font-size="14.00">the literal name true.</text>
</a>
</g>
</g>
<!-- NJF&#45;03 -->
<g id="node5" class="node">
<title>NJF&#45;03</title>
<g id="a_node5"><a xlink:href="https://score-json.github.io/nlohmann_json/main/generated/NJF.html#njf-03" xlink:title="NJF&#45;03: The service accepts\nthe literal name false.\n" target="_top">
<polygon fill="none" stroke="black" points="756,-45.5 547,-45.5 547,-7.5 756,-7.5 756,-45.5"/>
<text text-anchor="middle" x="651.5" y="-30.3" font-family="Open Sans" font-size="14.00">NJF&#45;03: The service accepts</text>
<text text-anchor="middle" x="651.5" y="-15.3" font-family="Open Sans" font-size="14.00">the literal name false.</text>
</a>
</g>
</g>
<!-- NJF&#45;04 -->
<g id="node6" class="node">
<title>NJF&#45;04</title>
<g id="a_node6"><a xlink:href="https://score-json.github.io/nlohmann_json/main/generated/NJF.html#njf-04" xlink:title="NJF&#45;04: The service does\nnot accept any other\nliteral name. " target="_top">
<polygon fill="none" stroke="black" points="963,-53 774,-53 774,0 963,0 963,-53"/>
<text text-anchor="middle" x="868.5" y="-37.8" font-family="Open Sans" font-size="14.00">NJF&#45;04: The service does</text>
<text text-anchor="middle" x="868.5" y="-22.8" font-family="Open Sans" font-size="14.00">not accept any other</text>
<text text-anchor="middle" x="868.5" y="-7.8" font-family="Open Sans" font-size="14.00">literal name. </text>
</a>
</g>
</g>
<!-- TA&#45;BEHAVIOURS -->
<g id="node7" class="node">
<title>TA&#45;BEHAVIOURS</title>
<g id="a_node7"><a xlink:href="https://score-json.github.io/nlohmann_json/main/_images/custom_TA-BEHAVIOURS_graph.svg" xlink:title="TA&#45;BEHAVIOURS: Expected\nor required behaviours\nfor nlohmann/json library\nare identified, specified,\nverified and validated\nbased on analysis. " target="_top">
<polygon fill="none" stroke="black" points="639.5,-689 435.5,-689 435.5,-591 639.5,-591 639.5,-689"/>
<text text-anchor="middle" x="537.5" y="-673.8" font-family="Open Sans" font-size="14.00">TA&#45;BEHAVIOURS: Expected</text>
<text text-anchor="middle" x="537.5" y="-658.8" font-family="Open Sans" font-size="14.00">or required behaviours</text>
<text text-anchor="middle" x="537.5" y="-643.8" font-family="Open Sans" font-size="14.00">for nlohmann/json library</text>
<text text-anchor="middle" x="537.5" y="-628.8" font-family="Open Sans" font-size="14.00">are identified, specified,</text>
<text text-anchor="middle" x="537.5" y="-613.8" font-family="Open Sans" font-size="14.00">verified and validated</text>
<text text-anchor="middle" x="537.5" y="-598.8" font-family="Open Sans" font-size="14.00">based on analysis. </text>
</a>
</g>
</g>
<!-- TA&#45;BEHAVIOURS&#45;&gt;JLEX&#45;01 -->
<g id="edge3" class="edge">
<title>TA&#45;BEHAVIOURS&#45;&gt;JLEX&#45;01</title>
<path fill="none" stroke="black" d="M537.5,-591C537.5,-550.58 537.5,-493.67 537.5,-457.18"/>
<polygon fill="black" stroke="black" points="541,-457.01 537.5,-447.01 534,-457.01 541,-457.01"/>
</g>
<!-- TT&#45;EXPECTATIONS&#45;&gt;TA&#45;BEHAVIOURS -->
<g id="edge4" class="edge">
<title>TT&#45;EXPECTATIONS&#45;&gt;TA&#45;BEHAVIOURS</title>
<path fill="none" stroke="black" d="M537.5,-832.72C537.5,-794.23 537.5,-740.2 537.5,-699.3"/>
<polygon fill="black" stroke="black" points="541,-699.2 537.5,-689.2 534,-699.2 541,-699.2"/>
</g>
<!-- WFJ&#45;01&#45;&gt;NJF&#45;01 -->
<g id="edge8" class="edge">
<title>WFJ&#45;01&#45;&gt;NJF&#45;01</title>
<path fill="none" stroke="black" d="M492.7,-196.81C426.19,-158.66 302.3,-87.6 238.22,-50.86"/>
<polygon fill="black" stroke="black" points="239.63,-47.63 229.22,-45.69 236.15,-53.7 239.63,-47.63"/>
</g>
<!-- WFJ&#45;01&#45;&gt;NJF&#45;02 -->
<g id="edge5" class="edge">
<title>WFJ&#45;01&#45;&gt;NJF&#45;02</title>
<path fill="none" stroke="black" d="M522.49,-196.61C501.08,-159.64 461.93,-92.09 440.16,-54.52"/>
<polygon fill="black" stroke="black" points="443.06,-52.54 435.02,-45.65 437,-56.05 443.06,-52.54"/>
</g>
<!-- WFJ&#45;01&#45;&gt;NJF&#45;03 -->
<g id="edge6" class="edge">
<title>WFJ&#45;01&#45;&gt;NJF&#45;03</title>
<path fill="none" stroke="black" d="M552.64,-196.61C574.25,-159.64 613.74,-92.09 635.71,-54.52"/>
<polygon fill="black" stroke="black" points="638.87,-56.05 640.89,-45.65 632.82,-52.51 638.87,-56.05"/>
</g>
<!-- WFJ&#45;01&#45;&gt;NJF&#45;04 -->
<g id="edge7" class="edge">
<title>WFJ&#45;01&#45;&gt;NJF&#45;04</title>
<path fill="none" stroke="black" d="M581.11,-196.81C641.72,-161.1 751.27,-96.56 816.2,-58.31"/>
<polygon fill="black" stroke="black" points="818.21,-61.19 825.05,-53.1 814.66,-55.16 818.21,-61.19"/>
</g>
</g>
</svg>
