<?xml version="1.0" encoding="UTF-8" standalone="no"?>
<!DOCTYPE svg PUBLIC "-//W3C//DTD SVG 1.1//EN"
 "http://www.w3.org/Graphics/SVG/1.1/DTD/svg11.dtd">
<!-- Generated by graphviz version 2.43.0 (0)
 -->
<!-- Title: G Pages: 1 -->
<svg width="1546pt" height="969pt"
 viewBox="0.00 0.00 1545.50 969.00" xmlns="http://www.w3.org/2000/svg" xmlns:xlink="http://www.w3.org/1999/xlink">
<g id="graph0" class="graph" transform="scale(1 1) rotate(0) translate(4 965)">
<title>G</title>
<polygon fill="white" stroke="transparent" points="-4,4 -4,-965 1541.5,-965 1541.5,4 -4,4"/>
<!-- TRUSTABLE&#45;SOFTWARE -->
<g id="node1" class="node">
<title>TRUSTABLE&#45;SOFTWARE</title>
<g id="a_node1"><a xlink:href="https://score-json.github.io/nlohmann_json/main/_images/custom_TRUSTABLE-SOFTWARE_graph.svg" xlink:title="TRUSTABLE&#45;SOFTWARE: This\nrelease of JSON&#45;Library\nalso reffered in the\ndocumentation as nlohmann/json\nlibrary is Trustable.\n" target="_top">
<polygon fill="none" stroke="black" points="862.5,-961 614.5,-961 614.5,-878 862.5,-878 862.5,-961"/>
<text text-anchor="middle" x="738.5" y="-945.8" font-family="Open Sans" font-size="14.00">TRUSTABLE&#45;SOFTWARE: This</text>
<text text-anchor="middle" x="738.5" y="-930.8" font-family="Open Sans" font-size="14.00">release of JSON&#45;Library</text>
<text text-anchor="middle" x="738.5" y="-915.8" font-family="Open Sans" font-size="14.00">also reffered in the</text>
<text text-anchor="middle" x="738.5" y="-900.8" font-family="Open Sans" font-size="14.00">documentation as nlohmann/json</text>
<text text-anchor="middle" x="738.5" y="-885.8" font-family="Open Sans" font-size="14.00">library is Trustable.</text>
</a>
</g>
</g>
<!-- TT&#45;EXPECTATIONS -->
<g id="node11" class="node">
<title>TT&#45;EXPECTATIONS</title>
<g id="a_node11"><a xlink:href="https://score-json.github.io/nlohmann_json/main/_images/custom_TT-EXPECTATIONS_graph.svg" xlink:title="TT&#45;EXPECTATIONS: Documentation\nis provided, specifying\nwhat nlohmann/json library\nis expected to do, and\nwhat it must not do,\nand how this is verified.\n" target="_top">
<polygon fill="none" stroke="black" points="867,-734 610,-734 610,-636 867,-636 867,-734"/>
<text text-anchor="middle" x="738.5" y="-718.8" font-family="Open Sans" font-size="14.00">TT&#45;EXPECTATIONS: Documentation</text>
<text text-anchor="middle" x="738.5" y="-703.8" font-family="Open Sans" font-size="14.00">is provided, specifying</text>
<text text-anchor="middle" x="738.5" y="-688.8" font-family="Open Sans" font-size="14.00">what nlohmann/json library</text>
<text text-anchor="middle" x="738.5" y="-673.8" font-family="Open Sans" font-size="14.00">is expected to do, and</text>
<text text-anchor="middle" x="738.5" y="-658.8" font-family="Open Sans" font-size="14.00">what it must not do,</text>
<text text-anchor="middle" x="738.5" y="-643.8" font-family="Open Sans" font-size="14.00">and how this is verified.</text>
</a>
</g>
</g>
<!-- TRUSTABLE&#45;SOFTWARE&#45;&gt;TT&#45;EXPECTATIONS -->
<g id="edge1" class="edge">
<title>TRUSTABLE&#45;SOFTWARE&#45;&gt;TT&#45;EXPECTATIONS</title>
<path fill="none" stroke="black" d="M738.5,-877.74C738.5,-840.88 738.5,-786.18 738.5,-744.63"/>
<polygon fill="black" stroke="black" points="742,-744.37 738.5,-734.37 735,-744.37 742,-744.37"/>
</g>
<!-- JLS&#45;24 -->
<g id="node2" class="node">
<title>JLS&#45;24</title>
<g id="a_node2"><a xlink:href="https://score-json.github.io/nlohmann_json/main/_images/custom_JLS-24_graph.svg" xlink:title="JLS&#45;24: The nlohmann/json\nlibrary recognizes malformed\nJSON and returns an exception.\n" target="_top">
<polygon fill="none" stroke="black" points="856,-250 621,-250 621,-197 856,-197 856,-250"/>
<text text-anchor="middle" x="738.5" y="-234.8" font-family="Open Sans" font-size="14.00">JLS&#45;24: The nlohmann/json</text>
<text text-anchor="middle" x="738.5" y="-219.8" font-family="Open Sans" font-size="14.00">library recognizes malformed</text>
<text text-anchor="middle" x="738.5" y="-204.8" font-family="Open Sans" font-size="14.00">JSON and returns an exception.</text>
</a>
</g>
</g>
<!-- NPF&#45;07.2 -->
<g id="node3" class="node">
<title>NPF&#45;07.2</title>
<g id="a_node3"><a xlink:href="https://score-json.github.io/nlohmann_json/main/generated/NPF.html#npf-07.2" xlink:title="NPF&#45;07.2: The service\nthrows an exception on\nill&#45;formed UTF&#45;8 data.\n" target="_top">
<polygon fill="none" stroke="black" points="179,-53 0,-53 0,0 179,0 179,-53"/>
<text text-anchor="middle" x="89.5" y="-37.8" font-family="Open Sans" font-size="14.00">NPF&#45;07.2: The service</text>
<text text-anchor="middle" x="89.5" y="-22.8" font-family="Open Sans" font-size="14.00">throws an exception on</text>
<text text-anchor="middle" x="89.5" y="-7.8" font-family="Open Sans" font-size="14.00">ill&#45;formed UTF&#45;8 data.</text>
</a>
</g>
</g>
<!-- JLS&#45;24&#45;&gt;NPF&#45;07.2 -->
<g id="edge2" class="edge">
<title>JLS&#45;24&#45;&gt;NPF&#45;07.2</title>
<path fill="none" stroke="black" d="M653.32,-196.91C532.07,-160.48 310.46,-93.89 184.2,-55.95"/>
<polygon fill="black" stroke="black" points="185.11,-52.57 174.53,-53.05 183.1,-59.28 185.11,-52.57"/>
</g>
<!-- TIJ&#45;01 -->
<g id="node5" class="node">
<title>TIJ&#45;01</title>
<g id="a_node5"><a xlink:href="https://score-json.github.io/nlohmann_json/main/_images/custom_TIJ-01_graph.svg" xlink:title="TIJ&#45;01: The parsing service\nthrows an exception on\nill&#45;formed literal names.\n" target="_top">
<polygon fill="none" stroke="black" points="399.5,-53 197.5,-53 197.5,0 399.5,0 399.5,-53"/>
<text text-anchor="middle" x="298.5" y="-37.8" font-family="Open Sans" font-size="14.00">TIJ&#45;01: The parsing service</text>
<text text-anchor="middle" x="298.5" y="-22.8" font-family="Open Sans" font-size="14.00">throws an exception on</text>
<text text-anchor="middle" x="298.5" y="-7.8" font-family="Open Sans" font-size="14.00">ill&#45;formed literal names.</text>
</a>
</g>
</g>
<!-- JLS&#45;24&#45;&gt;TIJ&#45;01 -->
<g id="edge3" class="edge">
<title>JLS&#45;24&#45;&gt;TIJ&#45;01</title>
<path fill="none" stroke="black" d="M680.53,-196.81C599.13,-160.73 451.34,-95.24 365.4,-57.15"/>
<polygon fill="black" stroke="black" points="366.81,-53.95 356.25,-53.1 363.98,-60.35 366.81,-53.95"/>
</g>
<!-- TIJ&#45;02 -->
<g id="node6" class="node">
<title>TIJ&#45;02</title>
<g id="a_node6"><a xlink:href="https://score-json.github.io/nlohmann_json/main/_images/custom_TIJ-02_graph.svg" xlink:title="TIJ&#45;02: The parsing service\nthrows an exception on\nill&#45;formed numbers. " target="_top">
<polygon fill="none" stroke="black" points="619.5,-53 417.5,-53 417.5,0 619.5,0 619.5,-53"/>
<text text-anchor="middle" x="518.5" y="-37.8" font-family="Open Sans" font-size="14.00">TIJ&#45;02: The parsing service</text>
<text text-anchor="middle" x="518.5" y="-22.8" font-family="Open Sans" font-size="14.00">throws an exception on</text>
<text text-anchor="middle" x="518.5" y="-7.8" font-family="Open Sans" font-size="14.00">ill&#45;formed numbers. </text>
</a>
</g>
</g>
<!-- JLS&#45;24&#45;&gt;TIJ&#45;02 -->
<g id="edge4" class="edge">
<title>JLS&#45;24&#45;&gt;TIJ&#45;02</title>
<path fill="none" stroke="black" d="M709.29,-196.61C669.56,-161.4 598.52,-98.42 555.23,-60.06"/>
<polygon fill="black" stroke="black" points="557.29,-57.2 547.48,-53.19 552.65,-62.44 557.29,-57.2"/>
</g>
<!-- TIJ&#45;03 -->
<g id="node7" class="node">
<title>TIJ&#45;03</title>
<g id="a_node7"><a xlink:href="https://score-json.github.io/nlohmann_json/main/_images/custom_TIJ-03_graph.svg" xlink:title="TIJ&#45;03: The parsing service\nthrows an exception on\nill&#45;formed strings. " target="_top">
<polygon fill="none" stroke="black" points="839.5,-53 637.5,-53 637.5,0 839.5,0 839.5,-53"/>
<text text-anchor="middle" x="738.5" y="-37.8" font-family="Open Sans" font-size="14.00">TIJ&#45;03: The parsing service</text>
<text text-anchor="middle" x="738.5" y="-22.8" font-family="Open Sans" font-size="14.00">throws an exception on</text>
<text text-anchor="middle" x="738.5" y="-7.8" font-family="Open Sans" font-size="14.00">ill&#45;formed strings. </text>
</a>
</g>
</g>
<!-- JLS&#45;24&#45;&gt;TIJ&#45;03 -->
<g id="edge5" class="edge">
<title>JLS&#45;24&#45;&gt;TIJ&#45;03</title>
<path fill="none" stroke="black" d="M738.5,-196.61C738.5,-162.42 738.5,-102.06 738.5,-63.46"/>
<polygon fill="black" stroke="black" points="742,-63.19 738.5,-53.19 735,-63.19 742,-63.19"/>
</g>
<!-- TIJ&#45;04 -->
<g id="node8" class="node">
<title>TIJ&#45;04</title>
<g id="a_node8"><a xlink:href="https://score-json.github.io/nlohmann_json/main/_images/custom_TIJ-04_graph.svg" xlink:title="TIJ&#45;04: The parsing service\nthrows an exception on\nill&#45;formed arrays. " target="_top">
<polygon fill="none" stroke="black" points="1059.5,-53 857.5,-53 857.5,0 1059.5,0 1059.5,-53"/>
<text text-anchor="middle" x="958.5" y="-37.8" font-family="Open Sans" font-size="14.00">TIJ&#45;04: The parsing service</text>
<text text-anchor="middle" x="958.5" y="-22.8" font-family="Open Sans" font-size="14.00">throws an exception on</text>
<text text-anchor="middle" x="958.5" y="-7.8" font-family="Open Sans" font-size="14.00">ill&#45;formed arrays. </text>
</a>
</g>
</g>
<!-- JLS&#45;24&#45;&gt;TIJ&#45;04 -->
<g id="edge6" class="edge">
<title>JLS&#45;24&#45;&gt;TIJ&#45;04</title>
<path fill="none" stroke="black" d="M767.71,-196.61C807.44,-161.4 878.48,-98.42 921.77,-60.06"/>
<polygon fill="black" stroke="black" points="924.35,-62.44 929.52,-53.19 919.71,-57.2 924.35,-62.44"/>
</g>
<!-- TIJ&#45;05 -->
<g id="node9" class="node">
<title>TIJ&#45;05</title>
<g id="a_node9"><a xlink:href="https://score-json.github.io/nlohmann_json/main/_images/custom_TIJ-05_graph.svg" xlink:title="TIJ&#45;05: The parsing service\nthrows an exception on\nill&#45;formed objects. " target="_top">
<polygon fill="none" stroke="black" points="1279.5,-53 1077.5,-53 1077.5,0 1279.5,0 1279.5,-53"/>
<text text-anchor="middle" x="1178.5" y="-37.8" font-family="Open Sans" font-size="14.00">TIJ&#45;05: The parsing service</text>
<text text-anchor="middle" x="1178.5" y="-22.8" font-family="Open Sans" font-size="14.00">throws an exception on</text>
<text text-anchor="middle" x="1178.5" y="-7.8" font-family="Open Sans" font-size="14.00">ill&#45;formed objects. </text>
</a>
</g>
</g>
<!-- JLS&#45;24&#45;&gt;TIJ&#45;05 -->
<g id="edge7" class="edge">
<title>JLS&#45;24&#45;&gt;TIJ&#45;05</title>
<path fill="none" stroke="black" d="M796.47,-196.81C877.87,-160.73 1025.66,-95.24 1111.6,-57.15"/>
<polygon fill="black" stroke="black" points="1113.02,-60.35 1120.75,-53.1 1110.19,-53.95 1113.02,-60.35"/>
</g>
<!-- TIJ&#45;06 -->
<g id="node10" class="node">
<title>TIJ&#45;06</title>
<g id="a_node10"><a xlink:href="https://score-json.github.io/nlohmann_json/main/_images/custom_TIJ-06_graph.svg" xlink:title="TIJ&#45;06: The service recognises\nill&#45;formed byte&#45;order\nmarks and throws an exception.\n" target="_top">
<polygon fill="none" stroke="black" points="1537.5,-53 1297.5,-53 1297.5,0 1537.5,0 1537.5,-53"/>
<text text-anchor="middle" x="1417.5" y="-37.8" font-family="Open Sans" font-size="14.00">TIJ&#45;06: The service recognises</text>
<text text-anchor="middle" x="1417.5" y="-22.8" font-family="Open Sans" font-size="14.00">ill&#45;formed byte&#45;order</text>
<text text-anchor="middle" x="1417.5" y="-7.8" font-family="Open Sans" font-size="14.00">marks and throws an exception.</text>
</a>
</g>
</g>
<!-- JLS&#45;24&#45;&gt;TIJ&#45;06 -->
<g id="edge8" class="edge">
<title>JLS&#45;24&#45;&gt;TIJ&#45;06</title>
<path fill="none" stroke="black" d="M827.62,-196.91C954.59,-160.44 1186.79,-93.76 1318.82,-55.84"/>
<polygon fill="black" stroke="black" points="1319.9,-59.17 1328.54,-53.05 1317.97,-52.44 1319.9,-59.17"/>
</g>
<!-- TA&#45;MISBEHAVIOURS -->
<g id="node4" class="node">
<title>TA&#45;MISBEHAVIOURS</title>
<g id="a_node4"><a xlink:href="https://score-json.github.io/nlohmann_json/main/_images/custom_TA-MISBEHAVIOURS_graph.svg" xlink:title="TA&#45;MISBEHAVIOURS: Prohibited\nmisbehaviours for nlohmann/json\nlibrary are identified,\nand mitigations are specified,\nverified and validated\nbased on analysis. " target="_top">
<polygon fill="none" stroke="black" points="863.5,-492 613.5,-492 613.5,-394 863.5,-394 863.5,-492"/>
<text text-anchor="middle" x="738.5" y="-476.8" font-family="Open Sans" font-size="14.00">TA&#45;MISBEHAVIOURS: Prohibited</text>
<text text-anchor="middle" x="738.5" y="-461.8" font-family="Open Sans" font-size="14.00">misbehaviours for nlohmann/json</text>
<text text-anchor="middle" x="738.5" y="-446.8" font-family="Open Sans" font-size="14.00">library are identified,</text>
<text text-anchor="middle" x="738.5" y="-431.8" font-family="Open Sans" font-size="14.00">and mitigations are specified,</text>
<text text-anchor="middle" x="738.5" y="-416.8" font-family="Open Sans" font-size="14.00">verified and validated</text>
<text text-anchor="middle" x="738.5" y="-401.8" font-family="Open Sans" font-size="14.00">based on analysis. </text>
</a>
</g>
</g>
<!-- TA&#45;MISBEHAVIOURS&#45;&gt;JLS&#45;24 -->
<g id="edge9" class="edge">
<title>TA&#45;MISBEHAVIOURS&#45;&gt;JLS&#45;24</title>
<path fill="none" stroke="black" d="M738.5,-394C738.5,-353.58 738.5,-296.67 738.5,-260.18"/>
<polygon fill="black" stroke="black" points="742,-260.01 738.5,-250.01 735,-260.01 742,-260.01"/>
</g>
<!-- TT&#45;EXPECTATIONS&#45;&gt;TA&#45;MISBEHAVIOURS -->
<g id="edge10" class="edge">
<title>TT&#45;EXPECTATIONS&#45;&gt;TA&#45;MISBEHAVIOURS</title>
<path fill="none" stroke="black" d="M738.5,-635.72C738.5,-597.23 738.5,-543.2 738.5,-502.3"/>
<polygon fill="black" stroke="black" points="742,-502.2 738.5,-492.2 735,-502.2 742,-502.2"/>
</g>
</g>
</svg>
