<?xml version="1.0" encoding="UTF-8" standalone="no"?>
<!DOCTYPE svg PUBLIC "-//W3C//DTD SVG 1.1//EN"
 "http://www.w3.org/Graphics/SVG/1.1/DTD/svg11.dtd">
<!-- Generated by graphviz version 2.43.0 (0)
 -->
<!-- Title: G Pages: 1 -->
<svg width="1083pt" height="1211pt"
 viewBox="0.00 0.00 1083.00 1211.00" xmlns="http://www.w3.org/2000/svg" xmlns:xlink="http://www.w3.org/1999/xlink">
<g id="graph0" class="graph" transform="scale(1 1) rotate(0) translate(4 1207)">
<title>G</title>
<polygon fill="white" stroke="transparent" points="-4,4 -4,-1207 1079,-1207 1079,4 -4,4"/>
<!-- TRUSTABLE&#45;SOFTWARE -->
<g id="node1" class="node">
<title>TRUSTABLE&#45;SOFTWARE</title>
<g id="a_node1"><a xlink:href="https://score-json.github.io/nlohmann_json/main/_images/custom_TRUSTABLE-SOFTWARE_graph.svg" xlink:title="TRUSTABLE&#45;SOFTWARE: This\nrelease of JSON&#45;Library\nalso referred in the\ndocumentation as nlohmann/json\nlibrary is Trustable.\n" target="_top">
<polygon fill="none" stroke="black" points="661.5,-1203 413.5,-1203 413.5,-1120 661.5,-1120 661.5,-1203"/>
<text text-anchor="middle" x="537.5" y="-1187.8" font-family="Open Sans" font-size="14.00">TRUSTABLE&#45;SOFTWARE: This</text>
<text text-anchor="middle" x="537.5" y="-1172.8" font-family="Open Sans" font-size="14.00">release of JSON&#45;Library</text>
<text text-anchor="middle" x="537.5" y="-1157.8" font-family="Open Sans" font-size="14.00">also referred in the</text>
<text text-anchor="middle" x="537.5" y="-1142.8" font-family="Open Sans" font-size="14.00">documentation as nlohmann/json</text>
<text text-anchor="middle" x="537.5" y="-1127.8" font-family="Open Sans" font-size="14.00">library is Trustable.</text>
</a>
</g>
</g>
<!-- TT&#45;EXPECTATIONS -->
<g id="node8" class="node">
<title>TT&#45;EXPECTATIONS</title>
<g id="a_node8"><a xlink:href="https://score-json.github.io/nlohmann_json/main/_images/custom_TT-EXPECTATIONS_graph.svg" xlink:title="TT&#45;EXPECTATIONS: Documentation\nis provided within eclipse&#45;score/inc_nlohmann_json,\nspecifying what the nlohmann/json\nlibrary is expected to\ndo, and what it must\nnot do, and how this\nis verified. " target="_top">
<polygon fill="none" stroke="black" points="725,-976 350,-976 350,-863 725,-863 725,-976"/>
<text text-anchor="middle" x="537.5" y="-960.8" font-family="Open Sans" font-size="14.00">TT&#45;EXPECTATIONS: Documentation</text>
<text text-anchor="middle" x="537.5" y="-945.8" font-family="Open Sans" font-size="14.00">is provided within eclipse&#45;score/inc_nlohmann_json,</text>
<text text-anchor="middle" x="537.5" y="-930.8" font-family="Open Sans" font-size="14.00">specifying what the nlohmann/json</text>
<text text-anchor="middle" x="537.5" y="-915.8" font-family="Open Sans" font-size="14.00">library is expected to</text>
<text text-anchor="middle" x="537.5" y="-900.8" font-family="Open Sans" font-size="14.00">do, and what it must</text>
<text text-anchor="middle" x="537.5" y="-885.8" font-family="Open Sans" font-size="14.00">not do, and how this</text>
<text text-anchor="middle" x="537.5" y="-870.8" font-family="Open Sans" font-size="14.00">is verified. </text>
</a>
</g>
</g>
<!-- TRUSTABLE&#45;SOFTWARE&#45;&gt;TT&#45;EXPECTATIONS -->
<g id="edge1" class="edge">
<title>TRUSTABLE&#45;SOFTWARE&#45;&gt;TT&#45;EXPECTATIONS</title>
<path fill="none" stroke="black" d="M537.5,-1119.79C537.5,-1083.26 537.5,-1029 537.5,-986.32"/>
<polygon fill="black" stroke="black" points="541,-986.29 537.5,-976.29 534,-986.29 541,-986.29"/>
</g>
<!-- JLEX&#45;01 -->
<g id="node2" class="node">
<title>JLEX&#45;01</title>
<g id="a_node2"><a xlink:href="https://score-json.github.io/nlohmann_json/main/_images/custom_JLEX-01_graph.svg" xlink:title="JLEX&#45;01: The requirement\nregarding [JSON Validation](https://eclipse&#45;score.github.io/score/main/modules/baselibs/json/docs/requirements/index.html#comp_req__json__validation)\nis fulfilled. " target="_top">
<polygon fill="none" stroke="black" points="1075,-477 0,-477 0,-424 1075,-424 1075,-477"/>
<text text-anchor="middle" x="537.5" y="-461.8" font-family="Open Sans" font-size="14.00">JLEX&#45;01: The requirement</text>
<text text-anchor="middle" x="537.5" y="-446.8" font-family="Open Sans" font-size="14.00">regarding [JSON Validation](https://eclipse&#45;score.github.io/score/main/modules/baselibs/json/docs/requirements/index.html#comp_req__json__validation)</text>
<text text-anchor="middle" x="537.5" y="-431.8" font-family="Open Sans" font-size="14.00">is fulfilled. </text>
</a>
</g>
</g>
<!-- WFJ&#45;01 -->
<g id="node9" class="node">
<title>WFJ&#45;01</title>
<g id="a_node9"><a xlink:href="https://score-json.github.io/nlohmann_json/main/_images/custom_WFJ-01_graph.svg" xlink:title="WFJ&#45;01: The service provided\nby the nlohmann/json\nlibrary checks the well&#45;formedness\nof the literal names.\n" target="_top">
<polygon fill="none" stroke="black" points="667.5,-280 407.5,-280 407.5,-212 667.5,-212 667.5,-280"/>
<text text-anchor="middle" x="537.5" y="-264.8" font-family="Open Sans" font-size="14.00">WFJ&#45;01: The service provided</text>
<text text-anchor="middle" x="537.5" y="-249.8" font-family="Open Sans" font-size="14.00">by the nlohmann/json</text>
<text text-anchor="middle" x="537.5" y="-234.8" font-family="Open Sans" font-size="14.00">library checks the well&#45;formedness</text>
<text text-anchor="middle" x="537.5" y="-219.8" font-family="Open Sans" font-size="14.00">of the literal names.</text>
</a>
</g>
</g>
<!-- JLEX&#45;01&#45;&gt;WFJ&#45;01 -->
<g id="edge2" class="edge">
<title>JLEX&#45;01&#45;&gt;WFJ&#45;01</title>
<path fill="none" stroke="black" d="M537.5,-423.85C537.5,-390.27 537.5,-330.91 537.5,-290.3"/>
<polygon fill="black" stroke="black" points="541,-290.15 537.5,-280.15 534,-290.15 541,-290.15"/>
</g>
<!-- NJF&#45;01 -->
<g id="node3" class="node">
<title>NJF&#45;01</title>
<g id="a_node3"><a xlink:href="https://score-json.github.io/nlohmann_json/main/generated/NJF.html#njf-01" xlink:title="NJF&#45;01: The service provided\nby the nlohmann/json\nlibrary accepts the literal\nname null. " target="_top">
<polygon fill="none" stroke="black" points="294,-68 77,-68 77,0 294,0 294,-68"/>
<text text-anchor="middle" x="185.5" y="-52.8" font-family="Open Sans" font-size="14.00">NJF&#45;01: The service provided</text>
<text text-anchor="middle" x="185.5" y="-37.8" font-family="Open Sans" font-size="14.00">by the nlohmann/json</text>
<text text-anchor="middle" x="185.5" y="-22.8" font-family="Open Sans" font-size="14.00">library accepts the literal</text>
<text text-anchor="middle" x="185.5" y="-7.8" font-family="Open Sans" font-size="14.00">name null. </text>
</a>
</g>
</g>
<!-- NJF&#45;02 -->
<g id="node4" class="node">
<title>NJF&#45;02</title>
<g id="a_node4"><a xlink:href="https://score-json.github.io/nlohmann_json/main/generated/NJF.html#njf-02" xlink:title="NJF&#45;02: The service provided\nby the nlohmann/json\nlibrary accepts the literal\nname true. " target="_top">
<polygon fill="none" stroke="black" points="529,-68 312,-68 312,0 529,0 529,-68"/>
<text text-anchor="middle" x="420.5" y="-52.8" font-family="Open Sans" font-size="14.00">NJF&#45;02: The service provided</text>
<text text-anchor="middle" x="420.5" y="-37.8" font-family="Open Sans" font-size="14.00">by the nlohmann/json</text>
<text text-anchor="middle" x="420.5" y="-22.8" font-family="Open Sans" font-size="14.00">library accepts the literal</text>
<text text-anchor="middle" x="420.5" y="-7.8" font-family="Open Sans" font-size="14.00">name true. </text>
</a>
</g>
</g>
<!-- NJF&#45;03 -->
<g id="node5" class="node">
<title>NJF&#45;03</title>
<g id="a_node5"><a xlink:href="https://score-json.github.io/nlohmann_json/main/generated/NJF.html#njf-03" xlink:title="NJF&#45;03: The service provided\nby the nlohmann/json\nlibrary accepts the literal\nname false. " target="_top">
<polygon fill="none" stroke="black" points="764,-68 547,-68 547,0 764,0 764,-68"/>
<text text-anchor="middle" x="655.5" y="-52.8" font-family="Open Sans" font-size="14.00">NJF&#45;03: The service provided</text>
<text text-anchor="middle" x="655.5" y="-37.8" font-family="Open Sans" font-size="14.00">by the nlohmann/json</text>
<text text-anchor="middle" x="655.5" y="-22.8" font-family="Open Sans" font-size="14.00">library accepts the literal</text>
<text text-anchor="middle" x="655.5" y="-7.8" font-family="Open Sans" font-size="14.00">name false. </text>
</a>
</g>
</g>
<!-- NJF&#45;04 -->
<g id="node6" class="node">
<title>NJF&#45;04</title>
<g id="a_node6"><a xlink:href="https://score-json.github.io/nlohmann_json/main/generated/NJF.html#njf-04" xlink:title="NJF&#45;04: The service provided\nby the nlohmann/json\nlibrary does not accept\nany other literal name.\n" target="_top">
<polygon fill="none" stroke="black" points="999,-68 782,-68 782,0 999,0 999,-68"/>
<text text-anchor="middle" x="890.5" y="-52.8" font-family="Open Sans" font-size="14.00">NJF&#45;04: The service provided</text>
<text text-anchor="middle" x="890.5" y="-37.8" font-family="Open Sans" font-size="14.00">by the nlohmann/json</text>
<text text-anchor="middle" x="890.5" y="-22.8" font-family="Open Sans" font-size="14.00">library does not accept</text>
<text text-anchor="middle" x="890.5" y="-7.8" font-family="Open Sans" font-size="14.00">any other literal name.</text>
</a>
</g>
</g>
<!-- TA&#45;BEHAVIOURS -->
<g id="node7" class="node">
<title>TA&#45;BEHAVIOURS</title>
<g id="a_node7"><a xlink:href="https://score-json.github.io/nlohmann_json/main/_images/custom_TA-BEHAVIOURS_graph.svg" xlink:title="TA&#45;BEHAVIOURS: Expected\nor required behaviours\nfor the nlohmann/json\nlibrary are identified,\nspecified, verified and\nvalidated based on analysis.\n" target="_top">
<polygon fill="none" stroke="black" points="644.5,-719 430.5,-719 430.5,-621 644.5,-621 644.5,-719"/>
<text text-anchor="middle" x="537.5" y="-703.8" font-family="Open Sans" font-size="14.00">TA&#45;BEHAVIOURS: Expected</text>
<text text-anchor="middle" x="537.5" y="-688.8" font-family="Open Sans" font-size="14.00">or required behaviours</text>
<text text-anchor="middle" x="537.5" y="-673.8" font-family="Open Sans" font-size="14.00">for the nlohmann/json</text>
<text text-anchor="middle" x="537.5" y="-658.8" font-family="Open Sans" font-size="14.00">library are identified,</text>
<text text-anchor="middle" x="537.5" y="-643.8" font-family="Open Sans" font-size="14.00">specified, verified and</text>
<text text-anchor="middle" x="537.5" y="-628.8" font-family="Open Sans" font-size="14.00">validated based on analysis.</text>
</a>
</g>
</g>
<!-- TA&#45;BEHAVIOURS&#45;&gt;JLEX&#45;01 -->
<g id="edge3" class="edge">
<title>TA&#45;BEHAVIOURS&#45;&gt;JLEX&#45;01</title>
<path fill="none" stroke="black" d="M537.5,-621C537.5,-580.58 537.5,-523.67 537.5,-487.18"/>
<polygon fill="black" stroke="black" points="541,-487.01 537.5,-477.01 534,-487.01 541,-487.01"/>
</g>
<!-- TT&#45;EXPECTATIONS&#45;&gt;TA&#45;BEHAVIOURS -->
<g id="edge4" class="edge">
<title>TT&#45;EXPECTATIONS&#45;&gt;TA&#45;BEHAVIOURS</title>
<path fill="none" stroke="black" d="M537.5,-862.96C537.5,-823.23 537.5,-769.87 537.5,-729.49"/>
<polygon fill="black" stroke="black" points="541,-729.26 537.5,-719.26 534,-729.26 541,-729.26"/>
</g>
<!-- WFJ&#45;01&#45;&gt;NJF&#45;01 -->
<g id="edge8" class="edge">
<title>WFJ&#45;01&#45;&gt;NJF&#45;01</title>
<path fill="none" stroke="black" d="M482.11,-211.96C419.02,-174.32 316.09,-112.91 249.58,-73.23"/>
<polygon fill="black" stroke="black" points="251.24,-70.14 240.85,-68.02 247.65,-76.15 251.24,-70.14"/>
</g>
<!-- WFJ&#45;01&#45;&gt;NJF&#45;02 -->
<g id="edge5" class="edge">
<title>WFJ&#45;01&#45;&gt;NJF&#45;02</title>
<path fill="none" stroke="black" d="M518.96,-211.72C498.64,-175.24 465.98,-116.64 443.91,-77.01"/>
<polygon fill="black" stroke="black" points="446.88,-75.15 438.95,-68.12 440.76,-78.56 446.88,-75.15"/>
</g>
<!-- WFJ&#45;01&#45;&gt;NJF&#45;03 -->
<g id="edge6" class="edge">
<title>WFJ&#45;01&#45;&gt;NJF&#45;03</title>
<path fill="none" stroke="black" d="M556.2,-211.72C576.7,-175.24 609.63,-116.64 631.89,-77.01"/>
<polygon fill="black" stroke="black" points="635.04,-78.55 636.89,-68.12 628.94,-75.12 635.04,-78.55"/>
</g>
<!-- WFJ&#45;01&#45;&gt;NJF&#45;04 -->
<g id="edge7" class="edge">
<title>WFJ&#45;01&#45;&gt;NJF&#45;04</title>
<path fill="none" stroke="black" d="M593.04,-211.96C656.32,-174.32 759.54,-112.91 826.23,-73.23"/>
<polygon fill="black" stroke="black" points="828.18,-76.14 834.99,-68.02 824.6,-70.13 828.18,-76.14"/>
</g>
</g>
</svg>
