<?xml version="1.0" encoding="UTF-8" standalone="no"?>
<!DOCTYPE svg PUBLIC "-//W3C//DTD SVG 1.1//EN"
 "http://www.w3.org/Graphics/SVG/1.1/DTD/svg11.dtd">
<!-- Generated by graphviz version 2.43.0 (0)
 -->
<!-- Title: G Pages: 1 -->
<svg width="2249pt" height="1453pt"
 viewBox="0.00 0.00 2249.00 1453.00" xmlns="http://www.w3.org/2000/svg" xmlns:xlink="http://www.w3.org/1999/xlink">
<g id="graph0" class="graph" transform="scale(1 1) rotate(0) translate(4 1449)">
<title>G</title>
<polygon fill="white" stroke="transparent" points="-4,4 -4,-1449 2245,-1449 2245,4 -4,4"/>
<!-- TRUSTABLE&#45;SOFTWARE -->
<g id="node1" class="node">
<title>TRUSTABLE&#45;SOFTWARE</title>
<g id="a_node1"><a xlink:href="https://score-json.github.io/nlohmann_json/main/_images/custom_TRUSTABLE-SOFTWARE_graph.svg" xlink:title="TRUSTABLE&#45;SOFTWARE: This\nrelease of JSON&#45;Library\nalso referred in the\ndocumentation as nlohmann/json\nlibrary is Trustable.\n" target="_top">
<polygon fill="none" stroke="black" points="1244.5,-1445 996.5,-1445 996.5,-1362 1244.5,-1362 1244.5,-1445"/>
<text text-anchor="middle" x="1120.5" y="-1429.8" font-family="Open Sans" font-size="14.00">TRUSTABLE&#45;SOFTWARE: This</text>
<text text-anchor="middle" x="1120.5" y="-1414.8" font-family="Open Sans" font-size="14.00">release of JSON&#45;Library</text>
<text text-anchor="middle" x="1120.5" y="-1399.8" font-family="Open Sans" font-size="14.00">also referred in the</text>
<text text-anchor="middle" x="1120.5" y="-1384.8" font-family="Open Sans" font-size="14.00">documentation as nlohmann/json</text>
<text text-anchor="middle" x="1120.5" y="-1369.8" font-family="Open Sans" font-size="14.00">library is Trustable.</text>
</a>
</g>
</g>
<!-- TT&#45;EXPECTATIONS -->
<g id="node14" class="node">
<title>TT&#45;EXPECTATIONS</title>
<g id="a_node14"><a xlink:href="https://score-json.github.io/nlohmann_json/main/_images/custom_TT-EXPECTATIONS_graph.svg" xlink:title="TT&#45;EXPECTATIONS: Documentation\nis provided within eclipse&#45;score/inc_nlohmann_json,\nspecifying what the nlohmann/json\nlibrary is expected to\ndo, and what it must\nnot do, and how this\nis verified. " target="_top">
<polygon fill="none" stroke="black" points="1308,-1218 933,-1218 933,-1105 1308,-1105 1308,-1218"/>
<text text-anchor="middle" x="1120.5" y="-1202.8" font-family="Open Sans" font-size="14.00">TT&#45;EXPECTATIONS: Documentation</text>
<text text-anchor="middle" x="1120.5" y="-1187.8" font-family="Open Sans" font-size="14.00">is provided within eclipse&#45;score/inc_nlohmann_json,</text>
<text text-anchor="middle" x="1120.5" y="-1172.8" font-family="Open Sans" font-size="14.00">specifying what the nlohmann/json</text>
<text text-anchor="middle" x="1120.5" y="-1157.8" font-family="Open Sans" font-size="14.00">library is expected to</text>
<text text-anchor="middle" x="1120.5" y="-1142.8" font-family="Open Sans" font-size="14.00">do, and what it must</text>
<text text-anchor="middle" x="1120.5" y="-1127.8" font-family="Open Sans" font-size="14.00">not do, and how this</text>
<text text-anchor="middle" x="1120.5" y="-1112.8" font-family="Open Sans" font-size="14.00">is verified. </text>
</a>
</g>
</g>
<!-- TRUSTABLE&#45;SOFTWARE&#45;&gt;TT&#45;EXPECTATIONS -->
<g id="edge1" class="edge">
<title>TRUSTABLE&#45;SOFTWARE&#45;&gt;TT&#45;EXPECTATIONS</title>
<path fill="none" stroke="black" d="M1120.5,-1361.79C1120.5,-1325.26 1120.5,-1271 1120.5,-1228.32"/>
<polygon fill="black" stroke="black" points="1124,-1228.29 1120.5,-1218.29 1117,-1228.29 1124,-1228.29"/>
</g>
<!-- JLEX&#45;01 -->
<g id="node2" class="node">
<title>JLEX&#45;01</title>
<g id="a_node2"><a xlink:href="https://score-json.github.io/nlohmann_json/main/_images/custom_JLEX-01_graph.svg" xlink:title="JLEX&#45;01: The requirement\nregarding [JSON Validation](https://eclipse&#45;score.github.io/score/main/modules/baselibs/json/docs/requirements/index.html#comp_req__json__validation)\nis fulfilled. " target="_top">
<polygon fill="none" stroke="black" points="1658,-719 583,-719 583,-666 1658,-666 1658,-719"/>
<text text-anchor="middle" x="1120.5" y="-703.8" font-family="Open Sans" font-size="14.00">JLEX&#45;01: The requirement</text>
<text text-anchor="middle" x="1120.5" y="-688.8" font-family="Open Sans" font-size="14.00">regarding [JSON Validation](https://eclipse&#45;score.github.io/score/main/modules/baselibs/json/docs/requirements/index.html#comp_req__json__validation)</text>
<text text-anchor="middle" x="1120.5" y="-673.8" font-family="Open Sans" font-size="14.00">is fulfilled. </text>
</a>
</g>
</g>
<!-- WFJ&#45;02 -->
<g id="node15" class="node">
<title>WFJ&#45;02</title>
<g id="a_node15"><a xlink:href="https://score-json.github.io/nlohmann_json/main/_images/custom_WFJ-02_graph.svg" xlink:title="WFJ&#45;02: The service provided\nby the nlohmann/json\nlibrary checks the well&#45;formedness\nof strings. " target="_top">
<polygon fill="none" stroke="black" points="1250.5,-522 990.5,-522 990.5,-454 1250.5,-454 1250.5,-522"/>
<text text-anchor="middle" x="1120.5" y="-506.8" font-family="Open Sans" font-size="14.00">WFJ&#45;02: The service provided</text>
<text text-anchor="middle" x="1120.5" y="-491.8" font-family="Open Sans" font-size="14.00">by the nlohmann/json</text>
<text text-anchor="middle" x="1120.5" y="-476.8" font-family="Open Sans" font-size="14.00">library checks the well&#45;formedness</text>
<text text-anchor="middle" x="1120.5" y="-461.8" font-family="Open Sans" font-size="14.00">of strings. </text>
</a>
</g>
</g>
<!-- JLEX&#45;01&#45;&gt;WFJ&#45;02 -->
<g id="edge2" class="edge">
<title>JLEX&#45;01&#45;&gt;WFJ&#45;02</title>
<path fill="none" stroke="black" d="M1120.5,-665.85C1120.5,-632.27 1120.5,-572.91 1120.5,-532.3"/>
<polygon fill="black" stroke="black" points="1124,-532.15 1120.5,-522.15 1117,-532.15 1124,-532.15"/>
</g>
<!-- NJF&#45;07 -->
<g id="node3" class="node">
<title>NJF&#45;07</title>
<g id="a_node3"><a xlink:href="https://score-json.github.io/nlohmann_json/main/_images/custom_NJF-07_graph.svg" xlink:title="NJF&#45;07: The service provided\nby the nlohmann/json\nlibrary accepts and rejects\nstrings according to\nRFC8259 ยง7. " target="_top">
<polygon fill="none" stroke="black" points="1229,-310 1012,-310 1012,-227 1229,-227 1229,-310"/>
<text text-anchor="middle" x="1120.5" y="-294.8" font-family="Open Sans" font-size="14.00">NJF&#45;07: The service provided</text>
<text text-anchor="middle" x="1120.5" y="-279.8" font-family="Open Sans" font-size="14.00">by the nlohmann/json</text>
<text text-anchor="middle" x="1120.5" y="-264.8" font-family="Open Sans" font-size="14.00">library accepts and rejects</text>
<text text-anchor="middle" x="1120.5" y="-249.8" font-family="Open Sans" font-size="14.00">strings according to</text>
<text text-anchor="middle" x="1120.5" y="-234.8" font-family="Open Sans" font-size="14.00">RFC8259 ยง7. </text>
</a>
</g>
</g>
<!-- NJF&#45;07.1 -->
<g id="node4" class="node">
<title>NJF&#45;07.1</title>
<g id="a_node4"><a xlink:href="https://score-json.github.io/nlohmann_json/main/generated/NJF.html#njf-07.1" xlink:title="NJF&#45;07.1: The service\nprovided by the nlohmann/json\nlibrary does accept empty\nstrings. " target="_top">
<polygon fill="none" stroke="black" points="233,-75.5 0,-75.5 0,-7.5 233,-7.5 233,-75.5"/>
<text text-anchor="middle" x="116.5" y="-60.3" font-family="Open Sans" font-size="14.00">NJF&#45;07.1: The service</text>
<text text-anchor="middle" x="116.5" y="-45.3" font-family="Open Sans" font-size="14.00">provided by the nlohmann/json</text>
<text text-anchor="middle" x="116.5" y="-30.3" font-family="Open Sans" font-size="14.00">library does accept empty</text>
<text text-anchor="middle" x="116.5" y="-15.3" font-family="Open Sans" font-size="14.00">strings. </text>
</a>
</g>
</g>
<!-- NJF&#45;07&#45;&gt;NJF&#45;07.1 -->
<g id="edge3" class="edge">
<title>NJF&#45;07&#45;&gt;NJF&#45;07.1</title>
<path fill="none" stroke="black" d="M1011.71,-248.52C844.77,-218.53 515.93,-156.04 241.5,-83 236.13,-81.57 230.64,-80.05 225.12,-78.46"/>
<polygon fill="black" stroke="black" points="225.73,-74.99 215.15,-75.53 223.76,-81.71 225.73,-74.99"/>
</g>
<!-- NJF&#45;07.2 -->
<g id="node5" class="node">
<title>NJF&#45;07.2</title>
<g id="a_node5"><a xlink:href="https://score-json.github.io/nlohmann_json/main/generated/NJF.html#njf-07.2" xlink:title="NJF&#45;07.2: The service\nprovided by the nlohmann/json\nlibrary does not accept\nthe improperly bounded\nstrings. " target="_top">
<polygon fill="none" stroke="black" points="484,-83 251,-83 251,0 484,0 484,-83"/>
<text text-anchor="middle" x="367.5" y="-67.8" font-family="Open Sans" font-size="14.00">NJF&#45;07.2: The service</text>
<text text-anchor="middle" x="367.5" y="-52.8" font-family="Open Sans" font-size="14.00">provided by the nlohmann/json</text>
<text text-anchor="middle" x="367.5" y="-37.8" font-family="Open Sans" font-size="14.00">library does not accept</text>
<text text-anchor="middle" x="367.5" y="-22.8" font-family="Open Sans" font-size="14.00">the improperly bounded</text>
<text text-anchor="middle" x="367.5" y="-7.8" font-family="Open Sans" font-size="14.00">strings. </text>
</a>
</g>
</g>
<!-- NJF&#45;07&#45;&gt;NJF&#45;07.2 -->
<g id="edge4" class="edge">
<title>NJF&#45;07&#45;&gt;NJF&#45;07.2</title>
<path fill="none" stroke="black" d="M1011.88,-236.57C888.6,-201.25 681.33,-141.18 493.99,-83.45"/>
<polygon fill="black" stroke="black" points="494.83,-80.04 484.24,-80.44 492.76,-86.73 494.83,-80.04"/>
</g>
<!-- NJF&#45;07.3 -->
<g id="node6" class="node">
<title>NJF&#45;07.3</title>
<g id="a_node6"><a xlink:href="https://score-json.github.io/nlohmann_json/main/generated/NJF.html#njf-07.3" xlink:title="NJF&#45;07.3: The service\nprovided by the nlohmann/json\nlibrary does not accept\nunescaped control characters.\n" target="_top">
<polygon fill="none" stroke="black" points="735,-75.5 502,-75.5 502,-7.5 735,-7.5 735,-75.5"/>
<text text-anchor="middle" x="618.5" y="-60.3" font-family="Open Sans" font-size="14.00">NJF&#45;07.3: The service</text>
<text text-anchor="middle" x="618.5" y="-45.3" font-family="Open Sans" font-size="14.00">provided by the nlohmann/json</text>
<text text-anchor="middle" x="618.5" y="-30.3" font-family="Open Sans" font-size="14.00">library does not accept</text>
<text text-anchor="middle" x="618.5" y="-15.3" font-family="Open Sans" font-size="14.00">unescaped control characters.</text>
</a>
</g>
</g>
<!-- NJF&#45;07&#45;&gt;NJF&#45;07.3 -->
<g id="edge5" class="edge">
<title>NJF&#45;07&#45;&gt;NJF&#45;07.3</title>
<path fill="none" stroke="black" d="M1029.88,-226.88C936.5,-185.03 792.17,-120.34 701.63,-79.76"/>
<polygon fill="black" stroke="black" points="703.05,-76.56 692.5,-75.67 700.19,-82.95 703.05,-76.56"/>
</g>
<!-- NJF&#45;07.4 -->
<g id="node7" class="node">
<title>NJF&#45;07.4</title>
<g id="a_node7"><a xlink:href="https://score-json.github.io/nlohmann_json/main/generated/NJF.html#njf-07.4" xlink:title="NJF&#45;07.4: The service\nprovided by the nlohmann/json\nlibrary does accept escaped\ncontrol characters. " target="_top">
<polygon fill="none" stroke="black" points="986,-75.5 753,-75.5 753,-7.5 986,-7.5 986,-75.5"/>
<text text-anchor="middle" x="869.5" y="-60.3" font-family="Open Sans" font-size="14.00">NJF&#45;07.4: The service</text>
<text text-anchor="middle" x="869.5" y="-45.3" font-family="Open Sans" font-size="14.00">provided by the nlohmann/json</text>
<text text-anchor="middle" x="869.5" y="-30.3" font-family="Open Sans" font-size="14.00">library does accept escaped</text>
<text text-anchor="middle" x="869.5" y="-15.3" font-family="Open Sans" font-size="14.00">control characters. </text>
</a>
</g>
</g>
<!-- NJF&#45;07&#45;&gt;NJF&#45;07.4 -->
<g id="edge6" class="edge">
<title>NJF&#45;07&#45;&gt;NJF&#45;07.4</title>
<path fill="none" stroke="black" d="M1075.05,-226.75C1029.37,-185.81 959.43,-123.11 914.07,-82.45"/>
<polygon fill="black" stroke="black" points="916.24,-79.69 906.45,-75.63 911.56,-84.91 916.24,-79.69"/>
</g>
<!-- NJF&#45;07.5 -->
<g id="node8" class="node">
<title>NJF&#45;07.5</title>
<g id="a_node8"><a xlink:href="https://score-json.github.io/nlohmann_json/main/generated/NJF.html#njf-07.5" xlink:title="NJF&#45;07.5: The service\nprovided by the nlohmann/json\nlibrary accepts UTF&#45;16\nsurrogate pairs. " target="_top">
<polygon fill="none" stroke="black" points="1237,-75.5 1004,-75.5 1004,-7.5 1237,-7.5 1237,-75.5"/>
<text text-anchor="middle" x="1120.5" y="-60.3" font-family="Open Sans" font-size="14.00">NJF&#45;07.5: The service</text>
<text text-anchor="middle" x="1120.5" y="-45.3" font-family="Open Sans" font-size="14.00">provided by the nlohmann/json</text>
<text text-anchor="middle" x="1120.5" y="-30.3" font-family="Open Sans" font-size="14.00">library accepts UTF&#45;16</text>
<text text-anchor="middle" x="1120.5" y="-15.3" font-family="Open Sans" font-size="14.00">surrogate pairs. </text>
</a>
</g>
</g>
<!-- NJF&#45;07&#45;&gt;NJF&#45;07.5 -->
<g id="edge7" class="edge">
<title>NJF&#45;07&#45;&gt;NJF&#45;07.5</title>
<path fill="none" stroke="black" d="M1120.5,-226.75C1120.5,-186.91 1120.5,-126.46 1120.5,-85.78"/>
<polygon fill="black" stroke="black" points="1124,-85.63 1120.5,-75.63 1117,-85.63 1124,-85.63"/>
</g>
<!-- NJF&#45;07.6 -->
<g id="node9" class="node">
<title>NJF&#45;07.6</title>
<g id="a_node9"><a xlink:href="https://score-json.github.io/nlohmann_json/main/generated/NJF.html#njf-07.6" xlink:title="NJF&#45;07.6: The service\nprovided by the nlohmann/json\nlibrary does accept non&#45;empty\nstrings. " target="_top">
<polygon fill="none" stroke="black" points="1488,-75.5 1255,-75.5 1255,-7.5 1488,-7.5 1488,-75.5"/>
<text text-anchor="middle" x="1371.5" y="-60.3" font-family="Open Sans" font-size="14.00">NJF&#45;07.6: The service</text>
<text text-anchor="middle" x="1371.5" y="-45.3" font-family="Open Sans" font-size="14.00">provided by the nlohmann/json</text>
<text text-anchor="middle" x="1371.5" y="-30.3" font-family="Open Sans" font-size="14.00">library does accept non&#45;empty</text>
<text text-anchor="middle" x="1371.5" y="-15.3" font-family="Open Sans" font-size="14.00">strings. </text>
</a>
</g>
</g>
<!-- NJF&#45;07&#45;&gt;NJF&#45;07.6 -->
<g id="edge9" class="edge">
<title>NJF&#45;07&#45;&gt;NJF&#45;07.6</title>
<path fill="none" stroke="black" d="M1165.95,-226.75C1211.63,-185.81 1281.57,-123.11 1326.93,-82.45"/>
<polygon fill="black" stroke="black" points="1329.44,-84.91 1334.55,-75.63 1324.76,-79.69 1329.44,-84.91"/>
</g>
<!-- NJF&#45;07.7 -->
<g id="node10" class="node">
<title>NJF&#45;07.7</title>
<g id="a_node10"><a xlink:href="https://score-json.github.io/nlohmann_json/main/generated/NJF.html#njf-07.7" xlink:title="NJF&#45;07.7: The service\nprovided by the nlohmann/json\nlibrary does not accept\nescaped invalid characters.\n" target="_top">
<polygon fill="none" stroke="black" points="1739,-75.5 1506,-75.5 1506,-7.5 1739,-7.5 1739,-75.5"/>
<text text-anchor="middle" x="1622.5" y="-60.3" font-family="Open Sans" font-size="14.00">NJF&#45;07.7: The service</text>
<text text-anchor="middle" x="1622.5" y="-45.3" font-family="Open Sans" font-size="14.00">provided by the nlohmann/json</text>
<text text-anchor="middle" x="1622.5" y="-30.3" font-family="Open Sans" font-size="14.00">library does not accept</text>
<text text-anchor="middle" x="1622.5" y="-15.3" font-family="Open Sans" font-size="14.00">escaped invalid characters.</text>
</a>
</g>
</g>
<!-- NJF&#45;07&#45;&gt;NJF&#45;07.7 -->
<g id="edge8" class="edge">
<title>NJF&#45;07&#45;&gt;NJF&#45;07.7</title>
<path fill="none" stroke="black" d="M1211.12,-226.88C1304.5,-185.03 1448.83,-120.34 1539.37,-79.76"/>
<polygon fill="black" stroke="black" points="1540.81,-82.95 1548.5,-75.67 1537.95,-76.56 1540.81,-82.95"/>
</g>
<!-- NJF&#45;07.8 -->
<g id="node11" class="node">
<title>NJF&#45;07.8</title>
<g id="a_node11"><a xlink:href="https://score-json.github.io/nlohmann_json/main/generated/NJF.html#njf-07.8" xlink:title="NJF&#45;07.8: The service\nprovided by the nlohmann/json\nlibrary does not accept\nsingle unpaired utf&#45;16\nsurrogates. " target="_top">
<polygon fill="none" stroke="black" points="1990,-83 1757,-83 1757,0 1990,0 1990,-83"/>
<text text-anchor="middle" x="1873.5" y="-67.8" font-family="Open Sans" font-size="14.00">NJF&#45;07.8: The service</text>
<text text-anchor="middle" x="1873.5" y="-52.8" font-family="Open Sans" font-size="14.00">provided by the nlohmann/json</text>
<text text-anchor="middle" x="1873.5" y="-37.8" font-family="Open Sans" font-size="14.00">library does not accept</text>
<text text-anchor="middle" x="1873.5" y="-22.8" font-family="Open Sans" font-size="14.00">single unpaired utf&#45;16</text>
<text text-anchor="middle" x="1873.5" y="-7.8" font-family="Open Sans" font-size="14.00">surrogates. </text>
</a>
</g>
</g>
<!-- NJF&#45;07&#45;&gt;NJF&#45;07.8 -->
<g id="edge10" class="edge">
<title>NJF&#45;07&#45;&gt;NJF&#45;07.8</title>
<path fill="none" stroke="black" d="M1229.12,-236.57C1352.4,-201.25 1559.67,-141.18 1747.01,-83.45"/>
<polygon fill="black" stroke="black" points="1748.24,-86.73 1756.76,-80.44 1746.17,-80.04 1748.24,-86.73"/>
</g>
<!-- NJF&#45;07.9 -->
<g id="node12" class="node">
<title>NJF&#45;07.9</title>
<g id="a_node12"><a xlink:href="https://score-json.github.io/nlohmann_json/main/generated/NJF.html#njf-07.9" xlink:title="NJF&#45;07.9: The service\nprovided by the nlohmann/json\nlibrary does not accept\nunescaped UTF&#45;16 surrogate\npairs. " target="_top">
<polygon fill="none" stroke="black" points="2241,-83 2008,-83 2008,0 2241,0 2241,-83"/>
<text text-anchor="middle" x="2124.5" y="-67.8" font-family="Open Sans" font-size="14.00">NJF&#45;07.9: The service</text>
<text text-anchor="middle" x="2124.5" y="-52.8" font-family="Open Sans" font-size="14.00">provided by the nlohmann/json</text>
<text text-anchor="middle" x="2124.5" y="-37.8" font-family="Open Sans" font-size="14.00">library does not accept</text>
<text text-anchor="middle" x="2124.5" y="-22.8" font-family="Open Sans" font-size="14.00">unescaped UTF&#45;16 surrogate</text>
<text text-anchor="middle" x="2124.5" y="-7.8" font-family="Open Sans" font-size="14.00">pairs. </text>
</a>
</g>
</g>
<!-- NJF&#45;07&#45;&gt;NJF&#45;07.9 -->
<g id="edge11" class="edge">
<title>NJF&#45;07&#45;&gt;NJF&#45;07.9</title>
<path fill="none" stroke="black" d="M1229.29,-248.52C1394.27,-218.89 1717.38,-157.5 1997.88,-83.37"/>
<polygon fill="black" stroke="black" points="1999.08,-86.68 2007.84,-80.73 1997.28,-79.91 1999.08,-86.68"/>
</g>
<!-- TA&#45;BEHAVIOURS -->
<g id="node13" class="node">
<title>TA&#45;BEHAVIOURS</title>
<g id="a_node13"><a xlink:href="https://score-json.github.io/nlohmann_json/main/_images/custom_TA-BEHAVIOURS_graph.svg" xlink:title="TA&#45;BEHAVIOURS: Expected\nor required behaviours\nfor the nlohmann/json\nlibrary are identified,\nspecified, verified and\nvalidated based on analysis.\n" target="_top">
<polygon fill="none" stroke="black" points="1227.5,-961 1013.5,-961 1013.5,-863 1227.5,-863 1227.5,-961"/>
<text text-anchor="middle" x="1120.5" y="-945.8" font-family="Open Sans" font-size="14.00">TA&#45;BEHAVIOURS: Expected</text>
<text text-anchor="middle" x="1120.5" y="-930.8" font-family="Open Sans" font-size="14.00">or required behaviours</text>
<text text-anchor="middle" x="1120.5" y="-915.8" font-family="Open Sans" font-size="14.00">for the nlohmann/json</text>
<text text-anchor="middle" x="1120.5" y="-900.8" font-family="Open Sans" font-size="14.00">library are identified,</text>
<text text-anchor="middle" x="1120.5" y="-885.8" font-family="Open Sans" font-size="14.00">specified, verified and</text>
<text text-anchor="middle" x="1120.5" y="-870.8" font-family="Open Sans" font-size="14.00">validated based on analysis.</text>
</a>
</g>
</g>
<!-- TA&#45;BEHAVIOURS&#45;&gt;JLEX&#45;01 -->
<g id="edge12" class="edge">
<title>TA&#45;BEHAVIOURS&#45;&gt;JLEX&#45;01</title>
<path fill="none" stroke="black" d="M1120.5,-863C1120.5,-822.58 1120.5,-765.67 1120.5,-729.18"/>
<polygon fill="black" stroke="black" points="1124,-729.01 1120.5,-719.01 1117,-729.01 1124,-729.01"/>
</g>
<!-- TT&#45;EXPECTATIONS&#45;&gt;TA&#45;BEHAVIOURS -->
<g id="edge13" class="edge">
<title>TT&#45;EXPECTATIONS&#45;&gt;TA&#45;BEHAVIOURS</title>
<path fill="none" stroke="black" d="M1120.5,-1104.96C1120.5,-1065.23 1120.5,-1011.87 1120.5,-971.49"/>
<polygon fill="black" stroke="black" points="1124,-971.26 1120.5,-961.26 1117,-971.26 1124,-971.26"/>
</g>
<!-- WFJ&#45;02&#45;&gt;NJF&#45;07 -->
<g id="edge14" class="edge">
<title>WFJ&#45;02&#45;&gt;NJF&#45;07</title>
<path fill="none" stroke="black" d="M1120.5,-453.97C1120.5,-418.47 1120.5,-361.61 1120.5,-320.39"/>
<polygon fill="black" stroke="black" points="1124,-320.27 1120.5,-310.27 1117,-320.27 1124,-320.27"/>
</g>
</g>
</svg>
