<?xml version="1.0" encoding="UTF-8" standalone="no"?>
<!DOCTYPE svg PUBLIC "-//W3C//DTD SVG 1.1//EN"
 "http://www.w3.org/Graphics/SVG/1.1/DTD/svg11.dtd">
<!-- Generated by graphviz version 2.43.0 (0)
 -->
<!-- Title: G Pages: 1 -->
<svg width="1786pt" height="1029pt"
 viewBox="0.00 0.00 1785.50 1029.00" xmlns="http://www.w3.org/2000/svg" xmlns:xlink="http://www.w3.org/1999/xlink">
<g id="graph0" class="graph" transform="scale(1 1) rotate(0) translate(4 1025)">
<title>G</title>
<polygon fill="white" stroke="transparent" points="-4,4 -4,-1025 1781.5,-1025 1781.5,4 -4,4"/>
<!-- TRUSTABLE&#45;SOFTWARE -->
<g id="node1" class="node">
<title>TRUSTABLE&#45;SOFTWARE</title>
<g id="a_node1"><a xlink:href="https://score-json.github.io/nlohmann_json/main/_images/custom_TRUSTABLE-SOFTWARE_graph.svg" xlink:title="TRUSTABLE&#45;SOFTWARE: This\nrelease of JSON&#45;Library\nalso reffered in the\ndocumentation as nlohmann/json\nlibrary is Trustable.\n" target="_top">
<polygon fill="none" stroke="black" points="1011,-1021 763,-1021 763,-938 1011,-938 1011,-1021"/>
<text text-anchor="middle" x="887" y="-1005.8" font-family="Open Sans" font-size="14.00">TRUSTABLE&#45;SOFTWARE: This</text>
<text text-anchor="middle" x="887" y="-990.8" font-family="Open Sans" font-size="14.00">release of JSON&#45;Library</text>
<text text-anchor="middle" x="887" y="-975.8" font-family="Open Sans" font-size="14.00">also reffered in the</text>
<text text-anchor="middle" x="887" y="-960.8" font-family="Open Sans" font-size="14.00">documentation as nlohmann/json</text>
<text text-anchor="middle" x="887" y="-945.8" font-family="Open Sans" font-size="14.00">library is Trustable.</text>
</a>
</g>
</g>
<!-- TT&#45;EXPECTATIONS -->
<g id="node4" class="node">
<title>TT&#45;EXPECTATIONS</title>
<g id="a_node4"><a xlink:href="https://score-json.github.io/nlohmann_json/main/_images/custom_TT-EXPECTATIONS_graph.svg" xlink:title="TT&#45;EXPECTATIONS: Documentation\nis provided, specifying\nwhat nlohmann/json library\nis expected to do, and\nwhat it must not do,\nand how this is verified.\n" target="_top">
<polygon fill="none" stroke="black" points="1015.5,-794 758.5,-794 758.5,-696 1015.5,-696 1015.5,-794"/>
<text text-anchor="middle" x="887" y="-778.8" font-family="Open Sans" font-size="14.00">TT&#45;EXPECTATIONS: Documentation</text>
<text text-anchor="middle" x="887" y="-763.8" font-family="Open Sans" font-size="14.00">is provided, specifying</text>
<text text-anchor="middle" x="887" y="-748.8" font-family="Open Sans" font-size="14.00">what nlohmann/json library</text>
<text text-anchor="middle" x="887" y="-733.8" font-family="Open Sans" font-size="14.00">is expected to do, and</text>
<text text-anchor="middle" x="887" y="-718.8" font-family="Open Sans" font-size="14.00">what it must not do,</text>
<text text-anchor="middle" x="887" y="-703.8" font-family="Open Sans" font-size="14.00">and how this is verified.</text>
</a>
</g>
</g>
<!-- TRUSTABLE&#45;SOFTWARE&#45;&gt;TT&#45;EXPECTATIONS -->
<g id="edge1" class="edge">
<title>TRUSTABLE&#45;SOFTWARE&#45;&gt;TT&#45;EXPECTATIONS</title>
<path fill="none" stroke="black" d="M887,-937.74C887,-900.88 887,-846.18 887,-804.63"/>
<polygon fill="black" stroke="black" points="890.5,-804.37 887,-794.37 883.5,-804.37 890.5,-804.37"/>
</g>
<!-- JLEX&#45;01 -->
<g id="node2" class="node">
<title>JLEX&#45;01</title>
<g id="a_node2"><a xlink:href="https://score-json.github.io/nlohmann_json/main/_images/custom_JLEX-01_graph.svg" xlink:title="JLEX&#45;01: The requirement\nregarding [JSON Validation](https://eclipse&#45;score.github.io/score/main/modules/baselibs/json/docs/requirements/index.html#comp_req__json__validation)\nis fulfilled. " target="_top">
<polygon fill="none" stroke="black" points="1424.5,-310 349.5,-310 349.5,-257 1424.5,-257 1424.5,-310"/>
<text text-anchor="middle" x="887" y="-294.8" font-family="Open Sans" font-size="14.00">JLEX&#45;01: The requirement</text>
<text text-anchor="middle" x="887" y="-279.8" font-family="Open Sans" font-size="14.00">regarding [JSON Validation](https://eclipse&#45;score.github.io/score/main/modules/baselibs/json/docs/requirements/index.html#comp_req__json__validation)</text>
<text text-anchor="middle" x="887" y="-264.8" font-family="Open Sans" font-size="14.00">is fulfilled. </text>
</a>
</g>
</g>
<!-- WFJ&#45;01 -->
<g id="node5" class="node">
<title>WFJ&#45;01</title>
<g id="a_node5"><a xlink:href="https://score-json.github.io/nlohmann_json/main/_images/custom_WFJ-01_graph.svg" xlink:title="WFJ&#45;01: The service checks\nthe well&#45;formedness of\nthe literal names. " target="_top">
<polygon fill="none" stroke="black" points="206,-83 0,-83 0,-30 206,-30 206,-83"/>
<text text-anchor="middle" x="103" y="-67.8" font-family="Open Sans" font-size="14.00">WFJ&#45;01: The service checks</text>
<text text-anchor="middle" x="103" y="-52.8" font-family="Open Sans" font-size="14.00">the well&#45;formedness of</text>
<text text-anchor="middle" x="103" y="-37.8" font-family="Open Sans" font-size="14.00">the literal names. </text>
</a>
</g>
</g>
<!-- JLEX&#45;01&#45;&gt;WFJ&#45;01 -->
<g id="edge2" class="edge">
<title>JLEX&#45;01&#45;&gt;WFJ&#45;01</title>
<path fill="none" stroke="black" d="M750.57,-256.99C612.95,-229.2 395.6,-179.66 215,-113 196.02,-105.99 176,-96.73 158.23,-87.78"/>
<polygon fill="black" stroke="black" points="159.65,-84.58 149.15,-83.14 156.47,-90.81 159.65,-84.58"/>
</g>
<!-- WFJ&#45;02 -->
<g id="node6" class="node">
<title>WFJ&#45;02</title>
<g id="a_node6"><a xlink:href="https://score-json.github.io/nlohmann_json/main/_images/custom_WFJ-02_graph.svg" xlink:title="WFJ&#45;02: The service checks\nthe well&#45;formedness of\nstrings. " target="_top">
<polygon fill="none" stroke="black" points="430,-83 224,-83 224,-30 430,-30 430,-83"/>
<text text-anchor="middle" x="327" y="-67.8" font-family="Open Sans" font-size="14.00">WFJ&#45;02: The service checks</text>
<text text-anchor="middle" x="327" y="-52.8" font-family="Open Sans" font-size="14.00">the well&#45;formedness of</text>
<text text-anchor="middle" x="327" y="-37.8" font-family="Open Sans" font-size="14.00">strings. </text>
</a>
</g>
</g>
<!-- JLEX&#45;01&#45;&gt;WFJ&#45;02 -->
<g id="edge3" class="edge">
<title>JLEX&#45;01&#45;&gt;WFJ&#45;02</title>
<path fill="none" stroke="black" d="M812.78,-256.94C723.18,-225.52 568.41,-169.38 439,-113 421.29,-105.28 402.36,-96.22 385.19,-87.69"/>
<polygon fill="black" stroke="black" points="386.36,-84.36 375.85,-83.01 383.22,-90.62 386.36,-84.36"/>
</g>
<!-- WFJ&#45;03 -->
<g id="node7" class="node">
<title>WFJ&#45;03</title>
<g id="a_node7"><a xlink:href="https://score-json.github.io/nlohmann_json/main/_images/custom_WFJ-03_graph.svg" xlink:title="WFJ&#45;03: The service checks\nthe well&#45;formedness of\nnumbers. " target="_top">
<polygon fill="none" stroke="black" points="654,-83 448,-83 448,-30 654,-30 654,-83"/>
<text text-anchor="middle" x="551" y="-67.8" font-family="Open Sans" font-size="14.00">WFJ&#45;03: The service checks</text>
<text text-anchor="middle" x="551" y="-52.8" font-family="Open Sans" font-size="14.00">the well&#45;formedness of</text>
<text text-anchor="middle" x="551" y="-37.8" font-family="Open Sans" font-size="14.00">numbers. </text>
</a>
</g>
</g>
<!-- JLEX&#45;01&#45;&gt;WFJ&#45;03 -->
<g id="edge4" class="edge">
<title>JLEX&#45;01&#45;&gt;WFJ&#45;03</title>
<path fill="none" stroke="black" d="M848.78,-256.91C786.89,-215.46 664.9,-133.78 597.87,-88.88"/>
<polygon fill="black" stroke="black" points="599.44,-85.72 589.18,-83.07 595.54,-91.54 599.44,-85.72"/>
</g>
<!-- WFJ&#45;04 -->
<g id="node8" class="node">
<title>WFJ&#45;04</title>
<g id="a_node8"><a xlink:href="https://score-json.github.io/nlohmann_json/main/_images/custom_WFJ-04_graph.svg" xlink:title="WFJ&#45;04: The service checks\nthe well&#45;formedness of\narray. " target="_top">
<polygon fill="none" stroke="black" points="878,-83 672,-83 672,-30 878,-30 878,-83"/>
<text text-anchor="middle" x="775" y="-67.8" font-family="Open Sans" font-size="14.00">WFJ&#45;04: The service checks</text>
<text text-anchor="middle" x="775" y="-52.8" font-family="Open Sans" font-size="14.00">the well&#45;formedness of</text>
<text text-anchor="middle" x="775" y="-37.8" font-family="Open Sans" font-size="14.00">array. </text>
</a>
</g>
</g>
<!-- JLEX&#45;01&#45;&gt;WFJ&#45;04 -->
<g id="edge5" class="edge">
<title>JLEX&#45;01&#45;&gt;WFJ&#45;04</title>
<path fill="none" stroke="black" d="M874.15,-256.69C853.98,-216.17 814.86,-137.58 792.26,-92.17"/>
<polygon fill="black" stroke="black" points="795.29,-90.4 787.7,-83.01 789.02,-93.52 795.29,-90.4"/>
</g>
<!-- WFJ&#45;05 -->
<g id="node9" class="node">
<title>WFJ&#45;05</title>
<g id="a_node9"><a xlink:href="https://score-json.github.io/nlohmann_json/main/_images/custom_WFJ-05_graph.svg" xlink:title="WFJ&#45;05: The service checks\nthe well&#45;formedness of\nobjects. " target="_top">
<polygon fill="none" stroke="black" points="1102,-83 896,-83 896,-30 1102,-30 1102,-83"/>
<text text-anchor="middle" x="999" y="-67.8" font-family="Open Sans" font-size="14.00">WFJ&#45;05: The service checks</text>
<text text-anchor="middle" x="999" y="-52.8" font-family="Open Sans" font-size="14.00">the well&#45;formedness of</text>
<text text-anchor="middle" x="999" y="-37.8" font-family="Open Sans" font-size="14.00">objects. </text>
</a>
</g>
</g>
<!-- JLEX&#45;01&#45;&gt;WFJ&#45;05 -->
<g id="edge6" class="edge">
<title>JLEX&#45;01&#45;&gt;WFJ&#45;05</title>
<path fill="none" stroke="black" d="M899.85,-256.69C920.02,-216.17 959.14,-137.58 981.74,-92.17"/>
<polygon fill="black" stroke="black" points="984.98,-93.52 986.3,-83.01 978.71,-90.4 984.98,-93.52"/>
</g>
<!-- WFJ&#45;06 -->
<g id="node10" class="node">
<title>WFJ&#45;06</title>
<g id="a_node10"><a xlink:href="https://score-json.github.io/nlohmann_json/main/generated/WFJ.html#wfj-06" xlink:title="WFJ&#45;06: The service checks\nthat a JSON value must\nbe an object, array,\nnumber, or string, or\none of the lowercase\nliteral names false,\nnull, or true " target="_top">
<polygon fill="none" stroke="black" points="1326,-113 1120,-113 1120,0 1326,0 1326,-113"/>
<text text-anchor="middle" x="1223" y="-97.8" font-family="Open Sans" font-size="14.00">WFJ&#45;06: The service checks</text>
<text text-anchor="middle" x="1223" y="-82.8" font-family="Open Sans" font-size="14.00">that a JSON value must</text>
<text text-anchor="middle" x="1223" y="-67.8" font-family="Open Sans" font-size="14.00">be an object, array,</text>
<text text-anchor="middle" x="1223" y="-52.8" font-family="Open Sans" font-size="14.00">number, or string, or</text>
<text text-anchor="middle" x="1223" y="-37.8" font-family="Open Sans" font-size="14.00">one of the lowercase</text>
<text text-anchor="middle" x="1223" y="-22.8" font-family="Open Sans" font-size="14.00">literal names false,</text>
<text text-anchor="middle" x="1223" y="-7.8" font-family="Open Sans" font-size="14.00">null, or true </text>
</a>
</g>
</g>
<!-- JLEX&#45;01&#45;&gt;WFJ&#45;06 -->
<g id="edge7" class="edge">
<title>JLEX&#45;01&#45;&gt;WFJ&#45;06</title>
<path fill="none" stroke="black" d="M925.22,-256.91C975.03,-223.55 1063.77,-164.13 1131.46,-118.8"/>
<polygon fill="black" stroke="black" points="1133.66,-121.54 1140.02,-113.06 1129.77,-115.72 1133.66,-121.54"/>
</g>
<!-- WFJ&#45;07 -->
<g id="node11" class="node">
<title>WFJ&#45;07</title>
<g id="a_node11"><a xlink:href="https://score-json.github.io/nlohmann_json/main/_images/custom_WFJ-07_graph.svg" xlink:title="WFJ&#45;07: The service checks\nthat JSON is only serialized\nusing UTF&#45;8. " target="_top">
<polygon fill="none" stroke="black" points="1550,-83 1344,-83 1344,-30 1550,-30 1550,-83"/>
<text text-anchor="middle" x="1447" y="-67.8" font-family="Open Sans" font-size="14.00">WFJ&#45;07: The service checks</text>
<text text-anchor="middle" x="1447" y="-52.8" font-family="Open Sans" font-size="14.00">that JSON is only serialized</text>
<text text-anchor="middle" x="1447" y="-37.8" font-family="Open Sans" font-size="14.00">using UTF&#45;8. </text>
</a>
</g>
</g>
<!-- JLEX&#45;01&#45;&gt;WFJ&#45;07 -->
<g id="edge8" class="edge">
<title>JLEX&#45;01&#45;&gt;WFJ&#45;07</title>
<path fill="none" stroke="black" d="M961.22,-256.94C1050.82,-225.52 1205.59,-169.38 1335,-113 1352.71,-105.28 1371.64,-96.22 1388.81,-87.69"/>
<polygon fill="black" stroke="black" points="1390.78,-90.62 1398.15,-83.01 1387.64,-84.36 1390.78,-90.62"/>
</g>
<!-- WFJ&#45;08 -->
<g id="node12" class="node">
<title>WFJ&#45;08</title>
<g id="a_node12"><a xlink:href="https://score-json.github.io/nlohmann_json/main/_images/custom_WFJ-08_graph.svg" xlink:title="WFJ&#45;08: The service ignores\nbyte order marks. " target="_top">
<polygon fill="none" stroke="black" points="1777.5,-75.5 1568.5,-75.5 1568.5,-37.5 1777.5,-37.5 1777.5,-75.5"/>
<text text-anchor="middle" x="1673" y="-60.3" font-family="Open Sans" font-size="14.00">WFJ&#45;08: The service ignores</text>
<text text-anchor="middle" x="1673" y="-45.3" font-family="Open Sans" font-size="14.00">byte order marks. </text>
</a>
</g>
</g>
<!-- JLEX&#45;01&#45;&gt;WFJ&#45;08 -->
<g id="edge9" class="edge">
<title>JLEX&#45;01&#45;&gt;WFJ&#45;08</title>
<path fill="none" stroke="black" d="M1022.05,-256.99C1159.51,-229.04 1377.6,-179.23 1559,-113 1583.68,-103.99 1610.12,-91.32 1631.32,-80.36"/>
<polygon fill="black" stroke="black" points="1633.13,-83.36 1640.37,-75.62 1629.88,-77.16 1633.13,-83.36"/>
</g>
<!-- TA&#45;BEHAVIOURS -->
<g id="node3" class="node">
<title>TA&#45;BEHAVIOURS</title>
<g id="a_node3"><a xlink:href="https://score-json.github.io/nlohmann_json/main/_images/custom_TA-BEHAVIOURS_graph.svg" xlink:title="TA&#45;BEHAVIOURS: Expected\nor required behaviours\nfor nlohmann/json library\nare identified, specified,\nverified and validated\nbased on analysis. " target="_top">
<polygon fill="none" stroke="black" points="989,-552 785,-552 785,-454 989,-454 989,-552"/>
<text text-anchor="middle" x="887" y="-536.8" font-family="Open Sans" font-size="14.00">TA&#45;BEHAVIOURS: Expected</text>
<text text-anchor="middle" x="887" y="-521.8" font-family="Open Sans" font-size="14.00">or required behaviours</text>
<text text-anchor="middle" x="887" y="-506.8" font-family="Open Sans" font-size="14.00">for nlohmann/json library</text>
<text text-anchor="middle" x="887" y="-491.8" font-family="Open Sans" font-size="14.00">are identified, specified,</text>
<text text-anchor="middle" x="887" y="-476.8" font-family="Open Sans" font-size="14.00">verified and validated</text>
<text text-anchor="middle" x="887" y="-461.8" font-family="Open Sans" font-size="14.00">based on analysis. </text>
</a>
</g>
</g>
<!-- TA&#45;BEHAVIOURS&#45;&gt;JLEX&#45;01 -->
<g id="edge10" class="edge">
<title>TA&#45;BEHAVIOURS&#45;&gt;JLEX&#45;01</title>
<path fill="none" stroke="black" d="M887,-454C887,-413.58 887,-356.67 887,-320.18"/>
<polygon fill="black" stroke="black" points="890.5,-320.01 887,-310.01 883.5,-320.01 890.5,-320.01"/>
</g>
<!-- TT&#45;EXPECTATIONS&#45;&gt;TA&#45;BEHAVIOURS -->
<g id="edge11" class="edge">
<title>TT&#45;EXPECTATIONS&#45;&gt;TA&#45;BEHAVIOURS</title>
<path fill="none" stroke="black" d="M887,-695.72C887,-657.23 887,-603.2 887,-562.3"/>
<polygon fill="black" stroke="black" points="890.5,-562.2 887,-552.2 883.5,-562.2 890.5,-562.2"/>
</g>
</g>
</svg>
