<?xml version="1.0" encoding="UTF-8" standalone="no"?>
<!DOCTYPE svg PUBLIC "-//W3C//DTD SVG 1.1//EN"
 "http://www.w3.org/Graphics/SVG/1.1/DTD/svg11.dtd">
<!-- Generated by graphviz version 2.43.0 (0)
 -->
<!-- Title: G Pages: 1 -->
<svg width="1725pt" height="1029pt"
 viewBox="0.00 0.00 1725.00 1029.00" xmlns="http://www.w3.org/2000/svg" xmlns:xlink="http://www.w3.org/1999/xlink">
<g id="graph0" class="graph" transform="scale(1 1) rotate(0) translate(4 1025)">
<title>G</title>
<polygon fill="white" stroke="transparent" points="-4,4 -4,-1025 1721,-1025 1721,4 -4,4"/>
<!-- TRUSTABLE&#45;SOFTWARE -->
<g id="node1" class="node">
<title>TRUSTABLE&#45;SOFTWARE</title>
<g id="a_node1"><a xlink:href="https://score-json.github.io/nlohmann_json/main/_images/custom_TRUSTABLE-SOFTWARE_graph.svg" xlink:title="TRUSTABLE&#45;SOFTWARE: This\nrelease of JSON&#45;Library\nalso referred in the\ndocumentation as nlohmann/json\nlibrary is Trustable.\n" target="_top">
<polygon fill="none" stroke="black" points="993.5,-1021 745.5,-1021 745.5,-938 993.5,-938 993.5,-1021"/>
<text text-anchor="middle" x="869.5" y="-1005.8" font-family="Open Sans" font-size="14.00">TRUSTABLE&#45;SOFTWARE: This</text>
<text text-anchor="middle" x="869.5" y="-990.8" font-family="Open Sans" font-size="14.00">release of JSON&#45;Library</text>
<text text-anchor="middle" x="869.5" y="-975.8" font-family="Open Sans" font-size="14.00">also referred in the</text>
<text text-anchor="middle" x="869.5" y="-960.8" font-family="Open Sans" font-size="14.00">documentation as nlohmann/json</text>
<text text-anchor="middle" x="869.5" y="-945.8" font-family="Open Sans" font-size="14.00">library is Trustable.</text>
</a>
</g>
</g>
<!-- TT&#45;EXPECTATIONS -->
<g id="node11" class="node">
<title>TT&#45;EXPECTATIONS</title>
<g id="a_node11"><a xlink:href="https://score-json.github.io/nlohmann_json/main/_images/custom_TT-EXPECTATIONS_graph.svg" xlink:title="TT&#45;EXPECTATIONS: Documentation\nis provided within eclipse&#45;score/inc_nlohmann_json,\nspecifying what the nlohmann/json\nlibrary is expected to\ndo, and what it must\nnot do, and how this\nis verified. " target="_top">
<polygon fill="none" stroke="black" points="1057,-794 682,-794 682,-681 1057,-681 1057,-794"/>
<text text-anchor="middle" x="869.5" y="-778.8" font-family="Open Sans" font-size="14.00">TT&#45;EXPECTATIONS: Documentation</text>
<text text-anchor="middle" x="869.5" y="-763.8" font-family="Open Sans" font-size="14.00">is provided within eclipse&#45;score/inc_nlohmann_json,</text>
<text text-anchor="middle" x="869.5" y="-748.8" font-family="Open Sans" font-size="14.00">specifying what the nlohmann/json</text>
<text text-anchor="middle" x="869.5" y="-733.8" font-family="Open Sans" font-size="14.00">library is expected to</text>
<text text-anchor="middle" x="869.5" y="-718.8" font-family="Open Sans" font-size="14.00">do, and what it must</text>
<text text-anchor="middle" x="869.5" y="-703.8" font-family="Open Sans" font-size="14.00">not do, and how this</text>
<text text-anchor="middle" x="869.5" y="-688.8" font-family="Open Sans" font-size="14.00">is verified. </text>
</a>
</g>
</g>
<!-- TRUSTABLE&#45;SOFTWARE&#45;&gt;TT&#45;EXPECTATIONS -->
<g id="edge1" class="edge">
<title>TRUSTABLE&#45;SOFTWARE&#45;&gt;TT&#45;EXPECTATIONS</title>
<path fill="none" stroke="black" d="M869.5,-937.79C869.5,-901.26 869.5,-847 869.5,-804.32"/>
<polygon fill="black" stroke="black" points="873,-804.29 869.5,-794.29 866,-804.29 873,-804.29"/>
</g>
<!-- JLS&#45;24 -->
<g id="node2" class="node">
<title>JLS&#45;24</title>
<g id="a_node2"><a xlink:href="https://score-json.github.io/nlohmann_json/main/_images/custom_JLS-24_graph.svg" xlink:title="JLS&#45;24: The nlohmann/json\nlibrary recognizes malformed\nJSON and returns an exception.\n" target="_top">
<polygon fill="none" stroke="black" points="987,-280 752,-280 752,-227 987,-227 987,-280"/>
<text text-anchor="middle" x="869.5" y="-264.8" font-family="Open Sans" font-size="14.00">JLS&#45;24: The nlohmann/json</text>
<text text-anchor="middle" x="869.5" y="-249.8" font-family="Open Sans" font-size="14.00">library recognizes malformed</text>
<text text-anchor="middle" x="869.5" y="-234.8" font-family="Open Sans" font-size="14.00">JSON and returns an exception.</text>
</a>
</g>
</g>
<!-- NPF&#45;07.2 -->
<g id="node3" class="node">
<title>NPF&#45;07.2</title>
<g id="a_node3"><a xlink:href="https://score-json.github.io/nlohmann_json/main/generated/NPF.html#npf-07.2" xlink:title="NPF&#45;07.2: The service\nprovided by the nlohmann/json\nlibrary throws an exception\non ill&#45;formed UTF&#45;8 data.\n" target="_top">
<polygon fill="none" stroke="black" points="233,-75.5 0,-75.5 0,-7.5 233,-7.5 233,-75.5"/>
<text text-anchor="middle" x="116.5" y="-60.3" font-family="Open Sans" font-size="14.00">NPF&#45;07.2: The service</text>
<text text-anchor="middle" x="116.5" y="-45.3" font-family="Open Sans" font-size="14.00">provided by the nlohmann/json</text>
<text text-anchor="middle" x="116.5" y="-30.3" font-family="Open Sans" font-size="14.00">library throws an exception</text>
<text text-anchor="middle" x="116.5" y="-15.3" font-family="Open Sans" font-size="14.00">on ill&#45;formed UTF&#45;8 data.</text>
</a>
</g>
</g>
<!-- JLS&#45;24&#45;&gt;NPF&#45;07.2 -->
<g id="edge2" class="edge">
<title>JLS&#45;24&#45;&gt;NPF&#45;07.2</title>
<path fill="none" stroke="black" d="M768.73,-226.95C644.32,-195.03 426.49,-137.9 241.5,-83 236.64,-81.56 231.67,-80.06 226.67,-78.53"/>
<polygon fill="black" stroke="black" points="227.58,-75.15 217,-75.54 225.52,-81.83 227.58,-75.15"/>
</g>
<!-- TIJ&#45;01 -->
<g id="node5" class="node">
<title>TIJ&#45;01</title>
<g id="a_node5"><a xlink:href="https://score-json.github.io/nlohmann_json/main/_images/custom_TIJ-01_graph.svg" xlink:title="TIJ&#45;01: The parsing service\nprovided by the nlohmann/json\nlibrary throws an exception\non ill&#45;formed literal\nnames. " target="_top">
<polygon fill="none" stroke="black" points="484,-83 251,-83 251,0 484,0 484,-83"/>
<text text-anchor="middle" x="367.5" y="-67.8" font-family="Open Sans" font-size="14.00">TIJ&#45;01: The parsing service</text>
<text text-anchor="middle" x="367.5" y="-52.8" font-family="Open Sans" font-size="14.00">provided by the nlohmann/json</text>
<text text-anchor="middle" x="367.5" y="-37.8" font-family="Open Sans" font-size="14.00">library throws an exception</text>
<text text-anchor="middle" x="367.5" y="-22.8" font-family="Open Sans" font-size="14.00">on ill&#45;formed literal</text>
<text text-anchor="middle" x="367.5" y="-7.8" font-family="Open Sans" font-size="14.00">names. </text>
</a>
</g>
</g>
<!-- JLS&#45;24&#45;&gt;TIJ&#45;01 -->
<g id="edge3" class="edge">
<title>JLS&#45;24&#45;&gt;TIJ&#45;01</title>
<path fill="none" stroke="black" d="M808.45,-226.96C725.46,-192.25 575.77,-129.63 474.05,-87.07"/>
<polygon fill="black" stroke="black" points="475.25,-83.78 464.67,-83.15 472.55,-90.24 475.25,-83.78"/>
</g>
<!-- TIJ&#45;02 -->
<g id="node6" class="node">
<title>TIJ&#45;02</title>
<g id="a_node6"><a xlink:href="https://score-json.github.io/nlohmann_json/main/_images/custom_TIJ-02_graph.svg" xlink:title="TIJ&#45;02: The parsing service\nprovided by the nlohmann/json\nlibrary throws an exception\non ill&#45;formed numbers.\n" target="_top">
<polygon fill="none" stroke="black" points="735,-75.5 502,-75.5 502,-7.5 735,-7.5 735,-75.5"/>
<text text-anchor="middle" x="618.5" y="-60.3" font-family="Open Sans" font-size="14.00">TIJ&#45;02: The parsing service</text>
<text text-anchor="middle" x="618.5" y="-45.3" font-family="Open Sans" font-size="14.00">provided by the nlohmann/json</text>
<text text-anchor="middle" x="618.5" y="-30.3" font-family="Open Sans" font-size="14.00">library throws an exception</text>
<text text-anchor="middle" x="618.5" y="-15.3" font-family="Open Sans" font-size="14.00">on ill&#45;formed numbers.</text>
</a>
</g>
</g>
<!-- JLS&#45;24&#45;&gt;TIJ&#45;02 -->
<g id="edge4" class="edge">
<title>JLS&#45;24&#45;&gt;TIJ&#45;02</title>
<path fill="none" stroke="black" d="M838.72,-226.75C795.6,-190.68 716.82,-124.76 666.11,-82.33"/>
<polygon fill="black" stroke="black" points="668.14,-79.46 658.22,-75.73 663.64,-84.83 668.14,-79.46"/>
</g>
<!-- TIJ&#45;03 -->
<g id="node7" class="node">
<title>TIJ&#45;03</title>
<g id="a_node7"><a xlink:href="https://score-json.github.io/nlohmann_json/main/_images/custom_TIJ-03_graph.svg" xlink:title="TIJ&#45;03: The parsing service\nprovided by the nlohmann/json\nlibrary throws an exception\non ill&#45;formed strings.\n" target="_top">
<polygon fill="none" stroke="black" points="986,-75.5 753,-75.5 753,-7.5 986,-7.5 986,-75.5"/>
<text text-anchor="middle" x="869.5" y="-60.3" font-family="Open Sans" font-size="14.00">TIJ&#45;03: The parsing service</text>
<text text-anchor="middle" x="869.5" y="-45.3" font-family="Open Sans" font-size="14.00">provided by the nlohmann/json</text>
<text text-anchor="middle" x="869.5" y="-30.3" font-family="Open Sans" font-size="14.00">library throws an exception</text>
<text text-anchor="middle" x="869.5" y="-15.3" font-family="Open Sans" font-size="14.00">on ill&#45;formed strings.</text>
</a>
</g>
</g>
<!-- JLS&#45;24&#45;&gt;TIJ&#45;03 -->
<g id="edge5" class="edge">
<title>JLS&#45;24&#45;&gt;TIJ&#45;03</title>
<path fill="none" stroke="black" d="M869.5,-226.75C869.5,-191.64 869.5,-128.27 869.5,-85.79"/>
<polygon fill="black" stroke="black" points="873,-85.73 869.5,-75.73 866,-85.73 873,-85.73"/>
</g>
<!-- TIJ&#45;04 -->
<g id="node8" class="node">
<title>TIJ&#45;04</title>
<g id="a_node8"><a xlink:href="https://score-json.github.io/nlohmann_json/main/_images/custom_TIJ-04_graph.svg" xlink:title="TIJ&#45;04: The parsing service\nprovided by the nlohmann/json\nlibrary throws an exception\non ill&#45;formed arrays.\n" target="_top">
<polygon fill="none" stroke="black" points="1237,-75.5 1004,-75.5 1004,-7.5 1237,-7.5 1237,-75.5"/>
<text text-anchor="middle" x="1120.5" y="-60.3" font-family="Open Sans" font-size="14.00">TIJ&#45;04: The parsing service</text>
<text text-anchor="middle" x="1120.5" y="-45.3" font-family="Open Sans" font-size="14.00">provided by the nlohmann/json</text>
<text text-anchor="middle" x="1120.5" y="-30.3" font-family="Open Sans" font-size="14.00">library throws an exception</text>
<text text-anchor="middle" x="1120.5" y="-15.3" font-family="Open Sans" font-size="14.00">on ill&#45;formed arrays.</text>
</a>
</g>
</g>
<!-- JLS&#45;24&#45;&gt;TIJ&#45;04 -->
<g id="edge6" class="edge">
<title>JLS&#45;24&#45;&gt;TIJ&#45;04</title>
<path fill="none" stroke="black" d="M900.28,-226.75C943.4,-190.68 1022.18,-124.76 1072.89,-82.33"/>
<polygon fill="black" stroke="black" points="1075.36,-84.83 1080.78,-75.73 1070.86,-79.46 1075.36,-84.83"/>
</g>
<!-- TIJ&#45;05 -->
<g id="node9" class="node">
<title>TIJ&#45;05</title>
<g id="a_node9"><a xlink:href="https://score-json.github.io/nlohmann_json/main/_images/custom_TIJ-05_graph.svg" xlink:title="TIJ&#45;05: The parsing service\nprovided by the nlohmann/json\nlibrary throws an exception\non ill&#45;formed objects.\n" target="_top">
<polygon fill="none" stroke="black" points="1488,-75.5 1255,-75.5 1255,-7.5 1488,-7.5 1488,-75.5"/>
<text text-anchor="middle" x="1371.5" y="-60.3" font-family="Open Sans" font-size="14.00">TIJ&#45;05: The parsing service</text>
<text text-anchor="middle" x="1371.5" y="-45.3" font-family="Open Sans" font-size="14.00">provided by the nlohmann/json</text>
<text text-anchor="middle" x="1371.5" y="-30.3" font-family="Open Sans" font-size="14.00">library throws an exception</text>
<text text-anchor="middle" x="1371.5" y="-15.3" font-family="Open Sans" font-size="14.00">on ill&#45;formed objects.</text>
</a>
</g>
</g>
<!-- JLS&#45;24&#45;&gt;TIJ&#45;05 -->
<g id="edge7" class="edge">
<title>JLS&#45;24&#45;&gt;TIJ&#45;05</title>
<path fill="none" stroke="black" d="M930.55,-226.96C1018.6,-190.13 1181.76,-121.87 1283.02,-79.51"/>
<polygon fill="black" stroke="black" points="1284.44,-82.71 1292.32,-75.63 1281.74,-76.26 1284.44,-82.71"/>
</g>
<!-- TIJ&#45;06 -->
<g id="node10" class="node">
<title>TIJ&#45;06</title>
<g id="a_node10"><a xlink:href="https://score-json.github.io/nlohmann_json/main/_images/custom_TIJ-06_graph.svg" xlink:title="TIJ&#45;06: The service provided\nby the nlohmann/json\nlibrary recognises ill&#45;formed\nbyte&#45;order marks and\nthrows an exception.\n" target="_top">
<polygon fill="none" stroke="black" points="1717,-83 1506,-83 1506,0 1717,0 1717,-83"/>
<text text-anchor="middle" x="1611.5" y="-67.8" font-family="Open Sans" font-size="14.00">TIJ&#45;06: The service provided</text>
<text text-anchor="middle" x="1611.5" y="-52.8" font-family="Open Sans" font-size="14.00">by the nlohmann/json</text>
<text text-anchor="middle" x="1611.5" y="-37.8" font-family="Open Sans" font-size="14.00">library recognises ill&#45;formed</text>
<text text-anchor="middle" x="1611.5" y="-22.8" font-family="Open Sans" font-size="14.00">byte&#45;order marks and</text>
<text text-anchor="middle" x="1611.5" y="-7.8" font-family="Open Sans" font-size="14.00">throws an exception.</text>
</a>
</g>
</g>
<!-- JLS&#45;24&#45;&gt;TIJ&#45;06 -->
<g id="edge8" class="edge">
<title>JLS&#45;24&#45;&gt;TIJ&#45;06</title>
<path fill="none" stroke="black" d="M973.84,-226.98C1096.89,-196.29 1307.56,-141.88 1495.9,-83.45"/>
<polygon fill="black" stroke="black" points="1497.2,-86.71 1505.7,-80.4 1495.12,-80.03 1497.2,-86.71"/>
</g>
<!-- TA&#45;MISBEHAVIOURS -->
<g id="node4" class="node">
<title>TA&#45;MISBEHAVIOURS</title>
<g id="a_node4"><a xlink:href="https://score-json.github.io/nlohmann_json/main/_images/custom_TA-MISBEHAVIOURS_graph.svg" xlink:title="TA&#45;MISBEHAVIOURS: Prohibited\nmisbehaviours for the\nnlohmann/json library\nare identified, and mitigations\nare specified, verified\nand validated based on\nanalysis. " target="_top">
<polygon fill="none" stroke="black" points="987.5,-537 751.5,-537 751.5,-424 987.5,-424 987.5,-537"/>
<text text-anchor="middle" x="869.5" y="-521.8" font-family="Open Sans" font-size="14.00">TA&#45;MISBEHAVIOURS: Prohibited</text>
<text text-anchor="middle" x="869.5" y="-506.8" font-family="Open Sans" font-size="14.00">misbehaviours for the</text>
<text text-anchor="middle" x="869.5" y="-491.8" font-family="Open Sans" font-size="14.00">nlohmann/json library</text>
<text text-anchor="middle" x="869.5" y="-476.8" font-family="Open Sans" font-size="14.00">are identified, and mitigations</text>
<text text-anchor="middle" x="869.5" y="-461.8" font-family="Open Sans" font-size="14.00">are specified, verified</text>
<text text-anchor="middle" x="869.5" y="-446.8" font-family="Open Sans" font-size="14.00">and validated based on</text>
<text text-anchor="middle" x="869.5" y="-431.8" font-family="Open Sans" font-size="14.00">analysis. </text>
</a>
</g>
</g>
<!-- TA&#45;MISBEHAVIOURS&#45;&gt;JLS&#45;24 -->
<g id="edge9" class="edge">
<title>TA&#45;MISBEHAVIOURS&#45;&gt;JLS&#45;24</title>
<path fill="none" stroke="black" d="M869.5,-423.88C869.5,-382.07 869.5,-326.04 869.5,-290.09"/>
<polygon fill="black" stroke="black" points="873,-290.07 869.5,-280.07 866,-290.07 873,-290.07"/>
</g>
<!-- TT&#45;EXPECTATIONS&#45;&gt;TA&#45;MISBEHAVIOURS -->
<g id="edge10" class="edge">
<title>TT&#45;EXPECTATIONS&#45;&gt;TA&#45;MISBEHAVIOURS</title>
<path fill="none" stroke="black" d="M869.5,-680.85C869.5,-641.46 869.5,-588.47 869.5,-547.03"/>
<polygon fill="black" stroke="black" points="873,-547.03 869.5,-537.03 866,-547.03 873,-547.03"/>
</g>
</g>
</svg>
