<?xml version="1.0" encoding="UTF-8" standalone="no"?>
<!DOCTYPE svg PUBLIC "-//W3C//DTD SVG 1.1//EN"
 "http://www.w3.org/Graphics/SVG/1.1/DTD/svg11.dtd">
<!-- Generated by graphviz version 2.43.0 (0)
 -->
<!-- Title: G Pages: 1 -->
<svg width="1944pt" height="1483pt"
 viewBox="0.00 0.00 1944.00 1483.00" xmlns="http://www.w3.org/2000/svg" xmlns:xlink="http://www.w3.org/1999/xlink">
<g id="graph0" class="graph" transform="scale(1 1) rotate(0) translate(4 1479)">
<title>G</title>
<polygon fill="white" stroke="transparent" points="-4,4 -4,-1479 1940,-1479 1940,4 -4,4"/>
<!-- TRUSTABLE&#45;SOFTWARE -->
<g id="node1" class="node">
<title>TRUSTABLE&#45;SOFTWARE</title>
<g id="a_node1"><a xlink:href="https://score-json.github.io/nlohmann_json/main/_images/custom_TRUSTABLE-SOFTWARE_graph.svg" xlink:title="TRUSTABLE&#45;SOFTWARE: This\nrelease of JSON&#45;Library\nalso referred in the\ndocumentation as nlohmann/json\nlibrary is Trustable.\n" target="_top">
<polygon fill="none" stroke="black" points="1088.5,-1475 840.5,-1475 840.5,-1392 1088.5,-1392 1088.5,-1475"/>
<text text-anchor="middle" x="964.5" y="-1459.8" font-family="Open Sans" font-size="14.00">TRUSTABLE&#45;SOFTWARE: This</text>
<text text-anchor="middle" x="964.5" y="-1444.8" font-family="Open Sans" font-size="14.00">release of JSON&#45;Library</text>
<text text-anchor="middle" x="964.5" y="-1429.8" font-family="Open Sans" font-size="14.00">also referred in the</text>
<text text-anchor="middle" x="964.5" y="-1414.8" font-family="Open Sans" font-size="14.00">documentation as nlohmann/json</text>
<text text-anchor="middle" x="964.5" y="-1399.8" font-family="Open Sans" font-size="14.00">library is Trustable.</text>
</a>
</g>
</g>
<!-- TT&#45;EXPECTATIONS -->
<g id="node13" class="node">
<title>TT&#45;EXPECTATIONS</title>
<g id="a_node13"><a xlink:href="https://score-json.github.io/nlohmann_json/main/_images/custom_TT-EXPECTATIONS_graph.svg" xlink:title="TT&#45;EXPECTATIONS: Documentation\nis provided within eclipse&#45;score/inc_nlohmann_json,\nspecifying what the nlohmann/json\nlibrary is expected to\ndo, and what it must\nnot do, and how this\nis verified. " target="_top">
<polygon fill="none" stroke="black" points="1152,-1248 777,-1248 777,-1135 1152,-1135 1152,-1248"/>
<text text-anchor="middle" x="964.5" y="-1232.8" font-family="Open Sans" font-size="14.00">TT&#45;EXPECTATIONS: Documentation</text>
<text text-anchor="middle" x="964.5" y="-1217.8" font-family="Open Sans" font-size="14.00">is provided within eclipse&#45;score/inc_nlohmann_json,</text>
<text text-anchor="middle" x="964.5" y="-1202.8" font-family="Open Sans" font-size="14.00">specifying what the nlohmann/json</text>
<text text-anchor="middle" x="964.5" y="-1187.8" font-family="Open Sans" font-size="14.00">library is expected to</text>
<text text-anchor="middle" x="964.5" y="-1172.8" font-family="Open Sans" font-size="14.00">do, and what it must</text>
<text text-anchor="middle" x="964.5" y="-1157.8" font-family="Open Sans" font-size="14.00">not do, and how this</text>
<text text-anchor="middle" x="964.5" y="-1142.8" font-family="Open Sans" font-size="14.00">is verified. </text>
</a>
</g>
</g>
<!-- TRUSTABLE&#45;SOFTWARE&#45;&gt;TT&#45;EXPECTATIONS -->
<g id="edge1" class="edge">
<title>TRUSTABLE&#45;SOFTWARE&#45;&gt;TT&#45;EXPECTATIONS</title>
<path fill="none" stroke="black" d="M964.5,-1391.79C964.5,-1355.26 964.5,-1301 964.5,-1258.32"/>
<polygon fill="black" stroke="black" points="968,-1258.29 964.5,-1248.29 961,-1258.29 968,-1258.29"/>
</g>
<!-- JLEX&#45;01 -->
<g id="node2" class="node">
<title>JLEX&#45;01</title>
<g id="a_node2"><a xlink:href="https://score-json.github.io/nlohmann_json/main/_images/custom_JLEX-01_graph.svg" xlink:title="JLEX&#45;01: The requirement\nregarding [JSON Validation](https://eclipse&#45;score.github.io/score/main/modules/baselibs/json/docs/requirements/index.html#comp_req__json__validation)\nis fulfilled. " target="_top">
<polygon fill="none" stroke="black" points="1502,-749 427,-749 427,-696 1502,-696 1502,-749"/>
<text text-anchor="middle" x="964.5" y="-733.8" font-family="Open Sans" font-size="14.00">JLEX&#45;01: The requirement</text>
<text text-anchor="middle" x="964.5" y="-718.8" font-family="Open Sans" font-size="14.00">regarding [JSON Validation](https://eclipse&#45;score.github.io/score/main/modules/baselibs/json/docs/requirements/index.html#comp_req__json__validation)</text>
<text text-anchor="middle" x="964.5" y="-703.8" font-family="Open Sans" font-size="14.00">is fulfilled. </text>
</a>
</g>
</g>
<!-- WFJ&#45;04 -->
<g id="node14" class="node">
<title>WFJ&#45;04</title>
<g id="a_node14"><a xlink:href="https://score-json.github.io/nlohmann_json/main/_images/custom_WFJ-04_graph.svg" xlink:title="WFJ&#45;04: The service provided\nby the nlohmann/json\nlibrary checks the well&#45;formedness\nof array. " target="_top">
<polygon fill="none" stroke="black" points="1094.5,-552 834.5,-552 834.5,-484 1094.5,-484 1094.5,-552"/>
<text text-anchor="middle" x="964.5" y="-536.8" font-family="Open Sans" font-size="14.00">WFJ&#45;04: The service provided</text>
<text text-anchor="middle" x="964.5" y="-521.8" font-family="Open Sans" font-size="14.00">by the nlohmann/json</text>
<text text-anchor="middle" x="964.5" y="-506.8" font-family="Open Sans" font-size="14.00">library checks the well&#45;formedness</text>
<text text-anchor="middle" x="964.5" y="-491.8" font-family="Open Sans" font-size="14.00">of array. </text>
</a>
</g>
</g>
<!-- JLEX&#45;01&#45;&gt;WFJ&#45;04 -->
<g id="edge2" class="edge">
<title>JLEX&#45;01&#45;&gt;WFJ&#45;04</title>
<path fill="none" stroke="black" d="M964.5,-695.85C964.5,-662.27 964.5,-602.91 964.5,-562.3"/>
<polygon fill="black" stroke="black" points="968,-562.15 964.5,-552.15 961,-562.15 968,-562.15"/>
</g>
<!-- NJF&#45;05 -->
<g id="node3" class="node">
<title>NJF&#45;05</title>
<g id="a_node3"><a xlink:href="https://score-json.github.io/nlohmann_json/main/_images/custom_NJF-05_graph.svg" xlink:title="NJF&#45;05: The service provided\nby the nlohmann/json\nlibrary accepts and rejects\narrays according to RFC8259\nยง5. " target="_top">
<polygon fill="none" stroke="black" points="1073.5,-340 855.5,-340 855.5,-257 1073.5,-257 1073.5,-340"/>
<text text-anchor="middle" x="964.5" y="-324.8" font-family="Open Sans" font-size="14.00">NJF&#45;05: The service provided</text>
<text text-anchor="middle" x="964.5" y="-309.8" font-family="Open Sans" font-size="14.00">by the nlohmann/json</text>
<text text-anchor="middle" x="964.5" y="-294.8" font-family="Open Sans" font-size="14.00">library accepts and rejects</text>
<text text-anchor="middle" x="964.5" y="-279.8" font-family="Open Sans" font-size="14.00">arrays according to RFC8259</text>
<text text-anchor="middle" x="964.5" y="-264.8" font-family="Open Sans" font-size="14.00">ยง5. </text>
</a>
</g>
</g>
<!-- NJF&#45;05.1 -->
<g id="node4" class="node">
<title>NJF&#45;05.1</title>
<g id="a_node4"><a xlink:href="https://score-json.github.io/nlohmann_json/main/generated/NJF.html#njf-05.1" xlink:title="NJF&#45;05.1: The service\nprovided by the nlohmann/json\nlibrary accepts the empty\narray. " target="_top">
<polygon fill="none" stroke="black" points="233,-90.5 0,-90.5 0,-22.5 233,-22.5 233,-90.5"/>
<text text-anchor="middle" x="116.5" y="-75.3" font-family="Open Sans" font-size="14.00">NJF&#45;05.1: The service</text>
<text text-anchor="middle" x="116.5" y="-60.3" font-family="Open Sans" font-size="14.00">provided by the nlohmann/json</text>
<text text-anchor="middle" x="116.5" y="-45.3" font-family="Open Sans" font-size="14.00">library accepts the empty</text>
<text text-anchor="middle" x="116.5" y="-30.3" font-family="Open Sans" font-size="14.00">array. </text>
</a>
</g>
</g>
<!-- NJF&#45;05&#45;&gt;NJF&#45;05.1 -->
<g id="edge3" class="edge">
<title>NJF&#45;05&#45;&gt;NJF&#45;05.1</title>
<path fill="none" stroke="black" d="M855.34,-275.64C712.31,-245.64 454.61,-186.92 241.5,-113 226.17,-107.68 210.12,-101.25 194.83,-94.68"/>
<polygon fill="black" stroke="black" points="195.98,-91.36 185.42,-90.58 193.19,-97.78 195.98,-91.36"/>
</g>
<!-- NJF&#45;05.2 -->
<g id="node5" class="node">
<title>NJF&#45;05.2</title>
<g id="a_node5"><a xlink:href="https://score-json.github.io/nlohmann_json/main/generated/NJF.html#njf-05.2" xlink:title="NJF&#45;05.2: The service\nprovided by the nlohmann/json\nlibrary accepts the non&#45;empty\narrays. " target="_top">
<polygon fill="none" stroke="black" points="484,-90.5 251,-90.5 251,-22.5 484,-22.5 484,-90.5"/>
<text text-anchor="middle" x="367.5" y="-75.3" font-family="Open Sans" font-size="14.00">NJF&#45;05.2: The service</text>
<text text-anchor="middle" x="367.5" y="-60.3" font-family="Open Sans" font-size="14.00">provided by the nlohmann/json</text>
<text text-anchor="middle" x="367.5" y="-45.3" font-family="Open Sans" font-size="14.00">library accepts the non&#45;empty</text>
<text text-anchor="middle" x="367.5" y="-30.3" font-family="Open Sans" font-size="14.00">arrays. </text>
</a>
</g>
</g>
<!-- NJF&#45;05&#45;&gt;NJF&#45;05.2 -->
<g id="edge4" class="edge">
<title>NJF&#45;05&#45;&gt;NJF&#45;05.2</title>
<path fill="none" stroke="black" d="M857.37,-256.99C761.57,-220.42 617.56,-164.6 493.5,-113 479.56,-107.2 464.83,-100.89 450.54,-94.66"/>
<polygon fill="black" stroke="black" points="451.8,-91.39 441.23,-90.59 448.99,-97.8 451.8,-91.39"/>
</g>
<!-- NJF&#45;05.3 -->
<g id="node6" class="node">
<title>NJF&#45;05.3</title>
<g id="a_node6"><a xlink:href="https://score-json.github.io/nlohmann_json/main/generated/NJF.html#njf-05.3" xlink:title="NJF&#45;05.3: If every value\ncandidate of a properly\nbounded array is accepted\nas singleton, then the\nservice provided by the\nnlohmann/json library\naccepts the array. " target="_top">
<polygon fill="none" stroke="black" points="704.5,-113 502.5,-113 502.5,0 704.5,0 704.5,-113"/>
<text text-anchor="middle" x="603.5" y="-97.8" font-family="Open Sans" font-size="14.00">NJF&#45;05.3: If every value</text>
<text text-anchor="middle" x="603.5" y="-82.8" font-family="Open Sans" font-size="14.00">candidate of a properly</text>
<text text-anchor="middle" x="603.5" y="-67.8" font-family="Open Sans" font-size="14.00">bounded array is accepted</text>
<text text-anchor="middle" x="603.5" y="-52.8" font-family="Open Sans" font-size="14.00">as singleton, then the</text>
<text text-anchor="middle" x="603.5" y="-37.8" font-family="Open Sans" font-size="14.00">service provided by the</text>
<text text-anchor="middle" x="603.5" y="-22.8" font-family="Open Sans" font-size="14.00">nlohmann/json library</text>
<text text-anchor="middle" x="603.5" y="-7.8" font-family="Open Sans" font-size="14.00">accepts the array. </text>
</a>
</g>
</g>
<!-- NJF&#45;05&#45;&gt;NJF&#45;05.3 -->
<g id="edge5" class="edge">
<title>NJF&#45;05&#45;&gt;NJF&#45;05.3</title>
<path fill="none" stroke="black" d="M903.26,-256.79C846.37,-218.97 760.87,-162.13 695.73,-118.82"/>
<polygon fill="black" stroke="black" points="697.35,-115.69 687.08,-113.07 693.47,-121.52 697.35,-115.69"/>
</g>
<!-- NJF&#45;05.4 -->
<g id="node7" class="node">
<title>NJF&#45;05.4</title>
<g id="a_node7"><a xlink:href="https://score-json.github.io/nlohmann_json/main/generated/NJF.html#njf-05.4" xlink:title="NJF&#45;05.4: The service\nprovided by the nlohmann/json\nlibrary does not accept\nany improperly bounded\narrays. " target="_top">
<polygon fill="none" stroke="black" points="956,-98 723,-98 723,-15 956,-15 956,-98"/>
<text text-anchor="middle" x="839.5" y="-82.8" font-family="Open Sans" font-size="14.00">NJF&#45;05.4: The service</text>
<text text-anchor="middle" x="839.5" y="-67.8" font-family="Open Sans" font-size="14.00">provided by the nlohmann/json</text>
<text text-anchor="middle" x="839.5" y="-52.8" font-family="Open Sans" font-size="14.00">library does not accept</text>
<text text-anchor="middle" x="839.5" y="-37.8" font-family="Open Sans" font-size="14.00">any improperly bounded</text>
<text text-anchor="middle" x="839.5" y="-22.8" font-family="Open Sans" font-size="14.00">arrays. </text>
</a>
</g>
</g>
<!-- NJF&#45;05&#45;&gt;NJF&#45;05.4 -->
<g id="edge6" class="edge">
<title>NJF&#45;05&#45;&gt;NJF&#45;05.4</title>
<path fill="none" stroke="black" d="M943.3,-256.79C921.77,-215.46 888.42,-151.42 865.36,-107.14"/>
<polygon fill="black" stroke="black" points="868.32,-105.26 860.6,-98.01 862.11,-108.5 868.32,-105.26"/>
</g>
<!-- NJF&#45;05.5 -->
<g id="node8" class="node">
<title>NJF&#45;05.5</title>
<g id="a_node8"><a xlink:href="https://score-json.github.io/nlohmann_json/main/generated/NJF.html#njf-05.5" xlink:title="NJF&#45;05.5: The service\nprovided by the nlohmann/json\nlibrary does not accept\narrays with improper\nvalues. " target="_top">
<polygon fill="none" stroke="black" points="1207,-98 974,-98 974,-15 1207,-15 1207,-98"/>
<text text-anchor="middle" x="1090.5" y="-82.8" font-family="Open Sans" font-size="14.00">NJF&#45;05.5: The service</text>
<text text-anchor="middle" x="1090.5" y="-67.8" font-family="Open Sans" font-size="14.00">provided by the nlohmann/json</text>
<text text-anchor="middle" x="1090.5" y="-52.8" font-family="Open Sans" font-size="14.00">library does not accept</text>
<text text-anchor="middle" x="1090.5" y="-37.8" font-family="Open Sans" font-size="14.00">arrays with improper</text>
<text text-anchor="middle" x="1090.5" y="-22.8" font-family="Open Sans" font-size="14.00">values. </text>
</a>
</g>
</g>
<!-- NJF&#45;05&#45;&gt;NJF&#45;05.5 -->
<g id="edge7" class="edge">
<title>NJF&#45;05&#45;&gt;NJF&#45;05.5</title>
<path fill="none" stroke="black" d="M985.87,-256.79C1007.62,-215.37 1041.33,-151.16 1064.58,-106.87"/>
<polygon fill="black" stroke="black" points="1067.68,-108.49 1069.23,-98.01 1061.48,-105.24 1067.68,-108.49"/>
</g>
<!-- NJF&#45;05.6 -->
<g id="node9" class="node">
<title>NJF&#45;05.6</title>
<g id="a_node9"><a xlink:href="https://score-json.github.io/nlohmann_json/main/generated/NJF.html#njf-05.6" xlink:title="NJF&#45;05.6: The service\nprovided by the nlohmann/json\nlibrary accepts nested\narrays. " target="_top">
<polygon fill="none" stroke="black" points="1458,-90.5 1225,-90.5 1225,-22.5 1458,-22.5 1458,-90.5"/>
<text text-anchor="middle" x="1341.5" y="-75.3" font-family="Open Sans" font-size="14.00">NJF&#45;05.6: The service</text>
<text text-anchor="middle" x="1341.5" y="-60.3" font-family="Open Sans" font-size="14.00">provided by the nlohmann/json</text>
<text text-anchor="middle" x="1341.5" y="-45.3" font-family="Open Sans" font-size="14.00">library accepts nested</text>
<text text-anchor="middle" x="1341.5" y="-30.3" font-family="Open Sans" font-size="14.00">arrays. </text>
</a>
</g>
</g>
<!-- NJF&#45;05&#45;&gt;NJF&#45;05.6 -->
<g id="edge8" class="edge">
<title>NJF&#45;05&#45;&gt;NJF&#45;05.6</title>
<path fill="none" stroke="black" d="M1028.45,-256.79C1098.96,-211.9 1211.56,-140.22 1280.76,-96.17"/>
<polygon fill="black" stroke="black" points="1282.84,-98.99 1289.4,-90.67 1279.08,-93.09 1282.84,-98.99"/>
</g>
<!-- NJF&#45;05.6.0 -->
<g id="node10" class="node">
<title>NJF&#45;05.6.0</title>
<g id="a_node10"><a xlink:href="https://score-json.github.io/nlohmann_json/main/generated/NJF.html#njf-05.6.0" xlink:title="NJF&#45;05.6.0: The acceptance\nof nested arrays by the\nservice provided by the\nnlohmann/json library\ndoes not depend on the\ndepth of nesting. " target="_top">
<polygon fill="none" stroke="black" points="1684.5,-105.5 1476.5,-105.5 1476.5,-7.5 1684.5,-7.5 1684.5,-105.5"/>
<text text-anchor="middle" x="1580.5" y="-90.3" font-family="Open Sans" font-size="14.00">NJF&#45;05.6.0: The acceptance</text>
<text text-anchor="middle" x="1580.5" y="-75.3" font-family="Open Sans" font-size="14.00">of nested arrays by the</text>
<text text-anchor="middle" x="1580.5" y="-60.3" font-family="Open Sans" font-size="14.00">service provided by the</text>
<text text-anchor="middle" x="1580.5" y="-45.3" font-family="Open Sans" font-size="14.00">nlohmann/json library</text>
<text text-anchor="middle" x="1580.5" y="-30.3" font-family="Open Sans" font-size="14.00">does not depend on the</text>
<text text-anchor="middle" x="1580.5" y="-15.3" font-family="Open Sans" font-size="14.00">depth of nesting. </text>
</a>
</g>
</g>
<!-- NJF&#45;05&#45;&gt;NJF&#45;05.6.0 -->
<g id="edge10" class="edge">
<title>NJF&#45;05&#45;&gt;NJF&#45;05.6.0</title>
<path fill="none" stroke="black" d="M1073.72,-261.15C1176.48,-226.08 1334.08,-170.05 1467.5,-113 1470,-111.93 1472.53,-110.83 1475.08,-109.71"/>
<polygon fill="black" stroke="black" points="1476.64,-112.85 1484.34,-105.57 1473.78,-106.46 1476.64,-112.85"/>
</g>
<!-- NJF&#45;05.7 -->
<g id="node11" class="node">
<title>NJF&#45;05.7</title>
<g id="a_node11"><a xlink:href="https://score-json.github.io/nlohmann_json/main/_images/custom_NJF-05.7_graph.svg" xlink:title="NJF&#45;05.7: The service\nprovided by the nlohmann/json\nlibrary does only accept\ncomma as value separator.\n" target="_top">
<polygon fill="none" stroke="black" points="1936,-90.5 1703,-90.5 1703,-22.5 1936,-22.5 1936,-90.5"/>
<text text-anchor="middle" x="1819.5" y="-75.3" font-family="Open Sans" font-size="14.00">NJF&#45;05.7: The service</text>
<text text-anchor="middle" x="1819.5" y="-60.3" font-family="Open Sans" font-size="14.00">provided by the nlohmann/json</text>
<text text-anchor="middle" x="1819.5" y="-45.3" font-family="Open Sans" font-size="14.00">library does only accept</text>
<text text-anchor="middle" x="1819.5" y="-30.3" font-family="Open Sans" font-size="14.00">comma as value separator.</text>
</a>
</g>
</g>
<!-- NJF&#45;05&#45;&gt;NJF&#45;05.7 -->
<g id="edge9" class="edge">
<title>NJF&#45;05&#45;&gt;NJF&#45;05.7</title>
<path fill="none" stroke="black" d="M1073.61,-275.85C1217.62,-245.92 1478.08,-187.12 1693.5,-113 1708.94,-107.69 1725.12,-101.26 1740.53,-94.68"/>
<polygon fill="black" stroke="black" points="1742.23,-97.76 1750.02,-90.58 1739.45,-91.34 1742.23,-97.76"/>
</g>
<!-- TA&#45;BEHAVIOURS -->
<g id="node12" class="node">
<title>TA&#45;BEHAVIOURS</title>
<g id="a_node12"><a xlink:href="https://score-json.github.io/nlohmann_json/main/_images/custom_TA-BEHAVIOURS_graph.svg" xlink:title="TA&#45;BEHAVIOURS: Expected\nor required behaviours\nfor the nlohmann/json\nlibrary are identified,\nspecified, verified and\nvalidated based on analysis.\n" target="_top">
<polygon fill="none" stroke="black" points="1071.5,-991 857.5,-991 857.5,-893 1071.5,-893 1071.5,-991"/>
<text text-anchor="middle" x="964.5" y="-975.8" font-family="Open Sans" font-size="14.00">TA&#45;BEHAVIOURS: Expected</text>
<text text-anchor="middle" x="964.5" y="-960.8" font-family="Open Sans" font-size="14.00">or required behaviours</text>
<text text-anchor="middle" x="964.5" y="-945.8" font-family="Open Sans" font-size="14.00">for the nlohmann/json</text>
<text text-anchor="middle" x="964.5" y="-930.8" font-family="Open Sans" font-size="14.00">library are identified,</text>
<text text-anchor="middle" x="964.5" y="-915.8" font-family="Open Sans" font-size="14.00">specified, verified and</text>
<text text-anchor="middle" x="964.5" y="-900.8" font-family="Open Sans" font-size="14.00">validated based on analysis.</text>
</a>
</g>
</g>
<!-- TA&#45;BEHAVIOURS&#45;&gt;JLEX&#45;01 -->
<g id="edge11" class="edge">
<title>TA&#45;BEHAVIOURS&#45;&gt;JLEX&#45;01</title>
<path fill="none" stroke="black" d="M964.5,-893C964.5,-852.58 964.5,-795.67 964.5,-759.18"/>
<polygon fill="black" stroke="black" points="968,-759.01 964.5,-749.01 961,-759.01 968,-759.01"/>
</g>
<!-- TT&#45;EXPECTATIONS&#45;&gt;TA&#45;BEHAVIOURS -->
<g id="edge12" class="edge">
<title>TT&#45;EXPECTATIONS&#45;&gt;TA&#45;BEHAVIOURS</title>
<path fill="none" stroke="black" d="M964.5,-1134.96C964.5,-1095.23 964.5,-1041.87 964.5,-1001.49"/>
<polygon fill="black" stroke="black" points="968,-1001.26 964.5,-991.26 961,-1001.26 968,-1001.26"/>
</g>
<!-- WFJ&#45;04&#45;&gt;NJF&#45;05 -->
<g id="edge13" class="edge">
<title>WFJ&#45;04&#45;&gt;NJF&#45;05</title>
<path fill="none" stroke="black" d="M964.5,-483.97C964.5,-448.47 964.5,-391.61 964.5,-350.39"/>
<polygon fill="black" stroke="black" points="968,-350.27 964.5,-340.27 961,-350.27 968,-350.27"/>
</g>
</g>
</svg>
