<?xml version="1.0" encoding="UTF-8" standalone="no"?>
<!DOCTYPE svg PUBLIC "-//W3C//DTD SVG 1.1//EN"
 "http://www.w3.org/Graphics/SVG/1.1/DTD/svg11.dtd">
<!-- Generated by graphviz version 2.43.0 (0)
 -->
<!-- Title: G Pages: 1 -->
<svg width="3002pt" height="1513pt"
 viewBox="0.00 0.00 3002.00 1513.00" xmlns="http://www.w3.org/2000/svg" xmlns:xlink="http://www.w3.org/1999/xlink">
<g id="graph0" class="graph" transform="scale(1 1) rotate(0) translate(4 1509)">
<title>G</title>
<polygon fill="white" stroke="transparent" points="-4,4 -4,-1509 2998,-1509 2998,4 -4,4"/>
<!-- TRUSTABLE&#45;SOFTWARE -->
<g id="node1" class="node">
<title>TRUSTABLE&#45;SOFTWARE</title>
<g id="a_node1"><a xlink:href="https://score-json.github.io/nlohmann_json/main/_images/custom_TRUSTABLE-SOFTWARE_graph.svg" xlink:title="TRUSTABLE&#45;SOFTWARE: This\nrelease of JSON&#45;Library\nalso referred in the\ndocumentation as nlohmann/json\nlibrary is Trustable.\n" target="_top">
<polygon fill="none" stroke="black" points="1620.5,-1505 1372.5,-1505 1372.5,-1422 1620.5,-1422 1620.5,-1505"/>
<text text-anchor="middle" x="1496.5" y="-1489.8" font-family="Open Sans" font-size="14.00">TRUSTABLE&#45;SOFTWARE: This</text>
<text text-anchor="middle" x="1496.5" y="-1474.8" font-family="Open Sans" font-size="14.00">release of JSON&#45;Library</text>
<text text-anchor="middle" x="1496.5" y="-1459.8" font-family="Open Sans" font-size="14.00">also referred in the</text>
<text text-anchor="middle" x="1496.5" y="-1444.8" font-family="Open Sans" font-size="14.00">documentation as nlohmann/json</text>
<text text-anchor="middle" x="1496.5" y="-1429.8" font-family="Open Sans" font-size="14.00">library is Trustable.</text>
</a>
</g>
</g>
<!-- TT&#45;EXPECTATIONS -->
<g id="node18" class="node">
<title>TT&#45;EXPECTATIONS</title>
<g id="a_node18"><a xlink:href="https://score-json.github.io/nlohmann_json/main/_images/custom_TT-EXPECTATIONS_graph.svg" xlink:title="TT&#45;EXPECTATIONS: Documentation\nis provided within eclipse&#45;score/inc_nlohmann_json,\nspecifying what the nlohmann/json\nlibrary is expected to\ndo, and what it must\nnot do, and how this\nis verified. " target="_top">
<polygon fill="none" stroke="black" points="1684,-1278 1309,-1278 1309,-1165 1684,-1165 1684,-1278"/>
<text text-anchor="middle" x="1496.5" y="-1262.8" font-family="Open Sans" font-size="14.00">TT&#45;EXPECTATIONS: Documentation</text>
<text text-anchor="middle" x="1496.5" y="-1247.8" font-family="Open Sans" font-size="14.00">is provided within eclipse&#45;score/inc_nlohmann_json,</text>
<text text-anchor="middle" x="1496.5" y="-1232.8" font-family="Open Sans" font-size="14.00">specifying what the nlohmann/json</text>
<text text-anchor="middle" x="1496.5" y="-1217.8" font-family="Open Sans" font-size="14.00">library is expected to</text>
<text text-anchor="middle" x="1496.5" y="-1202.8" font-family="Open Sans" font-size="14.00">do, and what it must</text>
<text text-anchor="middle" x="1496.5" y="-1187.8" font-family="Open Sans" font-size="14.00">not do, and how this</text>
<text text-anchor="middle" x="1496.5" y="-1172.8" font-family="Open Sans" font-size="14.00">is verified. </text>
</a>
</g>
</g>
<!-- TRUSTABLE&#45;SOFTWARE&#45;&gt;TT&#45;EXPECTATIONS -->
<g id="edge1" class="edge">
<title>TRUSTABLE&#45;SOFTWARE&#45;&gt;TT&#45;EXPECTATIONS</title>
<path fill="none" stroke="black" d="M1496.5,-1421.79C1496.5,-1385.26 1496.5,-1331 1496.5,-1288.32"/>
<polygon fill="black" stroke="black" points="1500,-1288.29 1496.5,-1278.29 1493,-1288.29 1500,-1288.29"/>
</g>
<!-- JLEX&#45;02 -->
<g id="node2" class="node">
<title>JLEX&#45;02</title>
<g id="a_node2"><a xlink:href="https://score-json.github.io/nlohmann_json/main/_images/custom_JLEX-02_graph.svg" xlink:title="JLEX&#45;02: The requirement\nregarding [JSON Deserialization](https://eclipse&#45;score.github.io/score/main/modules/baselibs/json/docs/requirements/index.html#comp_req__json__deserialization)\nis fulfilled. " target="_top">
<polygon fill="none" stroke="black" points="2067.5,-779 925.5,-779 925.5,-726 2067.5,-726 2067.5,-779"/>
<text text-anchor="middle" x="1496.5" y="-763.8" font-family="Open Sans" font-size="14.00">JLEX&#45;02: The requirement</text>
<text text-anchor="middle" x="1496.5" y="-748.8" font-family="Open Sans" font-size="14.00">regarding [JSON Deserialization](https://eclipse&#45;score.github.io/score/main/modules/baselibs/json/docs/requirements/index.html#comp_req__json__deserialization)</text>
<text text-anchor="middle" x="1496.5" y="-733.8" font-family="Open Sans" font-size="14.00">is fulfilled. </text>
</a>
</g>
</g>
<!-- PJD&#45;03 -->
<g id="node16" class="node">
<title>PJD&#45;03</title>
<g id="a_node16"><a xlink:href="https://score-json.github.io/nlohmann_json/main/_images/custom_PJD-03_graph.svg" xlink:title="PJD&#45;03: The service provided\nby the nlohmann/json\nlibrary parses all texts\nthat conform to the JSON\ngrammar. " target="_top">
<polygon fill="none" stroke="black" points="1605,-582 1388,-582 1388,-499 1605,-499 1605,-582"/>
<text text-anchor="middle" x="1496.5" y="-566.8" font-family="Open Sans" font-size="14.00">PJD&#45;03: The service provided</text>
<text text-anchor="middle" x="1496.5" y="-551.8" font-family="Open Sans" font-size="14.00">by the nlohmann/json</text>
<text text-anchor="middle" x="1496.5" y="-536.8" font-family="Open Sans" font-size="14.00">library parses all texts</text>
<text text-anchor="middle" x="1496.5" y="-521.8" font-family="Open Sans" font-size="14.00">that conform to the JSON</text>
<text text-anchor="middle" x="1496.5" y="-506.8" font-family="Open Sans" font-size="14.00">grammar. </text>
</a>
</g>
</g>
<!-- JLEX&#45;02&#45;&gt;PJD&#45;03 -->
<g id="edge2" class="edge">
<title>JLEX&#45;02&#45;&gt;PJD&#45;03</title>
<path fill="none" stroke="black" d="M1496.5,-725.75C1496.5,-692.66 1496.5,-634.48 1496.5,-592.33"/>
<polygon fill="black" stroke="black" points="1500,-592.25 1496.5,-582.25 1493,-592.25 1500,-592.25"/>
</g>
<!-- NPF&#45;02 -->
<g id="node3" class="node">
<title>NPF&#45;02</title>
<g id="a_node3"><a xlink:href="https://score-json.github.io/nlohmann_json/main/_images/custom_NPF-02_graph.svg" xlink:title="NPF&#45;02: The service provided\nby the nlohmann/json\nlibrary parses numbers\naccording to RFC8259.\n" target="_top">
<polygon fill="none" stroke="black" points="1607,-355 1386,-355 1386,-287 1607,-287 1607,-355"/>
<text text-anchor="middle" x="1496.5" y="-339.8" font-family="Open Sans" font-size="14.00">NPF&#45;02: The service provided</text>
<text text-anchor="middle" x="1496.5" y="-324.8" font-family="Open Sans" font-size="14.00">by the nlohmann/json</text>
<text text-anchor="middle" x="1496.5" y="-309.8" font-family="Open Sans" font-size="14.00">library parses numbers</text>
<text text-anchor="middle" x="1496.5" y="-294.8" font-family="Open Sans" font-size="14.00">according to RFC8259.</text>
</a>
</g>
</g>
<!-- NPF&#45;02.1 -->
<g id="node4" class="node">
<title>NPF&#45;02.1</title>
<g id="a_node4"><a xlink:href="https://score-json.github.io/nlohmann_json/main/generated/NPF.html#npf-02.1" xlink:title="NPF&#45;02.1: The service\nprovided by the nlohmann/json\nlibrary parses integers\nwithout exponent within\nthe precision of int64_t.\n" target="_top">
<polygon fill="none" stroke="black" points="233,-113 0,-113 0,-30 233,-30 233,-113"/>
<text text-anchor="middle" x="116.5" y="-97.8" font-family="Open Sans" font-size="14.00">NPF&#45;02.1: The service</text>
<text text-anchor="middle" x="116.5" y="-82.8" font-family="Open Sans" font-size="14.00">provided by the nlohmann/json</text>
<text text-anchor="middle" x="116.5" y="-67.8" font-family="Open Sans" font-size="14.00">library parses integers</text>
<text text-anchor="middle" x="116.5" y="-52.8" font-family="Open Sans" font-size="14.00">without exponent within</text>
<text text-anchor="middle" x="116.5" y="-37.8" font-family="Open Sans" font-size="14.00">the precision of int64_t.</text>
</a>
</g>
</g>
<!-- NPF&#45;02&#45;&gt;NPF&#45;02.1 -->
<g id="edge3" class="edge">
<title>NPF&#45;02&#45;&gt;NPF&#45;02.1</title>
<path fill="none" stroke="black" d="M1385.91,-318.1C1163.33,-311.34 647.86,-280.75 241.5,-143 223.01,-136.73 204.14,-127.7 186.84,-118.18"/>
<polygon fill="black" stroke="black" points="188.37,-115.03 177.94,-113.17 184.94,-121.13 188.37,-115.03"/>
</g>
<!-- NPF&#45;02.10 -->
<g id="node5" class="node">
<title>NPF&#45;02.10</title>
<g id="a_node5"><a xlink:href="https://score-json.github.io/nlohmann_json/main/generated/NPF.html#npf-02.10" xlink:title="NPF&#45;02.10: The service\nprovided by the nlohmann/json\nlibrary ignores trailing\nzeroes after the decimal\npoint. " target="_top">
<polygon fill="none" stroke="black" points="484,-113 251,-113 251,-30 484,-30 484,-113"/>
<text text-anchor="middle" x="367.5" y="-97.8" font-family="Open Sans" font-size="14.00">NPF&#45;02.10: The service</text>
<text text-anchor="middle" x="367.5" y="-82.8" font-family="Open Sans" font-size="14.00">provided by the nlohmann/json</text>
<text text-anchor="middle" x="367.5" y="-67.8" font-family="Open Sans" font-size="14.00">library ignores trailing</text>
<text text-anchor="middle" x="367.5" y="-52.8" font-family="Open Sans" font-size="14.00">zeroes after the decimal</text>
<text text-anchor="middle" x="367.5" y="-37.8" font-family="Open Sans" font-size="14.00">point. </text>
</a>
</g>
</g>
<!-- NPF&#45;02&#45;&gt;NPF&#45;02.10 -->
<g id="edge12" class="edge">
<title>NPF&#45;02&#45;&gt;NPF&#45;02.10</title>
<path fill="none" stroke="black" d="M1385.67,-312.74C1197.23,-297.73 804.5,-254.78 492.5,-143 474.32,-136.49 455.7,-127.46 438.56,-118.03"/>
<polygon fill="black" stroke="black" points="440.18,-114.93 429.74,-113.08 436.75,-121.03 440.18,-114.93"/>
</g>
<!-- NPF&#45;02.11 -->
<g id="node6" class="node">
<title>NPF&#45;02.11</title>
<g id="a_node6"><a xlink:href="https://score-json.github.io/nlohmann_json/main/generated/NPF.html#npf-02.11" xlink:title="NPF&#45;02.11: The service\nprovided by the nlohmann/json\nlibrary parses numbers\nwithin the 64&#45;bit double\nrange but outside of\nthe double precision\nwithout throwing an exception\nand without guarantee\nof precision. " target="_top">
<polygon fill="none" stroke="black" points="735,-143 502,-143 502,0 735,0 735,-143"/>
<text text-anchor="middle" x="618.5" y="-127.8" font-family="Open Sans" font-size="14.00">NPF&#45;02.11: The service</text>
<text text-anchor="middle" x="618.5" y="-112.8" font-family="Open Sans" font-size="14.00">provided by the nlohmann/json</text>
<text text-anchor="middle" x="618.5" y="-97.8" font-family="Open Sans" font-size="14.00">library parses numbers</text>
<text text-anchor="middle" x="618.5" y="-82.8" font-family="Open Sans" font-size="14.00">within the 64&#45;bit double</text>
<text text-anchor="middle" x="618.5" y="-67.8" font-family="Open Sans" font-size="14.00">range but outside of</text>
<text text-anchor="middle" x="618.5" y="-52.8" font-family="Open Sans" font-size="14.00">the double precision</text>
<text text-anchor="middle" x="618.5" y="-37.8" font-family="Open Sans" font-size="14.00">without throwing an exception</text>
<text text-anchor="middle" x="618.5" y="-22.8" font-family="Open Sans" font-size="14.00">and without guarantee</text>
<text text-anchor="middle" x="618.5" y="-7.8" font-family="Open Sans" font-size="14.00">of precision. </text>
</a>
</g>
</g>
<!-- NPF&#45;02&#45;&gt;NPF&#45;02.11 -->
<g id="edge13" class="edge">
<title>NPF&#45;02&#45;&gt;NPF&#45;02.11</title>
<path fill="none" stroke="black" d="M1385.72,-304.03C1238.28,-280.56 970.8,-230.23 744.5,-143.23"/>
<polygon fill="black" stroke="black" points="745.7,-139.94 735.11,-139.59 743.17,-146.46 745.7,-139.94"/>
</g>
<!-- NPF&#45;02.12 -->
<g id="node7" class="node">
<title>NPF&#45;02.12</title>
<g id="a_node7"><a xlink:href="https://score-json.github.io/nlohmann_json/main/generated/NPF.html#npf-02.12" xlink:title="NPF&#45;02.12: The service\nprovided by the nlohmann/json\nlibrary ignores capitalisation\nof the exponent. " target="_top">
<polygon fill="none" stroke="black" points="986,-105.5 753,-105.5 753,-37.5 986,-37.5 986,-105.5"/>
<text text-anchor="middle" x="869.5" y="-90.3" font-family="Open Sans" font-size="14.00">NPF&#45;02.12: The service</text>
<text text-anchor="middle" x="869.5" y="-75.3" font-family="Open Sans" font-size="14.00">provided by the nlohmann/json</text>
<text text-anchor="middle" x="869.5" y="-60.3" font-family="Open Sans" font-size="14.00">library ignores capitalisation</text>
<text text-anchor="middle" x="869.5" y="-45.3" font-family="Open Sans" font-size="14.00">of the exponent. </text>
</a>
</g>
</g>
<!-- NPF&#45;02&#45;&gt;NPF&#45;02.12 -->
<g id="edge14" class="edge">
<title>NPF&#45;02&#45;&gt;NPF&#45;02.12</title>
<path fill="none" stroke="black" d="M1385.64,-287.05C1282.45,-254.96 1125.34,-202.41 994.5,-143 973.65,-133.53 951.65,-121.77 932.03,-110.59"/>
<polygon fill="black" stroke="black" points="933.6,-107.46 923.19,-105.5 930.11,-113.52 933.6,-107.46"/>
</g>
<!-- NPF&#45;02.2 -->
<g id="node8" class="node">
<title>NPF&#45;02.2</title>
<g id="a_node8"><a xlink:href="https://score-json.github.io/nlohmann_json/main/generated/NPF.html#npf-02.2" xlink:title="NPF&#45;02.2: The service\nprovided by the nlohmann/json\nlibrary parses integers\nwith exponent within\nthe precision of 64&#45;bit\ndouble. " target="_top">
<polygon fill="none" stroke="black" points="1237,-120.5 1004,-120.5 1004,-22.5 1237,-22.5 1237,-120.5"/>
<text text-anchor="middle" x="1120.5" y="-105.3" font-family="Open Sans" font-size="14.00">NPF&#45;02.2: The service</text>
<text text-anchor="middle" x="1120.5" y="-90.3" font-family="Open Sans" font-size="14.00">provided by the nlohmann/json</text>
<text text-anchor="middle" x="1120.5" y="-75.3" font-family="Open Sans" font-size="14.00">library parses integers</text>
<text text-anchor="middle" x="1120.5" y="-60.3" font-family="Open Sans" font-size="14.00">with exponent within</text>
<text text-anchor="middle" x="1120.5" y="-45.3" font-family="Open Sans" font-size="14.00">the precision of 64&#45;bit</text>
<text text-anchor="middle" x="1120.5" y="-30.3" font-family="Open Sans" font-size="14.00">double. </text>
</a>
</g>
</g>
<!-- NPF&#45;02&#45;&gt;NPF&#45;02.2 -->
<g id="edge4" class="edge">
<title>NPF&#45;02&#45;&gt;NPF&#45;02.2</title>
<path fill="none" stroke="black" d="M1446.18,-286.88C1383.75,-245.78 1276.48,-175.17 1202.2,-126.28"/>
<polygon fill="black" stroke="black" points="1204.04,-123.3 1193.76,-120.72 1200.19,-129.14 1204.04,-123.3"/>
</g>
<!-- NPF&#45;02.3 -->
<g id="node9" class="node">
<title>NPF&#45;02.3</title>
<g id="a_node9"><a xlink:href="https://score-json.github.io/nlohmann_json/main/generated/NPF.html#npf-02.3" xlink:title="NPF&#45;02.3: The service\nprovided by the nlohmann/json\nlibrary parses floating\npoint values without\nexponent within the precision\nof 64&#45;bit double. " target="_top">
<polygon fill="none" stroke="black" points="1488,-120.5 1255,-120.5 1255,-22.5 1488,-22.5 1488,-120.5"/>
<text text-anchor="middle" x="1371.5" y="-105.3" font-family="Open Sans" font-size="14.00">NPF&#45;02.3: The service</text>
<text text-anchor="middle" x="1371.5" y="-90.3" font-family="Open Sans" font-size="14.00">provided by the nlohmann/json</text>
<text text-anchor="middle" x="1371.5" y="-75.3" font-family="Open Sans" font-size="14.00">library parses floating</text>
<text text-anchor="middle" x="1371.5" y="-60.3" font-family="Open Sans" font-size="14.00">point values without</text>
<text text-anchor="middle" x="1371.5" y="-45.3" font-family="Open Sans" font-size="14.00">exponent within the precision</text>
<text text-anchor="middle" x="1371.5" y="-30.3" font-family="Open Sans" font-size="14.00">of 64&#45;bit double. </text>
</a>
</g>
</g>
<!-- NPF&#45;02&#45;&gt;NPF&#45;02.3 -->
<g id="edge5" class="edge">
<title>NPF&#45;02&#45;&gt;NPF&#45;02.3</title>
<path fill="none" stroke="black" d="M1479.77,-286.88C1459.52,-246.78 1425.08,-178.59 1400.48,-129.89"/>
<polygon fill="black" stroke="black" points="1403.49,-128.07 1395.86,-120.72 1397.24,-131.23 1403.49,-128.07"/>
</g>
<!-- NPF&#45;02.4 -->
<g id="node10" class="node">
<title>NPF&#45;02.4</title>
<g id="a_node10"><a xlink:href="https://score-json.github.io/nlohmann_json/main/generated/NPF.html#npf-02.4" xlink:title="NPF&#45;02.4: The service\nprovided by the nlohmann/json\nlibrary parses floating\npoint values with exponent\nwithin the precision\nof 64&#45;bit double. " target="_top">
<polygon fill="none" stroke="black" points="1739,-120.5 1506,-120.5 1506,-22.5 1739,-22.5 1739,-120.5"/>
<text text-anchor="middle" x="1622.5" y="-105.3" font-family="Open Sans" font-size="14.00">NPF&#45;02.4: The service</text>
<text text-anchor="middle" x="1622.5" y="-90.3" font-family="Open Sans" font-size="14.00">provided by the nlohmann/json</text>
<text text-anchor="middle" x="1622.5" y="-75.3" font-family="Open Sans" font-size="14.00">library parses floating</text>
<text text-anchor="middle" x="1622.5" y="-60.3" font-family="Open Sans" font-size="14.00">point values with exponent</text>
<text text-anchor="middle" x="1622.5" y="-45.3" font-family="Open Sans" font-size="14.00">within the precision</text>
<text text-anchor="middle" x="1622.5" y="-30.3" font-family="Open Sans" font-size="14.00">of 64&#45;bit double. </text>
</a>
</g>
</g>
<!-- NPF&#45;02&#45;&gt;NPF&#45;02.4 -->
<g id="edge6" class="edge">
<title>NPF&#45;02&#45;&gt;NPF&#45;02.4</title>
<path fill="none" stroke="black" d="M1513.36,-286.88C1533.77,-246.78 1568.49,-178.59 1593.29,-129.89"/>
<polygon fill="black" stroke="black" points="1596.53,-131.22 1597.95,-120.72 1590.29,-128.05 1596.53,-131.22"/>
</g>
<!-- NPF&#45;02.5 -->
<g id="node11" class="node">
<title>NPF&#45;02.5</title>
<g id="a_node11"><a xlink:href="https://score-json.github.io/nlohmann_json/main/generated/NPF.html#npf-02.5" xlink:title="NPF&#45;02.5: The service\nprovided by the nlohmann/json\nlibrary ignores leading\nzeroes in the exponent.\n" target="_top">
<polygon fill="none" stroke="black" points="1990,-105.5 1757,-105.5 1757,-37.5 1990,-37.5 1990,-105.5"/>
<text text-anchor="middle" x="1873.5" y="-90.3" font-family="Open Sans" font-size="14.00">NPF&#45;02.5: The service</text>
<text text-anchor="middle" x="1873.5" y="-75.3" font-family="Open Sans" font-size="14.00">provided by the nlohmann/json</text>
<text text-anchor="middle" x="1873.5" y="-60.3" font-family="Open Sans" font-size="14.00">library ignores leading</text>
<text text-anchor="middle" x="1873.5" y="-45.3" font-family="Open Sans" font-size="14.00">zeroes in the exponent.</text>
</a>
</g>
</g>
<!-- NPF&#45;02&#45;&gt;NPF&#45;02.5 -->
<g id="edge7" class="edge">
<title>NPF&#45;02&#45;&gt;NPF&#45;02.5</title>
<path fill="none" stroke="black" d="M1546.95,-286.88C1616.27,-241.37 1740.71,-159.68 1814.33,-111.35"/>
<polygon fill="black" stroke="black" points="1816.61,-114.04 1823.05,-105.62 1812.77,-108.19 1816.61,-114.04"/>
</g>
<!-- NPF&#45;02.6 -->
<g id="node12" class="node">
<title>NPF&#45;02.6</title>
<g id="a_node12"><a xlink:href="https://score-json.github.io/nlohmann_json/main/generated/NPF.html#npf-02.6" xlink:title="NPF&#45;02.6: The service\nprovided by the nlohmann/json\nlibrary parses integers\nwithin IEEE 754&#45;2008\nbinary64. " target="_top">
<polygon fill="none" stroke="black" points="2241,-113 2008,-113 2008,-30 2241,-30 2241,-113"/>
<text text-anchor="middle" x="2124.5" y="-97.8" font-family="Open Sans" font-size="14.00">NPF&#45;02.6: The service</text>
<text text-anchor="middle" x="2124.5" y="-82.8" font-family="Open Sans" font-size="14.00">provided by the nlohmann/json</text>
<text text-anchor="middle" x="2124.5" y="-67.8" font-family="Open Sans" font-size="14.00">library parses integers</text>
<text text-anchor="middle" x="2124.5" y="-52.8" font-family="Open Sans" font-size="14.00">within IEEE 754&#45;2008</text>
<text text-anchor="middle" x="2124.5" y="-37.8" font-family="Open Sans" font-size="14.00">binary64. </text>
</a>
</g>
</g>
<!-- NPF&#45;02&#45;&gt;NPF&#45;02.6 -->
<g id="edge8" class="edge">
<title>NPF&#45;02&#45;&gt;NPF&#45;02.6</title>
<path fill="none" stroke="black" d="M1607.09,-287.24C1710.48,-255.18 1868.2,-202.57 1999.5,-143 2015.77,-135.62 2032.74,-126.84 2048.73,-118.02"/>
<polygon fill="black" stroke="black" points="2050.48,-121.06 2057.51,-113.13 2047.07,-114.94 2050.48,-121.06"/>
</g>
<!-- NPF&#45;02.7 -->
<g id="node13" class="node">
<title>NPF&#45;02.7</title>
<g id="a_node13"><a xlink:href="https://score-json.github.io/nlohmann_json/main/generated/NPF.html#npf-02.7" xlink:title="NPF&#45;02.7: The service\nprovided by the nlohmann/json\nlibrary ignores leading\nand trailing whitespace.\n" target="_top">
<polygon fill="none" stroke="black" points="2492,-105.5 2259,-105.5 2259,-37.5 2492,-37.5 2492,-105.5"/>
<text text-anchor="middle" x="2375.5" y="-90.3" font-family="Open Sans" font-size="14.00">NPF&#45;02.7: The service</text>
<text text-anchor="middle" x="2375.5" y="-75.3" font-family="Open Sans" font-size="14.00">provided by the nlohmann/json</text>
<text text-anchor="middle" x="2375.5" y="-60.3" font-family="Open Sans" font-size="14.00">library ignores leading</text>
<text text-anchor="middle" x="2375.5" y="-45.3" font-family="Open Sans" font-size="14.00">and trailing whitespace.</text>
</a>
</g>
</g>
<!-- NPF&#45;02&#45;&gt;NPF&#45;02.7 -->
<g id="edge9" class="edge">
<title>NPF&#45;02&#45;&gt;NPF&#45;02.7</title>
<path fill="none" stroke="black" d="M1607.11,-304.1C1756.72,-280.36 2030.2,-228.97 2250.5,-143 2272.64,-134.36 2295.63,-122.37 2315.77,-110.73"/>
<polygon fill="black" stroke="black" points="2317.66,-113.68 2324.51,-105.6 2314.12,-107.64 2317.66,-113.68"/>
</g>
<!-- NPF&#45;02.8 -->
<g id="node14" class="node">
<title>NPF&#45;02.8</title>
<g id="a_node14"><a xlink:href="https://score-json.github.io/nlohmann_json/main/generated/NPF.html#npf-02.8" xlink:title="NPF&#45;02.8: The service\nprovided by the nlohmann/json\nlibrary ignores one singular\nleading plus of the exponent.\n" target="_top">
<polygon fill="none" stroke="black" points="2743,-105.5 2510,-105.5 2510,-37.5 2743,-37.5 2743,-105.5"/>
<text text-anchor="middle" x="2626.5" y="-90.3" font-family="Open Sans" font-size="14.00">NPF&#45;02.8: The service</text>
<text text-anchor="middle" x="2626.5" y="-75.3" font-family="Open Sans" font-size="14.00">provided by the nlohmann/json</text>
<text text-anchor="middle" x="2626.5" y="-60.3" font-family="Open Sans" font-size="14.00">library ignores one singular</text>
<text text-anchor="middle" x="2626.5" y="-45.3" font-family="Open Sans" font-size="14.00">leading plus of the exponent.</text>
</a>
</g>
</g>
<!-- NPF&#45;02&#45;&gt;NPF&#45;02.8 -->
<g id="edge10" class="edge">
<title>NPF&#45;02&#45;&gt;NPF&#45;02.8</title>
<path fill="none" stroke="black" d="M1607.06,-312.79C1795.54,-297.84 2188.98,-254.93 2501.5,-143 2524.28,-134.84 2547.77,-122.72 2568.15,-110.83"/>
<polygon fill="black" stroke="black" points="2570.18,-113.7 2576.98,-105.57 2566.6,-107.68 2570.18,-113.7"/>
</g>
<!-- NPF&#45;02.9 -->
<g id="node15" class="node">
<title>NPF&#45;02.9</title>
<g id="a_node15"><a xlink:href="https://score-json.github.io/nlohmann_json/main/generated/NPF.html#npf-02.9" xlink:title="NPF&#45;02.9: The service\nprovided by the nlohmann/json\nlibrary parses floating\npoint numbers within\nIEEE 754&#45;2008 binary64\nstandard. " target="_top">
<polygon fill="none" stroke="black" points="2994,-120.5 2761,-120.5 2761,-22.5 2994,-22.5 2994,-120.5"/>
<text text-anchor="middle" x="2877.5" y="-105.3" font-family="Open Sans" font-size="14.00">NPF&#45;02.9: The service</text>
<text text-anchor="middle" x="2877.5" y="-90.3" font-family="Open Sans" font-size="14.00">provided by the nlohmann/json</text>
<text text-anchor="middle" x="2877.5" y="-75.3" font-family="Open Sans" font-size="14.00">library parses floating</text>
<text text-anchor="middle" x="2877.5" y="-60.3" font-family="Open Sans" font-size="14.00">point numbers within</text>
<text text-anchor="middle" x="2877.5" y="-45.3" font-family="Open Sans" font-size="14.00">IEEE 754&#45;2008 binary64</text>
<text text-anchor="middle" x="2877.5" y="-30.3" font-family="Open Sans" font-size="14.00">standard. </text>
</a>
</g>
</g>
<!-- NPF&#45;02&#45;&gt;NPF&#45;02.9 -->
<g id="edge11" class="edge">
<title>NPF&#45;02&#45;&gt;NPF&#45;02.9</title>
<path fill="none" stroke="black" d="M1607.18,-318.12C1829.94,-311.38 2345.81,-280.83 2752.5,-143 2766.21,-138.35 2780.13,-132.19 2793.47,-125.43"/>
<polygon fill="black" stroke="black" points="2795.35,-128.39 2802.6,-120.66 2792.11,-122.19 2795.35,-128.39"/>
</g>
<!-- PJD&#45;03&#45;&gt;NPF&#45;02 -->
<g id="edge15" class="edge">
<title>PJD&#45;03&#45;&gt;NPF&#45;02</title>
<path fill="none" stroke="black" d="M1496.5,-498.85C1496.5,-460.97 1496.5,-404.66 1496.5,-365.8"/>
<polygon fill="black" stroke="black" points="1500,-365.33 1496.5,-355.33 1493,-365.33 1500,-365.33"/>
</g>
<!-- TA&#45;BEHAVIOURS -->
<g id="node17" class="node">
<title>TA&#45;BEHAVIOURS</title>
<g id="a_node17"><a xlink:href="https://score-json.github.io/nlohmann_json/main/_images/custom_TA-BEHAVIOURS_graph.svg" xlink:title="TA&#45;BEHAVIOURS: Expected\nor required behaviours\nfor the nlohmann/json\nlibrary are identified,\nspecified, verified and\nvalidated based on analysis.\n" target="_top">
<polygon fill="none" stroke="black" points="1603.5,-1021 1389.5,-1021 1389.5,-923 1603.5,-923 1603.5,-1021"/>
<text text-anchor="middle" x="1496.5" y="-1005.8" font-family="Open Sans" font-size="14.00">TA&#45;BEHAVIOURS: Expected</text>
<text text-anchor="middle" x="1496.5" y="-990.8" font-family="Open Sans" font-size="14.00">or required behaviours</text>
<text text-anchor="middle" x="1496.5" y="-975.8" font-family="Open Sans" font-size="14.00">for the nlohmann/json</text>
<text text-anchor="middle" x="1496.5" y="-960.8" font-family="Open Sans" font-size="14.00">library are identified,</text>
<text text-anchor="middle" x="1496.5" y="-945.8" font-family="Open Sans" font-size="14.00">specified, verified and</text>
<text text-anchor="middle" x="1496.5" y="-930.8" font-family="Open Sans" font-size="14.00">validated based on analysis.</text>
</a>
</g>
</g>
<!-- TA&#45;BEHAVIOURS&#45;&gt;JLEX&#45;02 -->
<g id="edge16" class="edge">
<title>TA&#45;BEHAVIOURS&#45;&gt;JLEX&#45;02</title>
<path fill="none" stroke="black" d="M1496.5,-923C1496.5,-882.58 1496.5,-825.67 1496.5,-789.18"/>
<polygon fill="black" stroke="black" points="1500,-789.01 1496.5,-779.01 1493,-789.01 1500,-789.01"/>
</g>
<!-- TT&#45;EXPECTATIONS&#45;&gt;TA&#45;BEHAVIOURS -->
<g id="edge17" class="edge">
<title>TT&#45;EXPECTATIONS&#45;&gt;TA&#45;BEHAVIOURS</title>
<path fill="none" stroke="black" d="M1496.5,-1164.96C1496.5,-1125.23 1496.5,-1071.87 1496.5,-1031.49"/>
<polygon fill="black" stroke="black" points="1500,-1031.26 1496.5,-1021.26 1493,-1031.26 1500,-1031.26"/>
</g>
</g>
</svg>
