<?xml version="1.0" encoding="UTF-8" standalone="no"?>
<!DOCTYPE svg PUBLIC "-//W3C//DTD SVG 1.1//EN"
 "http://www.w3.org/Graphics/SVG/1.1/DTD/svg11.dtd">
<!-- Generated by graphviz version 2.43.0 (0)
 -->
<!-- Title: G Pages: 1 -->
<svg width="2812pt" height="1468pt"
 viewBox="0.00 0.00 2812.00 1468.00" xmlns="http://www.w3.org/2000/svg" xmlns:xlink="http://www.w3.org/1999/xlink">
<g id="graph0" class="graph" transform="scale(1 1) rotate(0) translate(4 1464)">
<title>G</title>
<polygon fill="white" stroke="transparent" points="-4,4 -4,-1464 2808,-1464 2808,4 -4,4"/>
<!-- TRUSTABLE&#45;SOFTWARE -->
<g id="node1" class="node">
<title>TRUSTABLE&#45;SOFTWARE</title>
<g id="a_node1"><a xlink:href="https://score-json.github.io/nlohmann_json/main/_images/custom_TRUSTABLE-SOFTWARE_graph.svg" xlink:title="TRUSTABLE&#45;SOFTWARE: This\nrelease of JSON&#45;Library\nalso reffered in the\ndocumentation as nlohmann/json\nlibrary is Trustable.\n" target="_top">
<polygon fill="none" stroke="black" points="1528,-1460 1280,-1460 1280,-1377 1528,-1377 1528,-1460"/>
<text text-anchor="middle" x="1404" y="-1444.8" font-family="Open Sans" font-size="14.00">TRUSTABLE&#45;SOFTWARE: This</text>
<text text-anchor="middle" x="1404" y="-1429.8" font-family="Open Sans" font-size="14.00">release of JSON&#45;Library</text>
<text text-anchor="middle" x="1404" y="-1414.8" font-family="Open Sans" font-size="14.00">also reffered in the</text>
<text text-anchor="middle" x="1404" y="-1399.8" font-family="Open Sans" font-size="14.00">documentation as nlohmann/json</text>
<text text-anchor="middle" x="1404" y="-1384.8" font-family="Open Sans" font-size="14.00">library is Trustable.</text>
</a>
</g>
</g>
<!-- TT&#45;EXPECTATIONS -->
<g id="node19" class="node">
<title>TT&#45;EXPECTATIONS</title>
<g id="a_node19"><a xlink:href="https://score-json.github.io/nlohmann_json/main/_images/custom_TT-EXPECTATIONS_graph.svg" xlink:title="TT&#45;EXPECTATIONS: Documentation\nis provided, specifying\nwhat nlohmann/json library\nis expected to do, and\nwhat it must not do,\nand how this is verified.\n" target="_top">
<polygon fill="none" stroke="black" points="1532.5,-1233 1275.5,-1233 1275.5,-1135 1532.5,-1135 1532.5,-1233"/>
<text text-anchor="middle" x="1404" y="-1217.8" font-family="Open Sans" font-size="14.00">TT&#45;EXPECTATIONS: Documentation</text>
<text text-anchor="middle" x="1404" y="-1202.8" font-family="Open Sans" font-size="14.00">is provided, specifying</text>
<text text-anchor="middle" x="1404" y="-1187.8" font-family="Open Sans" font-size="14.00">what nlohmann/json library</text>
<text text-anchor="middle" x="1404" y="-1172.8" font-family="Open Sans" font-size="14.00">is expected to do, and</text>
<text text-anchor="middle" x="1404" y="-1157.8" font-family="Open Sans" font-size="14.00">what it must not do,</text>
<text text-anchor="middle" x="1404" y="-1142.8" font-family="Open Sans" font-size="14.00">and how this is verified.</text>
</a>
</g>
</g>
<!-- TRUSTABLE&#45;SOFTWARE&#45;&gt;TT&#45;EXPECTATIONS -->
<g id="edge1" class="edge">
<title>TRUSTABLE&#45;SOFTWARE&#45;&gt;TT&#45;EXPECTATIONS</title>
<path fill="none" stroke="black" d="M1404,-1376.74C1404,-1339.88 1404,-1285.18 1404,-1243.63"/>
<polygon fill="black" stroke="black" points="1407.5,-1243.37 1404,-1233.37 1400.5,-1243.37 1407.5,-1243.37"/>
</g>
<!-- AOU&#45;22 -->
<g id="node2" class="node">
<title>AOU&#45;22</title>
<g id="a_node2"><a xlink:href="https://score-json.github.io/nlohmann_json/main/generated/AOU.html#aou-22" xlink:title="AOU&#45;22: The integrator\nshall ensure that numbers\nare written in base 10,\nand that exceptions and\nmisbehaviours in case\nthat any other base is\nused are properly handled\nand mitigated, whenever\na number is parsed by\nnlohmann/json. " target="_top">
<polygon fill="none" stroke="black" points="200,-158 0,-158 0,0 200,0 200,-158"/>
<text text-anchor="middle" x="100" y="-142.8" font-family="Open Sans" font-size="14.00">AOU&#45;22: The integrator</text>
<text text-anchor="middle" x="100" y="-127.8" font-family="Open Sans" font-size="14.00">shall ensure that numbers</text>
<text text-anchor="middle" x="100" y="-112.8" font-family="Open Sans" font-size="14.00">are written in base 10,</text>
<text text-anchor="middle" x="100" y="-97.8" font-family="Open Sans" font-size="14.00">and that exceptions and</text>
<text text-anchor="middle" x="100" y="-82.8" font-family="Open Sans" font-size="14.00">misbehaviours in case</text>
<text text-anchor="middle" x="100" y="-67.8" font-family="Open Sans" font-size="14.00">that any other base is</text>
<text text-anchor="middle" x="100" y="-52.8" font-family="Open Sans" font-size="14.00">used are properly handled</text>
<text text-anchor="middle" x="100" y="-37.8" font-family="Open Sans" font-size="14.00">and mitigated, whenever</text>
<text text-anchor="middle" x="100" y="-22.8" font-family="Open Sans" font-size="14.00">a number is parsed by</text>
<text text-anchor="middle" x="100" y="-7.8" font-family="Open Sans" font-size="14.00">nlohmann/json. </text>
</a>
</g>
</g>
<!-- JLEX&#45;02 -->
<g id="node3" class="node">
<title>JLEX&#45;02</title>
<g id="a_node3"><a xlink:href="https://score-json.github.io/nlohmann_json/main/_images/custom_JLEX-02_graph.svg" xlink:title="JLEX&#45;02: The requirement\nregarding [JSON Deserialization](https://eclipse&#45;score.github.io/score/main/modules/baselibs/json/docs/requirements/index.html#comp_req__json__deserialization)\nis fulfilled. " target="_top">
<polygon fill="none" stroke="black" points="1975,-749 833,-749 833,-696 1975,-696 1975,-749"/>
<text text-anchor="middle" x="1404" y="-733.8" font-family="Open Sans" font-size="14.00">JLEX&#45;02: The requirement</text>
<text text-anchor="middle" x="1404" y="-718.8" font-family="Open Sans" font-size="14.00">regarding [JSON Deserialization](https://eclipse&#45;score.github.io/score/main/modules/baselibs/json/docs/requirements/index.html#comp_req__json__deserialization)</text>
<text text-anchor="middle" x="1404" y="-703.8" font-family="Open Sans" font-size="14.00">is fulfilled. </text>
</a>
</g>
</g>
<!-- PJD&#45;03 -->
<g id="node17" class="node">
<title>PJD&#45;03</title>
<g id="a_node17"><a xlink:href="https://score-json.github.io/nlohmann_json/main/_images/custom_PJD-03_graph.svg" xlink:title="PJD&#45;03: The service parses\nall texts that conform\nto the JSON grammar.\n" target="_top">
<polygon fill="none" stroke="black" points="1505.5,-552 1302.5,-552 1302.5,-499 1505.5,-499 1505.5,-552"/>
<text text-anchor="middle" x="1404" y="-536.8" font-family="Open Sans" font-size="14.00">PJD&#45;03: The service parses</text>
<text text-anchor="middle" x="1404" y="-521.8" font-family="Open Sans" font-size="14.00">all texts that conform</text>
<text text-anchor="middle" x="1404" y="-506.8" font-family="Open Sans" font-size="14.00">to the JSON grammar.</text>
</a>
</g>
</g>
<!-- JLEX&#45;02&#45;&gt;PJD&#45;03 -->
<g id="edge2" class="edge">
<title>JLEX&#45;02&#45;&gt;PJD&#45;03</title>
<path fill="none" stroke="black" d="M1404,-695.61C1404,-661.42 1404,-601.06 1404,-562.46"/>
<polygon fill="black" stroke="black" points="1407.5,-562.19 1404,-552.19 1400.5,-562.19 1407.5,-562.19"/>
</g>
<!-- NPF&#45;02 -->
<g id="node4" class="node">
<title>NPF&#45;02</title>
<g id="a_node4"><a xlink:href="https://score-json.github.io/nlohmann_json/main/_images/custom_NPF-02_graph.svg" xlink:title="NPF&#45;02: The service parses\nnumbers according to\nRFC8259. " target="_top">
<polygon fill="none" stroke="black" points="1507,-355 1301,-355 1301,-302 1507,-302 1507,-355"/>
<text text-anchor="middle" x="1404" y="-339.8" font-family="Open Sans" font-size="14.00">NPF&#45;02: The service parses</text>
<text text-anchor="middle" x="1404" y="-324.8" font-family="Open Sans" font-size="14.00">numbers according to</text>
<text text-anchor="middle" x="1404" y="-309.8" font-family="Open Sans" font-size="14.00">RFC8259. </text>
</a>
</g>
</g>
<!-- NPF&#45;02&#45;&gt;AOU&#45;22 -->
<g id="edge11" class="edge">
<title>NPF&#45;02&#45;&gt;AOU&#45;22</title>
<path fill="none" stroke="black" d="M1300.67,-319.2C1052.13,-298.23 426.1,-239.24 209.65,-157.87"/>
<polygon fill="black" stroke="black" points="210.86,-154.59 200.27,-154.23 208.33,-161.11 210.86,-154.59"/>
</g>
<!-- NPF&#45;02.1 -->
<g id="node5" class="node">
<title>NPF&#45;02.1</title>
<g id="a_node5"><a xlink:href="https://score-json.github.io/nlohmann_json/main/generated/NPF.html#npf-02.1" xlink:title="NPF&#45;02.1: The service\nparses integers without\nexponent within the precision\nof int64_t. " target="_top">
<polygon fill="none" stroke="black" points="440,-113 218,-113 218,-45 440,-45 440,-113"/>
<text text-anchor="middle" x="329" y="-97.8" font-family="Open Sans" font-size="14.00">NPF&#45;02.1: The service</text>
<text text-anchor="middle" x="329" y="-82.8" font-family="Open Sans" font-size="14.00">parses integers without</text>
<text text-anchor="middle" x="329" y="-67.8" font-family="Open Sans" font-size="14.00">exponent within the precision</text>
<text text-anchor="middle" x="329" y="-52.8" font-family="Open Sans" font-size="14.00">of int64_t. </text>
</a>
</g>
</g>
<!-- NPF&#45;02&#45;&gt;NPF&#45;02.1 -->
<g id="edge3" class="edge">
<title>NPF&#45;02&#45;&gt;NPF&#45;02.1</title>
<path fill="none" stroke="black" d="M1300.69,-322.63C1121.47,-311.27 743.85,-274.41 449,-158 424.52,-148.34 399.76,-133.32 379.14,-119.03"/>
<polygon fill="black" stroke="black" points="381.05,-116.1 370.86,-113.18 377.01,-121.81 381.05,-116.1"/>
</g>
<!-- NPF&#45;02.10 -->
<g id="node6" class="node">
<title>NPF&#45;02.10</title>
<g id="a_node6"><a xlink:href="https://score-json.github.io/nlohmann_json/main/generated/NPF.html#npf-02.10" xlink:title="NPF&#45;02.10: The service\nignores trailing zeroes\nafter the decimal point.\n" target="_top">
<polygon fill="none" stroke="black" points="637.5,-105.5 458.5,-105.5 458.5,-52.5 637.5,-52.5 637.5,-105.5"/>
<text text-anchor="middle" x="548" y="-90.3" font-family="Open Sans" font-size="14.00">NPF&#45;02.10: The service</text>
<text text-anchor="middle" x="548" y="-75.3" font-family="Open Sans" font-size="14.00">ignores trailing zeroes</text>
<text text-anchor="middle" x="548" y="-60.3" font-family="Open Sans" font-size="14.00">after the decimal point.</text>
</a>
</g>
</g>
<!-- NPF&#45;02&#45;&gt;NPF&#45;02.10 -->
<g id="edge13" class="edge">
<title>NPF&#45;02&#45;&gt;NPF&#45;02.10</title>
<path fill="none" stroke="black" d="M1300.72,-319.01C1150.45,-303.48 865.63,-261.94 647,-158 623.18,-146.68 599.84,-128.72 581.81,-112.89"/>
<polygon fill="black" stroke="black" points="583.7,-109.88 573.92,-105.8 579.02,-115.09 583.7,-109.88"/>
</g>
<!-- NPF&#45;02.11 -->
<g id="node7" class="node">
<title>NPF&#45;02.11</title>
<g id="a_node7"><a xlink:href="https://score-json.github.io/nlohmann_json/main/generated/NPF.html#npf-02.11" xlink:title="NPF&#45;02.11: The service\nparses numbers within\nthe 64&#45;bit double range\nbut outside of the double\nprecision without throwing\nan exception and without\nguarantee of precision.\n" target="_top">
<polygon fill="none" stroke="black" points="856,-135.5 656,-135.5 656,-22.5 856,-22.5 856,-135.5"/>
<text text-anchor="middle" x="756" y="-120.3" font-family="Open Sans" font-size="14.00">NPF&#45;02.11: The service</text>
<text text-anchor="middle" x="756" y="-105.3" font-family="Open Sans" font-size="14.00">parses numbers within</text>
<text text-anchor="middle" x="756" y="-90.3" font-family="Open Sans" font-size="14.00">the 64&#45;bit double range</text>
<text text-anchor="middle" x="756" y="-75.3" font-family="Open Sans" font-size="14.00">but outside of the double</text>
<text text-anchor="middle" x="756" y="-60.3" font-family="Open Sans" font-size="14.00">precision without throwing</text>
<text text-anchor="middle" x="756" y="-45.3" font-family="Open Sans" font-size="14.00">an exception and without</text>
<text text-anchor="middle" x="756" y="-30.3" font-family="Open Sans" font-size="14.00">guarantee of precision.</text>
</a>
</g>
</g>
<!-- NPF&#45;02&#45;&gt;NPF&#45;02.11 -->
<g id="edge14" class="edge">
<title>NPF&#45;02&#45;&gt;NPF&#45;02.11</title>
<path fill="none" stroke="black" d="M1300.97,-305.39C1189.67,-279.2 1008.94,-229.84 865,-158 855.1,-153.06 845.11,-147.26 835.41,-141.09"/>
<polygon fill="black" stroke="black" points="837.26,-138.12 826.98,-135.59 833.44,-143.99 837.26,-138.12"/>
</g>
<!-- NPF&#45;02.12 -->
<g id="node8" class="node">
<title>NPF&#45;02.12</title>
<g id="a_node8"><a xlink:href="https://score-json.github.io/nlohmann_json/main/generated/NPF.html#npf-02.12" xlink:title="NPF&#45;02.12: The service\nignores capitalisation\nof the exponent. " target="_top">
<polygon fill="none" stroke="black" points="1052,-105.5 874,-105.5 874,-52.5 1052,-52.5 1052,-105.5"/>
<text text-anchor="middle" x="963" y="-90.3" font-family="Open Sans" font-size="14.00">NPF&#45;02.12: The service</text>
<text text-anchor="middle" x="963" y="-75.3" font-family="Open Sans" font-size="14.00">ignores capitalisation</text>
<text text-anchor="middle" x="963" y="-60.3" font-family="Open Sans" font-size="14.00">of the exponent. </text>
</a>
</g>
</g>
<!-- NPF&#45;02&#45;&gt;NPF&#45;02.12 -->
<g id="edge15" class="edge">
<title>NPF&#45;02&#45;&gt;NPF&#45;02.12</title>
<path fill="none" stroke="black" d="M1342.73,-301.98C1272.43,-271.63 1154.79,-217.54 1061,-158 1039.67,-144.46 1017.51,-127.14 999.67,-112.26"/>
<polygon fill="black" stroke="black" points="1001.7,-109.39 991.8,-105.62 997.18,-114.74 1001.7,-109.39"/>
</g>
<!-- NPF&#45;02.2 -->
<g id="node9" class="node">
<title>NPF&#45;02.2</title>
<g id="a_node9"><a xlink:href="https://score-json.github.io/nlohmann_json/main/generated/NPF.html#npf-02.2" xlink:title="NPF&#45;02.2: The service\nparses integers with\nexponent within the precision\nof 64&#45;bit double. " target="_top">
<polygon fill="none" stroke="black" points="1292,-113 1070,-113 1070,-45 1292,-45 1292,-113"/>
<text text-anchor="middle" x="1181" y="-97.8" font-family="Open Sans" font-size="14.00">NPF&#45;02.2: The service</text>
<text text-anchor="middle" x="1181" y="-82.8" font-family="Open Sans" font-size="14.00">parses integers with</text>
<text text-anchor="middle" x="1181" y="-67.8" font-family="Open Sans" font-size="14.00">exponent within the precision</text>
<text text-anchor="middle" x="1181" y="-52.8" font-family="Open Sans" font-size="14.00">of 64&#45;bit double. </text>
</a>
</g>
</g>
<!-- NPF&#45;02&#45;&gt;NPF&#45;02.2 -->
<g id="edge4" class="edge">
<title>NPF&#45;02&#45;&gt;NPF&#45;02.2</title>
<path fill="none" stroke="black" d="M1380.98,-301.95C1342.34,-259.07 1264.15,-172.29 1217.82,-120.86"/>
<polygon fill="black" stroke="black" points="1220.24,-118.32 1210.94,-113.23 1215.04,-123 1220.24,-118.32"/>
</g>
<!-- NPF&#45;02.3 -->
<g id="node10" class="node">
<title>NPF&#45;02.3</title>
<g id="a_node10"><a xlink:href="https://score-json.github.io/nlohmann_json/main/generated/NPF.html#npf-02.3" xlink:title="NPF&#45;02.3: The service\nparses floating point\nvalues without exponent\nwithin the precision\nof 64&#45;bit double. " target="_top">
<polygon fill="none" stroke="black" points="1498,-120.5 1310,-120.5 1310,-37.5 1498,-37.5 1498,-120.5"/>
<text text-anchor="middle" x="1404" y="-105.3" font-family="Open Sans" font-size="14.00">NPF&#45;02.3: The service</text>
<text text-anchor="middle" x="1404" y="-90.3" font-family="Open Sans" font-size="14.00">parses floating point</text>
<text text-anchor="middle" x="1404" y="-75.3" font-family="Open Sans" font-size="14.00">values without exponent</text>
<text text-anchor="middle" x="1404" y="-60.3" font-family="Open Sans" font-size="14.00">within the precision</text>
<text text-anchor="middle" x="1404" y="-45.3" font-family="Open Sans" font-size="14.00">of 64&#45;bit double. </text>
</a>
</g>
</g>
<!-- NPF&#45;02&#45;&gt;NPF&#45;02.3 -->
<g id="edge5" class="edge">
<title>NPF&#45;02&#45;&gt;NPF&#45;02.3</title>
<path fill="none" stroke="black" d="M1404,-301.95C1404,-261.77 1404,-183.05 1404,-130.98"/>
<polygon fill="black" stroke="black" points="1407.5,-130.94 1404,-120.94 1400.5,-130.94 1407.5,-130.94"/>
</g>
<!-- NPF&#45;02.4 -->
<g id="node11" class="node">
<title>NPF&#45;02.4</title>
<g id="a_node11"><a xlink:href="https://score-json.github.io/nlohmann_json/main/generated/NPF.html#npf-02.4" xlink:title="NPF&#45;02.4: The service\nparses floating point\nvalues with exponent\nwithin the precision\nof 64&#45;bit double. " target="_top">
<polygon fill="none" stroke="black" points="1685.5,-120.5 1516.5,-120.5 1516.5,-37.5 1685.5,-37.5 1685.5,-120.5"/>
<text text-anchor="middle" x="1601" y="-105.3" font-family="Open Sans" font-size="14.00">NPF&#45;02.4: The service</text>
<text text-anchor="middle" x="1601" y="-90.3" font-family="Open Sans" font-size="14.00">parses floating point</text>
<text text-anchor="middle" x="1601" y="-75.3" font-family="Open Sans" font-size="14.00">values with exponent</text>
<text text-anchor="middle" x="1601" y="-60.3" font-family="Open Sans" font-size="14.00">within the precision</text>
<text text-anchor="middle" x="1601" y="-45.3" font-family="Open Sans" font-size="14.00">of 64&#45;bit double. </text>
</a>
</g>
</g>
<!-- NPF&#45;02&#45;&gt;NPF&#45;02.4 -->
<g id="edge6" class="edge">
<title>NPF&#45;02&#45;&gt;NPF&#45;02.4</title>
<path fill="none" stroke="black" d="M1424.34,-301.95C1456.72,-261.26 1520.55,-181.07 1561.97,-129.04"/>
<polygon fill="black" stroke="black" points="1564.92,-130.94 1568.41,-120.94 1559.45,-126.59 1564.92,-130.94"/>
</g>
<!-- NPF&#45;02.5 -->
<g id="node12" class="node">
<title>NPF&#45;02.5</title>
<g id="a_node12"><a xlink:href="https://score-json.github.io/nlohmann_json/main/generated/NPF.html#npf-02.5" xlink:title="NPF&#45;02.5: The service\nignores leading zeroes\nin the exponent. " target="_top">
<polygon fill="none" stroke="black" points="1876.5,-105.5 1703.5,-105.5 1703.5,-52.5 1876.5,-52.5 1876.5,-105.5"/>
<text text-anchor="middle" x="1790" y="-90.3" font-family="Open Sans" font-size="14.00">NPF&#45;02.5: The service</text>
<text text-anchor="middle" x="1790" y="-75.3" font-family="Open Sans" font-size="14.00">ignores leading zeroes</text>
<text text-anchor="middle" x="1790" y="-60.3" font-family="Open Sans" font-size="14.00">in the exponent. </text>
</a>
</g>
</g>
<!-- NPF&#45;02&#45;&gt;NPF&#45;02.5 -->
<g id="edge7" class="edge">
<title>NPF&#45;02&#45;&gt;NPF&#45;02.5</title>
<path fill="none" stroke="black" d="M1453.35,-301.9C1512.44,-270.53 1613.63,-214.56 1695,-158 1715.06,-144.06 1736.17,-126.99 1753.39,-112.38"/>
<polygon fill="black" stroke="black" points="1755.68,-115.02 1761.01,-105.86 1751.13,-109.7 1755.68,-115.02"/>
</g>
<!-- NPF&#45;02.6 -->
<g id="node13" class="node">
<title>NPF&#45;02.6</title>
<g id="a_node13"><a xlink:href="https://score-json.github.io/nlohmann_json/main/generated/NPF.html#npf-02.6" xlink:title="NPF&#45;02.6: The service\nparses integers within\nIEEE 754&#45;2008 binary64.\n" target="_top">
<polygon fill="none" stroke="black" points="2087,-105.5 1895,-105.5 1895,-52.5 2087,-52.5 2087,-105.5"/>
<text text-anchor="middle" x="1991" y="-90.3" font-family="Open Sans" font-size="14.00">NPF&#45;02.6: The service</text>
<text text-anchor="middle" x="1991" y="-75.3" font-family="Open Sans" font-size="14.00">parses integers within</text>
<text text-anchor="middle" x="1991" y="-60.3" font-family="Open Sans" font-size="14.00">IEEE 754&#45;2008 binary64.</text>
</a>
</g>
</g>
<!-- NPF&#45;02&#45;&gt;NPF&#45;02.6 -->
<g id="edge8" class="edge">
<title>NPF&#45;02&#45;&gt;NPF&#45;02.6</title>
<path fill="none" stroke="black" d="M1503.64,-301.97C1603.73,-274.17 1760.68,-224.61 1886,-158 1909.86,-145.32 1934.23,-127.57 1953.47,-112.21"/>
<polygon fill="black" stroke="black" points="1955.83,-114.81 1961.39,-105.79 1951.42,-109.37 1955.83,-114.81"/>
</g>
<!-- NPF&#45;02.7 -->
<g id="node14" class="node">
<title>NPF&#45;02.7</title>
<g id="a_node14"><a xlink:href="https://score-json.github.io/nlohmann_json/main/generated/NPF.html#npf-02.7" xlink:title="NPF&#45;02.7: The service\nignores leading and trailing\nwhitespace. " target="_top">
<polygon fill="none" stroke="black" points="2312.5,-105.5 2105.5,-105.5 2105.5,-52.5 2312.5,-52.5 2312.5,-105.5"/>
<text text-anchor="middle" x="2209" y="-90.3" font-family="Open Sans" font-size="14.00">NPF&#45;02.7: The service</text>
<text text-anchor="middle" x="2209" y="-75.3" font-family="Open Sans" font-size="14.00">ignores leading and trailing</text>
<text text-anchor="middle" x="2209" y="-60.3" font-family="Open Sans" font-size="14.00">whitespace. </text>
</a>
</g>
</g>
<!-- NPF&#45;02&#45;&gt;NPF&#45;02.7 -->
<g id="edge9" class="edge">
<title>NPF&#45;02&#45;&gt;NPF&#45;02.7</title>
<path fill="none" stroke="black" d="M1507.21,-314.19C1645.89,-293.67 1897.84,-247.01 2096,-158 2122.49,-146.1 2149.36,-127.86 2170.25,-112.01"/>
<polygon fill="black" stroke="black" points="2172.46,-114.73 2178.23,-105.85 2168.18,-109.19 2172.46,-114.73"/>
</g>
<!-- NPF&#45;02.8 -->
<g id="node15" class="node">
<title>NPF&#45;02.8</title>
<g id="a_node15"><a xlink:href="https://score-json.github.io/nlohmann_json/main/generated/NPF.html#npf-02.8" xlink:title="NPF&#45;02.8: The service\nignores one singular\nleading plus of the exponent.\n" target="_top">
<polygon fill="none" stroke="black" points="2551.5,-105.5 2330.5,-105.5 2330.5,-52.5 2551.5,-52.5 2551.5,-105.5"/>
<text text-anchor="middle" x="2441" y="-90.3" font-family="Open Sans" font-size="14.00">NPF&#45;02.8: The service</text>
<text text-anchor="middle" x="2441" y="-75.3" font-family="Open Sans" font-size="14.00">ignores one singular</text>
<text text-anchor="middle" x="2441" y="-60.3" font-family="Open Sans" font-size="14.00">leading plus of the exponent.</text>
</a>
</g>
</g>
<!-- NPF&#45;02&#45;&gt;NPF&#45;02.8 -->
<g id="edge10" class="edge">
<title>NPF&#45;02&#45;&gt;NPF&#45;02.8</title>
<path fill="none" stroke="black" d="M1507.16,-321.76C1681.02,-309.2 2040.9,-270.73 2322,-158 2350.46,-146.59 2379.3,-127.9 2401.46,-111.68"/>
<polygon fill="black" stroke="black" points="2403.69,-114.39 2409.61,-105.6 2399.5,-108.77 2403.69,-114.39"/>
</g>
<!-- NPF&#45;02.9 -->
<g id="node16" class="node">
<title>NPF&#45;02.9</title>
<g id="a_node16"><a xlink:href="https://score-json.github.io/nlohmann_json/main/generated/NPF.html#npf-02.9" xlink:title="NPF&#45;02.9: The service\nparses floating point\nnumbers within IEEE 754&#45;2008\nbinary64 standard. " target="_top">
<polygon fill="none" stroke="black" points="2804,-113 2570,-113 2570,-45 2804,-45 2804,-113"/>
<text text-anchor="middle" x="2687" y="-97.8" font-family="Open Sans" font-size="14.00">NPF&#45;02.9: The service</text>
<text text-anchor="middle" x="2687" y="-82.8" font-family="Open Sans" font-size="14.00">parses floating point</text>
<text text-anchor="middle" x="2687" y="-67.8" font-family="Open Sans" font-size="14.00">numbers within IEEE 754&#45;2008</text>
<text text-anchor="middle" x="2687" y="-52.8" font-family="Open Sans" font-size="14.00">binary64 standard. </text>
</a>
</g>
</g>
<!-- NPF&#45;02&#45;&gt;NPF&#45;02.9 -->
<g id="edge12" class="edge">
<title>NPF&#45;02&#45;&gt;NPF&#45;02.9</title>
<path fill="none" stroke="black" d="M1507.22,-326.31C1713.68,-320.95 2189.59,-293.53 2561,-158 2586.92,-148.54 2613.24,-133.31 2635.08,-118.82"/>
<polygon fill="black" stroke="black" points="2637.21,-121.6 2643.52,-113.09 2633.28,-115.8 2637.21,-121.6"/>
</g>
<!-- PJD&#45;03&#45;&gt;NPF&#45;02 -->
<g id="edge16" class="edge">
<title>PJD&#45;03&#45;&gt;NPF&#45;02</title>
<path fill="none" stroke="black" d="M1404,-498.61C1404,-464.42 1404,-404.06 1404,-365.46"/>
<polygon fill="black" stroke="black" points="1407.5,-365.19 1404,-355.19 1400.5,-365.19 1407.5,-365.19"/>
</g>
<!-- TA&#45;BEHAVIOURS -->
<g id="node18" class="node">
<title>TA&#45;BEHAVIOURS</title>
<g id="a_node18"><a xlink:href="https://score-json.github.io/nlohmann_json/main/_images/custom_TA-BEHAVIOURS_graph.svg" xlink:title="TA&#45;BEHAVIOURS: Expected\nor required behaviours\nfor nlohmann/json library\nare identified, specified,\nverified and validated\nbased on analysis. " target="_top">
<polygon fill="none" stroke="black" points="1506,-991 1302,-991 1302,-893 1506,-893 1506,-991"/>
<text text-anchor="middle" x="1404" y="-975.8" font-family="Open Sans" font-size="14.00">TA&#45;BEHAVIOURS: Expected</text>
<text text-anchor="middle" x="1404" y="-960.8" font-family="Open Sans" font-size="14.00">or required behaviours</text>
<text text-anchor="middle" x="1404" y="-945.8" font-family="Open Sans" font-size="14.00">for nlohmann/json library</text>
<text text-anchor="middle" x="1404" y="-930.8" font-family="Open Sans" font-size="14.00">are identified, specified,</text>
<text text-anchor="middle" x="1404" y="-915.8" font-family="Open Sans" font-size="14.00">verified and validated</text>
<text text-anchor="middle" x="1404" y="-900.8" font-family="Open Sans" font-size="14.00">based on analysis. </text>
</a>
</g>
</g>
<!-- TA&#45;BEHAVIOURS&#45;&gt;JLEX&#45;02 -->
<g id="edge17" class="edge">
<title>TA&#45;BEHAVIOURS&#45;&gt;JLEX&#45;02</title>
<path fill="none" stroke="black" d="M1404,-893C1404,-852.58 1404,-795.67 1404,-759.18"/>
<polygon fill="black" stroke="black" points="1407.5,-759.01 1404,-749.01 1400.5,-759.01 1407.5,-759.01"/>
</g>
<!-- TT&#45;EXPECTATIONS&#45;&gt;TA&#45;BEHAVIOURS -->
<g id="edge18" class="edge">
<title>TT&#45;EXPECTATIONS&#45;&gt;TA&#45;BEHAVIOURS</title>
<path fill="none" stroke="black" d="M1404,-1134.72C1404,-1096.23 1404,-1042.2 1404,-1001.3"/>
<polygon fill="black" stroke="black" points="1407.5,-1001.2 1404,-991.2 1400.5,-1001.2 1407.5,-1001.2"/>
</g>
</g>
</svg>
