<?xml version="1.0" encoding="UTF-8" standalone="no"?>
<!DOCTYPE svg PUBLIC "-//W3C//DTD SVG 1.1//EN"
 "http://www.w3.org/Graphics/SVG/1.1/DTD/svg11.dtd">
<!-- Generated by graphviz version 2.43.0 (0)
 -->
<!-- Title: G Pages: 1 -->
<svg width="2105pt" height="1241pt"
 viewBox="0.00 0.00 2104.50 1241.00" xmlns="http://www.w3.org/2000/svg" xmlns:xlink="http://www.w3.org/1999/xlink">
<g id="graph0" class="graph" transform="scale(1 1) rotate(0) translate(4 1237)">
<title>G</title>
<polygon fill="white" stroke="transparent" points="-4,4 -4,-1237 2100.5,-1237 2100.5,4 -4,4"/>
<!-- TRUSTABLE&#45;SOFTWARE -->
<g id="node1" class="node">
<title>TRUSTABLE&#45;SOFTWARE</title>
<g id="a_node1"><a xlink:href="https://score-json.github.io/nlohmann_json/main/_images/custom_TRUSTABLE-SOFTWARE_graph.svg" xlink:title="TRUSTABLE&#45;SOFTWARE: This\nrelease of JSON&#45;Library\nalso reffered in the\ndocumentation as nlohmann/json\nlibrary is Trustable.\n" target="_top">
<polygon fill="none" stroke="black" points="1174.5,-1233 926.5,-1233 926.5,-1150 1174.5,-1150 1174.5,-1233"/>
<text text-anchor="middle" x="1050.5" y="-1217.8" font-family="Open Sans" font-size="14.00">TRUSTABLE&#45;SOFTWARE: This</text>
<text text-anchor="middle" x="1050.5" y="-1202.8" font-family="Open Sans" font-size="14.00">release of JSON&#45;Library</text>
<text text-anchor="middle" x="1050.5" y="-1187.8" font-family="Open Sans" font-size="14.00">also reffered in the</text>
<text text-anchor="middle" x="1050.5" y="-1172.8" font-family="Open Sans" font-size="14.00">documentation as nlohmann/json</text>
<text text-anchor="middle" x="1050.5" y="-1157.8" font-family="Open Sans" font-size="14.00">library is Trustable.</text>
</a>
</g>
</g>
<!-- TT&#45;EXPECTATIONS -->
<g id="node14" class="node">
<title>TT&#45;EXPECTATIONS</title>
<g id="a_node14"><a xlink:href="https://score-json.github.io/nlohmann_json/main/_images/custom_TT-EXPECTATIONS_graph.svg" xlink:title="TT&#45;EXPECTATIONS: Documentation\nis provided, specifying\nwhat nlohmann/json library\nis expected to do, and\nwhat it must not do,\nand how this is verified.\n" target="_top">
<polygon fill="none" stroke="black" points="1179,-1006 922,-1006 922,-908 1179,-908 1179,-1006"/>
<text text-anchor="middle" x="1050.5" y="-990.8" font-family="Open Sans" font-size="14.00">TT&#45;EXPECTATIONS: Documentation</text>
<text text-anchor="middle" x="1050.5" y="-975.8" font-family="Open Sans" font-size="14.00">is provided, specifying</text>
<text text-anchor="middle" x="1050.5" y="-960.8" font-family="Open Sans" font-size="14.00">what nlohmann/json library</text>
<text text-anchor="middle" x="1050.5" y="-945.8" font-family="Open Sans" font-size="14.00">is expected to do, and</text>
<text text-anchor="middle" x="1050.5" y="-930.8" font-family="Open Sans" font-size="14.00">what it must not do,</text>
<text text-anchor="middle" x="1050.5" y="-915.8" font-family="Open Sans" font-size="14.00">and how this is verified.</text>
</a>
</g>
</g>
<!-- TRUSTABLE&#45;SOFTWARE&#45;&gt;TT&#45;EXPECTATIONS -->
<g id="edge1" class="edge">
<title>TRUSTABLE&#45;SOFTWARE&#45;&gt;TT&#45;EXPECTATIONS</title>
<path fill="none" stroke="black" d="M1050.5,-1149.74C1050.5,-1112.88 1050.5,-1058.18 1050.5,-1016.63"/>
<polygon fill="black" stroke="black" points="1054,-1016.37 1050.5,-1006.37 1047,-1016.37 1054,-1016.37"/>
</g>
<!-- AOU&#45;05 -->
<g id="node2" class="node">
<title>AOU&#45;05</title>
<g id="a_node2"><a xlink:href="https://score-json.github.io/nlohmann_json/main/generated/AOU.html#aou-05" xlink:title="AOU&#45;05: The integrator\nshall ensure that input\nis encoded as UTF&#45;8 (as\nrequired by RFC8259)\nand that exceptions thrown\nin case other string\nformats are used are\nproperly handled " target="_top">
<polygon fill="none" stroke="black" points="207,-128 0,-128 0,0 207,0 207,-128"/>
<text text-anchor="middle" x="103.5" y="-112.8" font-family="Open Sans" font-size="14.00">AOU&#45;05: The integrator</text>
<text text-anchor="middle" x="103.5" y="-97.8" font-family="Open Sans" font-size="14.00">shall ensure that input</text>
<text text-anchor="middle" x="103.5" y="-82.8" font-family="Open Sans" font-size="14.00">is encoded as UTF&#45;8 (as</text>
<text text-anchor="middle" x="103.5" y="-67.8" font-family="Open Sans" font-size="14.00">required by RFC8259)</text>
<text text-anchor="middle" x="103.5" y="-52.8" font-family="Open Sans" font-size="14.00">and that exceptions thrown</text>
<text text-anchor="middle" x="103.5" y="-37.8" font-family="Open Sans" font-size="14.00">in case other string</text>
<text text-anchor="middle" x="103.5" y="-22.8" font-family="Open Sans" font-size="14.00">formats are used are</text>
<text text-anchor="middle" x="103.5" y="-7.8" font-family="Open Sans" font-size="14.00">properly handled </text>
</a>
</g>
</g>
<!-- AOU&#45;21 -->
<g id="node3" class="node">
<title>AOU&#45;21</title>
<g id="a_node3"><a xlink:href="https://score-json.github.io/nlohmann_json/main/generated/AOU.html#aou-21" xlink:title="AOU&#45;21: The integrator\nshall ensure that a string\ndoes not contain escaped\nunpaired utf&#45;16 surrogate\ncharacters, and that\nexceptions are properly\nhandled, whenever a string\nis to be parsed by nlohmann/json.\n" target="_top">
<polygon fill="none" stroke="black" points="479.5,-128 225.5,-128 225.5,0 479.5,0 479.5,-128"/>
<text text-anchor="middle" x="352.5" y="-112.8" font-family="Open Sans" font-size="14.00">AOU&#45;21: The integrator</text>
<text text-anchor="middle" x="352.5" y="-97.8" font-family="Open Sans" font-size="14.00">shall ensure that a string</text>
<text text-anchor="middle" x="352.5" y="-82.8" font-family="Open Sans" font-size="14.00">does not contain escaped</text>
<text text-anchor="middle" x="352.5" y="-67.8" font-family="Open Sans" font-size="14.00">unpaired utf&#45;16 surrogate</text>
<text text-anchor="middle" x="352.5" y="-52.8" font-family="Open Sans" font-size="14.00">characters, and that</text>
<text text-anchor="middle" x="352.5" y="-37.8" font-family="Open Sans" font-size="14.00">exceptions are properly</text>
<text text-anchor="middle" x="352.5" y="-22.8" font-family="Open Sans" font-size="14.00">handled, whenever a string</text>
<text text-anchor="middle" x="352.5" y="-7.8" font-family="Open Sans" font-size="14.00">is to be parsed by nlohmann/json.</text>
</a>
</g>
</g>
<!-- JLEX&#45;02 -->
<g id="node4" class="node">
<title>JLEX&#45;02</title>
<g id="a_node4"><a xlink:href="https://score-json.github.io/nlohmann_json/main/_images/custom_JLEX-02_graph.svg" xlink:title="JLEX&#45;02: The requirement\nregarding [JSON Deserialization](https://eclipse&#45;score.github.io/score/main/modules/baselibs/json/docs/requirements/index.html#comp_req__json__deserialization)\nis fulfilled. " target="_top">
<polygon fill="none" stroke="black" points="1621.5,-522 479.5,-522 479.5,-469 1621.5,-469 1621.5,-522"/>
<text text-anchor="middle" x="1050.5" y="-506.8" font-family="Open Sans" font-size="14.00">JLEX&#45;02: The requirement</text>
<text text-anchor="middle" x="1050.5" y="-491.8" font-family="Open Sans" font-size="14.00">regarding [JSON Deserialization](https://eclipse&#45;score.github.io/score/main/modules/baselibs/json/docs/requirements/index.html#comp_req__json__deserialization)</text>
<text text-anchor="middle" x="1050.5" y="-476.8" font-family="Open Sans" font-size="14.00">is fulfilled. </text>
</a>
</g>
</g>
<!-- PJD&#45;03 -->
<g id="node12" class="node">
<title>PJD&#45;03</title>
<g id="a_node12"><a xlink:href="https://score-json.github.io/nlohmann_json/main/_images/custom_PJD-03_graph.svg" xlink:title="PJD&#45;03: The service parses\nall texts that conform\nto the JSON grammar.\n" target="_top">
<polygon fill="none" stroke="black" points="1152,-325 949,-325 949,-272 1152,-272 1152,-325"/>
<text text-anchor="middle" x="1050.5" y="-309.8" font-family="Open Sans" font-size="14.00">PJD&#45;03: The service parses</text>
<text text-anchor="middle" x="1050.5" y="-294.8" font-family="Open Sans" font-size="14.00">all texts that conform</text>
<text text-anchor="middle" x="1050.5" y="-279.8" font-family="Open Sans" font-size="14.00">to the JSON grammar.</text>
</a>
</g>
</g>
<!-- JLEX&#45;02&#45;&gt;PJD&#45;03 -->
<g id="edge2" class="edge">
<title>JLEX&#45;02&#45;&gt;PJD&#45;03</title>
<path fill="none" stroke="black" d="M1050.5,-468.61C1050.5,-434.42 1050.5,-374.06 1050.5,-335.46"/>
<polygon fill="black" stroke="black" points="1054,-335.19 1050.5,-325.19 1047,-335.19 1054,-335.19"/>
</g>
<!-- NPF&#45;02 -->
<g id="node5" class="node">
<title>NPF&#45;02</title>
<g id="a_node5"><a xlink:href="https://score-json.github.io/nlohmann_json/main/_images/custom_NPF-02_graph.svg" xlink:title="NPF&#45;02: The service parses\nnumbers according to\nRFC8259. " target="_top">
<polygon fill="none" stroke="black" points="703.5,-90.5 497.5,-90.5 497.5,-37.5 703.5,-37.5 703.5,-90.5"/>
<text text-anchor="middle" x="600.5" y="-75.3" font-family="Open Sans" font-size="14.00">NPF&#45;02: The service parses</text>
<text text-anchor="middle" x="600.5" y="-60.3" font-family="Open Sans" font-size="14.00">numbers according to</text>
<text text-anchor="middle" x="600.5" y="-45.3" font-family="Open Sans" font-size="14.00">RFC8259. </text>
</a>
</g>
</g>
<!-- NPF&#45;03 -->
<g id="node6" class="node">
<title>NPF&#45;03</title>
<g id="a_node6"><a xlink:href="https://score-json.github.io/nlohmann_json/main/_images/custom_NPF-03_graph.svg" xlink:title="NPF&#45;03: The service parses\nstrings according to\nRFC8259. " target="_top">
<polygon fill="none" stroke="black" points="927.5,-90.5 721.5,-90.5 721.5,-37.5 927.5,-37.5 927.5,-90.5"/>
<text text-anchor="middle" x="824.5" y="-75.3" font-family="Open Sans" font-size="14.00">NPF&#45;03: The service parses</text>
<text text-anchor="middle" x="824.5" y="-60.3" font-family="Open Sans" font-size="14.00">strings according to</text>
<text text-anchor="middle" x="824.5" y="-45.3" font-family="Open Sans" font-size="14.00">RFC8259. </text>
</a>
</g>
</g>
<!-- NPF&#45;04 -->
<g id="node7" class="node">
<title>NPF&#45;04</title>
<g id="a_node7"><a xlink:href="https://score-json.github.io/nlohmann_json/main/_images/custom_NPF-04_graph.svg" xlink:title="NPF&#45;04: The service parses\nliteral names &quot;true&quot;,\n&quot;false&quot; and &quot;null&quot; according\nto RFC8259. " target="_top">
<polygon fill="none" stroke="black" points="1155,-98 946,-98 946,-30 1155,-30 1155,-98"/>
<text text-anchor="middle" x="1050.5" y="-82.8" font-family="Open Sans" font-size="14.00">NPF&#45;04: The service parses</text>
<text text-anchor="middle" x="1050.5" y="-67.8" font-family="Open Sans" font-size="14.00">literal names &quot;true&quot;,</text>
<text text-anchor="middle" x="1050.5" y="-52.8" font-family="Open Sans" font-size="14.00">&quot;false&quot; and &quot;null&quot; according</text>
<text text-anchor="middle" x="1050.5" y="-37.8" font-family="Open Sans" font-size="14.00">to RFC8259. </text>
</a>
</g>
</g>
<!-- NPF&#45;05 -->
<g id="node8" class="node">
<title>NPF&#45;05</title>
<g id="a_node8"><a xlink:href="https://score-json.github.io/nlohmann_json/main/_images/custom_NPF-05_graph.svg" xlink:title="NPF&#45;05: The service parses\narrays according to RFC8259.\n" target="_top">
<polygon fill="none" stroke="black" points="1396,-83 1173,-83 1173,-45 1396,-45 1396,-83"/>
<text text-anchor="middle" x="1284.5" y="-67.8" font-family="Open Sans" font-size="14.00">NPF&#45;05: The service parses</text>
<text text-anchor="middle" x="1284.5" y="-52.8" font-family="Open Sans" font-size="14.00">arrays according to RFC8259.</text>
</a>
</g>
</g>
<!-- NPF&#45;06 -->
<g id="node9" class="node">
<title>NPF&#45;06</title>
<g id="a_node9"><a xlink:href="https://score-json.github.io/nlohmann_json/main/_images/custom_NPF-06_graph.svg" xlink:title="NPF&#45;06: The service parses\nobjects according to\nRFC8259. " target="_top">
<polygon fill="none" stroke="black" points="1620.5,-90.5 1414.5,-90.5 1414.5,-37.5 1620.5,-37.5 1620.5,-90.5"/>
<text text-anchor="middle" x="1517.5" y="-75.3" font-family="Open Sans" font-size="14.00">NPF&#45;06: The service parses</text>
<text text-anchor="middle" x="1517.5" y="-60.3" font-family="Open Sans" font-size="14.00">objects according to</text>
<text text-anchor="middle" x="1517.5" y="-45.3" font-family="Open Sans" font-size="14.00">RFC8259. </text>
</a>
</g>
</g>
<!-- NPF&#45;07 -->
<g id="node10" class="node">
<title>NPF&#45;07</title>
<g id="a_node10"><a xlink:href="https://score-json.github.io/nlohmann_json/main/_images/custom_NPF-07_graph.svg" xlink:title="NPF&#45;07: The service parses\nwell&#45;formed UTF&#45;8 encoded\ndata only. " target="_top">
<polygon fill="none" stroke="black" points="1846.5,-90.5 1638.5,-90.5 1638.5,-37.5 1846.5,-37.5 1846.5,-90.5"/>
<text text-anchor="middle" x="1742.5" y="-75.3" font-family="Open Sans" font-size="14.00">NPF&#45;07: The service parses</text>
<text text-anchor="middle" x="1742.5" y="-60.3" font-family="Open Sans" font-size="14.00">well&#45;formed UTF&#45;8 encoded</text>
<text text-anchor="middle" x="1742.5" y="-45.3" font-family="Open Sans" font-size="14.00">data only. </text>
</a>
</g>
</g>
<!-- PJD&#45;02 -->
<g id="node11" class="node">
<title>PJD&#45;02</title>
<g id="a_node11"><a xlink:href="https://score-json.github.io/nlohmann_json/main/generated/PJD.html#pjd-02" xlink:title="PJD&#45;02: The service transforms\na JSON text into a C++\nrepresentation using\nC++ containers (for arrays\nand objects) and primitive\ndatatypes (for strings,\nnumbers, boolean, null).\n" target="_top">
<polygon fill="none" stroke="black" points="2096.5,-120.5 1864.5,-120.5 1864.5,-7.5 2096.5,-7.5 2096.5,-120.5"/>
<text text-anchor="middle" x="1980.5" y="-105.3" font-family="Open Sans" font-size="14.00">PJD&#45;02: The service transforms</text>
<text text-anchor="middle" x="1980.5" y="-90.3" font-family="Open Sans" font-size="14.00">a JSON text into a C++</text>
<text text-anchor="middle" x="1980.5" y="-75.3" font-family="Open Sans" font-size="14.00">representation using</text>
<text text-anchor="middle" x="1980.5" y="-60.3" font-family="Open Sans" font-size="14.00">C++ containers (for arrays</text>
<text text-anchor="middle" x="1980.5" y="-45.3" font-family="Open Sans" font-size="14.00">and objects) and primitive</text>
<text text-anchor="middle" x="1980.5" y="-30.3" font-family="Open Sans" font-size="14.00">datatypes (for strings,</text>
<text text-anchor="middle" x="1980.5" y="-15.3" font-family="Open Sans" font-size="14.00">numbers, boolean, null).</text>
</a>
</g>
</g>
<!-- PJD&#45;03&#45;&gt;AOU&#45;05 -->
<g id="edge4" class="edge">
<title>PJD&#45;03&#45;&gt;AOU&#45;05</title>
<path fill="none" stroke="black" d="M948.89,-287.06C790.97,-268.63 478.51,-223.25 216.97,-127.95"/>
<polygon fill="black" stroke="black" points="217.89,-124.56 207.3,-124.4 215.48,-131.13 217.89,-124.56"/>
</g>
<!-- PJD&#45;03&#45;&gt;AOU&#45;21 -->
<g id="edge3" class="edge">
<title>PJD&#45;03&#45;&gt;AOU&#45;21</title>
<path fill="none" stroke="black" d="M950.61,-271.95C839.34,-242.46 654.5,-190.39 489.51,-128.3"/>
<polygon fill="black" stroke="black" points="490.27,-124.84 479.68,-124.57 487.79,-131.39 490.27,-124.84"/>
</g>
<!-- PJD&#45;03&#45;&gt;NPF&#45;02 -->
<g id="edge5" class="edge">
<title>PJD&#45;03&#45;&gt;NPF&#45;02</title>
<path fill="none" stroke="black" d="M997.7,-271.99C930.85,-239.47 812.34,-181.08 712.5,-128 693.2,-117.74 672.27,-106.11 653.78,-95.65"/>
<polygon fill="black" stroke="black" points="655.35,-92.52 644.92,-90.63 651.89,-98.61 655.35,-92.52"/>
</g>
<!-- PJD&#45;03&#45;&gt;NPF&#45;03 -->
<g id="edge10" class="edge">
<title>PJD&#45;03&#45;&gt;NPF&#45;03</title>
<path fill="none" stroke="black" d="M1025.45,-271.73C984.19,-229.28 901.99,-144.72 856.55,-97.97"/>
<polygon fill="black" stroke="black" points="858.8,-95.26 849.32,-90.53 853.78,-100.14 858.8,-95.26"/>
</g>
<!-- PJD&#45;03&#45;&gt;NPF&#45;04 -->
<g id="edge6" class="edge">
<title>PJD&#45;03&#45;&gt;NPF&#45;04</title>
<path fill="none" stroke="black" d="M1050.5,-271.73C1050.5,-232.3 1050.5,-156.51 1050.5,-108.47"/>
<polygon fill="black" stroke="black" points="1054,-108.37 1050.5,-98.37 1047,-108.37 1054,-108.37"/>
</g>
<!-- PJD&#45;03&#45;&gt;NPF&#45;05 -->
<g id="edge7" class="edge">
<title>PJD&#45;03&#45;&gt;NPF&#45;05</title>
<path fill="none" stroke="black" d="M1076.44,-271.73C1121.54,-226.91 1213.91,-135.14 1258.83,-90.51"/>
<polygon fill="black" stroke="black" points="1261.5,-92.78 1266.13,-83.25 1256.57,-87.82 1261.5,-92.78"/>
</g>
<!-- PJD&#45;03&#45;&gt;NPF&#45;06 -->
<g id="edge8" class="edge">
<title>PJD&#45;03&#45;&gt;NPF&#45;06</title>
<path fill="none" stroke="black" d="M1107.02,-271.93C1177.55,-239.7 1301.55,-181.98 1405.5,-128 1425.07,-117.84 1446.22,-106.14 1464.81,-95.59"/>
<polygon fill="black" stroke="black" points="1466.76,-98.51 1473.72,-90.52 1463.3,-92.43 1466.76,-98.51"/>
</g>
<!-- PJD&#45;03&#45;&gt;NPF&#45;07 -->
<g id="edge9" class="edge">
<title>PJD&#45;03&#45;&gt;NPF&#45;07</title>
<path fill="none" stroke="black" d="M1152.23,-275.04C1269.75,-247.43 1467.69,-195.78 1629.5,-128 1651.06,-118.97 1673.76,-106.87 1693.12,-95.69"/>
<polygon fill="black" stroke="black" points="1694.9,-98.7 1701.76,-90.63 1691.36,-92.66 1694.9,-98.7"/>
</g>
<!-- PJD&#45;03&#45;&gt;PJD&#45;02 -->
<g id="edge11" class="edge">
<title>PJD&#45;03&#45;&gt;PJD&#45;02</title>
<path fill="none" stroke="black" d="M1152.23,-284.71C1307.23,-263.32 1610.37,-213.94 1855.5,-128 1858.81,-126.84 1862.15,-125.61 1865.49,-124.32"/>
<polygon fill="black" stroke="black" points="1866.95,-127.51 1874.94,-120.55 1864.35,-121.01 1866.95,-127.51"/>
</g>
<!-- TA&#45;BEHAVIOURS -->
<g id="node13" class="node">
<title>TA&#45;BEHAVIOURS</title>
<g id="a_node13"><a xlink:href="https://score-json.github.io/nlohmann_json/main/_images/custom_TA-BEHAVIOURS_graph.svg" xlink:title="TA&#45;BEHAVIOURS: Expected\nor required behaviours\nfor nlohmann/json library\nare identified, specified,\nverified and validated\nbased on analysis. " target="_top">
<polygon fill="none" stroke="black" points="1152.5,-764 948.5,-764 948.5,-666 1152.5,-666 1152.5,-764"/>
<text text-anchor="middle" x="1050.5" y="-748.8" font-family="Open Sans" font-size="14.00">TA&#45;BEHAVIOURS: Expected</text>
<text text-anchor="middle" x="1050.5" y="-733.8" font-family="Open Sans" font-size="14.00">or required behaviours</text>
<text text-anchor="middle" x="1050.5" y="-718.8" font-family="Open Sans" font-size="14.00">for nlohmann/json library</text>
<text text-anchor="middle" x="1050.5" y="-703.8" font-family="Open Sans" font-size="14.00">are identified, specified,</text>
<text text-anchor="middle" x="1050.5" y="-688.8" font-family="Open Sans" font-size="14.00">verified and validated</text>
<text text-anchor="middle" x="1050.5" y="-673.8" font-family="Open Sans" font-size="14.00">based on analysis. </text>
</a>
</g>
</g>
<!-- TA&#45;BEHAVIOURS&#45;&gt;JLEX&#45;02 -->
<g id="edge12" class="edge">
<title>TA&#45;BEHAVIOURS&#45;&gt;JLEX&#45;02</title>
<path fill="none" stroke="black" d="M1050.5,-666C1050.5,-625.58 1050.5,-568.67 1050.5,-532.18"/>
<polygon fill="black" stroke="black" points="1054,-532.01 1050.5,-522.01 1047,-532.01 1054,-532.01"/>
</g>
<!-- TT&#45;EXPECTATIONS&#45;&gt;TA&#45;BEHAVIOURS -->
<g id="edge13" class="edge">
<title>TT&#45;EXPECTATIONS&#45;&gt;TA&#45;BEHAVIOURS</title>
<path fill="none" stroke="black" d="M1050.5,-907.72C1050.5,-869.23 1050.5,-815.2 1050.5,-774.3"/>
<polygon fill="black" stroke="black" points="1054,-774.2 1050.5,-764.2 1047,-774.2 1054,-774.2"/>
</g>
</g>
</svg>
