<?xml version="1.0" encoding="UTF-8" standalone="no"?>
<!DOCTYPE svg PUBLIC "-//W3C//DTD SVG 1.1//EN"
 "http://www.w3.org/Graphics/SVG/1.1/DTD/svg11.dtd">
<!-- Generated by graphviz version 2.43.0 (0)
 -->
<!-- Title: G Pages: 1 -->
<svg width="1083pt" height="1423pt"
 viewBox="0.00 0.00 1083.00 1423.00" xmlns="http://www.w3.org/2000/svg" xmlns:xlink="http://www.w3.org/1999/xlink">
<g id="graph0" class="graph" transform="scale(1 1) rotate(0) translate(4 1419)">
<title>G</title>
<polygon fill="white" stroke="transparent" points="-4,4 -4,-1419 1079,-1419 1079,4 -4,4"/>
<!-- TRUSTABLE&#45;SOFTWARE -->
<g id="node1" class="node">
<title>TRUSTABLE&#45;SOFTWARE</title>
<g id="a_node1"><a xlink:href="https://score-json.github.io/nlohmann_json/main/_images/custom_TRUSTABLE-SOFTWARE_graph.svg" xlink:title="TRUSTABLE&#45;SOFTWARE: This\nrelease of JSON&#45;Library\nalso reffered in the\ndocumentation as nlohmann/json\nlibrary is Trustable.\n" target="_top">
<polygon fill="none" stroke="black" points="661.5,-1415 413.5,-1415 413.5,-1332 661.5,-1332 661.5,-1415"/>
<text text-anchor="middle" x="537.5" y="-1399.8" font-family="Open Sans" font-size="14.00">TRUSTABLE&#45;SOFTWARE: This</text>
<text text-anchor="middle" x="537.5" y="-1384.8" font-family="Open Sans" font-size="14.00">release of JSON&#45;Library</text>
<text text-anchor="middle" x="537.5" y="-1369.8" font-family="Open Sans" font-size="14.00">also reffered in the</text>
<text text-anchor="middle" x="537.5" y="-1354.8" font-family="Open Sans" font-size="14.00">documentation as nlohmann/json</text>
<text text-anchor="middle" x="537.5" y="-1339.8" font-family="Open Sans" font-size="14.00">library is Trustable.</text>
</a>
</g>
</g>
<!-- TT&#45;EXPECTATIONS -->
<g id="node10" class="node">
<title>TT&#45;EXPECTATIONS</title>
<g id="a_node10"><a xlink:href="https://score-json.github.io/nlohmann_json/main/_images/custom_TT-EXPECTATIONS_graph.svg" xlink:title="TT&#45;EXPECTATIONS: Documentation\nis provided, specifying\nwhat nlohmann/json library\nis expected to do, and\nwhat it must not do,\nand how this is verified.\n" target="_top">
<polygon fill="none" stroke="black" points="666,-1188 409,-1188 409,-1090 666,-1090 666,-1188"/>
<text text-anchor="middle" x="537.5" y="-1172.8" font-family="Open Sans" font-size="14.00">TT&#45;EXPECTATIONS: Documentation</text>
<text text-anchor="middle" x="537.5" y="-1157.8" font-family="Open Sans" font-size="14.00">is provided, specifying</text>
<text text-anchor="middle" x="537.5" y="-1142.8" font-family="Open Sans" font-size="14.00">what nlohmann/json library</text>
<text text-anchor="middle" x="537.5" y="-1127.8" font-family="Open Sans" font-size="14.00">is expected to do, and</text>
<text text-anchor="middle" x="537.5" y="-1112.8" font-family="Open Sans" font-size="14.00">what it must not do,</text>
<text text-anchor="middle" x="537.5" y="-1097.8" font-family="Open Sans" font-size="14.00">and how this is verified.</text>
</a>
</g>
</g>
<!-- TRUSTABLE&#45;SOFTWARE&#45;&gt;TT&#45;EXPECTATIONS -->
<g id="edge1" class="edge">
<title>TRUSTABLE&#45;SOFTWARE&#45;&gt;TT&#45;EXPECTATIONS</title>
<path fill="none" stroke="black" d="M537.5,-1331.74C537.5,-1294.88 537.5,-1240.18 537.5,-1198.63"/>
<polygon fill="black" stroke="black" points="541,-1198.37 537.5,-1188.37 534,-1198.37 541,-1198.37"/>
</g>
<!-- JLEX&#45;01 -->
<g id="node2" class="node">
<title>JLEX&#45;01</title>
<g id="a_node2"><a xlink:href="https://score-json.github.io/nlohmann_json/main/_images/custom_JLEX-01_graph.svg" xlink:title="JLEX&#45;01: The requirement\nregarding [JSON Validation](https://eclipse&#45;score.github.io/score/main/modules/baselibs/json/docs/requirements/index.html#comp_req__json__validation)\nis fulfilled. " target="_top">
<polygon fill="none" stroke="black" points="1075,-704 0,-704 0,-651 1075,-651 1075,-704"/>
<text text-anchor="middle" x="537.5" y="-688.8" font-family="Open Sans" font-size="14.00">JLEX&#45;01: The requirement</text>
<text text-anchor="middle" x="537.5" y="-673.8" font-family="Open Sans" font-size="14.00">regarding [JSON Validation](https://eclipse&#45;score.github.io/score/main/modules/baselibs/json/docs/requirements/index.html#comp_req__json__validation)</text>
<text text-anchor="middle" x="537.5" y="-658.8" font-family="Open Sans" font-size="14.00">is fulfilled. </text>
</a>
</g>
</g>
<!-- WFJ&#45;08 -->
<g id="node11" class="node">
<title>WFJ&#45;08</title>
<g id="a_node11"><a xlink:href="https://score-json.github.io/nlohmann_json/main/_images/custom_WFJ-08_graph.svg" xlink:title="WFJ&#45;08: The service ignores\nbyte order marks. " target="_top">
<polygon fill="none" stroke="black" points="642,-507 433,-507 433,-469 642,-469 642,-507"/>
<text text-anchor="middle" x="537.5" y="-491.8" font-family="Open Sans" font-size="14.00">WFJ&#45;08: The service ignores</text>
<text text-anchor="middle" x="537.5" y="-476.8" font-family="Open Sans" font-size="14.00">byte order marks. </text>
</a>
</g>
</g>
<!-- JLEX&#45;01&#45;&gt;WFJ&#45;08 -->
<g id="edge2" class="edge">
<title>JLEX&#45;01&#45;&gt;WFJ&#45;08</title>
<path fill="none" stroke="black" d="M537.5,-650.82C537.5,-615.92 537.5,-553.7 537.5,-517.43"/>
<polygon fill="black" stroke="black" points="541,-517.06 537.5,-507.06 534,-517.06 541,-517.06"/>
</g>
<!-- NJF&#45;14 -->
<g id="node3" class="node">
<title>NJF&#45;14</title>
<g id="a_node3"><a xlink:href="https://score-json.github.io/nlohmann_json/main/_images/custom_NJF-14_graph.svg" xlink:title="NJF&#45;14: The service accepts\na single complete UTF&#45;8\nbyte order mark at the\nbeginning of the input\nonly. " target="_top">
<polygon fill="none" stroke="black" points="642,-325 433,-325 433,-242 642,-242 642,-325"/>
<text text-anchor="middle" x="537.5" y="-309.8" font-family="Open Sans" font-size="14.00">NJF&#45;14: The service accepts</text>
<text text-anchor="middle" x="537.5" y="-294.8" font-family="Open Sans" font-size="14.00">a single complete UTF&#45;8</text>
<text text-anchor="middle" x="537.5" y="-279.8" font-family="Open Sans" font-size="14.00">byte order mark at the</text>
<text text-anchor="middle" x="537.5" y="-264.8" font-family="Open Sans" font-size="14.00">beginning of the input</text>
<text text-anchor="middle" x="537.5" y="-249.8" font-family="Open Sans" font-size="14.00">only. </text>
</a>
</g>
</g>
<!-- NJF&#45;14.1 -->
<g id="node4" class="node">
<title>NJF&#45;14.1</title>
<g id="a_node4"><a xlink:href="https://score-json.github.io/nlohmann_json/main/generated/NJF.html#njf-14.1" xlink:title="NJF&#45;14.1: If the service\naccepts an input containing\nno BOM, then it accepts\na single UTF&#45;8 byte order\nmark followed by that\ninput. " target="_top">
<polygon fill="none" stroke="black" points="209,-98 0,-98 0,0 209,0 209,-98"/>
<text text-anchor="middle" x="104.5" y="-82.8" font-family="Open Sans" font-size="14.00">NJF&#45;14.1: If the service</text>
<text text-anchor="middle" x="104.5" y="-67.8" font-family="Open Sans" font-size="14.00">accepts an input containing</text>
<text text-anchor="middle" x="104.5" y="-52.8" font-family="Open Sans" font-size="14.00">no BOM, then it accepts</text>
<text text-anchor="middle" x="104.5" y="-37.8" font-family="Open Sans" font-size="14.00">a single UTF&#45;8 byte order</text>
<text text-anchor="middle" x="104.5" y="-22.8" font-family="Open Sans" font-size="14.00">mark followed by that</text>
<text text-anchor="middle" x="104.5" y="-7.8" font-family="Open Sans" font-size="14.00">input. </text>
</a>
</g>
</g>
<!-- NJF&#45;14&#45;&gt;NJF&#45;14.1 -->
<g id="edge3" class="edge">
<title>NJF&#45;14&#45;&gt;NJF&#45;14.1</title>
<path fill="none" stroke="black" d="M461.58,-241.74C389.77,-203.17 281.59,-145.09 203.13,-102.96"/>
<polygon fill="black" stroke="black" points="204.66,-99.81 194.2,-98.16 201.35,-105.98 204.66,-99.81"/>
</g>
<!-- NJF&#45;14.2 -->
<g id="node5" class="node">
<title>NJF&#45;14.2</title>
<g id="a_node5"><a xlink:href="https://score-json.github.io/nlohmann_json/main/generated/NJF.html#njf-14.2" xlink:title="NJF&#45;14.2: The service\ndoes not accept multiple\nUTF&#45;8 byte order marks.\n" target="_top">
<polygon fill="none" stroke="black" points="415.5,-75.5 227.5,-75.5 227.5,-22.5 415.5,-22.5 415.5,-75.5"/>
<text text-anchor="middle" x="321.5" y="-60.3" font-family="Open Sans" font-size="14.00">NJF&#45;14.2: The service</text>
<text text-anchor="middle" x="321.5" y="-45.3" font-family="Open Sans" font-size="14.00">does not accept multiple</text>
<text text-anchor="middle" x="321.5" y="-30.3" font-family="Open Sans" font-size="14.00">UTF&#45;8 byte order marks.</text>
</a>
</g>
</g>
<!-- NJF&#45;14&#45;&gt;NJF&#45;14.2 -->
<g id="edge4" class="edge">
<title>NJF&#45;14&#45;&gt;NJF&#45;14.2</title>
<path fill="none" stroke="black" d="M499.63,-241.74C457.71,-196.62 390.97,-124.77 352.18,-83.03"/>
<polygon fill="black" stroke="black" points="354.65,-80.54 345.28,-75.6 349.52,-85.3 354.65,-80.54"/>
</g>
<!-- NJF&#45;14.3 -->
<g id="node6" class="node">
<title>NJF&#45;14.3</title>
<g id="a_node6"><a xlink:href="https://score-json.github.io/nlohmann_json/main/generated/NJF.html#njf-14.3" xlink:title="NJF&#45;14.3: The service\ndoes not accept incomplete\nor perturbed UTF&#45;8 byte\norder marks within the\nfirst three characters\nof the input. " target="_top">
<polygon fill="none" stroke="black" points="641.5,-98 433.5,-98 433.5,0 641.5,0 641.5,-98"/>
<text text-anchor="middle" x="537.5" y="-82.8" font-family="Open Sans" font-size="14.00">NJF&#45;14.3: The service</text>
<text text-anchor="middle" x="537.5" y="-67.8" font-family="Open Sans" font-size="14.00">does not accept incomplete</text>
<text text-anchor="middle" x="537.5" y="-52.8" font-family="Open Sans" font-size="14.00">or perturbed UTF&#45;8 byte</text>
<text text-anchor="middle" x="537.5" y="-37.8" font-family="Open Sans" font-size="14.00">order marks within the</text>
<text text-anchor="middle" x="537.5" y="-22.8" font-family="Open Sans" font-size="14.00">first three characters</text>
<text text-anchor="middle" x="537.5" y="-7.8" font-family="Open Sans" font-size="14.00">of the input. </text>
</a>
</g>
</g>
<!-- NJF&#45;14&#45;&gt;NJF&#45;14.3 -->
<g id="edge5" class="edge">
<title>NJF&#45;14&#45;&gt;NJF&#45;14.3</title>
<path fill="none" stroke="black" d="M537.5,-241.74C537.5,-204.88 537.5,-150.18 537.5,-108.63"/>
<polygon fill="black" stroke="black" points="541,-108.37 537.5,-98.37 534,-108.37 541,-108.37"/>
</g>
<!-- NJF&#45;14.4 -->
<g id="node7" class="node">
<title>NJF&#45;14.4</title>
<g id="a_node7"><a xlink:href="https://score-json.github.io/nlohmann_json/main/generated/NJF.html#njf-14.4" xlink:title="NJF&#45;14.4: The service\ndoes not accept UTF&#45;16\nand UTF&#45;32 byte order\nmarks instead of the\nUTF&#45;8 byte order mark.\n" target="_top">
<polygon fill="none" stroke="black" points="841.5,-90.5 659.5,-90.5 659.5,-7.5 841.5,-7.5 841.5,-90.5"/>
<text text-anchor="middle" x="750.5" y="-75.3" font-family="Open Sans" font-size="14.00">NJF&#45;14.4: The service</text>
<text text-anchor="middle" x="750.5" y="-60.3" font-family="Open Sans" font-size="14.00">does not accept UTF&#45;16</text>
<text text-anchor="middle" x="750.5" y="-45.3" font-family="Open Sans" font-size="14.00">and UTF&#45;32 byte order</text>
<text text-anchor="middle" x="750.5" y="-30.3" font-family="Open Sans" font-size="14.00">marks instead of the</text>
<text text-anchor="middle" x="750.5" y="-15.3" font-family="Open Sans" font-size="14.00">UTF&#45;8 byte order mark.</text>
</a>
</g>
</g>
<!-- NJF&#45;14&#45;&gt;NJF&#45;14.4 -->
<g id="edge6" class="edge">
<title>NJF&#45;14&#45;&gt;NJF&#45;14.4</title>
<path fill="none" stroke="black" d="M574.85,-241.74C611.54,-201.68 667.53,-140.57 706.39,-98.15"/>
<polygon fill="black" stroke="black" points="709.02,-100.46 713.2,-90.72 703.86,-95.73 709.02,-100.46"/>
</g>
<!-- NJF&#45;14.5 -->
<g id="node8" class="node">
<title>NJF&#45;14.5</title>
<g id="a_node8"><a xlink:href="https://score-json.github.io/nlohmann_json/main/generated/NJF.html#njf-14.5" xlink:title="NJF&#45;14.5: The service\ndoes not accept UTF&#45;8\nbyte order mark outside\nof a string and outside\nof the first three characters\nof the input. " target="_top">
<polygon fill="none" stroke="black" points="1067.5,-98 859.5,-98 859.5,0 1067.5,0 1067.5,-98"/>
<text text-anchor="middle" x="963.5" y="-82.8" font-family="Open Sans" font-size="14.00">NJF&#45;14.5: The service</text>
<text text-anchor="middle" x="963.5" y="-67.8" font-family="Open Sans" font-size="14.00">does not accept UTF&#45;8</text>
<text text-anchor="middle" x="963.5" y="-52.8" font-family="Open Sans" font-size="14.00">byte order mark outside</text>
<text text-anchor="middle" x="963.5" y="-37.8" font-family="Open Sans" font-size="14.00">of a string and outside</text>
<text text-anchor="middle" x="963.5" y="-22.8" font-family="Open Sans" font-size="14.00">of the first three characters</text>
<text text-anchor="middle" x="963.5" y="-7.8" font-family="Open Sans" font-size="14.00">of the input. </text>
</a>
</g>
</g>
<!-- NJF&#45;14&#45;&gt;NJF&#45;14.5 -->
<g id="edge7" class="edge">
<title>NJF&#45;14&#45;&gt;NJF&#45;14.5</title>
<path fill="none" stroke="black" d="M612.19,-241.74C682.84,-203.17 789.27,-145.09 866.46,-102.96"/>
<polygon fill="black" stroke="black" points="868.15,-106.03 875.25,-98.16 864.8,-99.88 868.15,-106.03"/>
</g>
<!-- TA&#45;BEHAVIOURS -->
<g id="node9" class="node">
<title>TA&#45;BEHAVIOURS</title>
<g id="a_node9"><a xlink:href="https://score-json.github.io/nlohmann_json/main/_images/custom_TA-BEHAVIOURS_graph.svg" xlink:title="TA&#45;BEHAVIOURS: Expected\nor required behaviours\nfor nlohmann/json library\nare identified, specified,\nverified and validated\nbased on analysis. " target="_top">
<polygon fill="none" stroke="black" points="639.5,-946 435.5,-946 435.5,-848 639.5,-848 639.5,-946"/>
<text text-anchor="middle" x="537.5" y="-930.8" font-family="Open Sans" font-size="14.00">TA&#45;BEHAVIOURS: Expected</text>
<text text-anchor="middle" x="537.5" y="-915.8" font-family="Open Sans" font-size="14.00">or required behaviours</text>
<text text-anchor="middle" x="537.5" y="-900.8" font-family="Open Sans" font-size="14.00">for nlohmann/json library</text>
<text text-anchor="middle" x="537.5" y="-885.8" font-family="Open Sans" font-size="14.00">are identified, specified,</text>
<text text-anchor="middle" x="537.5" y="-870.8" font-family="Open Sans" font-size="14.00">verified and validated</text>
<text text-anchor="middle" x="537.5" y="-855.8" font-family="Open Sans" font-size="14.00">based on analysis. </text>
</a>
</g>
</g>
<!-- TA&#45;BEHAVIOURS&#45;&gt;JLEX&#45;01 -->
<g id="edge8" class="edge">
<title>TA&#45;BEHAVIOURS&#45;&gt;JLEX&#45;01</title>
<path fill="none" stroke="black" d="M537.5,-848C537.5,-807.58 537.5,-750.67 537.5,-714.18"/>
<polygon fill="black" stroke="black" points="541,-714.01 537.5,-704.01 534,-714.01 541,-714.01"/>
</g>
<!-- TT&#45;EXPECTATIONS&#45;&gt;TA&#45;BEHAVIOURS -->
<g id="edge9" class="edge">
<title>TT&#45;EXPECTATIONS&#45;&gt;TA&#45;BEHAVIOURS</title>
<path fill="none" stroke="black" d="M537.5,-1089.72C537.5,-1051.23 537.5,-997.2 537.5,-956.3"/>
<polygon fill="black" stroke="black" points="541,-956.2 537.5,-946.2 534,-956.2 541,-956.2"/>
</g>
<!-- WFJ&#45;08&#45;&gt;NJF&#45;14 -->
<g id="edge10" class="edge">
<title>WFJ&#45;08&#45;&gt;NJF&#45;14</title>
<path fill="none" stroke="black" d="M537.5,-468.67C537.5,-438.84 537.5,-378.74 537.5,-335.3"/>
<polygon fill="black" stroke="black" points="541,-335.19 537.5,-325.19 534,-335.19 541,-335.19"/>
</g>
</g>
</svg>
