<?xml version="1.0" encoding="UTF-8" standalone="no"?>
<!DOCTYPE svg PUBLIC "-//W3C//DTD SVG 1.1//EN"
 "http://www.w3.org/Graphics/SVG/1.1/DTD/svg11.dtd">
<!-- Generated by graphviz version 2.43.0 (0)
 -->
<!-- Title: G Pages: 1 -->
<svg width="682pt" height="802pt"
 viewBox="0.00 0.00 682.00 802.00" xmlns="http://www.w3.org/2000/svg" xmlns:xlink="http://www.w3.org/1999/xlink">
<g id="graph0" class="graph" transform="scale(1 1) rotate(0) translate(4 798)">
<title>G</title>
<polygon fill="white" stroke="transparent" points="-4,4 -4,-798 678,-798 678,4 -4,4"/>
<!-- TRUSTABLE&#45;SOFTWARE -->
<g id="node1" class="node">
<title>TRUSTABLE&#45;SOFTWARE</title>
<g id="a_node1"><a xlink:href="https://score-json.github.io/nlohmann_json/main/_images/custom_TRUSTABLE-SOFTWARE_graph.svg" xlink:title="TRUSTABLE&#45;SOFTWARE: This\nrelease of JSON&#45;Library\nalso reffered in the\ndocumentation as nlohmann/json\nlibrary is Trustable.\n" target="_top">
<polygon fill="none" stroke="black" points="487.5,-794 239.5,-794 239.5,-711 487.5,-711 487.5,-794"/>
<text text-anchor="middle" x="363.5" y="-778.8" font-family="Open Sans" font-size="14.00">TRUSTABLE&#45;SOFTWARE: This</text>
<text text-anchor="middle" x="363.5" y="-763.8" font-family="Open Sans" font-size="14.00">release of JSON&#45;Library</text>
<text text-anchor="middle" x="363.5" y="-748.8" font-family="Open Sans" font-size="14.00">also reffered in the</text>
<text text-anchor="middle" x="363.5" y="-733.8" font-family="Open Sans" font-size="14.00">documentation as nlohmann/json</text>
<text text-anchor="middle" x="363.5" y="-718.8" font-family="Open Sans" font-size="14.00">library is Trustable.</text>
</a>
</g>
</g>
<!-- TT&#45;RESULTS -->
<g id="node6" class="node">
<title>TT&#45;RESULTS</title>
<g id="a_node6"><a xlink:href="https://score-json.github.io/nlohmann_json/main/_images/custom_TT-RESULTS_graph.svg" xlink:title="TT&#45;RESULTS: Evidence\nis provided to demonstrate\nthat nlohmann/json library\ndoes what it is supposed\nto do, and does not do\nwhat it must not do.\n" target="_top">
<polygon fill="none" stroke="black" points="465.5,-567 261.5,-567 261.5,-469 465.5,-469 465.5,-567"/>
<text text-anchor="middle" x="363.5" y="-551.8" font-family="Open Sans" font-size="14.00">TT&#45;RESULTS: Evidence</text>
<text text-anchor="middle" x="363.5" y="-536.8" font-family="Open Sans" font-size="14.00">is provided to demonstrate</text>
<text text-anchor="middle" x="363.5" y="-521.8" font-family="Open Sans" font-size="14.00">that nlohmann/json library</text>
<text text-anchor="middle" x="363.5" y="-506.8" font-family="Open Sans" font-size="14.00">does what it is supposed</text>
<text text-anchor="middle" x="363.5" y="-491.8" font-family="Open Sans" font-size="14.00">to do, and does not do</text>
<text text-anchor="middle" x="363.5" y="-476.8" font-family="Open Sans" font-size="14.00">what it must not do.</text>
</a>
</g>
</g>
<!-- TRUSTABLE&#45;SOFTWARE&#45;&gt;TT&#45;RESULTS -->
<g id="edge1" class="edge">
<title>TRUSTABLE&#45;SOFTWARE&#45;&gt;TT&#45;RESULTS</title>
<path fill="none" stroke="black" d="M363.5,-710.74C363.5,-673.88 363.5,-619.18 363.5,-577.63"/>
<polygon fill="black" stroke="black" points="367,-577.37 363.5,-567.37 360,-577.37 367,-577.37"/>
</g>
<!-- AOU&#45;19 -->
<g id="node2" class="node">
<title>AOU&#45;19</title>
<g id="a_node2"><a xlink:href="https://score-json.github.io/nlohmann_json/main/generated/AOU.html#aou-19" xlink:title="AOU&#45;19: The integrator\nshall analyze monitoring\ndata systematically to\ndetect trends and identify\nissues, as long as nlohmann/json\nis actively used. " target="_top">
<polygon fill="none" stroke="black" points="247,-98 0,-98 0,0 247,0 247,-98"/>
<text text-anchor="middle" x="123.5" y="-82.8" font-family="Open Sans" font-size="14.00">AOU&#45;19: The integrator</text>
<text text-anchor="middle" x="123.5" y="-67.8" font-family="Open Sans" font-size="14.00">shall analyze monitoring</text>
<text text-anchor="middle" x="123.5" y="-52.8" font-family="Open Sans" font-size="14.00">data systematically to</text>
<text text-anchor="middle" x="123.5" y="-37.8" font-family="Open Sans" font-size="14.00">detect trends and identify</text>
<text text-anchor="middle" x="123.5" y="-22.8" font-family="Open Sans" font-size="14.00">issues, as long as nlohmann/json</text>
<text text-anchor="middle" x="123.5" y="-7.8" font-family="Open Sans" font-size="14.00">is actively used. </text>
</a>
</g>
</g>
<!-- JLS&#45;17 -->
<g id="node3" class="node">
<title>JLS&#45;17</title>
<g id="a_node3"><a xlink:href="https://score-json.github.io/nlohmann_json/main/generated/JLS.html#jls-17" xlink:title="JLS&#45;17: A github workflow\ncalculates the fraction\nof expectations covered\nby tests (TODO). " target="_top">
<polygon fill="none" stroke="black" points="461.5,-83 265.5,-83 265.5,-15 461.5,-15 461.5,-83"/>
<text text-anchor="middle" x="363.5" y="-67.8" font-family="Open Sans" font-size="14.00">JLS&#45;17: A github workflow</text>
<text text-anchor="middle" x="363.5" y="-52.8" font-family="Open Sans" font-size="14.00">calculates the fraction</text>
<text text-anchor="middle" x="363.5" y="-37.8" font-family="Open Sans" font-size="14.00">of expectations covered</text>
<text text-anchor="middle" x="363.5" y="-22.8" font-family="Open Sans" font-size="14.00">by tests (TODO). </text>
</a>
</g>
</g>
<!-- JLS&#45;26 -->
<g id="node4" class="node">
<title>JLS&#45;26</title>
<g id="a_node4"><a xlink:href="https://score-json.github.io/nlohmann_json/main/generated/JLS.html#jls-26" xlink:title="JLS&#45;26: Pipeline execution\nresults are analyzed\nin nlohmann/json. " target="_top">
<polygon fill="none" stroke="black" points="674,-75.5 479,-75.5 479,-22.5 674,-22.5 674,-75.5"/>
<text text-anchor="middle" x="576.5" y="-60.3" font-family="Open Sans" font-size="14.00">JLS&#45;26: Pipeline execution</text>
<text text-anchor="middle" x="576.5" y="-45.3" font-family="Open Sans" font-size="14.00">results are analyzed</text>
<text text-anchor="middle" x="576.5" y="-30.3" font-family="Open Sans" font-size="14.00">in nlohmann/json. </text>
</a>
</g>
</g>
<!-- TA&#45;ANALYSIS -->
<g id="node5" class="node">
<title>TA&#45;ANALYSIS</title>
<g id="a_node5"><a xlink:href="https://score-json.github.io/nlohmann_json/main/_images/custom_TA-ANALYSIS_graph.svg" xlink:title="TA&#45;ANALYSIS: Collected\ndata from tests and monitoring\nof deployed software\nis analysed according\nto specified objectives.\n" target="_top">
<polygon fill="none" stroke="black" points="480,-325 247,-325 247,-242 480,-242 480,-325"/>
<text text-anchor="middle" x="363.5" y="-309.8" font-family="Open Sans" font-size="14.00">TA&#45;ANALYSIS: Collected</text>
<text text-anchor="middle" x="363.5" y="-294.8" font-family="Open Sans" font-size="14.00">data from tests and monitoring</text>
<text text-anchor="middle" x="363.5" y="-279.8" font-family="Open Sans" font-size="14.00">of deployed software</text>
<text text-anchor="middle" x="363.5" y="-264.8" font-family="Open Sans" font-size="14.00">is analysed according</text>
<text text-anchor="middle" x="363.5" y="-249.8" font-family="Open Sans" font-size="14.00">to specified objectives.</text>
</a>
</g>
</g>
<!-- TA&#45;ANALYSIS&#45;&gt;AOU&#45;19 -->
<g id="edge3" class="edge">
<title>TA&#45;ANALYSIS&#45;&gt;AOU&#45;19</title>
<path fill="none" stroke="black" d="M321.42,-241.74C282.41,-203.94 224.03,-147.39 180.78,-105.49"/>
<polygon fill="black" stroke="black" points="183.05,-102.81 173.43,-98.37 178.18,-107.84 183.05,-102.81"/>
</g>
<!-- TA&#45;ANALYSIS&#45;&gt;JLS&#45;17 -->
<g id="edge2" class="edge">
<title>TA&#45;ANALYSIS&#45;&gt;JLS&#45;17</title>
<path fill="none" stroke="black" d="M363.5,-241.74C363.5,-200.11 363.5,-135.73 363.5,-93.23"/>
<polygon fill="black" stroke="black" points="367,-93.19 363.5,-83.19 360,-93.19 367,-93.19"/>
</g>
<!-- TA&#45;ANALYSIS&#45;&gt;JLS&#45;26 -->
<g id="edge4" class="edge">
<title>TA&#45;ANALYSIS&#45;&gt;JLS&#45;26</title>
<path fill="none" stroke="black" d="M400.85,-241.74C442.18,-196.62 508,-124.77 546.24,-83.03"/>
<polygon fill="black" stroke="black" points="548.88,-85.33 553.05,-75.6 543.72,-80.6 548.88,-85.33"/>
</g>
<!-- TT&#45;RESULTS&#45;&gt;TA&#45;ANALYSIS -->
<g id="edge5" class="edge">
<title>TT&#45;RESULTS&#45;&gt;TA&#45;ANALYSIS</title>
<path fill="none" stroke="black" d="M363.5,-468.83C363.5,-429.79 363.5,-374.95 363.5,-335.25"/>
<polygon fill="black" stroke="black" points="367,-335.24 363.5,-325.24 360,-335.24 367,-335.24"/>
</g>
</g>
</svg>
