<?xml version="1.0" encoding="UTF-8" standalone="no"?>
<!DOCTYPE svg PUBLIC "-//W3C//DTD SVG 1.1//EN"
 "http://www.w3.org/Graphics/SVG/1.1/DTD/svg11.dtd">
<!-- Generated by graphviz version 2.43.0 (0)
 -->
<!-- Title: G Pages: 1 -->
<svg width="2092pt" height="1074pt"
 viewBox="0.00 0.00 2091.50 1074.00" xmlns="http://www.w3.org/2000/svg" xmlns:xlink="http://www.w3.org/1999/xlink">
<g id="graph0" class="graph" transform="scale(1 1) rotate(0) translate(4 1070)">
<title>G</title>
<polygon fill="white" stroke="transparent" points="-4,4 -4,-1070 2087.5,-1070 2087.5,4 -4,4"/>
<!-- TRUSTABLE&#45;SOFTWARE -->
<g id="node1" class="node">
<title>TRUSTABLE&#45;SOFTWARE</title>
<g id="a_node1"><a xlink:href="https://score-json.github.io/nlohmann_json/main/_images/custom_TRUSTABLE-SOFTWARE_graph.svg" xlink:title="TRUSTABLE&#45;SOFTWARE: This\nrelease of JSON&#45;Library\nalso referred in the\ndocumentation as nlohmann/json\nlibrary is Trustable.\n" target="_top">
<polygon fill="none" stroke="black" points="1227,-1066 979,-1066 979,-983 1227,-983 1227,-1066"/>
<text text-anchor="middle" x="1103" y="-1050.8" font-family="Open Sans" font-size="14.00">TRUSTABLE&#45;SOFTWARE: This</text>
<text text-anchor="middle" x="1103" y="-1035.8" font-family="Open Sans" font-size="14.00">release of JSON&#45;Library</text>
<text text-anchor="middle" x="1103" y="-1020.8" font-family="Open Sans" font-size="14.00">also referred in the</text>
<text text-anchor="middle" x="1103" y="-1005.8" font-family="Open Sans" font-size="14.00">documentation as nlohmann/json</text>
<text text-anchor="middle" x="1103" y="-990.8" font-family="Open Sans" font-size="14.00">library is Trustable.</text>
</a>
</g>
</g>
<!-- TT&#45;EXPECTATIONS -->
<g id="node4" class="node">
<title>TT&#45;EXPECTATIONS</title>
<g id="a_node4"><a xlink:href="https://score-json.github.io/nlohmann_json/main/_images/custom_TT-EXPECTATIONS_graph.svg" xlink:title="TT&#45;EXPECTATIONS: Documentation\nis provided within eclipse&#45;score/inc_nlohmann_json,\nspecifying what the nlohmann/json\nlibrary is expected to\ndo, and what it must\nnot do, and how this\nis verified. " target="_top">
<polygon fill="none" stroke="black" points="1290.5,-839 915.5,-839 915.5,-726 1290.5,-726 1290.5,-839"/>
<text text-anchor="middle" x="1103" y="-823.8" font-family="Open Sans" font-size="14.00">TT&#45;EXPECTATIONS: Documentation</text>
<text text-anchor="middle" x="1103" y="-808.8" font-family="Open Sans" font-size="14.00">is provided within eclipse&#45;score/inc_nlohmann_json,</text>
<text text-anchor="middle" x="1103" y="-793.8" font-family="Open Sans" font-size="14.00">specifying what the nlohmann/json</text>
<text text-anchor="middle" x="1103" y="-778.8" font-family="Open Sans" font-size="14.00">library is expected to</text>
<text text-anchor="middle" x="1103" y="-763.8" font-family="Open Sans" font-size="14.00">do, and what it must</text>
<text text-anchor="middle" x="1103" y="-748.8" font-family="Open Sans" font-size="14.00">not do, and how this</text>
<text text-anchor="middle" x="1103" y="-733.8" font-family="Open Sans" font-size="14.00">is verified. </text>
</a>
</g>
</g>
<!-- TRUSTABLE&#45;SOFTWARE&#45;&gt;TT&#45;EXPECTATIONS -->
<g id="edge1" class="edge">
<title>TRUSTABLE&#45;SOFTWARE&#45;&gt;TT&#45;EXPECTATIONS</title>
<path fill="none" stroke="black" d="M1103,-982.79C1103,-946.26 1103,-892 1103,-849.32"/>
<polygon fill="black" stroke="black" points="1106.5,-849.29 1103,-839.29 1099.5,-849.29 1106.5,-849.29"/>
</g>
<!-- JLEX&#45;01 -->
<g id="node2" class="node">
<title>JLEX&#45;01</title>
<g id="a_node2"><a xlink:href="https://score-json.github.io/nlohmann_json/main/_images/custom_JLEX-01_graph.svg" xlink:title="JLEX&#45;01: The requirement\nregarding [JSON Validation](https://eclipse&#45;score.github.io/score/main/modules/baselibs/json/docs/requirements/index.html#comp_req__json__validation)\nis fulfilled. " target="_top">
<polygon fill="none" stroke="black" points="1640.5,-340 565.5,-340 565.5,-287 1640.5,-287 1640.5,-340"/>
<text text-anchor="middle" x="1103" y="-324.8" font-family="Open Sans" font-size="14.00">JLEX&#45;01: The requirement</text>
<text text-anchor="middle" x="1103" y="-309.8" font-family="Open Sans" font-size="14.00">regarding [JSON Validation](https://eclipse&#45;score.github.io/score/main/modules/baselibs/json/docs/requirements/index.html#comp_req__json__validation)</text>
<text text-anchor="middle" x="1103" y="-294.8" font-family="Open Sans" font-size="14.00">is fulfilled. </text>
</a>
</g>
</g>
<!-- WFJ&#45;01 -->
<g id="node5" class="node">
<title>WFJ&#45;01</title>
<g id="a_node5"><a xlink:href="https://score-json.github.io/nlohmann_json/main/_images/custom_WFJ-01_graph.svg" xlink:title="WFJ&#45;01: The service provided\nby the nlohmann/json\nlibrary checks the well&#45;formedness\nof the literal names.\n" target="_top">
<polygon fill="none" stroke="black" points="260,-105.5 0,-105.5 0,-37.5 260,-37.5 260,-105.5"/>
<text text-anchor="middle" x="130" y="-90.3" font-family="Open Sans" font-size="14.00">WFJ&#45;01: The service provided</text>
<text text-anchor="middle" x="130" y="-75.3" font-family="Open Sans" font-size="14.00">by the nlohmann/json</text>
<text text-anchor="middle" x="130" y="-60.3" font-family="Open Sans" font-size="14.00">library checks the well&#45;formedness</text>
<text text-anchor="middle" x="130" y="-45.3" font-family="Open Sans" font-size="14.00">of the literal names.</text>
</a>
</g>
</g>
<!-- JLEX&#45;01&#45;&gt;WFJ&#45;01 -->
<g id="edge2" class="edge">
<title>JLEX&#45;01&#45;&gt;WFJ&#45;01</title>
<path fill="none" stroke="black" d="M900.96,-286.98C729.5,-261.68 478.66,-215.97 269,-143 244.18,-134.36 218.19,-122.13 195.49,-110.28"/>
<polygon fill="black" stroke="black" points="197.11,-107.18 186.63,-105.59 193.83,-113.36 197.11,-107.18"/>
</g>
<!-- WFJ&#45;02 -->
<g id="node6" class="node">
<title>WFJ&#45;02</title>
<g id="a_node6"><a xlink:href="https://score-json.github.io/nlohmann_json/main/_images/custom_WFJ-02_graph.svg" xlink:title="WFJ&#45;02: The service provided\nby the nlohmann/json\nlibrary checks the well&#45;formedness\nof strings. " target="_top">
<polygon fill="none" stroke="black" points="538,-105.5 278,-105.5 278,-37.5 538,-37.5 538,-105.5"/>
<text text-anchor="middle" x="408" y="-90.3" font-family="Open Sans" font-size="14.00">WFJ&#45;02: The service provided</text>
<text text-anchor="middle" x="408" y="-75.3" font-family="Open Sans" font-size="14.00">by the nlohmann/json</text>
<text text-anchor="middle" x="408" y="-60.3" font-family="Open Sans" font-size="14.00">library checks the well&#45;formedness</text>
<text text-anchor="middle" x="408" y="-45.3" font-family="Open Sans" font-size="14.00">of strings. </text>
</a>
</g>
</g>
<!-- JLEX&#45;01&#45;&gt;WFJ&#45;02 -->
<g id="edge3" class="edge">
<title>JLEX&#45;01&#45;&gt;WFJ&#45;02</title>
<path fill="none" stroke="black" d="M1000.48,-286.97C887.51,-257.53 701.35,-205.12 547,-143 523.5,-133.54 498.61,-121.58 476.47,-110.2"/>
<polygon fill="black" stroke="black" points="477.98,-107.04 467.5,-105.54 474.76,-113.25 477.98,-107.04"/>
</g>
<!-- WFJ&#45;03 -->
<g id="node7" class="node">
<title>WFJ&#45;03</title>
<g id="a_node7"><a xlink:href="https://score-json.github.io/nlohmann_json/main/_images/custom_WFJ-03_graph.svg" xlink:title="WFJ&#45;03: The service provided\nby the nlohmann/json\nlibrary checks the well&#45;formedness\nof numbers. " target="_top">
<polygon fill="none" stroke="black" points="816,-105.5 556,-105.5 556,-37.5 816,-37.5 816,-105.5"/>
<text text-anchor="middle" x="686" y="-90.3" font-family="Open Sans" font-size="14.00">WFJ&#45;03: The service provided</text>
<text text-anchor="middle" x="686" y="-75.3" font-family="Open Sans" font-size="14.00">by the nlohmann/json</text>
<text text-anchor="middle" x="686" y="-60.3" font-family="Open Sans" font-size="14.00">library checks the well&#45;formedness</text>
<text text-anchor="middle" x="686" y="-45.3" font-family="Open Sans" font-size="14.00">of numbers. </text>
</a>
</g>
</g>
<!-- JLEX&#45;01&#45;&gt;WFJ&#45;03 -->
<g id="edge4" class="edge">
<title>JLEX&#45;01&#45;&gt;WFJ&#45;03</title>
<path fill="none" stroke="black" d="M1058.37,-286.82C984.91,-244.54 838.14,-160.06 752.44,-110.74"/>
<polygon fill="black" stroke="black" points="753.98,-107.59 743.57,-105.63 750.49,-113.66 753.98,-107.59"/>
</g>
<!-- WFJ&#45;04 -->
<g id="node8" class="node">
<title>WFJ&#45;04</title>
<g id="a_node8"><a xlink:href="https://score-json.github.io/nlohmann_json/main/_images/custom_WFJ-04_graph.svg" xlink:title="WFJ&#45;04: The service provided\nby the nlohmann/json\nlibrary checks the well&#45;formedness\nof array. " target="_top">
<polygon fill="none" stroke="black" points="1094,-105.5 834,-105.5 834,-37.5 1094,-37.5 1094,-105.5"/>
<text text-anchor="middle" x="964" y="-90.3" font-family="Open Sans" font-size="14.00">WFJ&#45;04: The service provided</text>
<text text-anchor="middle" x="964" y="-75.3" font-family="Open Sans" font-size="14.00">by the nlohmann/json</text>
<text text-anchor="middle" x="964" y="-60.3" font-family="Open Sans" font-size="14.00">library checks the well&#45;formedness</text>
<text text-anchor="middle" x="964" y="-45.3" font-family="Open Sans" font-size="14.00">of array. </text>
</a>
</g>
</g>
<!-- JLEX&#45;01&#45;&gt;WFJ&#45;04 -->
<g id="edge5" class="edge">
<title>JLEX&#45;01&#45;&gt;WFJ&#45;04</title>
<path fill="none" stroke="black" d="M1088.12,-286.82C1064.26,-245.61 1017.17,-164.31 988.35,-114.54"/>
<polygon fill="black" stroke="black" points="991.23,-112.53 983.19,-105.63 985.17,-116.04 991.23,-112.53"/>
</g>
<!-- WFJ&#45;05 -->
<g id="node9" class="node">
<title>WFJ&#45;05</title>
<g id="a_node9"><a xlink:href="https://score-json.github.io/nlohmann_json/main/_images/custom_WFJ-05_graph.svg" xlink:title="WFJ&#45;05: The service provided\nby the nlohmann/json\nlibrary checks the well&#45;formedness\nof objects. " target="_top">
<polygon fill="none" stroke="black" points="1372,-105.5 1112,-105.5 1112,-37.5 1372,-37.5 1372,-105.5"/>
<text text-anchor="middle" x="1242" y="-90.3" font-family="Open Sans" font-size="14.00">WFJ&#45;05: The service provided</text>
<text text-anchor="middle" x="1242" y="-75.3" font-family="Open Sans" font-size="14.00">by the nlohmann/json</text>
<text text-anchor="middle" x="1242" y="-60.3" font-family="Open Sans" font-size="14.00">library checks the well&#45;formedness</text>
<text text-anchor="middle" x="1242" y="-45.3" font-family="Open Sans" font-size="14.00">of objects. </text>
</a>
</g>
</g>
<!-- JLEX&#45;01&#45;&gt;WFJ&#45;05 -->
<g id="edge6" class="edge">
<title>JLEX&#45;01&#45;&gt;WFJ&#45;05</title>
<path fill="none" stroke="black" d="M1117.88,-286.82C1141.74,-245.61 1188.83,-164.31 1217.65,-114.54"/>
<polygon fill="black" stroke="black" points="1220.83,-116.04 1222.81,-105.63 1214.77,-112.53 1220.83,-116.04"/>
</g>
<!-- WFJ&#45;06 -->
<g id="node10" class="node">
<title>WFJ&#45;06</title>
<g id="a_node10"><a xlink:href="https://score-json.github.io/nlohmann_json/main/generated/WFJ.html#wfj-06" xlink:title="WFJ&#45;06: The service provided\nby the nlohmann/json\nlibrary checks that a\nJSON value must be an\nobject, array, number,\nor string, or one of\nthe lowercase literal\nnames false, null, or\ntrue " target="_top">
<polygon fill="none" stroke="black" points="1609.5,-143 1390.5,-143 1390.5,0 1609.5,0 1609.5,-143"/>
<text text-anchor="middle" x="1500" y="-127.8" font-family="Open Sans" font-size="14.00">WFJ&#45;06: The service provided</text>
<text text-anchor="middle" x="1500" y="-112.8" font-family="Open Sans" font-size="14.00">by the nlohmann/json</text>
<text text-anchor="middle" x="1500" y="-97.8" font-family="Open Sans" font-size="14.00">library checks that a</text>
<text text-anchor="middle" x="1500" y="-82.8" font-family="Open Sans" font-size="14.00">JSON value must be an</text>
<text text-anchor="middle" x="1500" y="-67.8" font-family="Open Sans" font-size="14.00">object, array, number,</text>
<text text-anchor="middle" x="1500" y="-52.8" font-family="Open Sans" font-size="14.00">or string, or one of</text>
<text text-anchor="middle" x="1500" y="-37.8" font-family="Open Sans" font-size="14.00">the lowercase literal</text>
<text text-anchor="middle" x="1500" y="-22.8" font-family="Open Sans" font-size="14.00">names false, null, or</text>
<text text-anchor="middle" x="1500" y="-7.8" font-family="Open Sans" font-size="14.00">true </text>
</a>
</g>
</g>
<!-- JLEX&#45;01&#45;&gt;WFJ&#45;06 -->
<g id="edge7" class="edge">
<title>JLEX&#45;01&#45;&gt;WFJ&#45;06</title>
<path fill="none" stroke="black" d="M1145.49,-286.82C1201.36,-253.04 1301.78,-192.33 1381.52,-144.13"/>
<polygon fill="black" stroke="black" points="1383.4,-147.08 1390.15,-138.91 1379.78,-141.09 1383.4,-147.08"/>
</g>
<!-- WFJ&#45;07 -->
<g id="node11" class="node">
<title>WFJ&#45;07</title>
<g id="a_node11"><a xlink:href="https://score-json.github.io/nlohmann_json/main/_images/custom_WFJ-07_graph.svg" xlink:title="WFJ&#45;07: The service provided\nby the nlohmann/json\nlibrary checks that JSON\nis only serialized using\nUTF&#45;8. " target="_top">
<polygon fill="none" stroke="black" points="1846.5,-113 1627.5,-113 1627.5,-30 1846.5,-30 1846.5,-113"/>
<text text-anchor="middle" x="1737" y="-97.8" font-family="Open Sans" font-size="14.00">WFJ&#45;07: The service provided</text>
<text text-anchor="middle" x="1737" y="-82.8" font-family="Open Sans" font-size="14.00">by the nlohmann/json</text>
<text text-anchor="middle" x="1737" y="-67.8" font-family="Open Sans" font-size="14.00">library checks that JSON</text>
<text text-anchor="middle" x="1737" y="-52.8" font-family="Open Sans" font-size="14.00">is only serialized using</text>
<text text-anchor="middle" x="1737" y="-37.8" font-family="Open Sans" font-size="14.00">UTF&#45;8. </text>
</a>
</g>
</g>
<!-- JLEX&#45;01&#45;&gt;WFJ&#45;07 -->
<g id="edge8" class="edge">
<title>JLEX&#45;01&#45;&gt;WFJ&#45;07</title>
<path fill="none" stroke="black" d="M1202.45,-286.9C1308.21,-258.06 1479.16,-206.79 1619,-143 1634.7,-135.84 1650.94,-127.1 1666.17,-118.24"/>
<polygon fill="black" stroke="black" points="1668.18,-121.12 1675.01,-113.03 1664.62,-115.09 1668.18,-121.12"/>
</g>
<!-- WFJ&#45;08 -->
<g id="node12" class="node">
<title>WFJ&#45;08</title>
<g id="a_node12"><a xlink:href="https://score-json.github.io/nlohmann_json/main/_images/custom_WFJ-08_graph.svg" xlink:title="WFJ&#45;08: The service provided\nby the nlohmann/json\nlibrary ignores byte\norder marks. " target="_top">
<polygon fill="none" stroke="black" points="2083.5,-105.5 1864.5,-105.5 1864.5,-37.5 2083.5,-37.5 2083.5,-105.5"/>
<text text-anchor="middle" x="1974" y="-90.3" font-family="Open Sans" font-size="14.00">WFJ&#45;08: The service provided</text>
<text text-anchor="middle" x="1974" y="-75.3" font-family="Open Sans" font-size="14.00">by the nlohmann/json</text>
<text text-anchor="middle" x="1974" y="-60.3" font-family="Open Sans" font-size="14.00">library ignores byte</text>
<text text-anchor="middle" x="1974" y="-45.3" font-family="Open Sans" font-size="14.00">order marks. </text>
</a>
</g>
</g>
<!-- JLEX&#45;01&#45;&gt;WFJ&#45;08 -->
<g id="edge9" class="edge">
<title>JLEX&#45;01&#45;&gt;WFJ&#45;08</title>
<path fill="none" stroke="black" d="M1292.07,-286.98C1447.42,-262.02 1671.2,-216.81 1856,-143 1877.14,-134.56 1898.91,-122.62 1917.9,-110.96"/>
<polygon fill="black" stroke="black" points="1919.8,-113.9 1926.42,-105.64 1916.09,-107.97 1919.8,-113.9"/>
</g>
<!-- TA&#45;BEHAVIOURS -->
<g id="node3" class="node">
<title>TA&#45;BEHAVIOURS</title>
<g id="a_node3"><a xlink:href="https://score-json.github.io/nlohmann_json/main/_images/custom_TA-BEHAVIOURS_graph.svg" xlink:title="TA&#45;BEHAVIOURS: Expected\nor required behaviours\nfor the nlohmann/json\nlibrary are identified,\nspecified, verified and\nvalidated based on analysis.\n" target="_top">
<polygon fill="none" stroke="black" points="1210,-582 996,-582 996,-484 1210,-484 1210,-582"/>
<text text-anchor="middle" x="1103" y="-566.8" font-family="Open Sans" font-size="14.00">TA&#45;BEHAVIOURS: Expected</text>
<text text-anchor="middle" x="1103" y="-551.8" font-family="Open Sans" font-size="14.00">or required behaviours</text>
<text text-anchor="middle" x="1103" y="-536.8" font-family="Open Sans" font-size="14.00">for the nlohmann/json</text>
<text text-anchor="middle" x="1103" y="-521.8" font-family="Open Sans" font-size="14.00">library are identified,</text>
<text text-anchor="middle" x="1103" y="-506.8" font-family="Open Sans" font-size="14.00">specified, verified and</text>
<text text-anchor="middle" x="1103" y="-491.8" font-family="Open Sans" font-size="14.00">validated based on analysis.</text>
</a>
</g>
</g>
<!-- TA&#45;BEHAVIOURS&#45;&gt;JLEX&#45;01 -->
<g id="edge10" class="edge">
<title>TA&#45;BEHAVIOURS&#45;&gt;JLEX&#45;01</title>
<path fill="none" stroke="black" d="M1103,-484C1103,-443.58 1103,-386.67 1103,-350.18"/>
<polygon fill="black" stroke="black" points="1106.5,-350.01 1103,-340.01 1099.5,-350.01 1106.5,-350.01"/>
</g>
<!-- TT&#45;EXPECTATIONS&#45;&gt;TA&#45;BEHAVIOURS -->
<g id="edge11" class="edge">
<title>TT&#45;EXPECTATIONS&#45;&gt;TA&#45;BEHAVIOURS</title>
<path fill="none" stroke="black" d="M1103,-725.96C1103,-686.23 1103,-632.87 1103,-592.49"/>
<polygon fill="black" stroke="black" points="1106.5,-592.26 1103,-582.26 1099.5,-592.26 1106.5,-592.26"/>
</g>
</g>
</svg>
