<?xml version="1.0" encoding="UTF-8" standalone="no"?>
<!DOCTYPE svg PUBLIC "-//W3C//DTD SVG 1.1//EN"
 "http://www.w3.org/Graphics/SVG/1.1/DTD/svg11.dtd">
<!-- Generated by graphviz version 2.43.0 (0)
 -->
<!-- Title: G Pages: 1 -->
<svg width="1150pt" height="1483pt"
 viewBox="0.00 0.00 1150.00 1483.00" xmlns="http://www.w3.org/2000/svg" xmlns:xlink="http://www.w3.org/1999/xlink">
<g id="graph0" class="graph" transform="scale(1 1) rotate(0) translate(4 1479)">
<title>G</title>
<polygon fill="white" stroke="transparent" points="-4,4 -4,-1479 1146,-1479 1146,4 -4,4"/>
<!-- TRUSTABLE&#45;SOFTWARE -->
<g id="node1" class="node">
<title>TRUSTABLE&#45;SOFTWARE</title>
<g id="a_node1"><a xlink:href="https://score-json.github.io/nlohmann_json/main/_images/custom_TRUSTABLE-SOFTWARE_graph.svg" xlink:title="TRUSTABLE&#45;SOFTWARE: This\nrelease of JSON&#45;Library\nalso reffered in the\ndocumentation as nlohmann/json\nlibrary is Trustable.\n" target="_top">
<polygon fill="none" stroke="black" points="695,-1475 447,-1475 447,-1392 695,-1392 695,-1475"/>
<text text-anchor="middle" x="571" y="-1459.8" font-family="Open Sans" font-size="14.00">TRUSTABLE&#45;SOFTWARE: This</text>
<text text-anchor="middle" x="571" y="-1444.8" font-family="Open Sans" font-size="14.00">release of JSON&#45;Library</text>
<text text-anchor="middle" x="571" y="-1429.8" font-family="Open Sans" font-size="14.00">also reffered in the</text>
<text text-anchor="middle" x="571" y="-1414.8" font-family="Open Sans" font-size="14.00">documentation as nlohmann/json</text>
<text text-anchor="middle" x="571" y="-1399.8" font-family="Open Sans" font-size="14.00">library is Trustable.</text>
</a>
</g>
</g>
<!-- TT&#45;EXPECTATIONS -->
<g id="node11" class="node">
<title>TT&#45;EXPECTATIONS</title>
<g id="a_node11"><a xlink:href="https://score-json.github.io/nlohmann_json/main/_images/custom_TT-EXPECTATIONS_graph.svg" xlink:title="TT&#45;EXPECTATIONS: Documentation\nis provided, specifying\nwhat nlohmann/json library\nis expected to do, and\nwhat it must not do,\nand how this is verified.\n" target="_top">
<polygon fill="none" stroke="black" points="699.5,-1248 442.5,-1248 442.5,-1150 699.5,-1150 699.5,-1248"/>
<text text-anchor="middle" x="571" y="-1232.8" font-family="Open Sans" font-size="14.00">TT&#45;EXPECTATIONS: Documentation</text>
<text text-anchor="middle" x="571" y="-1217.8" font-family="Open Sans" font-size="14.00">is provided, specifying</text>
<text text-anchor="middle" x="571" y="-1202.8" font-family="Open Sans" font-size="14.00">what nlohmann/json library</text>
<text text-anchor="middle" x="571" y="-1187.8" font-family="Open Sans" font-size="14.00">is expected to do, and</text>
<text text-anchor="middle" x="571" y="-1172.8" font-family="Open Sans" font-size="14.00">what it must not do,</text>
<text text-anchor="middle" x="571" y="-1157.8" font-family="Open Sans" font-size="14.00">and how this is verified.</text>
</a>
</g>
</g>
<!-- TRUSTABLE&#45;SOFTWARE&#45;&gt;TT&#45;EXPECTATIONS -->
<g id="edge1" class="edge">
<title>TRUSTABLE&#45;SOFTWARE&#45;&gt;TT&#45;EXPECTATIONS</title>
<path fill="none" stroke="black" d="M571,-1391.74C571,-1354.88 571,-1300.18 571,-1258.63"/>
<polygon fill="black" stroke="black" points="574.5,-1258.37 571,-1248.37 567.5,-1258.37 574.5,-1258.37"/>
</g>
<!-- JLEX&#45;02 -->
<g id="node2" class="node">
<title>JLEX&#45;02</title>
<g id="a_node2"><a xlink:href="https://score-json.github.io/nlohmann_json/main/_images/custom_JLEX-02_graph.svg" xlink:title="JLEX&#45;02: The requirement\nregarding [JSON Deserialization](https://eclipse&#45;score.github.io/score/main/modules/baselibs/json/docs/requirements/index.html#comp_req__json__deserialization)\nis fulfilled. " target="_top">
<polygon fill="none" stroke="black" points="1142,-764 0,-764 0,-711 1142,-711 1142,-764"/>
<text text-anchor="middle" x="571" y="-748.8" font-family="Open Sans" font-size="14.00">JLEX&#45;02: The requirement</text>
<text text-anchor="middle" x="571" y="-733.8" font-family="Open Sans" font-size="14.00">regarding [JSON Deserialization](https://eclipse&#45;score.github.io/score/main/modules/baselibs/json/docs/requirements/index.html#comp_req__json__deserialization)</text>
<text text-anchor="middle" x="571" y="-718.8" font-family="Open Sans" font-size="14.00">is fulfilled. </text>
</a>
</g>
</g>
<!-- PJD&#45;01 -->
<g id="node9" class="node">
<title>PJD&#45;01</title>
<g id="a_node9"><a xlink:href="https://score-json.github.io/nlohmann_json/main/_images/custom_PJD-01_graph.svg" xlink:title="PJD&#45;01: The service provides\nimplementations that\nparses JSON texts, which\nignores the presence\nof a byte order mark\nrather than treating\nit as an error. " target="_top">
<polygon fill="none" stroke="black" points="678.5,-567 463.5,-567 463.5,-454 678.5,-454 678.5,-567"/>
<text text-anchor="middle" x="571" y="-551.8" font-family="Open Sans" font-size="14.00">PJD&#45;01: The service provides</text>
<text text-anchor="middle" x="571" y="-536.8" font-family="Open Sans" font-size="14.00">implementations that</text>
<text text-anchor="middle" x="571" y="-521.8" font-family="Open Sans" font-size="14.00">parses JSON texts, which</text>
<text text-anchor="middle" x="571" y="-506.8" font-family="Open Sans" font-size="14.00">ignores the presence</text>
<text text-anchor="middle" x="571" y="-491.8" font-family="Open Sans" font-size="14.00">of a byte order mark</text>
<text text-anchor="middle" x="571" y="-476.8" font-family="Open Sans" font-size="14.00">rather than treating</text>
<text text-anchor="middle" x="571" y="-461.8" font-family="Open Sans" font-size="14.00">it as an error. </text>
</a>
</g>
</g>
<!-- JLEX&#45;02&#45;&gt;PJD&#45;01 -->
<g id="edge2" class="edge">
<title>JLEX&#45;02&#45;&gt;PJD&#45;01</title>
<path fill="none" stroke="black" d="M571,-710.69C571,-678.46 571,-622.13 571,-577.58"/>
<polygon fill="black" stroke="black" points="574.5,-577.4 571,-567.4 567.5,-577.4 574.5,-577.4"/>
</g>
<!-- NPF&#45;01 -->
<g id="node3" class="node">
<title>NPF&#45;01</title>
<g id="a_node3"><a xlink:href="https://score-json.github.io/nlohmann_json/main/_images/custom_NPF-01_graph.svg" xlink:title="NPF&#45;01: The service ignores\nthe presence of a byte\norder mark. " target="_top">
<polygon fill="none" stroke="black" points="676.5,-310 465.5,-310 465.5,-257 676.5,-257 676.5,-310"/>
<text text-anchor="middle" x="571" y="-294.8" font-family="Open Sans" font-size="14.00">NPF&#45;01: The service ignores</text>
<text text-anchor="middle" x="571" y="-279.8" font-family="Open Sans" font-size="14.00">the presence of a byte</text>
<text text-anchor="middle" x="571" y="-264.8" font-family="Open Sans" font-size="14.00">order mark. </text>
</a>
</g>
</g>
<!-- NPF&#45;01.1 -->
<g id="node4" class="node">
<title>NPF&#45;01.1</title>
<g id="a_node4"><a xlink:href="https://score-json.github.io/nlohmann_json/main/generated/NPF.html#npf-01.1" xlink:title="NPF&#45;01.1: The service\nignores the presence\nof a single UTF&#45;8 byte\norder mark at the very\nbeginning of the input.\n" target="_top">
<polygon fill="none" stroke="black" points="206,-98 30,-98 30,-15 206,-15 206,-98"/>
<text text-anchor="middle" x="118" y="-82.8" font-family="Open Sans" font-size="14.00">NPF&#45;01.1: The service</text>
<text text-anchor="middle" x="118" y="-67.8" font-family="Open Sans" font-size="14.00">ignores the presence</text>
<text text-anchor="middle" x="118" y="-52.8" font-family="Open Sans" font-size="14.00">of a single UTF&#45;8 byte</text>
<text text-anchor="middle" x="118" y="-37.8" font-family="Open Sans" font-size="14.00">order mark at the very</text>
<text text-anchor="middle" x="118" y="-22.8" font-family="Open Sans" font-size="14.00">beginning of the input.</text>
</a>
</g>
</g>
<!-- NPF&#45;01&#45;&gt;NPF&#45;01.1 -->
<g id="edge3" class="edge">
<title>NPF&#45;01&#45;&gt;NPF&#45;01.1</title>
<path fill="none" stroke="black" d="M513.41,-256.9C442.26,-224.86 317.86,-167.57 214,-113 207.99,-109.84 201.81,-106.5 195.63,-103.09"/>
<polygon fill="black" stroke="black" points="197.02,-99.86 186.58,-98.04 193.61,-105.97 197.02,-99.86"/>
</g>
<!-- NPF&#45;01.2 -->
<g id="node5" class="node">
<title>NPF&#45;01.2</title>
<g id="a_node5"><a xlink:href="https://score-json.github.io/nlohmann_json/main/generated/NPF.html#npf-01.2" xlink:title="NPF&#45;01.2: The service\ndoes not parse multiple\nUTF&#45;8 byte order marks\nat the beginning of the\ninput and throws an exception.\n" target="_top">
<polygon fill="none" stroke="black" points="456.5,-98 223.5,-98 223.5,-15 456.5,-15 456.5,-98"/>
<text text-anchor="middle" x="340" y="-82.8" font-family="Open Sans" font-size="14.00">NPF&#45;01.2: The service</text>
<text text-anchor="middle" x="340" y="-67.8" font-family="Open Sans" font-size="14.00">does not parse multiple</text>
<text text-anchor="middle" x="340" y="-52.8" font-family="Open Sans" font-size="14.00">UTF&#45;8 byte order marks</text>
<text text-anchor="middle" x="340" y="-37.8" font-family="Open Sans" font-size="14.00">at the beginning of the</text>
<text text-anchor="middle" x="340" y="-22.8" font-family="Open Sans" font-size="14.00">input and throws an exception.</text>
</a>
</g>
</g>
<!-- NPF&#45;01&#45;&gt;NPF&#45;01.2 -->
<g id="edge4" class="edge">
<title>NPF&#45;01&#45;&gt;NPF&#45;01.2</title>
<path fill="none" stroke="black" d="M544.5,-256.69C506.7,-219.87 436.64,-151.63 389.18,-105.4"/>
<polygon fill="black" stroke="black" points="391.37,-102.65 381.77,-98.18 386.49,-107.67 391.37,-102.65"/>
</g>
<!-- NPF&#45;01.3 -->
<g id="node6" class="node">
<title>NPF&#45;01.3</title>
<g id="a_node6"><a xlink:href="https://score-json.github.io/nlohmann_json/main/generated/NPF.html#npf-01.3" xlink:title="NPF&#45;01.3: The service\ndoes not parse UTF&#45;8\nbyte order marks outside\nof a string and the first\nthree characters of the\ninput, and throws an\nexception. " target="_top">
<polygon fill="none" stroke="black" points="667,-113 475,-113 475,0 667,0 667,-113"/>
<text text-anchor="middle" x="571" y="-97.8" font-family="Open Sans" font-size="14.00">NPF&#45;01.3: The service</text>
<text text-anchor="middle" x="571" y="-82.8" font-family="Open Sans" font-size="14.00">does not parse UTF&#45;8</text>
<text text-anchor="middle" x="571" y="-67.8" font-family="Open Sans" font-size="14.00">byte order marks outside</text>
<text text-anchor="middle" x="571" y="-52.8" font-family="Open Sans" font-size="14.00">of a string and the first</text>
<text text-anchor="middle" x="571" y="-37.8" font-family="Open Sans" font-size="14.00">three characters of the</text>
<text text-anchor="middle" x="571" y="-22.8" font-family="Open Sans" font-size="14.00">input, and throws an</text>
<text text-anchor="middle" x="571" y="-7.8" font-family="Open Sans" font-size="14.00">exception. </text>
</a>
</g>
</g>
<!-- NPF&#45;01&#45;&gt;NPF&#45;01.3 -->
<g id="edge5" class="edge">
<title>NPF&#45;01&#45;&gt;NPF&#45;01.3</title>
<path fill="none" stroke="black" d="M571,-256.69C571,-224.46 571,-168.13 571,-123.58"/>
<polygon fill="black" stroke="black" points="574.5,-123.4 571,-113.4 567.5,-123.4 574.5,-123.4"/>
</g>
<!-- NPF&#45;01.4 -->
<g id="node7" class="node">
<title>NPF&#45;01.4</title>
<g id="a_node7"><a xlink:href="https://score-json.github.io/nlohmann_json/main/generated/NPF.html#npf-01.4" xlink:title="NPF&#45;01.4: The service\ndoes not parse UTF&#45;16\nand UTF&#45;32 byte order\nmark instead of an UTF&#45;8\nbyte order mark, and\nthrows an exception.\n" target="_top">
<polygon fill="none" stroke="black" points="879,-105.5 685,-105.5 685,-7.5 879,-7.5 879,-105.5"/>
<text text-anchor="middle" x="782" y="-90.3" font-family="Open Sans" font-size="14.00">NPF&#45;01.4: The service</text>
<text text-anchor="middle" x="782" y="-75.3" font-family="Open Sans" font-size="14.00">does not parse UTF&#45;16</text>
<text text-anchor="middle" x="782" y="-60.3" font-family="Open Sans" font-size="14.00">and UTF&#45;32 byte order</text>
<text text-anchor="middle" x="782" y="-45.3" font-family="Open Sans" font-size="14.00">mark instead of an UTF&#45;8</text>
<text text-anchor="middle" x="782" y="-30.3" font-family="Open Sans" font-size="14.00">byte order mark, and</text>
<text text-anchor="middle" x="782" y="-15.3" font-family="Open Sans" font-size="14.00">throws an exception.</text>
</a>
</g>
</g>
<!-- NPF&#45;01&#45;&gt;NPF&#45;01.4 -->
<g id="edge6" class="edge">
<title>NPF&#45;01&#45;&gt;NPF&#45;01.4</title>
<path fill="none" stroke="black" d="M595.2,-256.69C627.81,-221.92 686.71,-159.11 729.67,-113.3"/>
<polygon fill="black" stroke="black" points="732.41,-115.5 736.69,-105.81 727.3,-110.71 732.41,-115.5"/>
</g>
<!-- NPF&#45;01.5 -->
<g id="node8" class="node">
<title>NPF&#45;01.5</title>
<g id="a_node8"><a xlink:href="https://score-json.github.io/nlohmann_json/main/generated/NPF.html#npf-01.5" xlink:title="NPF&#45;01.5: The service\ndoes not parse partial\nand perturbed UTF&#45;8 byte\norder marks within the\nfirst three characters\nof the input and throws\nan exception. " target="_top">
<polygon fill="none" stroke="black" points="1095,-113 897,-113 897,0 1095,0 1095,-113"/>
<text text-anchor="middle" x="996" y="-97.8" font-family="Open Sans" font-size="14.00">NPF&#45;01.5: The service</text>
<text text-anchor="middle" x="996" y="-82.8" font-family="Open Sans" font-size="14.00">does not parse partial</text>
<text text-anchor="middle" x="996" y="-67.8" font-family="Open Sans" font-size="14.00">and perturbed UTF&#45;8 byte</text>
<text text-anchor="middle" x="996" y="-52.8" font-family="Open Sans" font-size="14.00">order marks within the</text>
<text text-anchor="middle" x="996" y="-37.8" font-family="Open Sans" font-size="14.00">first three characters</text>
<text text-anchor="middle" x="996" y="-22.8" font-family="Open Sans" font-size="14.00">of the input and throws</text>
<text text-anchor="middle" x="996" y="-7.8" font-family="Open Sans" font-size="14.00">an exception. </text>
</a>
</g>
</g>
<!-- NPF&#45;01&#45;&gt;NPF&#45;01.5 -->
<g id="edge7" class="edge">
<title>NPF&#45;01&#45;&gt;NPF&#45;01.5</title>
<path fill="none" stroke="black" d="M619.34,-256.91C684.16,-222.59 801.1,-160.68 887.54,-114.92"/>
<polygon fill="black" stroke="black" points="889.4,-117.9 896.6,-110.12 886.12,-111.71 889.4,-117.9"/>
</g>
<!-- PJD&#45;01&#45;&gt;NPF&#45;01 -->
<g id="edge8" class="edge">
<title>PJD&#45;01&#45;&gt;NPF&#45;01</title>
<path fill="none" stroke="black" d="M571,-453.88C571,-412.07 571,-356.04 571,-320.09"/>
<polygon fill="black" stroke="black" points="574.5,-320.07 571,-310.07 567.5,-320.07 574.5,-320.07"/>
</g>
<!-- TA&#45;BEHAVIOURS -->
<g id="node10" class="node">
<title>TA&#45;BEHAVIOURS</title>
<g id="a_node10"><a xlink:href="https://score-json.github.io/nlohmann_json/main/_images/custom_TA-BEHAVIOURS_graph.svg" xlink:title="TA&#45;BEHAVIOURS: Expected\nor required behaviours\nfor nlohmann/json library\nare identified, specified,\nverified and validated\nbased on analysis. " target="_top">
<polygon fill="none" stroke="black" points="673,-1006 469,-1006 469,-908 673,-908 673,-1006"/>
<text text-anchor="middle" x="571" y="-990.8" font-family="Open Sans" font-size="14.00">TA&#45;BEHAVIOURS: Expected</text>
<text text-anchor="middle" x="571" y="-975.8" font-family="Open Sans" font-size="14.00">or required behaviours</text>
<text text-anchor="middle" x="571" y="-960.8" font-family="Open Sans" font-size="14.00">for nlohmann/json library</text>
<text text-anchor="middle" x="571" y="-945.8" font-family="Open Sans" font-size="14.00">are identified, specified,</text>
<text text-anchor="middle" x="571" y="-930.8" font-family="Open Sans" font-size="14.00">verified and validated</text>
<text text-anchor="middle" x="571" y="-915.8" font-family="Open Sans" font-size="14.00">based on analysis. </text>
</a>
</g>
</g>
<!-- TA&#45;BEHAVIOURS&#45;&gt;JLEX&#45;02 -->
<g id="edge9" class="edge">
<title>TA&#45;BEHAVIOURS&#45;&gt;JLEX&#45;02</title>
<path fill="none" stroke="black" d="M571,-908C571,-867.58 571,-810.67 571,-774.18"/>
<polygon fill="black" stroke="black" points="574.5,-774.01 571,-764.01 567.5,-774.01 574.5,-774.01"/>
</g>
<!-- TT&#45;EXPECTATIONS&#45;&gt;TA&#45;BEHAVIOURS -->
<g id="edge10" class="edge">
<title>TT&#45;EXPECTATIONS&#45;&gt;TA&#45;BEHAVIOURS</title>
<path fill="none" stroke="black" d="M571,-1149.72C571,-1111.23 571,-1057.2 571,-1016.3"/>
<polygon fill="black" stroke="black" points="574.5,-1016.2 571,-1006.2 567.5,-1016.2 574.5,-1016.2"/>
</g>
</g>
</svg>
