<?xml version="1.0" encoding="UTF-8" standalone="no"?>
<!DOCTYPE svg PUBLIC "-//W3C//DTD SVG 1.1//EN"
 "http://www.w3.org/Graphics/SVG/1.1/DTD/svg11.dtd">
<!-- Generated by graphviz version 2.43.0 (0)
 -->
<!-- Title: G Pages: 1 -->
<svg width="1245pt" height="1256pt"
 viewBox="0.00 0.00 1245.00 1256.00" xmlns="http://www.w3.org/2000/svg" xmlns:xlink="http://www.w3.org/1999/xlink">
<g id="graph0" class="graph" transform="scale(1 1) rotate(0) translate(4 1252)">
<title>G</title>
<polygon fill="white" stroke="transparent" points="-4,4 -4,-1252 1241,-1252 1241,4 -4,4"/>
<!-- TRUSTABLE&#45;SOFTWARE -->
<g id="node1" class="node">
<title>TRUSTABLE&#45;SOFTWARE</title>
<g id="a_node1"><a xlink:href="https://score-json.github.io/nlohmann_json/main/_images/custom_TRUSTABLE-SOFTWARE_graph.svg" xlink:title="TRUSTABLE&#45;SOFTWARE: This\nrelease of JSON&#45;Library\nalso referred in the\ndocumentation as nlohmann/json\nlibrary is Trustable.\n" target="_top">
<polygon fill="none" stroke="black" points="742.5,-1248 494.5,-1248 494.5,-1165 742.5,-1165 742.5,-1248"/>
<text text-anchor="middle" x="618.5" y="-1232.8" font-family="Open Sans" font-size="14.00">TRUSTABLE&#45;SOFTWARE: This</text>
<text text-anchor="middle" x="618.5" y="-1217.8" font-family="Open Sans" font-size="14.00">release of JSON&#45;Library</text>
<text text-anchor="middle" x="618.5" y="-1202.8" font-family="Open Sans" font-size="14.00">also referred in the</text>
<text text-anchor="middle" x="618.5" y="-1187.8" font-family="Open Sans" font-size="14.00">documentation as nlohmann/json</text>
<text text-anchor="middle" x="618.5" y="-1172.8" font-family="Open Sans" font-size="14.00">library is Trustable.</text>
</a>
</g>
</g>
<!-- TT&#45;EXPECTATIONS -->
<g id="node10" class="node">
<title>TT&#45;EXPECTATIONS</title>
<g id="a_node10"><a xlink:href="https://score-json.github.io/nlohmann_json/main/_images/custom_TT-EXPECTATIONS_graph.svg" xlink:title="TT&#45;EXPECTATIONS: Documentation\nis provided within eclipse&#45;score/inc_nlohmann_json,\nspecifying what the nlohmann/json\nlibrary is expected to\ndo, and what it must\nnot do, and how this\nis verified. " target="_top">
<polygon fill="none" stroke="black" points="806,-1021 431,-1021 431,-908 806,-908 806,-1021"/>
<text text-anchor="middle" x="618.5" y="-1005.8" font-family="Open Sans" font-size="14.00">TT&#45;EXPECTATIONS: Documentation</text>
<text text-anchor="middle" x="618.5" y="-990.8" font-family="Open Sans" font-size="14.00">is provided within eclipse&#45;score/inc_nlohmann_json,</text>
<text text-anchor="middle" x="618.5" y="-975.8" font-family="Open Sans" font-size="14.00">specifying what the nlohmann/json</text>
<text text-anchor="middle" x="618.5" y="-960.8" font-family="Open Sans" font-size="14.00">library is expected to</text>
<text text-anchor="middle" x="618.5" y="-945.8" font-family="Open Sans" font-size="14.00">do, and what it must</text>
<text text-anchor="middle" x="618.5" y="-930.8" font-family="Open Sans" font-size="14.00">not do, and how this</text>
<text text-anchor="middle" x="618.5" y="-915.8" font-family="Open Sans" font-size="14.00">is verified. </text>
</a>
</g>
</g>
<!-- TRUSTABLE&#45;SOFTWARE&#45;&gt;TT&#45;EXPECTATIONS -->
<g id="edge1" class="edge">
<title>TRUSTABLE&#45;SOFTWARE&#45;&gt;TT&#45;EXPECTATIONS</title>
<path fill="none" stroke="black" d="M618.5,-1164.79C618.5,-1128.26 618.5,-1074 618.5,-1031.32"/>
<polygon fill="black" stroke="black" points="622,-1031.29 618.5,-1021.29 615,-1031.29 622,-1031.29"/>
</g>
<!-- JLS&#45;24 -->
<g id="node2" class="node">
<title>JLS&#45;24</title>
<g id="a_node2"><a xlink:href="https://score-json.github.io/nlohmann_json/main/_images/custom_JLS-24_graph.svg" xlink:title="JLS&#45;24: The nlohmann/json\nlibrary recognizes malformed\nJSON and returns an exception.\n" target="_top">
<polygon fill="none" stroke="black" points="736,-507 501,-507 501,-454 736,-454 736,-507"/>
<text text-anchor="middle" x="618.5" y="-491.8" font-family="Open Sans" font-size="14.00">JLS&#45;24: The nlohmann/json</text>
<text text-anchor="middle" x="618.5" y="-476.8" font-family="Open Sans" font-size="14.00">library recognizes malformed</text>
<text text-anchor="middle" x="618.5" y="-461.8" font-family="Open Sans" font-size="14.00">JSON and returns an exception.</text>
</a>
</g>
</g>
<!-- TIJ&#45;02 -->
<g id="node4" class="node">
<title>TIJ&#45;02</title>
<g id="a_node4"><a xlink:href="https://score-json.github.io/nlohmann_json/main/_images/custom_TIJ-02_graph.svg" xlink:title="TIJ&#45;02: The parsing service\nprovided by the nlohmann/json\nlibrary throws an exception\non ill&#45;formed numbers.\n" target="_top">
<polygon fill="none" stroke="black" points="735,-310 502,-310 502,-242 735,-242 735,-310"/>
<text text-anchor="middle" x="618.5" y="-294.8" font-family="Open Sans" font-size="14.00">TIJ&#45;02: The parsing service</text>
<text text-anchor="middle" x="618.5" y="-279.8" font-family="Open Sans" font-size="14.00">provided by the nlohmann/json</text>
<text text-anchor="middle" x="618.5" y="-264.8" font-family="Open Sans" font-size="14.00">library throws an exception</text>
<text text-anchor="middle" x="618.5" y="-249.8" font-family="Open Sans" font-size="14.00">on ill&#45;formed numbers.</text>
</a>
</g>
</g>
<!-- JLS&#45;24&#45;&gt;TIJ&#45;02 -->
<g id="edge2" class="edge">
<title>JLS&#45;24&#45;&gt;TIJ&#45;02</title>
<path fill="none" stroke="black" d="M618.5,-453.85C618.5,-420.27 618.5,-360.91 618.5,-320.3"/>
<polygon fill="black" stroke="black" points="622,-320.15 618.5,-310.15 615,-320.15 622,-320.15"/>
</g>
<!-- TA&#45;MISBEHAVIOURS -->
<g id="node3" class="node">
<title>TA&#45;MISBEHAVIOURS</title>
<g id="a_node3"><a xlink:href="https://score-json.github.io/nlohmann_json/main/_images/custom_TA-MISBEHAVIOURS_graph.svg" xlink:title="TA&#45;MISBEHAVIOURS: Prohibited\nmisbehaviours for the\nnlohmann/json library\nare identified, and mitigations\nare specified, verified\nand validated based on\nanalysis. " target="_top">
<polygon fill="none" stroke="black" points="736.5,-764 500.5,-764 500.5,-651 736.5,-651 736.5,-764"/>
<text text-anchor="middle" x="618.5" y="-748.8" font-family="Open Sans" font-size="14.00">TA&#45;MISBEHAVIOURS: Prohibited</text>
<text text-anchor="middle" x="618.5" y="-733.8" font-family="Open Sans" font-size="14.00">misbehaviours for the</text>
<text text-anchor="middle" x="618.5" y="-718.8" font-family="Open Sans" font-size="14.00">nlohmann/json library</text>
<text text-anchor="middle" x="618.5" y="-703.8" font-family="Open Sans" font-size="14.00">are identified, and mitigations</text>
<text text-anchor="middle" x="618.5" y="-688.8" font-family="Open Sans" font-size="14.00">are specified, verified</text>
<text text-anchor="middle" x="618.5" y="-673.8" font-family="Open Sans" font-size="14.00">and validated based on</text>
<text text-anchor="middle" x="618.5" y="-658.8" font-family="Open Sans" font-size="14.00">analysis. </text>
</a>
</g>
</g>
<!-- TA&#45;MISBEHAVIOURS&#45;&gt;JLS&#45;24 -->
<g id="edge3" class="edge">
<title>TA&#45;MISBEHAVIOURS&#45;&gt;JLS&#45;24</title>
<path fill="none" stroke="black" d="M618.5,-650.88C618.5,-609.07 618.5,-553.04 618.5,-517.09"/>
<polygon fill="black" stroke="black" points="622,-517.07 618.5,-507.07 615,-517.07 622,-517.07"/>
</g>
<!-- TIJ&#45;02.1 -->
<g id="node5" class="node">
<title>TIJ&#45;02.1</title>
<g id="a_node5"><a xlink:href="https://score-json.github.io/nlohmann_json/main/generated/TIJ.html#tij-02.1" xlink:title="TIJ&#45;02.1: The service\nprovided by the nlohmann/json\nlibrary throws an exception\non leading plus. " target="_top">
<polygon fill="none" stroke="black" points="233,-83 0,-83 0,-15 233,-15 233,-83"/>
<text text-anchor="middle" x="116.5" y="-67.8" font-family="Open Sans" font-size="14.00">TIJ&#45;02.1: The service</text>
<text text-anchor="middle" x="116.5" y="-52.8" font-family="Open Sans" font-size="14.00">provided by the nlohmann/json</text>
<text text-anchor="middle" x="116.5" y="-37.8" font-family="Open Sans" font-size="14.00">library throws an exception</text>
<text text-anchor="middle" x="116.5" y="-22.8" font-family="Open Sans" font-size="14.00">on leading plus. </text>
</a>
</g>
</g>
<!-- TIJ&#45;02&#45;&gt;TIJ&#45;02.1 -->
<g id="edge4" class="edge">
<title>TIJ&#45;02&#45;&gt;TIJ&#45;02.1</title>
<path fill="none" stroke="black" d="M544.7,-241.92C452.65,-200.66 295.71,-130.32 199.54,-87.22"/>
<polygon fill="black" stroke="black" points="200.7,-83.9 190.14,-83.01 197.84,-90.29 200.7,-83.9"/>
</g>
<!-- TIJ&#45;02.2 -->
<g id="node6" class="node">
<title>TIJ&#45;02.2</title>
<g id="a_node6"><a xlink:href="https://score-json.github.io/nlohmann_json/main/generated/TIJ.html#tij-02.2" xlink:title="TIJ&#45;02.2: The service\nprovided by the nlohmann/json\nlibrary throws an exception\non leading zeroes. " target="_top">
<polygon fill="none" stroke="black" points="484,-83 251,-83 251,-15 484,-15 484,-83"/>
<text text-anchor="middle" x="367.5" y="-67.8" font-family="Open Sans" font-size="14.00">TIJ&#45;02.2: The service</text>
<text text-anchor="middle" x="367.5" y="-52.8" font-family="Open Sans" font-size="14.00">provided by the nlohmann/json</text>
<text text-anchor="middle" x="367.5" y="-37.8" font-family="Open Sans" font-size="14.00">library throws an exception</text>
<text text-anchor="middle" x="367.5" y="-22.8" font-family="Open Sans" font-size="14.00">on leading zeroes. </text>
</a>
</g>
</g>
<!-- TIJ&#45;02&#45;&gt;TIJ&#45;02.2 -->
<g id="edge5" class="edge">
<title>TIJ&#45;02&#45;&gt;TIJ&#45;02.2</title>
<path fill="none" stroke="black" d="M581.46,-241.8C536.42,-201.42 460.44,-133.31 412.18,-90.06"/>
<polygon fill="black" stroke="black" points="414.47,-87.4 404.69,-83.34 409.8,-92.62 414.47,-87.4"/>
</g>
<!-- TIJ&#45;02.3 -->
<g id="node7" class="node">
<title>TIJ&#45;02.3</title>
<g id="a_node7"><a xlink:href="https://score-json.github.io/nlohmann_json/main/generated/TIJ.html#tij-02.3" xlink:title="TIJ&#45;02.3: The service\nprovided by the nlohmann/json\nlibrary throws an exception\non NaN and infinity.\n" target="_top">
<polygon fill="none" stroke="black" points="735,-83 502,-83 502,-15 735,-15 735,-83"/>
<text text-anchor="middle" x="618.5" y="-67.8" font-family="Open Sans" font-size="14.00">TIJ&#45;02.3: The service</text>
<text text-anchor="middle" x="618.5" y="-52.8" font-family="Open Sans" font-size="14.00">provided by the nlohmann/json</text>
<text text-anchor="middle" x="618.5" y="-37.8" font-family="Open Sans" font-size="14.00">library throws an exception</text>
<text text-anchor="middle" x="618.5" y="-22.8" font-family="Open Sans" font-size="14.00">on NaN and infinity.</text>
</a>
</g>
</g>
<!-- TIJ&#45;02&#45;&gt;TIJ&#45;02.3 -->
<g id="edge6" class="edge">
<title>TIJ&#45;02&#45;&gt;TIJ&#45;02.3</title>
<path fill="none" stroke="black" d="M618.5,-241.8C618.5,-202.5 618.5,-136.93 618.5,-93.58"/>
<polygon fill="black" stroke="black" points="622,-93.34 618.5,-83.34 615,-93.34 622,-93.34"/>
</g>
<!-- TIJ&#45;02.4 -->
<g id="node8" class="node">
<title>TIJ&#45;02.4</title>
<g id="a_node8"><a xlink:href="https://score-json.github.io/nlohmann_json/main/generated/TIJ.html#tij-02.4" xlink:title="TIJ&#45;02.4: The service\nprovided by the nlohmann/json\nlibrary throws an exception\non U+0415 and U+0436\ninstead of U+0045 or\nU+0065. " target="_top">
<polygon fill="none" stroke="black" points="986,-98 753,-98 753,0 986,0 986,-98"/>
<text text-anchor="middle" x="869.5" y="-82.8" font-family="Open Sans" font-size="14.00">TIJ&#45;02.4: The service</text>
<text text-anchor="middle" x="869.5" y="-67.8" font-family="Open Sans" font-size="14.00">provided by the nlohmann/json</text>
<text text-anchor="middle" x="869.5" y="-52.8" font-family="Open Sans" font-size="14.00">library throws an exception</text>
<text text-anchor="middle" x="869.5" y="-37.8" font-family="Open Sans" font-size="14.00">on U+0415 and U+0436</text>
<text text-anchor="middle" x="869.5" y="-22.8" font-family="Open Sans" font-size="14.00">instead of U+0045 or</text>
<text text-anchor="middle" x="869.5" y="-7.8" font-family="Open Sans" font-size="14.00">U+0065. </text>
</a>
</g>
</g>
<!-- TIJ&#45;02&#45;&gt;TIJ&#45;02.4 -->
<g id="edge7" class="edge">
<title>TIJ&#45;02&#45;&gt;TIJ&#45;02.4</title>
<path fill="none" stroke="black" d="M655.54,-241.8C695.66,-205.83 760.34,-147.85 808.09,-105.05"/>
<polygon fill="black" stroke="black" points="810.5,-107.59 815.61,-98.31 805.82,-102.38 810.5,-107.59"/>
</g>
<!-- TIJ&#45;02.5 -->
<g id="node9" class="node">
<title>TIJ&#45;02.5</title>
<g id="a_node9"><a xlink:href="https://score-json.github.io/nlohmann_json/main/generated/TIJ.html#tij-02.5" xlink:title="TIJ&#45;02.5: The service\nprovided by the nlohmann/json\nlibrary throws an exception\non invalid number syntax.\n" target="_top">
<polygon fill="none" stroke="black" points="1237,-83 1004,-83 1004,-15 1237,-15 1237,-83"/>
<text text-anchor="middle" x="1120.5" y="-67.8" font-family="Open Sans" font-size="14.00">TIJ&#45;02.5: The service</text>
<text text-anchor="middle" x="1120.5" y="-52.8" font-family="Open Sans" font-size="14.00">provided by the nlohmann/json</text>
<text text-anchor="middle" x="1120.5" y="-37.8" font-family="Open Sans" font-size="14.00">library throws an exception</text>
<text text-anchor="middle" x="1120.5" y="-22.8" font-family="Open Sans" font-size="14.00">on invalid number syntax.</text>
</a>
</g>
</g>
<!-- TIJ&#45;02&#45;&gt;TIJ&#45;02.5 -->
<g id="edge8" class="edge">
<title>TIJ&#45;02&#45;&gt;TIJ&#45;02.5</title>
<path fill="none" stroke="black" d="M692.3,-241.92C784.35,-200.66 941.29,-130.32 1037.46,-87.22"/>
<polygon fill="black" stroke="black" points="1039.16,-90.29 1046.86,-83.01 1036.3,-83.9 1039.16,-90.29"/>
</g>
<!-- TT&#45;EXPECTATIONS&#45;&gt;TA&#45;MISBEHAVIOURS -->
<g id="edge9" class="edge">
<title>TT&#45;EXPECTATIONS&#45;&gt;TA&#45;MISBEHAVIOURS</title>
<path fill="none" stroke="black" d="M618.5,-907.85C618.5,-868.46 618.5,-815.47 618.5,-774.03"/>
<polygon fill="black" stroke="black" points="622,-774.03 618.5,-764.03 615,-774.03 622,-774.03"/>
</g>
</g>
</svg>
