<?xml version="1.0" encoding="UTF-8" standalone="no"?>
<!DOCTYPE svg PUBLIC "-//W3C//DTD SVG 1.1//EN"
 "http://www.w3.org/Graphics/SVG/1.1/DTD/svg11.dtd">
<!-- Generated by graphviz version 2.43.0 (0)
 -->
<!-- Title: G Pages: 1 -->
<svg width="3441pt" height="817pt"
 viewBox="0.00 0.00 3440.50 817.00" xmlns="http://www.w3.org/2000/svg" xmlns:xlink="http://www.w3.org/1999/xlink">
<g id="graph0" class="graph" transform="scale(1 1) rotate(0) translate(4 813)">
<title>G</title>
<polygon fill="white" stroke="transparent" points="-4,4 -4,-813 3436.5,-813 3436.5,4 -4,4"/>
<!-- TRUSTABLE&#45;SOFTWARE -->
<g id="node1" class="node">
<title>TRUSTABLE&#45;SOFTWARE</title>
<g id="a_node1"><a xlink:href="https://score-json.github.io/nlohmann_json/main/_images/custom_TRUSTABLE-SOFTWARE_graph.svg" xlink:title="TRUSTABLE&#45;SOFTWARE: This\nrelease of JSON&#45;Library\nalso reffered in the\ndocumentation as nlohmann/json\nlibrary is Trustable.\n" target="_top">
<polygon fill="none" stroke="black" points="1379,-809 1131,-809 1131,-726 1379,-726 1379,-809"/>
<text text-anchor="middle" x="1255" y="-793.8" font-family="Open Sans" font-size="14.00">TRUSTABLE&#45;SOFTWARE: This</text>
<text text-anchor="middle" x="1255" y="-778.8" font-family="Open Sans" font-size="14.00">release of JSON&#45;Library</text>
<text text-anchor="middle" x="1255" y="-763.8" font-family="Open Sans" font-size="14.00">also reffered in the</text>
<text text-anchor="middle" x="1255" y="-748.8" font-family="Open Sans" font-size="14.00">documentation as nlohmann/json</text>
<text text-anchor="middle" x="1255" y="-733.8" font-family="Open Sans" font-size="14.00">library is Trustable.</text>
</a>
</g>
</g>
<!-- TT&#45;EXPECTATIONS -->
<g id="node10" class="node">
<title>TT&#45;EXPECTATIONS</title>
<g id="a_node10"><a xlink:href="https://score-json.github.io/nlohmann_json/main/_images/custom_TT-EXPECTATIONS_graph.svg" xlink:title="TT&#45;EXPECTATIONS: Documentation\nis provided, specifying\nwhat nlohmann/json library\nis expected to do, and\nwhat it must not do,\nand how this is verified.\n" target="_top">
<polygon fill="none" stroke="black" points="1383.5,-582 1126.5,-582 1126.5,-484 1383.5,-484 1383.5,-582"/>
<text text-anchor="middle" x="1255" y="-566.8" font-family="Open Sans" font-size="14.00">TT&#45;EXPECTATIONS: Documentation</text>
<text text-anchor="middle" x="1255" y="-551.8" font-family="Open Sans" font-size="14.00">is provided, specifying</text>
<text text-anchor="middle" x="1255" y="-536.8" font-family="Open Sans" font-size="14.00">what nlohmann/json library</text>
<text text-anchor="middle" x="1255" y="-521.8" font-family="Open Sans" font-size="14.00">is expected to do, and</text>
<text text-anchor="middle" x="1255" y="-506.8" font-family="Open Sans" font-size="14.00">what it must not do,</text>
<text text-anchor="middle" x="1255" y="-491.8" font-family="Open Sans" font-size="14.00">and how this is verified.</text>
</a>
</g>
</g>
<!-- TRUSTABLE&#45;SOFTWARE&#45;&gt;TT&#45;EXPECTATIONS -->
<g id="edge1" class="edge">
<title>TRUSTABLE&#45;SOFTWARE&#45;&gt;TT&#45;EXPECTATIONS</title>
<path fill="none" stroke="black" d="M1255,-725.74C1255,-688.88 1255,-634.18 1255,-592.63"/>
<polygon fill="black" stroke="black" points="1258.5,-592.37 1255,-582.37 1251.5,-592.37 1258.5,-592.37"/>
</g>
<!-- AOU&#45;23 -->
<g id="node2" class="node">
<title>AOU&#45;23</title>
<g id="a_node2"><a xlink:href="https://score-json.github.io/nlohmann_json/main/generated/AOU.html#aou-23" xlink:title="AOU&#45;23: The integrator\nshall ensure that data\nare complete and error&#45;free,\nwhenever they are transmitted\nto nlohmann/json. " target="_top">
<polygon fill="none" stroke="black" points="232,-90.5 0,-90.5 0,-7.5 232,-7.5 232,-90.5"/>
<text text-anchor="middle" x="116" y="-75.3" font-family="Open Sans" font-size="14.00">AOU&#45;23: The integrator</text>
<text text-anchor="middle" x="116" y="-60.3" font-family="Open Sans" font-size="14.00">shall ensure that data</text>
<text text-anchor="middle" x="116" y="-45.3" font-family="Open Sans" font-size="14.00">are complete and error&#45;free,</text>
<text text-anchor="middle" x="116" y="-30.3" font-family="Open Sans" font-size="14.00">whenever they are transmitted</text>
<text text-anchor="middle" x="116" y="-15.3" font-family="Open Sans" font-size="14.00">to nlohmann/json. </text>
</a>
</g>
</g>
<!-- AOU&#45;24 -->
<g id="node3" class="node">
<title>AOU&#45;24</title>
<g id="a_node3"><a xlink:href="https://score-json.github.io/nlohmann_json/main/generated/AOU.html#aou-24" xlink:title="AOU&#45;24: The integrator\nshall ensure that the\ndata do not change during\nreading, whenever transmitted\nto nlohmann/json. " target="_top">
<polygon fill="none" stroke="black" points="482,-90.5 250,-90.5 250,-7.5 482,-7.5 482,-90.5"/>
<text text-anchor="middle" x="366" y="-75.3" font-family="Open Sans" font-size="14.00">AOU&#45;24: The integrator</text>
<text text-anchor="middle" x="366" y="-60.3" font-family="Open Sans" font-size="14.00">shall ensure that the</text>
<text text-anchor="middle" x="366" y="-45.3" font-family="Open Sans" font-size="14.00">data do not change during</text>
<text text-anchor="middle" x="366" y="-30.3" font-family="Open Sans" font-size="14.00">reading, whenever transmitted</text>
<text text-anchor="middle" x="366" y="-15.3" font-family="Open Sans" font-size="14.00">to nlohmann/json. </text>
</a>
</g>
</g>
<!-- AOU&#45;25 -->
<g id="node4" class="node">
<title>AOU&#45;25</title>
<g id="a_node4"><a xlink:href="https://score-json.github.io/nlohmann_json/main/generated/AOU.html#aou-25" xlink:title="AOU&#45;25: The integrator\nshall convince themselves\nthat the behaviour of\nthe used C++ standard\nlibrary is known, verified\nand validated. " target="_top">
<polygon fill="none" stroke="black" points="699.5,-98 500.5,-98 500.5,0 699.5,0 699.5,-98"/>
<text text-anchor="middle" x="600" y="-82.8" font-family="Open Sans" font-size="14.00">AOU&#45;25: The integrator</text>
<text text-anchor="middle" x="600" y="-67.8" font-family="Open Sans" font-size="14.00">shall convince themselves</text>
<text text-anchor="middle" x="600" y="-52.8" font-family="Open Sans" font-size="14.00">that the behaviour of</text>
<text text-anchor="middle" x="600" y="-37.8" font-family="Open Sans" font-size="14.00">the used C++ standard</text>
<text text-anchor="middle" x="600" y="-22.8" font-family="Open Sans" font-size="14.00">library is known, verified</text>
<text text-anchor="middle" x="600" y="-7.8" font-family="Open Sans" font-size="14.00">and validated. </text>
</a>
</g>
</g>
<!-- JLEX&#45;01 -->
<g id="node5" class="node">
<title>JLEX&#45;01</title>
<g id="a_node5"><a xlink:href="https://score-json.github.io/nlohmann_json/main/_images/custom_JLEX-01_graph.svg" xlink:title="JLEX&#45;01: The requirement\nregarding [JSON Validation](https://eclipse&#45;score.github.io/score/main/modules/baselibs/json/docs/requirements/index.html#comp_req__json__validation)\nis fulfilled. " target="_top">
<polygon fill="none" stroke="black" points="1792.5,-75.5 717.5,-75.5 717.5,-22.5 1792.5,-22.5 1792.5,-75.5"/>
<text text-anchor="middle" x="1255" y="-60.3" font-family="Open Sans" font-size="14.00">JLEX&#45;01: The requirement</text>
<text text-anchor="middle" x="1255" y="-45.3" font-family="Open Sans" font-size="14.00">regarding [JSON Validation](https://eclipse&#45;score.github.io/score/main/modules/baselibs/json/docs/requirements/index.html#comp_req__json__validation)</text>
<text text-anchor="middle" x="1255" y="-30.3" font-family="Open Sans" font-size="14.00">is fulfilled. </text>
</a>
</g>
</g>
<!-- JLEX&#45;02 -->
<g id="node6" class="node">
<title>JLEX&#45;02</title>
<g id="a_node6"><a xlink:href="https://score-json.github.io/nlohmann_json/main/_images/custom_JLEX-02_graph.svg" xlink:title="JLEX&#45;02: The requirement\nregarding [JSON Deserialization](https://eclipse&#45;score.github.io/score/main/modules/baselibs/json/docs/requirements/index.html#comp_req__json__deserialization)\nis fulfilled. " target="_top">
<polygon fill="none" stroke="black" points="2953,-75.5 1811,-75.5 1811,-22.5 2953,-22.5 2953,-75.5"/>
<text text-anchor="middle" x="2382" y="-60.3" font-family="Open Sans" font-size="14.00">JLEX&#45;02: The requirement</text>
<text text-anchor="middle" x="2382" y="-45.3" font-family="Open Sans" font-size="14.00">regarding [JSON Deserialization](https://eclipse&#45;score.github.io/score/main/modules/baselibs/json/docs/requirements/index.html#comp_req__json__deserialization)</text>
<text text-anchor="middle" x="2382" y="-30.3" font-family="Open Sans" font-size="14.00">is fulfilled. </text>
</a>
</g>
</g>
<!-- JLS&#45;03 -->
<g id="node7" class="node">
<title>JLS&#45;03</title>
<g id="a_node7"><a xlink:href="https://score-json.github.io/nlohmann_json/main/generated/JLS.html#jls-03" xlink:title="JLS&#45;03: Automated tests\nare reviewed by a Subject\nMatter Expert to verify\nthey test the properties\nthey claim to. " target="_top">
<polygon fill="none" stroke="black" points="3167,-90.5 2971,-90.5 2971,-7.5 3167,-7.5 3167,-90.5"/>
<text text-anchor="middle" x="3069" y="-75.3" font-family="Open Sans" font-size="14.00">JLS&#45;03: Automated tests</text>
<text text-anchor="middle" x="3069" y="-60.3" font-family="Open Sans" font-size="14.00">are reviewed by a Subject</text>
<text text-anchor="middle" x="3069" y="-45.3" font-family="Open Sans" font-size="14.00">Matter Expert to verify</text>
<text text-anchor="middle" x="3069" y="-30.3" font-family="Open Sans" font-size="14.00">they test the properties</text>
<text text-anchor="middle" x="3069" y="-15.3" font-family="Open Sans" font-size="14.00">they claim to. </text>
</a>
</g>
</g>
<!-- JLS&#45;27 -->
<g id="node8" class="node">
<title>JLS&#45;27</title>
<g id="a_node8"><a xlink:href="https://score-json.github.io/nlohmann_json/main/generated/JLS.html#jls-27" xlink:title="JLS&#45;27: The test coverage\nfor this version of nlohmann/json\nis monitored using Coveralls\nand is not decreasing\nover time, unless reasonably\njustified. " target="_top">
<polygon fill="none" stroke="black" points="3432.5,-98 3185.5,-98 3185.5,0 3432.5,0 3432.5,-98"/>
<text text-anchor="middle" x="3309" y="-82.8" font-family="Open Sans" font-size="14.00">JLS&#45;27: The test coverage</text>
<text text-anchor="middle" x="3309" y="-67.8" font-family="Open Sans" font-size="14.00">for this version of nlohmann/json</text>
<text text-anchor="middle" x="3309" y="-52.8" font-family="Open Sans" font-size="14.00">is monitored using Coveralls</text>
<text text-anchor="middle" x="3309" y="-37.8" font-family="Open Sans" font-size="14.00">and is not decreasing</text>
<text text-anchor="middle" x="3309" y="-22.8" font-family="Open Sans" font-size="14.00">over time, unless reasonably</text>
<text text-anchor="middle" x="3309" y="-7.8" font-family="Open Sans" font-size="14.00">justified. </text>
</a>
</g>
</g>
<!-- TA&#45;BEHAVIOURS -->
<g id="node9" class="node">
<title>TA&#45;BEHAVIOURS</title>
<g id="a_node9"><a xlink:href="https://score-json.github.io/nlohmann_json/main/_images/custom_TA-BEHAVIOURS_graph.svg" xlink:title="TA&#45;BEHAVIOURS: Expected\nor required behaviours\nfor nlohmann/json library\nare identified, specified,\nverified and validated\nbased on analysis. " target="_top">
<polygon fill="none" stroke="black" points="1357,-340 1153,-340 1153,-242 1357,-242 1357,-340"/>
<text text-anchor="middle" x="1255" y="-324.8" font-family="Open Sans" font-size="14.00">TA&#45;BEHAVIOURS: Expected</text>
<text text-anchor="middle" x="1255" y="-309.8" font-family="Open Sans" font-size="14.00">or required behaviours</text>
<text text-anchor="middle" x="1255" y="-294.8" font-family="Open Sans" font-size="14.00">for nlohmann/json library</text>
<text text-anchor="middle" x="1255" y="-279.8" font-family="Open Sans" font-size="14.00">are identified, specified,</text>
<text text-anchor="middle" x="1255" y="-264.8" font-family="Open Sans" font-size="14.00">verified and validated</text>
<text text-anchor="middle" x="1255" y="-249.8" font-family="Open Sans" font-size="14.00">based on analysis. </text>
</a>
</g>
</g>
<!-- TA&#45;BEHAVIOURS&#45;&gt;AOU&#45;23 -->
<g id="edge5" class="edge">
<title>TA&#45;BEHAVIOURS&#45;&gt;AOU&#45;23</title>
<path fill="none" stroke="black" d="M1152.85,-276.85C968.4,-251.74 568.46,-191.06 241,-98 236.35,-96.68 231.64,-95.26 226.89,-93.76"/>
<polygon fill="black" stroke="black" points="227.72,-90.35 217.13,-90.58 225.56,-97 227.72,-90.35"/>
</g>
<!-- TA&#45;BEHAVIOURS&#45;&gt;AOU&#45;24 -->
<g id="edge6" class="edge">
<title>TA&#45;BEHAVIOURS&#45;&gt;AOU&#45;24</title>
<path fill="none" stroke="black" d="M1152.88,-268.45C1005.32,-236.38 724.57,-171.9 491,-98 486.77,-96.66 482.48,-95.26 478.16,-93.8"/>
<polygon fill="black" stroke="black" points="479.25,-90.48 468.65,-90.55 476.98,-97.1 479.25,-90.48"/>
</g>
<!-- TA&#45;BEHAVIOURS&#45;&gt;AOU&#45;25 -->
<g id="edge7" class="edge">
<title>TA&#45;BEHAVIOURS&#45;&gt;AOU&#45;25</title>
<path fill="none" stroke="black" d="M1152.77,-256.86C1044.36,-221.09 868.22,-161.2 709.11,-98.38"/>
<polygon fill="black" stroke="black" points="710.2,-95.05 699.62,-94.62 707.63,-101.56 710.2,-95.05"/>
</g>
<!-- TA&#45;BEHAVIOURS&#45;&gt;JLEX&#45;01 -->
<g id="edge2" class="edge">
<title>TA&#45;BEHAVIOURS&#45;&gt;JLEX&#45;01</title>
<path fill="none" stroke="black" d="M1255,-241.72C1255,-195.63 1255,-127.25 1255,-85.83"/>
<polygon fill="black" stroke="black" points="1258.5,-85.66 1255,-75.66 1251.5,-85.66 1258.5,-85.66"/>
</g>
<!-- TA&#45;BEHAVIOURS&#45;&gt;JLEX&#45;02 -->
<g id="edge3" class="edge">
<title>TA&#45;BEHAVIOURS&#45;&gt;JLEX&#45;02</title>
<path fill="none" stroke="black" d="M1357,-268.28C1562.42,-224.53 2025.61,-125.89 2252.21,-77.64"/>
<polygon fill="black" stroke="black" points="2253.11,-81.03 2262.16,-75.52 2251.65,-74.18 2253.11,-81.03"/>
</g>
<!-- TA&#45;BEHAVIOURS&#45;&gt;JLS&#45;03 -->
<g id="edge4" class="edge">
<title>TA&#45;BEHAVIOURS&#45;&gt;JLS&#45;03</title>
<path fill="none" stroke="black" d="M1357.1,-289.43C1625.2,-285.6 2369.4,-260 2962,-98 2966.37,-96.81 2970.79,-95.46 2975.22,-93.99"/>
<polygon fill="black" stroke="black" points="2976.62,-97.2 2984.91,-90.59 2974.31,-90.6 2976.62,-97.2"/>
</g>
<!-- TA&#45;BEHAVIOURS&#45;&gt;JLS&#45;27 -->
<g id="edge8" class="edge">
<title>TA&#45;BEHAVIOURS&#45;&gt;JLS&#45;27</title>
<path fill="none" stroke="black" d="M1357.17,-288.61C1644.91,-282.83 2485.4,-253.06 3175.51,-97.97"/>
<polygon fill="black" stroke="black" points="3176.42,-101.35 3185.41,-95.73 3174.88,-94.52 3176.42,-101.35"/>
</g>
<!-- TT&#45;EXPECTATIONS&#45;&gt;TA&#45;BEHAVIOURS -->
<g id="edge9" class="edge">
<title>TT&#45;EXPECTATIONS&#45;&gt;TA&#45;BEHAVIOURS</title>
<path fill="none" stroke="black" d="M1255,-483.72C1255,-445.23 1255,-391.2 1255,-350.3"/>
<polygon fill="black" stroke="black" points="1258.5,-350.2 1255,-340.2 1251.5,-350.2 1258.5,-350.2"/>
</g>
</g>
</svg>
