<?xml version="1.0" encoding="UTF-8" standalone="no"?>
<!DOCTYPE svg PUBLIC "-//W3C//DTD SVG 1.1//EN"
 "http://www.w3.org/Graphics/SVG/1.1/DTD/svg11.dtd">
<!-- Generated by graphviz version 2.43.0 (0)
 -->
<!-- Title: G Pages: 1 -->
<svg width="1298pt" height="832pt"
 viewBox="0.00 0.00 1297.50 832.00" xmlns="http://www.w3.org/2000/svg" xmlns:xlink="http://www.w3.org/1999/xlink">
<g id="graph0" class="graph" transform="scale(1 1) rotate(0) translate(4 828)">
<title>G</title>
<polygon fill="white" stroke="transparent" points="-4,4 -4,-828 1293.5,-828 1293.5,4 -4,4"/>
<!-- TRUSTABLE&#45;SOFTWARE -->
<g id="node1" class="node">
<title>TRUSTABLE&#45;SOFTWARE</title>
<g id="a_node1"><a xlink:href="https://score-json.github.io/inc_nlohmann_json/main/_images/custom_TRUSTABLE-SOFTWARE_graph.svg" xlink:title="TRUSTABLE&#45;SOFTWARE: This\nrelease of JSON&#45;Library\nalso referred in the\ndocumentation as nlohmann/json\nlibrary is Trustable.\n" target="_top">
<polygon fill="none" stroke="black" points="752.5,-824 504.5,-824 504.5,-741 752.5,-741 752.5,-824"/>
<text text-anchor="middle" x="628.5" y="-808.8" font-family="Open Sans" font-size="14.00">TRUSTABLE&#45;SOFTWARE: This</text>
<text text-anchor="middle" x="628.5" y="-793.8" font-family="Open Sans" font-size="14.00">release of JSON&#45;Library</text>
<text text-anchor="middle" x="628.5" y="-778.8" font-family="Open Sans" font-size="14.00">also referred in the</text>
<text text-anchor="middle" x="628.5" y="-763.8" font-family="Open Sans" font-size="14.00">documentation as nlohmann/json</text>
<text text-anchor="middle" x="628.5" y="-748.8" font-family="Open Sans" font-size="14.00">library is Trustable.</text>
</a>
</g>
</g>
<!-- TT&#45;PROVENANCE -->
<g id="node8" class="node">
<title>TT&#45;PROVENANCE</title>
<g id="a_node8"><a xlink:href="https://score-json.github.io/inc_nlohmann_json/main/_images/custom_TT-PROVENANCE_graph.svg" xlink:title="TT&#45;PROVENANCE: All inputs\n(and attestations for\nclaims) for the nlohmann/json\nlibrary are provided\nwith known provenance.\n" target="_top">
<polygon fill="none" stroke="black" points="740.5,-597 516.5,-597 516.5,-514 740.5,-514 740.5,-597"/>
<text text-anchor="middle" x="628.5" y="-581.8" font-family="Open Sans" font-size="14.00">TT&#45;PROVENANCE: All inputs</text>
<text text-anchor="middle" x="628.5" y="-566.8" font-family="Open Sans" font-size="14.00">(and attestations for</text>
<text text-anchor="middle" x="628.5" y="-551.8" font-family="Open Sans" font-size="14.00">claims) for the nlohmann/json</text>
<text text-anchor="middle" x="628.5" y="-536.8" font-family="Open Sans" font-size="14.00">library are provided</text>
<text text-anchor="middle" x="628.5" y="-521.8" font-family="Open Sans" font-size="14.00">with known provenance.</text>
</a>
</g>
</g>
<!-- TRUSTABLE&#45;SOFTWARE&#45;&gt;TT&#45;PROVENANCE -->
<g id="edge1" class="edge">
<title>TRUSTABLE&#45;SOFTWARE&#45;&gt;TT&#45;PROVENANCE</title>
<path fill="none" stroke="black" d="M628.5,-740.75C628.5,-703.36 628.5,-647.81 628.5,-607.48"/>
<polygon fill="black" stroke="black" points="632,-607.32 628.5,-597.32 625,-607.32 632,-607.32"/>
</g>
<!-- JLS&#45;23 -->
<g id="node2" class="node">
<title>JLS&#45;23</title>
<g id="a_node2"><a xlink:href="https://score-json.github.io/inc_nlohmann_json/main/generated/JLS.html#jls-23" xlink:title="JLS&#45;23: The Eclipse S&#45;CORE\norganization mirrors\nthe nlohmann/json project\nin a github fork. " target="_top">
<polygon fill="none" stroke="black" points="207,-105.5 0,-105.5 0,-37.5 207,-37.5 207,-105.5"/>
<text text-anchor="middle" x="103.5" y="-90.3" font-family="Open Sans" font-size="14.00">JLS&#45;23: The Eclipse S&#45;CORE</text>
<text text-anchor="middle" x="103.5" y="-75.3" font-family="Open Sans" font-size="14.00">organization mirrors</text>
<text text-anchor="middle" x="103.5" y="-60.3" font-family="Open Sans" font-size="14.00">the nlohmann/json project</text>
<text text-anchor="middle" x="103.5" y="-45.3" font-family="Open Sans" font-size="14.00">in a github fork. </text>
</a>
</g>
</g>
<!-- JLS&#45;34 -->
<g id="node3" class="node">
<title>JLS&#45;34</title>
<g id="a_node3"><a xlink:href="https://score-json.github.io/inc_nlohmann_json/main/generated/JLS.html#jls-34" xlink:title="JLS&#45;34: The nlohmann/json\nlibrary has no external\ncomponents or dependencies\nbesides the C++ standard\ncomponents. " target="_top">
<polygon fill="none" stroke="black" points="447.5,-113 225.5,-113 225.5,-30 447.5,-30 447.5,-113"/>
<text text-anchor="middle" x="336.5" y="-97.8" font-family="Open Sans" font-size="14.00">JLS&#45;34: The nlohmann/json</text>
<text text-anchor="middle" x="336.5" y="-82.8" font-family="Open Sans" font-size="14.00">library has no external</text>
<text text-anchor="middle" x="336.5" y="-67.8" font-family="Open Sans" font-size="14.00">components or dependencies</text>
<text text-anchor="middle" x="336.5" y="-52.8" font-family="Open Sans" font-size="14.00">besides the C++ standard</text>
<text text-anchor="middle" x="336.5" y="-37.8" font-family="Open Sans" font-size="14.00">components. </text>
</a>
</g>
</g>
<!-- JLS&#45;49 -->
<g id="node4" class="node">
<title>JLS&#45;49</title>
<g id="a_node4"><a xlink:href="https://score-json.github.io/inc_nlohmann_json/main/generated/JLS.html#jls-49" xlink:title="JLS&#45;49: The eclipse&#45;score/inc_nlohmann_json\nproject mirrors the external\nnlohmann/json_test_data\nrepository, containing\ntest data used by the\nunit tests in nlohmann/json,\nsuch that the test suite\ncan be executed without\ninternet connectivity.\n" target="_top">
<polygon fill="none" stroke="black" points="791.5,-143 465.5,-143 465.5,0 791.5,0 791.5,-143"/>
<text text-anchor="middle" x="628.5" y="-127.8" font-family="Open Sans" font-size="14.00">JLS&#45;49: The eclipse&#45;score/inc_nlohmann_json</text>
<text text-anchor="middle" x="628.5" y="-112.8" font-family="Open Sans" font-size="14.00">project mirrors the external</text>
<text text-anchor="middle" x="628.5" y="-97.8" font-family="Open Sans" font-size="14.00">nlohmann/json_test_data</text>
<text text-anchor="middle" x="628.5" y="-82.8" font-family="Open Sans" font-size="14.00">repository, containing</text>
<text text-anchor="middle" x="628.5" y="-67.8" font-family="Open Sans" font-size="14.00">test data used by the</text>
<text text-anchor="middle" x="628.5" y="-52.8" font-family="Open Sans" font-size="14.00">unit tests in nlohmann/json,</text>
<text text-anchor="middle" x="628.5" y="-37.8" font-family="Open Sans" font-size="14.00">such that the test suite</text>
<text text-anchor="middle" x="628.5" y="-22.8" font-family="Open Sans" font-size="14.00">can be executed without</text>
<text text-anchor="middle" x="628.5" y="-7.8" font-family="Open Sans" font-size="14.00">internet connectivity.</text>
</a>
</g>
</g>
<!-- JLS&#45;51 -->
<g id="node5" class="node">
<title>JLS&#45;51</title>
<g id="a_node5"><a xlink:href="https://score-json.github.io/inc_nlohmann_json/main/generated/JLS.html#jls-51" xlink:title="JLS&#45;51: All source code\nof the nlohmann/json\nlibrary is mirrored within\neclipse&#45;score/inc_nlohmann_json.\n" target="_top">
<polygon fill="none" stroke="black" points="1057.5,-105.5 809.5,-105.5 809.5,-37.5 1057.5,-37.5 1057.5,-105.5"/>
<text text-anchor="middle" x="933.5" y="-90.3" font-family="Open Sans" font-size="14.00">JLS&#45;51: All source code</text>
<text text-anchor="middle" x="933.5" y="-75.3" font-family="Open Sans" font-size="14.00">of the nlohmann/json</text>
<text text-anchor="middle" x="933.5" y="-60.3" font-family="Open Sans" font-size="14.00">library is mirrored within</text>
<text text-anchor="middle" x="933.5" y="-45.3" font-family="Open Sans" font-size="14.00">eclipse&#45;score/inc_nlohmann_json.</text>
</a>
</g>
</g>
<!-- JLS&#45;66 -->
<g id="node6" class="node">
<title>JLS&#45;66</title>
<g id="a_node6"><a xlink:href="https://score-json.github.io/inc_nlohmann_json/main/generated/JLS.html#jls-66" xlink:title="JLS&#45;66: The mirror of\nnlohmann/json is configured\nvia infrastructure under\ndirect control, and rejects\nhistory rewrites. " target="_top">
<polygon fill="none" stroke="black" points="1289.5,-113 1075.5,-113 1075.5,-30 1289.5,-30 1289.5,-113"/>
<text text-anchor="middle" x="1182.5" y="-97.8" font-family="Open Sans" font-size="14.00">JLS&#45;66: The mirror of</text>
<text text-anchor="middle" x="1182.5" y="-82.8" font-family="Open Sans" font-size="14.00">nlohmann/json is configured</text>
<text text-anchor="middle" x="1182.5" y="-67.8" font-family="Open Sans" font-size="14.00">via infrastructure under</text>
<text text-anchor="middle" x="1182.5" y="-52.8" font-family="Open Sans" font-size="14.00">direct control, and rejects</text>
<text text-anchor="middle" x="1182.5" y="-37.8" font-family="Open Sans" font-size="14.00">history rewrites. </text>
</a>
</g>
</g>
<!-- TA&#45;SUPPLY_CHAIN -->
<g id="node7" class="node">
<title>TA&#45;SUPPLY_CHAIN</title>
<g id="a_node7"><a xlink:href="https://score-json.github.io/inc_nlohmann_json/main/_images/custom_TA-SUPPLY_CHAIN_graph.svg" xlink:title="TA&#45;SUPPLY_CHAIN: All\nsources and tools for\nthe nlohmann/json library\nare mirrored in our controlled\nenvironment. " target="_top">
<polygon fill="none" stroke="black" points="738,-370 519,-370 519,-287 738,-287 738,-370"/>
<text text-anchor="middle" x="628.5" y="-354.8" font-family="Open Sans" font-size="14.00">TA&#45;SUPPLY_CHAIN: All</text>
<text text-anchor="middle" x="628.5" y="-339.8" font-family="Open Sans" font-size="14.00">sources and tools for</text>
<text text-anchor="middle" x="628.5" y="-324.8" font-family="Open Sans" font-size="14.00">the nlohmann/json library</text>
<text text-anchor="middle" x="628.5" y="-309.8" font-family="Open Sans" font-size="14.00">are mirrored in our controlled</text>
<text text-anchor="middle" x="628.5" y="-294.8" font-family="Open Sans" font-size="14.00">environment. </text>
</a>
</g>
</g>
<!-- TA&#45;SUPPLY_CHAIN&#45;&gt;JLS&#45;23 -->
<g id="edge2" class="edge">
<title>TA&#45;SUPPLY_CHAIN&#45;&gt;JLS&#45;23</title>
<path fill="none" stroke="black" d="M527.61,-286.87C443.05,-251.75 319.91,-198.08 216.5,-143 198.43,-133.37 179.33,-121.97 162.09,-111.17"/>
<polygon fill="black" stroke="black" points="163.58,-107.97 153.26,-105.59 159.84,-113.89 163.58,-107.97"/>
</g>
<!-- TA&#45;SUPPLY_CHAIN&#45;&gt;JLS&#45;34 -->
<g id="edge5" class="edge">
<title>TA&#45;SUPPLY_CHAIN&#45;&gt;JLS&#45;34</title>
<path fill="none" stroke="black" d="M581.91,-286.81C529.78,-241.29 445.44,-167.64 390.48,-119.64"/>
<polygon fill="black" stroke="black" points="392.76,-116.98 382.93,-113.04 388.16,-122.26 392.76,-116.98"/>
</g>
<!-- TA&#45;SUPPLY_CHAIN&#45;&gt;JLS&#45;49 -->
<g id="edge3" class="edge">
<title>TA&#45;SUPPLY_CHAIN&#45;&gt;JLS&#45;49</title>
<path fill="none" stroke="black" d="M628.5,-286.81C628.5,-251 628.5,-197.8 628.5,-153.36"/>
<polygon fill="black" stroke="black" points="632,-153.15 628.5,-143.15 625,-153.15 632,-153.15"/>
</g>
<!-- TA&#45;SUPPLY_CHAIN&#45;&gt;JLS&#45;51 -->
<g id="edge4" class="edge">
<title>TA&#45;SUPPLY_CHAIN&#45;&gt;JLS&#45;51</title>
<path fill="none" stroke="black" d="M677.17,-286.81C734.51,-238.87 829.16,-159.74 885.99,-112.22"/>
<polygon fill="black" stroke="black" points="888.33,-114.83 893.75,-105.73 883.84,-109.46 888.33,-114.83"/>
</g>
<!-- TA&#45;SUPPLY_CHAIN&#45;&gt;JLS&#45;66 -->
<g id="edge6" class="edge">
<title>TA&#45;SUPPLY_CHAIN&#45;&gt;JLS&#45;66</title>
<path fill="none" stroke="black" d="M737.16,-286.89C827.04,-252.09 957.2,-198.85 1066.5,-143 1081.1,-135.54 1096.33,-126.93 1110.77,-118.34"/>
<polygon fill="black" stroke="black" points="1112.87,-121.16 1119.64,-113.01 1109.27,-115.16 1112.87,-121.16"/>
</g>
<!-- TT&#45;PROVENANCE&#45;&gt;TA&#45;SUPPLY_CHAIN -->
<g id="edge7" class="edge">
<title>TT&#45;PROVENANCE&#45;&gt;TA&#45;SUPPLY_CHAIN</title>
<path fill="none" stroke="black" d="M628.5,-513.75C628.5,-476.36 628.5,-420.81 628.5,-380.48"/>
<polygon fill="black" stroke="black" points="632,-380.32 628.5,-370.32 625,-380.32 632,-380.32"/>
</g>
</g>
</svg>
