<?xml version="1.0" encoding="UTF-8" standalone="no"?>
<!DOCTYPE svg PUBLIC "-//W3C//DTD SVG 1.1//EN"
 "http://www.w3.org/Graphics/SVG/1.1/DTD/svg11.dtd">
<!-- Generated by graphviz version 2.43.0 (0)
 -->
<!-- Title: G Pages: 1 -->
<svg width="1164pt" height="1181pt"
 viewBox="0.00 0.00 1164.00 1181.00" xmlns="http://www.w3.org/2000/svg" xmlns:xlink="http://www.w3.org/1999/xlink">
<g id="graph0" class="graph" transform="scale(1 1) rotate(0) translate(4 1177)">
<title>G</title>
<polygon fill="white" stroke="transparent" points="-4,4 -4,-1177 1160,-1177 1160,4 -4,4"/>
<!-- TRUSTABLE&#45;SOFTWARE -->
<g id="node1" class="node">
<title>TRUSTABLE&#45;SOFTWARE</title>
<g id="a_node1"><a xlink:href="https://score-json.github.io/nlohmann_json/main/_images/custom_TRUSTABLE-SOFTWARE_graph.svg" xlink:title="TRUSTABLE&#45;SOFTWARE: This\nrelease of JSON&#45;Library\nalso reffered in the\ndocumentation as nlohmann/json\nlibrary is Trustable.\n" target="_top">
<polygon fill="none" stroke="black" points="680,-1173 432,-1173 432,-1090 680,-1090 680,-1173"/>
<text text-anchor="middle" x="556" y="-1157.8" font-family="Open Sans" font-size="14.00">TRUSTABLE&#45;SOFTWARE: This</text>
<text text-anchor="middle" x="556" y="-1142.8" font-family="Open Sans" font-size="14.00">release of JSON&#45;Library</text>
<text text-anchor="middle" x="556" y="-1127.8" font-family="Open Sans" font-size="14.00">also reffered in the</text>
<text text-anchor="middle" x="556" y="-1112.8" font-family="Open Sans" font-size="14.00">documentation as nlohmann/json</text>
<text text-anchor="middle" x="556" y="-1097.8" font-family="Open Sans" font-size="14.00">library is Trustable.</text>
</a>
</g>
</g>
<!-- TT&#45;EXPECTATIONS -->
<g id="node10" class="node">
<title>TT&#45;EXPECTATIONS</title>
<g id="a_node10"><a xlink:href="https://score-json.github.io/nlohmann_json/main/_images/custom_TT-EXPECTATIONS_graph.svg" xlink:title="TT&#45;EXPECTATIONS: Documentation\nis provided, specifying\nwhat nlohmann/json library\nis expected to do, and\nwhat it must not do,\nand how this is verified.\n" target="_top">
<polygon fill="none" stroke="black" points="684.5,-946 427.5,-946 427.5,-848 684.5,-848 684.5,-946"/>
<text text-anchor="middle" x="556" y="-930.8" font-family="Open Sans" font-size="14.00">TT&#45;EXPECTATIONS: Documentation</text>
<text text-anchor="middle" x="556" y="-915.8" font-family="Open Sans" font-size="14.00">is provided, specifying</text>
<text text-anchor="middle" x="556" y="-900.8" font-family="Open Sans" font-size="14.00">what nlohmann/json library</text>
<text text-anchor="middle" x="556" y="-885.8" font-family="Open Sans" font-size="14.00">is expected to do, and</text>
<text text-anchor="middle" x="556" y="-870.8" font-family="Open Sans" font-size="14.00">what it must not do,</text>
<text text-anchor="middle" x="556" y="-855.8" font-family="Open Sans" font-size="14.00">and how this is verified.</text>
</a>
</g>
</g>
<!-- TRUSTABLE&#45;SOFTWARE&#45;&gt;TT&#45;EXPECTATIONS -->
<g id="edge1" class="edge">
<title>TRUSTABLE&#45;SOFTWARE&#45;&gt;TT&#45;EXPECTATIONS</title>
<path fill="none" stroke="black" d="M556,-1089.74C556,-1052.88 556,-998.18 556,-956.63"/>
<polygon fill="black" stroke="black" points="559.5,-956.37 556,-946.37 552.5,-956.37 559.5,-956.37"/>
</g>
<!-- JLS&#45;24 -->
<g id="node2" class="node">
<title>JLS&#45;24</title>
<g id="a_node2"><a xlink:href="https://score-json.github.io/nlohmann_json/main/_images/custom_JLS-24_graph.svg" xlink:title="JLS&#45;24: The nlohmann/json\nlibrary recognizes malformed\nJSON and returns an exception.\n" target="_top">
<polygon fill="none" stroke="black" points="673.5,-462 438.5,-462 438.5,-409 673.5,-409 673.5,-462"/>
<text text-anchor="middle" x="556" y="-446.8" font-family="Open Sans" font-size="14.00">JLS&#45;24: The nlohmann/json</text>
<text text-anchor="middle" x="556" y="-431.8" font-family="Open Sans" font-size="14.00">library recognizes malformed</text>
<text text-anchor="middle" x="556" y="-416.8" font-family="Open Sans" font-size="14.00">JSON and returns an exception.</text>
</a>
</g>
</g>
<!-- TIJ&#45;05 -->
<g id="node4" class="node">
<title>TIJ&#45;05</title>
<g id="a_node4"><a xlink:href="https://score-json.github.io/nlohmann_json/main/_images/custom_TIJ-05_graph.svg" xlink:title="TIJ&#45;05: The parsing service\nthrows an exception on\nill&#45;formed objects. " target="_top">
<polygon fill="none" stroke="black" points="657,-265 455,-265 455,-212 657,-212 657,-265"/>
<text text-anchor="middle" x="556" y="-249.8" font-family="Open Sans" font-size="14.00">TIJ&#45;05: The parsing service</text>
<text text-anchor="middle" x="556" y="-234.8" font-family="Open Sans" font-size="14.00">throws an exception on</text>
<text text-anchor="middle" x="556" y="-219.8" font-family="Open Sans" font-size="14.00">ill&#45;formed objects. </text>
</a>
</g>
</g>
<!-- JLS&#45;24&#45;&gt;TIJ&#45;05 -->
<g id="edge2" class="edge">
<title>JLS&#45;24&#45;&gt;TIJ&#45;05</title>
<path fill="none" stroke="black" d="M556,-408.61C556,-374.42 556,-314.06 556,-275.46"/>
<polygon fill="black" stroke="black" points="559.5,-275.19 556,-265.19 552.5,-275.19 559.5,-275.19"/>
</g>
<!-- TA&#45;MISBEHAVIOURS -->
<g id="node3" class="node">
<title>TA&#45;MISBEHAVIOURS</title>
<g id="a_node3"><a xlink:href="https://score-json.github.io/nlohmann_json/main/_images/custom_TA-MISBEHAVIOURS_graph.svg" xlink:title="TA&#45;MISBEHAVIOURS: Prohibited\nmisbehaviours for nlohmann/json\nlibrary are identified,\nand mitigations are specified,\nverified and validated\nbased on analysis. " target="_top">
<polygon fill="none" stroke="black" points="681,-704 431,-704 431,-606 681,-606 681,-704"/>
<text text-anchor="middle" x="556" y="-688.8" font-family="Open Sans" font-size="14.00">TA&#45;MISBEHAVIOURS: Prohibited</text>
<text text-anchor="middle" x="556" y="-673.8" font-family="Open Sans" font-size="14.00">misbehaviours for nlohmann/json</text>
<text text-anchor="middle" x="556" y="-658.8" font-family="Open Sans" font-size="14.00">library are identified,</text>
<text text-anchor="middle" x="556" y="-643.8" font-family="Open Sans" font-size="14.00">and mitigations are specified,</text>
<text text-anchor="middle" x="556" y="-628.8" font-family="Open Sans" font-size="14.00">verified and validated</text>
<text text-anchor="middle" x="556" y="-613.8" font-family="Open Sans" font-size="14.00">based on analysis. </text>
</a>
</g>
</g>
<!-- TA&#45;MISBEHAVIOURS&#45;&gt;JLS&#45;24 -->
<g id="edge3" class="edge">
<title>TA&#45;MISBEHAVIOURS&#45;&gt;JLS&#45;24</title>
<path fill="none" stroke="black" d="M556,-606C556,-565.58 556,-508.67 556,-472.18"/>
<polygon fill="black" stroke="black" points="559.5,-472.01 556,-462.01 552.5,-472.01 559.5,-472.01"/>
</g>
<!-- TIJ&#45;05.1 -->
<g id="node5" class="node">
<title>TIJ&#45;05.1</title>
<g id="a_node5"><a xlink:href="https://score-json.github.io/nlohmann_json/main/generated/TIJ.html#tij-05.1" xlink:title="TIJ&#45;05.1: The service\nthrows an exception on\nimproperly bounded objects.\n" target="_top">
<polygon fill="none" stroke="black" points="216,-60.5 0,-60.5 0,-7.5 216,-7.5 216,-60.5"/>
<text text-anchor="middle" x="108" y="-45.3" font-family="Open Sans" font-size="14.00">TIJ&#45;05.1: The service</text>
<text text-anchor="middle" x="108" y="-30.3" font-family="Open Sans" font-size="14.00">throws an exception on</text>
<text text-anchor="middle" x="108" y="-15.3" font-family="Open Sans" font-size="14.00">improperly bounded objects.</text>
</a>
</g>
</g>
<!-- TIJ&#45;05&#45;&gt;TIJ&#45;05.1 -->
<g id="edge4" class="edge">
<title>TIJ&#45;05&#45;&gt;TIJ&#45;05.1</title>
<path fill="none" stroke="black" d="M499.26,-211.85C416.23,-174.32 261.96,-104.59 173.98,-64.82"/>
<polygon fill="black" stroke="black" points="175.19,-61.53 164.63,-60.6 172.3,-67.91 175.19,-61.53"/>
</g>
<!-- TIJ&#45;05.2 -->
<g id="node6" class="node">
<title>TIJ&#45;05.2</title>
<g id="a_node6"><a xlink:href="https://score-json.github.io/nlohmann_json/main/generated/TIJ.html#tij-05.2" xlink:title="TIJ&#45;05.2: The service\nthrows an exception if\na non&#45;string is used\nas name of any member.\n" target="_top">
<polygon fill="none" stroke="black" points="424,-68 234,-68 234,0 424,0 424,-68"/>
<text text-anchor="middle" x="329" y="-52.8" font-family="Open Sans" font-size="14.00">TIJ&#45;05.2: The service</text>
<text text-anchor="middle" x="329" y="-37.8" font-family="Open Sans" font-size="14.00">throws an exception if</text>
<text text-anchor="middle" x="329" y="-22.8" font-family="Open Sans" font-size="14.00">a non&#45;string is used</text>
<text text-anchor="middle" x="329" y="-7.8" font-family="Open Sans" font-size="14.00">as name of any member.</text>
</a>
</g>
</g>
<!-- TIJ&#45;05&#45;&gt;TIJ&#45;05.2 -->
<g id="edge5" class="edge">
<title>TIJ&#45;05&#45;&gt;TIJ&#45;05.2</title>
<path fill="none" stroke="black" d="M527.25,-211.85C488.57,-177.35 419.37,-115.62 373.82,-74.98"/>
<polygon fill="black" stroke="black" points="375.96,-72.2 366.16,-68.15 371.3,-77.42 375.96,-72.2"/>
</g>
<!-- TIJ&#45;05.3 -->
<g id="node7" class="node">
<title>TIJ&#45;05.3</title>
<g id="a_node7"><a xlink:href="https://score-json.github.io/nlohmann_json/main/generated/TIJ.html#tij-05.3" xlink:title="TIJ&#45;05.3: The service\nthrows an exception if\nan improper string is\nused as name of any member.\n" target="_top">
<polygon fill="none" stroke="black" points="670,-68 442,-68 442,0 670,0 670,-68"/>
<text text-anchor="middle" x="556" y="-52.8" font-family="Open Sans" font-size="14.00">TIJ&#45;05.3: The service</text>
<text text-anchor="middle" x="556" y="-37.8" font-family="Open Sans" font-size="14.00">throws an exception if</text>
<text text-anchor="middle" x="556" y="-22.8" font-family="Open Sans" font-size="14.00">an improper string is</text>
<text text-anchor="middle" x="556" y="-7.8" font-family="Open Sans" font-size="14.00">used as name of any member.</text>
</a>
</g>
</g>
<!-- TIJ&#45;05&#45;&gt;TIJ&#45;05.3 -->
<g id="edge6" class="edge">
<title>TIJ&#45;05&#45;&gt;TIJ&#45;05.3</title>
<path fill="none" stroke="black" d="M556,-211.85C556,-178.27 556,-118.91 556,-78.3"/>
<polygon fill="black" stroke="black" points="559.5,-78.15 556,-68.15 552.5,-78.15 559.5,-78.15"/>
</g>
<!-- TIJ&#45;05.4 -->
<g id="node8" class="node">
<title>TIJ&#45;05.4</title>
<g id="a_node8"><a xlink:href="https://score-json.github.io/nlohmann_json/main/generated/TIJ.html#tij-05.4" xlink:title="TIJ&#45;05.4: The service\nthrows an exception if\nany member has an improper\nvalue. " target="_top">
<polygon fill="none" stroke="black" points="912,-68 688,-68 688,0 912,0 912,-68"/>
<text text-anchor="middle" x="800" y="-52.8" font-family="Open Sans" font-size="14.00">TIJ&#45;05.4: The service</text>
<text text-anchor="middle" x="800" y="-37.8" font-family="Open Sans" font-size="14.00">throws an exception if</text>
<text text-anchor="middle" x="800" y="-22.8" font-family="Open Sans" font-size="14.00">any member has an improper</text>
<text text-anchor="middle" x="800" y="-7.8" font-family="Open Sans" font-size="14.00">value. </text>
</a>
</g>
</g>
<!-- TIJ&#45;05&#45;&gt;TIJ&#45;05.4 -->
<g id="edge7" class="edge">
<title>TIJ&#45;05&#45;&gt;TIJ&#45;05.4</title>
<path fill="none" stroke="black" d="M586.9,-211.85C628.57,-177.27 703.17,-115.36 752.12,-74.73"/>
<polygon fill="black" stroke="black" points="754.59,-77.23 760.05,-68.15 750.12,-71.85 754.59,-77.23"/>
</g>
<!-- TIJ&#45;05.5 -->
<g id="node9" class="node">
<title>TIJ&#45;05.5</title>
<g id="a_node9"><a xlink:href="https://score-json.github.io/nlohmann_json/main/generated/TIJ.html#tij-05.5" xlink:title="TIJ&#45;05.5: The service\nthrows an exception on\nimproper member separators.\n" target="_top">
<polygon fill="none" stroke="black" points="1156,-60.5 930,-60.5 930,-7.5 1156,-7.5 1156,-60.5"/>
<text text-anchor="middle" x="1043" y="-45.3" font-family="Open Sans" font-size="14.00">TIJ&#45;05.5: The service</text>
<text text-anchor="middle" x="1043" y="-30.3" font-family="Open Sans" font-size="14.00">throws an exception on</text>
<text text-anchor="middle" x="1043" y="-15.3" font-family="Open Sans" font-size="14.00">improper member separators.</text>
</a>
</g>
</g>
<!-- TIJ&#45;05&#45;&gt;TIJ&#45;05.5 -->
<g id="edge8" class="edge">
<title>TIJ&#45;05&#45;&gt;TIJ&#45;05.5</title>
<path fill="none" stroke="black" d="M617.68,-211.85C708.21,-174.21 876.66,-104.17 972.15,-64.46"/>
<polygon fill="black" stroke="black" points="973.55,-67.67 981.44,-60.6 970.86,-61.21 973.55,-67.67"/>
</g>
<!-- TT&#45;EXPECTATIONS&#45;&gt;TA&#45;MISBEHAVIOURS -->
<g id="edge9" class="edge">
<title>TT&#45;EXPECTATIONS&#45;&gt;TA&#45;MISBEHAVIOURS</title>
<path fill="none" stroke="black" d="M556,-847.72C556,-809.23 556,-755.2 556,-714.3"/>
<polygon fill="black" stroke="black" points="559.5,-714.2 556,-704.2 552.5,-714.2 559.5,-714.2"/>
</g>
</g>
</svg>
