<?xml version="1.0" encoding="UTF-8" standalone="no"?>
<!DOCTYPE svg PUBLIC "-//W3C//DTD SVG 1.1//EN"
 "http://www.w3.org/Graphics/SVG/1.1/DTD/svg11.dtd">
<!-- Generated by graphviz version 2.43.0 (0)
 -->
<!-- Title: G Pages: 1 -->
<svg width="396pt" height="787pt"
 viewBox="0.00 0.00 396.00 787.00" xmlns="http://www.w3.org/2000/svg" xmlns:xlink="http://www.w3.org/1999/xlink">
<g id="graph0" class="graph" transform="scale(1 1) rotate(0) translate(4 783)">
<title>G</title>
<polygon fill="white" stroke="transparent" points="-4,4 -4,-783 392,-783 392,4 -4,4"/>
<!-- TRUSTABLE&#45;SOFTWARE -->
<g id="node1" class="node">
<title>TRUSTABLE&#45;SOFTWARE</title>
<g id="a_node1"><a xlink:href="https://score-json.github.io/nlohmann_json/main/_images/custom_TRUSTABLE-SOFTWARE_graph.svg" xlink:title="TRUSTABLE&#45;SOFTWARE: This\nrelease of JSON&#45;Library\nalso reffered in the\ndocumentation as nlohmann/json\nlibrary is Trustable.\n" target="_top">
<polygon fill="none" stroke="black" points="319,-779 71,-779 71,-696 319,-696 319,-779"/>
<text text-anchor="middle" x="195" y="-763.8" font-family="Open Sans" font-size="14.00">TRUSTABLE&#45;SOFTWARE: This</text>
<text text-anchor="middle" x="195" y="-748.8" font-family="Open Sans" font-size="14.00">release of JSON&#45;Library</text>
<text text-anchor="middle" x="195" y="-733.8" font-family="Open Sans" font-size="14.00">also reffered in the</text>
<text text-anchor="middle" x="195" y="-718.8" font-family="Open Sans" font-size="14.00">documentation as nlohmann/json</text>
<text text-anchor="middle" x="195" y="-703.8" font-family="Open Sans" font-size="14.00">library is Trustable.</text>
</a>
</g>
</g>
<!-- TT&#45;CONSTRUCTION -->
<g id="node5" class="node">
<title>TT&#45;CONSTRUCTION</title>
<g id="a_node5"><a xlink:href="https://score-json.github.io/nlohmann_json/main/_images/custom_TT-CONSTRUCTION_graph.svg" xlink:title="TT&#45;CONSTRUCTION: Tools\nare provided to build\nnlohmann/json library\nfrom trusted sources\n(also provided) with\nfull reproducibility.\n" target="_top">
<polygon fill="none" stroke="black" points="292,-552 98,-552 98,-454 292,-454 292,-552"/>
<text text-anchor="middle" x="195" y="-536.8" font-family="Open Sans" font-size="14.00">TT&#45;CONSTRUCTION: Tools</text>
<text text-anchor="middle" x="195" y="-521.8" font-family="Open Sans" font-size="14.00">are provided to build</text>
<text text-anchor="middle" x="195" y="-506.8" font-family="Open Sans" font-size="14.00">nlohmann/json library</text>
<text text-anchor="middle" x="195" y="-491.8" font-family="Open Sans" font-size="14.00">from trusted sources</text>
<text text-anchor="middle" x="195" y="-476.8" font-family="Open Sans" font-size="14.00">(also provided) with</text>
<text text-anchor="middle" x="195" y="-461.8" font-family="Open Sans" font-size="14.00">full reproducibility.</text>
</a>
</g>
</g>
<!-- TRUSTABLE&#45;SOFTWARE&#45;&gt;TT&#45;CONSTRUCTION -->
<g id="edge1" class="edge">
<title>TRUSTABLE&#45;SOFTWARE&#45;&gt;TT&#45;CONSTRUCTION</title>
<path fill="none" stroke="black" d="M195,-695.74C195,-658.88 195,-604.18 195,-562.63"/>
<polygon fill="black" stroke="black" points="198.5,-562.37 195,-552.37 191.5,-562.37 198.5,-562.37"/>
</g>
<!-- JLS&#45;10 -->
<g id="node2" class="node">
<title>JLS&#45;10</title>
<g id="a_node2"><a xlink:href="https://score-json.github.io/nlohmann_json/main/generated/JLS.html#jls-10" xlink:title="JLS&#45;10: Every release\nincludes source code,\nbuild instructions, tests\nand attestations. (TODO:\nTest result summary)\n" target="_top">
<polygon fill="none" stroke="black" points="188,-83 0,-83 0,0 188,0 188,-83"/>
<text text-anchor="middle" x="94" y="-67.8" font-family="Open Sans" font-size="14.00">JLS&#45;10: Every release</text>
<text text-anchor="middle" x="94" y="-52.8" font-family="Open Sans" font-size="14.00">includes source code,</text>
<text text-anchor="middle" x="94" y="-37.8" font-family="Open Sans" font-size="14.00">build instructions, tests</text>
<text text-anchor="middle" x="94" y="-22.8" font-family="Open Sans" font-size="14.00">and attestations. (TODO:</text>
<text text-anchor="middle" x="94" y="-7.8" font-family="Open Sans" font-size="14.00">Test result summary)</text>
</a>
</g>
</g>
<!-- JLS&#45;19 -->
<g id="node3" class="node">
<title>JLS&#45;19</title>
<g id="a_node3"><a xlink:href="https://score-json.github.io/nlohmann_json/main/generated/JLS.html#jls-19" xlink:title="JLS&#45;19: All components,\ndependencies and tools\nare listed in a manifest.\n" target="_top">
<polygon fill="none" stroke="black" points="388,-68 206,-68 206,-15 388,-15 388,-68"/>
<text text-anchor="middle" x="297" y="-52.8" font-family="Open Sans" font-size="14.00">JLS&#45;19: All components,</text>
<text text-anchor="middle" x="297" y="-37.8" font-family="Open Sans" font-size="14.00">dependencies and tools</text>
<text text-anchor="middle" x="297" y="-22.8" font-family="Open Sans" font-size="14.00">are listed in a manifest.</text>
</a>
</g>
</g>
<!-- TA&#45;ITERATIONS -->
<g id="node4" class="node">
<title>TA&#45;ITERATIONS</title>
<g id="a_node4"><a xlink:href="https://score-json.github.io/nlohmann_json/main/_images/custom_TA-ITERATIONS_graph.svg" xlink:title="TA&#45;ITERATIONS: All constructed\niterations of nlohmann/json\nlibrary include source\ncode, build instructions,\ntests, results and attestations.\n" target="_top">
<polygon fill="none" stroke="black" points="312,-310 78,-310 78,-227 312,-227 312,-310"/>
<text text-anchor="middle" x="195" y="-294.8" font-family="Open Sans" font-size="14.00">TA&#45;ITERATIONS: All constructed</text>
<text text-anchor="middle" x="195" y="-279.8" font-family="Open Sans" font-size="14.00">iterations of nlohmann/json</text>
<text text-anchor="middle" x="195" y="-264.8" font-family="Open Sans" font-size="14.00">library include source</text>
<text text-anchor="middle" x="195" y="-249.8" font-family="Open Sans" font-size="14.00">code, build instructions,</text>
<text text-anchor="middle" x="195" y="-234.8" font-family="Open Sans" font-size="14.00">tests, results and attestations.</text>
</a>
</g>
</g>
<!-- TA&#45;ITERATIONS&#45;&gt;JLS&#45;10 -->
<g id="edge2" class="edge">
<title>TA&#45;ITERATIONS&#45;&gt;JLS&#45;10</title>
<path fill="none" stroke="black" d="M176.71,-226.75C159.78,-189.04 134.56,-132.86 116.43,-92.46"/>
<polygon fill="black" stroke="black" points="119.61,-91.01 112.32,-83.32 113.23,-93.88 119.61,-91.01"/>
</g>
<!-- TA&#45;ITERATIONS&#45;&gt;JLS&#45;19 -->
<g id="edge3" class="edge">
<title>TA&#45;ITERATIONS&#45;&gt;JLS&#45;19</title>
<path fill="none" stroke="black" d="M213.47,-226.75C232.82,-184.08 262.88,-117.76 281.17,-77.41"/>
<polygon fill="black" stroke="black" points="284.39,-78.78 285.34,-68.23 278.02,-75.89 284.39,-78.78"/>
</g>
<!-- TT&#45;CONSTRUCTION&#45;&gt;TA&#45;ITERATIONS -->
<g id="edge4" class="edge">
<title>TT&#45;CONSTRUCTION&#45;&gt;TA&#45;ITERATIONS</title>
<path fill="none" stroke="black" d="M195,-453.83C195,-414.79 195,-359.95 195,-320.25"/>
<polygon fill="black" stroke="black" points="198.5,-320.24 195,-310.24 191.5,-320.24 198.5,-320.24"/>
</g>
</g>
</svg>
