<?xml version="1.0" encoding="UTF-8" standalone="no"?>
<!DOCTYPE svg PUBLIC "-//W3C//DTD SVG 1.1//EN"
 "http://www.w3.org/Graphics/SVG/1.1/DTD/svg11.dtd">
<!-- Generated by graphviz version 2.43.0 (0)
 -->
<!-- Title: G Pages: 1 -->
<svg width="1320pt" height="1134pt"
 viewBox="0.00 0.00 1319.50 1134.00" xmlns="http://www.w3.org/2000/svg" xmlns:xlink="http://www.w3.org/1999/xlink">
<g id="graph0" class="graph" transform="scale(1 1) rotate(0) translate(4 1130)">
<title>G</title>
<polygon fill="white" stroke="transparent" points="-4,4 -4,-1130 1315.5,-1130 1315.5,4 -4,4"/>
<!-- TRUSTABLE&#45;SOFTWARE -->
<g id="node1" class="node">
<title>TRUSTABLE&#45;SOFTWARE</title>
<g id="a_node1"><a xlink:href="https://score-json.github.io/nlohmann_json/main/_images/custom_TRUSTABLE-SOFTWARE_graph.svg" xlink:title="TRUSTABLE&#45;SOFTWARE: This\nrelease of JSON&#45;Library\nalso referred in the\ndocumentation as nlohmann/json\nlibrary is Trustable.\n" target="_top">
<polygon fill="none" stroke="black" points="613.5,-1126 365.5,-1126 365.5,-1043 613.5,-1043 613.5,-1126"/>
<text text-anchor="middle" x="489.5" y="-1110.8" font-family="Open Sans" font-size="14.00">TRUSTABLE&#45;SOFTWARE: This</text>
<text text-anchor="middle" x="489.5" y="-1095.8" font-family="Open Sans" font-size="14.00">release of JSON&#45;Library</text>
<text text-anchor="middle" x="489.5" y="-1080.8" font-family="Open Sans" font-size="14.00">also referred in the</text>
<text text-anchor="middle" x="489.5" y="-1065.8" font-family="Open Sans" font-size="14.00">documentation as nlohmann/json</text>
<text text-anchor="middle" x="489.5" y="-1050.8" font-family="Open Sans" font-size="14.00">library is Trustable.</text>
</a>
</g>
</g>
<!-- TT&#45;CONSTRUCTION -->
<g id="node9" class="node">
<title>TT&#45;CONSTRUCTION</title>
<g id="a_node9"><a xlink:href="https://score-json.github.io/nlohmann_json/main/_images/custom_TT-CONSTRUCTION_graph.svg" xlink:title="TT&#45;CONSTRUCTION: Tools\nare provided to build\nthe nlohmann/json library\nfrom trusted sources\n(also provided) with\nfull reproducibility.\n" target="_top">
<polygon fill="none" stroke="black" points="587.5,-899 391.5,-899 391.5,-801 587.5,-801 587.5,-899"/>
<text text-anchor="middle" x="489.5" y="-883.8" font-family="Open Sans" font-size="14.00">TT&#45;CONSTRUCTION: Tools</text>
<text text-anchor="middle" x="489.5" y="-868.8" font-family="Open Sans" font-size="14.00">are provided to build</text>
<text text-anchor="middle" x="489.5" y="-853.8" font-family="Open Sans" font-size="14.00">the nlohmann/json library</text>
<text text-anchor="middle" x="489.5" y="-838.8" font-family="Open Sans" font-size="14.00">from trusted sources</text>
<text text-anchor="middle" x="489.5" y="-823.8" font-family="Open Sans" font-size="14.00">(also provided) with</text>
<text text-anchor="middle" x="489.5" y="-808.8" font-family="Open Sans" font-size="14.00">full reproducibility.</text>
</a>
</g>
</g>
<!-- TRUSTABLE&#45;SOFTWARE&#45;&gt;TT&#45;CONSTRUCTION -->
<g id="edge1" class="edge">
<title>TRUSTABLE&#45;SOFTWARE&#45;&gt;TT&#45;CONSTRUCTION</title>
<path fill="none" stroke="black" d="M489.5,-1042.74C489.5,-1005.88 489.5,-951.18 489.5,-909.63"/>
<polygon fill="black" stroke="black" points="493,-909.37 489.5,-899.37 486,-909.37 493,-909.37"/>
</g>
<!-- JLS&#45;10 -->
<g id="node2" class="node">
<title>JLS&#45;10</title>
<g id="a_node2"><a xlink:href="https://score-json.github.io/nlohmann_json/main/generated/JLS.html#jls-10" xlink:title="JLS&#45;10: Every release\nof the nlohmann/json\nlibrary includes source\ncode, build instructions,\ntest code and test results\nsummaries. " target="_top">
<polygon fill="none" stroke="black" points="193,-377.5 0,-377.5 0,-279.5 193,-279.5 193,-377.5"/>
<text text-anchor="middle" x="96.5" y="-362.3" font-family="Open Sans" font-size="14.00">JLS&#45;10: Every release</text>
<text text-anchor="middle" x="96.5" y="-347.3" font-family="Open Sans" font-size="14.00">of the nlohmann/json</text>
<text text-anchor="middle" x="96.5" y="-332.3" font-family="Open Sans" font-size="14.00">library includes source</text>
<text text-anchor="middle" x="96.5" y="-317.3" font-family="Open Sans" font-size="14.00">code, build instructions,</text>
<text text-anchor="middle" x="96.5" y="-302.3" font-family="Open Sans" font-size="14.00">test code and test results</text>
<text text-anchor="middle" x="96.5" y="-287.3" font-family="Open Sans" font-size="14.00">summaries. </text>
</a>
</g>
</g>
<!-- JLS&#45;14 -->
<g id="node3" class="node">
<title>JLS&#45;14</title>
<g id="a_node3"><a xlink:href="https://score-json.github.io/nlohmann_json/main/generated/JLS.html#jls-14" xlink:title="JLS&#45;14: The SHA value\nof the nlohmann/json\nlibrary in use within\neclipse&#45;score/inc_nlohmann_json\ncoincides with the SHA\nvalue provided by Niels\nLohmann for that version.\n" target="_top">
<polygon fill="none" stroke="black" points="829,-113 586,-113 586,0 829,0 829,-113"/>
<text text-anchor="middle" x="707.5" y="-97.8" font-family="Open Sans" font-size="14.00">JLS&#45;14: The SHA value</text>
<text text-anchor="middle" x="707.5" y="-82.8" font-family="Open Sans" font-size="14.00">of the nlohmann/json</text>
<text text-anchor="middle" x="707.5" y="-67.8" font-family="Open Sans" font-size="14.00">library in use within</text>
<text text-anchor="middle" x="707.5" y="-52.8" font-family="Open Sans" font-size="14.00">eclipse&#45;score/inc_nlohmann_json</text>
<text text-anchor="middle" x="707.5" y="-37.8" font-family="Open Sans" font-size="14.00">coincides with the SHA</text>
<text text-anchor="middle" x="707.5" y="-22.8" font-family="Open Sans" font-size="14.00">value provided by Niels</text>
<text text-anchor="middle" x="707.5" y="-7.8" font-family="Open Sans" font-size="14.00">Lohmann for that version.</text>
</a>
</g>
</g>
<!-- JLS&#45;19 -->
<g id="node4" class="node">
<title>JLS&#45;19</title>
<g id="a_node4"><a xlink:href="https://score-json.github.io/nlohmann_json/main/generated/JLS.html#jls-19" xlink:title="JLS&#45;19: All library components,\nbuild dependencies, and\nbuild tools in the nlohmann/json\nrepository are declared\nin build system manifests.\n" target="_top">
<polygon fill="none" stroke="black" points="489.5,-370 249.5,-370 249.5,-287 489.5,-287 489.5,-370"/>
<text text-anchor="middle" x="369.5" y="-354.8" font-family="Open Sans" font-size="14.00">JLS&#45;19: All library components,</text>
<text text-anchor="middle" x="369.5" y="-339.8" font-family="Open Sans" font-size="14.00">build dependencies, and</text>
<text text-anchor="middle" x="369.5" y="-324.8" font-family="Open Sans" font-size="14.00">build tools in the nlohmann/json</text>
<text text-anchor="middle" x="369.5" y="-309.8" font-family="Open Sans" font-size="14.00">repository are declared</text>
<text text-anchor="middle" x="369.5" y="-294.8" font-family="Open Sans" font-size="14.00">in build system manifests.</text>
</a>
</g>
</g>
<!-- JLS&#45;38 -->
<g id="node5" class="node">
<title>JLS&#45;38</title>
<g id="a_node5"><a xlink:href="https://score-json.github.io/nlohmann_json/main/generated/JLS.html#jls-38" xlink:title="JLS&#45;38: Every release\nof the nlohmann/json\nlibrary shall provide\nconfiguration management\nfor build instructions\nand infrastructure. " target="_top">
<polygon fill="none" stroke="black" points="713.5,-377.5 507.5,-377.5 507.5,-279.5 713.5,-279.5 713.5,-377.5"/>
<text text-anchor="middle" x="610.5" y="-362.3" font-family="Open Sans" font-size="14.00">JLS&#45;38: Every release</text>
<text text-anchor="middle" x="610.5" y="-347.3" font-family="Open Sans" font-size="14.00">of the nlohmann/json</text>
<text text-anchor="middle" x="610.5" y="-332.3" font-family="Open Sans" font-size="14.00">library shall provide</text>
<text text-anchor="middle" x="610.5" y="-317.3" font-family="Open Sans" font-size="14.00">configuration management</text>
<text text-anchor="middle" x="610.5" y="-302.3" font-family="Open Sans" font-size="14.00">for build instructions</text>
<text text-anchor="middle" x="610.5" y="-287.3" font-family="Open Sans" font-size="14.00">and infrastructure. </text>
</a>
</g>
</g>
<!-- JLS&#45;49 -->
<g id="node6" class="node">
<title>JLS&#45;49</title>
<g id="a_node6"><a xlink:href="https://score-json.github.io/nlohmann_json/main/generated/JLS.html#jls-49" xlink:title="JLS&#45;49: The eclipse&#45;score/inc_nlohmann_json\nproject mirrors the external\nnlohmann/json_test_data\nrepository, containing\ntest data used by the\nunit tests in nlohmann/json,\nsuch that the test suite\ncan be executed without\ninternet connectivity.\n" target="_top">
<polygon fill="none" stroke="black" points="1057.5,-400 731.5,-400 731.5,-257 1057.5,-257 1057.5,-400"/>
<text text-anchor="middle" x="894.5" y="-384.8" font-family="Open Sans" font-size="14.00">JLS&#45;49: The eclipse&#45;score/inc_nlohmann_json</text>
<text text-anchor="middle" x="894.5" y="-369.8" font-family="Open Sans" font-size="14.00">project mirrors the external</text>
<text text-anchor="middle" x="894.5" y="-354.8" font-family="Open Sans" font-size="14.00">nlohmann/json_test_data</text>
<text text-anchor="middle" x="894.5" y="-339.8" font-family="Open Sans" font-size="14.00">repository, containing</text>
<text text-anchor="middle" x="894.5" y="-324.8" font-family="Open Sans" font-size="14.00">test data used by the</text>
<text text-anchor="middle" x="894.5" y="-309.8" font-family="Open Sans" font-size="14.00">unit tests in nlohmann/json,</text>
<text text-anchor="middle" x="894.5" y="-294.8" font-family="Open Sans" font-size="14.00">such that the test suite</text>
<text text-anchor="middle" x="894.5" y="-279.8" font-family="Open Sans" font-size="14.00">can be executed without</text>
<text text-anchor="middle" x="894.5" y="-264.8" font-family="Open Sans" font-size="14.00">internet connectivity.</text>
</a>
</g>
</g>
<!-- JLS&#45;53 -->
<g id="node7" class="node">
<title>JLS&#45;53</title>
<g id="a_node7"><a xlink:href="https://score-json.github.io/nlohmann_json/main/_images/custom_JLS-53_graph.svg" xlink:title="JLS&#45;53: Given the same\nversion of the repository,\nconfiguration, and documented\nenvironment, the build\nprocess shall produce\nidentical single&#45;include\nheader files. " target="_top">
<polygon fill="none" stroke="black" points="1311.5,-385 1075.5,-385 1075.5,-272 1311.5,-272 1311.5,-385"/>
<text text-anchor="middle" x="1193.5" y="-369.8" font-family="Open Sans" font-size="14.00">JLS&#45;53: Given the same</text>
<text text-anchor="middle" x="1193.5" y="-354.8" font-family="Open Sans" font-size="14.00">version of the repository,</text>
<text text-anchor="middle" x="1193.5" y="-339.8" font-family="Open Sans" font-size="14.00">configuration, and documented</text>
<text text-anchor="middle" x="1193.5" y="-324.8" font-family="Open Sans" font-size="14.00">environment, the build</text>
<text text-anchor="middle" x="1193.5" y="-309.8" font-family="Open Sans" font-size="14.00">process shall produce</text>
<text text-anchor="middle" x="1193.5" y="-294.8" font-family="Open Sans" font-size="14.00">identical single&#45;include</text>
<text text-anchor="middle" x="1193.5" y="-279.8" font-family="Open Sans" font-size="14.00">header files. </text>
</a>
</g>
</g>
<!-- JLS&#45;53&#45;&gt;JLS&#45;14 -->
<g id="edge2" class="edge">
<title>JLS&#45;53&#45;&gt;JLS&#45;14</title>
<path fill="none" stroke="black" d="M1093.39,-271.88C1012.69,-227.05 899.38,-164.1 816.42,-118.01"/>
<polygon fill="black" stroke="black" points="817.92,-114.84 807.48,-113.04 814.52,-120.96 817.92,-114.84"/>
</g>
<!-- TA&#45;RELEASES -->
<g id="node8" class="node">
<title>TA&#45;RELEASES</title>
<g id="a_node8"><a xlink:href="https://score-json.github.io/nlohmann_json/main/_images/custom_TA-RELEASES_graph.svg" xlink:title="TA&#45;RELEASES: Construction\nof releases for the nlohmann/json\nlibrary is fully repeatable\nand the results are fully\nreproducible, with any\nexceptions documented\nand justified. " target="_top">
<polygon fill="none" stroke="black" points="614.5,-657 364.5,-657 364.5,-544 614.5,-544 614.5,-657"/>
<text text-anchor="middle" x="489.5" y="-641.8" font-family="Open Sans" font-size="14.00">TA&#45;RELEASES: Construction</text>
<text text-anchor="middle" x="489.5" y="-626.8" font-family="Open Sans" font-size="14.00">of releases for the nlohmann/json</text>
<text text-anchor="middle" x="489.5" y="-611.8" font-family="Open Sans" font-size="14.00">library is fully repeatable</text>
<text text-anchor="middle" x="489.5" y="-596.8" font-family="Open Sans" font-size="14.00">and the results are fully</text>
<text text-anchor="middle" x="489.5" y="-581.8" font-family="Open Sans" font-size="14.00">reproducible, with any</text>
<text text-anchor="middle" x="489.5" y="-566.8" font-family="Open Sans" font-size="14.00">exceptions documented</text>
<text text-anchor="middle" x="489.5" y="-551.8" font-family="Open Sans" font-size="14.00">and justified. </text>
</a>
</g>
</g>
<!-- TA&#45;RELEASES&#45;&gt;JLS&#45;10 -->
<g id="edge5" class="edge">
<title>TA&#45;RELEASES&#45;&gt;JLS&#45;10</title>
<path fill="none" stroke="black" d="M408.55,-543.88C340.13,-496.88 242.73,-429.96 175.02,-383.44"/>
<polygon fill="black" stroke="black" points="176.72,-380.37 166.5,-377.59 172.76,-386.14 176.72,-380.37"/>
</g>
<!-- TA&#45;RELEASES&#45;&gt;JLS&#45;14 -->
<g id="edge3" class="edge">
<title>TA&#45;RELEASES&#45;&gt;JLS&#45;14</title>
<path fill="none" stroke="black" d="M381.91,-543.85C328.86,-510.07 270.05,-461.54 240.5,-400 212.99,-342.71 205.48,-310.04 240.5,-257 314.47,-144.96 465.68,-95.62 576.07,-74.03"/>
<polygon fill="black" stroke="black" points="576.78,-77.46 585.95,-72.15 575.47,-70.59 576.78,-77.46"/>
</g>
<!-- TA&#45;RELEASES&#45;&gt;JLS&#45;19 -->
<g id="edge6" class="edge">
<title>TA&#45;RELEASES&#45;&gt;JLS&#45;19</title>
<path fill="none" stroke="black" d="M464.78,-543.88C443.28,-495.5 412.4,-426.02 391.68,-379.4"/>
<polygon fill="black" stroke="black" points="394.81,-377.82 387.55,-370.11 388.41,-380.67 394.81,-377.82"/>
</g>
<!-- TA&#45;RELEASES&#45;&gt;JLS&#45;38 -->
<g id="edge4" class="edge">
<title>TA&#45;RELEASES&#45;&gt;JLS&#45;38</title>
<path fill="none" stroke="black" d="M514.42,-543.88C534.94,-498.1 563.92,-433.43 584.68,-387.11"/>
<polygon fill="black" stroke="black" points="587.95,-388.37 588.85,-377.81 581.57,-385.5 587.95,-388.37"/>
</g>
<!-- TA&#45;RELEASES&#45;&gt;JLS&#45;49 -->
<g id="edge7" class="edge">
<title>TA&#45;RELEASES&#45;&gt;JLS&#45;49</title>
<path fill="none" stroke="black" d="M572.93,-543.88C632.77,-503.99 714.14,-449.74 780.05,-405.8"/>
<polygon fill="black" stroke="black" points="782.04,-408.68 788.42,-400.22 778.16,-402.86 782.04,-408.68"/>
</g>
<!-- TA&#45;RELEASES&#45;&gt;JLS&#45;53 -->
<g id="edge8" class="edge">
<title>TA&#45;RELEASES&#45;&gt;JLS&#45;53</title>
<path fill="none" stroke="black" d="M614.59,-563.16C733.12,-527.12 915.03,-467.61 1066.5,-400 1073.62,-396.82 1080.88,-393.38 1088.14,-389.79"/>
<polygon fill="black" stroke="black" points="1089.96,-392.79 1097.31,-385.16 1086.81,-386.54 1089.96,-392.79"/>
</g>
<!-- TT&#45;CONSTRUCTION&#45;&gt;TA&#45;RELEASES -->
<g id="edge9" class="edge">
<title>TT&#45;CONSTRUCTION&#45;&gt;TA&#45;RELEASES</title>
<path fill="none" stroke="black" d="M489.5,-800.99C489.5,-762.93 489.5,-709.36 489.5,-667.31"/>
<polygon fill="black" stroke="black" points="493,-667.16 489.5,-657.16 486,-667.16 493,-667.16"/>
</g>
</g>
</svg>
