<?xml version="1.0" encoding="UTF-8" standalone="no"?>
<!DOCTYPE svg PUBLIC "-//W3C//DTD SVG 1.1//EN"
 "http://www.w3.org/Graphics/SVG/1.1/DTD/svg11.dtd">
<!-- Generated by graphviz version 2.43.0 (0)
 -->
<!-- Title: G Pages: 1 -->
<svg width="1803pt" height="1393pt"
 viewBox="0.00 0.00 1802.50 1393.00" xmlns="http://www.w3.org/2000/svg" xmlns:xlink="http://www.w3.org/1999/xlink">
<g id="graph0" class="graph" transform="scale(1 1) rotate(0) translate(4 1389)">
<title>G</title>
<polygon fill="white" stroke="transparent" points="-4,4 -4,-1389 1798.5,-1389 1798.5,4 -4,4"/>
<!-- TRUSTABLE&#45;SOFTWARE -->
<g id="node1" class="node">
<title>TRUSTABLE&#45;SOFTWARE</title>
<g id="a_node1"><a xlink:href="https://score-json.github.io/nlohmann_json/main/_images/custom_TRUSTABLE-SOFTWARE_graph.svg" xlink:title="TRUSTABLE&#45;SOFTWARE: This\nrelease of JSON&#45;Library\nalso reffered in the\ndocumentation as nlohmann/json\nlibrary is Trustable.\n" target="_top">
<polygon fill="none" stroke="black" points="981.5,-1385 733.5,-1385 733.5,-1302 981.5,-1302 981.5,-1385"/>
<text text-anchor="middle" x="857.5" y="-1369.8" font-family="Open Sans" font-size="14.00">TRUSTABLE&#45;SOFTWARE: This</text>
<text text-anchor="middle" x="857.5" y="-1354.8" font-family="Open Sans" font-size="14.00">release of JSON&#45;Library</text>
<text text-anchor="middle" x="857.5" y="-1339.8" font-family="Open Sans" font-size="14.00">also reffered in the</text>
<text text-anchor="middle" x="857.5" y="-1324.8" font-family="Open Sans" font-size="14.00">documentation as nlohmann/json</text>
<text text-anchor="middle" x="857.5" y="-1309.8" font-family="Open Sans" font-size="14.00">library is Trustable.</text>
</a>
</g>
</g>
<!-- TT&#45;EXPECTATIONS -->
<g id="node14" class="node">
<title>TT&#45;EXPECTATIONS</title>
<g id="a_node14"><a xlink:href="https://score-json.github.io/nlohmann_json/main/_images/custom_TT-EXPECTATIONS_graph.svg" xlink:title="TT&#45;EXPECTATIONS: Documentation\nis provided, specifying\nwhat nlohmann/json library\nis expected to do, and\nwhat it must not do,\nand how this is verified.\n" target="_top">
<polygon fill="none" stroke="black" points="986,-1158 729,-1158 729,-1060 986,-1060 986,-1158"/>
<text text-anchor="middle" x="857.5" y="-1142.8" font-family="Open Sans" font-size="14.00">TT&#45;EXPECTATIONS: Documentation</text>
<text text-anchor="middle" x="857.5" y="-1127.8" font-family="Open Sans" font-size="14.00">is provided, specifying</text>
<text text-anchor="middle" x="857.5" y="-1112.8" font-family="Open Sans" font-size="14.00">what nlohmann/json library</text>
<text text-anchor="middle" x="857.5" y="-1097.8" font-family="Open Sans" font-size="14.00">is expected to do, and</text>
<text text-anchor="middle" x="857.5" y="-1082.8" font-family="Open Sans" font-size="14.00">what it must not do,</text>
<text text-anchor="middle" x="857.5" y="-1067.8" font-family="Open Sans" font-size="14.00">and how this is verified.</text>
</a>
</g>
</g>
<!-- TRUSTABLE&#45;SOFTWARE&#45;&gt;TT&#45;EXPECTATIONS -->
<g id="edge1" class="edge">
<title>TRUSTABLE&#45;SOFTWARE&#45;&gt;TT&#45;EXPECTATIONS</title>
<path fill="none" stroke="black" d="M857.5,-1301.74C857.5,-1264.88 857.5,-1210.18 857.5,-1168.63"/>
<polygon fill="black" stroke="black" points="861,-1168.37 857.5,-1158.37 854,-1168.37 861,-1168.37"/>
</g>
<!-- JLEX&#45;01 -->
<g id="node2" class="node">
<title>JLEX&#45;01</title>
<g id="a_node2"><a xlink:href="https://score-json.github.io/nlohmann_json/main/_images/custom_JLEX-01_graph.svg" xlink:title="JLEX&#45;01: The requirement\nregarding [JSON Validation](https://eclipse&#45;score.github.io/score/main/modules/baselibs/json/docs/requirements/index.html#comp_req__json__validation)\nis fulfilled. " target="_top">
<polygon fill="none" stroke="black" points="1395,-674 320,-674 320,-621 1395,-621 1395,-674"/>
<text text-anchor="middle" x="857.5" y="-658.8" font-family="Open Sans" font-size="14.00">JLEX&#45;01: The requirement</text>
<text text-anchor="middle" x="857.5" y="-643.8" font-family="Open Sans" font-size="14.00">regarding [JSON Validation](https://eclipse&#45;score.github.io/score/main/modules/baselibs/json/docs/requirements/index.html#comp_req__json__validation)</text>
<text text-anchor="middle" x="857.5" y="-628.8" font-family="Open Sans" font-size="14.00">is fulfilled. </text>
</a>
</g>
</g>
<!-- WFJ&#45;03 -->
<g id="node15" class="node">
<title>WFJ&#45;03</title>
<g id="a_node15"><a xlink:href="https://score-json.github.io/nlohmann_json/main/_images/custom_WFJ-03_graph.svg" xlink:title="WFJ&#45;03: The service checks\nthe well&#45;formedness of\nnumbers. " target="_top">
<polygon fill="none" stroke="black" points="960.5,-477 754.5,-477 754.5,-424 960.5,-424 960.5,-477"/>
<text text-anchor="middle" x="857.5" y="-461.8" font-family="Open Sans" font-size="14.00">WFJ&#45;03: The service checks</text>
<text text-anchor="middle" x="857.5" y="-446.8" font-family="Open Sans" font-size="14.00">the well&#45;formedness of</text>
<text text-anchor="middle" x="857.5" y="-431.8" font-family="Open Sans" font-size="14.00">numbers. </text>
</a>
</g>
</g>
<!-- JLEX&#45;01&#45;&gt;WFJ&#45;03 -->
<g id="edge2" class="edge">
<title>JLEX&#45;01&#45;&gt;WFJ&#45;03</title>
<path fill="none" stroke="black" d="M857.5,-620.61C857.5,-586.42 857.5,-526.06 857.5,-487.46"/>
<polygon fill="black" stroke="black" points="861,-487.19 857.5,-477.19 854,-487.19 861,-487.19"/>
</g>
<!-- NJF&#45;08 -->
<g id="node3" class="node">
<title>NJF&#45;08</title>
<g id="a_node3"><a xlink:href="https://score-json.github.io/nlohmann_json/main/_images/custom_NJF-08_graph.svg" xlink:title="NJF&#45;08: The service accepts\nnumbers according to\nRFC8259 ยง6. " target="_top">
<polygon fill="none" stroke="black" points="962,-280 753,-280 753,-227 962,-227 962,-280"/>
<text text-anchor="middle" x="857.5" y="-264.8" font-family="Open Sans" font-size="14.00">NJF&#45;08: The service accepts</text>
<text text-anchor="middle" x="857.5" y="-249.8" font-family="Open Sans" font-size="14.00">numbers according to</text>
<text text-anchor="middle" x="857.5" y="-234.8" font-family="Open Sans" font-size="14.00">RFC8259 ยง6. </text>
</a>
</g>
</g>
<!-- NJF&#45;08.1 -->
<g id="node4" class="node">
<title>NJF&#45;08.1</title>
<g id="a_node4"><a xlink:href="https://score-json.github.io/nlohmann_json/main/generated/NJF.html#njf-08.1" xlink:title="NJF&#45;08.1: The service\ndoes accept integers\nwithin the limits of\n64&#45;bit double. " target="_top">
<polygon fill="none" stroke="black" points="165,-75.5 0,-75.5 0,-7.5 165,-7.5 165,-75.5"/>
<text text-anchor="middle" x="82.5" y="-60.3" font-family="Open Sans" font-size="14.00">NJF&#45;08.1: The service</text>
<text text-anchor="middle" x="82.5" y="-45.3" font-family="Open Sans" font-size="14.00">does accept integers</text>
<text text-anchor="middle" x="82.5" y="-30.3" font-family="Open Sans" font-size="14.00">within the limits of</text>
<text text-anchor="middle" x="82.5" y="-15.3" font-family="Open Sans" font-size="14.00">64&#45;bit double. </text>
</a>
</g>
</g>
<!-- NJF&#45;08&#45;&gt;NJF&#45;08.1 -->
<g id="edge3" class="edge">
<title>NJF&#45;08&#45;&gt;NJF&#45;08.1</title>
<path fill="none" stroke="black" d="M752.92,-232.37C617.51,-204.99 375.1,-151.48 174.5,-83 170.99,-81.8 167.43,-80.52 163.85,-79.19"/>
<polygon fill="black" stroke="black" points="164.94,-75.86 154.35,-75.53 162.43,-82.39 164.94,-75.86"/>
</g>
<!-- NJF&#45;08.2 -->
<g id="node5" class="node">
<title>NJF&#45;08.2</title>
<g id="a_node5"><a xlink:href="https://score-json.github.io/nlohmann_json/main/generated/NJF.html#njf-08.2" xlink:title="NJF&#45;08.2: The service\ndoes accept integers\naccording to IEEE 754\nbinary64. " target="_top">
<polygon fill="none" stroke="black" points="353.5,-75.5 183.5,-75.5 183.5,-7.5 353.5,-7.5 353.5,-75.5"/>
<text text-anchor="middle" x="268.5" y="-60.3" font-family="Open Sans" font-size="14.00">NJF&#45;08.2: The service</text>
<text text-anchor="middle" x="268.5" y="-45.3" font-family="Open Sans" font-size="14.00">does accept integers</text>
<text text-anchor="middle" x="268.5" y="-30.3" font-family="Open Sans" font-size="14.00">according to IEEE 754</text>
<text text-anchor="middle" x="268.5" y="-15.3" font-family="Open Sans" font-size="14.00">binary64. </text>
</a>
</g>
</g>
<!-- NJF&#45;08&#45;&gt;NJF&#45;08.2 -->
<g id="edge4" class="edge">
<title>NJF&#45;08&#45;&gt;NJF&#45;08.2</title>
<path fill="none" stroke="black" d="M776.65,-226.93C678.08,-195.27 506.77,-138.69 362.5,-83 359.43,-81.82 356.32,-80.59 353.18,-79.34"/>
<polygon fill="black" stroke="black" points="354.29,-76.01 343.71,-75.51 351.67,-82.5 354.29,-76.01"/>
</g>
<!-- NJF&#45;08.3 -->
<g id="node6" class="node">
<title>NJF&#45;08.3</title>
<g id="a_node6"><a xlink:href="https://score-json.github.io/nlohmann_json/main/generated/NJF.html#njf-08.3" xlink:title="NJF&#45;08.3: The service\ndoes not accept NaN,\ninfinity. " target="_top">
<polygon fill="none" stroke="black" points="537,-68 372,-68 372,-15 537,-15 537,-68"/>
<text text-anchor="middle" x="454.5" y="-52.8" font-family="Open Sans" font-size="14.00">NJF&#45;08.3: The service</text>
<text text-anchor="middle" x="454.5" y="-37.8" font-family="Open Sans" font-size="14.00">does not accept NaN,</text>
<text text-anchor="middle" x="454.5" y="-22.8" font-family="Open Sans" font-size="14.00">infinity. </text>
</a>
</g>
</g>
<!-- NJF&#45;08&#45;&gt;NJF&#45;08.3 -->
<g id="edge5" class="edge">
<title>NJF&#45;08&#45;&gt;NJF&#45;08.3</title>
<path fill="none" stroke="black" d="M808.49,-226.96C733.85,-188.07 592.01,-114.16 512.41,-72.67"/>
<polygon fill="black" stroke="black" points="513.97,-69.54 503.49,-68.03 510.74,-75.75 513.97,-69.54"/>
</g>
<!-- NJF&#45;08.4 -->
<g id="node7" class="node">
<title>NJF&#45;08.4</title>
<g id="a_node7"><a xlink:href="https://score-json.github.io/nlohmann_json/main/generated/NJF.html#njf-08.4" xlink:title="NJF&#45;08.4: The service\ndoes accept e or E for\nnumbers with exponent\nwithin the bounds of\ndouble. " target="_top">
<polygon fill="none" stroke="black" points="737.5,-83 555.5,-83 555.5,0 737.5,0 737.5,-83"/>
<text text-anchor="middle" x="646.5" y="-67.8" font-family="Open Sans" font-size="14.00">NJF&#45;08.4: The service</text>
<text text-anchor="middle" x="646.5" y="-52.8" font-family="Open Sans" font-size="14.00">does accept e or E for</text>
<text text-anchor="middle" x="646.5" y="-37.8" font-family="Open Sans" font-size="14.00">numbers with exponent</text>
<text text-anchor="middle" x="646.5" y="-22.8" font-family="Open Sans" font-size="14.00">within the bounds of</text>
<text text-anchor="middle" x="646.5" y="-7.8" font-family="Open Sans" font-size="14.00">double. </text>
</a>
</g>
</g>
<!-- NJF&#45;08&#45;&gt;NJF&#45;08.4 -->
<g id="edge6" class="edge">
<title>NJF&#45;08&#45;&gt;NJF&#45;08.4</title>
<path fill="none" stroke="black" d="M831.63,-226.75C797.61,-192.89 737.19,-132.76 694.64,-90.42"/>
<polygon fill="black" stroke="black" points="697.01,-87.83 687.45,-83.25 692.07,-92.79 697.01,-87.83"/>
</g>
<!-- NJF&#45;08.5 -->
<g id="node8" class="node">
<title>NJF&#45;08.5</title>
<g id="a_node8"><a xlink:href="https://score-json.github.io/nlohmann_json/main/generated/NJF.html#njf-08.5" xlink:title="NJF&#45;08.5: The service\ndoes not accept u0415\nand u0436 (cyrillic e\nand E) as exponent signs\nin numbers with exponent.\n" target="_top">
<polygon fill="none" stroke="black" points="959.5,-83 755.5,-83 755.5,0 959.5,0 959.5,-83"/>
<text text-anchor="middle" x="857.5" y="-67.8" font-family="Open Sans" font-size="14.00">NJF&#45;08.5: The service</text>
<text text-anchor="middle" x="857.5" y="-52.8" font-family="Open Sans" font-size="14.00">does not accept u0415</text>
<text text-anchor="middle" x="857.5" y="-37.8" font-family="Open Sans" font-size="14.00">and u0436 (cyrillic e</text>
<text text-anchor="middle" x="857.5" y="-22.8" font-family="Open Sans" font-size="14.00">and E) as exponent signs</text>
<text text-anchor="middle" x="857.5" y="-7.8" font-family="Open Sans" font-size="14.00">in numbers with exponent.</text>
</a>
</g>
</g>
<!-- NJF&#45;08&#45;&gt;NJF&#45;08.5 -->
<g id="edge7" class="edge">
<title>NJF&#45;08&#45;&gt;NJF&#45;08.5</title>
<path fill="none" stroke="black" d="M857.5,-226.75C857.5,-193.66 857.5,-135.48 857.5,-93.33"/>
<polygon fill="black" stroke="black" points="861,-93.25 857.5,-83.25 854,-93.25 861,-93.25"/>
</g>
<!-- NJF&#45;08.6 -->
<g id="node9" class="node">
<title>NJF&#45;08.6</title>
<g id="a_node9"><a xlink:href="https://score-json.github.io/nlohmann_json/main/generated/NJF.html#njf-08.6" xlink:title="NJF&#45;08.6: The service\ndoes not accept invalid\nsyntax for numbers. " target="_top">
<polygon fill="none" stroke="black" points="1154,-68 977,-68 977,-15 1154,-15 1154,-68"/>
<text text-anchor="middle" x="1065.5" y="-52.8" font-family="Open Sans" font-size="14.00">NJF&#45;08.6: The service</text>
<text text-anchor="middle" x="1065.5" y="-37.8" font-family="Open Sans" font-size="14.00">does not accept invalid</text>
<text text-anchor="middle" x="1065.5" y="-22.8" font-family="Open Sans" font-size="14.00">syntax for numbers. </text>
</a>
</g>
</g>
<!-- NJF&#45;08&#45;&gt;NJF&#45;08.6 -->
<g id="edge8" class="edge">
<title>NJF&#45;08&#45;&gt;NJF&#45;08.6</title>
<path fill="none" stroke="black" d="M883,-226.75C920.77,-188.62 991.54,-117.17 1032.98,-75.33"/>
<polygon fill="black" stroke="black" points="1035.56,-77.7 1040.11,-68.13 1030.59,-72.77 1035.56,-77.7"/>
</g>
<!-- NJF&#45;08.7 -->
<g id="node10" class="node">
<title>NJF&#45;08.7</title>
<g id="a_node10"><a xlink:href="https://score-json.github.io/nlohmann_json/main/generated/NJF.html#njf-08.7" xlink:title="NJF&#45;08.7: The service\ndoes accept decimal points\nin numbers within the\nbounds of double. " target="_top">
<polygon fill="none" stroke="black" points="1378.5,-75.5 1172.5,-75.5 1172.5,-7.5 1378.5,-7.5 1378.5,-75.5"/>
<text text-anchor="middle" x="1275.5" y="-60.3" font-family="Open Sans" font-size="14.00">NJF&#45;08.7: The service</text>
<text text-anchor="middle" x="1275.5" y="-45.3" font-family="Open Sans" font-size="14.00">does accept decimal points</text>
<text text-anchor="middle" x="1275.5" y="-30.3" font-family="Open Sans" font-size="14.00">in numbers within the</text>
<text text-anchor="middle" x="1275.5" y="-15.3" font-family="Open Sans" font-size="14.00">bounds of double. </text>
</a>
</g>
</g>
<!-- NJF&#45;08&#45;&gt;NJF&#45;08.7 -->
<g id="edge9" class="edge">
<title>NJF&#45;08&#45;&gt;NJF&#45;08.7</title>
<path fill="none" stroke="black" d="M908.34,-226.96C981.29,-190.31 1116.14,-122.56 1200.55,-80.16"/>
<polygon fill="black" stroke="black" points="1202.2,-83.24 1209.57,-75.63 1199.06,-76.99 1202.2,-83.24"/>
</g>
<!-- NJF&#45;08.8 -->
<g id="node11" class="node">
<title>NJF&#45;08.8</title>
<g id="a_node11"><a xlink:href="https://score-json.github.io/nlohmann_json/main/generated/NJF.html#njf-08.8" xlink:title="NJF&#45;08.8: The service\ndoes not accept leading\nzeroes. " target="_top">
<polygon fill="none" stroke="black" points="1578.5,-68 1396.5,-68 1396.5,-15 1578.5,-15 1578.5,-68"/>
<text text-anchor="middle" x="1487.5" y="-52.8" font-family="Open Sans" font-size="14.00">NJF&#45;08.8: The service</text>
<text text-anchor="middle" x="1487.5" y="-37.8" font-family="Open Sans" font-size="14.00">does not accept leading</text>
<text text-anchor="middle" x="1487.5" y="-22.8" font-family="Open Sans" font-size="14.00">zeroes. </text>
</a>
</g>
</g>
<!-- NJF&#45;08&#45;&gt;NJF&#45;08.8 -->
<g id="edge10" class="edge">
<title>NJF&#45;08&#45;&gt;NJF&#45;08.8</title>
<path fill="none" stroke="black" d="M944.47,-226.88C1050.02,-195.29 1233.07,-138.88 1387.5,-83 1397.11,-79.52 1407.17,-75.69 1417.04,-71.81"/>
<polygon fill="black" stroke="black" points="1418.43,-75.02 1426.44,-68.08 1415.85,-68.51 1418.43,-75.02"/>
</g>
<!-- NJF&#45;08.9 -->
<g id="node12" class="node">
<title>NJF&#45;08.9</title>
<g id="a_node12"><a xlink:href="https://score-json.github.io/nlohmann_json/main/generated/NJF.html#njf-08.9" xlink:title="NJF&#45;08.9: The service\ndoes not accept any other\ndigit symbol than 0&#45;9.\n" target="_top">
<polygon fill="none" stroke="black" points="1794.5,-68 1596.5,-68 1596.5,-15 1794.5,-15 1794.5,-68"/>
<text text-anchor="middle" x="1695.5" y="-52.8" font-family="Open Sans" font-size="14.00">NJF&#45;08.9: The service</text>
<text text-anchor="middle" x="1695.5" y="-37.8" font-family="Open Sans" font-size="14.00">does not accept any other</text>
<text text-anchor="middle" x="1695.5" y="-22.8" font-family="Open Sans" font-size="14.00">digit symbol than 0&#45;9.</text>
</a>
</g>
</g>
<!-- NJF&#45;08&#45;&gt;NJF&#45;08.9 -->
<g id="edge11" class="edge">
<title>NJF&#45;08&#45;&gt;NJF&#45;08.9</title>
<path fill="none" stroke="black" d="M962.29,-232.65C1105.09,-204.59 1368.14,-149.29 1587.5,-83 1598.73,-79.61 1610.48,-75.64 1621.92,-71.55"/>
<polygon fill="black" stroke="black" points="1623.23,-74.8 1631.44,-68.09 1620.84,-68.22 1623.23,-74.8"/>
</g>
<!-- TA&#45;BEHAVIOURS -->
<g id="node13" class="node">
<title>TA&#45;BEHAVIOURS</title>
<g id="a_node13"><a xlink:href="https://score-json.github.io/nlohmann_json/main/_images/custom_TA-BEHAVIOURS_graph.svg" xlink:title="TA&#45;BEHAVIOURS: Expected\nor required behaviours\nfor nlohmann/json library\nare identified, specified,\nverified and validated\nbased on analysis. " target="_top">
<polygon fill="none" stroke="black" points="959.5,-916 755.5,-916 755.5,-818 959.5,-818 959.5,-916"/>
<text text-anchor="middle" x="857.5" y="-900.8" font-family="Open Sans" font-size="14.00">TA&#45;BEHAVIOURS: Expected</text>
<text text-anchor="middle" x="857.5" y="-885.8" font-family="Open Sans" font-size="14.00">or required behaviours</text>
<text text-anchor="middle" x="857.5" y="-870.8" font-family="Open Sans" font-size="14.00">for nlohmann/json library</text>
<text text-anchor="middle" x="857.5" y="-855.8" font-family="Open Sans" font-size="14.00">are identified, specified,</text>
<text text-anchor="middle" x="857.5" y="-840.8" font-family="Open Sans" font-size="14.00">verified and validated</text>
<text text-anchor="middle" x="857.5" y="-825.8" font-family="Open Sans" font-size="14.00">based on analysis. </text>
</a>
</g>
</g>
<!-- TA&#45;BEHAVIOURS&#45;&gt;JLEX&#45;01 -->
<g id="edge12" class="edge">
<title>TA&#45;BEHAVIOURS&#45;&gt;JLEX&#45;01</title>
<path fill="none" stroke="black" d="M857.5,-818C857.5,-777.58 857.5,-720.67 857.5,-684.18"/>
<polygon fill="black" stroke="black" points="861,-684.01 857.5,-674.01 854,-684.01 861,-684.01"/>
</g>
<!-- TT&#45;EXPECTATIONS&#45;&gt;TA&#45;BEHAVIOURS -->
<g id="edge13" class="edge">
<title>TT&#45;EXPECTATIONS&#45;&gt;TA&#45;BEHAVIOURS</title>
<path fill="none" stroke="black" d="M857.5,-1059.72C857.5,-1021.23 857.5,-967.2 857.5,-926.3"/>
<polygon fill="black" stroke="black" points="861,-926.2 857.5,-916.2 854,-926.2 861,-926.2"/>
</g>
<!-- WFJ&#45;03&#45;&gt;NJF&#45;08 -->
<g id="edge14" class="edge">
<title>WFJ&#45;03&#45;&gt;NJF&#45;08</title>
<path fill="none" stroke="black" d="M857.5,-423.61C857.5,-389.42 857.5,-329.06 857.5,-290.46"/>
<polygon fill="black" stroke="black" points="861,-290.19 857.5,-280.19 854,-290.19 861,-290.19"/>
</g>
</g>
</svg>
