<?xml version="1.0" encoding="UTF-8" standalone="no"?>
<!DOCTYPE svg PUBLIC "-//W3C//DTD SVG 1.1//EN"
 "http://www.w3.org/Graphics/SVG/1.1/DTD/svg11.dtd">
<!-- Generated by graphviz version 2.43.0 (0)
 -->
<!-- Title: G Pages: 1 -->
<svg width="324pt" height="1104pt"
 viewBox="0.00 0.00 324.00 1104.00" xmlns="http://www.w3.org/2000/svg" xmlns:xlink="http://www.w3.org/1999/xlink">
<g id="graph0" class="graph" transform="scale(1 1) rotate(0) translate(4 1100)">
<title>G</title>
<polygon fill="white" stroke="transparent" points="-4,4 -4,-1100 320,-1100 320,4 -4,4"/>
<!-- TRUSTABLE&#45;SOFTWARE -->
<g id="node1" class="node">
<title>TRUSTABLE&#45;SOFTWARE</title>
<g id="a_node1"><a xlink:href="https://score-json.github.io/nlohmann_json/main/_images/custom_TRUSTABLE-SOFTWARE_graph.svg" xlink:title="TRUSTABLE&#45;SOFTWARE: This\nrelease of JSON&#45;Library\nalso referred in the\ndocumentation as nlohmann/json\nlibrary is Trustable.\n" target="_top">
<polygon fill="none" stroke="black" points="249,-1096 1,-1096 1,-1013 249,-1013 249,-1096"/>
<text text-anchor="middle" x="125" y="-1080.8" font-family="Open Sans" font-size="14.00">TRUSTABLE&#45;SOFTWARE: This</text>
<text text-anchor="middle" x="125" y="-1065.8" font-family="Open Sans" font-size="14.00">release of JSON&#45;Library</text>
<text text-anchor="middle" x="125" y="-1050.8" font-family="Open Sans" font-size="14.00">also referred in the</text>
<text text-anchor="middle" x="125" y="-1035.8" font-family="Open Sans" font-size="14.00">documentation as nlohmann/json</text>
<text text-anchor="middle" x="125" y="-1020.8" font-family="Open Sans" font-size="14.00">library is Trustable.</text>
</a>
</g>
</g>
<!-- TT&#45;CONSTRUCTION -->
<g id="node5" class="node">
<title>TT&#45;CONSTRUCTION</title>
<g id="a_node5"><a xlink:href="https://score-json.github.io/nlohmann_json/main/_images/custom_TT-CONSTRUCTION_graph.svg" xlink:title="TT&#45;CONSTRUCTION: Tools\nare provided to build\nthe nlohmann/json library\nfrom trusted sources\n(also provided) with\nfull reproducibility.\n" target="_top">
<polygon fill="none" stroke="black" points="223,-869 27,-869 27,-771 223,-771 223,-869"/>
<text text-anchor="middle" x="125" y="-853.8" font-family="Open Sans" font-size="14.00">TT&#45;CONSTRUCTION: Tools</text>
<text text-anchor="middle" x="125" y="-838.8" font-family="Open Sans" font-size="14.00">are provided to build</text>
<text text-anchor="middle" x="125" y="-823.8" font-family="Open Sans" font-size="14.00">the nlohmann/json library</text>
<text text-anchor="middle" x="125" y="-808.8" font-family="Open Sans" font-size="14.00">from trusted sources</text>
<text text-anchor="middle" x="125" y="-793.8" font-family="Open Sans" font-size="14.00">(also provided) with</text>
<text text-anchor="middle" x="125" y="-778.8" font-family="Open Sans" font-size="14.00">full reproducibility.</text>
</a>
</g>
</g>
<!-- TRUSTABLE&#45;SOFTWARE&#45;&gt;TT&#45;CONSTRUCTION -->
<g id="edge1" class="edge">
<title>TRUSTABLE&#45;SOFTWARE&#45;&gt;TT&#45;CONSTRUCTION</title>
<path fill="none" stroke="black" d="M125,-1012.74C125,-975.88 125,-921.18 125,-879.63"/>
<polygon fill="black" stroke="black" points="128.5,-879.37 125,-869.37 121.5,-879.37 128.5,-879.37"/>
</g>
<!-- JLS&#45;14 -->
<g id="node2" class="node">
<title>JLS&#45;14</title>
<g id="a_node2"><a xlink:href="https://score-json.github.io/nlohmann_json/main/generated/JLS.html#jls-14" xlink:title="JLS&#45;14: The SHA value\nof the nlohmann/json\nlibrary in use within\neclipse&#45;score/inc_nlohmann_json\ncoincides with the SHA\nvalue provided by Niels\nLohmann for that version.\n" target="_top">
<polygon fill="none" stroke="black" points="246.5,-113 3.5,-113 3.5,0 246.5,0 246.5,-113"/>
<text text-anchor="middle" x="125" y="-97.8" font-family="Open Sans" font-size="14.00">JLS&#45;14: The SHA value</text>
<text text-anchor="middle" x="125" y="-82.8" font-family="Open Sans" font-size="14.00">of the nlohmann/json</text>
<text text-anchor="middle" x="125" y="-67.8" font-family="Open Sans" font-size="14.00">library in use within</text>
<text text-anchor="middle" x="125" y="-52.8" font-family="Open Sans" font-size="14.00">eclipse&#45;score/inc_nlohmann_json</text>
<text text-anchor="middle" x="125" y="-37.8" font-family="Open Sans" font-size="14.00">coincides with the SHA</text>
<text text-anchor="middle" x="125" y="-22.8" font-family="Open Sans" font-size="14.00">value provided by Niels</text>
<text text-anchor="middle" x="125" y="-7.8" font-family="Open Sans" font-size="14.00">Lohmann for that version.</text>
</a>
</g>
</g>
<!-- JLS&#45;53 -->
<g id="node3" class="node">
<title>JLS&#45;53</title>
<g id="a_node3"><a xlink:href="https://score-json.github.io/nlohmann_json/main/_images/custom_JLS-53_graph.svg" xlink:title="JLS&#45;53: Given the same\nversion of the repository,\nconfiguration, and documented\nenvironment, the build\nprocess shall produce\nidentical single&#45;include\nheader files. " target="_top">
<polygon fill="none" stroke="black" points="316,-370 80,-370 80,-257 316,-257 316,-370"/>
<text text-anchor="middle" x="198" y="-354.8" font-family="Open Sans" font-size="14.00">JLS&#45;53: Given the same</text>
<text text-anchor="middle" x="198" y="-339.8" font-family="Open Sans" font-size="14.00">version of the repository,</text>
<text text-anchor="middle" x="198" y="-324.8" font-family="Open Sans" font-size="14.00">configuration, and documented</text>
<text text-anchor="middle" x="198" y="-309.8" font-family="Open Sans" font-size="14.00">environment, the build</text>
<text text-anchor="middle" x="198" y="-294.8" font-family="Open Sans" font-size="14.00">process shall produce</text>
<text text-anchor="middle" x="198" y="-279.8" font-family="Open Sans" font-size="14.00">identical single&#45;include</text>
<text text-anchor="middle" x="198" y="-264.8" font-family="Open Sans" font-size="14.00">header files. </text>
</a>
</g>
</g>
<!-- JLS&#45;53&#45;&gt;JLS&#45;14 -->
<g id="edge2" class="edge">
<title>JLS&#45;53&#45;&gt;JLS&#45;14</title>
<path fill="none" stroke="black" d="M182.07,-256.85C170.77,-217.37 155.56,-164.25 143.68,-122.77"/>
<polygon fill="black" stroke="black" points="147.01,-121.68 140.9,-113.03 140.28,-123.6 147.01,-121.68"/>
</g>
<!-- TA&#45;RELEASES -->
<g id="node4" class="node">
<title>TA&#45;RELEASES</title>
<g id="a_node4"><a xlink:href="https://score-json.github.io/nlohmann_json/main/_images/custom_TA-RELEASES_graph.svg" xlink:title="TA&#45;RELEASES: Construction\nof releases for the nlohmann/json\nlibrary is fully repeatable\nand the results are fully\nreproducible, with any\nexceptions documented\nand justified. " target="_top">
<polygon fill="none" stroke="black" points="250,-627 0,-627 0,-514 250,-514 250,-627"/>
<text text-anchor="middle" x="125" y="-611.8" font-family="Open Sans" font-size="14.00">TA&#45;RELEASES: Construction</text>
<text text-anchor="middle" x="125" y="-596.8" font-family="Open Sans" font-size="14.00">of releases for the nlohmann/json</text>
<text text-anchor="middle" x="125" y="-581.8" font-family="Open Sans" font-size="14.00">library is fully repeatable</text>
<text text-anchor="middle" x="125" y="-566.8" font-family="Open Sans" font-size="14.00">and the results are fully</text>
<text text-anchor="middle" x="125" y="-551.8" font-family="Open Sans" font-size="14.00">reproducible, with any</text>
<text text-anchor="middle" x="125" y="-536.8" font-family="Open Sans" font-size="14.00">exceptions documented</text>
<text text-anchor="middle" x="125" y="-521.8" font-family="Open Sans" font-size="14.00">and justified. </text>
</a>
</g>
</g>
<!-- TA&#45;RELEASES&#45;&gt;JLS&#45;14 -->
<g id="edge3" class="edge">
<title>TA&#45;RELEASES&#45;&gt;JLS&#45;14</title>
<path fill="none" stroke="black" d="M105.73,-513.98C93.04,-474.4 77.6,-419.62 71,-370 64.38,-320.22 64.38,-306.78 71,-257 77.08,-211.26 90.68,-161.13 102.71,-122.56"/>
<polygon fill="black" stroke="black" points="106.05,-123.61 105.73,-113.02 99.37,-121.5 106.05,-123.61"/>
</g>
<!-- TA&#45;RELEASES&#45;&gt;JLS&#45;53 -->
<g id="edge4" class="edge">
<title>TA&#45;RELEASES&#45;&gt;JLS&#45;53</title>
<path fill="none" stroke="black" d="M140.93,-513.85C152.23,-474.37 167.44,-421.25 179.32,-379.77"/>
<polygon fill="black" stroke="black" points="182.72,-380.6 182.1,-370.03 175.99,-378.68 182.72,-380.6"/>
</g>
<!-- TT&#45;CONSTRUCTION&#45;&gt;TA&#45;RELEASES -->
<g id="edge5" class="edge">
<title>TT&#45;CONSTRUCTION&#45;&gt;TA&#45;RELEASES</title>
<path fill="none" stroke="black" d="M125,-770.99C125,-732.93 125,-679.36 125,-637.31"/>
<polygon fill="black" stroke="black" points="128.5,-637.16 125,-627.16 121.5,-637.16 128.5,-637.16"/>
</g>
</g>
</svg>
