<?xml version="1.0" encoding="UTF-8" standalone="no"?>
<!DOCTYPE svg PUBLIC "-//W3C//DTD SVG 1.1//EN"
 "http://www.w3.org/Graphics/SVG/1.1/DTD/svg11.dtd">
<!-- Generated by graphviz version 2.43.0 (0)
 -->
<!-- Title: G Pages: 1 -->
<svg width="1671pt" height="832pt"
 viewBox="0.00 0.00 1670.50 832.00" xmlns="http://www.w3.org/2000/svg" xmlns:xlink="http://www.w3.org/1999/xlink">
<g id="graph0" class="graph" transform="scale(1 1) rotate(0) translate(4 828)">
<title>G</title>
<polygon fill="white" stroke="transparent" points="-4,4 -4,-828 1666.5,-828 1666.5,4 -4,4"/>
<!-- TRUSTABLE&#45;SOFTWARE -->
<g id="node1" class="node">
<title>TRUSTABLE&#45;SOFTWARE</title>
<g id="a_node1"><a xlink:href="https://score-json.github.io/nlohmann_json/main/_images/custom_TRUSTABLE-SOFTWARE_graph.svg" xlink:title="TRUSTABLE&#45;SOFTWARE: This\nrelease of JSON&#45;Library\nalso referred in the\ndocumentation as nlohmann/json\nlibrary is Trustable.\n" target="_top">
<polygon fill="none" stroke="black" points="822,-824 574,-824 574,-741 822,-741 822,-824"/>
<text text-anchor="middle" x="698" y="-808.8" font-family="Open Sans" font-size="14.00">TRUSTABLE&#45;SOFTWARE: This</text>
<text text-anchor="middle" x="698" y="-793.8" font-family="Open Sans" font-size="14.00">release of JSON&#45;Library</text>
<text text-anchor="middle" x="698" y="-778.8" font-family="Open Sans" font-size="14.00">also referred in the</text>
<text text-anchor="middle" x="698" y="-763.8" font-family="Open Sans" font-size="14.00">documentation as nlohmann/json</text>
<text text-anchor="middle" x="698" y="-748.8" font-family="Open Sans" font-size="14.00">library is Trustable.</text>
</a>
</g>
</g>
<!-- TT&#45;PROVENANCE -->
<g id="node9" class="node">
<title>TT&#45;PROVENANCE</title>
<g id="a_node9"><a xlink:href="https://score-json.github.io/nlohmann_json/main/_images/custom_TT-PROVENANCE_graph.svg" xlink:title="TT&#45;PROVENANCE: All inputs\n(and attestations for\nclaims) for the nlohmann/json\nlibrary are provided\nwith known provenance.\n" target="_top">
<polygon fill="none" stroke="black" points="810,-597 586,-597 586,-514 810,-514 810,-597"/>
<text text-anchor="middle" x="698" y="-581.8" font-family="Open Sans" font-size="14.00">TT&#45;PROVENANCE: All inputs</text>
<text text-anchor="middle" x="698" y="-566.8" font-family="Open Sans" font-size="14.00">(and attestations for</text>
<text text-anchor="middle" x="698" y="-551.8" font-family="Open Sans" font-size="14.00">claims) for the nlohmann/json</text>
<text text-anchor="middle" x="698" y="-536.8" font-family="Open Sans" font-size="14.00">library are provided</text>
<text text-anchor="middle" x="698" y="-521.8" font-family="Open Sans" font-size="14.00">with known provenance.</text>
</a>
</g>
</g>
<!-- TRUSTABLE&#45;SOFTWARE&#45;&gt;TT&#45;PROVENANCE -->
<g id="edge1" class="edge">
<title>TRUSTABLE&#45;SOFTWARE&#45;&gt;TT&#45;PROVENANCE</title>
<path fill="none" stroke="black" d="M698,-740.75C698,-703.36 698,-647.81 698,-607.48"/>
<polygon fill="black" stroke="black" points="701.5,-607.32 698,-597.32 694.5,-607.32 701.5,-607.32"/>
</g>
<!-- JLS&#45;04 -->
<g id="node2" class="node">
<title>JLS&#45;04</title>
<g id="a_node2"><a xlink:href="https://score-json.github.io/nlohmann_json/main/generated/JLS.html#jls-04" xlink:title="JLS&#45;04: External dependencies\nwithin nlohmann/json\nare checked for potential\nsecurity vulnerabilities\nwith each pull request\nto main. Merging is blocked\nuntil all warnings are\nresolved. " target="_top">
<polygon fill="none" stroke="black" points="228,-135.5 0,-135.5 0,-7.5 228,-7.5 228,-135.5"/>
<text text-anchor="middle" x="114" y="-120.3" font-family="Open Sans" font-size="14.00">JLS&#45;04: External dependencies</text>
<text text-anchor="middle" x="114" y="-105.3" font-family="Open Sans" font-size="14.00">within nlohmann/json</text>
<text text-anchor="middle" x="114" y="-90.3" font-family="Open Sans" font-size="14.00">are checked for potential</text>
<text text-anchor="middle" x="114" y="-75.3" font-family="Open Sans" font-size="14.00">security vulnerabilities</text>
<text text-anchor="middle" x="114" y="-60.3" font-family="Open Sans" font-size="14.00">with each pull request</text>
<text text-anchor="middle" x="114" y="-45.3" font-family="Open Sans" font-size="14.00">to main. Merging is blocked</text>
<text text-anchor="middle" x="114" y="-30.3" font-family="Open Sans" font-size="14.00">until all warnings are</text>
<text text-anchor="middle" x="114" y="-15.3" font-family="Open Sans" font-size="14.00">resolved. </text>
</a>
</g>
</g>
<!-- JLS&#45;34 -->
<g id="node3" class="node">
<title>JLS&#45;34</title>
<g id="a_node3"><a xlink:href="https://score-json.github.io/nlohmann_json/main/generated/JLS.html#jls-34" xlink:title="JLS&#45;34: The nlohmann/json\nlibrary has no external\ncomponents or dependencies\nbesides the C++ standard\ncomponents. " target="_top">
<polygon fill="none" stroke="black" points="468,-113 246,-113 246,-30 468,-30 468,-113"/>
<text text-anchor="middle" x="357" y="-97.8" font-family="Open Sans" font-size="14.00">JLS&#45;34: The nlohmann/json</text>
<text text-anchor="middle" x="357" y="-82.8" font-family="Open Sans" font-size="14.00">library has no external</text>
<text text-anchor="middle" x="357" y="-67.8" font-family="Open Sans" font-size="14.00">components or dependencies</text>
<text text-anchor="middle" x="357" y="-52.8" font-family="Open Sans" font-size="14.00">besides the C++ standard</text>
<text text-anchor="middle" x="357" y="-37.8" font-family="Open Sans" font-size="14.00">components. </text>
</a>
</g>
</g>
<!-- JLS&#45;47 -->
<g id="node4" class="node">
<title>JLS&#45;47</title>
<g id="a_node4"><a xlink:href="https://score-json.github.io/nlohmann_json/main/generated/JLS.html#jls-47" xlink:title="JLS&#45;47: The nlohmann/json\nlibrary only consists\nof source code in the\nform of a single header\nfile, and has no binary\nartifacts. " target="_top">
<polygon fill="none" stroke="black" points="689.5,-120.5 486.5,-120.5 486.5,-22.5 689.5,-22.5 689.5,-120.5"/>
<text text-anchor="middle" x="588" y="-105.3" font-family="Open Sans" font-size="14.00">JLS&#45;47: The nlohmann/json</text>
<text text-anchor="middle" x="588" y="-90.3" font-family="Open Sans" font-size="14.00">library only consists</text>
<text text-anchor="middle" x="588" y="-75.3" font-family="Open Sans" font-size="14.00">of source code in the</text>
<text text-anchor="middle" x="588" y="-60.3" font-family="Open Sans" font-size="14.00">form of a single header</text>
<text text-anchor="middle" x="588" y="-45.3" font-family="Open Sans" font-size="14.00">file, and has no binary</text>
<text text-anchor="middle" x="588" y="-30.3" font-family="Open Sans" font-size="14.00">artifacts. </text>
</a>
</g>
</g>
<!-- JLS&#45;48 -->
<g id="node5" class="node">
<title>JLS&#45;48</title>
<g id="a_node5"><a xlink:href="https://score-json.github.io/nlohmann_json/main/generated/JLS.html#jls-48" xlink:title="JLS&#45;48: The nlohmann/json\nproject transparently\nlists any third party\ntools used in building,\ntesting and documenting\nthe project. " target="_top">
<polygon fill="none" stroke="black" points="910.5,-120.5 707.5,-120.5 707.5,-22.5 910.5,-22.5 910.5,-120.5"/>
<text text-anchor="middle" x="809" y="-105.3" font-family="Open Sans" font-size="14.00">JLS&#45;48: The nlohmann/json</text>
<text text-anchor="middle" x="809" y="-90.3" font-family="Open Sans" font-size="14.00">project transparently</text>
<text text-anchor="middle" x="809" y="-75.3" font-family="Open Sans" font-size="14.00">lists any third party</text>
<text text-anchor="middle" x="809" y="-60.3" font-family="Open Sans" font-size="14.00">tools used in building,</text>
<text text-anchor="middle" x="809" y="-45.3" font-family="Open Sans" font-size="14.00">testing and documenting</text>
<text text-anchor="middle" x="809" y="-30.3" font-family="Open Sans" font-size="14.00">the project. </text>
</a>
</g>
</g>
<!-- JLS&#45;49 -->
<g id="node6" class="node">
<title>JLS&#45;49</title>
<g id="a_node6"><a xlink:href="https://score-json.github.io/nlohmann_json/main/generated/JLS.html#jls-49" xlink:title="JLS&#45;49: The eclipse&#45;score/inc_nlohmann_json\nproject mirrors the external\nnlohmann/json_test_data\nrepository, containing\ntest data used by the\nunit tests in nlohmann/json,\nsuch that the test suite\ncan be executed without\ninternet connectivity.\n" target="_top">
<polygon fill="none" stroke="black" points="1255,-143 929,-143 929,0 1255,0 1255,-143"/>
<text text-anchor="middle" x="1092" y="-127.8" font-family="Open Sans" font-size="14.00">JLS&#45;49: The eclipse&#45;score/inc_nlohmann_json</text>
<text text-anchor="middle" x="1092" y="-112.8" font-family="Open Sans" font-size="14.00">project mirrors the external</text>
<text text-anchor="middle" x="1092" y="-97.8" font-family="Open Sans" font-size="14.00">nlohmann/json_test_data</text>
<text text-anchor="middle" x="1092" y="-82.8" font-family="Open Sans" font-size="14.00">repository, containing</text>
<text text-anchor="middle" x="1092" y="-67.8" font-family="Open Sans" font-size="14.00">test data used by the</text>
<text text-anchor="middle" x="1092" y="-52.8" font-family="Open Sans" font-size="14.00">unit tests in nlohmann/json,</text>
<text text-anchor="middle" x="1092" y="-37.8" font-family="Open Sans" font-size="14.00">such that the test suite</text>
<text text-anchor="middle" x="1092" y="-22.8" font-family="Open Sans" font-size="14.00">can be executed without</text>
<text text-anchor="middle" x="1092" y="-7.8" font-family="Open Sans" font-size="14.00">internet connectivity.</text>
</a>
</g>
</g>
<!-- JLS&#45;50 -->
<g id="node7" class="node">
<title>JLS&#45;50</title>
<g id="a_node7"><a xlink:href="https://score-json.github.io/nlohmann_json/main/generated/JLS.html#jls-50" xlink:title="JLS&#45;50: All third party\ntools used in nlohmann/json\nfor building, testing\nand documenting the project\nare assessed within eclipse&#45;score/inc_nlohmann_json.\n" target="_top">
<polygon fill="none" stroke="black" points="1662.5,-113 1273.5,-113 1273.5,-30 1662.5,-30 1662.5,-113"/>
<text text-anchor="middle" x="1468" y="-97.8" font-family="Open Sans" font-size="14.00">JLS&#45;50: All third party</text>
<text text-anchor="middle" x="1468" y="-82.8" font-family="Open Sans" font-size="14.00">tools used in nlohmann/json</text>
<text text-anchor="middle" x="1468" y="-67.8" font-family="Open Sans" font-size="14.00">for building, testing</text>
<text text-anchor="middle" x="1468" y="-52.8" font-family="Open Sans" font-size="14.00">and documenting the project</text>
<text text-anchor="middle" x="1468" y="-37.8" font-family="Open Sans" font-size="14.00">are assessed within eclipse&#45;score/inc_nlohmann_json.</text>
</a>
</g>
</g>
<!-- TA&#45;INPUTS -->
<g id="node8" class="node">
<title>TA&#45;INPUTS</title>
<g id="a_node8"><a xlink:href="https://score-json.github.io/nlohmann_json/main/_images/custom_TA-INPUTS_graph.svg" xlink:title="TA&#45;INPUTS: All inputs\nto the nlohmann/json\nlibrary are assessed,\nto identify potential\nrisks and issues. " target="_top">
<polygon fill="none" stroke="black" points="780,-370 616,-370 616,-287 780,-287 780,-370"/>
<text text-anchor="middle" x="698" y="-354.8" font-family="Open Sans" font-size="14.00">TA&#45;INPUTS: All inputs</text>
<text text-anchor="middle" x="698" y="-339.8" font-family="Open Sans" font-size="14.00">to the nlohmann/json</text>
<text text-anchor="middle" x="698" y="-324.8" font-family="Open Sans" font-size="14.00">library are assessed,</text>
<text text-anchor="middle" x="698" y="-309.8" font-family="Open Sans" font-size="14.00">to identify potential</text>
<text text-anchor="middle" x="698" y="-294.8" font-family="Open Sans" font-size="14.00">risks and issues. </text>
</a>
</g>
</g>
<!-- TA&#45;INPUTS&#45;&gt;JLS&#45;04 -->
<g id="edge2" class="edge">
<title>TA&#45;INPUTS&#45;&gt;JLS&#45;04</title>
<path fill="none" stroke="black" d="M615.74,-298.54C522.35,-264.75 366.21,-205.51 237,-143 235.17,-142.12 233.33,-141.22 231.49,-140.3"/>
<polygon fill="black" stroke="black" points="232.72,-137 222.21,-135.62 229.56,-143.25 232.72,-137"/>
</g>
<!-- TA&#45;INPUTS&#45;&gt;JLS&#45;34 -->
<g id="edge4" class="edge">
<title>TA&#45;INPUTS&#45;&gt;JLS&#45;34</title>
<path fill="none" stroke="black" d="M643.59,-286.81C582.46,-241.1 483.42,-167.03 419.25,-119.05"/>
<polygon fill="black" stroke="black" points="421.32,-116.23 411.22,-113.04 417.13,-121.83 421.32,-116.23"/>
</g>
<!-- TA&#45;INPUTS&#45;&gt;JLS&#45;47 -->
<g id="edge3" class="edge">
<title>TA&#45;INPUTS&#45;&gt;JLS&#45;47</title>
<path fill="none" stroke="black" d="M680.45,-286.81C662.19,-244.5 633.46,-177.89 612.87,-130.16"/>
<polygon fill="black" stroke="black" points="616.04,-128.67 608.87,-120.88 609.62,-131.45 616.04,-128.67"/>
</g>
<!-- TA&#45;INPUTS&#45;&gt;JLS&#45;48 -->
<g id="edge5" class="edge">
<title>TA&#45;INPUTS&#45;&gt;JLS&#45;48</title>
<path fill="none" stroke="black" d="M715.71,-286.81C734.13,-244.5 763.13,-177.89 783.9,-130.16"/>
<polygon fill="black" stroke="black" points="787.16,-131.44 787.94,-120.88 780.74,-128.65 787.16,-131.44"/>
</g>
<!-- TA&#45;INPUTS&#45;&gt;JLS&#45;49 -->
<g id="edge6" class="edge">
<title>TA&#45;INPUTS&#45;&gt;JLS&#45;49</title>
<path fill="none" stroke="black" d="M760.87,-286.81C818.17,-249.72 904.32,-193.97 974.38,-148.62"/>
<polygon fill="black" stroke="black" points="976.35,-151.52 982.85,-143.15 972.55,-145.64 976.35,-151.52"/>
</g>
<!-- TA&#45;INPUTS&#45;&gt;JLS&#45;50 -->
<g id="edge7" class="edge">
<title>TA&#45;INPUTS&#45;&gt;JLS&#45;50</title>
<path fill="none" stroke="black" d="M780.17,-301.22C890.43,-265.83 1092.29,-200.65 1264,-143 1289.39,-134.48 1316.5,-125.22 1342.4,-116.3"/>
<polygon fill="black" stroke="black" points="1343.57,-119.6 1351.88,-113.03 1341.28,-112.98 1343.57,-119.6"/>
</g>
<!-- TT&#45;PROVENANCE&#45;&gt;TA&#45;INPUTS -->
<g id="edge8" class="edge">
<title>TT&#45;PROVENANCE&#45;&gt;TA&#45;INPUTS</title>
<path fill="none" stroke="black" d="M698,-513.75C698,-476.36 698,-420.81 698,-380.48"/>
<polygon fill="black" stroke="black" points="701.5,-380.32 698,-370.32 694.5,-380.32 701.5,-380.32"/>
</g>
</g>
</svg>
