<?xml version="1.0" encoding="UTF-8" standalone="no"?>
<!DOCTYPE svg PUBLIC "-//W3C//DTD SVG 1.1//EN"
 "http://www.w3.org/Graphics/SVG/1.1/DTD/svg11.dtd">
<!-- Generated by graphviz version 2.43.0 (0)
 -->
<!-- Title: G Pages: 1 -->
<svg width="1150pt" height="1453pt"
 viewBox="0.00 0.00 1150.00 1453.00" xmlns="http://www.w3.org/2000/svg" xmlns:xlink="http://www.w3.org/1999/xlink">
<g id="graph0" class="graph" transform="scale(1 1) rotate(0) translate(4 1449)">
<title>G</title>
<polygon fill="white" stroke="transparent" points="-4,4 -4,-1449 1146,-1449 1146,4 -4,4"/>
<!-- TRUSTABLE&#45;SOFTWARE -->
<g id="node1" class="node">
<title>TRUSTABLE&#45;SOFTWARE</title>
<g id="a_node1"><a xlink:href="https://score-json.github.io/nlohmann_json/main/_images/custom_TRUSTABLE-SOFTWARE_graph.svg" xlink:title="TRUSTABLE&#45;SOFTWARE: This\nrelease of JSON&#45;Library\nalso referred in the\ndocumentation as nlohmann/json\nlibrary is Trustable.\n" target="_top">
<polygon fill="none" stroke="black" points="695,-1445 447,-1445 447,-1362 695,-1362 695,-1445"/>
<text text-anchor="middle" x="571" y="-1429.8" font-family="Open Sans" font-size="14.00">TRUSTABLE&#45;SOFTWARE: This</text>
<text text-anchor="middle" x="571" y="-1414.8" font-family="Open Sans" font-size="14.00">release of JSON&#45;Library</text>
<text text-anchor="middle" x="571" y="-1399.8" font-family="Open Sans" font-size="14.00">also referred in the</text>
<text text-anchor="middle" x="571" y="-1384.8" font-family="Open Sans" font-size="14.00">documentation as nlohmann/json</text>
<text text-anchor="middle" x="571" y="-1369.8" font-family="Open Sans" font-size="14.00">library is Trustable.</text>
</a>
</g>
</g>
<!-- TT&#45;EXPECTATIONS -->
<g id="node9" class="node">
<title>TT&#45;EXPECTATIONS</title>
<g id="a_node9"><a xlink:href="https://score-json.github.io/nlohmann_json/main/_images/custom_TT-EXPECTATIONS_graph.svg" xlink:title="TT&#45;EXPECTATIONS: Documentation\nis provided within eclipse&#45;score/inc_nlohmann_json,\nspecifying what the nlohmann/json\nlibrary is expected to\ndo, and what it must\nnot do, and how this\nis verified. " target="_top">
<polygon fill="none" stroke="black" points="758.5,-1218 383.5,-1218 383.5,-1105 758.5,-1105 758.5,-1218"/>
<text text-anchor="middle" x="571" y="-1202.8" font-family="Open Sans" font-size="14.00">TT&#45;EXPECTATIONS: Documentation</text>
<text text-anchor="middle" x="571" y="-1187.8" font-family="Open Sans" font-size="14.00">is provided within eclipse&#45;score/inc_nlohmann_json,</text>
<text text-anchor="middle" x="571" y="-1172.8" font-family="Open Sans" font-size="14.00">specifying what the nlohmann/json</text>
<text text-anchor="middle" x="571" y="-1157.8" font-family="Open Sans" font-size="14.00">library is expected to</text>
<text text-anchor="middle" x="571" y="-1142.8" font-family="Open Sans" font-size="14.00">do, and what it must</text>
<text text-anchor="middle" x="571" y="-1127.8" font-family="Open Sans" font-size="14.00">not do, and how this</text>
<text text-anchor="middle" x="571" y="-1112.8" font-family="Open Sans" font-size="14.00">is verified. </text>
</a>
</g>
</g>
<!-- TRUSTABLE&#45;SOFTWARE&#45;&gt;TT&#45;EXPECTATIONS -->
<g id="edge1" class="edge">
<title>TRUSTABLE&#45;SOFTWARE&#45;&gt;TT&#45;EXPECTATIONS</title>
<path fill="none" stroke="black" d="M571,-1361.79C571,-1325.26 571,-1271 571,-1228.32"/>
<polygon fill="black" stroke="black" points="574.5,-1228.29 571,-1218.29 567.5,-1228.29 574.5,-1228.29"/>
</g>
<!-- JLEX&#45;02 -->
<g id="node2" class="node">
<title>JLEX&#45;02</title>
<g id="a_node2"><a xlink:href="https://score-json.github.io/nlohmann_json/main/_images/custom_JLEX-02_graph.svg" xlink:title="JLEX&#45;02: The requirement\nregarding [JSON Deserialization](https://eclipse&#45;score.github.io/score/main/modules/baselibs/json/docs/requirements/index.html#comp_req__json__deserialization)\nis fulfilled. " target="_top">
<polygon fill="none" stroke="black" points="1142,-719 0,-719 0,-666 1142,-666 1142,-719"/>
<text text-anchor="middle" x="571" y="-703.8" font-family="Open Sans" font-size="14.00">JLEX&#45;02: The requirement</text>
<text text-anchor="middle" x="571" y="-688.8" font-family="Open Sans" font-size="14.00">regarding [JSON Deserialization](https://eclipse&#45;score.github.io/score/main/modules/baselibs/json/docs/requirements/index.html#comp_req__json__deserialization)</text>
<text text-anchor="middle" x="571" y="-673.8" font-family="Open Sans" font-size="14.00">is fulfilled. </text>
</a>
</g>
</g>
<!-- PJD&#45;03 -->
<g id="node7" class="node">
<title>PJD&#45;03</title>
<g id="a_node7"><a xlink:href="https://score-json.github.io/nlohmann_json/main/_images/custom_PJD-03_graph.svg" xlink:title="PJD&#45;03: The service provided\nby the nlohmann/json\nlibrary parses all texts\nthat conform to the JSON\ngrammar. " target="_top">
<polygon fill="none" stroke="black" points="679.5,-522 462.5,-522 462.5,-439 679.5,-439 679.5,-522"/>
<text text-anchor="middle" x="571" y="-506.8" font-family="Open Sans" font-size="14.00">PJD&#45;03: The service provided</text>
<text text-anchor="middle" x="571" y="-491.8" font-family="Open Sans" font-size="14.00">by the nlohmann/json</text>
<text text-anchor="middle" x="571" y="-476.8" font-family="Open Sans" font-size="14.00">library parses all texts</text>
<text text-anchor="middle" x="571" y="-461.8" font-family="Open Sans" font-size="14.00">that conform to the JSON</text>
<text text-anchor="middle" x="571" y="-446.8" font-family="Open Sans" font-size="14.00">grammar. </text>
</a>
</g>
</g>
<!-- JLEX&#45;02&#45;&gt;PJD&#45;03 -->
<g id="edge2" class="edge">
<title>JLEX&#45;02&#45;&gt;PJD&#45;03</title>
<path fill="none" stroke="black" d="M571,-665.75C571,-632.66 571,-574.48 571,-532.33"/>
<polygon fill="black" stroke="black" points="574.5,-532.25 571,-522.25 567.5,-532.25 574.5,-532.25"/>
</g>
<!-- NPF&#45;05 -->
<g id="node3" class="node">
<title>NPF&#45;05</title>
<g id="a_node3"><a xlink:href="https://score-json.github.io/nlohmann_json/main/_images/custom_NPF-05_graph.svg" xlink:title="NPF&#45;05: The service provided\nby the nlohmann/json\nlibrary parses arrays\naccording to RFC8259.\n" target="_top">
<polygon fill="none" stroke="black" points="681.5,-295 460.5,-295 460.5,-227 681.5,-227 681.5,-295"/>
<text text-anchor="middle" x="571" y="-279.8" font-family="Open Sans" font-size="14.00">NPF&#45;05: The service provided</text>
<text text-anchor="middle" x="571" y="-264.8" font-family="Open Sans" font-size="14.00">by the nlohmann/json</text>
<text text-anchor="middle" x="571" y="-249.8" font-family="Open Sans" font-size="14.00">library parses arrays</text>
<text text-anchor="middle" x="571" y="-234.8" font-family="Open Sans" font-size="14.00">according to RFC8259.</text>
</a>
</g>
</g>
<!-- NPF&#45;05.1 -->
<g id="node4" class="node">
<title>NPF&#45;05.1</title>
<g id="a_node4"><a xlink:href="https://score-json.github.io/nlohmann_json/main/generated/NPF.html#npf-05.1" xlink:title="NPF&#45;05.1: The service\nprovided by the nlohmann/json\nlibrary ignores leading\nand trailing whitespace\nfor each value. " target="_top">
<polygon fill="none" stroke="black" points="436.5,-83 203.5,-83 203.5,0 436.5,0 436.5,-83"/>
<text text-anchor="middle" x="320" y="-67.8" font-family="Open Sans" font-size="14.00">NPF&#45;05.1: The service</text>
<text text-anchor="middle" x="320" y="-52.8" font-family="Open Sans" font-size="14.00">provided by the nlohmann/json</text>
<text text-anchor="middle" x="320" y="-37.8" font-family="Open Sans" font-size="14.00">library ignores leading</text>
<text text-anchor="middle" x="320" y="-22.8" font-family="Open Sans" font-size="14.00">and trailing whitespace</text>
<text text-anchor="middle" x="320" y="-7.8" font-family="Open Sans" font-size="14.00">for each value. </text>
</a>
</g>
</g>
<!-- NPF&#45;05&#45;&gt;NPF&#45;05.1 -->
<g id="edge3" class="edge">
<title>NPF&#45;05&#45;&gt;NPF&#45;05.1</title>
<path fill="none" stroke="black" d="M532.88,-226.97C490.79,-190.49 422.67,-131.46 374.84,-90.02"/>
<polygon fill="black" stroke="black" points="376.9,-87.18 367.05,-83.27 372.32,-92.47 376.9,-87.18"/>
</g>
<!-- NPF&#45;05.2 -->
<g id="node5" class="node">
<title>NPF&#45;05.2</title>
<g id="a_node5"><a xlink:href="https://score-json.github.io/nlohmann_json/main/generated/NPF.html#npf-05.2" xlink:title="NPF&#45;05.2: The service\nprovided by the nlohmann/json\nlibrary parses empty\narrays. " target="_top">
<polygon fill="none" stroke="black" points="687.5,-75.5 454.5,-75.5 454.5,-7.5 687.5,-7.5 687.5,-75.5"/>
<text text-anchor="middle" x="571" y="-60.3" font-family="Open Sans" font-size="14.00">NPF&#45;05.2: The service</text>
<text text-anchor="middle" x="571" y="-45.3" font-family="Open Sans" font-size="14.00">provided by the nlohmann/json</text>
<text text-anchor="middle" x="571" y="-30.3" font-family="Open Sans" font-size="14.00">library parses empty</text>
<text text-anchor="middle" x="571" y="-15.3" font-family="Open Sans" font-size="14.00">arrays. </text>
</a>
</g>
</g>
<!-- NPF&#45;05&#45;&gt;NPF&#45;05.2 -->
<g id="edge4" class="edge">
<title>NPF&#45;05&#45;&gt;NPF&#45;05.2</title>
<path fill="none" stroke="black" d="M571,-226.97C571,-189.28 571,-127.51 571,-85.95"/>
<polygon fill="black" stroke="black" points="574.5,-85.84 571,-75.84 567.5,-85.84 574.5,-85.84"/>
</g>
<!-- NPF&#45;05.3 -->
<g id="node6" class="node">
<title>NPF&#45;05.3</title>
<g id="a_node6"><a xlink:href="https://score-json.github.io/nlohmann_json/main/generated/NPF.html#npf-05.3" xlink:title="NPF&#45;05.3: The service\nprovided by the nlohmann/json\nlibrary parses non&#45;empty\narrays. " target="_top">
<polygon fill="none" stroke="black" points="938.5,-75.5 705.5,-75.5 705.5,-7.5 938.5,-7.5 938.5,-75.5"/>
<text text-anchor="middle" x="822" y="-60.3" font-family="Open Sans" font-size="14.00">NPF&#45;05.3: The service</text>
<text text-anchor="middle" x="822" y="-45.3" font-family="Open Sans" font-size="14.00">provided by the nlohmann/json</text>
<text text-anchor="middle" x="822" y="-30.3" font-family="Open Sans" font-size="14.00">library parses non&#45;empty</text>
<text text-anchor="middle" x="822" y="-15.3" font-family="Open Sans" font-size="14.00">arrays. </text>
</a>
</g>
</g>
<!-- NPF&#45;05&#45;&gt;NPF&#45;05.3 -->
<g id="edge5" class="edge">
<title>NPF&#45;05&#45;&gt;NPF&#45;05.3</title>
<path fill="none" stroke="black" d="M609.12,-226.97C653.81,-188.24 727.84,-124.09 775.77,-82.56"/>
<polygon fill="black" stroke="black" points="778.25,-85.04 783.52,-75.84 773.67,-79.75 778.25,-85.04"/>
</g>
<!-- PJD&#45;03&#45;&gt;NPF&#45;05 -->
<g id="edge6" class="edge">
<title>PJD&#45;03&#45;&gt;NPF&#45;05</title>
<path fill="none" stroke="black" d="M571,-438.85C571,-400.97 571,-344.66 571,-305.8"/>
<polygon fill="black" stroke="black" points="574.5,-305.33 571,-295.33 567.5,-305.33 574.5,-305.33"/>
</g>
<!-- TA&#45;BEHAVIOURS -->
<g id="node8" class="node">
<title>TA&#45;BEHAVIOURS</title>
<g id="a_node8"><a xlink:href="https://score-json.github.io/nlohmann_json/main/_images/custom_TA-BEHAVIOURS_graph.svg" xlink:title="TA&#45;BEHAVIOURS: Expected\nor required behaviours\nfor the nlohmann/json\nlibrary are identified,\nspecified, verified and\nvalidated based on analysis.\n" target="_top">
<polygon fill="none" stroke="black" points="678,-961 464,-961 464,-863 678,-863 678,-961"/>
<text text-anchor="middle" x="571" y="-945.8" font-family="Open Sans" font-size="14.00">TA&#45;BEHAVIOURS: Expected</text>
<text text-anchor="middle" x="571" y="-930.8" font-family="Open Sans" font-size="14.00">or required behaviours</text>
<text text-anchor="middle" x="571" y="-915.8" font-family="Open Sans" font-size="14.00">for the nlohmann/json</text>
<text text-anchor="middle" x="571" y="-900.8" font-family="Open Sans" font-size="14.00">library are identified,</text>
<text text-anchor="middle" x="571" y="-885.8" font-family="Open Sans" font-size="14.00">specified, verified and</text>
<text text-anchor="middle" x="571" y="-870.8" font-family="Open Sans" font-size="14.00">validated based on analysis.</text>
</a>
</g>
</g>
<!-- TA&#45;BEHAVIOURS&#45;&gt;JLEX&#45;02 -->
<g id="edge7" class="edge">
<title>TA&#45;BEHAVIOURS&#45;&gt;JLEX&#45;02</title>
<path fill="none" stroke="black" d="M571,-863C571,-822.58 571,-765.67 571,-729.18"/>
<polygon fill="black" stroke="black" points="574.5,-729.01 571,-719.01 567.5,-729.01 574.5,-729.01"/>
</g>
<!-- TT&#45;EXPECTATIONS&#45;&gt;TA&#45;BEHAVIOURS -->
<g id="edge8" class="edge">
<title>TT&#45;EXPECTATIONS&#45;&gt;TA&#45;BEHAVIOURS</title>
<path fill="none" stroke="black" d="M571,-1104.96C571,-1065.23 571,-1011.87 571,-971.49"/>
<polygon fill="black" stroke="black" points="574.5,-971.26 571,-961.26 567.5,-971.26 574.5,-971.26"/>
</g>
</g>
</svg>
