<?xml version="1.0" encoding="UTF-8" standalone="no"?>
<!DOCTYPE svg PUBLIC "-//W3C//DTD SVG 1.1//EN"
 "http://www.w3.org/Graphics/SVG/1.1/DTD/svg11.dtd">
<!-- Generated by graphviz version 2.43.0 (0)
 -->
<!-- Title: G Pages: 1 -->
<svg width="1150pt" height="1378pt"
 viewBox="0.00 0.00 1150.00 1378.00" xmlns="http://www.w3.org/2000/svg" xmlns:xlink="http://www.w3.org/1999/xlink">
<g id="graph0" class="graph" transform="scale(1 1) rotate(0) translate(4 1374)">
<title>G</title>
<polygon fill="white" stroke="transparent" points="-4,4 -4,-1374 1146,-1374 1146,4 -4,4"/>
<!-- TRUSTABLE&#45;SOFTWARE -->
<g id="node1" class="node">
<title>TRUSTABLE&#45;SOFTWARE</title>
<g id="a_node1"><a xlink:href="https://score-json.github.io/nlohmann_json/main/_images/custom_TRUSTABLE-SOFTWARE_graph.svg" xlink:title="TRUSTABLE&#45;SOFTWARE: This\nrelease of JSON&#45;Library\nalso reffered in the\ndocumentation as nlohmann/json\nlibrary is Trustable.\n" target="_top">
<polygon fill="none" stroke="black" points="695,-1370 447,-1370 447,-1287 695,-1287 695,-1370"/>
<text text-anchor="middle" x="571" y="-1354.8" font-family="Open Sans" font-size="14.00">TRUSTABLE&#45;SOFTWARE: This</text>
<text text-anchor="middle" x="571" y="-1339.8" font-family="Open Sans" font-size="14.00">release of JSON&#45;Library</text>
<text text-anchor="middle" x="571" y="-1324.8" font-family="Open Sans" font-size="14.00">also reffered in the</text>
<text text-anchor="middle" x="571" y="-1309.8" font-family="Open Sans" font-size="14.00">documentation as nlohmann/json</text>
<text text-anchor="middle" x="571" y="-1294.8" font-family="Open Sans" font-size="14.00">library is Trustable.</text>
</a>
</g>
</g>
<!-- TT&#45;EXPECTATIONS -->
<g id="node10" class="node">
<title>TT&#45;EXPECTATIONS</title>
<g id="a_node10"><a xlink:href="https://score-json.github.io/nlohmann_json/main/_images/custom_TT-EXPECTATIONS_graph.svg" xlink:title="TT&#45;EXPECTATIONS: Documentation\nis provided, specifying\nwhat nlohmann/json library\nis expected to do, and\nwhat it must not do,\nand how this is verified.\n" target="_top">
<polygon fill="none" stroke="black" points="699.5,-1143 442.5,-1143 442.5,-1045 699.5,-1045 699.5,-1143"/>
<text text-anchor="middle" x="571" y="-1127.8" font-family="Open Sans" font-size="14.00">TT&#45;EXPECTATIONS: Documentation</text>
<text text-anchor="middle" x="571" y="-1112.8" font-family="Open Sans" font-size="14.00">is provided, specifying</text>
<text text-anchor="middle" x="571" y="-1097.8" font-family="Open Sans" font-size="14.00">what nlohmann/json library</text>
<text text-anchor="middle" x="571" y="-1082.8" font-family="Open Sans" font-size="14.00">is expected to do, and</text>
<text text-anchor="middle" x="571" y="-1067.8" font-family="Open Sans" font-size="14.00">what it must not do,</text>
<text text-anchor="middle" x="571" y="-1052.8" font-family="Open Sans" font-size="14.00">and how this is verified.</text>
</a>
</g>
</g>
<!-- TRUSTABLE&#45;SOFTWARE&#45;&gt;TT&#45;EXPECTATIONS -->
<g id="edge1" class="edge">
<title>TRUSTABLE&#45;SOFTWARE&#45;&gt;TT&#45;EXPECTATIONS</title>
<path fill="none" stroke="black" d="M571,-1286.74C571,-1249.88 571,-1195.18 571,-1153.63"/>
<polygon fill="black" stroke="black" points="574.5,-1153.37 571,-1143.37 567.5,-1153.37 574.5,-1153.37"/>
</g>
<!-- JLEX&#45;02 -->
<g id="node2" class="node">
<title>JLEX&#45;02</title>
<g id="a_node2"><a xlink:href="https://score-json.github.io/nlohmann_json/main/_images/custom_JLEX-02_graph.svg" xlink:title="JLEX&#45;02: The requirement\nregarding [JSON Deserialization](https://eclipse&#45;score.github.io/score/main/modules/baselibs/json/docs/requirements/index.html#comp_req__json__deserialization)\nis fulfilled. " target="_top">
<polygon fill="none" stroke="black" points="1142,-659 0,-659 0,-606 1142,-606 1142,-659"/>
<text text-anchor="middle" x="571" y="-643.8" font-family="Open Sans" font-size="14.00">JLEX&#45;02: The requirement</text>
<text text-anchor="middle" x="571" y="-628.8" font-family="Open Sans" font-size="14.00">regarding [JSON Deserialization](https://eclipse&#45;score.github.io/score/main/modules/baselibs/json/docs/requirements/index.html#comp_req__json__deserialization)</text>
<text text-anchor="middle" x="571" y="-613.8" font-family="Open Sans" font-size="14.00">is fulfilled. </text>
</a>
</g>
</g>
<!-- PJD&#45;03 -->
<g id="node8" class="node">
<title>PJD&#45;03</title>
<g id="a_node8"><a xlink:href="https://score-json.github.io/nlohmann_json/main/_images/custom_PJD-03_graph.svg" xlink:title="PJD&#45;03: The service parses\nall texts that conform\nto the JSON grammar.\n" target="_top">
<polygon fill="none" stroke="black" points="672.5,-462 469.5,-462 469.5,-409 672.5,-409 672.5,-462"/>
<text text-anchor="middle" x="571" y="-446.8" font-family="Open Sans" font-size="14.00">PJD&#45;03: The service parses</text>
<text text-anchor="middle" x="571" y="-431.8" font-family="Open Sans" font-size="14.00">all texts that conform</text>
<text text-anchor="middle" x="571" y="-416.8" font-family="Open Sans" font-size="14.00">to the JSON grammar.</text>
</a>
</g>
</g>
<!-- JLEX&#45;02&#45;&gt;PJD&#45;03 -->
<g id="edge2" class="edge">
<title>JLEX&#45;02&#45;&gt;PJD&#45;03</title>
<path fill="none" stroke="black" d="M571,-605.61C571,-571.42 571,-511.06 571,-472.46"/>
<polygon fill="black" stroke="black" points="574.5,-472.19 571,-462.19 567.5,-472.19 574.5,-472.19"/>
</g>
<!-- NPF&#45;04 -->
<g id="node3" class="node">
<title>NPF&#45;04</title>
<g id="a_node3"><a xlink:href="https://score-json.github.io/nlohmann_json/main/_images/custom_NPF-04_graph.svg" xlink:title="NPF&#45;04: The service parses\nliteral names &quot;true&quot;,\n&quot;false&quot; and &quot;null&quot; according\nto RFC8259. " target="_top">
<polygon fill="none" stroke="black" points="675.5,-265 466.5,-265 466.5,-197 675.5,-197 675.5,-265"/>
<text text-anchor="middle" x="571" y="-249.8" font-family="Open Sans" font-size="14.00">NPF&#45;04: The service parses</text>
<text text-anchor="middle" x="571" y="-234.8" font-family="Open Sans" font-size="14.00">literal names &quot;true&quot;,</text>
<text text-anchor="middle" x="571" y="-219.8" font-family="Open Sans" font-size="14.00">&quot;false&quot; and &quot;null&quot; according</text>
<text text-anchor="middle" x="571" y="-204.8" font-family="Open Sans" font-size="14.00">to RFC8259. </text>
</a>
</g>
</g>
<!-- NPF&#45;04.1 -->
<g id="node4" class="node">
<title>NPF&#45;04.1</title>
<g id="a_node4"><a xlink:href="https://score-json.github.io/nlohmann_json/main/generated/NPF.html#npf-04.1" xlink:title="NPF&#45;04.1: The service\nignores leading and trailing\nwhitespace. " target="_top">
<polygon fill="none" stroke="black" points="367.5,-53 160.5,-53 160.5,0 367.5,0 367.5,-53"/>
<text text-anchor="middle" x="264" y="-37.8" font-family="Open Sans" font-size="14.00">NPF&#45;04.1: The service</text>
<text text-anchor="middle" x="264" y="-22.8" font-family="Open Sans" font-size="14.00">ignores leading and trailing</text>
<text text-anchor="middle" x="264" y="-7.8" font-family="Open Sans" font-size="14.00">whitespace. </text>
</a>
</g>
</g>
<!-- NPF&#45;04&#45;&gt;NPF&#45;04.1 -->
<g id="edge3" class="edge">
<title>NPF&#45;04&#45;&gt;NPF&#45;04.1</title>
<path fill="none" stroke="black" d="M520.65,-196.79C462.56,-158.47 367.8,-95.97 311.12,-58.58"/>
<polygon fill="black" stroke="black" points="312.97,-55.61 302.7,-53.03 309.12,-61.45 312.97,-55.61"/>
</g>
<!-- NPF&#45;04.2 -->
<g id="node5" class="node">
<title>NPF&#45;04.2</title>
<g id="a_node5"><a xlink:href="https://score-json.github.io/nlohmann_json/main/generated/NPF.html#npf-04.2" xlink:title="NPF&#45;04.2: The service\nparses the literal name\ntrue. " target="_top">
<polygon fill="none" stroke="black" points="562.5,-53 385.5,-53 385.5,0 562.5,0 562.5,-53"/>
<text text-anchor="middle" x="474" y="-37.8" font-family="Open Sans" font-size="14.00">NPF&#45;04.2: The service</text>
<text text-anchor="middle" x="474" y="-22.8" font-family="Open Sans" font-size="14.00">parses the literal name</text>
<text text-anchor="middle" x="474" y="-7.8" font-family="Open Sans" font-size="14.00">true. </text>
</a>
</g>
</g>
<!-- NPF&#45;04&#45;&gt;NPF&#45;04.2 -->
<g id="edge4" class="edge">
<title>NPF&#45;04&#45;&gt;NPF&#45;04.2</title>
<path fill="none" stroke="black" d="M554.98,-196.56C537.22,-159.49 508.71,-99.96 490.69,-62.34"/>
<polygon fill="black" stroke="black" points="493.82,-60.78 486.34,-53.27 487.51,-63.8 493.82,-60.78"/>
</g>
<!-- NPF&#45;04.3 -->
<g id="node6" class="node">
<title>NPF&#45;04.3</title>
<g id="a_node6"><a xlink:href="https://score-json.github.io/nlohmann_json/main/generated/NPF.html#npf-04.3" xlink:title="NPF&#45;04.3: The service\nparses the literal name\nfalse. " target="_top">
<polygon fill="none" stroke="black" points="757.5,-53 580.5,-53 580.5,0 757.5,0 757.5,-53"/>
<text text-anchor="middle" x="669" y="-37.8" font-family="Open Sans" font-size="14.00">NPF&#45;04.3: The service</text>
<text text-anchor="middle" x="669" y="-22.8" font-family="Open Sans" font-size="14.00">parses the literal name</text>
<text text-anchor="middle" x="669" y="-7.8" font-family="Open Sans" font-size="14.00">false. </text>
</a>
</g>
</g>
<!-- NPF&#45;04&#45;&gt;NPF&#45;04.3 -->
<g id="edge5" class="edge">
<title>NPF&#45;04&#45;&gt;NPF&#45;04.3</title>
<path fill="none" stroke="black" d="M587.18,-196.56C605.12,-159.49 633.93,-99.96 652.14,-62.34"/>
<polygon fill="black" stroke="black" points="655.32,-63.79 656.53,-53.27 649.02,-60.75 655.32,-63.79"/>
</g>
<!-- NPF&#45;04.4 -->
<g id="node7" class="node">
<title>NPF&#45;04.4</title>
<g id="a_node7"><a xlink:href="https://score-json.github.io/nlohmann_json/main/generated/NPF.html#npf-04.4" xlink:title="NPF&#45;04.4: The service\nparses the literal name\nnull. " target="_top">
<polygon fill="none" stroke="black" points="952.5,-53 775.5,-53 775.5,0 952.5,0 952.5,-53"/>
<text text-anchor="middle" x="864" y="-37.8" font-family="Open Sans" font-size="14.00">NPF&#45;04.4: The service</text>
<text text-anchor="middle" x="864" y="-22.8" font-family="Open Sans" font-size="14.00">parses the literal name</text>
<text text-anchor="middle" x="864" y="-7.8" font-family="Open Sans" font-size="14.00">null. </text>
</a>
</g>
</g>
<!-- NPF&#45;04&#45;&gt;NPF&#45;04.4 -->
<g id="edge6" class="edge">
<title>NPF&#45;04&#45;&gt;NPF&#45;04.4</title>
<path fill="none" stroke="black" d="M619.05,-196.79C674.38,-158.55 764.56,-96.22 818.7,-58.81"/>
<polygon fill="black" stroke="black" points="820.83,-61.59 827.07,-53.03 816.85,-55.83 820.83,-61.59"/>
</g>
<!-- PJD&#45;03&#45;&gt;NPF&#45;04 -->
<g id="edge7" class="edge">
<title>PJD&#45;03&#45;&gt;NPF&#45;04</title>
<path fill="none" stroke="black" d="M571,-408.85C571,-375.27 571,-315.91 571,-275.3"/>
<polygon fill="black" stroke="black" points="574.5,-275.15 571,-265.15 567.5,-275.15 574.5,-275.15"/>
</g>
<!-- TA&#45;BEHAVIOURS -->
<g id="node9" class="node">
<title>TA&#45;BEHAVIOURS</title>
<g id="a_node9"><a xlink:href="https://score-json.github.io/nlohmann_json/main/_images/custom_TA-BEHAVIOURS_graph.svg" xlink:title="TA&#45;BEHAVIOURS: Expected\nor required behaviours\nfor nlohmann/json library\nare identified, specified,\nverified and validated\nbased on analysis. " target="_top">
<polygon fill="none" stroke="black" points="673,-901 469,-901 469,-803 673,-803 673,-901"/>
<text text-anchor="middle" x="571" y="-885.8" font-family="Open Sans" font-size="14.00">TA&#45;BEHAVIOURS: Expected</text>
<text text-anchor="middle" x="571" y="-870.8" font-family="Open Sans" font-size="14.00">or required behaviours</text>
<text text-anchor="middle" x="571" y="-855.8" font-family="Open Sans" font-size="14.00">for nlohmann/json library</text>
<text text-anchor="middle" x="571" y="-840.8" font-family="Open Sans" font-size="14.00">are identified, specified,</text>
<text text-anchor="middle" x="571" y="-825.8" font-family="Open Sans" font-size="14.00">verified and validated</text>
<text text-anchor="middle" x="571" y="-810.8" font-family="Open Sans" font-size="14.00">based on analysis. </text>
</a>
</g>
</g>
<!-- TA&#45;BEHAVIOURS&#45;&gt;JLEX&#45;02 -->
<g id="edge8" class="edge">
<title>TA&#45;BEHAVIOURS&#45;&gt;JLEX&#45;02</title>
<path fill="none" stroke="black" d="M571,-803C571,-762.58 571,-705.67 571,-669.18"/>
<polygon fill="black" stroke="black" points="574.5,-669.01 571,-659.01 567.5,-669.01 574.5,-669.01"/>
</g>
<!-- TT&#45;EXPECTATIONS&#45;&gt;TA&#45;BEHAVIOURS -->
<g id="edge9" class="edge">
<title>TT&#45;EXPECTATIONS&#45;&gt;TA&#45;BEHAVIOURS</title>
<path fill="none" stroke="black" d="M571,-1044.72C571,-1006.23 571,-952.2 571,-911.3"/>
<polygon fill="black" stroke="black" points="574.5,-911.2 571,-901.2 567.5,-911.2 574.5,-911.2"/>
</g>
</g>
</svg>
