<?xml version="1.0" encoding="UTF-8" standalone="no"?>
<!DOCTYPE svg PUBLIC "-//W3C//DTD SVG 1.1//EN"
 "http://www.w3.org/Graphics/SVG/1.1/DTD/svg11.dtd">
<!-- Generated by graphviz version 2.43.0 (0)
 -->
<!-- Title: G Pages: 1 -->
<svg width="1021pt" height="1181pt"
 viewBox="0.00 0.00 1021.00 1181.00" xmlns="http://www.w3.org/2000/svg" xmlns:xlink="http://www.w3.org/1999/xlink">
<g id="graph0" class="graph" transform="scale(1 1) rotate(0) translate(4 1177)">
<title>G</title>
<polygon fill="white" stroke="transparent" points="-4,4 -4,-1177 1017,-1177 1017,4 -4,4"/>
<!-- TRUSTABLE&#45;SOFTWARE -->
<g id="node1" class="node">
<title>TRUSTABLE&#45;SOFTWARE</title>
<g id="a_node1"><a xlink:href="https://score-json.github.io/nlohmann_json/main/_images/custom_TRUSTABLE-SOFTWARE_graph.svg" xlink:title="TRUSTABLE&#45;SOFTWARE: This\nrelease of JSON&#45;Library\nalso reffered in the\ndocumentation as nlohmann/json\nlibrary is Trustable.\n" target="_top">
<polygon fill="none" stroke="black" points="607.5,-1173 359.5,-1173 359.5,-1090 607.5,-1090 607.5,-1173"/>
<text text-anchor="middle" x="483.5" y="-1157.8" font-family="Open Sans" font-size="14.00">TRUSTABLE&#45;SOFTWARE: This</text>
<text text-anchor="middle" x="483.5" y="-1142.8" font-family="Open Sans" font-size="14.00">release of JSON&#45;Library</text>
<text text-anchor="middle" x="483.5" y="-1127.8" font-family="Open Sans" font-size="14.00">also reffered in the</text>
<text text-anchor="middle" x="483.5" y="-1112.8" font-family="Open Sans" font-size="14.00">documentation as nlohmann/json</text>
<text text-anchor="middle" x="483.5" y="-1097.8" font-family="Open Sans" font-size="14.00">library is Trustable.</text>
</a>
</g>
</g>
<!-- TT&#45;EXPECTATIONS -->
<g id="node10" class="node">
<title>TT&#45;EXPECTATIONS</title>
<g id="a_node10"><a xlink:href="https://score-json.github.io/nlohmann_json/main/_images/custom_TT-EXPECTATIONS_graph.svg" xlink:title="TT&#45;EXPECTATIONS: Documentation\nis provided, specifying\nwhat nlohmann/json library\nis expected to do, and\nwhat it must not do,\nand how this is verified.\n" target="_top">
<polygon fill="none" stroke="black" points="612,-946 355,-946 355,-848 612,-848 612,-946"/>
<text text-anchor="middle" x="483.5" y="-930.8" font-family="Open Sans" font-size="14.00">TT&#45;EXPECTATIONS: Documentation</text>
<text text-anchor="middle" x="483.5" y="-915.8" font-family="Open Sans" font-size="14.00">is provided, specifying</text>
<text text-anchor="middle" x="483.5" y="-900.8" font-family="Open Sans" font-size="14.00">what nlohmann/json library</text>
<text text-anchor="middle" x="483.5" y="-885.8" font-family="Open Sans" font-size="14.00">is expected to do, and</text>
<text text-anchor="middle" x="483.5" y="-870.8" font-family="Open Sans" font-size="14.00">what it must not do,</text>
<text text-anchor="middle" x="483.5" y="-855.8" font-family="Open Sans" font-size="14.00">and how this is verified.</text>
</a>
</g>
</g>
<!-- TRUSTABLE&#45;SOFTWARE&#45;&gt;TT&#45;EXPECTATIONS -->
<g id="edge1" class="edge">
<title>TRUSTABLE&#45;SOFTWARE&#45;&gt;TT&#45;EXPECTATIONS</title>
<path fill="none" stroke="black" d="M483.5,-1089.74C483.5,-1052.88 483.5,-998.18 483.5,-956.63"/>
<polygon fill="black" stroke="black" points="487,-956.37 483.5,-946.37 480,-956.37 487,-956.37"/>
</g>
<!-- JLS&#45;24 -->
<g id="node2" class="node">
<title>JLS&#45;24</title>
<g id="a_node2"><a xlink:href="https://score-json.github.io/nlohmann_json/main/_images/custom_JLS-24_graph.svg" xlink:title="JLS&#45;24: The nlohmann/json\nlibrary recognizes malformed\nJSON and returns an exception.\n" target="_top">
<polygon fill="none" stroke="black" points="601,-462 366,-462 366,-409 601,-409 601,-462"/>
<text text-anchor="middle" x="483.5" y="-446.8" font-family="Open Sans" font-size="14.00">JLS&#45;24: The nlohmann/json</text>
<text text-anchor="middle" x="483.5" y="-431.8" font-family="Open Sans" font-size="14.00">library recognizes malformed</text>
<text text-anchor="middle" x="483.5" y="-416.8" font-family="Open Sans" font-size="14.00">JSON and returns an exception.</text>
</a>
</g>
</g>
<!-- TIJ&#45;02 -->
<g id="node4" class="node">
<title>TIJ&#45;02</title>
<g id="a_node4"><a xlink:href="https://score-json.github.io/nlohmann_json/main/_images/custom_TIJ-02_graph.svg" xlink:title="TIJ&#45;02: The parsing service\nthrows an exception on\nill&#45;formed numbers. " target="_top">
<polygon fill="none" stroke="black" points="584.5,-265 382.5,-265 382.5,-212 584.5,-212 584.5,-265"/>
<text text-anchor="middle" x="483.5" y="-249.8" font-family="Open Sans" font-size="14.00">TIJ&#45;02: The parsing service</text>
<text text-anchor="middle" x="483.5" y="-234.8" font-family="Open Sans" font-size="14.00">throws an exception on</text>
<text text-anchor="middle" x="483.5" y="-219.8" font-family="Open Sans" font-size="14.00">ill&#45;formed numbers. </text>
</a>
</g>
</g>
<!-- JLS&#45;24&#45;&gt;TIJ&#45;02 -->
<g id="edge2" class="edge">
<title>JLS&#45;24&#45;&gt;TIJ&#45;02</title>
<path fill="none" stroke="black" d="M483.5,-408.61C483.5,-374.42 483.5,-314.06 483.5,-275.46"/>
<polygon fill="black" stroke="black" points="487,-275.19 483.5,-265.19 480,-275.19 487,-275.19"/>
</g>
<!-- TA&#45;MISBEHAVIOURS -->
<g id="node3" class="node">
<title>TA&#45;MISBEHAVIOURS</title>
<g id="a_node3"><a xlink:href="https://score-json.github.io/nlohmann_json/main/_images/custom_TA-MISBEHAVIOURS_graph.svg" xlink:title="TA&#45;MISBEHAVIOURS: Prohibited\nmisbehaviours for nlohmann/json\nlibrary are identified,\nand mitigations are specified,\nverified and validated\nbased on analysis. " target="_top">
<polygon fill="none" stroke="black" points="608.5,-704 358.5,-704 358.5,-606 608.5,-606 608.5,-704"/>
<text text-anchor="middle" x="483.5" y="-688.8" font-family="Open Sans" font-size="14.00">TA&#45;MISBEHAVIOURS: Prohibited</text>
<text text-anchor="middle" x="483.5" y="-673.8" font-family="Open Sans" font-size="14.00">misbehaviours for nlohmann/json</text>
<text text-anchor="middle" x="483.5" y="-658.8" font-family="Open Sans" font-size="14.00">library are identified,</text>
<text text-anchor="middle" x="483.5" y="-643.8" font-family="Open Sans" font-size="14.00">and mitigations are specified,</text>
<text text-anchor="middle" x="483.5" y="-628.8" font-family="Open Sans" font-size="14.00">verified and validated</text>
<text text-anchor="middle" x="483.5" y="-613.8" font-family="Open Sans" font-size="14.00">based on analysis. </text>
</a>
</g>
</g>
<!-- TA&#45;MISBEHAVIOURS&#45;&gt;JLS&#45;24 -->
<g id="edge3" class="edge">
<title>TA&#45;MISBEHAVIOURS&#45;&gt;JLS&#45;24</title>
<path fill="none" stroke="black" d="M483.5,-606C483.5,-565.58 483.5,-508.67 483.5,-472.18"/>
<polygon fill="black" stroke="black" points="487,-472.01 483.5,-462.01 480,-472.01 487,-472.01"/>
</g>
<!-- TIJ&#45;02.1 -->
<g id="node5" class="node">
<title>TIJ&#45;02.1</title>
<g id="a_node5"><a xlink:href="https://score-json.github.io/nlohmann_json/main/generated/TIJ.html#tij-02.1" xlink:title="TIJ&#45;02.1: The service\nthrows an exception on\nleading plus. " target="_top">
<polygon fill="none" stroke="black" points="179,-60.5 0,-60.5 0,-7.5 179,-7.5 179,-60.5"/>
<text text-anchor="middle" x="89.5" y="-45.3" font-family="Open Sans" font-size="14.00">TIJ&#45;02.1: The service</text>
<text text-anchor="middle" x="89.5" y="-30.3" font-family="Open Sans" font-size="14.00">throws an exception on</text>
<text text-anchor="middle" x="89.5" y="-15.3" font-family="Open Sans" font-size="14.00">leading plus. </text>
</a>
</g>
</g>
<!-- TIJ&#45;02&#45;&gt;TIJ&#45;02.1 -->
<g id="edge4" class="edge">
<title>TIJ&#45;02&#45;&gt;TIJ&#45;02.1</title>
<path fill="none" stroke="black" d="M433.6,-211.85C360.87,-174.47 226,-105.16 148.47,-65.31"/>
<polygon fill="black" stroke="black" points="149.8,-62.06 139.31,-60.6 146.6,-68.28 149.8,-62.06"/>
</g>
<!-- TIJ&#45;02.2 -->
<g id="node6" class="node">
<title>TIJ&#45;02.2</title>
<g id="a_node6"><a xlink:href="https://score-json.github.io/nlohmann_json/main/generated/TIJ.html#tij-02.2" xlink:title="TIJ&#45;02.2: The service\nthrows an exception on\nleading zeroes. " target="_top">
<polygon fill="none" stroke="black" points="376,-60.5 197,-60.5 197,-7.5 376,-7.5 376,-60.5"/>
<text text-anchor="middle" x="286.5" y="-45.3" font-family="Open Sans" font-size="14.00">TIJ&#45;02.2: The service</text>
<text text-anchor="middle" x="286.5" y="-30.3" font-family="Open Sans" font-size="14.00">throws an exception on</text>
<text text-anchor="middle" x="286.5" y="-15.3" font-family="Open Sans" font-size="14.00">leading zeroes. </text>
</a>
</g>
</g>
<!-- TIJ&#45;02&#45;&gt;TIJ&#45;02.2 -->
<g id="edge5" class="edge">
<title>TIJ&#45;02&#45;&gt;TIJ&#45;02.2</title>
<path fill="none" stroke="black" d="M458.55,-211.85C422.97,-175.28 357.66,-108.14 318.54,-67.94"/>
<polygon fill="black" stroke="black" points="321.04,-65.48 311.56,-60.76 316.02,-70.37 321.04,-65.48"/>
</g>
<!-- TIJ&#45;02.3 -->
<g id="node7" class="node">
<title>TIJ&#45;02.3</title>
<g id="a_node7"><a xlink:href="https://score-json.github.io/nlohmann_json/main/generated/TIJ.html#tij-02.3" xlink:title="TIJ&#45;02.3: The service\nthrows an exception on\nNaN, infinity. " target="_top">
<polygon fill="none" stroke="black" points="573,-60.5 394,-60.5 394,-7.5 573,-7.5 573,-60.5"/>
<text text-anchor="middle" x="483.5" y="-45.3" font-family="Open Sans" font-size="14.00">TIJ&#45;02.3: The service</text>
<text text-anchor="middle" x="483.5" y="-30.3" font-family="Open Sans" font-size="14.00">throws an exception on</text>
<text text-anchor="middle" x="483.5" y="-15.3" font-family="Open Sans" font-size="14.00">NaN, infinity. </text>
</a>
</g>
</g>
<!-- TIJ&#45;02&#45;&gt;TIJ&#45;02.3 -->
<g id="edge6" class="edge">
<title>TIJ&#45;02&#45;&gt;TIJ&#45;02.3</title>
<path fill="none" stroke="black" d="M483.5,-211.85C483.5,-176.19 483.5,-111.47 483.5,-70.99"/>
<polygon fill="black" stroke="black" points="487,-70.76 483.5,-60.76 480,-70.76 487,-70.76"/>
</g>
<!-- TIJ&#45;02.4 -->
<g id="node8" class="node">
<title>TIJ&#45;02.4</title>
<g id="a_node8"><a xlink:href="https://score-json.github.io/nlohmann_json/main/generated/TIJ.html#tij-02.4" xlink:title="TIJ&#45;02.4: The service\nthrows an exception on\nU+0415 and U+0436 instead\nof U+0045 or U+0065.\n" target="_top">
<polygon fill="none" stroke="black" points="815.5,-68 591.5,-68 591.5,0 815.5,0 815.5,-68"/>
<text text-anchor="middle" x="703.5" y="-52.8" font-family="Open Sans" font-size="14.00">TIJ&#45;02.4: The service</text>
<text text-anchor="middle" x="703.5" y="-37.8" font-family="Open Sans" font-size="14.00">throws an exception on</text>
<text text-anchor="middle" x="703.5" y="-22.8" font-family="Open Sans" font-size="14.00">U+0415 and U+0436 instead</text>
<text text-anchor="middle" x="703.5" y="-7.8" font-family="Open Sans" font-size="14.00">of U+0045 or U+0065.</text>
</a>
</g>
</g>
<!-- TIJ&#45;02&#45;&gt;TIJ&#45;02.4 -->
<g id="edge7" class="edge">
<title>TIJ&#45;02&#45;&gt;TIJ&#45;02.4</title>
<path fill="none" stroke="black" d="M511.36,-211.85C548.85,-177.35 615.92,-115.62 660.06,-74.98"/>
<polygon fill="black" stroke="black" points="662.49,-77.5 667.48,-68.15 657.75,-72.35 662.49,-77.5"/>
</g>
<!-- TIJ&#45;02.5 -->
<g id="node9" class="node">
<title>TIJ&#45;02.5</title>
<g id="a_node9"><a xlink:href="https://score-json.github.io/nlohmann_json/main/generated/TIJ.html#tij-02.5" xlink:title="TIJ&#45;02.5: The service\nthrows an exception on\ninvalid number syntax.\n" target="_top">
<polygon fill="none" stroke="black" points="1013,-60.5 834,-60.5 834,-7.5 1013,-7.5 1013,-60.5"/>
<text text-anchor="middle" x="923.5" y="-45.3" font-family="Open Sans" font-size="14.00">TIJ&#45;02.5: The service</text>
<text text-anchor="middle" x="923.5" y="-30.3" font-family="Open Sans" font-size="14.00">throws an exception on</text>
<text text-anchor="middle" x="923.5" y="-15.3" font-family="Open Sans" font-size="14.00">invalid number syntax.</text>
</a>
</g>
</g>
<!-- TIJ&#45;02&#45;&gt;TIJ&#45;02.5 -->
<g id="edge8" class="edge">
<title>TIJ&#45;02&#45;&gt;TIJ&#45;02.5</title>
<path fill="none" stroke="black" d="M539.23,-211.85C620.78,-174.32 772.29,-104.59 858.7,-64.82"/>
<polygon fill="black" stroke="black" points="860.26,-67.96 867.88,-60.6 857.33,-61.6 860.26,-67.96"/>
</g>
<!-- TT&#45;EXPECTATIONS&#45;&gt;TA&#45;MISBEHAVIOURS -->
<g id="edge9" class="edge">
<title>TT&#45;EXPECTATIONS&#45;&gt;TA&#45;MISBEHAVIOURS</title>
<path fill="none" stroke="black" d="M483.5,-847.72C483.5,-809.23 483.5,-755.2 483.5,-714.3"/>
<polygon fill="black" stroke="black" points="487,-714.2 483.5,-704.2 480,-714.2 487,-714.2"/>
</g>
</g>
</svg>
