<?xml version="1.0" encoding="UTF-8" standalone="no"?>
<!DOCTYPE svg PUBLIC "-//W3C//DTD SVG 1.1//EN"
 "http://www.w3.org/Graphics/SVG/1.1/DTD/svg11.dtd">
<!-- Generated by graphviz version 2.43.0 (0)
 -->
<!-- Title: G Pages: 1 -->
<svg width="1150pt" height="1363pt"
 viewBox="0.00 0.00 1150.00 1363.00" xmlns="http://www.w3.org/2000/svg" xmlns:xlink="http://www.w3.org/1999/xlink">
<g id="graph0" class="graph" transform="scale(1 1) rotate(0) translate(4 1359)">
<title>G</title>
<polygon fill="white" stroke="transparent" points="-4,4 -4,-1359 1146,-1359 1146,4 -4,4"/>
<!-- TRUSTABLE&#45;SOFTWARE -->
<g id="node1" class="node">
<title>TRUSTABLE&#45;SOFTWARE</title>
<g id="a_node1"><a xlink:href="https://score-json.github.io/nlohmann_json/main/_images/custom_TRUSTABLE-SOFTWARE_graph.svg" xlink:title="TRUSTABLE&#45;SOFTWARE: This\nrelease of JSON&#45;Library\nalso reffered in the\ndocumentation as nlohmann/json\nlibrary is Trustable.\n" target="_top">
<polygon fill="none" stroke="black" points="695,-1355 447,-1355 447,-1272 695,-1272 695,-1355"/>
<text text-anchor="middle" x="571" y="-1339.8" font-family="Open Sans" font-size="14.00">TRUSTABLE&#45;SOFTWARE: This</text>
<text text-anchor="middle" x="571" y="-1324.8" font-family="Open Sans" font-size="14.00">release of JSON&#45;Library</text>
<text text-anchor="middle" x="571" y="-1309.8" font-family="Open Sans" font-size="14.00">also reffered in the</text>
<text text-anchor="middle" x="571" y="-1294.8" font-family="Open Sans" font-size="14.00">documentation as nlohmann/json</text>
<text text-anchor="middle" x="571" y="-1279.8" font-family="Open Sans" font-size="14.00">library is Trustable.</text>
</a>
</g>
</g>
<!-- TT&#45;EXPECTATIONS -->
<g id="node8" class="node">
<title>TT&#45;EXPECTATIONS</title>
<g id="a_node8"><a xlink:href="https://score-json.github.io/nlohmann_json/main/_images/custom_TT-EXPECTATIONS_graph.svg" xlink:title="TT&#45;EXPECTATIONS: Documentation\nis provided, specifying\nwhat nlohmann/json library\nis expected to do, and\nwhat it must not do,\nand how this is verified.\n" target="_top">
<polygon fill="none" stroke="black" points="699.5,-1128 442.5,-1128 442.5,-1030 699.5,-1030 699.5,-1128"/>
<text text-anchor="middle" x="571" y="-1112.8" font-family="Open Sans" font-size="14.00">TT&#45;EXPECTATIONS: Documentation</text>
<text text-anchor="middle" x="571" y="-1097.8" font-family="Open Sans" font-size="14.00">is provided, specifying</text>
<text text-anchor="middle" x="571" y="-1082.8" font-family="Open Sans" font-size="14.00">what nlohmann/json library</text>
<text text-anchor="middle" x="571" y="-1067.8" font-family="Open Sans" font-size="14.00">is expected to do, and</text>
<text text-anchor="middle" x="571" y="-1052.8" font-family="Open Sans" font-size="14.00">what it must not do,</text>
<text text-anchor="middle" x="571" y="-1037.8" font-family="Open Sans" font-size="14.00">and how this is verified.</text>
</a>
</g>
</g>
<!-- TRUSTABLE&#45;SOFTWARE&#45;&gt;TT&#45;EXPECTATIONS -->
<g id="edge1" class="edge">
<title>TRUSTABLE&#45;SOFTWARE&#45;&gt;TT&#45;EXPECTATIONS</title>
<path fill="none" stroke="black" d="M571,-1271.74C571,-1234.88 571,-1180.18 571,-1138.63"/>
<polygon fill="black" stroke="black" points="574.5,-1138.37 571,-1128.37 567.5,-1138.37 574.5,-1138.37"/>
</g>
<!-- JLEX&#45;02 -->
<g id="node2" class="node">
<title>JLEX&#45;02</title>
<g id="a_node2"><a xlink:href="https://score-json.github.io/nlohmann_json/main/_images/custom_JLEX-02_graph.svg" xlink:title="JLEX&#45;02: The requirement\nregarding [JSON Deserialization](https://eclipse&#45;score.github.io/score/main/modules/baselibs/json/docs/requirements/index.html#comp_req__json__deserialization)\nis fulfilled. " target="_top">
<polygon fill="none" stroke="black" points="1142,-644 0,-644 0,-591 1142,-591 1142,-644"/>
<text text-anchor="middle" x="571" y="-628.8" font-family="Open Sans" font-size="14.00">JLEX&#45;02: The requirement</text>
<text text-anchor="middle" x="571" y="-613.8" font-family="Open Sans" font-size="14.00">regarding [JSON Deserialization](https://eclipse&#45;score.github.io/score/main/modules/baselibs/json/docs/requirements/index.html#comp_req__json__deserialization)</text>
<text text-anchor="middle" x="571" y="-598.8" font-family="Open Sans" font-size="14.00">is fulfilled. </text>
</a>
</g>
</g>
<!-- PJD&#45;03 -->
<g id="node6" class="node">
<title>PJD&#45;03</title>
<g id="a_node6"><a xlink:href="https://score-json.github.io/nlohmann_json/main/_images/custom_PJD-03_graph.svg" xlink:title="PJD&#45;03: The service parses\nall texts that conform\nto the JSON grammar.\n" target="_top">
<polygon fill="none" stroke="black" points="672.5,-447 469.5,-447 469.5,-394 672.5,-394 672.5,-447"/>
<text text-anchor="middle" x="571" y="-431.8" font-family="Open Sans" font-size="14.00">PJD&#45;03: The service parses</text>
<text text-anchor="middle" x="571" y="-416.8" font-family="Open Sans" font-size="14.00">all texts that conform</text>
<text text-anchor="middle" x="571" y="-401.8" font-family="Open Sans" font-size="14.00">to the JSON grammar.</text>
</a>
</g>
</g>
<!-- JLEX&#45;02&#45;&gt;PJD&#45;03 -->
<g id="edge2" class="edge">
<title>JLEX&#45;02&#45;&gt;PJD&#45;03</title>
<path fill="none" stroke="black" d="M571,-590.61C571,-556.42 571,-496.06 571,-457.46"/>
<polygon fill="black" stroke="black" points="574.5,-457.19 571,-447.19 567.5,-457.19 574.5,-457.19"/>
</g>
<!-- NPF&#45;07 -->
<g id="node3" class="node">
<title>NPF&#45;07</title>
<g id="a_node3"><a xlink:href="https://score-json.github.io/nlohmann_json/main/_images/custom_NPF-07_graph.svg" xlink:title="NPF&#45;07: The service parses\nwell&#45;formed UTF&#45;8 encoded\ndata only. " target="_top">
<polygon fill="none" stroke="black" points="675,-250 467,-250 467,-197 675,-197 675,-250"/>
<text text-anchor="middle" x="571" y="-234.8" font-family="Open Sans" font-size="14.00">NPF&#45;07: The service parses</text>
<text text-anchor="middle" x="571" y="-219.8" font-family="Open Sans" font-size="14.00">well&#45;formed UTF&#45;8 encoded</text>
<text text-anchor="middle" x="571" y="-204.8" font-family="Open Sans" font-size="14.00">data only. </text>
</a>
</g>
</g>
<!-- NPF&#45;07.1 -->
<g id="node4" class="node">
<title>NPF&#45;07.1</title>
<g id="a_node4"><a xlink:href="https://score-json.github.io/nlohmann_json/main/generated/NPF.html#npf-07.1" xlink:title="NPF&#45;07.1: The service\nparses UTF&#45;8 encoded\ndata. " target="_top">
<polygon fill="none" stroke="black" points="560.5,-53 387.5,-53 387.5,0 560.5,0 560.5,-53"/>
<text text-anchor="middle" x="474" y="-37.8" font-family="Open Sans" font-size="14.00">NPF&#45;07.1: The service</text>
<text text-anchor="middle" x="474" y="-22.8" font-family="Open Sans" font-size="14.00">parses UTF&#45;8 encoded</text>
<text text-anchor="middle" x="474" y="-7.8" font-family="Open Sans" font-size="14.00">data. </text>
</a>
</g>
</g>
<!-- NPF&#45;07&#45;&gt;NPF&#45;07.1 -->
<g id="edge3" class="edge">
<title>NPF&#45;07&#45;&gt;NPF&#45;07.1</title>
<path fill="none" stroke="black" d="M558.12,-196.61C540.97,-162.13 510.57,-101.02 491.4,-62.48"/>
<polygon fill="black" stroke="black" points="494.37,-60.59 486.78,-53.19 488.1,-63.7 494.37,-60.59"/>
</g>
<!-- NPF&#45;07.2 -->
<g id="node5" class="node">
<title>NPF&#45;07.2</title>
<g id="a_node5"><a xlink:href="https://score-json.github.io/nlohmann_json/main/generated/NPF.html#npf-07.2" xlink:title="NPF&#45;07.2: The service\nthrows an exception on\nill&#45;formed UTF&#45;8 data.\n" target="_top">
<polygon fill="none" stroke="black" points="757.5,-53 578.5,-53 578.5,0 757.5,0 757.5,-53"/>
<text text-anchor="middle" x="668" y="-37.8" font-family="Open Sans" font-size="14.00">NPF&#45;07.2: The service</text>
<text text-anchor="middle" x="668" y="-22.8" font-family="Open Sans" font-size="14.00">throws an exception on</text>
<text text-anchor="middle" x="668" y="-7.8" font-family="Open Sans" font-size="14.00">ill&#45;formed UTF&#45;8 data.</text>
</a>
</g>
</g>
<!-- NPF&#45;07&#45;&gt;NPF&#45;07.2 -->
<g id="edge4" class="edge">
<title>NPF&#45;07&#45;&gt;NPF&#45;07.2</title>
<path fill="none" stroke="black" d="M583.88,-196.61C601.03,-162.13 631.43,-101.02 650.6,-62.48"/>
<polygon fill="black" stroke="black" points="653.9,-63.7 655.22,-53.19 647.63,-60.59 653.9,-63.7"/>
</g>
<!-- PJD&#45;03&#45;&gt;NPF&#45;07 -->
<g id="edge5" class="edge">
<title>PJD&#45;03&#45;&gt;NPF&#45;07</title>
<path fill="none" stroke="black" d="M571,-393.61C571,-359.42 571,-299.06 571,-260.46"/>
<polygon fill="black" stroke="black" points="574.5,-260.19 571,-250.19 567.5,-260.19 574.5,-260.19"/>
</g>
<!-- TA&#45;BEHAVIOURS -->
<g id="node7" class="node">
<title>TA&#45;BEHAVIOURS</title>
<g id="a_node7"><a xlink:href="https://score-json.github.io/nlohmann_json/main/_images/custom_TA-BEHAVIOURS_graph.svg" xlink:title="TA&#45;BEHAVIOURS: Expected\nor required behaviours\nfor nlohmann/json library\nare identified, specified,\nverified and validated\nbased on analysis. " target="_top">
<polygon fill="none" stroke="black" points="673,-886 469,-886 469,-788 673,-788 673,-886"/>
<text text-anchor="middle" x="571" y="-870.8" font-family="Open Sans" font-size="14.00">TA&#45;BEHAVIOURS: Expected</text>
<text text-anchor="middle" x="571" y="-855.8" font-family="Open Sans" font-size="14.00">or required behaviours</text>
<text text-anchor="middle" x="571" y="-840.8" font-family="Open Sans" font-size="14.00">for nlohmann/json library</text>
<text text-anchor="middle" x="571" y="-825.8" font-family="Open Sans" font-size="14.00">are identified, specified,</text>
<text text-anchor="middle" x="571" y="-810.8" font-family="Open Sans" font-size="14.00">verified and validated</text>
<text text-anchor="middle" x="571" y="-795.8" font-family="Open Sans" font-size="14.00">based on analysis. </text>
</a>
</g>
</g>
<!-- TA&#45;BEHAVIOURS&#45;&gt;JLEX&#45;02 -->
<g id="edge6" class="edge">
<title>TA&#45;BEHAVIOURS&#45;&gt;JLEX&#45;02</title>
<path fill="none" stroke="black" d="M571,-788C571,-747.58 571,-690.67 571,-654.18"/>
<polygon fill="black" stroke="black" points="574.5,-654.01 571,-644.01 567.5,-654.01 574.5,-654.01"/>
</g>
<!-- TT&#45;EXPECTATIONS&#45;&gt;TA&#45;BEHAVIOURS -->
<g id="edge7" class="edge">
<title>TT&#45;EXPECTATIONS&#45;&gt;TA&#45;BEHAVIOURS</title>
<path fill="none" stroke="black" d="M571,-1029.72C571,-991.23 571,-937.2 571,-896.3"/>
<polygon fill="black" stroke="black" points="574.5,-896.2 571,-886.2 567.5,-896.2 574.5,-896.2"/>
</g>
</g>
</svg>
