<?xml version="1.0" encoding="UTF-8" standalone="no"?>
<!DOCTYPE svg PUBLIC "-//W3C//DTD SVG 1.1//EN"
 "http://www.w3.org/Graphics/SVG/1.1/DTD/svg11.dtd">
<!-- Generated by graphviz version 2.43.0 (0)
 -->
<!-- Title: G Pages: 1 -->
<svg width="1747pt" height="1483pt"
 viewBox="0.00 0.00 1747.00 1483.00" xmlns="http://www.w3.org/2000/svg" xmlns:xlink="http://www.w3.org/1999/xlink">
<g id="graph0" class="graph" transform="scale(1 1) rotate(0) translate(4 1479)">
<title>G</title>
<polygon fill="white" stroke="transparent" points="-4,4 -4,-1479 1743,-1479 1743,4 -4,4"/>
<!-- TRUSTABLE&#45;SOFTWARE -->
<g id="node1" class="node">
<title>TRUSTABLE&#45;SOFTWARE</title>
<g id="a_node1"><a xlink:href="https://score-json.github.io/nlohmann_json/main/_images/custom_TRUSTABLE-SOFTWARE_graph.svg" xlink:title="TRUSTABLE&#45;SOFTWARE: This\nrelease of JSON&#45;Library\nalso referred in the\ndocumentation as nlohmann/json\nlibrary is Trustable.\n" target="_top">
<polygon fill="none" stroke="black" points="993.5,-1475 745.5,-1475 745.5,-1392 993.5,-1392 993.5,-1475"/>
<text text-anchor="middle" x="869.5" y="-1459.8" font-family="Open Sans" font-size="14.00">TRUSTABLE&#45;SOFTWARE: This</text>
<text text-anchor="middle" x="869.5" y="-1444.8" font-family="Open Sans" font-size="14.00">release of JSON&#45;Library</text>
<text text-anchor="middle" x="869.5" y="-1429.8" font-family="Open Sans" font-size="14.00">also referred in the</text>
<text text-anchor="middle" x="869.5" y="-1414.8" font-family="Open Sans" font-size="14.00">documentation as nlohmann/json</text>
<text text-anchor="middle" x="869.5" y="-1399.8" font-family="Open Sans" font-size="14.00">library is Trustable.</text>
</a>
</g>
</g>
<!-- TT&#45;EXPECTATIONS -->
<g id="node13" class="node">
<title>TT&#45;EXPECTATIONS</title>
<g id="a_node13"><a xlink:href="https://score-json.github.io/nlohmann_json/main/_images/custom_TT-EXPECTATIONS_graph.svg" xlink:title="TT&#45;EXPECTATIONS: Documentation\nis provided within eclipse&#45;score/inc_nlohmann_json,\nspecifying what the nlohmann/json\nlibrary is expected to\ndo, and what it must\nnot do, and how this\nis verified. " target="_top">
<polygon fill="none" stroke="black" points="1057,-1248 682,-1248 682,-1135 1057,-1135 1057,-1248"/>
<text text-anchor="middle" x="869.5" y="-1232.8" font-family="Open Sans" font-size="14.00">TT&#45;EXPECTATIONS: Documentation</text>
<text text-anchor="middle" x="869.5" y="-1217.8" font-family="Open Sans" font-size="14.00">is provided within eclipse&#45;score/inc_nlohmann_json,</text>
<text text-anchor="middle" x="869.5" y="-1202.8" font-family="Open Sans" font-size="14.00">specifying what the nlohmann/json</text>
<text text-anchor="middle" x="869.5" y="-1187.8" font-family="Open Sans" font-size="14.00">library is expected to</text>
<text text-anchor="middle" x="869.5" y="-1172.8" font-family="Open Sans" font-size="14.00">do, and what it must</text>
<text text-anchor="middle" x="869.5" y="-1157.8" font-family="Open Sans" font-size="14.00">not do, and how this</text>
<text text-anchor="middle" x="869.5" y="-1142.8" font-family="Open Sans" font-size="14.00">is verified. </text>
</a>
</g>
</g>
<!-- TRUSTABLE&#45;SOFTWARE&#45;&gt;TT&#45;EXPECTATIONS -->
<g id="edge1" class="edge">
<title>TRUSTABLE&#45;SOFTWARE&#45;&gt;TT&#45;EXPECTATIONS</title>
<path fill="none" stroke="black" d="M869.5,-1391.79C869.5,-1355.26 869.5,-1301 869.5,-1258.32"/>
<polygon fill="black" stroke="black" points="873,-1258.29 869.5,-1248.29 866,-1258.29 873,-1258.29"/>
</g>
<!-- JLEX&#45;02 -->
<g id="node2" class="node">
<title>JLEX&#45;02</title>
<g id="a_node2"><a xlink:href="https://score-json.github.io/nlohmann_json/main/_images/custom_JLEX-02_graph.svg" xlink:title="JLEX&#45;02: The requirement\nregarding [JSON Deserialization](https://eclipse&#45;score.github.io/score/main/modules/baselibs/json/docs/requirements/index.html#comp_req__json__deserialization)\nis fulfilled. " target="_top">
<polygon fill="none" stroke="black" points="1440.5,-749 298.5,-749 298.5,-696 1440.5,-696 1440.5,-749"/>
<text text-anchor="middle" x="869.5" y="-733.8" font-family="Open Sans" font-size="14.00">JLEX&#45;02: The requirement</text>
<text text-anchor="middle" x="869.5" y="-718.8" font-family="Open Sans" font-size="14.00">regarding [JSON Deserialization](https://eclipse&#45;score.github.io/score/main/modules/baselibs/json/docs/requirements/index.html#comp_req__json__deserialization)</text>
<text text-anchor="middle" x="869.5" y="-703.8" font-family="Open Sans" font-size="14.00">is fulfilled. </text>
</a>
</g>
</g>
<!-- PJD&#45;03 -->
<g id="node11" class="node">
<title>PJD&#45;03</title>
<g id="a_node11"><a xlink:href="https://score-json.github.io/nlohmann_json/main/_images/custom_PJD-03_graph.svg" xlink:title="PJD&#45;03: The service provided\nby the nlohmann/json\nlibrary parses all texts\nthat conform to the JSON\ngrammar. " target="_top">
<polygon fill="none" stroke="black" points="978,-552 761,-552 761,-469 978,-469 978,-552"/>
<text text-anchor="middle" x="869.5" y="-536.8" font-family="Open Sans" font-size="14.00">PJD&#45;03: The service provided</text>
<text text-anchor="middle" x="869.5" y="-521.8" font-family="Open Sans" font-size="14.00">by the nlohmann/json</text>
<text text-anchor="middle" x="869.5" y="-506.8" font-family="Open Sans" font-size="14.00">library parses all texts</text>
<text text-anchor="middle" x="869.5" y="-491.8" font-family="Open Sans" font-size="14.00">that conform to the JSON</text>
<text text-anchor="middle" x="869.5" y="-476.8" font-family="Open Sans" font-size="14.00">grammar. </text>
</a>
</g>
</g>
<!-- JLEX&#45;02&#45;&gt;PJD&#45;03 -->
<g id="edge2" class="edge">
<title>JLEX&#45;02&#45;&gt;PJD&#45;03</title>
<path fill="none" stroke="black" d="M869.5,-695.75C869.5,-662.66 869.5,-604.48 869.5,-562.33"/>
<polygon fill="black" stroke="black" points="873,-562.25 869.5,-552.25 866,-562.25 873,-562.25"/>
</g>
<!-- NPF&#45;03 -->
<g id="node3" class="node">
<title>NPF&#45;03</title>
<g id="a_node3"><a xlink:href="https://score-json.github.io/nlohmann_json/main/_images/custom_NPF-03_graph.svg" xlink:title="NPF&#45;03: The service provided\nby the nlohmann/json\nlibrary parses strings\naccording to RFC8259.\n" target="_top">
<polygon fill="none" stroke="black" points="980,-325 759,-325 759,-257 980,-257 980,-325"/>
<text text-anchor="middle" x="869.5" y="-309.8" font-family="Open Sans" font-size="14.00">NPF&#45;03: The service provided</text>
<text text-anchor="middle" x="869.5" y="-294.8" font-family="Open Sans" font-size="14.00">by the nlohmann/json</text>
<text text-anchor="middle" x="869.5" y="-279.8" font-family="Open Sans" font-size="14.00">library parses strings</text>
<text text-anchor="middle" x="869.5" y="-264.8" font-family="Open Sans" font-size="14.00">according to RFC8259.</text>
</a>
</g>
</g>
<!-- NPF&#45;03.1 -->
<g id="node4" class="node">
<title>NPF&#45;03.1</title>
<g id="a_node4"><a xlink:href="https://score-json.github.io/nlohmann_json/main/generated/NPF.html#npf-03.1" xlink:title="NPF&#45;03.1: The service\nprovided by the nlohmann/json\nlibrary ignores leading\nand trailing whitespace.\n" target="_top">
<polygon fill="none" stroke="black" points="233,-90.5 0,-90.5 0,-22.5 233,-22.5 233,-90.5"/>
<text text-anchor="middle" x="116.5" y="-75.3" font-family="Open Sans" font-size="14.00">NPF&#45;03.1: The service</text>
<text text-anchor="middle" x="116.5" y="-60.3" font-family="Open Sans" font-size="14.00">provided by the nlohmann/json</text>
<text text-anchor="middle" x="116.5" y="-45.3" font-family="Open Sans" font-size="14.00">library ignores leading</text>
<text text-anchor="middle" x="116.5" y="-30.3" font-family="Open Sans" font-size="14.00">and trailing whitespace.</text>
</a>
</g>
</g>
<!-- NPF&#45;03&#45;&gt;NPF&#45;03.1 -->
<g id="edge3" class="edge">
<title>NPF&#45;03&#45;&gt;NPF&#45;03.1</title>
<path fill="none" stroke="black" d="M758.8,-263.91C632.15,-232.88 419.31,-177.16 241.5,-113 226.43,-107.56 210.61,-101.13 195.5,-94.61"/>
<polygon fill="black" stroke="black" points="196.75,-91.34 186.19,-90.55 193.95,-97.76 196.75,-91.34"/>
</g>
<!-- NPF&#45;03.2 -->
<g id="node5" class="node">
<title>NPF&#45;03.2</title>
<g id="a_node5"><a xlink:href="https://score-json.github.io/nlohmann_json/main/generated/NPF.html#npf-03.2" xlink:title="NPF&#45;03.2: The service\nprovided by the nlohmann/json\nlibrary parses escaped\ncharacters in the basic\nmultilingual plane. " target="_top">
<polygon fill="none" stroke="black" points="484,-98 251,-98 251,-15 484,-15 484,-98"/>
<text text-anchor="middle" x="367.5" y="-82.8" font-family="Open Sans" font-size="14.00">NPF&#45;03.2: The service</text>
<text text-anchor="middle" x="367.5" y="-67.8" font-family="Open Sans" font-size="14.00">provided by the nlohmann/json</text>
<text text-anchor="middle" x="367.5" y="-52.8" font-family="Open Sans" font-size="14.00">library parses escaped</text>
<text text-anchor="middle" x="367.5" y="-37.8" font-family="Open Sans" font-size="14.00">characters in the basic</text>
<text text-anchor="middle" x="367.5" y="-22.8" font-family="Open Sans" font-size="14.00">multilingual plane. </text>
</a>
</g>
</g>
<!-- NPF&#45;03&#45;&gt;NPF&#45;03.2 -->
<g id="edge4" class="edge">
<title>NPF&#45;03&#45;&gt;NPF&#45;03.2</title>
<path fill="none" stroke="black" d="M798.11,-256.94C710.65,-216.43 562.11,-147.63 464.4,-102.38"/>
<polygon fill="black" stroke="black" points="465.65,-99.1 455.1,-98.07 462.71,-105.45 465.65,-99.1"/>
</g>
<!-- NPF&#45;03.3 -->
<g id="node6" class="node">
<title>NPF&#45;03.3</title>
<g id="a_node6"><a xlink:href="https://score-json.github.io/nlohmann_json/main/generated/NPF.html#npf-03.3" xlink:title="NPF&#45;03.3: The service\nprovided by the nlohmann/json\nlibrary ignores capitalisation\nin escaped hexadecimal\nunicode. " target="_top">
<polygon fill="none" stroke="black" points="735,-98 502,-98 502,-15 735,-15 735,-98"/>
<text text-anchor="middle" x="618.5" y="-82.8" font-family="Open Sans" font-size="14.00">NPF&#45;03.3: The service</text>
<text text-anchor="middle" x="618.5" y="-67.8" font-family="Open Sans" font-size="14.00">provided by the nlohmann/json</text>
<text text-anchor="middle" x="618.5" y="-52.8" font-family="Open Sans" font-size="14.00">library ignores capitalisation</text>
<text text-anchor="middle" x="618.5" y="-37.8" font-family="Open Sans" font-size="14.00">in escaped hexadecimal</text>
<text text-anchor="middle" x="618.5" y="-22.8" font-family="Open Sans" font-size="14.00">unicode. </text>
</a>
</g>
</g>
<!-- NPF&#45;03&#45;&gt;NPF&#45;03.3 -->
<g id="edge5" class="edge">
<title>NPF&#45;03&#45;&gt;NPF&#45;03.3</title>
<path fill="none" stroke="black" d="M833.8,-256.94C791.02,-217.31 719,-150.6 670.15,-105.35"/>
<polygon fill="black" stroke="black" points="672.24,-102.5 662.52,-98.28 667.48,-107.64 672.24,-102.5"/>
</g>
<!-- NPF&#45;03.4 -->
<g id="node7" class="node">
<title>NPF&#45;03.4</title>
<g id="a_node7"><a xlink:href="https://score-json.github.io/nlohmann_json/main/generated/NPF.html#npf-03.4" xlink:title="NPF&#45;03.4: The service\nprovided by the nlohmann/json\nlibrary parses all unescaped\nutf&#45;8 characters except\nquotation marks, reverse\nsolidus and the control\ncharacters. " target="_top">
<polygon fill="none" stroke="black" points="986,-113 753,-113 753,0 986,0 986,-113"/>
<text text-anchor="middle" x="869.5" y="-97.8" font-family="Open Sans" font-size="14.00">NPF&#45;03.4: The service</text>
<text text-anchor="middle" x="869.5" y="-82.8" font-family="Open Sans" font-size="14.00">provided by the nlohmann/json</text>
<text text-anchor="middle" x="869.5" y="-67.8" font-family="Open Sans" font-size="14.00">library parses all unescaped</text>
<text text-anchor="middle" x="869.5" y="-52.8" font-family="Open Sans" font-size="14.00">utf&#45;8 characters except</text>
<text text-anchor="middle" x="869.5" y="-37.8" font-family="Open Sans" font-size="14.00">quotation marks, reverse</text>
<text text-anchor="middle" x="869.5" y="-22.8" font-family="Open Sans" font-size="14.00">solidus and the control</text>
<text text-anchor="middle" x="869.5" y="-7.8" font-family="Open Sans" font-size="14.00">characters. </text>
</a>
</g>
</g>
<!-- NPF&#45;03&#45;&gt;NPF&#45;03.4 -->
<g id="edge6" class="edge">
<title>NPF&#45;03&#45;&gt;NPF&#45;03.4</title>
<path fill="none" stroke="black" d="M869.5,-256.69C869.5,-222.05 869.5,-166.91 869.5,-123.41"/>
<polygon fill="black" stroke="black" points="873,-123.19 869.5,-113.19 866,-123.19 873,-123.19"/>
</g>
<!-- NPF&#45;03.5 -->
<g id="node8" class="node">
<title>NPF&#45;03.5</title>
<g id="a_node8"><a xlink:href="https://score-json.github.io/nlohmann_json/main/generated/NPF.html#npf-03.5" xlink:title="NPF&#45;03.5: The service\nprovided by the nlohmann/json\nlibrary parses \\, \\/,\n\\b,\\f, \\n, \\r, \\t\nand escaped quotation\nmarks. " target="_top">
<polygon fill="none" stroke="black" points="1237,-105.5 1004,-105.5 1004,-7.5 1237,-7.5 1237,-105.5"/>
<text text-anchor="middle" x="1120.5" y="-90.3" font-family="Open Sans" font-size="14.00">NPF&#45;03.5: The service</text>
<text text-anchor="middle" x="1120.5" y="-75.3" font-family="Open Sans" font-size="14.00">provided by the nlohmann/json</text>
<text text-anchor="middle" x="1120.5" y="-60.3" font-family="Open Sans" font-size="14.00">library parses \, \/,</text>
<text text-anchor="middle" x="1120.5" y="-45.3" font-family="Open Sans" font-size="14.00">\b,\f, \n, \r, \t</text>
<text text-anchor="middle" x="1120.5" y="-30.3" font-family="Open Sans" font-size="14.00">and escaped quotation</text>
<text text-anchor="middle" x="1120.5" y="-15.3" font-family="Open Sans" font-size="14.00">marks. </text>
</a>
</g>
</g>
<!-- NPF&#45;03&#45;&gt;NPF&#45;03.5 -->
<g id="edge7" class="edge">
<title>NPF&#45;03&#45;&gt;NPF&#45;03.5</title>
<path fill="none" stroke="black" d="M905.2,-256.94C945.66,-219.45 1012.3,-157.73 1060.73,-112.87"/>
<polygon fill="black" stroke="black" points="1063.38,-115.18 1068.34,-105.82 1058.62,-110.04 1063.38,-115.18"/>
</g>
<!-- NPF&#45;03.6 -->
<g id="node9" class="node">
<title>NPF&#45;03.6</title>
<g id="a_node9"><a xlink:href="https://score-json.github.io/nlohmann_json/main/generated/NPF.html#npf-03.6" xlink:title="NPF&#45;03.6: The service\nprovided by the nlohmann/json\nlibrary parses the empty\nstring. " target="_top">
<polygon fill="none" stroke="black" points="1488,-90.5 1255,-90.5 1255,-22.5 1488,-22.5 1488,-90.5"/>
<text text-anchor="middle" x="1371.5" y="-75.3" font-family="Open Sans" font-size="14.00">NPF&#45;03.6: The service</text>
<text text-anchor="middle" x="1371.5" y="-60.3" font-family="Open Sans" font-size="14.00">provided by the nlohmann/json</text>
<text text-anchor="middle" x="1371.5" y="-45.3" font-family="Open Sans" font-size="14.00">library parses the empty</text>
<text text-anchor="middle" x="1371.5" y="-30.3" font-family="Open Sans" font-size="14.00">string. </text>
</a>
</g>
</g>
<!-- NPF&#45;03&#45;&gt;NPF&#45;03.6 -->
<g id="edge8" class="edge">
<title>NPF&#45;03&#45;&gt;NPF&#45;03.6</title>
<path fill="none" stroke="black" d="M940.89,-256.94C1033.33,-214.12 1194.01,-139.7 1290.79,-94.88"/>
<polygon fill="black" stroke="black" points="1292.35,-98.02 1299.95,-90.64 1289.4,-91.67 1292.35,-98.02"/>
</g>
<!-- NPF&#45;03.7 -->
<g id="node10" class="node">
<title>NPF&#45;03.7</title>
<g id="a_node10"><a xlink:href="https://score-json.github.io/nlohmann_json/main/generated/NPF.html#npf-03.7" xlink:title="NPF&#45;03.7: The service\nprovided by the nlohmann/json\nlibrary parses non&#45;empty\nstrings. " target="_top">
<polygon fill="none" stroke="black" points="1739,-90.5 1506,-90.5 1506,-22.5 1739,-22.5 1739,-90.5"/>
<text text-anchor="middle" x="1622.5" y="-75.3" font-family="Open Sans" font-size="14.00">NPF&#45;03.7: The service</text>
<text text-anchor="middle" x="1622.5" y="-60.3" font-family="Open Sans" font-size="14.00">provided by the nlohmann/json</text>
<text text-anchor="middle" x="1622.5" y="-45.3" font-family="Open Sans" font-size="14.00">library parses non&#45;empty</text>
<text text-anchor="middle" x="1622.5" y="-30.3" font-family="Open Sans" font-size="14.00">strings. </text>
</a>
</g>
</g>
<!-- NPF&#45;03&#45;&gt;NPF&#45;03.7 -->
<g id="edge9" class="edge">
<title>NPF&#45;03&#45;&gt;NPF&#45;03.7</title>
<path fill="none" stroke="black" d="M980.2,-263.91C1106.85,-232.88 1319.69,-177.16 1497.5,-113 1512.57,-107.56 1528.39,-101.13 1543.5,-94.61"/>
<polygon fill="black" stroke="black" points="1545.05,-97.76 1552.81,-90.55 1542.25,-91.34 1545.05,-97.76"/>
</g>
<!-- PJD&#45;03&#45;&gt;NPF&#45;03 -->
<g id="edge10" class="edge">
<title>PJD&#45;03&#45;&gt;NPF&#45;03</title>
<path fill="none" stroke="black" d="M869.5,-468.85C869.5,-430.97 869.5,-374.66 869.5,-335.8"/>
<polygon fill="black" stroke="black" points="873,-335.33 869.5,-325.33 866,-335.33 873,-335.33"/>
</g>
<!-- TA&#45;BEHAVIOURS -->
<g id="node12" class="node">
<title>TA&#45;BEHAVIOURS</title>
<g id="a_node12"><a xlink:href="https://score-json.github.io/nlohmann_json/main/_images/custom_TA-BEHAVIOURS_graph.svg" xlink:title="TA&#45;BEHAVIOURS: Expected\nor required behaviours\nfor the nlohmann/json\nlibrary are identified,\nspecified, verified and\nvalidated based on analysis.\n" target="_top">
<polygon fill="none" stroke="black" points="976.5,-991 762.5,-991 762.5,-893 976.5,-893 976.5,-991"/>
<text text-anchor="middle" x="869.5" y="-975.8" font-family="Open Sans" font-size="14.00">TA&#45;BEHAVIOURS: Expected</text>
<text text-anchor="middle" x="869.5" y="-960.8" font-family="Open Sans" font-size="14.00">or required behaviours</text>
<text text-anchor="middle" x="869.5" y="-945.8" font-family="Open Sans" font-size="14.00">for the nlohmann/json</text>
<text text-anchor="middle" x="869.5" y="-930.8" font-family="Open Sans" font-size="14.00">library are identified,</text>
<text text-anchor="middle" x="869.5" y="-915.8" font-family="Open Sans" font-size="14.00">specified, verified and</text>
<text text-anchor="middle" x="869.5" y="-900.8" font-family="Open Sans" font-size="14.00">validated based on analysis.</text>
</a>
</g>
</g>
<!-- TA&#45;BEHAVIOURS&#45;&gt;JLEX&#45;02 -->
<g id="edge11" class="edge">
<title>TA&#45;BEHAVIOURS&#45;&gt;JLEX&#45;02</title>
<path fill="none" stroke="black" d="M869.5,-893C869.5,-852.58 869.5,-795.67 869.5,-759.18"/>
<polygon fill="black" stroke="black" points="873,-759.01 869.5,-749.01 866,-759.01 873,-759.01"/>
</g>
<!-- TT&#45;EXPECTATIONS&#45;&gt;TA&#45;BEHAVIOURS -->
<g id="edge12" class="edge">
<title>TT&#45;EXPECTATIONS&#45;&gt;TA&#45;BEHAVIOURS</title>
<path fill="none" stroke="black" d="M869.5,-1134.96C869.5,-1095.23 869.5,-1041.87 869.5,-1001.49"/>
<polygon fill="black" stroke="black" points="873,-1001.26 869.5,-991.26 866,-1001.26 873,-1001.26"/>
</g>
</g>
</svg>
