<?xml version="1.0" encoding="UTF-8" standalone="no"?>
<!DOCTYPE svg PUBLIC "-//W3C//DTD SVG 1.1//EN"
 "http://www.w3.org/Graphics/SVG/1.1/DTD/svg11.dtd">
<!-- Generated by graphviz version 2.43.0 (0)
 -->
<!-- Title: G Pages: 1 -->
<svg width="1150pt" height="1348pt"
 viewBox="0.00 0.00 1150.00 1348.00" xmlns="http://www.w3.org/2000/svg" xmlns:xlink="http://www.w3.org/1999/xlink">
<g id="graph0" class="graph" transform="scale(1 1) rotate(0) translate(4 1344)">
<title>G</title>
<polygon fill="white" stroke="transparent" points="-4,4 -4,-1344 1146,-1344 1146,4 -4,4"/>
<!-- TRUSTABLE&#45;SOFTWARE -->
<g id="node1" class="node">
<title>TRUSTABLE&#45;SOFTWARE</title>
<g id="a_node1"><a xlink:href="https://score-json.github.io/nlohmann_json/main/_images/custom_TRUSTABLE-SOFTWARE_graph.svg" xlink:title="TRUSTABLE&#45;SOFTWARE: This\nrelease of JSON&#45;Library\nalso reffered in the\ndocumentation as nlohmann/json\nlibrary is Trustable.\n" target="_top">
<polygon fill="none" stroke="black" points="695,-1340 447,-1340 447,-1257 695,-1257 695,-1340"/>
<text text-anchor="middle" x="571" y="-1324.8" font-family="Open Sans" font-size="14.00">TRUSTABLE&#45;SOFTWARE: This</text>
<text text-anchor="middle" x="571" y="-1309.8" font-family="Open Sans" font-size="14.00">release of JSON&#45;Library</text>
<text text-anchor="middle" x="571" y="-1294.8" font-family="Open Sans" font-size="14.00">also reffered in the</text>
<text text-anchor="middle" x="571" y="-1279.8" font-family="Open Sans" font-size="14.00">documentation as nlohmann/json</text>
<text text-anchor="middle" x="571" y="-1264.8" font-family="Open Sans" font-size="14.00">library is Trustable.</text>
</a>
</g>
</g>
<!-- TT&#45;EXPECTATIONS -->
<g id="node9" class="node">
<title>TT&#45;EXPECTATIONS</title>
<g id="a_node9"><a xlink:href="https://score-json.github.io/nlohmann_json/main/_images/custom_TT-EXPECTATIONS_graph.svg" xlink:title="TT&#45;EXPECTATIONS: Documentation\nis provided, specifying\nwhat nlohmann/json library\nis expected to do, and\nwhat it must not do,\nand how this is verified.\n" target="_top">
<polygon fill="none" stroke="black" points="699.5,-1113 442.5,-1113 442.5,-1015 699.5,-1015 699.5,-1113"/>
<text text-anchor="middle" x="571" y="-1097.8" font-family="Open Sans" font-size="14.00">TT&#45;EXPECTATIONS: Documentation</text>
<text text-anchor="middle" x="571" y="-1082.8" font-family="Open Sans" font-size="14.00">is provided, specifying</text>
<text text-anchor="middle" x="571" y="-1067.8" font-family="Open Sans" font-size="14.00">what nlohmann/json library</text>
<text text-anchor="middle" x="571" y="-1052.8" font-family="Open Sans" font-size="14.00">is expected to do, and</text>
<text text-anchor="middle" x="571" y="-1037.8" font-family="Open Sans" font-size="14.00">what it must not do,</text>
<text text-anchor="middle" x="571" y="-1022.8" font-family="Open Sans" font-size="14.00">and how this is verified.</text>
</a>
</g>
</g>
<!-- TRUSTABLE&#45;SOFTWARE&#45;&gt;TT&#45;EXPECTATIONS -->
<g id="edge1" class="edge">
<title>TRUSTABLE&#45;SOFTWARE&#45;&gt;TT&#45;EXPECTATIONS</title>
<path fill="none" stroke="black" d="M571,-1256.74C571,-1219.88 571,-1165.18 571,-1123.63"/>
<polygon fill="black" stroke="black" points="574.5,-1123.37 571,-1113.37 567.5,-1123.37 574.5,-1123.37"/>
</g>
<!-- JLEX&#45;02 -->
<g id="node2" class="node">
<title>JLEX&#45;02</title>
<g id="a_node2"><a xlink:href="https://score-json.github.io/nlohmann_json/main/_images/custom_JLEX-02_graph.svg" xlink:title="JLEX&#45;02: The requirement\nregarding [JSON Deserialization](https://eclipse&#45;score.github.io/score/main/modules/baselibs/json/docs/requirements/index.html#comp_req__json__deserialization)\nis fulfilled. " target="_top">
<polygon fill="none" stroke="black" points="1142,-629 0,-629 0,-576 1142,-576 1142,-629"/>
<text text-anchor="middle" x="571" y="-613.8" font-family="Open Sans" font-size="14.00">JLEX&#45;02: The requirement</text>
<text text-anchor="middle" x="571" y="-598.8" font-family="Open Sans" font-size="14.00">regarding [JSON Deserialization](https://eclipse&#45;score.github.io/score/main/modules/baselibs/json/docs/requirements/index.html#comp_req__json__deserialization)</text>
<text text-anchor="middle" x="571" y="-583.8" font-family="Open Sans" font-size="14.00">is fulfilled. </text>
</a>
</g>
</g>
<!-- PJD&#45;03 -->
<g id="node7" class="node">
<title>PJD&#45;03</title>
<g id="a_node7"><a xlink:href="https://score-json.github.io/nlohmann_json/main/_images/custom_PJD-03_graph.svg" xlink:title="PJD&#45;03: The service parses\nall texts that conform\nto the JSON grammar.\n" target="_top">
<polygon fill="none" stroke="black" points="672.5,-432 469.5,-432 469.5,-379 672.5,-379 672.5,-432"/>
<text text-anchor="middle" x="571" y="-416.8" font-family="Open Sans" font-size="14.00">PJD&#45;03: The service parses</text>
<text text-anchor="middle" x="571" y="-401.8" font-family="Open Sans" font-size="14.00">all texts that conform</text>
<text text-anchor="middle" x="571" y="-386.8" font-family="Open Sans" font-size="14.00">to the JSON grammar.</text>
</a>
</g>
</g>
<!-- JLEX&#45;02&#45;&gt;PJD&#45;03 -->
<g id="edge2" class="edge">
<title>JLEX&#45;02&#45;&gt;PJD&#45;03</title>
<path fill="none" stroke="black" d="M571,-575.61C571,-541.42 571,-481.06 571,-442.46"/>
<polygon fill="black" stroke="black" points="574.5,-442.19 571,-432.19 567.5,-442.19 574.5,-442.19"/>
</g>
<!-- NPF&#45;05 -->
<g id="node3" class="node">
<title>NPF&#45;05</title>
<g id="a_node3"><a xlink:href="https://score-json.github.io/nlohmann_json/main/_images/custom_NPF-05_graph.svg" xlink:title="NPF&#45;05: The service parses\narrays according to RFC8259.\n" target="_top">
<polygon fill="none" stroke="black" points="682.5,-235 459.5,-235 459.5,-197 682.5,-197 682.5,-235"/>
<text text-anchor="middle" x="571" y="-219.8" font-family="Open Sans" font-size="14.00">NPF&#45;05: The service parses</text>
<text text-anchor="middle" x="571" y="-204.8" font-family="Open Sans" font-size="14.00">arrays according to RFC8259.</text>
</a>
</g>
</g>
<!-- NPF&#45;05.1 -->
<g id="node4" class="node">
<title>NPF&#45;05.1</title>
<g id="a_node4"><a xlink:href="https://score-json.github.io/nlohmann_json/main/generated/NPF.html#npf-05.1" xlink:title="NPF&#45;05.1: The service\nignores leading and trailing\nwhitespace for each value.\n" target="_top">
<polygon fill="none" stroke="black" points="468.5,-53 261.5,-53 261.5,0 468.5,0 468.5,-53"/>
<text text-anchor="middle" x="365" y="-37.8" font-family="Open Sans" font-size="14.00">NPF&#45;05.1: The service</text>
<text text-anchor="middle" x="365" y="-22.8" font-family="Open Sans" font-size="14.00">ignores leading and trailing</text>
<text text-anchor="middle" x="365" y="-7.8" font-family="Open Sans" font-size="14.00">whitespace for each value.</text>
</a>
</g>
</g>
<!-- NPF&#45;05&#45;&gt;NPF&#45;05.1 -->
<g id="edge3" class="edge">
<title>NPF&#45;05&#45;&gt;NPF&#45;05.1</title>
<path fill="none" stroke="black" d="M550.87,-196.68C516.01,-164.95 443.98,-99.38 400.53,-59.84"/>
<polygon fill="black" stroke="black" points="402.78,-57.15 393.03,-53.01 398.07,-62.33 402.78,-57.15"/>
</g>
<!-- NPF&#45;05.2 -->
<g id="node5" class="node">
<title>NPF&#45;05.2</title>
<g id="a_node5"><a xlink:href="https://score-json.github.io/nlohmann_json/main/generated/NPF.html#npf-05.2" xlink:title="NPF&#45;05.2: The service\nparses empty arrays.\n" target="_top">
<polygon fill="none" stroke="black" points="655.5,-45.5 486.5,-45.5 486.5,-7.5 655.5,-7.5 655.5,-45.5"/>
<text text-anchor="middle" x="571" y="-30.3" font-family="Open Sans" font-size="14.00">NPF&#45;05.2: The service</text>
<text text-anchor="middle" x="571" y="-15.3" font-family="Open Sans" font-size="14.00">parses empty arrays.</text>
</a>
</g>
</g>
<!-- NPF&#45;05&#45;&gt;NPF&#45;05.2 -->
<g id="edge4" class="edge">
<title>NPF&#45;05&#45;&gt;NPF&#45;05.2</title>
<path fill="none" stroke="black" d="M571,-196.68C571,-163.83 571,-94.71 571,-55.75"/>
<polygon fill="black" stroke="black" points="574.5,-55.62 571,-45.62 567.5,-55.62 574.5,-55.62"/>
</g>
<!-- NPF&#45;05.3 -->
<g id="node6" class="node">
<title>NPF&#45;05.3</title>
<g id="a_node6"><a xlink:href="https://score-json.github.io/nlohmann_json/main/generated/NPF.html#npf-05.3" xlink:title="NPF&#45;05.3: The service\nparses non&#45;empty arrays.\n" target="_top">
<polygon fill="none" stroke="black" points="869,-45.5 673,-45.5 673,-7.5 869,-7.5 869,-45.5"/>
<text text-anchor="middle" x="771" y="-30.3" font-family="Open Sans" font-size="14.00">NPF&#45;05.3: The service</text>
<text text-anchor="middle" x="771" y="-15.3" font-family="Open Sans" font-size="14.00">parses non&#45;empty arrays.</text>
</a>
</g>
</g>
<!-- NPF&#45;05&#45;&gt;NPF&#45;05.3 -->
<g id="edge5" class="edge">
<title>NPF&#45;05&#45;&gt;NPF&#45;05.3</title>
<path fill="none" stroke="black" d="M590.54,-196.68C626.55,-162.92 703.43,-90.84 744.25,-52.58"/>
<polygon fill="black" stroke="black" points="746.77,-55.01 751.67,-45.62 741.98,-49.9 746.77,-55.01"/>
</g>
<!-- PJD&#45;03&#45;&gt;NPF&#45;05 -->
<g id="edge6" class="edge">
<title>PJD&#45;03&#45;&gt;NPF&#45;05</title>
<path fill="none" stroke="black" d="M571,-378.82C571,-343.92 571,-281.7 571,-245.43"/>
<polygon fill="black" stroke="black" points="574.5,-245.06 571,-235.06 567.5,-245.06 574.5,-245.06"/>
</g>
<!-- TA&#45;BEHAVIOURS -->
<g id="node8" class="node">
<title>TA&#45;BEHAVIOURS</title>
<g id="a_node8"><a xlink:href="https://score-json.github.io/nlohmann_json/main/_images/custom_TA-BEHAVIOURS_graph.svg" xlink:title="TA&#45;BEHAVIOURS: Expected\nor required behaviours\nfor nlohmann/json library\nare identified, specified,\nverified and validated\nbased on analysis. " target="_top">
<polygon fill="none" stroke="black" points="673,-871 469,-871 469,-773 673,-773 673,-871"/>
<text text-anchor="middle" x="571" y="-855.8" font-family="Open Sans" font-size="14.00">TA&#45;BEHAVIOURS: Expected</text>
<text text-anchor="middle" x="571" y="-840.8" font-family="Open Sans" font-size="14.00">or required behaviours</text>
<text text-anchor="middle" x="571" y="-825.8" font-family="Open Sans" font-size="14.00">for nlohmann/json library</text>
<text text-anchor="middle" x="571" y="-810.8" font-family="Open Sans" font-size="14.00">are identified, specified,</text>
<text text-anchor="middle" x="571" y="-795.8" font-family="Open Sans" font-size="14.00">verified and validated</text>
<text text-anchor="middle" x="571" y="-780.8" font-family="Open Sans" font-size="14.00">based on analysis. </text>
</a>
</g>
</g>
<!-- TA&#45;BEHAVIOURS&#45;&gt;JLEX&#45;02 -->
<g id="edge7" class="edge">
<title>TA&#45;BEHAVIOURS&#45;&gt;JLEX&#45;02</title>
<path fill="none" stroke="black" d="M571,-773C571,-732.58 571,-675.67 571,-639.18"/>
<polygon fill="black" stroke="black" points="574.5,-639.01 571,-629.01 567.5,-639.01 574.5,-639.01"/>
</g>
<!-- TT&#45;EXPECTATIONS&#45;&gt;TA&#45;BEHAVIOURS -->
<g id="edge8" class="edge">
<title>TT&#45;EXPECTATIONS&#45;&gt;TA&#45;BEHAVIOURS</title>
<path fill="none" stroke="black" d="M571,-1014.72C571,-976.23 571,-922.2 571,-881.3"/>
<polygon fill="black" stroke="black" points="574.5,-881.2 571,-871.2 567.5,-881.2 574.5,-881.2"/>
</g>
</g>
</svg>
