<?xml version="1.0" encoding="UTF-8" standalone="no"?>
<!DOCTYPE svg PUBLIC "-//W3C//DTD SVG 1.1//EN"
 "http://www.w3.org/Graphics/SVG/1.1/DTD/svg11.dtd">
<!-- Generated by graphviz version 2.43.0 (0)
 -->
<!-- Title: G Pages: 1 -->
<svg width="674pt" height="1029pt"
 viewBox="0.00 0.00 673.50 1029.00" xmlns="http://www.w3.org/2000/svg" xmlns:xlink="http://www.w3.org/1999/xlink">
<g id="graph0" class="graph" transform="scale(1 1) rotate(0) translate(4 1025)">
<title>G</title>
<polygon fill="white" stroke="transparent" points="-4,4 -4,-1025 669.5,-1025 669.5,4 -4,4"/>
<!-- TRUSTABLE&#45;SOFTWARE -->
<g id="node1" class="node">
<title>TRUSTABLE&#45;SOFTWARE</title>
<g id="a_node1"><a xlink:href="https://score-json.github.io/nlohmann_json/main/_images/custom_TRUSTABLE-SOFTWARE_graph.svg" xlink:title="TRUSTABLE&#45;SOFTWARE: This\nrelease of JSON&#45;Library\nalso referred in the\ndocumentation as nlohmann/json\nlibrary is Trustable.\n" target="_top">
<polygon fill="none" stroke="black" points="438.5,-1021 190.5,-1021 190.5,-938 438.5,-938 438.5,-1021"/>
<text text-anchor="middle" x="314.5" y="-1005.8" font-family="Open Sans" font-size="14.00">TRUSTABLE&#45;SOFTWARE: This</text>
<text text-anchor="middle" x="314.5" y="-990.8" font-family="Open Sans" font-size="14.00">release of JSON&#45;Library</text>
<text text-anchor="middle" x="314.5" y="-975.8" font-family="Open Sans" font-size="14.00">also referred in the</text>
<text text-anchor="middle" x="314.5" y="-960.8" font-family="Open Sans" font-size="14.00">documentation as nlohmann/json</text>
<text text-anchor="middle" x="314.5" y="-945.8" font-family="Open Sans" font-size="14.00">library is Trustable.</text>
</a>
</g>
</g>
<!-- TT&#45;CONSTRUCTION -->
<g id="node7" class="node">
<title>TT&#45;CONSTRUCTION</title>
<g id="a_node7"><a xlink:href="https://score-json.github.io/nlohmann_json/main/_images/custom_TT-CONSTRUCTION_graph.svg" xlink:title="TT&#45;CONSTRUCTION: Tools\nare provided to build\nthe nlohmann/json library\nfrom trusted sources\n(also provided) with\nfull reproducibility.\n" target="_top">
<polygon fill="none" stroke="black" points="412.5,-794 216.5,-794 216.5,-696 412.5,-696 412.5,-794"/>
<text text-anchor="middle" x="314.5" y="-778.8" font-family="Open Sans" font-size="14.00">TT&#45;CONSTRUCTION: Tools</text>
<text text-anchor="middle" x="314.5" y="-763.8" font-family="Open Sans" font-size="14.00">are provided to build</text>
<text text-anchor="middle" x="314.5" y="-748.8" font-family="Open Sans" font-size="14.00">the nlohmann/json library</text>
<text text-anchor="middle" x="314.5" y="-733.8" font-family="Open Sans" font-size="14.00">from trusted sources</text>
<text text-anchor="middle" x="314.5" y="-718.8" font-family="Open Sans" font-size="14.00">(also provided) with</text>
<text text-anchor="middle" x="314.5" y="-703.8" font-family="Open Sans" font-size="14.00">full reproducibility.</text>
</a>
</g>
</g>
<!-- TRUSTABLE&#45;SOFTWARE&#45;&gt;TT&#45;CONSTRUCTION -->
<g id="edge1" class="edge">
<title>TRUSTABLE&#45;SOFTWARE&#45;&gt;TT&#45;CONSTRUCTION</title>
<path fill="none" stroke="black" d="M314.5,-937.74C314.5,-900.88 314.5,-846.18 314.5,-804.63"/>
<polygon fill="black" stroke="black" points="318,-804.37 314.5,-794.37 311,-804.37 318,-804.37"/>
</g>
<!-- JLS&#45;52 -->
<g id="node2" class="node">
<title>JLS&#45;52</title>
<g id="a_node2"><a xlink:href="https://score-json.github.io/nlohmann_json/main/_images/custom_JLS-52_graph.svg" xlink:title="JLS&#45;52: Releases of the\nnlohmann/json library\ncontain a comprehensive\nset of attestations.\n" target="_top">
<polygon fill="none" stroke="black" points="410,-325 219,-325 219,-257 410,-257 410,-325"/>
<text text-anchor="middle" x="314.5" y="-309.8" font-family="Open Sans" font-size="14.00">JLS&#45;52: Releases of the</text>
<text text-anchor="middle" x="314.5" y="-294.8" font-family="Open Sans" font-size="14.00">nlohmann/json library</text>
<text text-anchor="middle" x="314.5" y="-279.8" font-family="Open Sans" font-size="14.00">contain a comprehensive</text>
<text text-anchor="middle" x="314.5" y="-264.8" font-family="Open Sans" font-size="14.00">set of attestations.</text>
</a>
</g>
</g>
<!-- JLS&#45;63 -->
<g id="node3" class="node">
<title>JLS&#45;63</title>
<g id="a_node3"><a xlink:href="https://score-json.github.io/nlohmann_json/main/generated/JLS.html#jls-63" xlink:title="JLS&#45;63: Releases of the\nnlohmann/json library\ncontain commit sign&#45;offs.\n" target="_top">
<polygon fill="none" stroke="black" points="193,-83 0,-83 0,-30 193,-30 193,-83"/>
<text text-anchor="middle" x="96.5" y="-67.8" font-family="Open Sans" font-size="14.00">JLS&#45;63: Releases of the</text>
<text text-anchor="middle" x="96.5" y="-52.8" font-family="Open Sans" font-size="14.00">nlohmann/json library</text>
<text text-anchor="middle" x="96.5" y="-37.8" font-family="Open Sans" font-size="14.00">contain commit sign&#45;offs.</text>
</a>
</g>
</g>
<!-- JLS&#45;52&#45;&gt;JLS&#45;63 -->
<g id="edge2" class="edge">
<title>JLS&#45;52&#45;&gt;JLS&#45;63</title>
<path fill="none" stroke="black" d="M283.27,-256.69C241.75,-212.41 168.84,-134.65 127.46,-90.52"/>
<polygon fill="black" stroke="black" points="130.01,-88.12 120.61,-83.22 124.9,-92.9 130.01,-88.12"/>
</g>
<!-- JLS&#45;64 -->
<g id="node4" class="node">
<title>JLS&#45;64</title>
<g id="a_node4"><a xlink:href="https://score-json.github.io/nlohmann_json/main/generated/JLS.html#jls-64" xlink:title="JLS&#45;64: Releases of the\nnlohmann/json library\ncontain Github pull request\napprovals. " target="_top">
<polygon fill="none" stroke="black" points="417.5,-90.5 211.5,-90.5 211.5,-22.5 417.5,-22.5 417.5,-90.5"/>
<text text-anchor="middle" x="314.5" y="-75.3" font-family="Open Sans" font-size="14.00">JLS&#45;64: Releases of the</text>
<text text-anchor="middle" x="314.5" y="-60.3" font-family="Open Sans" font-size="14.00">nlohmann/json library</text>
<text text-anchor="middle" x="314.5" y="-45.3" font-family="Open Sans" font-size="14.00">contain Github pull request</text>
<text text-anchor="middle" x="314.5" y="-30.3" font-family="Open Sans" font-size="14.00">approvals. </text>
</a>
</g>
</g>
<!-- JLS&#45;52&#45;&gt;JLS&#45;64 -->
<g id="edge3" class="edge">
<title>JLS&#45;52&#45;&gt;JLS&#45;64</title>
<path fill="none" stroke="black" d="M314.5,-256.69C314.5,-215.68 314.5,-145.95 314.5,-100.82"/>
<polygon fill="black" stroke="black" points="318,-100.75 314.5,-90.75 311,-100.75 318,-100.75"/>
</g>
<!-- JLS&#45;65 -->
<g id="node5" class="node">
<title>JLS&#45;65</title>
<g id="a_node5"><a xlink:href="https://score-json.github.io/nlohmann_json/main/generated/JLS.html#jls-65" xlink:title="JLS&#45;65: Releases of the\nnlohmann/json library\ncontain continuous&#45;integration\ntest reports such as\ncoverage reports, fuzzing\nreports &amp; OpenSSF scorecard\nreports. " target="_top">
<polygon fill="none" stroke="black" points="665.5,-113 435.5,-113 435.5,0 665.5,0 665.5,-113"/>
<text text-anchor="middle" x="550.5" y="-97.8" font-family="Open Sans" font-size="14.00">JLS&#45;65: Releases of the</text>
<text text-anchor="middle" x="550.5" y="-82.8" font-family="Open Sans" font-size="14.00">nlohmann/json library</text>
<text text-anchor="middle" x="550.5" y="-67.8" font-family="Open Sans" font-size="14.00">contain continuous&#45;integration</text>
<text text-anchor="middle" x="550.5" y="-52.8" font-family="Open Sans" font-size="14.00">test reports such as</text>
<text text-anchor="middle" x="550.5" y="-37.8" font-family="Open Sans" font-size="14.00">coverage reports, fuzzing</text>
<text text-anchor="middle" x="550.5" y="-22.8" font-family="Open Sans" font-size="14.00">reports &amp; OpenSSF scorecard</text>
<text text-anchor="middle" x="550.5" y="-7.8" font-family="Open Sans" font-size="14.00">reports. </text>
</a>
</g>
</g>
<!-- JLS&#45;52&#45;&gt;JLS&#45;65 -->
<g id="edge4" class="edge">
<title>JLS&#45;52&#45;&gt;JLS&#45;65</title>
<path fill="none" stroke="black" d="M348.06,-256.94C383.99,-221.55 441.83,-164.56 486.51,-120.54"/>
<polygon fill="black" stroke="black" points="489.17,-122.83 493.84,-113.32 484.26,-117.84 489.17,-122.83"/>
</g>
<!-- TA&#45;ITERATIONS -->
<g id="node6" class="node">
<title>TA&#45;ITERATIONS</title>
<g id="a_node6"><a xlink:href="https://score-json.github.io/nlohmann_json/main/_images/custom_TA-ITERATIONS_graph.svg" xlink:title="TA&#45;ITERATIONS: All constructed\niterations of the nlohmann/json\nlibrary include source\ncode, build instructions,\ntests, results and attestations.\n" target="_top">
<polygon fill="none" stroke="black" points="431.5,-552 197.5,-552 197.5,-469 431.5,-469 431.5,-552"/>
<text text-anchor="middle" x="314.5" y="-536.8" font-family="Open Sans" font-size="14.00">TA&#45;ITERATIONS: All constructed</text>
<text text-anchor="middle" x="314.5" y="-521.8" font-family="Open Sans" font-size="14.00">iterations of the nlohmann/json</text>
<text text-anchor="middle" x="314.5" y="-506.8" font-family="Open Sans" font-size="14.00">library include source</text>
<text text-anchor="middle" x="314.5" y="-491.8" font-family="Open Sans" font-size="14.00">code, build instructions,</text>
<text text-anchor="middle" x="314.5" y="-476.8" font-family="Open Sans" font-size="14.00">tests, results and attestations.</text>
</a>
</g>
</g>
<!-- TA&#45;ITERATIONS&#45;&gt;JLS&#45;52 -->
<g id="edge5" class="edge">
<title>TA&#45;ITERATIONS&#45;&gt;JLS&#45;52</title>
<path fill="none" stroke="black" d="M314.5,-468.85C314.5,-430.97 314.5,-374.66 314.5,-335.8"/>
<polygon fill="black" stroke="black" points="318,-335.33 314.5,-325.33 311,-335.33 318,-335.33"/>
</g>
<!-- TT&#45;CONSTRUCTION&#45;&gt;TA&#45;ITERATIONS -->
<g id="edge6" class="edge">
<title>TT&#45;CONSTRUCTION&#45;&gt;TA&#45;ITERATIONS</title>
<path fill="none" stroke="black" d="M314.5,-695.83C314.5,-656.79 314.5,-601.95 314.5,-562.25"/>
<polygon fill="black" stroke="black" points="318,-562.24 314.5,-552.24 311,-562.24 318,-562.24"/>
</g>
</g>
</svg>
