<?xml version="1.0" encoding="UTF-8" standalone="no"?>
<!DOCTYPE svg PUBLIC "-//W3C//DTD SVG 1.1//EN"
 "http://www.w3.org/Graphics/SVG/1.1/DTD/svg11.dtd">
<!-- Generated by graphviz version 2.43.0 (0)
 -->
<!-- Title: G Pages: 1 -->
<svg width="1245pt" height="1241pt"
 viewBox="0.00 0.00 1245.00 1241.00" xmlns="http://www.w3.org/2000/svg" xmlns:xlink="http://www.w3.org/1999/xlink">
<g id="graph0" class="graph" transform="scale(1 1) rotate(0) translate(4 1237)">
<title>G</title>
<polygon fill="white" stroke="transparent" points="-4,4 -4,-1237 1241,-1237 1241,4 -4,4"/>
<!-- TRUSTABLE&#45;SOFTWARE -->
<g id="node1" class="node">
<title>TRUSTABLE&#45;SOFTWARE</title>
<g id="a_node1"><a xlink:href="https://score-json.github.io/nlohmann_json/main/_images/custom_TRUSTABLE-SOFTWARE_graph.svg" xlink:title="TRUSTABLE&#45;SOFTWARE: This\nrelease of JSON&#45;Library\nalso referred in the\ndocumentation as nlohmann/json\nlibrary is Trustable.\n" target="_top">
<polygon fill="none" stroke="black" points="742.5,-1233 494.5,-1233 494.5,-1150 742.5,-1150 742.5,-1233"/>
<text text-anchor="middle" x="618.5" y="-1217.8" font-family="Open Sans" font-size="14.00">TRUSTABLE&#45;SOFTWARE: This</text>
<text text-anchor="middle" x="618.5" y="-1202.8" font-family="Open Sans" font-size="14.00">release of JSON&#45;Library</text>
<text text-anchor="middle" x="618.5" y="-1187.8" font-family="Open Sans" font-size="14.00">also referred in the</text>
<text text-anchor="middle" x="618.5" y="-1172.8" font-family="Open Sans" font-size="14.00">documentation as nlohmann/json</text>
<text text-anchor="middle" x="618.5" y="-1157.8" font-family="Open Sans" font-size="14.00">library is Trustable.</text>
</a>
</g>
</g>
<!-- TT&#45;EXPECTATIONS -->
<g id="node10" class="node">
<title>TT&#45;EXPECTATIONS</title>
<g id="a_node10"><a xlink:href="https://score-json.github.io/nlohmann_json/main/_images/custom_TT-EXPECTATIONS_graph.svg" xlink:title="TT&#45;EXPECTATIONS: Documentation\nis provided within eclipse&#45;score/inc_nlohmann_json,\nspecifying what the nlohmann/json\nlibrary is expected to\ndo, and what it must\nnot do, and how this\nis verified. " target="_top">
<polygon fill="none" stroke="black" points="806,-1006 431,-1006 431,-893 806,-893 806,-1006"/>
<text text-anchor="middle" x="618.5" y="-990.8" font-family="Open Sans" font-size="14.00">TT&#45;EXPECTATIONS: Documentation</text>
<text text-anchor="middle" x="618.5" y="-975.8" font-family="Open Sans" font-size="14.00">is provided within eclipse&#45;score/inc_nlohmann_json,</text>
<text text-anchor="middle" x="618.5" y="-960.8" font-family="Open Sans" font-size="14.00">specifying what the nlohmann/json</text>
<text text-anchor="middle" x="618.5" y="-945.8" font-family="Open Sans" font-size="14.00">library is expected to</text>
<text text-anchor="middle" x="618.5" y="-930.8" font-family="Open Sans" font-size="14.00">do, and what it must</text>
<text text-anchor="middle" x="618.5" y="-915.8" font-family="Open Sans" font-size="14.00">not do, and how this</text>
<text text-anchor="middle" x="618.5" y="-900.8" font-family="Open Sans" font-size="14.00">is verified. </text>
</a>
</g>
</g>
<!-- TRUSTABLE&#45;SOFTWARE&#45;&gt;TT&#45;EXPECTATIONS -->
<g id="edge1" class="edge">
<title>TRUSTABLE&#45;SOFTWARE&#45;&gt;TT&#45;EXPECTATIONS</title>
<path fill="none" stroke="black" d="M618.5,-1149.79C618.5,-1113.26 618.5,-1059 618.5,-1016.32"/>
<polygon fill="black" stroke="black" points="622,-1016.29 618.5,-1006.29 615,-1016.29 622,-1016.29"/>
</g>
<!-- JLS&#45;24 -->
<g id="node2" class="node">
<title>JLS&#45;24</title>
<g id="a_node2"><a xlink:href="https://score-json.github.io/nlohmann_json/main/_images/custom_JLS-24_graph.svg" xlink:title="JLS&#45;24: The nlohmann/json\nlibrary recognizes malformed\nJSON and returns an exception.\n" target="_top">
<polygon fill="none" stroke="black" points="736,-492 501,-492 501,-439 736,-439 736,-492"/>
<text text-anchor="middle" x="618.5" y="-476.8" font-family="Open Sans" font-size="14.00">JLS&#45;24: The nlohmann/json</text>
<text text-anchor="middle" x="618.5" y="-461.8" font-family="Open Sans" font-size="14.00">library recognizes malformed</text>
<text text-anchor="middle" x="618.5" y="-446.8" font-family="Open Sans" font-size="14.00">JSON and returns an exception.</text>
</a>
</g>
</g>
<!-- TIJ&#45;03 -->
<g id="node4" class="node">
<title>TIJ&#45;03</title>
<g id="a_node4"><a xlink:href="https://score-json.github.io/nlohmann_json/main/_images/custom_TIJ-03_graph.svg" xlink:title="TIJ&#45;03: The parsing service\nprovided by the nlohmann/json\nlibrary throws an exception\non ill&#45;formed strings.\n" target="_top">
<polygon fill="none" stroke="black" points="735,-295 502,-295 502,-227 735,-227 735,-295"/>
<text text-anchor="middle" x="618.5" y="-279.8" font-family="Open Sans" font-size="14.00">TIJ&#45;03: The parsing service</text>
<text text-anchor="middle" x="618.5" y="-264.8" font-family="Open Sans" font-size="14.00">provided by the nlohmann/json</text>
<text text-anchor="middle" x="618.5" y="-249.8" font-family="Open Sans" font-size="14.00">library throws an exception</text>
<text text-anchor="middle" x="618.5" y="-234.8" font-family="Open Sans" font-size="14.00">on ill&#45;formed strings.</text>
</a>
</g>
</g>
<!-- JLS&#45;24&#45;&gt;TIJ&#45;03 -->
<g id="edge2" class="edge">
<title>JLS&#45;24&#45;&gt;TIJ&#45;03</title>
<path fill="none" stroke="black" d="M618.5,-438.85C618.5,-405.27 618.5,-345.91 618.5,-305.3"/>
<polygon fill="black" stroke="black" points="622,-305.15 618.5,-295.15 615,-305.15 622,-305.15"/>
</g>
<!-- TA&#45;MISBEHAVIOURS -->
<g id="node3" class="node">
<title>TA&#45;MISBEHAVIOURS</title>
<g id="a_node3"><a xlink:href="https://score-json.github.io/nlohmann_json/main/_images/custom_TA-MISBEHAVIOURS_graph.svg" xlink:title="TA&#45;MISBEHAVIOURS: Prohibited\nmisbehaviours for the\nnlohmann/json library\nare identified, and mitigations\nare specified, verified\nand validated based on\nanalysis. " target="_top">
<polygon fill="none" stroke="black" points="736.5,-749 500.5,-749 500.5,-636 736.5,-636 736.5,-749"/>
<text text-anchor="middle" x="618.5" y="-733.8" font-family="Open Sans" font-size="14.00">TA&#45;MISBEHAVIOURS: Prohibited</text>
<text text-anchor="middle" x="618.5" y="-718.8" font-family="Open Sans" font-size="14.00">misbehaviours for the</text>
<text text-anchor="middle" x="618.5" y="-703.8" font-family="Open Sans" font-size="14.00">nlohmann/json library</text>
<text text-anchor="middle" x="618.5" y="-688.8" font-family="Open Sans" font-size="14.00">are identified, and mitigations</text>
<text text-anchor="middle" x="618.5" y="-673.8" font-family="Open Sans" font-size="14.00">are specified, verified</text>
<text text-anchor="middle" x="618.5" y="-658.8" font-family="Open Sans" font-size="14.00">and validated based on</text>
<text text-anchor="middle" x="618.5" y="-643.8" font-family="Open Sans" font-size="14.00">analysis. </text>
</a>
</g>
</g>
<!-- TA&#45;MISBEHAVIOURS&#45;&gt;JLS&#45;24 -->
<g id="edge3" class="edge">
<title>TA&#45;MISBEHAVIOURS&#45;&gt;JLS&#45;24</title>
<path fill="none" stroke="black" d="M618.5,-635.88C618.5,-594.07 618.5,-538.04 618.5,-502.09"/>
<polygon fill="black" stroke="black" points="622,-502.07 618.5,-492.07 615,-502.07 622,-502.07"/>
</g>
<!-- TIJ&#45;03.1 -->
<g id="node5" class="node">
<title>TIJ&#45;03.1</title>
<g id="a_node5"><a xlink:href="https://score-json.github.io/nlohmann_json/main/generated/TIJ.html#tij-03.1" xlink:title="TIJ&#45;03.1: The service\nprovided by the nlohmann/json\nlibrary throws an exception\non unescaped control\ncharacters. " target="_top">
<polygon fill="none" stroke="black" points="233,-83 0,-83 0,0 233,0 233,-83"/>
<text text-anchor="middle" x="116.5" y="-67.8" font-family="Open Sans" font-size="14.00">TIJ&#45;03.1: The service</text>
<text text-anchor="middle" x="116.5" y="-52.8" font-family="Open Sans" font-size="14.00">provided by the nlohmann/json</text>
<text text-anchor="middle" x="116.5" y="-37.8" font-family="Open Sans" font-size="14.00">library throws an exception</text>
<text text-anchor="middle" x="116.5" y="-22.8" font-family="Open Sans" font-size="14.00">on unescaped control</text>
<text text-anchor="middle" x="116.5" y="-7.8" font-family="Open Sans" font-size="14.00">characters. </text>
</a>
</g>
</g>
<!-- TIJ&#45;03&#45;&gt;TIJ&#45;03.1 -->
<g id="edge4" class="edge">
<title>TIJ&#45;03&#45;&gt;TIJ&#45;03.1</title>
<path fill="none" stroke="black" d="M542.26,-226.97C456.12,-189.65 315.47,-128.71 219.59,-87.17"/>
<polygon fill="black" stroke="black" points="220.73,-83.85 210.17,-83.08 217.95,-90.27 220.73,-83.85"/>
</g>
<!-- TIJ&#45;03.2 -->
<g id="node6" class="node">
<title>TIJ&#45;03.2</title>
<g id="a_node6"><a xlink:href="https://score-json.github.io/nlohmann_json/main/generated/TIJ.html#tij-03.2" xlink:title="TIJ&#45;03.2: The service\nprovided by the nlohmann/json\nlibrary throws an exception\non unpaired utf&#45;16 surrogates.\n" target="_top">
<polygon fill="none" stroke="black" points="484,-75.5 251,-75.5 251,-7.5 484,-7.5 484,-75.5"/>
<text text-anchor="middle" x="367.5" y="-60.3" font-family="Open Sans" font-size="14.00">TIJ&#45;03.2: The service</text>
<text text-anchor="middle" x="367.5" y="-45.3" font-family="Open Sans" font-size="14.00">provided by the nlohmann/json</text>
<text text-anchor="middle" x="367.5" y="-30.3" font-family="Open Sans" font-size="14.00">library throws an exception</text>
<text text-anchor="middle" x="367.5" y="-15.3" font-family="Open Sans" font-size="14.00">on unpaired utf&#45;16 surrogates.</text>
</a>
</g>
</g>
<!-- TIJ&#45;03&#45;&gt;TIJ&#45;03.2 -->
<g id="edge5" class="edge">
<title>TIJ&#45;03&#45;&gt;TIJ&#45;03.2</title>
<path fill="none" stroke="black" d="M580.38,-226.97C535.69,-188.24 461.66,-124.09 413.73,-82.56"/>
<polygon fill="black" stroke="black" points="415.83,-79.75 405.98,-75.84 411.25,-85.04 415.83,-79.75"/>
</g>
<!-- TIJ&#45;03.3 -->
<g id="node7" class="node">
<title>TIJ&#45;03.3</title>
<g id="a_node7"><a xlink:href="https://score-json.github.io/nlohmann_json/main/generated/TIJ.html#tij-03.3" xlink:title="TIJ&#45;03.3: The service\nprovided by the nlohmann/json\nlibrary throws an exception\non improperly bounded\nstrings. " target="_top">
<polygon fill="none" stroke="black" points="735,-83 502,-83 502,0 735,0 735,-83"/>
<text text-anchor="middle" x="618.5" y="-67.8" font-family="Open Sans" font-size="14.00">TIJ&#45;03.3: The service</text>
<text text-anchor="middle" x="618.5" y="-52.8" font-family="Open Sans" font-size="14.00">provided by the nlohmann/json</text>
<text text-anchor="middle" x="618.5" y="-37.8" font-family="Open Sans" font-size="14.00">library throws an exception</text>
<text text-anchor="middle" x="618.5" y="-22.8" font-family="Open Sans" font-size="14.00">on improperly bounded</text>
<text text-anchor="middle" x="618.5" y="-7.8" font-family="Open Sans" font-size="14.00">strings. </text>
</a>
</g>
</g>
<!-- TIJ&#45;03&#45;&gt;TIJ&#45;03.3 -->
<g id="edge6" class="edge">
<title>TIJ&#45;03&#45;&gt;TIJ&#45;03.3</title>
<path fill="none" stroke="black" d="M618.5,-226.97C618.5,-191.47 618.5,-134.61 618.5,-93.39"/>
<polygon fill="black" stroke="black" points="622,-93.27 618.5,-83.27 615,-93.27 622,-93.27"/>
</g>
<!-- TIJ&#45;03.4 -->
<g id="node8" class="node">
<title>TIJ&#45;03.4</title>
<g id="a_node8"><a xlink:href="https://score-json.github.io/nlohmann_json/main/generated/TIJ.html#tij-03.4" xlink:title="TIJ&#45;03.4: The service\nprovided by the nlohmann/json\nlibrary throws an exception\non escaped invalid characters.\n" target="_top">
<polygon fill="none" stroke="black" points="986,-75.5 753,-75.5 753,-7.5 986,-7.5 986,-75.5"/>
<text text-anchor="middle" x="869.5" y="-60.3" font-family="Open Sans" font-size="14.00">TIJ&#45;03.4: The service</text>
<text text-anchor="middle" x="869.5" y="-45.3" font-family="Open Sans" font-size="14.00">provided by the nlohmann/json</text>
<text text-anchor="middle" x="869.5" y="-30.3" font-family="Open Sans" font-size="14.00">library throws an exception</text>
<text text-anchor="middle" x="869.5" y="-15.3" font-family="Open Sans" font-size="14.00">on escaped invalid characters.</text>
</a>
</g>
</g>
<!-- TIJ&#45;03&#45;&gt;TIJ&#45;03.4 -->
<g id="edge7" class="edge">
<title>TIJ&#45;03&#45;&gt;TIJ&#45;03.4</title>
<path fill="none" stroke="black" d="M656.62,-226.97C701.31,-188.24 775.34,-124.09 823.27,-82.56"/>
<polygon fill="black" stroke="black" points="825.75,-85.04 831.02,-75.84 821.17,-79.75 825.75,-85.04"/>
</g>
<!-- TIJ&#45;03.5 -->
<g id="node9" class="node">
<title>TIJ&#45;03.5</title>
<g id="a_node9"><a xlink:href="https://score-json.github.io/nlohmann_json/main/generated/TIJ.html#tij-03.5" xlink:title="TIJ&#45;03.5: The service\nprovided by the nlohmann/json\nlibrary throws an exception\non incorrect surrogate\npairs. " target="_top">
<polygon fill="none" stroke="black" points="1237,-83 1004,-83 1004,0 1237,0 1237,-83"/>
<text text-anchor="middle" x="1120.5" y="-67.8" font-family="Open Sans" font-size="14.00">TIJ&#45;03.5: The service</text>
<text text-anchor="middle" x="1120.5" y="-52.8" font-family="Open Sans" font-size="14.00">provided by the nlohmann/json</text>
<text text-anchor="middle" x="1120.5" y="-37.8" font-family="Open Sans" font-size="14.00">library throws an exception</text>
<text text-anchor="middle" x="1120.5" y="-22.8" font-family="Open Sans" font-size="14.00">on incorrect surrogate</text>
<text text-anchor="middle" x="1120.5" y="-7.8" font-family="Open Sans" font-size="14.00">pairs. </text>
</a>
</g>
</g>
<!-- TIJ&#45;03&#45;&gt;TIJ&#45;03.5 -->
<g id="edge8" class="edge">
<title>TIJ&#45;03&#45;&gt;TIJ&#45;03.5</title>
<path fill="none" stroke="black" d="M694.74,-226.97C780.88,-189.65 921.53,-128.71 1017.41,-87.17"/>
<polygon fill="black" stroke="black" points="1019.05,-90.27 1026.83,-83.08 1016.27,-83.85 1019.05,-90.27"/>
</g>
<!-- TT&#45;EXPECTATIONS&#45;&gt;TA&#45;MISBEHAVIOURS -->
<g id="edge9" class="edge">
<title>TT&#45;EXPECTATIONS&#45;&gt;TA&#45;MISBEHAVIOURS</title>
<path fill="none" stroke="black" d="M618.5,-892.85C618.5,-853.46 618.5,-800.47 618.5,-759.03"/>
<polygon fill="black" stroke="black" points="622,-759.03 618.5,-749.03 615,-759.03 622,-759.03"/>
</g>
</g>
</svg>
