<?xml version="1.0" encoding="UTF-8" standalone="no"?>
<!DOCTYPE svg PUBLIC "-//W3C//DTD SVG 1.1//EN"
 "http://www.w3.org/Graphics/SVG/1.1/DTD/svg11.dtd">
<!-- Generated by graphviz version 2.43.0 (0)
 -->
<!-- Title: G Pages: 1 -->
<svg width="1150pt" height="1468pt"
 viewBox="0.00 0.00 1150.00 1468.00" xmlns="http://www.w3.org/2000/svg" xmlns:xlink="http://www.w3.org/1999/xlink">
<g id="graph0" class="graph" transform="scale(1 1) rotate(0) translate(4 1464)">
<title>G</title>
<polygon fill="white" stroke="transparent" points="-4,4 -4,-1464 1146,-1464 1146,4 -4,4"/>
<!-- TRUSTABLE&#45;SOFTWARE -->
<g id="node1" class="node">
<title>TRUSTABLE&#45;SOFTWARE</title>
<g id="a_node1"><a xlink:href="https://score-json.github.io/nlohmann_json/main/_images/custom_TRUSTABLE-SOFTWARE_graph.svg" xlink:title="TRUSTABLE&#45;SOFTWARE: This\nrelease of JSON&#45;Library\nalso referred in the\ndocumentation as nlohmann/json\nlibrary is Trustable.\n" target="_top">
<polygon fill="none" stroke="black" points="695,-1460 447,-1460 447,-1377 695,-1377 695,-1460"/>
<text text-anchor="middle" x="571" y="-1444.8" font-family="Open Sans" font-size="14.00">TRUSTABLE&#45;SOFTWARE: This</text>
<text text-anchor="middle" x="571" y="-1429.8" font-family="Open Sans" font-size="14.00">release of JSON&#45;Library</text>
<text text-anchor="middle" x="571" y="-1414.8" font-family="Open Sans" font-size="14.00">also referred in the</text>
<text text-anchor="middle" x="571" y="-1399.8" font-family="Open Sans" font-size="14.00">documentation as nlohmann/json</text>
<text text-anchor="middle" x="571" y="-1384.8" font-family="Open Sans" font-size="14.00">library is Trustable.</text>
</a>
</g>
</g>
<!-- TT&#45;EXPECTATIONS -->
<g id="node10" class="node">
<title>TT&#45;EXPECTATIONS</title>
<g id="a_node10"><a xlink:href="https://score-json.github.io/nlohmann_json/main/_images/custom_TT-EXPECTATIONS_graph.svg" xlink:title="TT&#45;EXPECTATIONS: Documentation\nis provided within eclipse&#45;score/inc_nlohmann_json,\nspecifying what the nlohmann/json\nlibrary is expected to\ndo, and what it must\nnot do, and how this\nis verified. " target="_top">
<polygon fill="none" stroke="black" points="758.5,-1233 383.5,-1233 383.5,-1120 758.5,-1120 758.5,-1233"/>
<text text-anchor="middle" x="571" y="-1217.8" font-family="Open Sans" font-size="14.00">TT&#45;EXPECTATIONS: Documentation</text>
<text text-anchor="middle" x="571" y="-1202.8" font-family="Open Sans" font-size="14.00">is provided within eclipse&#45;score/inc_nlohmann_json,</text>
<text text-anchor="middle" x="571" y="-1187.8" font-family="Open Sans" font-size="14.00">specifying what the nlohmann/json</text>
<text text-anchor="middle" x="571" y="-1172.8" font-family="Open Sans" font-size="14.00">library is expected to</text>
<text text-anchor="middle" x="571" y="-1157.8" font-family="Open Sans" font-size="14.00">do, and what it must</text>
<text text-anchor="middle" x="571" y="-1142.8" font-family="Open Sans" font-size="14.00">not do, and how this</text>
<text text-anchor="middle" x="571" y="-1127.8" font-family="Open Sans" font-size="14.00">is verified. </text>
</a>
</g>
</g>
<!-- TRUSTABLE&#45;SOFTWARE&#45;&gt;TT&#45;EXPECTATIONS -->
<g id="edge1" class="edge">
<title>TRUSTABLE&#45;SOFTWARE&#45;&gt;TT&#45;EXPECTATIONS</title>
<path fill="none" stroke="black" d="M571,-1376.79C571,-1340.26 571,-1286 571,-1243.32"/>
<polygon fill="black" stroke="black" points="574.5,-1243.29 571,-1233.29 567.5,-1243.29 574.5,-1243.29"/>
</g>
<!-- JLEX&#45;02 -->
<g id="node2" class="node">
<title>JLEX&#45;02</title>
<g id="a_node2"><a xlink:href="https://score-json.github.io/nlohmann_json/main/_images/custom_JLEX-02_graph.svg" xlink:title="JLEX&#45;02: The requirement\nregarding [JSON Deserialization](https://eclipse&#45;score.github.io/score/main/modules/baselibs/json/docs/requirements/index.html#comp_req__json__deserialization)\nis fulfilled. " target="_top">
<polygon fill="none" stroke="black" points="1142,-734 0,-734 0,-681 1142,-681 1142,-734"/>
<text text-anchor="middle" x="571" y="-718.8" font-family="Open Sans" font-size="14.00">JLEX&#45;02: The requirement</text>
<text text-anchor="middle" x="571" y="-703.8" font-family="Open Sans" font-size="14.00">regarding [JSON Deserialization](https://eclipse&#45;score.github.io/score/main/modules/baselibs/json/docs/requirements/index.html#comp_req__json__deserialization)</text>
<text text-anchor="middle" x="571" y="-688.8" font-family="Open Sans" font-size="14.00">is fulfilled. </text>
</a>
</g>
</g>
<!-- PJD&#45;03 -->
<g id="node8" class="node">
<title>PJD&#45;03</title>
<g id="a_node8"><a xlink:href="https://score-json.github.io/nlohmann_json/main/_images/custom_PJD-03_graph.svg" xlink:title="PJD&#45;03: The service provided\nby the nlohmann/json\nlibrary parses all texts\nthat conform to the JSON\ngrammar. " target="_top">
<polygon fill="none" stroke="black" points="679.5,-537 462.5,-537 462.5,-454 679.5,-454 679.5,-537"/>
<text text-anchor="middle" x="571" y="-521.8" font-family="Open Sans" font-size="14.00">PJD&#45;03: The service provided</text>
<text text-anchor="middle" x="571" y="-506.8" font-family="Open Sans" font-size="14.00">by the nlohmann/json</text>
<text text-anchor="middle" x="571" y="-491.8" font-family="Open Sans" font-size="14.00">library parses all texts</text>
<text text-anchor="middle" x="571" y="-476.8" font-family="Open Sans" font-size="14.00">that conform to the JSON</text>
<text text-anchor="middle" x="571" y="-461.8" font-family="Open Sans" font-size="14.00">grammar. </text>
</a>
</g>
</g>
<!-- JLEX&#45;02&#45;&gt;PJD&#45;03 -->
<g id="edge2" class="edge">
<title>JLEX&#45;02&#45;&gt;PJD&#45;03</title>
<path fill="none" stroke="black" d="M571,-680.75C571,-647.66 571,-589.48 571,-547.33"/>
<polygon fill="black" stroke="black" points="574.5,-547.25 571,-537.25 567.5,-547.25 574.5,-547.25"/>
</g>
<!-- NPF&#45;06 -->
<g id="node3" class="node">
<title>NPF&#45;06</title>
<g id="a_node3"><a xlink:href="https://score-json.github.io/nlohmann_json/main/_images/custom_NPF-06_graph.svg" xlink:title="NPF&#45;06: The service provided\nby the nlohmann/json\nlibrary parses objects\naccording to RFC8259.\n" target="_top">
<polygon fill="none" stroke="black" points="681.5,-310 460.5,-310 460.5,-242 681.5,-242 681.5,-310"/>
<text text-anchor="middle" x="571" y="-294.8" font-family="Open Sans" font-size="14.00">NPF&#45;06: The service provided</text>
<text text-anchor="middle" x="571" y="-279.8" font-family="Open Sans" font-size="14.00">by the nlohmann/json</text>
<text text-anchor="middle" x="571" y="-264.8" font-family="Open Sans" font-size="14.00">library parses objects</text>
<text text-anchor="middle" x="571" y="-249.8" font-family="Open Sans" font-size="14.00">according to RFC8259.</text>
</a>
</g>
</g>
<!-- NPF&#45;06.1 -->
<g id="node4" class="node">
<title>NPF&#45;06.1</title>
<g id="a_node4"><a xlink:href="https://score-json.github.io/nlohmann_json/main/generated/NPF.html#npf-06.1" xlink:title="NPF&#45;06.1: The service\nprovided by the nlohmann/json\nlibrary ignores leading\nand trailing whitespace\nfor name and value of\neach member. " target="_top">
<polygon fill="none" stroke="black" points="311.5,-98 78.5,-98 78.5,0 311.5,0 311.5,-98"/>
<text text-anchor="middle" x="195" y="-82.8" font-family="Open Sans" font-size="14.00">NPF&#45;06.1: The service</text>
<text text-anchor="middle" x="195" y="-67.8" font-family="Open Sans" font-size="14.00">provided by the nlohmann/json</text>
<text text-anchor="middle" x="195" y="-52.8" font-family="Open Sans" font-size="14.00">library ignores leading</text>
<text text-anchor="middle" x="195" y="-37.8" font-family="Open Sans" font-size="14.00">and trailing whitespace</text>
<text text-anchor="middle" x="195" y="-22.8" font-family="Open Sans" font-size="14.00">for name and value of</text>
<text text-anchor="middle" x="195" y="-7.8" font-family="Open Sans" font-size="14.00">each member. </text>
</a>
</g>
</g>
<!-- NPF&#45;06&#45;&gt;NPF&#45;06.1 -->
<g id="edge3" class="edge">
<title>NPF&#45;06&#45;&gt;NPF&#45;06.1</title>
<path fill="none" stroke="black" d="M515.52,-241.8C454.57,-205.33 355.81,-146.23 284,-103.26"/>
<polygon fill="black" stroke="black" points="285.76,-100.23 275.38,-98.1 282.17,-106.24 285.76,-100.23"/>
</g>
<!-- NPF&#45;06.2 -->
<g id="node5" class="node">
<title>NPF&#45;06.2</title>
<g id="a_node5"><a xlink:href="https://score-json.github.io/nlohmann_json/main/generated/NPF.html#npf-06.2" xlink:title="NPF&#45;06.2: The service\nprovided by the nlohmann/json\nlibrary parses duplicate\nnames without error and\nreports the last member\nwith that name only.\n" target="_top">
<polygon fill="none" stroke="black" points="562.5,-98 329.5,-98 329.5,0 562.5,0 562.5,-98"/>
<text text-anchor="middle" x="446" y="-82.8" font-family="Open Sans" font-size="14.00">NPF&#45;06.2: The service</text>
<text text-anchor="middle" x="446" y="-67.8" font-family="Open Sans" font-size="14.00">provided by the nlohmann/json</text>
<text text-anchor="middle" x="446" y="-52.8" font-family="Open Sans" font-size="14.00">library parses duplicate</text>
<text text-anchor="middle" x="446" y="-37.8" font-family="Open Sans" font-size="14.00">names without error and</text>
<text text-anchor="middle" x="446" y="-22.8" font-family="Open Sans" font-size="14.00">reports the last member</text>
<text text-anchor="middle" x="446" y="-7.8" font-family="Open Sans" font-size="14.00">with that name only.</text>
</a>
</g>
</g>
<!-- NPF&#45;06&#45;&gt;NPF&#45;06.2 -->
<g id="edge4" class="edge">
<title>NPF&#45;06&#45;&gt;NPF&#45;06.2</title>
<path fill="none" stroke="black" d="M552.56,-241.8C532.9,-206.42 501.42,-149.76 477.76,-107.17"/>
<polygon fill="black" stroke="black" points="480.76,-105.35 472.84,-98.31 474.64,-108.75 480.76,-105.35"/>
</g>
<!-- NPF&#45;06.3 -->
<g id="node6" class="node">
<title>NPF&#45;06.3</title>
<g id="a_node6"><a xlink:href="https://score-json.github.io/nlohmann_json/main/generated/NPF.html#npf-06.3" xlink:title="NPF&#45;06.3: The service\nprovided by the nlohmann/json\nlibrary parses empty\nobjects. " target="_top">
<polygon fill="none" stroke="black" points="813.5,-83 580.5,-83 580.5,-15 813.5,-15 813.5,-83"/>
<text text-anchor="middle" x="697" y="-67.8" font-family="Open Sans" font-size="14.00">NPF&#45;06.3: The service</text>
<text text-anchor="middle" x="697" y="-52.8" font-family="Open Sans" font-size="14.00">provided by the nlohmann/json</text>
<text text-anchor="middle" x="697" y="-37.8" font-family="Open Sans" font-size="14.00">library parses empty</text>
<text text-anchor="middle" x="697" y="-22.8" font-family="Open Sans" font-size="14.00">objects. </text>
</a>
</g>
</g>
<!-- NPF&#45;06&#45;&gt;NPF&#45;06.3 -->
<g id="edge5" class="edge">
<title>NPF&#45;06&#45;&gt;NPF&#45;06.3</title>
<path fill="none" stroke="black" d="M589.59,-241.8C611.83,-202.09 649.1,-135.54 673.36,-92.21"/>
<polygon fill="black" stroke="black" points="676.5,-93.77 678.33,-83.34 670.39,-90.35 676.5,-93.77"/>
</g>
<!-- NPF&#45;06.4 -->
<g id="node7" class="node">
<title>NPF&#45;06.4</title>
<g id="a_node7"><a xlink:href="https://score-json.github.io/nlohmann_json/main/generated/NPF.html#npf-06.4" xlink:title="NPF&#45;06.4: The service\nprovided by the nlohmann/json\nlibrary parses non&#45;empty\nobjects. " target="_top">
<polygon fill="none" stroke="black" points="1064.5,-83 831.5,-83 831.5,-15 1064.5,-15 1064.5,-83"/>
<text text-anchor="middle" x="948" y="-67.8" font-family="Open Sans" font-size="14.00">NPF&#45;06.4: The service</text>
<text text-anchor="middle" x="948" y="-52.8" font-family="Open Sans" font-size="14.00">provided by the nlohmann/json</text>
<text text-anchor="middle" x="948" y="-37.8" font-family="Open Sans" font-size="14.00">library parses non&#45;empty</text>
<text text-anchor="middle" x="948" y="-22.8" font-family="Open Sans" font-size="14.00">objects. </text>
</a>
</g>
</g>
<!-- NPF&#45;06&#45;&gt;NPF&#45;06.4 -->
<g id="edge6" class="edge">
<title>NPF&#45;06&#45;&gt;NPF&#45;06.4</title>
<path fill="none" stroke="black" d="M626.63,-241.8C695.22,-200.86 811.57,-131.42 883.86,-88.28"/>
<polygon fill="black" stroke="black" points="885.66,-91.28 892.45,-83.15 882.07,-85.27 885.66,-91.28"/>
</g>
<!-- PJD&#45;03&#45;&gt;NPF&#45;06 -->
<g id="edge7" class="edge">
<title>PJD&#45;03&#45;&gt;NPF&#45;06</title>
<path fill="none" stroke="black" d="M571,-453.85C571,-415.97 571,-359.66 571,-320.8"/>
<polygon fill="black" stroke="black" points="574.5,-320.33 571,-310.33 567.5,-320.33 574.5,-320.33"/>
</g>
<!-- TA&#45;BEHAVIOURS -->
<g id="node9" class="node">
<title>TA&#45;BEHAVIOURS</title>
<g id="a_node9"><a xlink:href="https://score-json.github.io/nlohmann_json/main/_images/custom_TA-BEHAVIOURS_graph.svg" xlink:title="TA&#45;BEHAVIOURS: Expected\nor required behaviours\nfor the nlohmann/json\nlibrary are identified,\nspecified, verified and\nvalidated based on analysis.\n" target="_top">
<polygon fill="none" stroke="black" points="678,-976 464,-976 464,-878 678,-878 678,-976"/>
<text text-anchor="middle" x="571" y="-960.8" font-family="Open Sans" font-size="14.00">TA&#45;BEHAVIOURS: Expected</text>
<text text-anchor="middle" x="571" y="-945.8" font-family="Open Sans" font-size="14.00">or required behaviours</text>
<text text-anchor="middle" x="571" y="-930.8" font-family="Open Sans" font-size="14.00">for the nlohmann/json</text>
<text text-anchor="middle" x="571" y="-915.8" font-family="Open Sans" font-size="14.00">library are identified,</text>
<text text-anchor="middle" x="571" y="-900.8" font-family="Open Sans" font-size="14.00">specified, verified and</text>
<text text-anchor="middle" x="571" y="-885.8" font-family="Open Sans" font-size="14.00">validated based on analysis.</text>
</a>
</g>
</g>
<!-- TA&#45;BEHAVIOURS&#45;&gt;JLEX&#45;02 -->
<g id="edge8" class="edge">
<title>TA&#45;BEHAVIOURS&#45;&gt;JLEX&#45;02</title>
<path fill="none" stroke="black" d="M571,-878C571,-837.58 571,-780.67 571,-744.18"/>
<polygon fill="black" stroke="black" points="574.5,-744.01 571,-734.01 567.5,-744.01 574.5,-744.01"/>
</g>
<!-- TT&#45;EXPECTATIONS&#45;&gt;TA&#45;BEHAVIOURS -->
<g id="edge9" class="edge">
<title>TT&#45;EXPECTATIONS&#45;&gt;TA&#45;BEHAVIOURS</title>
<path fill="none" stroke="black" d="M571,-1119.96C571,-1080.23 571,-1026.87 571,-986.49"/>
<polygon fill="black" stroke="black" points="574.5,-986.26 571,-976.26 567.5,-986.26 574.5,-986.26"/>
</g>
</g>
</svg>
