<?xml version="1.0" encoding="UTF-8" standalone="no"?>
<!DOCTYPE svg PUBLIC "-//W3C//DTD SVG 1.1//EN"
 "http://www.w3.org/Graphics/SVG/1.1/DTD/svg11.dtd">
<!-- Generated by graphviz version 2.43.0 (0)
 -->
<!-- Title: G Pages: 1 -->
<svg width="2327pt" height="862pt"
 viewBox="0.00 0.00 2327.00 862.00" xmlns="http://www.w3.org/2000/svg" xmlns:xlink="http://www.w3.org/1999/xlink">
<g id="graph0" class="graph" transform="scale(1 1) rotate(0) translate(4 858)">
<title>G</title>
<polygon fill="white" stroke="transparent" points="-4,4 -4,-858 2323,-858 2323,4 -4,4"/>
<!-- TRUSTABLE&#45;SOFTWARE -->
<g id="node1" class="node">
<title>TRUSTABLE&#45;SOFTWARE</title>
<g id="a_node1"><a xlink:href="https://score-json.github.io/inc_nlohmann_json/main/_images/custom_TRUSTABLE-SOFTWARE_graph.svg" xlink:title="TRUSTABLE&#45;SOFTWARE: This\nrelease of JSON&#45;Library\nalso referred in the\ndocumentation as nlohmann/json\nlibrary is Trustable.\n" target="_top">
<polygon fill="none" stroke="black" points="1204,-854 956,-854 956,-771 1204,-771 1204,-854"/>
<text text-anchor="middle" x="1080" y="-838.8" font-family="Open Sans" font-size="14.00">TRUSTABLE&#45;SOFTWARE: This</text>
<text text-anchor="middle" x="1080" y="-823.8" font-family="Open Sans" font-size="14.00">release of JSON&#45;Library</text>
<text text-anchor="middle" x="1080" y="-808.8" font-family="Open Sans" font-size="14.00">also referred in the</text>
<text text-anchor="middle" x="1080" y="-793.8" font-family="Open Sans" font-size="14.00">documentation as nlohmann/json</text>
<text text-anchor="middle" x="1080" y="-778.8" font-family="Open Sans" font-size="14.00">library is Trustable.</text>
</a>
</g>
</g>
<!-- TT&#45;CHANGES -->
<g id="node11" class="node">
<title>TT&#45;CHANGES</title>
<g id="a_node11"><a xlink:href="https://score-json.github.io/inc_nlohmann_json/main/_images/custom_TT-CHANGES_graph.svg" xlink:title="TT&#45;CHANGES: The nlohmann/json\nlibrary is actively maintained,\nwith regular updates\nto dependencies, and\nchanges are verified\nto prevent regressions.\n" target="_top">
<polygon fill="none" stroke="black" points="1204,-627 956,-627 956,-529 1204,-529 1204,-627"/>
<text text-anchor="middle" x="1080" y="-611.8" font-family="Open Sans" font-size="14.00">TT&#45;CHANGES: The nlohmann/json</text>
<text text-anchor="middle" x="1080" y="-596.8" font-family="Open Sans" font-size="14.00">library is actively maintained,</text>
<text text-anchor="middle" x="1080" y="-581.8" font-family="Open Sans" font-size="14.00">with regular updates</text>
<text text-anchor="middle" x="1080" y="-566.8" font-family="Open Sans" font-size="14.00">to dependencies, and</text>
<text text-anchor="middle" x="1080" y="-551.8" font-family="Open Sans" font-size="14.00">changes are verified</text>
<text text-anchor="middle" x="1080" y="-536.8" font-family="Open Sans" font-size="14.00">to prevent regressions.</text>
</a>
</g>
</g>
<!-- TRUSTABLE&#45;SOFTWARE&#45;&gt;TT&#45;CHANGES -->
<g id="edge1" class="edge">
<title>TRUSTABLE&#45;SOFTWARE&#45;&gt;TT&#45;CHANGES</title>
<path fill="none" stroke="black" d="M1080,-770.74C1080,-733.88 1080,-679.18 1080,-637.63"/>
<polygon fill="black" stroke="black" points="1083.5,-637.37 1080,-627.37 1076.5,-637.37 1083.5,-637.37"/>
</g>
<!-- JLS&#45;04 -->
<g id="node2" class="node">
<title>JLS&#45;04</title>
<g id="a_node2"><a xlink:href="https://score-json.github.io/inc_nlohmann_json/main/generated/JLS.html#jls-04" xlink:title="JLS&#45;04: External dependencies\nwithin nlohmann/json\nare checked for potential\nsecurity vulnerabilities\nwith each pull request\nto main. Merging is blocked\nuntil all warnings are\nresolved. " target="_top">
<polygon fill="none" stroke="black" points="228,-128 0,-128 0,0 228,0 228,-128"/>
<text text-anchor="middle" x="114" y="-112.8" font-family="Open Sans" font-size="14.00">JLS&#45;04: External dependencies</text>
<text text-anchor="middle" x="114" y="-97.8" font-family="Open Sans" font-size="14.00">within nlohmann/json</text>
<text text-anchor="middle" x="114" y="-82.8" font-family="Open Sans" font-size="14.00">are checked for potential</text>
<text text-anchor="middle" x="114" y="-67.8" font-family="Open Sans" font-size="14.00">security vulnerabilities</text>
<text text-anchor="middle" x="114" y="-52.8" font-family="Open Sans" font-size="14.00">with each pull request</text>
<text text-anchor="middle" x="114" y="-37.8" font-family="Open Sans" font-size="14.00">to main. Merging is blocked</text>
<text text-anchor="middle" x="114" y="-22.8" font-family="Open Sans" font-size="14.00">until all warnings are</text>
<text text-anchor="middle" x="114" y="-7.8" font-family="Open Sans" font-size="14.00">resolved. </text>
</a>
</g>
</g>
<!-- JLS&#45;05 -->
<g id="node3" class="node">
<title>JLS&#45;05</title>
<g id="a_node3"><a xlink:href="https://score-json.github.io/inc_nlohmann_json/main/generated/JLS.html#jls-05" xlink:title="JLS&#45;05: The nlohmann/json\nlibrary is widely used\nand actively maintained;\nbugs and misbehaviours\nare tracked publicly\nand transparently. " target="_top">
<polygon fill="none" stroke="black" points="449.5,-113 246.5,-113 246.5,-15 449.5,-15 449.5,-113"/>
<text text-anchor="middle" x="348" y="-97.8" font-family="Open Sans" font-size="14.00">JLS&#45;05: The nlohmann/json</text>
<text text-anchor="middle" x="348" y="-82.8" font-family="Open Sans" font-size="14.00">library is widely used</text>
<text text-anchor="middle" x="348" y="-67.8" font-family="Open Sans" font-size="14.00">and actively maintained;</text>
<text text-anchor="middle" x="348" y="-52.8" font-family="Open Sans" font-size="14.00">bugs and misbehaviours</text>
<text text-anchor="middle" x="348" y="-37.8" font-family="Open Sans" font-size="14.00">are tracked publicly</text>
<text text-anchor="middle" x="348" y="-22.8" font-family="Open Sans" font-size="14.00">and transparently. </text>
</a>
</g>
</g>
<!-- JLS&#45;11 -->
<g id="node4" class="node">
<title>JLS&#45;11</title>
<g id="a_node4"><a xlink:href="https://score-json.github.io/inc_nlohmann_json/main/generated/JLS.html#jls-11" xlink:title="JLS&#45;11: Outstanding bugs\nor misbehaviours are\nanalyzed within eclipse&#45;score/inc_nlohmann_json\nto determine whether\nthey are relevant for\nS&#45;CORE&#39;s use cases of\nthe nlohmann/json library.\n" target="_top">
<polygon fill="none" stroke="black" points="823,-120.5 467,-120.5 467,-7.5 823,-7.5 823,-120.5"/>
<text text-anchor="middle" x="645" y="-105.3" font-family="Open Sans" font-size="14.00">JLS&#45;11: Outstanding bugs</text>
<text text-anchor="middle" x="645" y="-90.3" font-family="Open Sans" font-size="14.00">or misbehaviours are</text>
<text text-anchor="middle" x="645" y="-75.3" font-family="Open Sans" font-size="14.00">analyzed within eclipse&#45;score/inc_nlohmann_json</text>
<text text-anchor="middle" x="645" y="-60.3" font-family="Open Sans" font-size="14.00">to determine whether</text>
<text text-anchor="middle" x="645" y="-45.3" font-family="Open Sans" font-size="14.00">they are relevant for</text>
<text text-anchor="middle" x="645" y="-30.3" font-family="Open Sans" font-size="14.00">S&#45;CORE&#39;s use cases of</text>
<text text-anchor="middle" x="645" y="-15.3" font-family="Open Sans" font-size="14.00">the nlohmann/json library.</text>
</a>
</g>
</g>
<!-- JLS&#45;28 -->
<g id="node5" class="node">
<title>JLS&#45;28</title>
<g id="a_node5"><a xlink:href="https://score-json.github.io/inc_nlohmann_json/main/generated/JLS.html#jls-28" xlink:title="JLS&#45;28: Outstanding bugs\nand misbehaviours are\ntriaged in the nlohmann/json\nrepository. " target="_top">
<polygon fill="none" stroke="black" points="1059,-98 841,-98 841,-30 1059,-30 1059,-98"/>
<text text-anchor="middle" x="950" y="-82.8" font-family="Open Sans" font-size="14.00">JLS&#45;28: Outstanding bugs</text>
<text text-anchor="middle" x="950" y="-67.8" font-family="Open Sans" font-size="14.00">and misbehaviours are</text>
<text text-anchor="middle" x="950" y="-52.8" font-family="Open Sans" font-size="14.00">triaged in the nlohmann/json</text>
<text text-anchor="middle" x="950" y="-37.8" font-family="Open Sans" font-size="14.00">repository. </text>
</a>
</g>
</g>
<!-- JLS&#45;29 -->
<g id="node6" class="node">
<title>JLS&#45;29</title>
<g id="a_node6"><a xlink:href="https://score-json.github.io/inc_nlohmann_json/main/generated/JLS.html#jls-29" xlink:title="JLS&#45;29: Known bugs, misbehaviours\nand CVEs are analyzed\nand either fixed or mitigated\nin the nlohmann/json\nrepository. " target="_top">
<polygon fill="none" stroke="black" points="1343,-105.5 1077,-105.5 1077,-22.5 1343,-22.5 1343,-105.5"/>
<text text-anchor="middle" x="1210" y="-90.3" font-family="Open Sans" font-size="14.00">JLS&#45;29: Known bugs, misbehaviours</text>
<text text-anchor="middle" x="1210" y="-75.3" font-family="Open Sans" font-size="14.00">and CVEs are analyzed</text>
<text text-anchor="middle" x="1210" y="-60.3" font-family="Open Sans" font-size="14.00">and either fixed or mitigated</text>
<text text-anchor="middle" x="1210" y="-45.3" font-family="Open Sans" font-size="14.00">in the nlohmann/json</text>
<text text-anchor="middle" x="1210" y="-30.3" font-family="Open Sans" font-size="14.00">repository. </text>
</a>
</g>
</g>
<!-- JLS&#45;30 -->
<g id="node7" class="node">
<title>JLS&#45;30</title>
<g id="a_node7"><a xlink:href="https://score-json.github.io/inc_nlohmann_json/main/generated/JLS.html#jls-30" xlink:title="JLS&#45;30: Outstanding CVEs\nare analyzed within eclipse&#45;score/inc_nlohmann_json\nto determine whether\nthey can be dismissed,\nand/or are relevant for\nS&#45;CORE&#39;s use cases of\nthe nlohmann/json library.\n" target="_top">
<polygon fill="none" stroke="black" points="1744.5,-120.5 1361.5,-120.5 1361.5,-7.5 1744.5,-7.5 1744.5,-120.5"/>
<text text-anchor="middle" x="1553" y="-105.3" font-family="Open Sans" font-size="14.00">JLS&#45;30: Outstanding CVEs</text>
<text text-anchor="middle" x="1553" y="-90.3" font-family="Open Sans" font-size="14.00">are analyzed within eclipse&#45;score/inc_nlohmann_json</text>
<text text-anchor="middle" x="1553" y="-75.3" font-family="Open Sans" font-size="14.00">to determine whether</text>
<text text-anchor="middle" x="1553" y="-60.3" font-family="Open Sans" font-size="14.00">they can be dismissed,</text>
<text text-anchor="middle" x="1553" y="-45.3" font-family="Open Sans" font-size="14.00">and/or are relevant for</text>
<text text-anchor="middle" x="1553" y="-30.3" font-family="Open Sans" font-size="14.00">S&#45;CORE&#39;s use cases of</text>
<text text-anchor="middle" x="1553" y="-15.3" font-family="Open Sans" font-size="14.00">the nlohmann/json library.</text>
</a>
</g>
</g>
<!-- JLS&#45;33 -->
<g id="node8" class="node">
<title>JLS&#45;33</title>
<g id="a_node8"><a xlink:href="https://score-json.github.io/inc_nlohmann_json/main/generated/JLS.html#jls-33" xlink:title="JLS&#45;33: Outstanding CVEs\nare triaged in the nlohmann/json\nrepository. " target="_top">
<polygon fill="none" stroke="black" points="2007,-90.5 1763,-90.5 1763,-37.5 2007,-37.5 2007,-90.5"/>
<text text-anchor="middle" x="1885" y="-75.3" font-family="Open Sans" font-size="14.00">JLS&#45;33: Outstanding CVEs</text>
<text text-anchor="middle" x="1885" y="-60.3" font-family="Open Sans" font-size="14.00">are triaged in the nlohmann/json</text>
<text text-anchor="middle" x="1885" y="-45.3" font-family="Open Sans" font-size="14.00">repository. </text>
</a>
</g>
</g>
<!-- JLS&#45;57 -->
<g id="node9" class="node">
<title>JLS&#45;57</title>
<g id="a_node9"><a xlink:href="https://score-json.github.io/inc_nlohmann_json/main/generated/JLS.html#jls-57" xlink:title="JLS&#45;57: Outstanding bugs\nor misbehaviours of nlohmann/json\nare fetched and saved\nwithin eclipse&#45;score/inc_nlohmann_json.\n" target="_top">
<polygon fill="none" stroke="black" points="2319,-98 2025,-98 2025,-30 2319,-30 2319,-98"/>
<text text-anchor="middle" x="2172" y="-82.8" font-family="Open Sans" font-size="14.00">JLS&#45;57: Outstanding bugs</text>
<text text-anchor="middle" x="2172" y="-67.8" font-family="Open Sans" font-size="14.00">or misbehaviours of nlohmann/json</text>
<text text-anchor="middle" x="2172" y="-52.8" font-family="Open Sans" font-size="14.00">are fetched and saved</text>
<text text-anchor="middle" x="2172" y="-37.8" font-family="Open Sans" font-size="14.00">within eclipse&#45;score/inc_nlohmann_json.</text>
</a>
</g>
</g>
<!-- TA&#45;FIXES -->
<g id="node10" class="node">
<title>TA&#45;FIXES</title>
<g id="a_node10"><a xlink:href="https://score-json.github.io/inc_nlohmann_json/main/_images/custom_TA-FIXES_graph.svg" xlink:title="TA&#45;FIXES: In the nlohmann/json\nrepository, known bugs\nor misbehaviours are\nanalysed and triaged,\nand critical fixes or\nmitigations are implemented\nor applied. " target="_top">
<polygon fill="none" stroke="black" points="1198,-385 962,-385 962,-272 1198,-272 1198,-385"/>
<text text-anchor="middle" x="1080" y="-369.8" font-family="Open Sans" font-size="14.00">TA&#45;FIXES: In the nlohmann/json</text>
<text text-anchor="middle" x="1080" y="-354.8" font-family="Open Sans" font-size="14.00">repository, known bugs</text>
<text text-anchor="middle" x="1080" y="-339.8" font-family="Open Sans" font-size="14.00">or misbehaviours are</text>
<text text-anchor="middle" x="1080" y="-324.8" font-family="Open Sans" font-size="14.00">analysed and triaged,</text>
<text text-anchor="middle" x="1080" y="-309.8" font-family="Open Sans" font-size="14.00">and critical fixes or</text>
<text text-anchor="middle" x="1080" y="-294.8" font-family="Open Sans" font-size="14.00">mitigations are implemented</text>
<text text-anchor="middle" x="1080" y="-279.8" font-family="Open Sans" font-size="14.00">or applied. </text>
</a>
</g>
</g>
<!-- TA&#45;FIXES&#45;&gt;JLS&#45;04 -->
<g id="edge3" class="edge">
<title>TA&#45;FIXES&#45;&gt;JLS&#45;04</title>
<path fill="none" stroke="black" d="M961.83,-308.81C798.35,-280.92 495.2,-221.79 237.69,-128.1"/>
<polygon fill="black" stroke="black" points="238.76,-124.77 228.17,-124.62 236.36,-131.34 238.76,-124.77"/>
</g>
<!-- TA&#45;FIXES&#45;&gt;JLS&#45;05 -->
<g id="edge2" class="edge">
<title>TA&#45;FIXES&#45;&gt;JLS&#45;05</title>
<path fill="none" stroke="black" d="M961.81,-297.56C834.64,-263.52 627.79,-202.86 458,-128 450.92,-124.88 443.71,-121.43 436.54,-117.79"/>
<polygon fill="black" stroke="black" points="437.98,-114.6 427.49,-113.11 434.76,-120.81 437.98,-114.6"/>
</g>
<!-- TA&#45;FIXES&#45;&gt;JLS&#45;11 -->
<g id="edge4" class="edge">
<title>TA&#45;FIXES&#45;&gt;JLS&#45;11</title>
<path fill="none" stroke="black" d="M988.01,-271.99C917.09,-229.19 819.11,-170.07 746.02,-125.96"/>
<polygon fill="black" stroke="black" points="747.6,-122.83 737.23,-120.66 743.99,-128.82 747.6,-122.83"/>
</g>
<!-- TA&#45;FIXES&#45;&gt;JLS&#45;28 -->
<g id="edge7" class="edge">
<title>TA&#45;FIXES&#45;&gt;JLS&#45;28</title>
<path fill="none" stroke="black" d="M1052.43,-271.83C1028.08,-222.65 993.09,-152 970.96,-107.32"/>
<polygon fill="black" stroke="black" points="974.01,-105.6 966.44,-98.2 967.74,-108.71 974.01,-105.6"/>
</g>
<!-- TA&#45;FIXES&#45;&gt;JLS&#45;29 -->
<g id="edge6" class="edge">
<title>TA&#45;FIXES&#45;&gt;JLS&#45;29</title>
<path fill="none" stroke="black" d="M1107.57,-271.83C1130.6,-225.32 1163.14,-159.61 1185.33,-114.82"/>
<polygon fill="black" stroke="black" points="1188.6,-116.11 1189.9,-105.59 1182.32,-113 1188.6,-116.11"/>
</g>
<!-- TA&#45;FIXES&#45;&gt;JLS&#45;30 -->
<g id="edge5" class="edge">
<title>TA&#45;FIXES&#45;&gt;JLS&#45;30</title>
<path fill="none" stroke="black" d="M1180.02,-271.99C1257.29,-229.11 1364.11,-169.83 1443.64,-125.69"/>
<polygon fill="black" stroke="black" points="1445.67,-128.57 1452.71,-120.66 1442.27,-122.45 1445.67,-128.57"/>
</g>
<!-- TA&#45;FIXES&#45;&gt;JLS&#45;33 -->
<g id="edge8" class="edge">
<title>TA&#45;FIXES&#45;&gt;JLS&#45;33</title>
<path fill="none" stroke="black" d="M1198.19,-298.67C1334.28,-264.06 1563.57,-201.43 1754,-128 1778.63,-118.5 1805,-106.25 1827.58,-95.08"/>
<polygon fill="black" stroke="black" points="1829.3,-98.13 1836.68,-90.53 1826.17,-91.87 1829.3,-98.13"/>
</g>
<!-- TA&#45;FIXES&#45;&gt;JLS&#45;57 -->
<g id="edge9" class="edge">
<title>TA&#45;FIXES&#45;&gt;JLS&#45;57</title>
<path fill="none" stroke="black" d="M1198.04,-309.12C1377.19,-279.72 1727.43,-216.29 2016,-128 2039.81,-120.71 2065.06,-111.29 2088.16,-101.97"/>
<polygon fill="black" stroke="black" points="2089.64,-105.15 2097.57,-98.13 2086.99,-98.67 2089.64,-105.15"/>
</g>
<!-- TT&#45;CHANGES&#45;&gt;TA&#45;FIXES -->
<g id="edge10" class="edge">
<title>TT&#45;CHANGES&#45;&gt;TA&#45;FIXES</title>
<path fill="none" stroke="black" d="M1080,-528.99C1080,-490.93 1080,-437.36 1080,-395.31"/>
<polygon fill="black" stroke="black" points="1083.5,-395.16 1080,-385.16 1076.5,-395.16 1083.5,-395.16"/>
</g>
</g>
</svg>
