<?xml version="1.0" encoding="UTF-8" standalone="no"?>
<!DOCTYPE svg PUBLIC "-//W3C//DTD SVG 1.1//EN"
 "http://www.w3.org/Graphics/SVG/1.1/DTD/svg11.dtd">
<!-- Generated by graphviz version 2.43.0 (0)
 -->
<!-- Title: G Pages: 1 -->
<svg width="2249pt" height="1483pt"
 viewBox="0.00 0.00 2249.00 1483.00" xmlns="http://www.w3.org/2000/svg" xmlns:xlink="http://www.w3.org/1999/xlink">
<g id="graph0" class="graph" transform="scale(1 1) rotate(0) translate(4 1479)">
<title>G</title>
<polygon fill="white" stroke="transparent" points="-4,4 -4,-1479 2245,-1479 2245,4 -4,4"/>
<!-- TRUSTABLE&#45;SOFTWARE -->
<g id="node1" class="node">
<title>TRUSTABLE&#45;SOFTWARE</title>
<g id="a_node1"><a xlink:href="https://score-json.github.io/nlohmann_json/main/_images/custom_TRUSTABLE-SOFTWARE_graph.svg" xlink:title="TRUSTABLE&#45;SOFTWARE: This\nrelease of JSON&#45;Library\nalso referred in the\ndocumentation as nlohmann/json\nlibrary is Trustable.\n" target="_top">
<polygon fill="none" stroke="black" points="1244.5,-1475 996.5,-1475 996.5,-1392 1244.5,-1392 1244.5,-1475"/>
<text text-anchor="middle" x="1120.5" y="-1459.8" font-family="Open Sans" font-size="14.00">TRUSTABLE&#45;SOFTWARE: This</text>
<text text-anchor="middle" x="1120.5" y="-1444.8" font-family="Open Sans" font-size="14.00">release of JSON&#45;Library</text>
<text text-anchor="middle" x="1120.5" y="-1429.8" font-family="Open Sans" font-size="14.00">also referred in the</text>
<text text-anchor="middle" x="1120.5" y="-1414.8" font-family="Open Sans" font-size="14.00">documentation as nlohmann/json</text>
<text text-anchor="middle" x="1120.5" y="-1399.8" font-family="Open Sans" font-size="14.00">library is Trustable.</text>
</a>
</g>
</g>
<!-- TT&#45;EXPECTATIONS -->
<g id="node14" class="node">
<title>TT&#45;EXPECTATIONS</title>
<g id="a_node14"><a xlink:href="https://score-json.github.io/nlohmann_json/main/_images/custom_TT-EXPECTATIONS_graph.svg" xlink:title="TT&#45;EXPECTATIONS: Documentation\nis provided within eclipse&#45;score/inc_nlohmann_json,\nspecifying what the nlohmann/json\nlibrary is expected to\ndo, and what it must\nnot do, and how this\nis verified. " target="_top">
<polygon fill="none" stroke="black" points="1308,-1248 933,-1248 933,-1135 1308,-1135 1308,-1248"/>
<text text-anchor="middle" x="1120.5" y="-1232.8" font-family="Open Sans" font-size="14.00">TT&#45;EXPECTATIONS: Documentation</text>
<text text-anchor="middle" x="1120.5" y="-1217.8" font-family="Open Sans" font-size="14.00">is provided within eclipse&#45;score/inc_nlohmann_json,</text>
<text text-anchor="middle" x="1120.5" y="-1202.8" font-family="Open Sans" font-size="14.00">specifying what the nlohmann/json</text>
<text text-anchor="middle" x="1120.5" y="-1187.8" font-family="Open Sans" font-size="14.00">library is expected to</text>
<text text-anchor="middle" x="1120.5" y="-1172.8" font-family="Open Sans" font-size="14.00">do, and what it must</text>
<text text-anchor="middle" x="1120.5" y="-1157.8" font-family="Open Sans" font-size="14.00">not do, and how this</text>
<text text-anchor="middle" x="1120.5" y="-1142.8" font-family="Open Sans" font-size="14.00">is verified. </text>
</a>
</g>
</g>
<!-- TRUSTABLE&#45;SOFTWARE&#45;&gt;TT&#45;EXPECTATIONS -->
<g id="edge1" class="edge">
<title>TRUSTABLE&#45;SOFTWARE&#45;&gt;TT&#45;EXPECTATIONS</title>
<path fill="none" stroke="black" d="M1120.5,-1391.79C1120.5,-1355.26 1120.5,-1301 1120.5,-1258.32"/>
<polygon fill="black" stroke="black" points="1124,-1258.29 1120.5,-1248.29 1117,-1258.29 1124,-1258.29"/>
</g>
<!-- JLEX&#45;01 -->
<g id="node2" class="node">
<title>JLEX&#45;01</title>
<g id="a_node2"><a xlink:href="https://score-json.github.io/nlohmann_json/main/_images/custom_JLEX-01_graph.svg" xlink:title="JLEX&#45;01: The requirement\nregarding [JSON Validation](https://eclipse&#45;score.github.io/score/main/modules/baselibs/json/docs/requirements/index.html#comp_req__json__validation)\nis fulfilled. " target="_top">
<polygon fill="none" stroke="black" points="1658,-749 583,-749 583,-696 1658,-696 1658,-749"/>
<text text-anchor="middle" x="1120.5" y="-733.8" font-family="Open Sans" font-size="14.00">JLEX&#45;01: The requirement</text>
<text text-anchor="middle" x="1120.5" y="-718.8" font-family="Open Sans" font-size="14.00">regarding [JSON Validation](https://eclipse&#45;score.github.io/score/main/modules/baselibs/json/docs/requirements/index.html#comp_req__json__validation)</text>
<text text-anchor="middle" x="1120.5" y="-703.8" font-family="Open Sans" font-size="14.00">is fulfilled. </text>
</a>
</g>
</g>
<!-- WFJ&#45;03 -->
<g id="node15" class="node">
<title>WFJ&#45;03</title>
<g id="a_node15"><a xlink:href="https://score-json.github.io/nlohmann_json/main/_images/custom_WFJ-03_graph.svg" xlink:title="WFJ&#45;03: The service provided\nby the nlohmann/json\nlibrary checks the well&#45;formedness\nof numbers. " target="_top">
<polygon fill="none" stroke="black" points="1250.5,-552 990.5,-552 990.5,-484 1250.5,-484 1250.5,-552"/>
<text text-anchor="middle" x="1120.5" y="-536.8" font-family="Open Sans" font-size="14.00">WFJ&#45;03: The service provided</text>
<text text-anchor="middle" x="1120.5" y="-521.8" font-family="Open Sans" font-size="14.00">by the nlohmann/json</text>
<text text-anchor="middle" x="1120.5" y="-506.8" font-family="Open Sans" font-size="14.00">library checks the well&#45;formedness</text>
<text text-anchor="middle" x="1120.5" y="-491.8" font-family="Open Sans" font-size="14.00">of numbers. </text>
</a>
</g>
</g>
<!-- JLEX&#45;01&#45;&gt;WFJ&#45;03 -->
<g id="edge2" class="edge">
<title>JLEX&#45;01&#45;&gt;WFJ&#45;03</title>
<path fill="none" stroke="black" d="M1120.5,-695.85C1120.5,-662.27 1120.5,-602.91 1120.5,-562.3"/>
<polygon fill="black" stroke="black" points="1124,-562.15 1120.5,-552.15 1117,-562.15 1124,-562.15"/>
</g>
<!-- NJF&#45;08 -->
<g id="node3" class="node">
<title>NJF&#45;08</title>
<g id="a_node3"><a xlink:href="https://score-json.github.io/nlohmann_json/main/_images/custom_NJF-08_graph.svg" xlink:title="NJF&#45;08: The service provided\nby the nlohmann/json\nlibrary accepts numbers\naccording to RFC8259\nยง6. " target="_top">
<polygon fill="none" stroke="black" points="1229,-340 1012,-340 1012,-257 1229,-257 1229,-340"/>
<text text-anchor="middle" x="1120.5" y="-324.8" font-family="Open Sans" font-size="14.00">NJF&#45;08: The service provided</text>
<text text-anchor="middle" x="1120.5" y="-309.8" font-family="Open Sans" font-size="14.00">by the nlohmann/json</text>
<text text-anchor="middle" x="1120.5" y="-294.8" font-family="Open Sans" font-size="14.00">library accepts numbers</text>
<text text-anchor="middle" x="1120.5" y="-279.8" font-family="Open Sans" font-size="14.00">according to RFC8259</text>
<text text-anchor="middle" x="1120.5" y="-264.8" font-family="Open Sans" font-size="14.00">ยง6. </text>
</a>
</g>
</g>
<!-- NJF&#45;08.1 -->
<g id="node4" class="node">
<title>NJF&#45;08.1</title>
<g id="a_node4"><a xlink:href="https://score-json.github.io/nlohmann_json/main/generated/NJF.html#njf-08.1" xlink:title="NJF&#45;08.1: The service\nprovided by the nlohmann/json\nlibrary does accept integers\nwithin the limits of\n64&#45;bit double. " target="_top">
<polygon fill="none" stroke="black" points="233,-98 0,-98 0,-15 233,-15 233,-98"/>
<text text-anchor="middle" x="116.5" y="-82.8" font-family="Open Sans" font-size="14.00">NJF&#45;08.1: The service</text>
<text text-anchor="middle" x="116.5" y="-67.8" font-family="Open Sans" font-size="14.00">provided by the nlohmann/json</text>
<text text-anchor="middle" x="116.5" y="-52.8" font-family="Open Sans" font-size="14.00">library does accept integers</text>
<text text-anchor="middle" x="116.5" y="-37.8" font-family="Open Sans" font-size="14.00">within the limits of</text>
<text text-anchor="middle" x="116.5" y="-22.8" font-family="Open Sans" font-size="14.00">64&#45;bit double. </text>
</a>
</g>
</g>
<!-- NJF&#45;08&#45;&gt;NJF&#45;08.1 -->
<g id="edge3" class="edge">
<title>NJF&#45;08&#45;&gt;NJF&#45;08.1</title>
<path fill="none" stroke="black" d="M1011.7,-282.23C843.72,-256.98 512.3,-200.45 241.5,-113 231.38,-109.73 220.97,-105.91 210.69,-101.82"/>
<polygon fill="black" stroke="black" points="211.88,-98.53 201.3,-98.01 209.25,-105.01 211.88,-98.53"/>
</g>
<!-- NJF&#45;08.2 -->
<g id="node5" class="node">
<title>NJF&#45;08.2</title>
<g id="a_node5"><a xlink:href="https://score-json.github.io/nlohmann_json/main/generated/NJF.html#njf-08.2" xlink:title="NJF&#45;08.2: The service\nprovided by the nlohmann/json\nlibrary does accept integers\naccording to IEEE 754\nbinary64. " target="_top">
<polygon fill="none" stroke="black" points="484,-98 251,-98 251,-15 484,-15 484,-98"/>
<text text-anchor="middle" x="367.5" y="-82.8" font-family="Open Sans" font-size="14.00">NJF&#45;08.2: The service</text>
<text text-anchor="middle" x="367.5" y="-67.8" font-family="Open Sans" font-size="14.00">provided by the nlohmann/json</text>
<text text-anchor="middle" x="367.5" y="-52.8" font-family="Open Sans" font-size="14.00">library does accept integers</text>
<text text-anchor="middle" x="367.5" y="-37.8" font-family="Open Sans" font-size="14.00">according to IEEE 754</text>
<text text-anchor="middle" x="367.5" y="-22.8" font-family="Open Sans" font-size="14.00">binary64. </text>
</a>
</g>
</g>
<!-- NJF&#45;08&#45;&gt;NJF&#45;08.2 -->
<g id="edge4" class="edge">
<title>NJF&#45;08&#45;&gt;NJF&#45;08.2</title>
<path fill="none" stroke="black" d="M1011.86,-270.26C885.53,-237.51 671.45,-178.69 492.5,-113 483.31,-109.62 473.83,-105.9 464.4,-102.02"/>
<polygon fill="black" stroke="black" points="465.57,-98.71 455,-98.09 462.88,-105.17 465.57,-98.71"/>
</g>
<!-- NJF&#45;08.3 -->
<g id="node6" class="node">
<title>NJF&#45;08.3</title>
<g id="a_node6"><a xlink:href="https://score-json.github.io/nlohmann_json/main/generated/NJF.html#njf-08.3" xlink:title="NJF&#45;08.3: The service\nprovided by the nlohmann/json\nlibrary does not accept\nNaN and infinity. " target="_top">
<polygon fill="none" stroke="black" points="735,-90.5 502,-90.5 502,-22.5 735,-22.5 735,-90.5"/>
<text text-anchor="middle" x="618.5" y="-75.3" font-family="Open Sans" font-size="14.00">NJF&#45;08.3: The service</text>
<text text-anchor="middle" x="618.5" y="-60.3" font-family="Open Sans" font-size="14.00">provided by the nlohmann/json</text>
<text text-anchor="middle" x="618.5" y="-45.3" font-family="Open Sans" font-size="14.00">library does not accept</text>
<text text-anchor="middle" x="618.5" y="-30.3" font-family="Open Sans" font-size="14.00">NaN and infinity. </text>
</a>
</g>
</g>
<!-- NJF&#45;08&#45;&gt;NJF&#45;08.3 -->
<g id="edge5" class="edge">
<title>NJF&#45;08&#45;&gt;NJF&#45;08.3</title>
<path fill="none" stroke="black" d="M1035.63,-256.92C940.89,-211.63 788.84,-138.94 696.84,-94.95"/>
<polygon fill="black" stroke="black" points="698.11,-91.68 687.58,-90.52 695.09,-98 698.11,-91.68"/>
</g>
<!-- NJF&#45;08.4 -->
<g id="node7" class="node">
<title>NJF&#45;08.4</title>
<g id="a_node7"><a xlink:href="https://score-json.github.io/nlohmann_json/main/generated/NJF.html#njf-08.4" xlink:title="NJF&#45;08.4: The service\nprovided by the nlohmann/json\nlibrary does accept e\nor E for numbers with\nexponent within the bounds\nof double. " target="_top">
<polygon fill="none" stroke="black" points="986,-105.5 753,-105.5 753,-7.5 986,-7.5 986,-105.5"/>
<text text-anchor="middle" x="869.5" y="-90.3" font-family="Open Sans" font-size="14.00">NJF&#45;08.4: The service</text>
<text text-anchor="middle" x="869.5" y="-75.3" font-family="Open Sans" font-size="14.00">provided by the nlohmann/json</text>
<text text-anchor="middle" x="869.5" y="-60.3" font-family="Open Sans" font-size="14.00">library does accept e</text>
<text text-anchor="middle" x="869.5" y="-45.3" font-family="Open Sans" font-size="14.00">or E for numbers with</text>
<text text-anchor="middle" x="869.5" y="-30.3" font-family="Open Sans" font-size="14.00">exponent within the bounds</text>
<text text-anchor="middle" x="869.5" y="-15.3" font-family="Open Sans" font-size="14.00">of double. </text>
</a>
</g>
</g>
<!-- NJF&#45;08&#45;&gt;NJF&#45;08.4 -->
<g id="edge6" class="edge">
<title>NJF&#45;08&#45;&gt;NJF&#45;08.4</title>
<path fill="none" stroke="black" d="M1077.92,-256.79C1036.58,-217.26 973.52,-156.96 927.59,-113.05"/>
<polygon fill="black" stroke="black" points="929.73,-110.25 920.09,-105.87 924.89,-115.31 929.73,-110.25"/>
</g>
<!-- NJF&#45;08.5 -->
<g id="node8" class="node">
<title>NJF&#45;08.5</title>
<g id="a_node8"><a xlink:href="https://score-json.github.io/nlohmann_json/main/generated/NJF.html#njf-08.5" xlink:title="NJF&#45;08.5: The service\nprovided by the nlohmann/json\nlibrary does not accept\nu0415 and u0436 (cyrillic\ne and E) as exponent\nsigns in numbers with\nexponent. " target="_top">
<polygon fill="none" stroke="black" points="1237,-113 1004,-113 1004,0 1237,0 1237,-113"/>
<text text-anchor="middle" x="1120.5" y="-97.8" font-family="Open Sans" font-size="14.00">NJF&#45;08.5: The service</text>
<text text-anchor="middle" x="1120.5" y="-82.8" font-family="Open Sans" font-size="14.00">provided by the nlohmann/json</text>
<text text-anchor="middle" x="1120.5" y="-67.8" font-family="Open Sans" font-size="14.00">library does not accept</text>
<text text-anchor="middle" x="1120.5" y="-52.8" font-family="Open Sans" font-size="14.00">u0415 and u0436 (cyrillic</text>
<text text-anchor="middle" x="1120.5" y="-37.8" font-family="Open Sans" font-size="14.00">e and E) as exponent</text>
<text text-anchor="middle" x="1120.5" y="-22.8" font-family="Open Sans" font-size="14.00">signs in numbers with</text>
<text text-anchor="middle" x="1120.5" y="-7.8" font-family="Open Sans" font-size="14.00">exponent. </text>
</a>
</g>
</g>
<!-- NJF&#45;08&#45;&gt;NJF&#45;08.5 -->
<g id="edge7" class="edge">
<title>NJF&#45;08&#45;&gt;NJF&#45;08.5</title>
<path fill="none" stroke="black" d="M1120.5,-256.79C1120.5,-220.26 1120.5,-166 1120.5,-123.32"/>
<polygon fill="black" stroke="black" points="1124,-123.29 1120.5,-113.29 1117,-123.29 1124,-123.29"/>
</g>
<!-- NJF&#45;08.6 -->
<g id="node9" class="node">
<title>NJF&#45;08.6</title>
<g id="a_node9"><a xlink:href="https://score-json.github.io/nlohmann_json/main/generated/NJF.html#njf-08.6" xlink:title="NJF&#45;08.6: The service\nprovided by the nlohmann/json\nlibrary does not accept\ninvalid syntax for numbers.\n" target="_top">
<polygon fill="none" stroke="black" points="1488,-90.5 1255,-90.5 1255,-22.5 1488,-22.5 1488,-90.5"/>
<text text-anchor="middle" x="1371.5" y="-75.3" font-family="Open Sans" font-size="14.00">NJF&#45;08.6: The service</text>
<text text-anchor="middle" x="1371.5" y="-60.3" font-family="Open Sans" font-size="14.00">provided by the nlohmann/json</text>
<text text-anchor="middle" x="1371.5" y="-45.3" font-family="Open Sans" font-size="14.00">library does not accept</text>
<text text-anchor="middle" x="1371.5" y="-30.3" font-family="Open Sans" font-size="14.00">invalid syntax for numbers.</text>
</a>
</g>
</g>
<!-- NJF&#45;08&#45;&gt;NJF&#45;08.6 -->
<g id="edge8" class="edge">
<title>NJF&#45;08&#45;&gt;NJF&#45;08.6</title>
<path fill="none" stroke="black" d="M1163.08,-256.79C1209.45,-212.45 1283.16,-141.97 1329.36,-97.79"/>
<polygon fill="black" stroke="black" points="1332,-100.11 1336.81,-90.67 1327.16,-95.05 1332,-100.11"/>
</g>
<!-- NJF&#45;08.7 -->
<g id="node10" class="node">
<title>NJF&#45;08.7</title>
<g id="a_node10"><a xlink:href="https://score-json.github.io/nlohmann_json/main/generated/NJF.html#njf-08.7" xlink:title="NJF&#45;08.7: The service\nprovided by the nlohmann/json\nlibrary does accept decimal\npoints in numbers within\nthe bounds of double.\n" target="_top">
<polygon fill="none" stroke="black" points="1739,-98 1506,-98 1506,-15 1739,-15 1739,-98"/>
<text text-anchor="middle" x="1622.5" y="-82.8" font-family="Open Sans" font-size="14.00">NJF&#45;08.7: The service</text>
<text text-anchor="middle" x="1622.5" y="-67.8" font-family="Open Sans" font-size="14.00">provided by the nlohmann/json</text>
<text text-anchor="middle" x="1622.5" y="-52.8" font-family="Open Sans" font-size="14.00">library does accept decimal</text>
<text text-anchor="middle" x="1622.5" y="-37.8" font-family="Open Sans" font-size="14.00">points in numbers within</text>
<text text-anchor="middle" x="1622.5" y="-22.8" font-family="Open Sans" font-size="14.00">the bounds of double.</text>
</a>
</g>
</g>
<!-- NJF&#45;08&#45;&gt;NJF&#45;08.7 -->
<g id="edge9" class="edge">
<title>NJF&#45;08&#45;&gt;NJF&#45;08.7</title>
<path fill="none" stroke="black" d="M1205.37,-256.92C1294.93,-214.11 1435.71,-146.8 1528.55,-102.42"/>
<polygon fill="black" stroke="black" points="1530.15,-105.53 1537.66,-98.06 1527.13,-99.21 1530.15,-105.53"/>
</g>
<!-- NJF&#45;08.8 -->
<g id="node11" class="node">
<title>NJF&#45;08.8</title>
<g id="a_node11"><a xlink:href="https://score-json.github.io/nlohmann_json/main/generated/NJF.html#njf-08.8" xlink:title="NJF&#45;08.8: The service\nprovided by the nlohmann/json\nlibrary does not accept\nleading zeroes. " target="_top">
<polygon fill="none" stroke="black" points="1990,-90.5 1757,-90.5 1757,-22.5 1990,-22.5 1990,-90.5"/>
<text text-anchor="middle" x="1873.5" y="-75.3" font-family="Open Sans" font-size="14.00">NJF&#45;08.8: The service</text>
<text text-anchor="middle" x="1873.5" y="-60.3" font-family="Open Sans" font-size="14.00">provided by the nlohmann/json</text>
<text text-anchor="middle" x="1873.5" y="-45.3" font-family="Open Sans" font-size="14.00">library does not accept</text>
<text text-anchor="middle" x="1873.5" y="-30.3" font-family="Open Sans" font-size="14.00">leading zeroes. </text>
</a>
</g>
</g>
<!-- NJF&#45;08&#45;&gt;NJF&#45;08.8 -->
<g id="edge10" class="edge">
<title>NJF&#45;08&#45;&gt;NJF&#45;08.8</title>
<path fill="none" stroke="black" d="M1229.14,-270.26C1355.47,-237.51 1569.55,-178.69 1748.5,-113 1763.45,-107.51 1779.15,-101.09 1794.18,-94.6"/>
<polygon fill="black" stroke="black" points="1795.67,-97.77 1803.43,-90.56 1792.87,-91.35 1795.67,-97.77"/>
</g>
<!-- NJF&#45;08.9 -->
<g id="node12" class="node">
<title>NJF&#45;08.9</title>
<g id="a_node12"><a xlink:href="https://score-json.github.io/nlohmann_json/main/generated/NJF.html#njf-08.9" xlink:title="NJF&#45;08.9: The service\nprovided by the nlohmann/json\nlibrary does not accept\nany other digit symbol\nthan 0&#45;9. " target="_top">
<polygon fill="none" stroke="black" points="2241,-98 2008,-98 2008,-15 2241,-15 2241,-98"/>
<text text-anchor="middle" x="2124.5" y="-82.8" font-family="Open Sans" font-size="14.00">NJF&#45;08.9: The service</text>
<text text-anchor="middle" x="2124.5" y="-67.8" font-family="Open Sans" font-size="14.00">provided by the nlohmann/json</text>
<text text-anchor="middle" x="2124.5" y="-52.8" font-family="Open Sans" font-size="14.00">library does not accept</text>
<text text-anchor="middle" x="2124.5" y="-37.8" font-family="Open Sans" font-size="14.00">any other digit symbol</text>
<text text-anchor="middle" x="2124.5" y="-22.8" font-family="Open Sans" font-size="14.00">than 0&#45;9. </text>
</a>
</g>
</g>
<!-- NJF&#45;08&#45;&gt;NJF&#45;08.9 -->
<g id="edge11" class="edge">
<title>NJF&#45;08&#45;&gt;NJF&#45;08.9</title>
<path fill="none" stroke="black" d="M1229.3,-282.23C1397.28,-256.98 1728.7,-200.45 1999.5,-113 2009.62,-109.73 2020.03,-105.91 2030.31,-101.82"/>
<polygon fill="black" stroke="black" points="2031.75,-105.01 2039.7,-98.01 2029.12,-98.53 2031.75,-105.01"/>
</g>
<!-- TA&#45;BEHAVIOURS -->
<g id="node13" class="node">
<title>TA&#45;BEHAVIOURS</title>
<g id="a_node13"><a xlink:href="https://score-json.github.io/nlohmann_json/main/_images/custom_TA-BEHAVIOURS_graph.svg" xlink:title="TA&#45;BEHAVIOURS: Expected\nor required behaviours\nfor the nlohmann/json\nlibrary are identified,\nspecified, verified and\nvalidated based on analysis.\n" target="_top">
<polygon fill="none" stroke="black" points="1227.5,-991 1013.5,-991 1013.5,-893 1227.5,-893 1227.5,-991"/>
<text text-anchor="middle" x="1120.5" y="-975.8" font-family="Open Sans" font-size="14.00">TA&#45;BEHAVIOURS: Expected</text>
<text text-anchor="middle" x="1120.5" y="-960.8" font-family="Open Sans" font-size="14.00">or required behaviours</text>
<text text-anchor="middle" x="1120.5" y="-945.8" font-family="Open Sans" font-size="14.00">for the nlohmann/json</text>
<text text-anchor="middle" x="1120.5" y="-930.8" font-family="Open Sans" font-size="14.00">library are identified,</text>
<text text-anchor="middle" x="1120.5" y="-915.8" font-family="Open Sans" font-size="14.00">specified, verified and</text>
<text text-anchor="middle" x="1120.5" y="-900.8" font-family="Open Sans" font-size="14.00">validated based on analysis.</text>
</a>
</g>
</g>
<!-- TA&#45;BEHAVIOURS&#45;&gt;JLEX&#45;01 -->
<g id="edge12" class="edge">
<title>TA&#45;BEHAVIOURS&#45;&gt;JLEX&#45;01</title>
<path fill="none" stroke="black" d="M1120.5,-893C1120.5,-852.58 1120.5,-795.67 1120.5,-759.18"/>
<polygon fill="black" stroke="black" points="1124,-759.01 1120.5,-749.01 1117,-759.01 1124,-759.01"/>
</g>
<!-- TT&#45;EXPECTATIONS&#45;&gt;TA&#45;BEHAVIOURS -->
<g id="edge13" class="edge">
<title>TT&#45;EXPECTATIONS&#45;&gt;TA&#45;BEHAVIOURS</title>
<path fill="none" stroke="black" d="M1120.5,-1134.96C1120.5,-1095.23 1120.5,-1041.87 1120.5,-1001.49"/>
<polygon fill="black" stroke="black" points="1124,-1001.26 1120.5,-991.26 1117,-1001.26 1124,-1001.26"/>
</g>
<!-- WFJ&#45;03&#45;&gt;NJF&#45;08 -->
<g id="edge14" class="edge">
<title>WFJ&#45;03&#45;&gt;NJF&#45;08</title>
<path fill="none" stroke="black" d="M1120.5,-483.97C1120.5,-448.47 1120.5,-391.61 1120.5,-350.39"/>
<polygon fill="black" stroke="black" points="1124,-350.27 1120.5,-340.27 1117,-350.27 1124,-350.27"/>
</g>
</g>
</svg>
