<?xml version="1.0" encoding="UTF-8" standalone="no"?>
<!DOCTYPE svg PUBLIC "-//W3C//DTD SVG 1.1//EN"
 "http://www.w3.org/Graphics/SVG/1.1/DTD/svg11.dtd">
<!-- Generated by graphviz version 2.43.0 (0)
 -->
<!-- Title: G Pages: 1 -->
<svg width="864pt" height="802pt"
 viewBox="0.00 0.00 863.50 802.00" xmlns="http://www.w3.org/2000/svg" xmlns:xlink="http://www.w3.org/1999/xlink">
<g id="graph0" class="graph" transform="scale(1 1) rotate(0) translate(4 798)">
<title>G</title>
<polygon fill="white" stroke="transparent" points="-4,4 -4,-798 859.5,-798 859.5,4 -4,4"/>
<!-- TRUSTABLE&#45;SOFTWARE -->
<g id="node1" class="node">
<title>TRUSTABLE&#45;SOFTWARE</title>
<g id="a_node1"><a xlink:href="https://score-json.github.io/nlohmann_json/main/_images/custom_TRUSTABLE-SOFTWARE_graph.svg" xlink:title="TRUSTABLE&#45;SOFTWARE: This\nrelease of JSON&#45;Library\nalso reffered in the\ndocumentation as nlohmann/json\nlibrary is Trustable.\n" target="_top">
<polygon fill="none" stroke="black" points="572,-794 324,-794 324,-711 572,-711 572,-794"/>
<text text-anchor="middle" x="448" y="-778.8" font-family="Open Sans" font-size="14.00">TRUSTABLE&#45;SOFTWARE: This</text>
<text text-anchor="middle" x="448" y="-763.8" font-family="Open Sans" font-size="14.00">release of JSON&#45;Library</text>
<text text-anchor="middle" x="448" y="-748.8" font-family="Open Sans" font-size="14.00">also reffered in the</text>
<text text-anchor="middle" x="448" y="-733.8" font-family="Open Sans" font-size="14.00">documentation as nlohmann/json</text>
<text text-anchor="middle" x="448" y="-718.8" font-family="Open Sans" font-size="14.00">library is Trustable.</text>
</a>
</g>
</g>
<!-- TT&#45;CHANGES -->
<g id="node7" class="node">
<title>TT&#45;CHANGES</title>
<g id="a_node7"><a xlink:href="https://score-json.github.io/nlohmann_json/main/_images/custom_TT-CHANGES_graph.svg" xlink:title="TT&#45;CHANGES: nlohmann/json\nlibrary is actively maintained,\nwith regular updates\nto dependencies, and\nchanges are verified\nto prevent regressions.\n" target="_top">
<polygon fill="none" stroke="black" points="559,-567 337,-567 337,-469 559,-469 559,-567"/>
<text text-anchor="middle" x="448" y="-551.8" font-family="Open Sans" font-size="14.00">TT&#45;CHANGES: nlohmann/json</text>
<text text-anchor="middle" x="448" y="-536.8" font-family="Open Sans" font-size="14.00">library is actively maintained,</text>
<text text-anchor="middle" x="448" y="-521.8" font-family="Open Sans" font-size="14.00">with regular updates</text>
<text text-anchor="middle" x="448" y="-506.8" font-family="Open Sans" font-size="14.00">to dependencies, and</text>
<text text-anchor="middle" x="448" y="-491.8" font-family="Open Sans" font-size="14.00">changes are verified</text>
<text text-anchor="middle" x="448" y="-476.8" font-family="Open Sans" font-size="14.00">to prevent regressions.</text>
</a>
</g>
</g>
<!-- TRUSTABLE&#45;SOFTWARE&#45;&gt;TT&#45;CHANGES -->
<g id="edge1" class="edge">
<title>TRUSTABLE&#45;SOFTWARE&#45;&gt;TT&#45;CHANGES</title>
<path fill="none" stroke="black" d="M448,-710.74C448,-673.88 448,-619.18 448,-577.63"/>
<polygon fill="black" stroke="black" points="451.5,-577.37 448,-567.37 444.5,-577.37 451.5,-577.37"/>
</g>
<!-- AOU&#45;27 -->
<g id="node2" class="node">
<title>AOU&#45;27</title>
<g id="a_node2"><a xlink:href="https://score-json.github.io/nlohmann_json/main/generated/AOU.html#aou-27" xlink:title="AOU&#45;27: The integrator\nshall ensure that ChangeLog.md\nis updated whenever the\nlocal mirror of nlohmann/json\nis updated. " target="_top">
<polygon fill="none" stroke="black" points="242,-83 0,-83 0,0 242,0 242,-83"/>
<text text-anchor="middle" x="121" y="-67.8" font-family="Open Sans" font-size="14.00">AOU&#45;27: The integrator</text>
<text text-anchor="middle" x="121" y="-52.8" font-family="Open Sans" font-size="14.00">shall ensure that ChangeLog.md</text>
<text text-anchor="middle" x="121" y="-37.8" font-family="Open Sans" font-size="14.00">is updated whenever the</text>
<text text-anchor="middle" x="121" y="-22.8" font-family="Open Sans" font-size="14.00">local mirror of nlohmann/json</text>
<text text-anchor="middle" x="121" y="-7.8" font-family="Open Sans" font-size="14.00">is updated. </text>
</a>
</g>
</g>
<!-- JLS&#45;06 -->
<g id="node3" class="node">
<title>JLS&#45;06</title>
<g id="a_node3"><a xlink:href="https://score-json.github.io/nlohmann_json/main/generated/JLS.html#jls-06" xlink:title="JLS&#45;06: Changes to the\ncode (main branch) are\napplied only after code\nreview and passing of\nall pipelines. " target="_top">
<polygon fill="none" stroke="black" points="439.5,-83 260.5,-83 260.5,0 439.5,0 439.5,-83"/>
<text text-anchor="middle" x="350" y="-67.8" font-family="Open Sans" font-size="14.00">JLS&#45;06: Changes to the</text>
<text text-anchor="middle" x="350" y="-52.8" font-family="Open Sans" font-size="14.00">code (main branch) are</text>
<text text-anchor="middle" x="350" y="-37.8" font-family="Open Sans" font-size="14.00">applied only after code</text>
<text text-anchor="middle" x="350" y="-22.8" font-family="Open Sans" font-size="14.00">review and passing of</text>
<text text-anchor="middle" x="350" y="-7.8" font-family="Open Sans" font-size="14.00">all pipelines. </text>
</a>
</g>
</g>
<!-- JLS&#45;07 -->
<g id="node4" class="node">
<title>JLS&#45;07</title>
<g id="a_node4"><a xlink:href="https://score-json.github.io/nlohmann_json/main/generated/JLS.html#jls-07" xlink:title="JLS&#45;07: Main branch is\nprotected, i.e. no direct\ncommits are possible.\n" target="_top">
<polygon fill="none" stroke="black" points="636,-68 458,-68 458,-15 636,-15 636,-68"/>
<text text-anchor="middle" x="547" y="-52.8" font-family="Open Sans" font-size="14.00">JLS&#45;07: Main branch is</text>
<text text-anchor="middle" x="547" y="-37.8" font-family="Open Sans" font-size="14.00">protected, i.e. no direct</text>
<text text-anchor="middle" x="547" y="-22.8" font-family="Open Sans" font-size="14.00">commits are possible.</text>
</a>
</g>
</g>
<!-- JLS&#45;12 -->
<g id="node5" class="node">
<title>JLS&#45;12</title>
<g id="a_node5"><a xlink:href="https://score-json.github.io/nlohmann_json/main/generated/JLS.html#jls-12" xlink:title="JLS&#45;12: The S&#45;Core change\nprocess management is\nfollowed. " target="_top">
<polygon fill="none" stroke="black" points="855.5,-68 654.5,-68 654.5,-15 855.5,-15 855.5,-68"/>
<text text-anchor="middle" x="755" y="-52.8" font-family="Open Sans" font-size="14.00">JLS&#45;12: The S&#45;Core change</text>
<text text-anchor="middle" x="755" y="-37.8" font-family="Open Sans" font-size="14.00">process management is</text>
<text text-anchor="middle" x="755" y="-22.8" font-family="Open Sans" font-size="14.00">followed. </text>
</a>
</g>
</g>
<!-- TA&#45;UPDATES -->
<g id="node6" class="node">
<title>TA&#45;UPDATES</title>
<g id="a_node6"><a xlink:href="https://score-json.github.io/nlohmann_json/main/_images/custom_TA-UPDATES_graph.svg" xlink:title="TA&#45;UPDATES: nlohmann/json\nlibrary components, configurations\nand tools are updated\nunder specified change\nand configuration management\ncontrols. " target="_top">
<polygon fill="none" stroke="black" points="578,-325 318,-325 318,-227 578,-227 578,-325"/>
<text text-anchor="middle" x="448" y="-309.8" font-family="Open Sans" font-size="14.00">TA&#45;UPDATES: nlohmann/json</text>
<text text-anchor="middle" x="448" y="-294.8" font-family="Open Sans" font-size="14.00">library components, configurations</text>
<text text-anchor="middle" x="448" y="-279.8" font-family="Open Sans" font-size="14.00">and tools are updated</text>
<text text-anchor="middle" x="448" y="-264.8" font-family="Open Sans" font-size="14.00">under specified change</text>
<text text-anchor="middle" x="448" y="-249.8" font-family="Open Sans" font-size="14.00">and configuration management</text>
<text text-anchor="middle" x="448" y="-234.8" font-family="Open Sans" font-size="14.00">controls. </text>
</a>
</g>
</g>
<!-- TA&#45;UPDATES&#45;&gt;AOU&#45;27 -->
<g id="edge5" class="edge">
<title>TA&#45;UPDATES&#45;&gt;AOU&#45;27</title>
<path fill="none" stroke="black" d="M380.25,-226.83C323.39,-186.4 242.7,-129.03 186.49,-89.07"/>
<polygon fill="black" stroke="black" points="188.21,-86 178.04,-83.05 184.16,-91.7 188.21,-86"/>
</g>
<!-- TA&#45;UPDATES&#45;&gt;JLS&#45;06 -->
<g id="edge2" class="edge">
<title>TA&#45;UPDATES&#45;&gt;JLS&#45;06</title>
<path fill="none" stroke="black" d="M427.69,-226.83C411.14,-187.55 387.83,-132.25 371.07,-92.49"/>
<polygon fill="black" stroke="black" points="374.28,-91.1 367.17,-83.24 367.83,-93.82 374.28,-91.1"/>
</g>
<!-- TA&#45;UPDATES&#45;&gt;JLS&#45;07 -->
<g id="edge3" class="edge">
<title>TA&#45;UPDATES&#45;&gt;JLS&#45;07</title>
<path fill="none" stroke="black" d="M468.51,-226.83C487.45,-182.34 515.14,-117.33 532.06,-77.58"/>
<polygon fill="black" stroke="black" points="535.32,-78.87 536.02,-68.29 528.88,-76.12 535.32,-78.87"/>
</g>
<!-- TA&#45;UPDATES&#45;&gt;JLS&#45;12 -->
<g id="edge4" class="edge">
<title>TA&#45;UPDATES&#45;&gt;JLS&#45;12</title>
<path fill="none" stroke="black" d="M511.61,-226.83C571.96,-181.12 660.93,-113.74 712.92,-74.37"/>
<polygon fill="black" stroke="black" points="715.08,-77.12 720.94,-68.29 710.86,-71.54 715.08,-77.12"/>
</g>
<!-- TT&#45;CHANGES&#45;&gt;TA&#45;UPDATES -->
<g id="edge6" class="edge">
<title>TT&#45;CHANGES&#45;&gt;TA&#45;UPDATES</title>
<path fill="none" stroke="black" d="M448,-468.72C448,-430.23 448,-376.2 448,-335.3"/>
<polygon fill="black" stroke="black" points="451.5,-335.2 448,-325.2 444.5,-335.2 451.5,-335.2"/>
</g>
</g>
</svg>
