<?xml version="1.0" encoding="UTF-8" standalone="no"?>
<!DOCTYPE svg PUBLIC "-//W3C//DTD SVG 1.1//EN"
 "http://www.w3.org/Graphics/SVG/1.1/DTD/svg11.dtd">
<!-- Generated by graphviz version 2.43.0 (0)
 -->
<!-- Title: G Pages: 1 -->
<svg width="655pt" height="1181pt"
 viewBox="0.00 0.00 654.50 1181.00" xmlns="http://www.w3.org/2000/svg" xmlns:xlink="http://www.w3.org/1999/xlink">
<g id="graph0" class="graph" transform="scale(1 1) rotate(0) translate(4 1177)">
<title>G</title>
<polygon fill="white" stroke="transparent" points="-4,4 -4,-1177 650.5,-1177 650.5,4 -4,4"/>
<!-- TRUSTABLE&#45;SOFTWARE -->
<g id="node1" class="node">
<title>TRUSTABLE&#45;SOFTWARE</title>
<g id="a_node1"><a xlink:href="https://score-json.github.io/nlohmann_json/main/_images/custom_TRUSTABLE-SOFTWARE_graph.svg" xlink:title="TRUSTABLE&#45;SOFTWARE: This\nrelease of JSON&#45;Library\nalso reffered in the\ndocumentation as nlohmann/json\nlibrary is Trustable.\n" target="_top">
<polygon fill="none" stroke="black" points="450,-1173 202,-1173 202,-1090 450,-1090 450,-1173"/>
<text text-anchor="middle" x="326" y="-1157.8" font-family="Open Sans" font-size="14.00">TRUSTABLE&#45;SOFTWARE: This</text>
<text text-anchor="middle" x="326" y="-1142.8" font-family="Open Sans" font-size="14.00">release of JSON&#45;Library</text>
<text text-anchor="middle" x="326" y="-1127.8" font-family="Open Sans" font-size="14.00">also reffered in the</text>
<text text-anchor="middle" x="326" y="-1112.8" font-family="Open Sans" font-size="14.00">documentation as nlohmann/json</text>
<text text-anchor="middle" x="326" y="-1097.8" font-family="Open Sans" font-size="14.00">library is Trustable.</text>
</a>
</g>
</g>
<!-- TT&#45;EXPECTATIONS -->
<g id="node8" class="node">
<title>TT&#45;EXPECTATIONS</title>
<g id="a_node8"><a xlink:href="https://score-json.github.io/nlohmann_json/main/_images/custom_TT-EXPECTATIONS_graph.svg" xlink:title="TT&#45;EXPECTATIONS: Documentation\nis provided, specifying\nwhat nlohmann/json library\nis expected to do, and\nwhat it must not do,\nand how this is verified.\n" target="_top">
<polygon fill="none" stroke="black" points="454.5,-946 197.5,-946 197.5,-848 454.5,-848 454.5,-946"/>
<text text-anchor="middle" x="326" y="-930.8" font-family="Open Sans" font-size="14.00">TT&#45;EXPECTATIONS: Documentation</text>
<text text-anchor="middle" x="326" y="-915.8" font-family="Open Sans" font-size="14.00">is provided, specifying</text>
<text text-anchor="middle" x="326" y="-900.8" font-family="Open Sans" font-size="14.00">what nlohmann/json library</text>
<text text-anchor="middle" x="326" y="-885.8" font-family="Open Sans" font-size="14.00">is expected to do, and</text>
<text text-anchor="middle" x="326" y="-870.8" font-family="Open Sans" font-size="14.00">what it must not do,</text>
<text text-anchor="middle" x="326" y="-855.8" font-family="Open Sans" font-size="14.00">and how this is verified.</text>
</a>
</g>
</g>
<!-- TRUSTABLE&#45;SOFTWARE&#45;&gt;TT&#45;EXPECTATIONS -->
<g id="edge1" class="edge">
<title>TRUSTABLE&#45;SOFTWARE&#45;&gt;TT&#45;EXPECTATIONS</title>
<path fill="none" stroke="black" d="M326,-1089.74C326,-1052.88 326,-998.18 326,-956.63"/>
<polygon fill="black" stroke="black" points="329.5,-956.37 326,-946.37 322.5,-956.37 329.5,-956.37"/>
</g>
<!-- JLS&#45;24 -->
<g id="node2" class="node">
<title>JLS&#45;24</title>
<g id="a_node2"><a xlink:href="https://score-json.github.io/nlohmann_json/main/_images/custom_JLS-24_graph.svg" xlink:title="JLS&#45;24: The nlohmann/json\nlibrary recognizes malformed\nJSON and returns an exception.\n" target="_top">
<polygon fill="none" stroke="black" points="443.5,-462 208.5,-462 208.5,-409 443.5,-409 443.5,-462"/>
<text text-anchor="middle" x="326" y="-446.8" font-family="Open Sans" font-size="14.00">JLS&#45;24: The nlohmann/json</text>
<text text-anchor="middle" x="326" y="-431.8" font-family="Open Sans" font-size="14.00">library recognizes malformed</text>
<text text-anchor="middle" x="326" y="-416.8" font-family="Open Sans" font-size="14.00">JSON and returns an exception.</text>
</a>
</g>
</g>
<!-- TIJ&#45;04 -->
<g id="node4" class="node">
<title>TIJ&#45;04</title>
<g id="a_node4"><a xlink:href="https://score-json.github.io/nlohmann_json/main/_images/custom_TIJ-04_graph.svg" xlink:title="TIJ&#45;04: The parsing service\nthrows an exception on\nill&#45;formed arrays. " target="_top">
<polygon fill="none" stroke="black" points="427,-265 225,-265 225,-212 427,-212 427,-265"/>
<text text-anchor="middle" x="326" y="-249.8" font-family="Open Sans" font-size="14.00">TIJ&#45;04: The parsing service</text>
<text text-anchor="middle" x="326" y="-234.8" font-family="Open Sans" font-size="14.00">throws an exception on</text>
<text text-anchor="middle" x="326" y="-219.8" font-family="Open Sans" font-size="14.00">ill&#45;formed arrays. </text>
</a>
</g>
</g>
<!-- JLS&#45;24&#45;&gt;TIJ&#45;04 -->
<g id="edge2" class="edge">
<title>JLS&#45;24&#45;&gt;TIJ&#45;04</title>
<path fill="none" stroke="black" d="M326,-408.61C326,-374.42 326,-314.06 326,-275.46"/>
<polygon fill="black" stroke="black" points="329.5,-275.19 326,-265.19 322.5,-275.19 329.5,-275.19"/>
</g>
<!-- TA&#45;MISBEHAVIOURS -->
<g id="node3" class="node">
<title>TA&#45;MISBEHAVIOURS</title>
<g id="a_node3"><a xlink:href="https://score-json.github.io/nlohmann_json/main/_images/custom_TA-MISBEHAVIOURS_graph.svg" xlink:title="TA&#45;MISBEHAVIOURS: Prohibited\nmisbehaviours for nlohmann/json\nlibrary are identified,\nand mitigations are specified,\nverified and validated\nbased on analysis. " target="_top">
<polygon fill="none" stroke="black" points="451,-704 201,-704 201,-606 451,-606 451,-704"/>
<text text-anchor="middle" x="326" y="-688.8" font-family="Open Sans" font-size="14.00">TA&#45;MISBEHAVIOURS: Prohibited</text>
<text text-anchor="middle" x="326" y="-673.8" font-family="Open Sans" font-size="14.00">misbehaviours for nlohmann/json</text>
<text text-anchor="middle" x="326" y="-658.8" font-family="Open Sans" font-size="14.00">library are identified,</text>
<text text-anchor="middle" x="326" y="-643.8" font-family="Open Sans" font-size="14.00">and mitigations are specified,</text>
<text text-anchor="middle" x="326" y="-628.8" font-family="Open Sans" font-size="14.00">verified and validated</text>
<text text-anchor="middle" x="326" y="-613.8" font-family="Open Sans" font-size="14.00">based on analysis. </text>
</a>
</g>
</g>
<!-- TA&#45;MISBEHAVIOURS&#45;&gt;JLS&#45;24 -->
<g id="edge3" class="edge">
<title>TA&#45;MISBEHAVIOURS&#45;&gt;JLS&#45;24</title>
<path fill="none" stroke="black" d="M326,-606C326,-565.58 326,-508.67 326,-472.18"/>
<polygon fill="black" stroke="black" points="329.5,-472.01 326,-462.01 322.5,-472.01 329.5,-472.01"/>
</g>
<!-- TIJ&#45;04.1 -->
<g id="node5" class="node">
<title>TIJ&#45;04.1</title>
<g id="a_node5"><a xlink:href="https://score-json.github.io/nlohmann_json/main/generated/TIJ.html#tij-04.1" xlink:title="TIJ&#45;04.1: The service\nthrows an exception on\nimproperly bounded arrays.\n" target="_top">
<polygon fill="none" stroke="black" points="210,-60.5 0,-60.5 0,-7.5 210,-7.5 210,-60.5"/>
<text text-anchor="middle" x="105" y="-45.3" font-family="Open Sans" font-size="14.00">TIJ&#45;04.1: The service</text>
<text text-anchor="middle" x="105" y="-30.3" font-family="Open Sans" font-size="14.00">throws an exception on</text>
<text text-anchor="middle" x="105" y="-15.3" font-family="Open Sans" font-size="14.00">improperly bounded arrays.</text>
</a>
</g>
</g>
<!-- TIJ&#45;04&#45;&gt;TIJ&#45;04.1 -->
<g id="edge4" class="edge">
<title>TIJ&#45;04&#45;&gt;TIJ&#45;04.1</title>
<path fill="none" stroke="black" d="M298.01,-211.85C258.02,-175.21 184.52,-107.87 140.67,-67.69"/>
<polygon fill="black" stroke="black" points="142.85,-64.93 133.11,-60.76 138.12,-70.09 142.85,-64.93"/>
</g>
<!-- TIJ&#45;04.2 -->
<g id="node6" class="node">
<title>TIJ&#45;04.2</title>
<g id="a_node6"><a xlink:href="https://score-json.github.io/nlohmann_json/main/generated/TIJ.html#tij-04.2" xlink:title="TIJ&#45;04.2: The service\nthrows an exception on\nimproper values within\na properly bounded array.\n" target="_top">
<polygon fill="none" stroke="black" points="424,-68 228,-68 228,0 424,0 424,-68"/>
<text text-anchor="middle" x="326" y="-52.8" font-family="Open Sans" font-size="14.00">TIJ&#45;04.2: The service</text>
<text text-anchor="middle" x="326" y="-37.8" font-family="Open Sans" font-size="14.00">throws an exception on</text>
<text text-anchor="middle" x="326" y="-22.8" font-family="Open Sans" font-size="14.00">improper values within</text>
<text text-anchor="middle" x="326" y="-7.8" font-family="Open Sans" font-size="14.00">a properly bounded array.</text>
</a>
</g>
</g>
<!-- TIJ&#45;04&#45;&gt;TIJ&#45;04.2 -->
<g id="edge5" class="edge">
<title>TIJ&#45;04&#45;&gt;TIJ&#45;04.2</title>
<path fill="none" stroke="black" d="M326,-211.85C326,-178.27 326,-118.91 326,-78.3"/>
<polygon fill="black" stroke="black" points="329.5,-78.15 326,-68.15 322.5,-78.15 329.5,-78.15"/>
</g>
<!-- TIJ&#45;04.3 -->
<g id="node7" class="node">
<title>TIJ&#45;04.3</title>
<g id="a_node7"><a xlink:href="https://score-json.github.io/nlohmann_json/main/generated/TIJ.html#tij-04.3" xlink:title="TIJ&#45;04.3: The service\nthrows an exception on\nimproper value separators.\n" target="_top">
<polygon fill="none" stroke="black" points="646.5,-60.5 441.5,-60.5 441.5,-7.5 646.5,-7.5 646.5,-60.5"/>
<text text-anchor="middle" x="544" y="-45.3" font-family="Open Sans" font-size="14.00">TIJ&#45;04.3: The service</text>
<text text-anchor="middle" x="544" y="-30.3" font-family="Open Sans" font-size="14.00">throws an exception on</text>
<text text-anchor="middle" x="544" y="-15.3" font-family="Open Sans" font-size="14.00">improper value separators.</text>
</a>
</g>
</g>
<!-- TIJ&#45;04&#45;&gt;TIJ&#45;04.3 -->
<g id="edge6" class="edge">
<title>TIJ&#45;04&#45;&gt;TIJ&#45;04.3</title>
<path fill="none" stroke="black" d="M353.61,-211.85C393.06,-175.21 465.56,-107.87 508.81,-67.69"/>
<polygon fill="black" stroke="black" points="511.33,-70.13 516.27,-60.76 506.56,-65 511.33,-70.13"/>
</g>
<!-- TT&#45;EXPECTATIONS&#45;&gt;TA&#45;MISBEHAVIOURS -->
<g id="edge7" class="edge">
<title>TT&#45;EXPECTATIONS&#45;&gt;TA&#45;MISBEHAVIOURS</title>
<path fill="none" stroke="black" d="M326,-847.72C326,-809.23 326,-755.2 326,-714.3"/>
<polygon fill="black" stroke="black" points="329.5,-714.2 326,-704.2 322.5,-714.2 329.5,-714.2"/>
</g>
</g>
</svg>
