<?xml version="1.0" encoding="UTF-8" standalone="no"?>
<!DOCTYPE svg PUBLIC "-//W3C//DTD SVG 1.1//EN"
 "http://www.w3.org/Graphics/SVG/1.1/DTD/svg11.dtd">
<!-- Generated by graphviz version 2.43.0 (0)
 -->
<!-- Title: G Pages: 1 -->
<svg width="1127pt" height="1166pt"
 viewBox="0.00 0.00 1127.00 1166.00" xmlns="http://www.w3.org/2000/svg" xmlns:xlink="http://www.w3.org/1999/xlink">
<g id="graph0" class="graph" transform="scale(1 1) rotate(0) translate(4 1162)">
<title>G</title>
<polygon fill="white" stroke="transparent" points="-4,4 -4,-1162 1123,-1162 1123,4 -4,4"/>
<!-- TRUSTABLE&#45;SOFTWARE -->
<g id="node1" class="node">
<title>TRUSTABLE&#45;SOFTWARE</title>
<g id="a_node1"><a xlink:href="https://score-json.github.io/nlohmann_json/main/_images/custom_TRUSTABLE-SOFTWARE_graph.svg" xlink:title="TRUSTABLE&#45;SOFTWARE: This\nrelease of JSON&#45;Library\nalso reffered in the\ndocumentation as nlohmann/json\nlibrary is Trustable.\n" target="_top">
<polygon fill="none" stroke="black" points="701.5,-1158 453.5,-1158 453.5,-1075 701.5,-1075 701.5,-1158"/>
<text text-anchor="middle" x="577.5" y="-1142.8" font-family="Open Sans" font-size="14.00">TRUSTABLE&#45;SOFTWARE: This</text>
<text text-anchor="middle" x="577.5" y="-1127.8" font-family="Open Sans" font-size="14.00">release of JSON&#45;Library</text>
<text text-anchor="middle" x="577.5" y="-1112.8" font-family="Open Sans" font-size="14.00">also reffered in the</text>
<text text-anchor="middle" x="577.5" y="-1097.8" font-family="Open Sans" font-size="14.00">documentation as nlohmann/json</text>
<text text-anchor="middle" x="577.5" y="-1082.8" font-family="Open Sans" font-size="14.00">library is Trustable.</text>
</a>
</g>
</g>
<!-- TT&#45;EXPECTATIONS -->
<g id="node10" class="node">
<title>TT&#45;EXPECTATIONS</title>
<g id="a_node10"><a xlink:href="https://score-json.github.io/nlohmann_json/main/_images/custom_TT-EXPECTATIONS_graph.svg" xlink:title="TT&#45;EXPECTATIONS: Documentation\nis provided, specifying\nwhat nlohmann/json library\nis expected to do, and\nwhat it must not do,\nand how this is verified.\n" target="_top">
<polygon fill="none" stroke="black" points="706,-931 449,-931 449,-833 706,-833 706,-931"/>
<text text-anchor="middle" x="577.5" y="-915.8" font-family="Open Sans" font-size="14.00">TT&#45;EXPECTATIONS: Documentation</text>
<text text-anchor="middle" x="577.5" y="-900.8" font-family="Open Sans" font-size="14.00">is provided, specifying</text>
<text text-anchor="middle" x="577.5" y="-885.8" font-family="Open Sans" font-size="14.00">what nlohmann/json library</text>
<text text-anchor="middle" x="577.5" y="-870.8" font-family="Open Sans" font-size="14.00">is expected to do, and</text>
<text text-anchor="middle" x="577.5" y="-855.8" font-family="Open Sans" font-size="14.00">what it must not do,</text>
<text text-anchor="middle" x="577.5" y="-840.8" font-family="Open Sans" font-size="14.00">and how this is verified.</text>
</a>
</g>
</g>
<!-- TRUSTABLE&#45;SOFTWARE&#45;&gt;TT&#45;EXPECTATIONS -->
<g id="edge1" class="edge">
<title>TRUSTABLE&#45;SOFTWARE&#45;&gt;TT&#45;EXPECTATIONS</title>
<path fill="none" stroke="black" d="M577.5,-1074.74C577.5,-1037.88 577.5,-983.18 577.5,-941.63"/>
<polygon fill="black" stroke="black" points="581,-941.37 577.5,-931.37 574,-941.37 581,-941.37"/>
</g>
<!-- JLS&#45;24 -->
<g id="node2" class="node">
<title>JLS&#45;24</title>
<g id="a_node2"><a xlink:href="https://score-json.github.io/nlohmann_json/main/_images/custom_JLS-24_graph.svg" xlink:title="JLS&#45;24: The nlohmann/json\nlibrary recognizes malformed\nJSON and returns an exception.\n" target="_top">
<polygon fill="none" stroke="black" points="695,-447 460,-447 460,-394 695,-394 695,-447"/>
<text text-anchor="middle" x="577.5" y="-431.8" font-family="Open Sans" font-size="14.00">JLS&#45;24: The nlohmann/json</text>
<text text-anchor="middle" x="577.5" y="-416.8" font-family="Open Sans" font-size="14.00">library recognizes malformed</text>
<text text-anchor="middle" x="577.5" y="-401.8" font-family="Open Sans" font-size="14.00">JSON and returns an exception.</text>
</a>
</g>
</g>
<!-- TIJ&#45;03 -->
<g id="node4" class="node">
<title>TIJ&#45;03</title>
<g id="a_node4"><a xlink:href="https://score-json.github.io/nlohmann_json/main/_images/custom_TIJ-03_graph.svg" xlink:title="TIJ&#45;03: The parsing service\nthrows an exception on\nill&#45;formed strings. " target="_top">
<polygon fill="none" stroke="black" points="678.5,-250 476.5,-250 476.5,-197 678.5,-197 678.5,-250"/>
<text text-anchor="middle" x="577.5" y="-234.8" font-family="Open Sans" font-size="14.00">TIJ&#45;03: The parsing service</text>
<text text-anchor="middle" x="577.5" y="-219.8" font-family="Open Sans" font-size="14.00">throws an exception on</text>
<text text-anchor="middle" x="577.5" y="-204.8" font-family="Open Sans" font-size="14.00">ill&#45;formed strings. </text>
</a>
</g>
</g>
<!-- JLS&#45;24&#45;&gt;TIJ&#45;03 -->
<g id="edge2" class="edge">
<title>JLS&#45;24&#45;&gt;TIJ&#45;03</title>
<path fill="none" stroke="black" d="M577.5,-393.61C577.5,-359.42 577.5,-299.06 577.5,-260.46"/>
<polygon fill="black" stroke="black" points="581,-260.19 577.5,-250.19 574,-260.19 581,-260.19"/>
</g>
<!-- TA&#45;MISBEHAVIOURS -->
<g id="node3" class="node">
<title>TA&#45;MISBEHAVIOURS</title>
<g id="a_node3"><a xlink:href="https://score-json.github.io/nlohmann_json/main/_images/custom_TA-MISBEHAVIOURS_graph.svg" xlink:title="TA&#45;MISBEHAVIOURS: Prohibited\nmisbehaviours for nlohmann/json\nlibrary are identified,\nand mitigations are specified,\nverified and validated\nbased on analysis. " target="_top">
<polygon fill="none" stroke="black" points="702.5,-689 452.5,-689 452.5,-591 702.5,-591 702.5,-689"/>
<text text-anchor="middle" x="577.5" y="-673.8" font-family="Open Sans" font-size="14.00">TA&#45;MISBEHAVIOURS: Prohibited</text>
<text text-anchor="middle" x="577.5" y="-658.8" font-family="Open Sans" font-size="14.00">misbehaviours for nlohmann/json</text>
<text text-anchor="middle" x="577.5" y="-643.8" font-family="Open Sans" font-size="14.00">library are identified,</text>
<text text-anchor="middle" x="577.5" y="-628.8" font-family="Open Sans" font-size="14.00">and mitigations are specified,</text>
<text text-anchor="middle" x="577.5" y="-613.8" font-family="Open Sans" font-size="14.00">verified and validated</text>
<text text-anchor="middle" x="577.5" y="-598.8" font-family="Open Sans" font-size="14.00">based on analysis. </text>
</a>
</g>
</g>
<!-- TA&#45;MISBEHAVIOURS&#45;&gt;JLS&#45;24 -->
<g id="edge3" class="edge">
<title>TA&#45;MISBEHAVIOURS&#45;&gt;JLS&#45;24</title>
<path fill="none" stroke="black" d="M577.5,-591C577.5,-550.58 577.5,-493.67 577.5,-457.18"/>
<polygon fill="black" stroke="black" points="581,-457.01 577.5,-447.01 574,-457.01 581,-457.01"/>
</g>
<!-- TIJ&#45;03.1 -->
<g id="node5" class="node">
<title>TIJ&#45;03.1</title>
<g id="a_node5"><a xlink:href="https://score-json.github.io/nlohmann_json/main/generated/TIJ.html#tij-03.1" xlink:title="TIJ&#45;03.1: The service\nthrows an exception on\nunescaped control characters.\n" target="_top">
<polygon fill="none" stroke="black" points="227,-53 0,-53 0,0 227,0 227,-53"/>
<text text-anchor="middle" x="113.5" y="-37.8" font-family="Open Sans" font-size="14.00">TIJ&#45;03.1: The service</text>
<text text-anchor="middle" x="113.5" y="-22.8" font-family="Open Sans" font-size="14.00">throws an exception on</text>
<text text-anchor="middle" x="113.5" y="-7.8" font-family="Open Sans" font-size="14.00">unescaped control characters.</text>
</a>
</g>
</g>
<!-- TIJ&#45;03&#45;&gt;TIJ&#45;03.1 -->
<g id="edge4" class="edge">
<title>TIJ&#45;03&#45;&gt;TIJ&#45;03.1</title>
<path fill="none" stroke="black" d="M516.36,-196.81C430.44,-160.7 274.37,-95.11 183.77,-57.03"/>
<polygon fill="black" stroke="black" points="184.98,-53.74 174.4,-53.1 182.27,-60.2 184.98,-53.74"/>
</g>
<!-- TIJ&#45;03.2 -->
<g id="node6" class="node">
<title>TIJ&#45;03.2</title>
<g id="a_node6"><a xlink:href="https://score-json.github.io/nlohmann_json/main/generated/TIJ.html#tij-03.2" xlink:title="TIJ&#45;03.2: The service\nthrows an exception on\nunpaired utf&#45;16 surrogates.\n" target="_top">
<polygon fill="none" stroke="black" points="452,-53 245,-53 245,0 452,0 452,-53"/>
<text text-anchor="middle" x="348.5" y="-37.8" font-family="Open Sans" font-size="14.00">TIJ&#45;03.2: The service</text>
<text text-anchor="middle" x="348.5" y="-22.8" font-family="Open Sans" font-size="14.00">throws an exception on</text>
<text text-anchor="middle" x="348.5" y="-7.8" font-family="Open Sans" font-size="14.00">unpaired utf&#45;16 surrogates.</text>
</a>
</g>
</g>
<!-- TIJ&#45;03&#45;&gt;TIJ&#45;03.2 -->
<g id="edge5" class="edge">
<title>TIJ&#45;03&#45;&gt;TIJ&#45;03.2</title>
<path fill="none" stroke="black" d="M547.09,-196.61C505.66,-161.32 431.48,-98.16 386.45,-59.82"/>
<polygon fill="black" stroke="black" points="388.55,-57.01 378.67,-53.19 384.01,-62.34 388.55,-57.01"/>
</g>
<!-- TIJ&#45;03.3 -->
<g id="node7" class="node">
<title>TIJ&#45;03.3</title>
<g id="a_node7"><a xlink:href="https://score-json.github.io/nlohmann_json/main/generated/TIJ.html#tij-03.3" xlink:title="TIJ&#45;03.3: The service\nthrows an exception on\nimproperly bounded strings.\n" target="_top">
<polygon fill="none" stroke="black" points="685,-53 470,-53 470,0 685,0 685,-53"/>
<text text-anchor="middle" x="577.5" y="-37.8" font-family="Open Sans" font-size="14.00">TIJ&#45;03.3: The service</text>
<text text-anchor="middle" x="577.5" y="-22.8" font-family="Open Sans" font-size="14.00">throws an exception on</text>
<text text-anchor="middle" x="577.5" y="-7.8" font-family="Open Sans" font-size="14.00">improperly bounded strings.</text>
</a>
</g>
</g>
<!-- TIJ&#45;03&#45;&gt;TIJ&#45;03.3 -->
<g id="edge6" class="edge">
<title>TIJ&#45;03&#45;&gt;TIJ&#45;03.3</title>
<path fill="none" stroke="black" d="M577.5,-196.61C577.5,-162.42 577.5,-102.06 577.5,-63.46"/>
<polygon fill="black" stroke="black" points="581,-63.19 577.5,-53.19 574,-63.19 581,-63.19"/>
</g>
<!-- TIJ&#45;03.4 -->
<g id="node8" class="node">
<title>TIJ&#45;03.4</title>
<g id="a_node8"><a xlink:href="https://score-json.github.io/nlohmann_json/main/generated/TIJ.html#tij-03.4" xlink:title="TIJ&#45;03.4: The service\nthrows an exception on\nescaped invalid characters.\n" target="_top">
<polygon fill="none" stroke="black" points="910,-53 703,-53 703,0 910,0 910,-53"/>
<text text-anchor="middle" x="806.5" y="-37.8" font-family="Open Sans" font-size="14.00">TIJ&#45;03.4: The service</text>
<text text-anchor="middle" x="806.5" y="-22.8" font-family="Open Sans" font-size="14.00">throws an exception on</text>
<text text-anchor="middle" x="806.5" y="-7.8" font-family="Open Sans" font-size="14.00">escaped invalid characters.</text>
</a>
</g>
</g>
<!-- TIJ&#45;03&#45;&gt;TIJ&#45;03.4 -->
<g id="edge7" class="edge">
<title>TIJ&#45;03&#45;&gt;TIJ&#45;03.4</title>
<path fill="none" stroke="black" d="M607.91,-196.61C649.34,-161.32 723.52,-98.16 768.55,-59.82"/>
<polygon fill="black" stroke="black" points="770.99,-62.34 776.33,-53.19 766.45,-57.01 770.99,-62.34"/>
</g>
<!-- TIJ&#45;03.5 -->
<g id="node9" class="node">
<title>TIJ&#45;03.5</title>
<g id="a_node9"><a xlink:href="https://score-json.github.io/nlohmann_json/main/generated/TIJ.html#tij-03.5" xlink:title="TIJ&#45;03.5: The service\nthrows an exception on\nincorrect surrogate pairs.\n" target="_top">
<polygon fill="none" stroke="black" points="1119,-53 928,-53 928,0 1119,0 1119,-53"/>
<text text-anchor="middle" x="1023.5" y="-37.8" font-family="Open Sans" font-size="14.00">TIJ&#45;03.5: The service</text>
<text text-anchor="middle" x="1023.5" y="-22.8" font-family="Open Sans" font-size="14.00">throws an exception on</text>
<text text-anchor="middle" x="1023.5" y="-7.8" font-family="Open Sans" font-size="14.00">incorrect surrogate pairs.</text>
</a>
</g>
</g>
<!-- TIJ&#45;03&#45;&gt;TIJ&#45;03.5 -->
<g id="edge8" class="edge">
<title>TIJ&#45;03&#45;&gt;TIJ&#45;03.5</title>
<path fill="none" stroke="black" d="M636.27,-196.81C718.77,-160.73 868.57,-95.24 955.69,-57.15"/>
<polygon fill="black" stroke="black" points="957.2,-60.31 964.96,-53.1 954.39,-53.89 957.2,-60.31"/>
</g>
<!-- TT&#45;EXPECTATIONS&#45;&gt;TA&#45;MISBEHAVIOURS -->
<g id="edge9" class="edge">
<title>TT&#45;EXPECTATIONS&#45;&gt;TA&#45;MISBEHAVIOURS</title>
<path fill="none" stroke="black" d="M577.5,-832.72C577.5,-794.23 577.5,-740.2 577.5,-699.3"/>
<polygon fill="black" stroke="black" points="581,-699.2 577.5,-689.2 574,-699.2 581,-699.2"/>
</g>
</g>
</svg>
