<?xml version="1.0" encoding="UTF-8" standalone="no"?>
<!DOCTYPE svg PUBLIC "-//W3C//DTD SVG 1.1//EN"
 "http://www.w3.org/Graphics/SVG/1.1/DTD/svg11.dtd">
<!-- Generated by graphviz version 2.43.0 (0)
 -->
<!-- Title: G Pages: 1 -->
<svg width="1686pt" height="1393pt"
 viewBox="0.00 0.00 1685.50 1393.00" xmlns="http://www.w3.org/2000/svg" xmlns:xlink="http://www.w3.org/1999/xlink">
<g id="graph0" class="graph" transform="scale(1 1) rotate(0) translate(4 1389)">
<title>G</title>
<polygon fill="white" stroke="transparent" points="-4,4 -4,-1389 1681.5,-1389 1681.5,4 -4,4"/>
<!-- TRUSTABLE&#45;SOFTWARE -->
<g id="node1" class="node">
<title>TRUSTABLE&#45;SOFTWARE</title>
<g id="a_node1"><a xlink:href="https://score-json.github.io/nlohmann_json/main/_images/custom_TRUSTABLE-SOFTWARE_graph.svg" xlink:title="TRUSTABLE&#45;SOFTWARE: This\nrelease of JSON&#45;Library\nalso reffered in the\ndocumentation as nlohmann/json\nlibrary is Trustable.\n" target="_top">
<polygon fill="none" stroke="black" points="976,-1385 728,-1385 728,-1302 976,-1302 976,-1385"/>
<text text-anchor="middle" x="852" y="-1369.8" font-family="Open Sans" font-size="14.00">TRUSTABLE&#45;SOFTWARE: This</text>
<text text-anchor="middle" x="852" y="-1354.8" font-family="Open Sans" font-size="14.00">release of JSON&#45;Library</text>
<text text-anchor="middle" x="852" y="-1339.8" font-family="Open Sans" font-size="14.00">also reffered in the</text>
<text text-anchor="middle" x="852" y="-1324.8" font-family="Open Sans" font-size="14.00">documentation as nlohmann/json</text>
<text text-anchor="middle" x="852" y="-1309.8" font-family="Open Sans" font-size="14.00">library is Trustable.</text>
</a>
</g>
</g>
<!-- TT&#45;EXPECTATIONS -->
<g id="node13" class="node">
<title>TT&#45;EXPECTATIONS</title>
<g id="a_node13"><a xlink:href="https://score-json.github.io/nlohmann_json/main/_images/custom_TT-EXPECTATIONS_graph.svg" xlink:title="TT&#45;EXPECTATIONS: Documentation\nis provided, specifying\nwhat nlohmann/json library\nis expected to do, and\nwhat it must not do,\nand how this is verified.\n" target="_top">
<polygon fill="none" stroke="black" points="980.5,-1158 723.5,-1158 723.5,-1060 980.5,-1060 980.5,-1158"/>
<text text-anchor="middle" x="852" y="-1142.8" font-family="Open Sans" font-size="14.00">TT&#45;EXPECTATIONS: Documentation</text>
<text text-anchor="middle" x="852" y="-1127.8" font-family="Open Sans" font-size="14.00">is provided, specifying</text>
<text text-anchor="middle" x="852" y="-1112.8" font-family="Open Sans" font-size="14.00">what nlohmann/json library</text>
<text text-anchor="middle" x="852" y="-1097.8" font-family="Open Sans" font-size="14.00">is expected to do, and</text>
<text text-anchor="middle" x="852" y="-1082.8" font-family="Open Sans" font-size="14.00">what it must not do,</text>
<text text-anchor="middle" x="852" y="-1067.8" font-family="Open Sans" font-size="14.00">and how this is verified.</text>
</a>
</g>
</g>
<!-- TRUSTABLE&#45;SOFTWARE&#45;&gt;TT&#45;EXPECTATIONS -->
<g id="edge1" class="edge">
<title>TRUSTABLE&#45;SOFTWARE&#45;&gt;TT&#45;EXPECTATIONS</title>
<path fill="none" stroke="black" d="M852,-1301.74C852,-1264.88 852,-1210.18 852,-1168.63"/>
<polygon fill="black" stroke="black" points="855.5,-1168.37 852,-1158.37 848.5,-1168.37 855.5,-1168.37"/>
</g>
<!-- JLEX&#45;01 -->
<g id="node2" class="node">
<title>JLEX&#45;01</title>
<g id="a_node2"><a xlink:href="https://score-json.github.io/nlohmann_json/main/_images/custom_JLEX-01_graph.svg" xlink:title="JLEX&#45;01: The requirement\nregarding [JSON Validation](https://eclipse&#45;score.github.io/score/main/modules/baselibs/json/docs/requirements/index.html#comp_req__json__validation)\nis fulfilled. " target="_top">
<polygon fill="none" stroke="black" points="1389.5,-674 314.5,-674 314.5,-621 1389.5,-621 1389.5,-674"/>
<text text-anchor="middle" x="852" y="-658.8" font-family="Open Sans" font-size="14.00">JLEX&#45;01: The requirement</text>
<text text-anchor="middle" x="852" y="-643.8" font-family="Open Sans" font-size="14.00">regarding [JSON Validation](https://eclipse&#45;score.github.io/score/main/modules/baselibs/json/docs/requirements/index.html#comp_req__json__validation)</text>
<text text-anchor="middle" x="852" y="-628.8" font-family="Open Sans" font-size="14.00">is fulfilled. </text>
</a>
</g>
</g>
<!-- WFJ&#45;04 -->
<g id="node14" class="node">
<title>WFJ&#45;04</title>
<g id="a_node14"><a xlink:href="https://score-json.github.io/nlohmann_json/main/_images/custom_WFJ-04_graph.svg" xlink:title="WFJ&#45;04: The service checks\nthe well&#45;formedness of\narray. " target="_top">
<polygon fill="none" stroke="black" points="955,-477 749,-477 749,-424 955,-424 955,-477"/>
<text text-anchor="middle" x="852" y="-461.8" font-family="Open Sans" font-size="14.00">WFJ&#45;04: The service checks</text>
<text text-anchor="middle" x="852" y="-446.8" font-family="Open Sans" font-size="14.00">the well&#45;formedness of</text>
<text text-anchor="middle" x="852" y="-431.8" font-family="Open Sans" font-size="14.00">array. </text>
</a>
</g>
</g>
<!-- JLEX&#45;01&#45;&gt;WFJ&#45;04 -->
<g id="edge2" class="edge">
<title>JLEX&#45;01&#45;&gt;WFJ&#45;04</title>
<path fill="none" stroke="black" d="M852,-620.61C852,-586.42 852,-526.06 852,-487.46"/>
<polygon fill="black" stroke="black" points="855.5,-487.19 852,-477.19 848.5,-487.19 855.5,-487.19"/>
</g>
<!-- NJF&#45;05 -->
<g id="node3" class="node">
<title>NJF&#45;05</title>
<g id="a_node3"><a xlink:href="https://score-json.github.io/nlohmann_json/main/_images/custom_NJF-05_graph.svg" xlink:title="NJF&#45;05: The service accepts\nand rejects arrays according\nto RFC8259 ยง5. " target="_top">
<polygon fill="none" stroke="black" points="958.5,-280 745.5,-280 745.5,-227 958.5,-227 958.5,-280"/>
<text text-anchor="middle" x="852" y="-264.8" font-family="Open Sans" font-size="14.00">NJF&#45;05: The service accepts</text>
<text text-anchor="middle" x="852" y="-249.8" font-family="Open Sans" font-size="14.00">and rejects arrays according</text>
<text text-anchor="middle" x="852" y="-234.8" font-family="Open Sans" font-size="14.00">to RFC8259 ยง5. </text>
</a>
</g>
</g>
<!-- NJF&#45;05.1 -->
<g id="node4" class="node">
<title>NJF&#45;05.1</title>
<g id="a_node4"><a xlink:href="https://score-json.github.io/nlohmann_json/main/generated/NJF.html#njf-05.1" xlink:title="NJF&#45;05.1: The service\naccepts the empty array.\n" target="_top">
<polygon fill="none" stroke="black" points="188,-60.5 0,-60.5 0,-22.5 188,-22.5 188,-60.5"/>
<text text-anchor="middle" x="94" y="-45.3" font-family="Open Sans" font-size="14.00">NJF&#45;05.1: The service</text>
<text text-anchor="middle" x="94" y="-30.3" font-family="Open Sans" font-size="14.00">accepts the empty array.</text>
</a>
</g>
</g>
<!-- NJF&#45;05&#45;&gt;NJF&#45;05.1 -->
<g id="edge3" class="edge">
<title>NJF&#45;05&#45;&gt;NJF&#45;05.1</title>
<path fill="none" stroke="black" d="M745.36,-229.1C614.78,-199.5 387.48,-144.84 197,-83 180.12,-77.52 162.01,-70.72 145.76,-64.27"/>
<polygon fill="black" stroke="black" points="147.01,-61 136.43,-60.52 144.4,-67.5 147.01,-61"/>
</g>
<!-- NJF&#45;05.2 -->
<g id="node5" class="node">
<title>NJF&#45;05.2</title>
<g id="a_node5"><a xlink:href="https://score-json.github.io/nlohmann_json/main/generated/NJF.html#njf-05.2" xlink:title="NJF&#45;05.2: The service\naccepts the non&#45;empty\narrays. " target="_top">
<polygon fill="none" stroke="black" points="383.5,-68 206.5,-68 206.5,-15 383.5,-15 383.5,-68"/>
<text text-anchor="middle" x="295" y="-52.8" font-family="Open Sans" font-size="14.00">NJF&#45;05.2: The service</text>
<text text-anchor="middle" x="295" y="-37.8" font-family="Open Sans" font-size="14.00">accepts the non&#45;empty</text>
<text text-anchor="middle" x="295" y="-22.8" font-family="Open Sans" font-size="14.00">arrays. </text>
</a>
</g>
</g>
<!-- NJF&#45;05&#45;&gt;NJF&#45;05.2 -->
<g id="edge4" class="edge">
<title>NJF&#45;05&#45;&gt;NJF&#45;05.2</title>
<path fill="none" stroke="black" d="M780.13,-226.92C689.5,-194.44 529.07,-136.22 393,-83 383.93,-79.45 374.43,-75.65 365.06,-71.83"/>
<polygon fill="black" stroke="black" points="366.34,-68.57 355.76,-68.03 363.69,-75.05 366.34,-68.57"/>
</g>
<!-- NJF&#45;05.3 -->
<g id="node6" class="node">
<title>NJF&#45;05.3</title>
<g id="a_node6"><a xlink:href="https://score-json.github.io/nlohmann_json/main/generated/NJF.html#njf-05.3" xlink:title="NJF&#45;05.3: If every value\ncandidate of a properly\nbounded array is accepted\nas singleton, then the\nservice accepts the array.\n" target="_top">
<polygon fill="none" stroke="black" points="604,-83 402,-83 402,0 604,0 604,-83"/>
<text text-anchor="middle" x="503" y="-67.8" font-family="Open Sans" font-size="14.00">NJF&#45;05.3: If every value</text>
<text text-anchor="middle" x="503" y="-52.8" font-family="Open Sans" font-size="14.00">candidate of a properly</text>
<text text-anchor="middle" x="503" y="-37.8" font-family="Open Sans" font-size="14.00">bounded array is accepted</text>
<text text-anchor="middle" x="503" y="-22.8" font-family="Open Sans" font-size="14.00">as singleton, then the</text>
<text text-anchor="middle" x="503" y="-7.8" font-family="Open Sans" font-size="14.00">service accepts the array.</text>
</a>
</g>
</g>
<!-- NJF&#45;05&#45;&gt;NJF&#45;05.3 -->
<g id="edge5" class="edge">
<title>NJF&#45;05&#45;&gt;NJF&#45;05.3</title>
<path fill="none" stroke="black" d="M809.55,-226.96C752.5,-192.63 650.09,-131.01 579.44,-88.5"/>
<polygon fill="black" stroke="black" points="580.93,-85.31 570.56,-83.15 577.32,-91.3 580.93,-85.31"/>
</g>
<!-- NJF&#45;05.4 -->
<g id="node7" class="node">
<title>NJF&#45;05.4</title>
<g id="a_node7"><a xlink:href="https://score-json.github.io/nlohmann_json/main/generated/NJF.html#njf-05.4" xlink:title="NJF&#45;05.4: The service\ndoes not accept any improperly\nbounded arrays. " target="_top">
<polygon fill="none" stroke="black" points="858,-68 622,-68 622,-15 858,-15 858,-68"/>
<text text-anchor="middle" x="740" y="-52.8" font-family="Open Sans" font-size="14.00">NJF&#45;05.4: The service</text>
<text text-anchor="middle" x="740" y="-37.8" font-family="Open Sans" font-size="14.00">does not accept any improperly</text>
<text text-anchor="middle" x="740" y="-22.8" font-family="Open Sans" font-size="14.00">bounded arrays. </text>
</a>
</g>
</g>
<!-- NJF&#45;05&#45;&gt;NJF&#45;05.4 -->
<g id="edge6" class="edge">
<title>NJF&#45;05&#45;&gt;NJF&#45;05.4</title>
<path fill="none" stroke="black" d="M838.27,-226.75C818.23,-189.18 780.93,-119.24 758.49,-77.17"/>
<polygon fill="black" stroke="black" points="761.46,-75.31 753.67,-68.13 755.29,-78.6 761.46,-75.31"/>
</g>
<!-- NJF&#45;05.5 -->
<g id="node8" class="node">
<title>NJF&#45;05.5</title>
<g id="a_node8"><a xlink:href="https://score-json.github.io/nlohmann_json/main/generated/NJF.html#njf-05.5" xlink:title="NJF&#45;05.5: The service\ndoes not accept arrays\nwith improper values.\n" target="_top">
<polygon fill="none" stroke="black" points="1051.5,-68 876.5,-68 876.5,-15 1051.5,-15 1051.5,-68"/>
<text text-anchor="middle" x="964" y="-52.8" font-family="Open Sans" font-size="14.00">NJF&#45;05.5: The service</text>
<text text-anchor="middle" x="964" y="-37.8" font-family="Open Sans" font-size="14.00">does not accept arrays</text>
<text text-anchor="middle" x="964" y="-22.8" font-family="Open Sans" font-size="14.00">with improper values.</text>
</a>
</g>
</g>
<!-- NJF&#45;05&#45;&gt;NJF&#45;05.5 -->
<g id="edge7" class="edge">
<title>NJF&#45;05&#45;&gt;NJF&#45;05.5</title>
<path fill="none" stroke="black" d="M865.73,-226.75C885.77,-189.18 923.07,-119.24 945.51,-77.17"/>
<polygon fill="black" stroke="black" points="948.71,-78.6 950.33,-68.13 942.54,-75.31 948.71,-78.6"/>
</g>
<!-- NJF&#45;05.6 -->
<g id="node9" class="node">
<title>NJF&#45;05.6</title>
<g id="a_node9"><a xlink:href="https://score-json.github.io/nlohmann_json/main/generated/NJF.html#njf-05.6" xlink:title="NJF&#45;05.6: The service\naccepts nested arrays.\n" target="_top">
<polygon fill="none" stroke="black" points="1244,-60.5 1070,-60.5 1070,-22.5 1244,-22.5 1244,-60.5"/>
<text text-anchor="middle" x="1157" y="-45.3" font-family="Open Sans" font-size="14.00">NJF&#45;05.6: The service</text>
<text text-anchor="middle" x="1157" y="-30.3" font-family="Open Sans" font-size="14.00">accepts nested arrays.</text>
</a>
</g>
</g>
<!-- NJF&#45;05&#45;&gt;NJF&#45;05.6 -->
<g id="edge8" class="edge">
<title>NJF&#45;05&#45;&gt;NJF&#45;05.6</title>
<path fill="none" stroke="black" d="M889.09,-226.96C948.59,-186 1064.52,-106.17 1122.4,-66.32"/>
<polygon fill="black" stroke="black" points="1124.58,-69.07 1130.84,-60.51 1120.61,-63.3 1124.58,-69.07"/>
</g>
<!-- NJF&#45;05.6.0 -->
<g id="node10" class="node">
<title>NJF&#45;05.6.0</title>
<g id="a_node10"><a xlink:href="https://score-json.github.io/nlohmann_json/main/generated/NJF.html#njf-05.6.0" xlink:title="NJF&#45;05.6.0: The acceptance\nof nested arrays does\nnot depend on the depth\nof nesting. " target="_top">
<polygon fill="none" stroke="black" points="1470,-75.5 1262,-75.5 1262,-7.5 1470,-7.5 1470,-75.5"/>
<text text-anchor="middle" x="1366" y="-60.3" font-family="Open Sans" font-size="14.00">NJF&#45;05.6.0: The acceptance</text>
<text text-anchor="middle" x="1366" y="-45.3" font-family="Open Sans" font-size="14.00">of nested arrays does</text>
<text text-anchor="middle" x="1366" y="-30.3" font-family="Open Sans" font-size="14.00">not depend on the depth</text>
<text text-anchor="middle" x="1366" y="-15.3" font-family="Open Sans" font-size="14.00">of nesting. </text>
</a>
</g>
</g>
<!-- NJF&#45;05&#45;&gt;NJF&#45;05.6.0 -->
<g id="edge10" class="edge">
<title>NJF&#45;05&#45;&gt;NJF&#45;05.6.0</title>
<path fill="none" stroke="black" d="M914.51,-226.96C1004.67,-190.13 1171.73,-121.87 1275.4,-79.51"/>
<polygon fill="black" stroke="black" points="1276.99,-82.65 1284.92,-75.63 1274.34,-76.17 1276.99,-82.65"/>
</g>
<!-- NJF&#45;05.7 -->
<g id="node11" class="node">
<title>NJF&#45;05.7</title>
<g id="a_node11"><a xlink:href="https://score-json.github.io/nlohmann_json/main/_images/custom_NJF-05.7_graph.svg" xlink:title="NJF&#45;05.7: The service\ndoes only accept comma\nas value separator. " target="_top">
<polygon fill="none" stroke="black" points="1677.5,-68 1488.5,-68 1488.5,-15 1677.5,-15 1677.5,-68"/>
<text text-anchor="middle" x="1583" y="-52.8" font-family="Open Sans" font-size="14.00">NJF&#45;05.7: The service</text>
<text text-anchor="middle" x="1583" y="-37.8" font-family="Open Sans" font-size="14.00">does only accept comma</text>
<text text-anchor="middle" x="1583" y="-22.8" font-family="Open Sans" font-size="14.00">as value separator. </text>
</a>
</g>
</g>
<!-- NJF&#45;05&#45;&gt;NJF&#45;05.7 -->
<g id="edge9" class="edge">
<title>NJF&#45;05&#45;&gt;NJF&#45;05.7</title>
<path fill="none" stroke="black" d="M958.7,-227.36C1084.3,-196.92 1298.64,-142.31 1479,-83 1489.53,-79.54 1500.56,-75.6 1511.32,-71.57"/>
<polygon fill="black" stroke="black" points="1512.59,-74.83 1520.7,-68.01 1510.11,-68.28 1512.59,-74.83"/>
</g>
<!-- TA&#45;BEHAVIOURS -->
<g id="node12" class="node">
<title>TA&#45;BEHAVIOURS</title>
<g id="a_node12"><a xlink:href="https://score-json.github.io/nlohmann_json/main/_images/custom_TA-BEHAVIOURS_graph.svg" xlink:title="TA&#45;BEHAVIOURS: Expected\nor required behaviours\nfor nlohmann/json library\nare identified, specified,\nverified and validated\nbased on analysis. " target="_top">
<polygon fill="none" stroke="black" points="954,-916 750,-916 750,-818 954,-818 954,-916"/>
<text text-anchor="middle" x="852" y="-900.8" font-family="Open Sans" font-size="14.00">TA&#45;BEHAVIOURS: Expected</text>
<text text-anchor="middle" x="852" y="-885.8" font-family="Open Sans" font-size="14.00">or required behaviours</text>
<text text-anchor="middle" x="852" y="-870.8" font-family="Open Sans" font-size="14.00">for nlohmann/json library</text>
<text text-anchor="middle" x="852" y="-855.8" font-family="Open Sans" font-size="14.00">are identified, specified,</text>
<text text-anchor="middle" x="852" y="-840.8" font-family="Open Sans" font-size="14.00">verified and validated</text>
<text text-anchor="middle" x="852" y="-825.8" font-family="Open Sans" font-size="14.00">based on analysis. </text>
</a>
</g>
</g>
<!-- TA&#45;BEHAVIOURS&#45;&gt;JLEX&#45;01 -->
<g id="edge11" class="edge">
<title>TA&#45;BEHAVIOURS&#45;&gt;JLEX&#45;01</title>
<path fill="none" stroke="black" d="M852,-818C852,-777.58 852,-720.67 852,-684.18"/>
<polygon fill="black" stroke="black" points="855.5,-684.01 852,-674.01 848.5,-684.01 855.5,-684.01"/>
</g>
<!-- TT&#45;EXPECTATIONS&#45;&gt;TA&#45;BEHAVIOURS -->
<g id="edge12" class="edge">
<title>TT&#45;EXPECTATIONS&#45;&gt;TA&#45;BEHAVIOURS</title>
<path fill="none" stroke="black" d="M852,-1059.72C852,-1021.23 852,-967.2 852,-926.3"/>
<polygon fill="black" stroke="black" points="855.5,-926.2 852,-916.2 848.5,-926.2 855.5,-926.2"/>
</g>
<!-- WFJ&#45;04&#45;&gt;NJF&#45;05 -->
<g id="edge13" class="edge">
<title>WFJ&#45;04&#45;&gt;NJF&#45;05</title>
<path fill="none" stroke="black" d="M852,-423.61C852,-389.42 852,-329.06 852,-290.46"/>
<polygon fill="black" stroke="black" points="855.5,-290.19 852,-280.19 848.5,-290.19 855.5,-290.19"/>
</g>
</g>
</svg>
