<?xml version="1.0" encoding="UTF-8" standalone="no"?>
<!DOCTYPE svg PUBLIC "-//W3C//DTD SVG 1.1//EN"
 "http://www.w3.org/Graphics/SVG/1.1/DTD/svg11.dtd">
<!-- Generated by graphviz version 2.43.0 (0)
 -->
<!-- Title: G Pages: 1 -->
<svg width="1083pt" height="1181pt"
 viewBox="0.00 0.00 1083.00 1181.00" xmlns="http://www.w3.org/2000/svg" xmlns:xlink="http://www.w3.org/1999/xlink">
<g id="graph0" class="graph" transform="scale(1 1) rotate(0) translate(4 1177)">
<title>G</title>
<polygon fill="white" stroke="transparent" points="-4,4 -4,-1177 1079,-1177 1079,4 -4,4"/>
<!-- TRUSTABLE&#45;SOFTWARE -->
<g id="node1" class="node">
<title>TRUSTABLE&#45;SOFTWARE</title>
<g id="a_node1"><a xlink:href="https://score-json.github.io/nlohmann_json/main/_images/custom_TRUSTABLE-SOFTWARE_graph.svg" xlink:title="TRUSTABLE&#45;SOFTWARE: This\nrelease of JSON&#45;Library\nalso reffered in the\ndocumentation as nlohmann/json\nlibrary is Trustable.\n" target="_top">
<polygon fill="none" stroke="black" points="661.5,-1173 413.5,-1173 413.5,-1090 661.5,-1090 661.5,-1173"/>
<text text-anchor="middle" x="537.5" y="-1157.8" font-family="Open Sans" font-size="14.00">TRUSTABLE&#45;SOFTWARE: This</text>
<text text-anchor="middle" x="537.5" y="-1142.8" font-family="Open Sans" font-size="14.00">release of JSON&#45;Library</text>
<text text-anchor="middle" x="537.5" y="-1127.8" font-family="Open Sans" font-size="14.00">also reffered in the</text>
<text text-anchor="middle" x="537.5" y="-1112.8" font-family="Open Sans" font-size="14.00">documentation as nlohmann/json</text>
<text text-anchor="middle" x="537.5" y="-1097.8" font-family="Open Sans" font-size="14.00">library is Trustable.</text>
</a>
</g>
</g>
<!-- TT&#45;EXPECTATIONS -->
<g id="node6" class="node">
<title>TT&#45;EXPECTATIONS</title>
<g id="a_node6"><a xlink:href="https://score-json.github.io/nlohmann_json/main/_images/custom_TT-EXPECTATIONS_graph.svg" xlink:title="TT&#45;EXPECTATIONS: Documentation\nis provided, specifying\nwhat nlohmann/json library\nis expected to do, and\nwhat it must not do,\nand how this is verified.\n" target="_top">
<polygon fill="none" stroke="black" points="666,-946 409,-946 409,-848 666,-848 666,-946"/>
<text text-anchor="middle" x="537.5" y="-930.8" font-family="Open Sans" font-size="14.00">TT&#45;EXPECTATIONS: Documentation</text>
<text text-anchor="middle" x="537.5" y="-915.8" font-family="Open Sans" font-size="14.00">is provided, specifying</text>
<text text-anchor="middle" x="537.5" y="-900.8" font-family="Open Sans" font-size="14.00">what nlohmann/json library</text>
<text text-anchor="middle" x="537.5" y="-885.8" font-family="Open Sans" font-size="14.00">is expected to do, and</text>
<text text-anchor="middle" x="537.5" y="-870.8" font-family="Open Sans" font-size="14.00">what it must not do,</text>
<text text-anchor="middle" x="537.5" y="-855.8" font-family="Open Sans" font-size="14.00">and how this is verified.</text>
</a>
</g>
</g>
<!-- TRUSTABLE&#45;SOFTWARE&#45;&gt;TT&#45;EXPECTATIONS -->
<g id="edge1" class="edge">
<title>TRUSTABLE&#45;SOFTWARE&#45;&gt;TT&#45;EXPECTATIONS</title>
<path fill="none" stroke="black" d="M537.5,-1089.74C537.5,-1052.88 537.5,-998.18 537.5,-956.63"/>
<polygon fill="black" stroke="black" points="541,-956.37 537.5,-946.37 534,-956.37 541,-956.37"/>
</g>
<!-- JLEX&#45;01 -->
<g id="node2" class="node">
<title>JLEX&#45;01</title>
<g id="a_node2"><a xlink:href="https://score-json.github.io/nlohmann_json/main/_images/custom_JLEX-01_graph.svg" xlink:title="JLEX&#45;01: The requirement\nregarding [JSON Validation](https://eclipse&#45;score.github.io/score/main/modules/baselibs/json/docs/requirements/index.html#comp_req__json__validation)\nis fulfilled. " target="_top">
<polygon fill="none" stroke="black" points="1075,-462 0,-462 0,-409 1075,-409 1075,-462"/>
<text text-anchor="middle" x="537.5" y="-446.8" font-family="Open Sans" font-size="14.00">JLEX&#45;01: The requirement</text>
<text text-anchor="middle" x="537.5" y="-431.8" font-family="Open Sans" font-size="14.00">regarding [JSON Validation](https://eclipse&#45;score.github.io/score/main/modules/baselibs/json/docs/requirements/index.html#comp_req__json__validation)</text>
<text text-anchor="middle" x="537.5" y="-416.8" font-family="Open Sans" font-size="14.00">is fulfilled. </text>
</a>
</g>
</g>
<!-- WFJ&#45;05 -->
<g id="node7" class="node">
<title>WFJ&#45;05</title>
<g id="a_node7"><a xlink:href="https://score-json.github.io/nlohmann_json/main/_images/custom_WFJ-05_graph.svg" xlink:title="WFJ&#45;05: The service checks\nthe well&#45;formedness of\nobjects. " target="_top">
<polygon fill="none" stroke="black" points="640.5,-265 434.5,-265 434.5,-212 640.5,-212 640.5,-265"/>
<text text-anchor="middle" x="537.5" y="-249.8" font-family="Open Sans" font-size="14.00">WFJ&#45;05: The service checks</text>
<text text-anchor="middle" x="537.5" y="-234.8" font-family="Open Sans" font-size="14.00">the well&#45;formedness of</text>
<text text-anchor="middle" x="537.5" y="-219.8" font-family="Open Sans" font-size="14.00">objects. </text>
</a>
</g>
</g>
<!-- JLEX&#45;01&#45;&gt;WFJ&#45;05 -->
<g id="edge2" class="edge">
<title>JLEX&#45;01&#45;&gt;WFJ&#45;05</title>
<path fill="none" stroke="black" d="M537.5,-408.61C537.5,-374.42 537.5,-314.06 537.5,-275.46"/>
<polygon fill="black" stroke="black" points="541,-275.19 537.5,-265.19 534,-275.19 541,-275.19"/>
</g>
<!-- NJF&#45;06 -->
<g id="node3" class="node">
<title>NJF&#45;06</title>
<g id="a_node3"><a xlink:href="https://score-json.github.io/nlohmann_json/main/_images/custom_NJF-06_graph.svg" xlink:title="NJF&#45;06: The service accepts\nand rejects objects according\nto RFC8259 ยง4. " target="_top">
<polygon fill="none" stroke="black" points="531,-60.5 312,-60.5 312,-7.5 531,-7.5 531,-60.5"/>
<text text-anchor="middle" x="421.5" y="-45.3" font-family="Open Sans" font-size="14.00">NJF&#45;06: The service accepts</text>
<text text-anchor="middle" x="421.5" y="-30.3" font-family="Open Sans" font-size="14.00">and rejects objects according</text>
<text text-anchor="middle" x="421.5" y="-15.3" font-family="Open Sans" font-size="14.00">to RFC8259 ยง4. </text>
</a>
</g>
</g>
<!-- NJF&#45;13 -->
<g id="node4" class="node">
<title>NJF&#45;13</title>
<g id="a_node4"><a xlink:href="https://score-json.github.io/nlohmann_json/main/generated/NJF.html#njf-13" xlink:title="NJF&#45;13: The service accepts\nJSON data consisting\nof combinations of the\ndata types. " target="_top">
<polygon fill="none" stroke="black" points="758,-68 549,-68 549,0 758,0 758,-68"/>
<text text-anchor="middle" x="653.5" y="-52.8" font-family="Open Sans" font-size="14.00">NJF&#45;13: The service accepts</text>
<text text-anchor="middle" x="653.5" y="-37.8" font-family="Open Sans" font-size="14.00">JSON data consisting</text>
<text text-anchor="middle" x="653.5" y="-22.8" font-family="Open Sans" font-size="14.00">of combinations of the</text>
<text text-anchor="middle" x="653.5" y="-7.8" font-family="Open Sans" font-size="14.00">data types. </text>
</a>
</g>
</g>
<!-- TA&#45;BEHAVIOURS -->
<g id="node5" class="node">
<title>TA&#45;BEHAVIOURS</title>
<g id="a_node5"><a xlink:href="https://score-json.github.io/nlohmann_json/main/_images/custom_TA-BEHAVIOURS_graph.svg" xlink:title="TA&#45;BEHAVIOURS: Expected\nor required behaviours\nfor nlohmann/json library\nare identified, specified,\nverified and validated\nbased on analysis. " target="_top">
<polygon fill="none" stroke="black" points="639.5,-704 435.5,-704 435.5,-606 639.5,-606 639.5,-704"/>
<text text-anchor="middle" x="537.5" y="-688.8" font-family="Open Sans" font-size="14.00">TA&#45;BEHAVIOURS: Expected</text>
<text text-anchor="middle" x="537.5" y="-673.8" font-family="Open Sans" font-size="14.00">or required behaviours</text>
<text text-anchor="middle" x="537.5" y="-658.8" font-family="Open Sans" font-size="14.00">for nlohmann/json library</text>
<text text-anchor="middle" x="537.5" y="-643.8" font-family="Open Sans" font-size="14.00">are identified, specified,</text>
<text text-anchor="middle" x="537.5" y="-628.8" font-family="Open Sans" font-size="14.00">verified and validated</text>
<text text-anchor="middle" x="537.5" y="-613.8" font-family="Open Sans" font-size="14.00">based on analysis. </text>
</a>
</g>
</g>
<!-- TA&#45;BEHAVIOURS&#45;&gt;JLEX&#45;01 -->
<g id="edge3" class="edge">
<title>TA&#45;BEHAVIOURS&#45;&gt;JLEX&#45;01</title>
<path fill="none" stroke="black" d="M537.5,-606C537.5,-565.58 537.5,-508.67 537.5,-472.18"/>
<polygon fill="black" stroke="black" points="541,-472.01 537.5,-462.01 534,-472.01 541,-472.01"/>
</g>
<!-- TT&#45;EXPECTATIONS&#45;&gt;TA&#45;BEHAVIOURS -->
<g id="edge4" class="edge">
<title>TT&#45;EXPECTATIONS&#45;&gt;TA&#45;BEHAVIOURS</title>
<path fill="none" stroke="black" d="M537.5,-847.72C537.5,-809.23 537.5,-755.2 537.5,-714.3"/>
<polygon fill="black" stroke="black" points="541,-714.2 537.5,-704.2 534,-714.2 541,-714.2"/>
</g>
<!-- WFJ&#45;05&#45;&gt;NJF&#45;06 -->
<g id="edge5" class="edge">
<title>WFJ&#45;05&#45;&gt;NJF&#45;06</title>
<path fill="none" stroke="black" d="M522.81,-211.85C502.12,-175.74 464.35,-109.81 441.24,-69.45"/>
<polygon fill="black" stroke="black" points="444.26,-67.69 436.25,-60.76 438.19,-71.17 444.26,-67.69"/>
</g>
<!-- WFJ&#45;05&#45;&gt;NJF&#45;13 -->
<g id="edge6" class="edge">
<title>WFJ&#45;05&#45;&gt;NJF&#45;13</title>
<path fill="none" stroke="black" d="M552.19,-211.85C571.63,-177.92 606.15,-117.65 629.43,-77.02"/>
<polygon fill="black" stroke="black" points="632.57,-78.57 634.51,-68.15 626.5,-75.09 632.57,-78.57"/>
</g>
</g>
</svg>
