<?xml version="1.0" encoding="UTF-8" standalone="no"?>
<!DOCTYPE svg PUBLIC "-//W3C//DTD SVG 1.1//EN"
 "http://www.w3.org/Graphics/SVG/1.1/DTD/svg11.dtd">
<!-- Generated by graphviz version 2.43.0 (0)
 -->
<!-- Title: G Pages: 1 -->
<svg width="404pt" height="1196pt"
 viewBox="0.00 0.00 403.50 1196.00" xmlns="http://www.w3.org/2000/svg" xmlns:xlink="http://www.w3.org/1999/xlink">
<g id="graph0" class="graph" transform="scale(1 1) rotate(0) translate(4 1192)">
<title>G</title>
<polygon fill="white" stroke="transparent" points="-4,4 -4,-1192 399.5,-1192 399.5,4 -4,4"/>
<!-- TRUSTABLE&#45;SOFTWARE -->
<g id="node1" class="node">
<title>TRUSTABLE&#45;SOFTWARE</title>
<g id="a_node1"><a xlink:href="https://score-json.github.io/nlohmann_json/main/_images/custom_TRUSTABLE-SOFTWARE_graph.svg" xlink:title="TRUSTABLE&#45;SOFTWARE: This\nrelease of JSON&#45;Library\nalso reffered in the\ndocumentation as nlohmann/json\nlibrary is Trustable.\n" target="_top">
<polygon fill="none" stroke="black" points="322,-1188 74,-1188 74,-1105 322,-1105 322,-1188"/>
<text text-anchor="middle" x="198" y="-1172.8" font-family="Open Sans" font-size="14.00">TRUSTABLE&#45;SOFTWARE: This</text>
<text text-anchor="middle" x="198" y="-1157.8" font-family="Open Sans" font-size="14.00">release of JSON&#45;Library</text>
<text text-anchor="middle" x="198" y="-1142.8" font-family="Open Sans" font-size="14.00">also reffered in the</text>
<text text-anchor="middle" x="198" y="-1127.8" font-family="Open Sans" font-size="14.00">documentation as nlohmann/json</text>
<text text-anchor="middle" x="198" y="-1112.8" font-family="Open Sans" font-size="14.00">library is Trustable.</text>
</a>
</g>
</g>
<!-- TT&#45;EXPECTATIONS -->
<g id="node7" class="node">
<title>TT&#45;EXPECTATIONS</title>
<g id="a_node7"><a xlink:href="https://score-json.github.io/nlohmann_json/main/_images/custom_TT-EXPECTATIONS_graph.svg" xlink:title="TT&#45;EXPECTATIONS: Documentation\nis provided, specifying\nwhat nlohmann/json library\nis expected to do, and\nwhat it must not do,\nand how this is verified.\n" target="_top">
<polygon fill="none" stroke="black" points="326.5,-961 69.5,-961 69.5,-863 326.5,-863 326.5,-961"/>
<text text-anchor="middle" x="198" y="-945.8" font-family="Open Sans" font-size="14.00">TT&#45;EXPECTATIONS: Documentation</text>
<text text-anchor="middle" x="198" y="-930.8" font-family="Open Sans" font-size="14.00">is provided, specifying</text>
<text text-anchor="middle" x="198" y="-915.8" font-family="Open Sans" font-size="14.00">what nlohmann/json library</text>
<text text-anchor="middle" x="198" y="-900.8" font-family="Open Sans" font-size="14.00">is expected to do, and</text>
<text text-anchor="middle" x="198" y="-885.8" font-family="Open Sans" font-size="14.00">what it must not do,</text>
<text text-anchor="middle" x="198" y="-870.8" font-family="Open Sans" font-size="14.00">and how this is verified.</text>
</a>
</g>
</g>
<!-- TRUSTABLE&#45;SOFTWARE&#45;&gt;TT&#45;EXPECTATIONS -->
<g id="edge1" class="edge">
<title>TRUSTABLE&#45;SOFTWARE&#45;&gt;TT&#45;EXPECTATIONS</title>
<path fill="none" stroke="black" d="M198,-1104.74C198,-1067.88 198,-1013.18 198,-971.63"/>
<polygon fill="black" stroke="black" points="201.5,-971.37 198,-961.37 194.5,-971.37 201.5,-971.37"/>
</g>
<!-- JLS&#45;24 -->
<g id="node2" class="node">
<title>JLS&#45;24</title>
<g id="a_node2"><a xlink:href="https://score-json.github.io/nlohmann_json/main/_images/custom_JLS-24_graph.svg" xlink:title="JLS&#45;24: The nlohmann/json\nlibrary recognizes malformed\nJSON and returns an exception.\n" target="_top">
<polygon fill="none" stroke="black" points="315.5,-477 80.5,-477 80.5,-424 315.5,-424 315.5,-477"/>
<text text-anchor="middle" x="198" y="-461.8" font-family="Open Sans" font-size="14.00">JLS&#45;24: The nlohmann/json</text>
<text text-anchor="middle" x="198" y="-446.8" font-family="Open Sans" font-size="14.00">library recognizes malformed</text>
<text text-anchor="middle" x="198" y="-431.8" font-family="Open Sans" font-size="14.00">JSON and returns an exception.</text>
</a>
</g>
</g>
<!-- TIJ&#45;01 -->
<g id="node4" class="node">
<title>TIJ&#45;01</title>
<g id="a_node4"><a xlink:href="https://score-json.github.io/nlohmann_json/main/_images/custom_TIJ-01_graph.svg" xlink:title="TIJ&#45;01: The parsing service\nthrows an exception on\nill&#45;formed literal names.\n" target="_top">
<polygon fill="none" stroke="black" points="299,-280 97,-280 97,-227 299,-227 299,-280"/>
<text text-anchor="middle" x="198" y="-264.8" font-family="Open Sans" font-size="14.00">TIJ&#45;01: The parsing service</text>
<text text-anchor="middle" x="198" y="-249.8" font-family="Open Sans" font-size="14.00">throws an exception on</text>
<text text-anchor="middle" x="198" y="-234.8" font-family="Open Sans" font-size="14.00">ill&#45;formed literal names.</text>
</a>
</g>
</g>
<!-- JLS&#45;24&#45;&gt;TIJ&#45;01 -->
<g id="edge2" class="edge">
<title>JLS&#45;24&#45;&gt;TIJ&#45;01</title>
<path fill="none" stroke="black" d="M198,-423.61C198,-389.42 198,-329.06 198,-290.46"/>
<polygon fill="black" stroke="black" points="201.5,-290.19 198,-280.19 194.5,-290.19 201.5,-290.19"/>
</g>
<!-- TA&#45;MISBEHAVIOURS -->
<g id="node3" class="node">
<title>TA&#45;MISBEHAVIOURS</title>
<g id="a_node3"><a xlink:href="https://score-json.github.io/nlohmann_json/main/_images/custom_TA-MISBEHAVIOURS_graph.svg" xlink:title="TA&#45;MISBEHAVIOURS: Prohibited\nmisbehaviours for nlohmann/json\nlibrary are identified,\nand mitigations are specified,\nverified and validated\nbased on analysis. " target="_top">
<polygon fill="none" stroke="black" points="323,-719 73,-719 73,-621 323,-621 323,-719"/>
<text text-anchor="middle" x="198" y="-703.8" font-family="Open Sans" font-size="14.00">TA&#45;MISBEHAVIOURS: Prohibited</text>
<text text-anchor="middle" x="198" y="-688.8" font-family="Open Sans" font-size="14.00">misbehaviours for nlohmann/json</text>
<text text-anchor="middle" x="198" y="-673.8" font-family="Open Sans" font-size="14.00">library are identified,</text>
<text text-anchor="middle" x="198" y="-658.8" font-family="Open Sans" font-size="14.00">and mitigations are specified,</text>
<text text-anchor="middle" x="198" y="-643.8" font-family="Open Sans" font-size="14.00">verified and validated</text>
<text text-anchor="middle" x="198" y="-628.8" font-family="Open Sans" font-size="14.00">based on analysis. </text>
</a>
</g>
</g>
<!-- TA&#45;MISBEHAVIOURS&#45;&gt;JLS&#45;24 -->
<g id="edge3" class="edge">
<title>TA&#45;MISBEHAVIOURS&#45;&gt;JLS&#45;24</title>
<path fill="none" stroke="black" d="M198,-621C198,-580.58 198,-523.67 198,-487.18"/>
<polygon fill="black" stroke="black" points="201.5,-487.01 198,-477.01 194.5,-487.01 201.5,-487.01"/>
</g>
<!-- TIJ&#45;01.1 -->
<g id="node5" class="node">
<title>TIJ&#45;01.1</title>
<g id="a_node5"><a xlink:href="https://score-json.github.io/nlohmann_json/main/generated/TIJ.html#tij-01.1" xlink:title="TIJ&#45;01.1: The service\nthrows an exception on\ncapitalised literal names.\n" target="_top">
<polygon fill="none" stroke="black" points="190,-68 0,-68 0,-15 190,-15 190,-68"/>
<text text-anchor="middle" x="95" y="-52.8" font-family="Open Sans" font-size="14.00">TIJ&#45;01.1: The service</text>
<text text-anchor="middle" x="95" y="-37.8" font-family="Open Sans" font-size="14.00">throws an exception on</text>
<text text-anchor="middle" x="95" y="-22.8" font-family="Open Sans" font-size="14.00">capitalised literal names.</text>
</a>
</g>
</g>
<!-- TIJ&#45;01&#45;&gt;TIJ&#45;01.1 -->
<g id="edge4" class="edge">
<title>TIJ&#45;01&#45;&gt;TIJ&#45;01.1</title>
<path fill="none" stroke="black" d="M185.37,-226.75C166.94,-189.18 132.64,-119.24 112.01,-77.17"/>
<polygon fill="black" stroke="black" points="115.12,-75.57 107.57,-68.13 108.83,-78.65 115.12,-75.57"/>
</g>
<!-- TIJ&#45;01.2 -->
<g id="node6" class="node">
<title>TIJ&#45;01.2</title>
<g id="a_node6"><a xlink:href="https://score-json.github.io/nlohmann_json/main/generated/TIJ.html#tij-01.2" xlink:title="TIJ&#45;01.2: The service\nthrows an exception on\nany other than the three\nliteral names true, false,\nnull. " target="_top">
<polygon fill="none" stroke="black" points="395.5,-83 208.5,-83 208.5,0 395.5,0 395.5,-83"/>
<text text-anchor="middle" x="302" y="-67.8" font-family="Open Sans" font-size="14.00">TIJ&#45;01.2: The service</text>
<text text-anchor="middle" x="302" y="-52.8" font-family="Open Sans" font-size="14.00">throws an exception on</text>
<text text-anchor="middle" x="302" y="-37.8" font-family="Open Sans" font-size="14.00">any other than the three</text>
<text text-anchor="middle" x="302" y="-22.8" font-family="Open Sans" font-size="14.00">literal names true, false,</text>
<text text-anchor="middle" x="302" y="-7.8" font-family="Open Sans" font-size="14.00">null. </text>
</a>
</g>
</g>
<!-- TIJ&#45;01&#45;&gt;TIJ&#45;01.2 -->
<g id="edge5" class="edge">
<title>TIJ&#45;01&#45;&gt;TIJ&#45;01.2</title>
<path fill="none" stroke="black" d="M210.75,-226.75C227.28,-193.38 256.44,-134.49 277.35,-92.26"/>
<polygon fill="black" stroke="black" points="280.52,-93.77 281.82,-83.25 274.24,-90.66 280.52,-93.77"/>
</g>
<!-- TT&#45;EXPECTATIONS&#45;&gt;TA&#45;MISBEHAVIOURS -->
<g id="edge6" class="edge">
<title>TT&#45;EXPECTATIONS&#45;&gt;TA&#45;MISBEHAVIOURS</title>
<path fill="none" stroke="black" d="M198,-862.72C198,-824.23 198,-770.2 198,-729.3"/>
<polygon fill="black" stroke="black" points="201.5,-729.2 198,-719.2 194.5,-729.2 201.5,-729.2"/>
</g>
</g>
</svg>
