<?xml version="1.0" encoding="UTF-8" standalone="no"?>
<!DOCTYPE svg PUBLIC "-//W3C//DTD SVG 1.1//EN"
 "http://www.w3.org/Graphics/SVG/1.1/DTD/svg11.dtd">
<!-- Generated by graphviz version 2.43.0 (0)
 -->
<!-- Title: G Pages: 1 -->
<svg width="1083pt" height="1605pt"
 viewBox="0.00 0.00 1083.00 1605.00" xmlns="http://www.w3.org/2000/svg" xmlns:xlink="http://www.w3.org/1999/xlink">
<g id="graph0" class="graph" transform="scale(1 1) rotate(0) translate(4 1601)">
<title>G</title>
<polygon fill="white" stroke="transparent" points="-4,4 -4,-1601 1079,-1601 1079,4 -4,4"/>
<!-- TRUSTABLE&#45;SOFTWARE -->
<g id="node1" class="node">
<title>TRUSTABLE&#45;SOFTWARE</title>
<g id="a_node1"><a xlink:href="https://score-json.github.io/nlohmann_json/main/_images/custom_TRUSTABLE-SOFTWARE_graph.svg" xlink:title="TRUSTABLE&#45;SOFTWARE: This\nrelease of JSON&#45;Library\nalso reffered in the\ndocumentation as nlohmann/json\nlibrary is Trustable.\n" target="_top">
<polygon fill="none" stroke="black" points="661.5,-1597 413.5,-1597 413.5,-1514 661.5,-1514 661.5,-1597"/>
<text text-anchor="middle" x="537.5" y="-1581.8" font-family="Open Sans" font-size="14.00">TRUSTABLE&#45;SOFTWARE: This</text>
<text text-anchor="middle" x="537.5" y="-1566.8" font-family="Open Sans" font-size="14.00">release of JSON&#45;Library</text>
<text text-anchor="middle" x="537.5" y="-1551.8" font-family="Open Sans" font-size="14.00">also reffered in the</text>
<text text-anchor="middle" x="537.5" y="-1536.8" font-family="Open Sans" font-size="14.00">documentation as nlohmann/json</text>
<text text-anchor="middle" x="537.5" y="-1521.8" font-family="Open Sans" font-size="14.00">library is Trustable.</text>
</a>
</g>
</g>
<!-- TT&#45;EXPECTATIONS -->
<g id="node8" class="node">
<title>TT&#45;EXPECTATIONS</title>
<g id="a_node8"><a xlink:href="https://score-json.github.io/nlohmann_json/main/_images/custom_TT-EXPECTATIONS_graph.svg" xlink:title="TT&#45;EXPECTATIONS: Documentation\nis provided, specifying\nwhat nlohmann/json library\nis expected to do, and\nwhat it must not do,\nand how this is verified.\n" target="_top">
<polygon fill="none" stroke="black" points="666,-1370 409,-1370 409,-1272 666,-1272 666,-1370"/>
<text text-anchor="middle" x="537.5" y="-1354.8" font-family="Open Sans" font-size="14.00">TT&#45;EXPECTATIONS: Documentation</text>
<text text-anchor="middle" x="537.5" y="-1339.8" font-family="Open Sans" font-size="14.00">is provided, specifying</text>
<text text-anchor="middle" x="537.5" y="-1324.8" font-family="Open Sans" font-size="14.00">what nlohmann/json library</text>
<text text-anchor="middle" x="537.5" y="-1309.8" font-family="Open Sans" font-size="14.00">is expected to do, and</text>
<text text-anchor="middle" x="537.5" y="-1294.8" font-family="Open Sans" font-size="14.00">what it must not do,</text>
<text text-anchor="middle" x="537.5" y="-1279.8" font-family="Open Sans" font-size="14.00">and how this is verified.</text>
</a>
</g>
</g>
<!-- TRUSTABLE&#45;SOFTWARE&#45;&gt;TT&#45;EXPECTATIONS -->
<g id="edge1" class="edge">
<title>TRUSTABLE&#45;SOFTWARE&#45;&gt;TT&#45;EXPECTATIONS</title>
<path fill="none" stroke="black" d="M537.5,-1513.74C537.5,-1476.88 537.5,-1422.18 537.5,-1380.63"/>
<polygon fill="black" stroke="black" points="541,-1380.37 537.5,-1370.37 534,-1380.37 541,-1380.37"/>
</g>
<!-- JLEX&#45;01 -->
<g id="node2" class="node">
<title>JLEX&#45;01</title>
<g id="a_node2"><a xlink:href="https://score-json.github.io/nlohmann_json/main/_images/custom_JLEX-01_graph.svg" xlink:title="JLEX&#45;01: The requirement\nregarding [JSON Validation](https://eclipse&#45;score.github.io/score/main/modules/baselibs/json/docs/requirements/index.html#comp_req__json__validation)\nis fulfilled. " target="_top">
<polygon fill="none" stroke="black" points="1075,-886 0,-886 0,-833 1075,-833 1075,-886"/>
<text text-anchor="middle" x="537.5" y="-870.8" font-family="Open Sans" font-size="14.00">JLEX&#45;01: The requirement</text>
<text text-anchor="middle" x="537.5" y="-855.8" font-family="Open Sans" font-size="14.00">regarding [JSON Validation](https://eclipse&#45;score.github.io/score/main/modules/baselibs/json/docs/requirements/index.html#comp_req__json__validation)</text>
<text text-anchor="middle" x="537.5" y="-840.8" font-family="Open Sans" font-size="14.00">is fulfilled. </text>
</a>
</g>
</g>
<!-- WFJ&#45;05 -->
<g id="node9" class="node">
<title>WFJ&#45;05</title>
<g id="a_node9"><a xlink:href="https://score-json.github.io/nlohmann_json/main/_images/custom_WFJ-05_graph.svg" xlink:title="WFJ&#45;05: The service checks\nthe well&#45;formedness of\nobjects. " target="_top">
<polygon fill="none" stroke="black" points="640.5,-689 434.5,-689 434.5,-636 640.5,-636 640.5,-689"/>
<text text-anchor="middle" x="537.5" y="-673.8" font-family="Open Sans" font-size="14.00">WFJ&#45;05: The service checks</text>
<text text-anchor="middle" x="537.5" y="-658.8" font-family="Open Sans" font-size="14.00">the well&#45;formedness of</text>
<text text-anchor="middle" x="537.5" y="-643.8" font-family="Open Sans" font-size="14.00">objects. </text>
</a>
</g>
</g>
<!-- JLEX&#45;01&#45;&gt;WFJ&#45;05 -->
<g id="edge2" class="edge">
<title>JLEX&#45;01&#45;&gt;WFJ&#45;05</title>
<path fill="none" stroke="black" d="M537.5,-832.61C537.5,-798.42 537.5,-738.06 537.5,-699.46"/>
<polygon fill="black" stroke="black" points="541,-699.19 537.5,-689.19 534,-699.19 541,-699.19"/>
</g>
<!-- NJF&#45;06 -->
<g id="node3" class="node">
<title>NJF&#45;06</title>
<g id="a_node3"><a xlink:href="https://score-json.github.io/nlohmann_json/main/_images/custom_NJF-06_graph.svg" xlink:title="NJF&#45;06: The service accepts\nand rejects objects according\nto RFC8259 ยง4. " target="_top">
<polygon fill="none" stroke="black" points="647,-492 428,-492 428,-439 647,-439 647,-492"/>
<text text-anchor="middle" x="537.5" y="-476.8" font-family="Open Sans" font-size="14.00">NJF&#45;06: The service accepts</text>
<text text-anchor="middle" x="537.5" y="-461.8" font-family="Open Sans" font-size="14.00">and rejects objects according</text>
<text text-anchor="middle" x="537.5" y="-446.8" font-family="Open Sans" font-size="14.00">to RFC8259 ยง4. </text>
</a>
</g>
</g>
<!-- NJF&#45;06.5 -->
<g id="node4" class="node">
<title>NJF&#45;06.5</title>
<g id="a_node4"><a xlink:href="https://score-json.github.io/nlohmann_json/main/_images/custom_NJF-06.5_graph.svg" xlink:title="NJF&#45;06.5: The service\ndoes not accept objects\nwith improper members.\n" target="_top">
<polygon fill="none" stroke="black" points="631.5,-295 443.5,-295 443.5,-242 631.5,-242 631.5,-295"/>
<text text-anchor="middle" x="537.5" y="-279.8" font-family="Open Sans" font-size="14.00">NJF&#45;06.5: The service</text>
<text text-anchor="middle" x="537.5" y="-264.8" font-family="Open Sans" font-size="14.00">does not accept objects</text>
<text text-anchor="middle" x="537.5" y="-249.8" font-family="Open Sans" font-size="14.00">with improper members.</text>
</a>
</g>
</g>
<!-- NJF&#45;06&#45;&gt;NJF&#45;06.5 -->
<g id="edge3" class="edge">
<title>NJF&#45;06&#45;&gt;NJF&#45;06.5</title>
<path fill="none" stroke="black" d="M537.5,-438.61C537.5,-404.42 537.5,-344.06 537.5,-305.46"/>
<polygon fill="black" stroke="black" points="541,-305.19 537.5,-295.19 534,-305.19 541,-305.19"/>
</g>
<!-- NJF&#45;06.5.1 -->
<g id="node5" class="node">
<title>NJF&#45;06.5.1</title>
<g id="a_node5"><a xlink:href="https://score-json.github.io/nlohmann_json/main/generated/NJF.html#njf-06.5.1" xlink:title="NJF&#45;06.5.1: If the service\ndoes not accept any name\ncandidate as singleton,\nthen the service does\nnot accept the object\ncandidate. " target="_top">
<polygon fill="none" stroke="black" points="528.5,-98 328.5,-98 328.5,0 528.5,0 528.5,-98"/>
<text text-anchor="middle" x="428.5" y="-82.8" font-family="Open Sans" font-size="14.00">NJF&#45;06.5.1: If the service</text>
<text text-anchor="middle" x="428.5" y="-67.8" font-family="Open Sans" font-size="14.00">does not accept any name</text>
<text text-anchor="middle" x="428.5" y="-52.8" font-family="Open Sans" font-size="14.00">candidate as singleton,</text>
<text text-anchor="middle" x="428.5" y="-37.8" font-family="Open Sans" font-size="14.00">then the service does</text>
<text text-anchor="middle" x="428.5" y="-22.8" font-family="Open Sans" font-size="14.00">not accept the object</text>
<text text-anchor="middle" x="428.5" y="-7.8" font-family="Open Sans" font-size="14.00">candidate. </text>
</a>
</g>
</g>
<!-- NJF&#45;06.5&#45;&gt;NJF&#45;06.5.1 -->
<g id="edge4" class="edge">
<title>NJF&#45;06.5&#45;&gt;NJF&#45;06.5.1</title>
<path fill="none" stroke="black" d="M524.57,-241.7C508.09,-208.81 479.13,-151.02 457.3,-107.47"/>
<polygon fill="black" stroke="black" points="460.37,-105.78 452.76,-98.4 454.11,-108.91 460.37,-105.78"/>
</g>
<!-- NJF&#45;06.5.2 -->
<g id="node6" class="node">
<title>NJF&#45;06.5.2</title>
<g id="a_node6"><a xlink:href="https://score-json.github.io/nlohmann_json/main/generated/NJF.html#njf-06.5.2" xlink:title="NJF&#45;06.5.2: If the service\ndoes not accept any value\ncandidate as singleton,\nthen the service does\nnot accept the object\ncandidate. " target="_top">
<polygon fill="none" stroke="black" points="746,-98 547,-98 547,0 746,0 746,-98"/>
<text text-anchor="middle" x="646.5" y="-82.8" font-family="Open Sans" font-size="14.00">NJF&#45;06.5.2: If the service</text>
<text text-anchor="middle" x="646.5" y="-67.8" font-family="Open Sans" font-size="14.00">does not accept any value</text>
<text text-anchor="middle" x="646.5" y="-52.8" font-family="Open Sans" font-size="14.00">candidate as singleton,</text>
<text text-anchor="middle" x="646.5" y="-37.8" font-family="Open Sans" font-size="14.00">then the service does</text>
<text text-anchor="middle" x="646.5" y="-22.8" font-family="Open Sans" font-size="14.00">not accept the object</text>
<text text-anchor="middle" x="646.5" y="-7.8" font-family="Open Sans" font-size="14.00">candidate. </text>
</a>
</g>
</g>
<!-- NJF&#45;06.5&#45;&gt;NJF&#45;06.5.2 -->
<g id="edge5" class="edge">
<title>NJF&#45;06.5&#45;&gt;NJF&#45;06.5.2</title>
<path fill="none" stroke="black" d="M550.43,-241.7C566.91,-208.81 595.87,-151.02 617.7,-107.47"/>
<polygon fill="black" stroke="black" points="620.89,-108.91 622.24,-98.4 614.63,-105.78 620.89,-108.91"/>
</g>
<!-- TA&#45;BEHAVIOURS -->
<g id="node7" class="node">
<title>TA&#45;BEHAVIOURS</title>
<g id="a_node7"><a xlink:href="https://score-json.github.io/nlohmann_json/main/_images/custom_TA-BEHAVIOURS_graph.svg" xlink:title="TA&#45;BEHAVIOURS: Expected\nor required behaviours\nfor nlohmann/json library\nare identified, specified,\nverified and validated\nbased on analysis. " target="_top">
<polygon fill="none" stroke="black" points="639.5,-1128 435.5,-1128 435.5,-1030 639.5,-1030 639.5,-1128"/>
<text text-anchor="middle" x="537.5" y="-1112.8" font-family="Open Sans" font-size="14.00">TA&#45;BEHAVIOURS: Expected</text>
<text text-anchor="middle" x="537.5" y="-1097.8" font-family="Open Sans" font-size="14.00">or required behaviours</text>
<text text-anchor="middle" x="537.5" y="-1082.8" font-family="Open Sans" font-size="14.00">for nlohmann/json library</text>
<text text-anchor="middle" x="537.5" y="-1067.8" font-family="Open Sans" font-size="14.00">are identified, specified,</text>
<text text-anchor="middle" x="537.5" y="-1052.8" font-family="Open Sans" font-size="14.00">verified and validated</text>
<text text-anchor="middle" x="537.5" y="-1037.8" font-family="Open Sans" font-size="14.00">based on analysis. </text>
</a>
</g>
</g>
<!-- TA&#45;BEHAVIOURS&#45;&gt;JLEX&#45;01 -->
<g id="edge6" class="edge">
<title>TA&#45;BEHAVIOURS&#45;&gt;JLEX&#45;01</title>
<path fill="none" stroke="black" d="M537.5,-1030C537.5,-989.58 537.5,-932.67 537.5,-896.18"/>
<polygon fill="black" stroke="black" points="541,-896.01 537.5,-886.01 534,-896.01 541,-896.01"/>
</g>
<!-- TT&#45;EXPECTATIONS&#45;&gt;TA&#45;BEHAVIOURS -->
<g id="edge7" class="edge">
<title>TT&#45;EXPECTATIONS&#45;&gt;TA&#45;BEHAVIOURS</title>
<path fill="none" stroke="black" d="M537.5,-1271.72C537.5,-1233.23 537.5,-1179.2 537.5,-1138.3"/>
<polygon fill="black" stroke="black" points="541,-1138.2 537.5,-1128.2 534,-1138.2 541,-1138.2"/>
</g>
<!-- WFJ&#45;05&#45;&gt;NJF&#45;06 -->
<g id="edge8" class="edge">
<title>WFJ&#45;05&#45;&gt;NJF&#45;06</title>
<path fill="none" stroke="black" d="M537.5,-635.61C537.5,-601.42 537.5,-541.06 537.5,-502.46"/>
<polygon fill="black" stroke="black" points="541,-502.19 537.5,-492.19 534,-502.19 541,-502.19"/>
</g>
</g>
</svg>
