<?xml version="1.0" encoding="UTF-8" standalone="no"?>
<!DOCTYPE svg PUBLIC "-//W3C//DTD SVG 1.1//EN"
 "http://www.w3.org/Graphics/SVG/1.1/DTD/svg11.dtd">
<!-- Generated by graphviz version 2.43.0 (0)
 -->
<!-- Title: G Pages: 1 -->
<svg width="891pt" height="787pt"
 viewBox="0.00 0.00 891.00 787.00" xmlns="http://www.w3.org/2000/svg" xmlns:xlink="http://www.w3.org/1999/xlink">
<g id="graph0" class="graph" transform="scale(1 1) rotate(0) translate(4 783)">
<title>G</title>
<polygon fill="white" stroke="transparent" points="-4,4 -4,-783 887,-783 887,4 -4,4"/>
<!-- TRUSTABLE&#45;SOFTWARE -->
<g id="node1" class="node">
<title>TRUSTABLE&#45;SOFTWARE</title>
<g id="a_node1"><a xlink:href="https://score-json.github.io/nlohmann_json/main/_images/custom_TRUSTABLE-SOFTWARE_graph.svg" xlink:title="TRUSTABLE&#45;SOFTWARE: This\nrelease of JSON&#45;Library\nalso reffered in the\ndocumentation as nlohmann/json\nlibrary is Trustable.\n" target="_top">
<polygon fill="none" stroke="black" points="568,-779 320,-779 320,-696 568,-696 568,-779"/>
<text text-anchor="middle" x="444" y="-763.8" font-family="Open Sans" font-size="14.00">TRUSTABLE&#45;SOFTWARE: This</text>
<text text-anchor="middle" x="444" y="-748.8" font-family="Open Sans" font-size="14.00">release of JSON&#45;Library</text>
<text text-anchor="middle" x="444" y="-733.8" font-family="Open Sans" font-size="14.00">also reffered in the</text>
<text text-anchor="middle" x="444" y="-718.8" font-family="Open Sans" font-size="14.00">documentation as nlohmann/json</text>
<text text-anchor="middle" x="444" y="-703.8" font-family="Open Sans" font-size="14.00">library is Trustable.</text>
</a>
</g>
</g>
<!-- TT&#45;CONFIDENCE -->
<g id="node7" class="node">
<title>TT&#45;CONFIDENCE</title>
<g id="a_node7"><a xlink:href="https://score-json.github.io/nlohmann_json/main/_images/custom_TT-CONFIDENCE_graph.svg" xlink:title="TT&#45;CONFIDENCE: Confidence\nin nlohmann/json library\nis achieved by measuring\nand analysing behaviour\nand evidence over time.\n" target="_top">
<polygon fill="none" stroke="black" points="553,-552 335,-552 335,-469 553,-469 553,-552"/>
<text text-anchor="middle" x="444" y="-536.8" font-family="Open Sans" font-size="14.00">TT&#45;CONFIDENCE: Confidence</text>
<text text-anchor="middle" x="444" y="-521.8" font-family="Open Sans" font-size="14.00">in nlohmann/json library</text>
<text text-anchor="middle" x="444" y="-506.8" font-family="Open Sans" font-size="14.00">is achieved by measuring</text>
<text text-anchor="middle" x="444" y="-491.8" font-family="Open Sans" font-size="14.00">and analysing behaviour</text>
<text text-anchor="middle" x="444" y="-476.8" font-family="Open Sans" font-size="14.00">and evidence over time.</text>
</a>
</g>
</g>
<!-- TRUSTABLE&#45;SOFTWARE&#45;&gt;TT&#45;CONFIDENCE -->
<g id="edge1" class="edge">
<title>TRUSTABLE&#45;SOFTWARE&#45;&gt;TT&#45;CONFIDENCE</title>
<path fill="none" stroke="black" d="M444,-695.75C444,-658.36 444,-602.81 444,-562.48"/>
<polygon fill="black" stroke="black" points="447.5,-562.32 444,-552.32 440.5,-562.32 447.5,-562.32"/>
</g>
<!-- AOU&#45;10_COMBINED -->
<g id="node2" class="node">
<title>AOU&#45;10_COMBINED</title>
<g id="a_node2"><a xlink:href="https://score-json.github.io/nlohmann_json/main/generated/AOU.html#aou-10_combined" xlink:title="AOU&#45;10_COMBINED: The\nintegrator shall evaluate\nthe provided evidence\nand supplement it where\nnecessary, whenever the\ntrustability documentation\nof nlohmann/json is reviewed.\n" target="_top">
<polygon fill="none" stroke="black" points="224,-113 0,-113 0,0 224,0 224,-113"/>
<text text-anchor="middle" x="112" y="-97.8" font-family="Open Sans" font-size="14.00">AOU&#45;10_COMBINED: The</text>
<text text-anchor="middle" x="112" y="-82.8" font-family="Open Sans" font-size="14.00">integrator shall evaluate</text>
<text text-anchor="middle" x="112" y="-67.8" font-family="Open Sans" font-size="14.00">the provided evidence</text>
<text text-anchor="middle" x="112" y="-52.8" font-family="Open Sans" font-size="14.00">and supplement it where</text>
<text text-anchor="middle" x="112" y="-37.8" font-family="Open Sans" font-size="14.00">necessary, whenever the</text>
<text text-anchor="middle" x="112" y="-22.8" font-family="Open Sans" font-size="14.00">trustability documentation</text>
<text text-anchor="middle" x="112" y="-7.8" font-family="Open Sans" font-size="14.00">of nlohmann/json is reviewed.</text>
</a>
</g>
</g>
<!-- JLS&#45;08 -->
<g id="node3" class="node">
<title>JLS&#45;08</title>
<g id="a_node3"><a xlink:href="https://score-json.github.io/nlohmann_json/main/generated/JLS.html#jls-08" xlink:title="JLS&#45;08: Each statement\nis scored based on SME\nreviews or automatic\nvalidation functions.\n(TODO) " target="_top">
<polygon fill="none" stroke="black" points="423.5,-98 242.5,-98 242.5,-15 423.5,-15 423.5,-98"/>
<text text-anchor="middle" x="333" y="-82.8" font-family="Open Sans" font-size="14.00">JLS&#45;08: Each statement</text>
<text text-anchor="middle" x="333" y="-67.8" font-family="Open Sans" font-size="14.00">is scored based on SME</text>
<text text-anchor="middle" x="333" y="-52.8" font-family="Open Sans" font-size="14.00">reviews or automatic</text>
<text text-anchor="middle" x="333" y="-37.8" font-family="Open Sans" font-size="14.00">validation functions.</text>
<text text-anchor="middle" x="333" y="-22.8" font-family="Open Sans" font-size="14.00">(TODO) </text>
</a>
</g>
</g>
<!-- JLS&#45;09 -->
<g id="node4" class="node">
<title>JLS&#45;09</title>
<g id="a_node4"><a xlink:href="https://score-json.github.io/nlohmann_json/main/generated/JLS.html#jls-09" xlink:title="JLS&#45;09: Scores are reasonably,\nsystematically and repeatably\naccumulated. (TODO) " target="_top">
<polygon fill="none" stroke="black" points="668.5,-83 441.5,-83 441.5,-30 668.5,-30 668.5,-83"/>
<text text-anchor="middle" x="555" y="-67.8" font-family="Open Sans" font-size="14.00">JLS&#45;09: Scores are reasonably,</text>
<text text-anchor="middle" x="555" y="-52.8" font-family="Open Sans" font-size="14.00">systematically and repeatably</text>
<text text-anchor="middle" x="555" y="-37.8" font-family="Open Sans" font-size="14.00">accumulated. (TODO) </text>
</a>
</g>
</g>
<!-- JLS&#45;20 -->
<g id="node5" class="node">
<title>JLS&#45;20</title>
<g id="a_node5"><a xlink:href="https://score-json.github.io/nlohmann_json/main/generated/JLS.html#jls-20" xlink:title="JLS&#45;20: A github workflow\nsaves the history of\nscores in the trustable\ngraph to derive trends.\n" target="_top">
<polygon fill="none" stroke="black" points="883,-90.5 687,-90.5 687,-22.5 883,-22.5 883,-90.5"/>
<text text-anchor="middle" x="785" y="-75.3" font-family="Open Sans" font-size="14.00">JLS&#45;20: A github workflow</text>
<text text-anchor="middle" x="785" y="-60.3" font-family="Open Sans" font-size="14.00">saves the history of</text>
<text text-anchor="middle" x="785" y="-45.3" font-family="Open Sans" font-size="14.00">scores in the trustable</text>
<text text-anchor="middle" x="785" y="-30.3" font-family="Open Sans" font-size="14.00">graph to derive trends.</text>
</a>
</g>
</g>
<!-- TA&#45;CONFIDENCE -->
<g id="node6" class="node">
<title>TA&#45;CONFIDENCE</title>
<g id="a_node6"><a xlink:href="https://score-json.github.io/nlohmann_json/main/_images/custom_TA-CONFIDENCE_graph.svg" xlink:title="TA&#45;CONFIDENCE: Confidence\nin nlohmann/json library\nis measured based on\nresults of analysis.\n" target="_top">
<polygon fill="none" stroke="black" points="553,-325 335,-325 335,-257 553,-257 553,-325"/>
<text text-anchor="middle" x="444" y="-309.8" font-family="Open Sans" font-size="14.00">TA&#45;CONFIDENCE: Confidence</text>
<text text-anchor="middle" x="444" y="-294.8" font-family="Open Sans" font-size="14.00">in nlohmann/json library</text>
<text text-anchor="middle" x="444" y="-279.8" font-family="Open Sans" font-size="14.00">is measured based on</text>
<text text-anchor="middle" x="444" y="-264.8" font-family="Open Sans" font-size="14.00">results of analysis.</text>
</a>
</g>
</g>
<!-- TA&#45;CONFIDENCE&#45;&gt;AOU&#45;10_COMBINED -->
<g id="edge4" class="edge">
<title>TA&#45;CONFIDENCE&#45;&gt;AOU&#45;10_COMBINED</title>
<path fill="none" stroke="black" d="M396.79,-256.94C345.64,-221.12 262.91,-163.18 199.77,-118.96"/>
<polygon fill="black" stroke="black" points="201.58,-115.96 191.38,-113.09 197.57,-121.7 201.58,-115.96"/>
</g>
<!-- TA&#45;CONFIDENCE&#45;&gt;JLS&#45;08 -->
<g id="edge2" class="edge">
<title>TA&#45;CONFIDENCE&#45;&gt;JLS&#45;08</title>
<path fill="none" stroke="black" d="M428.1,-256.69C409.46,-217.65 378.39,-152.58 356.86,-107.49"/>
<polygon fill="black" stroke="black" points="359.89,-105.7 352.42,-98.18 353.57,-108.72 359.89,-105.7"/>
</g>
<!-- TA&#45;CONFIDENCE&#45;&gt;JLS&#45;09 -->
<g id="edge3" class="edge">
<title>TA&#45;CONFIDENCE&#45;&gt;JLS&#45;09</title>
<path fill="none" stroke="black" d="M459.9,-256.69C480.74,-213.05 517.1,-136.89 538.31,-92.46"/>
<polygon fill="black" stroke="black" points="541.57,-93.75 542.72,-83.22 535.26,-90.73 541.57,-93.75"/>
</g>
<!-- TA&#45;CONFIDENCE&#45;&gt;JLS&#45;20 -->
<g id="edge5" class="edge">
<title>TA&#45;CONFIDENCE&#45;&gt;JLS&#45;20</title>
<path fill="none" stroke="black" d="M492.49,-256.94C554.53,-214.64 661.8,-141.5 727.77,-96.52"/>
<polygon fill="black" stroke="black" points="730.11,-99.16 736.4,-90.64 726.16,-93.38 730.11,-99.16"/>
</g>
<!-- TT&#45;CONFIDENCE&#45;&gt;TA&#45;CONFIDENCE -->
<g id="edge6" class="edge">
<title>TT&#45;CONFIDENCE&#45;&gt;TA&#45;CONFIDENCE</title>
<path fill="none" stroke="black" d="M444,-468.85C444,-430.97 444,-374.66 444,-335.8"/>
<polygon fill="black" stroke="black" points="447.5,-335.33 444,-325.33 440.5,-335.33 447.5,-335.33"/>
</g>
</g>
</svg>
