<?xml version="1.0" encoding="utf-8" standalone="no"?>
<!DOCTYPE svg PUBLIC "-//W3C//DTD SVG 1.1//EN"
  "http://www.w3.org/Graphics/SVG/1.1/DTD/svg11.dtd">
<svg xmlns:xlink="http://www.w3.org/1999/xlink" width="405.665312pt" height="443.065625pt" viewBox="0 0 405.665312 443.065625" xmlns="http://www.w3.org/2000/svg" version="1.1">
 <metadata>
  <rdf:RDF xmlns:dc="http://purl.org/dc/elements/1.1/" xmlns:cc="http://creativecommons.org/ns#" xmlns:rdf="http://www.w3.org/1999/02/22-rdf-syntax-ns#">
   <cc:Work>
    <dc:type rdf:resource="http://purl.org/dc/dcmitype/StillImage"/>
    <dc:date>2025-11-20T11:44:38.887559</dc:date>
    <dc:format>image/svg+xml</dc:format>
    <dc:creator>
     <cc:Agent>
      <dc:title>Matplotlib v3.10.7, https://matplotlib.org/</dc:title>
     </cc:Agent>
    </dc:creator>
   </cc:Work>
  </rdf:RDF>
 </metadata>
 <defs>
  <style type="text/css">*{stroke-linejoin: round; stroke-linecap: butt}</style>
 </defs>
 <g id="figure_1">
  <g id="patch_1">
   <path d="M 0 443.065625 
L 405.665312 443.065625 
L 405.665312 0 
L 0 0 
z
" style="fill: #ffffff"/>
  </g>
  <g id="axes_1">
   <g id="patch_2">
    <path d="M 41.345313 354.588813 
L 241.991246 354.588813 
L 241.991246 88.476813 
L 41.345313 88.476813 
z
" style="fill: #eeeeee"/>
   </g>
   <g id="matplotlib.axis_1">
    <g id="xtick_1">
     <g id="line2d_1">
      <path d="M 41.345312 354.588813 
L 41.345312 88.476813 
" clip-path="url(#p7b44e067c3)" style="fill: none; stroke-dasharray: 1.85,0.8; stroke-dashoffset: 0; stroke: #b2b2b2; stroke-width: 0.5"/>
     </g>
     <g id="line2d_2">
      <defs>
       <path id="m919afadfcc" d="M 0 0 
L 0 -3.5 
" style="stroke: #000000; stroke-width: 0.8"/>
      </defs>
      <g>
       <use xlink:href="#m919afadfcc" x="41.345312" y="354.588813" style="stroke: #000000; stroke-width: 0.8"/>
      </g>
     </g>
     <g id="text_1">
      <!-- 39.650793 -->
      <g transform="translate(14.30625 365.68725) scale(0.1 -0.1)">
       <defs>
        <path id="DejaVuSans-33" d="M 2597 2516 
Q 3050 2419 3304 2112 
Q 3559 1806 3559 1356 
Q 3559 666 3084 287 
Q 2609 -91 1734 -91 
Q 1441 -91 1130 -33 
Q 819 25 488 141 
L 488 750 
Q 750 597 1062 519 
Q 1375 441 1716 441 
Q 2309 441 2620 675 
Q 2931 909 2931 1356 
Q 2931 1769 2642 2001 
Q 2353 2234 1838 2234 
L 1294 2234 
L 1294 2753 
L 1863 2753 
Q 2328 2753 2575 2939 
Q 2822 3125 2822 3475 
Q 2822 3834 2567 4026 
Q 2313 4219 1838 4219 
Q 1578 4219 1281 4162 
Q 984 4106 628 3988 
L 628 4550 
Q 988 4650 1302 4700 
Q 1616 4750 1894 4750 
Q 2613 4750 3031 4423 
Q 3450 4097 3450 3541 
Q 3450 3153 3228 2886 
Q 3006 2619 2597 2516 
z
" transform="scale(0.015625)"/>
        <path id="DejaVuSans-39" d="M 703 97 
L 703 672 
Q 941 559 1184 500 
Q 1428 441 1663 441 
Q 2288 441 2617 861 
Q 2947 1281 2994 2138 
Q 2813 1869 2534 1725 
Q 2256 1581 1919 1581 
Q 1219 1581 811 2004 
Q 403 2428 403 3163 
Q 403 3881 828 4315 
Q 1253 4750 1959 4750 
Q 2769 4750 3195 4129 
Q 3622 3509 3622 2328 
Q 3622 1225 3098 567 
Q 2575 -91 1691 -91 
Q 1453 -91 1209 -44 
Q 966 3 703 97 
z
M 1959 2075 
Q 2384 2075 2632 2365 
Q 2881 2656 2881 3163 
Q 2881 3666 2632 3958 
Q 2384 4250 1959 4250 
Q 1534 4250 1286 3958 
Q 1038 3666 1038 3163 
Q 1038 2656 1286 2365 
Q 1534 2075 1959 2075 
z
" transform="scale(0.015625)"/>
        <path id="DejaVuSans-2e" d="M 684 794 
L 1344 794 
L 1344 0 
L 684 0 
L 684 794 
z
" transform="scale(0.015625)"/>
        <path id="DejaVuSans-36" d="M 2113 2584 
Q 1688 2584 1439 2293 
Q 1191 2003 1191 1497 
Q 1191 994 1439 701 
Q 1688 409 2113 409 
Q 2538 409 2786 701 
Q 3034 994 3034 1497 
Q 3034 2003 2786 2293 
Q 2538 2584 2113 2584 
z
M 3366 4563 
L 3366 3988 
Q 3128 4100 2886 4159 
Q 2644 4219 2406 4219 
Q 1781 4219 1451 3797 
Q 1122 3375 1075 2522 
Q 1259 2794 1537 2939 
Q 1816 3084 2150 3084 
Q 2853 3084 3261 2657 
Q 3669 2231 3669 1497 
Q 3669 778 3244 343 
Q 2819 -91 2113 -91 
Q 1303 -91 875 529 
Q 447 1150 447 2328 
Q 447 3434 972 4092 
Q 1497 4750 2381 4750 
Q 2619 4750 2861 4703 
Q 3103 4656 3366 4563 
z
" transform="scale(0.015625)"/>
        <path id="DejaVuSans-35" d="M 691 4666 
L 3169 4666 
L 3169 4134 
L 1269 4134 
L 1269 2991 
Q 1406 3038 1543 3061 
Q 1681 3084 1819 3084 
Q 2600 3084 3056 2656 
Q 3513 2228 3513 1497 
Q 3513 744 3044 326 
Q 2575 -91 1722 -91 
Q 1428 -91 1123 -41 
Q 819 9 494 109 
L 494 744 
Q 775 591 1075 516 
Q 1375 441 1709 441 
Q 2250 441 2565 725 
Q 2881 1009 2881 1497 
Q 2881 1984 2565 2268 
Q 2250 2553 1709 2553 
Q 1456 2553 1204 2497 
Q 953 2441 691 2322 
L 691 4666 
z
" transform="scale(0.015625)"/>
        <path id="DejaVuSans-30" d="M 2034 4250 
Q 1547 4250 1301 3770 
Q 1056 3291 1056 2328 
Q 1056 1369 1301 889 
Q 1547 409 2034 409 
Q 2525 409 2770 889 
Q 3016 1369 3016 2328 
Q 3016 3291 2770 3770 
Q 2525 4250 2034 4250 
z
M 2034 4750 
Q 2819 4750 3233 4129 
Q 3647 3509 3647 2328 
Q 3647 1150 3233 529 
Q 2819 -91 2034 -91 
Q 1250 -91 836 529 
Q 422 1150 422 2328 
Q 422 3509 836 4129 
Q 1250 4750 2034 4750 
z
" transform="scale(0.015625)"/>
        <path id="DejaVuSans-37" d="M 525 4666 
L 3525 4666 
L 3525 4397 
L 1831 0 
L 1172 0 
L 2766 4134 
L 525 4134 
L 525 4666 
z
" transform="scale(0.015625)"/>
       </defs>
       <use xlink:href="#DejaVuSans-33"/>
       <use xlink:href="#DejaVuSans-39" transform="translate(63.623047 0)"/>
       <use xlink:href="#DejaVuSans-2e" transform="translate(127.246094 0)"/>
       <use xlink:href="#DejaVuSans-36" transform="translate(159.033203 0)"/>
       <use xlink:href="#DejaVuSans-35" transform="translate(222.65625 0)"/>
       <use xlink:href="#DejaVuSans-30" transform="translate(286.279297 0)"/>
       <use xlink:href="#DejaVuSans-37" transform="translate(349.902344 0)"/>
       <use xlink:href="#DejaVuSans-39" transform="translate(413.525391 0)"/>
       <use xlink:href="#DejaVuSans-33" transform="translate(477.148438 0)"/>
      </g>
     </g>
    </g>
    <g id="xtick_2">
     <g id="line2d_3">
      <path d="M 241.991246 354.588813 
L 241.991246 88.476813 
" clip-path="url(#p7b44e067c3)" style="fill: none; stroke-dasharray: 1.85,0.8; stroke-dashoffset: 0; stroke: #b2b2b2; stroke-width: 0.5"/>
     </g>
     <g id="line2d_4">
      <g>
       <use xlink:href="#m919afadfcc" x="241.991246" y="354.588813" style="stroke: #000000; stroke-width: 0.8"/>
      </g>
     </g>
     <g id="text_2">
      <!-- 19.333346 -->
      <g transform="translate(214.952184 365.68725) scale(0.1 -0.1)">
       <defs>
        <path id="DejaVuSans-31" d="M 794 531 
L 1825 531 
L 1825 4091 
L 703 3866 
L 703 4441 
L 1819 4666 
L 2450 4666 
L 2450 531 
L 3481 531 
L 3481 0 
L 794 0 
L 794 531 
z
" transform="scale(0.015625)"/>
        <path id="DejaVuSans-34" d="M 2419 4116 
L 825 1625 
L 2419 1625 
L 2419 4116 
z
M 2253 4666 
L 3047 4666 
L 3047 1625 
L 3713 1625 
L 3713 1100 
L 3047 1100 
L 3047 0 
L 2419 0 
L 2419 1100 
L 313 1100 
L 313 1709 
L 2253 4666 
z
" transform="scale(0.015625)"/>
       </defs>
       <use xlink:href="#DejaVuSans-31"/>
       <use xlink:href="#DejaVuSans-39" transform="translate(63.623047 0)"/>
       <use xlink:href="#DejaVuSans-2e" transform="translate(127.246094 0)"/>
       <use xlink:href="#DejaVuSans-33" transform="translate(159.033203 0)"/>
       <use xlink:href="#DejaVuSans-33" transform="translate(222.65625 0)"/>
       <use xlink:href="#DejaVuSans-33" transform="translate(286.279297 0)"/>
       <use xlink:href="#DejaVuSans-33" transform="translate(349.902344 0)"/>
       <use xlink:href="#DejaVuSans-34" transform="translate(413.525391 0)"/>
       <use xlink:href="#DejaVuSans-36" transform="translate(477.148438 0)"/>
      </g>
     </g>
    </g>
    <g id="text_3">
     <!-- 2025-Nov-20 12:50 -->
     <g transform="translate(145.347496 378.365375) scale(0.1 -0.1)">
      <defs>
       <path id="DejaVuSans-32" d="M 1228 531 
L 3431 531 
L 3431 0 
L 469 0 
L 469 531 
Q 828 903 1448 1529 
Q 2069 2156 2228 2338 
Q 2531 2678 2651 2914 
Q 2772 3150 2772 3378 
Q 2772 3750 2511 3984 
Q 2250 4219 1831 4219 
Q 1534 4219 1204 4116 
Q 875 4013 500 3803 
L 500 4441 
Q 881 4594 1212 4672 
Q 1544 4750 1819 4750 
Q 2544 4750 2975 4387 
Q 3406 4025 3406 3419 
Q 3406 3131 3298 2873 
Q 3191 2616 2906 2266 
Q 2828 2175 2409 1742 
Q 1991 1309 1228 531 
z
" transform="scale(0.015625)"/>
       <path id="DejaVuSans-2d" d="M 313 2009 
L 1997 2009 
L 1997 1497 
L 313 1497 
L 313 2009 
z
" transform="scale(0.015625)"/>
       <path id="DejaVuSans-4e" d="M 628 4666 
L 1478 4666 
L 3547 763 
L 3547 4666 
L 4159 4666 
L 4159 0 
L 3309 0 
L 1241 3903 
L 1241 0 
L 628 0 
L 628 4666 
z
" transform="scale(0.015625)"/>
       <path id="DejaVuSans-6f" d="M 1959 3097 
Q 1497 3097 1228 2736 
Q 959 2375 959 1747 
Q 959 1119 1226 758 
Q 1494 397 1959 397 
Q 2419 397 2687 759 
Q 2956 1122 2956 1747 
Q 2956 2369 2687 2733 
Q 2419 3097 1959 3097 
z
M 1959 3584 
Q 2709 3584 3137 3096 
Q 3566 2609 3566 1747 
Q 3566 888 3137 398 
Q 2709 -91 1959 -91 
Q 1206 -91 779 398 
Q 353 888 353 1747 
Q 353 2609 779 3096 
Q 1206 3584 1959 3584 
z
" transform="scale(0.015625)"/>
       <path id="DejaVuSans-76" d="M 191 3500 
L 800 3500 
L 1894 563 
L 2988 3500 
L 3597 3500 
L 2284 0 
L 1503 0 
L 191 3500 
z
" transform="scale(0.015625)"/>
       <path id="DejaVuSans-20" transform="scale(0.015625)"/>
       <path id="DejaVuSans-3a" d="M 750 794 
L 1409 794 
L 1409 0 
L 750 0 
L 750 794 
z
M 750 3309 
L 1409 3309 
L 1409 2516 
L 750 2516 
L 750 3309 
z
" transform="scale(0.015625)"/>
      </defs>
      <use xlink:href="#DejaVuSans-32"/>
      <use xlink:href="#DejaVuSans-30" transform="translate(63.623047 0)"/>
      <use xlink:href="#DejaVuSans-32" transform="translate(127.246094 0)"/>
      <use xlink:href="#DejaVuSans-35" transform="translate(190.869141 0)"/>
      <use xlink:href="#DejaVuSans-2d" transform="translate(254.492188 0)"/>
      <use xlink:href="#DejaVuSans-4e" transform="translate(290.576172 0)"/>
      <use xlink:href="#DejaVuSans-6f" transform="translate(365.380859 0)"/>
      <use xlink:href="#DejaVuSans-76" transform="translate(426.5625 0)"/>
      <use xlink:href="#DejaVuSans-2d" transform="translate(483.117188 0)"/>
      <use xlink:href="#DejaVuSans-32" transform="translate(519.201172 0)"/>
      <use xlink:href="#DejaVuSans-30" transform="translate(582.824219 0)"/>
      <use xlink:href="#DejaVuSans-20" transform="translate(646.447266 0)"/>
      <use xlink:href="#DejaVuSans-31" transform="translate(678.234375 0)"/>
      <use xlink:href="#DejaVuSans-32" transform="translate(741.857422 0)"/>
      <use xlink:href="#DejaVuSans-3a" transform="translate(805.480469 0)"/>
      <use xlink:href="#DejaVuSans-35" transform="translate(839.171875 0)"/>
      <use xlink:href="#DejaVuSans-30" transform="translate(902.794922 0)"/>
     </g>
    </g>
   </g>
   <g id="matplotlib.axis_2">
    <g id="ytick_1">
     <g id="line2d_5">
      <path d="M 41.345313 318.300813 
L 241.991246 318.300813 
" clip-path="url(#p7b44e067c3)" style="fill: none; stroke-dasharray: 1.85,0.8; stroke-dashoffset: 0; stroke: #b2b2b2; stroke-width: 0.5"/>
     </g>
     <g id="line2d_6">
      <defs>
       <path id="m1ecdad58e6" d="M 0 0 
L 3.5 0 
" style="stroke: #000000; stroke-width: 0.8"/>
      </defs>
      <g>
       <use xlink:href="#m1ecdad58e6" x="41.345313" y="318.300813" style="stroke: #000000; stroke-width: 0.8"/>
      </g>
     </g>
     <g id="text_4">
      <!-- −0.04 -->
      <g transform="translate(7.2 322.100031) scale(0.1 -0.1)">
       <defs>
        <path id="DejaVuSans-2212" d="M 678 2272 
L 4684 2272 
L 4684 1741 
L 678 1741 
L 678 2272 
z
" transform="scale(0.015625)"/>
       </defs>
       <use xlink:href="#DejaVuSans-2212"/>
       <use xlink:href="#DejaVuSans-30" transform="translate(83.789062 0)"/>
       <use xlink:href="#DejaVuSans-2e" transform="translate(147.412109 0)"/>
       <use xlink:href="#DejaVuSans-30" transform="translate(179.199219 0)"/>
       <use xlink:href="#DejaVuSans-34" transform="translate(242.822266 0)"/>
      </g>
     </g>
    </g>
    <g id="ytick_2">
     <g id="line2d_7">
      <path d="M 41.345313 269.916813 
L 241.991246 269.916813 
" clip-path="url(#p7b44e067c3)" style="fill: none; stroke-dasharray: 1.85,0.8; stroke-dashoffset: 0; stroke: #b2b2b2; stroke-width: 0.5"/>
     </g>
     <g id="line2d_8">
      <g>
       <use xlink:href="#m1ecdad58e6" x="41.345313" y="269.916813" style="stroke: #000000; stroke-width: 0.8"/>
      </g>
     </g>
     <g id="text_5">
      <!-- −0.02 -->
      <g transform="translate(7.2 273.716031) scale(0.1 -0.1)">
       <use xlink:href="#DejaVuSans-2212"/>
       <use xlink:href="#DejaVuSans-30" transform="translate(83.789062 0)"/>
       <use xlink:href="#DejaVuSans-2e" transform="translate(147.412109 0)"/>
       <use xlink:href="#DejaVuSans-30" transform="translate(179.199219 0)"/>
       <use xlink:href="#DejaVuSans-32" transform="translate(242.822266 0)"/>
      </g>
     </g>
    </g>
    <g id="ytick_3">
     <g id="line2d_9">
      <path d="M 41.345313 221.532813 
L 241.991246 221.532813 
" clip-path="url(#p7b44e067c3)" style="fill: none; stroke-dasharray: 1.85,0.8; stroke-dashoffset: 0; stroke: #b2b2b2; stroke-width: 0.5"/>
     </g>
     <g id="line2d_10">
      <g>
       <use xlink:href="#m1ecdad58e6" x="41.345313" y="221.532813" style="stroke: #000000; stroke-width: 0.8"/>
      </g>
     </g>
     <g id="text_6">
      <!-- 0.00 -->
      <g transform="translate(15.579688 225.332031) scale(0.1 -0.1)">
       <use xlink:href="#DejaVuSans-30"/>
       <use xlink:href="#DejaVuSans-2e" transform="translate(63.623047 0)"/>
       <use xlink:href="#DejaVuSans-30" transform="translate(95.410156 0)"/>
       <use xlink:href="#DejaVuSans-30" transform="translate(159.033203 0)"/>
      </g>
     </g>
    </g>
    <g id="ytick_4">
     <g id="line2d_11">
      <path d="M 41.345313 173.148813 
L 241.991246 173.148813 
" clip-path="url(#p7b44e067c3)" style="fill: none; stroke-dasharray: 1.85,0.8; stroke-dashoffset: 0; stroke: #b2b2b2; stroke-width: 0.5"/>
     </g>
     <g id="line2d_12">
      <g>
       <use xlink:href="#m1ecdad58e6" x="41.345313" y="173.148813" style="stroke: #000000; stroke-width: 0.8"/>
      </g>
     </g>
     <g id="text_7">
      <!-- 0.02 -->
      <g transform="translate(15.579688 176.948031) scale(0.1 -0.1)">
       <use xlink:href="#DejaVuSans-30"/>
       <use xlink:href="#DejaVuSans-2e" transform="translate(63.623047 0)"/>
       <use xlink:href="#DejaVuSans-30" transform="translate(95.410156 0)"/>
       <use xlink:href="#DejaVuSans-32" transform="translate(159.033203 0)"/>
      </g>
     </g>
    </g>
    <g id="ytick_5">
     <g id="line2d_13">
      <path d="M 41.345313 124.764813 
L 241.991246 124.764813 
" clip-path="url(#p7b44e067c3)" style="fill: none; stroke-dasharray: 1.85,0.8; stroke-dashoffset: 0; stroke: #b2b2b2; stroke-width: 0.5"/>
     </g>
     <g id="line2d_14">
      <g>
       <use xlink:href="#m1ecdad58e6" x="41.345313" y="124.764813" style="stroke: #000000; stroke-width: 0.8"/>
      </g>
     </g>
     <g id="text_8">
      <!-- 0.04 -->
      <g transform="translate(15.579688 128.564031) scale(0.1 -0.1)">
       <use xlink:href="#DejaVuSans-30"/>
       <use xlink:href="#DejaVuSans-2e" transform="translate(63.623047 0)"/>
       <use xlink:href="#DejaVuSans-30" transform="translate(95.410156 0)"/>
       <use xlink:href="#DejaVuSans-34" transform="translate(159.033203 0)"/>
      </g>
     </g>
    </g>
   </g>
   <g id="line2d_15">
    <path d="M 50.465582 221.532813 
L 226.132844 221.532813 
L 232.870977 221.532813 
" clip-path="url(#p7b44e067c3)" style="fill: none; stroke: #0000ff; stroke-opacity: 0.5; stroke-linecap: square"/>
   </g>
   <g id="line2d_16">
    <path d="M 50.465582 221.532813 
L 226.132844 221.532813 
L 232.870977 221.532813 
" clip-path="url(#p7b44e067c3)" style="fill: none; stroke: #0009fa; stroke-opacity: 0.5; stroke-linecap: square"/>
   </g>
   <g id="line2d_17">
    <path d="M 50.465582 221.532813 
L 226.132844 221.532813 
L 232.870977 221.532813 
" clip-path="url(#p7b44e067c3)" style="fill: none; stroke: #0012f6; stroke-opacity: 0.5; stroke-linecap: square"/>
   </g>
   <g id="line2d_18">
    <path d="M 50.465582 221.532813 
L 226.132844 221.532813 
L 232.870977 221.532813 
" clip-path="url(#p7b44e067c3)" style="fill: none; stroke: #001cf1; stroke-opacity: 0.5; stroke-linecap: square"/>
   </g>
   <g id="line2d_19">
    <path d="M 50.465582 221.532813 
L 226.132844 221.532813 
L 232.870977 221.532813 
" clip-path="url(#p7b44e067c3)" style="fill: none; stroke: #0025ec; stroke-opacity: 0.5; stroke-linecap: square"/>
   </g>
   <g id="line2d_20">
    <path d="M 50.465582 221.532813 
L 226.132844 221.532813 
L 232.870977 221.532813 
" clip-path="url(#p7b44e067c3)" style="fill: none; stroke: #002fe8; stroke-opacity: 0.5; stroke-linecap: square"/>
   </g>
   <g id="line2d_21">
    <path d="M 50.465582 221.532813 
L 226.132844 221.532813 
L 232.870977 221.532813 
" clip-path="url(#p7b44e067c3)" style="fill: none; stroke: #0038e3; stroke-opacity: 0.5; stroke-linecap: square"/>
   </g>
   <g id="line2d_22">
    <path d="M 50.465582 221.532813 
L 226.132844 221.532813 
L 232.870977 221.532813 
" clip-path="url(#p7b44e067c3)" style="fill: none; stroke: #0042de; stroke-opacity: 0.5; stroke-linecap: square"/>
   </g>
   <g id="line2d_23">
    <path d="M 50.465582 221.532813 
L 226.132844 221.532813 
L 232.870977 221.532813 
" clip-path="url(#p7b44e067c3)" style="fill: none; stroke: #004bda; stroke-opacity: 0.5; stroke-linecap: square"/>
   </g>
   <g id="line2d_24">
    <path d="M 50.465582 221.532813 
L 226.132844 221.532813 
L 232.870977 221.532813 
" clip-path="url(#p7b44e067c3)" style="fill: none; stroke: #0055d4; stroke-opacity: 0.5; stroke-linecap: square"/>
   </g>
   <g id="line2d_25">
    <path d="M 50.465582 221.532813 
L 226.132844 221.532813 
L 232.870977 221.532813 
" clip-path="url(#p7b44e067c3)" style="fill: none; stroke: #005ed0; stroke-opacity: 0.5; stroke-linecap: square"/>
   </g>
   <g id="line2d_26">
    <path d="M 50.465582 221.532813 
L 226.132844 221.532813 
L 232.870977 221.532813 
" clip-path="url(#p7b44e067c3)" style="fill: none; stroke: #0068cb; stroke-opacity: 0.5; stroke-linecap: square"/>
   </g>
   <g id="line2d_27">
    <path d="M 50.465582 221.532813 
L 226.132844 221.532813 
L 232.870977 221.532813 
" clip-path="url(#p7b44e067c3)" style="fill: none; stroke: #0071c6; stroke-opacity: 0.5; stroke-linecap: square"/>
   </g>
   <g id="line2d_28">
    <path d="M 50.465582 221.532813 
L 226.132844 221.532813 
L 232.870977 221.532813 
" clip-path="url(#p7b44e067c3)" style="fill: none; stroke: #007bc2; stroke-opacity: 0.5; stroke-linecap: square"/>
   </g>
   <g id="line2d_29">
    <path d="M 50.465582 221.532813 
L 226.132844 221.532813 
L 232.870977 221.532813 
" clip-path="url(#p7b44e067c3)" style="fill: none; stroke: #0084bd; stroke-opacity: 0.5; stroke-linecap: square"/>
   </g>
   <g id="line2d_30">
    <path d="M 50.465582 221.532813 
L 226.132844 221.532813 
L 232.870977 221.532813 
" clip-path="url(#p7b44e067c3)" style="fill: none; stroke: #008eb8; stroke-opacity: 0.5; stroke-linecap: square"/>
   </g>
   <g id="line2d_31">
    <path d="M 50.465582 221.532813 
L 226.132844 221.532813 
L 232.870977 221.532813 
" clip-path="url(#p7b44e067c3)" style="fill: none; stroke: #0097b3; stroke-opacity: 0.5; stroke-linecap: square"/>
   </g>
   <g id="line2d_32">
    <path d="M 50.465582 221.532813 
L 226.132844 221.532813 
L 232.870977 221.532813 
" clip-path="url(#p7b44e067c3)" style="fill: none; stroke: #00a1ae; stroke-opacity: 0.5; stroke-linecap: square"/>
   </g>
   <g id="line2d_33">
    <path d="M 50.465582 221.532813 
L 226.132844 221.532813 
L 232.870977 221.532813 
" clip-path="url(#p7b44e067c3)" style="fill: none; stroke: #00aaaa; stroke-opacity: 0.5; stroke-linecap: square"/>
   </g>
   <g id="line2d_34">
    <path d="M 50.465582 221.532813 
L 226.132844 221.532813 
L 232.870977 221.532813 
" clip-path="url(#p7b44e067c3)" style="fill: none; stroke: #00b4a5; stroke-opacity: 0.5; stroke-linecap: square"/>
   </g>
   <g id="line2d_35">
    <path d="M 50.465582 221.532813 
L 226.132844 221.532813 
L 232.870977 221.532813 
" clip-path="url(#p7b44e067c3)" style="fill: none; stroke: #00bda0; stroke-opacity: 0.5; stroke-linecap: square"/>
   </g>
   <g id="line2d_36">
    <path d="M 50.465582 221.532813 
L 226.132844 221.532813 
L 232.870977 221.532813 
" clip-path="url(#p7b44e067c3)" style="fill: none; stroke: #00c79c; stroke-opacity: 0.5; stroke-linecap: square"/>
   </g>
   <g id="line2d_37">
    <path d="M 50.465582 221.532813 
L 226.132844 221.532813 
L 232.870977 221.532813 
" clip-path="url(#p7b44e067c3)" style="fill: none; stroke: #00d097; stroke-opacity: 0.5; stroke-linecap: square"/>
   </g>
   <g id="line2d_38">
    <path d="M 50.465582 221.532813 
L 226.132844 221.532813 
L 232.870977 221.532813 
" clip-path="url(#p7b44e067c3)" style="fill: none; stroke: #00da92; stroke-opacity: 0.5; stroke-linecap: square"/>
   </g>
   <g id="line2d_39">
    <path d="M 50.465582 221.532813 
L 226.132844 221.532813 
L 232.870977 221.532813 
" clip-path="url(#p7b44e067c3)" style="fill: none; stroke: #00e38e; stroke-opacity: 0.5; stroke-linecap: square"/>
   </g>
   <g id="line2d_40">
    <path d="M 50.465582 221.532813 
L 226.132844 221.532813 
L 232.870977 221.532813 
" clip-path="url(#p7b44e067c3)" style="fill: none; stroke: #00ed88; stroke-opacity: 0.5; stroke-linecap: square"/>
   </g>
   <g id="line2d_41">
    <path d="M 50.465582 221.532813 
L 226.132844 221.532813 
L 232.870977 221.532813 
" clip-path="url(#p7b44e067c3)" style="fill: none; stroke: #00f684; stroke-opacity: 0.5; stroke-linecap: square"/>
   </g>
   <g id="line2d_42">
    <path d="M 226.132844 221.532813 
L 232.870977 221.532813 
" clip-path="url(#p7b44e067c3)" style="fill: none; stroke: #00ff80; stroke-opacity: 0.5; stroke-linecap: square"/>
   </g>
   <g id="line2d_43">
    <path d="M 50.465582 221.532813 
L 226.132844 221.532813 
L 232.870977 221.532813 
" clip-path="url(#p7b44e067c3)" style="fill: none; stroke: #ff0000; stroke-width: 3; stroke-linecap: square"/>
   </g>
   <g id="patch_3">
    <path d="M 41.345313 354.588813 
L 41.345313 88.476813 
" style="fill: none; stroke: #bcbcbc; stroke-width: 0.8; stroke-linejoin: miter; stroke-linecap: square"/>
   </g>
   <g id="patch_4">
    <path d="M 241.991246 354.588813 
L 241.991246 88.476813 
" style="fill: none; stroke: #bcbcbc; stroke-width: 0.8; stroke-linejoin: miter; stroke-linecap: square"/>
   </g>
   <g id="patch_5">
    <path d="M 41.345312 354.588813 
L 241.991246 354.588813 
" style="fill: none; stroke: #bcbcbc; stroke-width: 0.8; stroke-linejoin: miter; stroke-linecap: square"/>
   </g>
   <g id="patch_6">
    <path d="M 41.345312 88.476813 
L 241.991246 88.476813 
" style="fill: none; stroke: #bcbcbc; stroke-width: 0.8; stroke-linejoin: miter; stroke-linecap: square"/>
   </g>
  </g>
  <g id="axes_2">
   <g id="legend_1">
    <g id="patch_7">
     <path d="M 277.148507 435.865625 
L 395.773507 435.865625 
Q 397.773507 435.865625 397.773507 433.865625 
L 397.773507 9.2 
Q 397.773507 7.2 395.773507 7.2 
L 277.148507 7.2 
Q 275.148507 7.2 275.148507 9.2 
L 275.148507 433.865625 
Q 275.148507 435.865625 277.148507 435.865625 
z
" style="fill: #eeeeee; opacity: 0.8; stroke: #cccccc; stroke-width: 0.5; stroke-linejoin: miter"/>
    </g>
    <g id="line2d_44">
     <path d="M 279.148507 15.298437 
L 289.148507 15.298437 
L 299.148507 15.298437 
" style="fill: none; stroke: #0000ff; stroke-opacity: 0.5; stroke-linecap: square"/>
    </g>
    <g id="text_9">
     <!-- AOU-04 -->
     <g transform="translate(307.148507 18.798437) scale(0.1 -0.1)">
      <defs>
       <path id="DejaVuSans-41" d="M 2188 4044 
L 1331 1722 
L 3047 1722 
L 2188 4044 
z
M 1831 4666 
L 2547 4666 
L 4325 0 
L 3669 0 
L 3244 1197 
L 1141 1197 
L 716 0 
L 50 0 
L 1831 4666 
z
" transform="scale(0.015625)"/>
       <path id="DejaVuSans-4f" d="M 2522 4238 
Q 1834 4238 1429 3725 
Q 1025 3213 1025 2328 
Q 1025 1447 1429 934 
Q 1834 422 2522 422 
Q 3209 422 3611 934 
Q 4013 1447 4013 2328 
Q 4013 3213 3611 3725 
Q 3209 4238 2522 4238 
z
M 2522 4750 
Q 3503 4750 4090 4092 
Q 4678 3434 4678 2328 
Q 4678 1225 4090 567 
Q 3503 -91 2522 -91 
Q 1538 -91 948 565 
Q 359 1222 359 2328 
Q 359 3434 948 4092 
Q 1538 4750 2522 4750 
z
" transform="scale(0.015625)"/>
       <path id="DejaVuSans-55" d="M 556 4666 
L 1191 4666 
L 1191 1831 
Q 1191 1081 1462 751 
Q 1734 422 2344 422 
Q 2950 422 3222 751 
Q 3494 1081 3494 1831 
L 3494 4666 
L 4128 4666 
L 4128 1753 
Q 4128 841 3676 375 
Q 3225 -91 2344 -91 
Q 1459 -91 1007 375 
Q 556 841 556 1753 
L 556 4666 
z
" transform="scale(0.015625)"/>
      </defs>
      <use xlink:href="#DejaVuSans-41"/>
      <use xlink:href="#DejaVuSans-4f" transform="translate(66.658203 0)"/>
      <use xlink:href="#DejaVuSans-55" transform="translate(145.369141 0)"/>
      <use xlink:href="#DejaVuSans-2d" transform="translate(218.5625 0)"/>
      <use xlink:href="#DejaVuSans-30" transform="translate(254.646484 0)"/>
      <use xlink:href="#DejaVuSans-34" transform="translate(318.269531 0)"/>
     </g>
    </g>
    <g id="line2d_45">
     <path d="M 279.148507 29.976562 
L 289.148507 29.976562 
L 299.148507 29.976562 
" style="fill: none; stroke: #0009fa; stroke-opacity: 0.5; stroke-linecap: square"/>
    </g>
    <g id="text_10">
     <!-- AOU-05 -->
     <g transform="translate(307.148507 33.476562) scale(0.1 -0.1)">
      <use xlink:href="#DejaVuSans-41"/>
      <use xlink:href="#DejaVuSans-4f" transform="translate(66.658203 0)"/>
      <use xlink:href="#DejaVuSans-55" transform="translate(145.369141 0)"/>
      <use xlink:href="#DejaVuSans-2d" transform="translate(218.5625 0)"/>
      <use xlink:href="#DejaVuSans-30" transform="translate(254.646484 0)"/>
      <use xlink:href="#DejaVuSans-35" transform="translate(318.269531 0)"/>
     </g>
    </g>
    <g id="line2d_46">
     <path d="M 279.148507 44.654687 
L 289.148507 44.654687 
L 299.148507 44.654687 
" style="fill: none; stroke: #0012f6; stroke-opacity: 0.5; stroke-linecap: square"/>
    </g>
    <g id="text_11">
     <!-- AOU-06 -->
     <g transform="translate(307.148507 48.154687) scale(0.1 -0.1)">
      <use xlink:href="#DejaVuSans-41"/>
      <use xlink:href="#DejaVuSans-4f" transform="translate(66.658203 0)"/>
      <use xlink:href="#DejaVuSans-55" transform="translate(145.369141 0)"/>
      <use xlink:href="#DejaVuSans-2d" transform="translate(218.5625 0)"/>
      <use xlink:href="#DejaVuSans-30" transform="translate(254.646484 0)"/>
      <use xlink:href="#DejaVuSans-36" transform="translate(318.269531 0)"/>
     </g>
    </g>
    <g id="line2d_47">
     <path d="M 279.148507 59.332812 
L 289.148507 59.332812 
L 299.148507 59.332812 
" style="fill: none; stroke: #001cf1; stroke-opacity: 0.5; stroke-linecap: square"/>
    </g>
    <g id="text_12">
     <!-- AOU-07 -->
     <g transform="translate(307.148507 62.832812) scale(0.1 -0.1)">
      <use xlink:href="#DejaVuSans-41"/>
      <use xlink:href="#DejaVuSans-4f" transform="translate(66.658203 0)"/>
      <use xlink:href="#DejaVuSans-55" transform="translate(145.369141 0)"/>
      <use xlink:href="#DejaVuSans-2d" transform="translate(218.5625 0)"/>
      <use xlink:href="#DejaVuSans-30" transform="translate(254.646484 0)"/>
      <use xlink:href="#DejaVuSans-37" transform="translate(318.269531 0)"/>
     </g>
    </g>
    <g id="line2d_48">
     <path d="M 279.148507 74.010938 
L 289.148507 74.010938 
L 299.148507 74.010938 
" style="fill: none; stroke: #0025ec; stroke-opacity: 0.5; stroke-linecap: square"/>
    </g>
    <g id="text_13">
     <!-- AOU-14 -->
     <g transform="translate(307.148507 77.510938) scale(0.1 -0.1)">
      <use xlink:href="#DejaVuSans-41"/>
      <use xlink:href="#DejaVuSans-4f" transform="translate(66.658203 0)"/>
      <use xlink:href="#DejaVuSans-55" transform="translate(145.369141 0)"/>
      <use xlink:href="#DejaVuSans-2d" transform="translate(218.5625 0)"/>
      <use xlink:href="#DejaVuSans-31" transform="translate(254.646484 0)"/>
      <use xlink:href="#DejaVuSans-34" transform="translate(318.269531 0)"/>
     </g>
    </g>
    <g id="line2d_49">
     <path d="M 279.148507 88.689062 
L 289.148507 88.689062 
L 299.148507 88.689062 
" style="fill: none; stroke: #002fe8; stroke-opacity: 0.5; stroke-linecap: square"/>
    </g>
    <g id="text_14">
     <!-- AOU-16 -->
     <g transform="translate(307.148507 92.189062) scale(0.1 -0.1)">
      <use xlink:href="#DejaVuSans-41"/>
      <use xlink:href="#DejaVuSans-4f" transform="translate(66.658203 0)"/>
      <use xlink:href="#DejaVuSans-55" transform="translate(145.369141 0)"/>
      <use xlink:href="#DejaVuSans-2d" transform="translate(218.5625 0)"/>
      <use xlink:href="#DejaVuSans-31" transform="translate(254.646484 0)"/>
      <use xlink:href="#DejaVuSans-36" transform="translate(318.269531 0)"/>
     </g>
    </g>
    <g id="line2d_50">
     <path d="M 279.148507 103.367188 
L 289.148507 103.367188 
L 299.148507 103.367188 
" style="fill: none; stroke: #0038e3; stroke-opacity: 0.5; stroke-linecap: square"/>
    </g>
    <g id="text_15">
     <!-- AOU-20 -->
     <g transform="translate(307.148507 106.867188) scale(0.1 -0.1)">
      <use xlink:href="#DejaVuSans-41"/>
      <use xlink:href="#DejaVuSans-4f" transform="translate(66.658203 0)"/>
      <use xlink:href="#DejaVuSans-55" transform="translate(145.369141 0)"/>
      <use xlink:href="#DejaVuSans-2d" transform="translate(218.5625 0)"/>
      <use xlink:href="#DejaVuSans-32" transform="translate(254.646484 0)"/>
      <use xlink:href="#DejaVuSans-30" transform="translate(318.269531 0)"/>
     </g>
    </g>
    <g id="line2d_51">
     <path d="M 279.148507 118.045312 
L 289.148507 118.045312 
L 299.148507 118.045312 
" style="fill: none; stroke: #0042de; stroke-opacity: 0.5; stroke-linecap: square"/>
    </g>
    <g id="text_16">
     <!-- AOU-21 -->
     <g transform="translate(307.148507 121.545312) scale(0.1 -0.1)">
      <use xlink:href="#DejaVuSans-41"/>
      <use xlink:href="#DejaVuSans-4f" transform="translate(66.658203 0)"/>
      <use xlink:href="#DejaVuSans-55" transform="translate(145.369141 0)"/>
      <use xlink:href="#DejaVuSans-2d" transform="translate(218.5625 0)"/>
      <use xlink:href="#DejaVuSans-32" transform="translate(254.646484 0)"/>
      <use xlink:href="#DejaVuSans-31" transform="translate(318.269531 0)"/>
     </g>
    </g>
    <g id="line2d_52">
     <path d="M 279.148507 132.723437 
L 289.148507 132.723437 
L 299.148507 132.723437 
" style="fill: none; stroke: #004bda; stroke-opacity: 0.5; stroke-linecap: square"/>
    </g>
    <g id="text_17">
     <!-- AOU-01 -->
     <g transform="translate(307.148507 136.223437) scale(0.1 -0.1)">
      <use xlink:href="#DejaVuSans-41"/>
      <use xlink:href="#DejaVuSans-4f" transform="translate(66.658203 0)"/>
      <use xlink:href="#DejaVuSans-55" transform="translate(145.369141 0)"/>
      <use xlink:href="#DejaVuSans-2d" transform="translate(218.5625 0)"/>
      <use xlink:href="#DejaVuSans-30" transform="translate(254.646484 0)"/>
      <use xlink:href="#DejaVuSans-31" transform="translate(318.269531 0)"/>
     </g>
    </g>
    <g id="line2d_53">
     <path d="M 279.148507 147.401562 
L 289.148507 147.401562 
L 299.148507 147.401562 
" style="fill: none; stroke: #0055d4; stroke-opacity: 0.5; stroke-linecap: square"/>
    </g>
    <g id="text_18">
     <!-- AOU-02 -->
     <g transform="translate(307.148507 150.901562) scale(0.1 -0.1)">
      <use xlink:href="#DejaVuSans-41"/>
      <use xlink:href="#DejaVuSans-4f" transform="translate(66.658203 0)"/>
      <use xlink:href="#DejaVuSans-55" transform="translate(145.369141 0)"/>
      <use xlink:href="#DejaVuSans-2d" transform="translate(218.5625 0)"/>
      <use xlink:href="#DejaVuSans-30" transform="translate(254.646484 0)"/>
      <use xlink:href="#DejaVuSans-32" transform="translate(318.269531 0)"/>
     </g>
    </g>
    <g id="line2d_54">
     <path d="M 279.148507 162.079687 
L 289.148507 162.079687 
L 299.148507 162.079687 
" style="fill: none; stroke: #005ed0; stroke-opacity: 0.5; stroke-linecap: square"/>
    </g>
    <g id="text_19">
     <!-- AOU-03 -->
     <g transform="translate(307.148507 165.579687) scale(0.1 -0.1)">
      <use xlink:href="#DejaVuSans-41"/>
      <use xlink:href="#DejaVuSans-4f" transform="translate(66.658203 0)"/>
      <use xlink:href="#DejaVuSans-55" transform="translate(145.369141 0)"/>
      <use xlink:href="#DejaVuSans-2d" transform="translate(218.5625 0)"/>
      <use xlink:href="#DejaVuSans-30" transform="translate(254.646484 0)"/>
      <use xlink:href="#DejaVuSans-33" transform="translate(318.269531 0)"/>
     </g>
    </g>
    <g id="line2d_55">
     <path d="M 279.148507 176.757812 
L 289.148507 176.757812 
L 299.148507 176.757812 
" style="fill: none; stroke: #0068cb; stroke-opacity: 0.5; stroke-linecap: square"/>
    </g>
    <g id="text_20">
     <!-- AOU-08 -->
     <g transform="translate(307.148507 180.257812) scale(0.1 -0.1)">
      <defs>
       <path id="DejaVuSans-38" d="M 2034 2216 
Q 1584 2216 1326 1975 
Q 1069 1734 1069 1313 
Q 1069 891 1326 650 
Q 1584 409 2034 409 
Q 2484 409 2743 651 
Q 3003 894 3003 1313 
Q 3003 1734 2745 1975 
Q 2488 2216 2034 2216 
z
M 1403 2484 
Q 997 2584 770 2862 
Q 544 3141 544 3541 
Q 544 4100 942 4425 
Q 1341 4750 2034 4750 
Q 2731 4750 3128 4425 
Q 3525 4100 3525 3541 
Q 3525 3141 3298 2862 
Q 3072 2584 2669 2484 
Q 3125 2378 3379 2068 
Q 3634 1759 3634 1313 
Q 3634 634 3220 271 
Q 2806 -91 2034 -91 
Q 1263 -91 848 271 
Q 434 634 434 1313 
Q 434 1759 690 2068 
Q 947 2378 1403 2484 
z
M 1172 3481 
Q 1172 3119 1398 2916 
Q 1625 2713 2034 2713 
Q 2441 2713 2670 2916 
Q 2900 3119 2900 3481 
Q 2900 3844 2670 4047 
Q 2441 4250 2034 4250 
Q 1625 4250 1398 4047 
Q 1172 3844 1172 3481 
z
" transform="scale(0.015625)"/>
      </defs>
      <use xlink:href="#DejaVuSans-41"/>
      <use xlink:href="#DejaVuSans-4f" transform="translate(66.658203 0)"/>
      <use xlink:href="#DejaVuSans-55" transform="translate(145.369141 0)"/>
      <use xlink:href="#DejaVuSans-2d" transform="translate(218.5625 0)"/>
      <use xlink:href="#DejaVuSans-30" transform="translate(254.646484 0)"/>
      <use xlink:href="#DejaVuSans-38" transform="translate(318.269531 0)"/>
     </g>
    </g>
    <g id="line2d_56">
     <path d="M 279.148507 191.435937 
L 289.148507 191.435937 
L 299.148507 191.435937 
" style="fill: none; stroke: #0071c6; stroke-opacity: 0.5; stroke-linecap: square"/>
    </g>
    <g id="text_21">
     <!-- AOU-09 -->
     <g transform="translate(307.148507 194.935937) scale(0.1 -0.1)">
      <use xlink:href="#DejaVuSans-41"/>
      <use xlink:href="#DejaVuSans-4f" transform="translate(66.658203 0)"/>
      <use xlink:href="#DejaVuSans-55" transform="translate(145.369141 0)"/>
      <use xlink:href="#DejaVuSans-2d" transform="translate(218.5625 0)"/>
      <use xlink:href="#DejaVuSans-30" transform="translate(254.646484 0)"/>
      <use xlink:href="#DejaVuSans-39" transform="translate(318.269531 0)"/>
     </g>
    </g>
    <g id="line2d_57">
     <path d="M 279.148507 206.114062 
L 289.148507 206.114062 
L 299.148507 206.114062 
" style="fill: none; stroke: #007bc2; stroke-opacity: 0.5; stroke-linecap: square"/>
    </g>
    <g id="text_22">
     <!-- AOU-15 -->
     <g transform="translate(307.148507 209.614062) scale(0.1 -0.1)">
      <use xlink:href="#DejaVuSans-41"/>
      <use xlink:href="#DejaVuSans-4f" transform="translate(66.658203 0)"/>
      <use xlink:href="#DejaVuSans-55" transform="translate(145.369141 0)"/>
      <use xlink:href="#DejaVuSans-2d" transform="translate(218.5625 0)"/>
      <use xlink:href="#DejaVuSans-31" transform="translate(254.646484 0)"/>
      <use xlink:href="#DejaVuSans-35" transform="translate(318.269531 0)"/>
     </g>
    </g>
    <g id="line2d_58">
     <path d="M 279.148507 220.792187 
L 289.148507 220.792187 
L 299.148507 220.792187 
" style="fill: none; stroke: #0084bd; stroke-opacity: 0.5; stroke-linecap: square"/>
    </g>
    <g id="text_23">
     <!-- AOU-17 -->
     <g transform="translate(307.148507 224.292187) scale(0.1 -0.1)">
      <use xlink:href="#DejaVuSans-41"/>
      <use xlink:href="#DejaVuSans-4f" transform="translate(66.658203 0)"/>
      <use xlink:href="#DejaVuSans-55" transform="translate(145.369141 0)"/>
      <use xlink:href="#DejaVuSans-2d" transform="translate(218.5625 0)"/>
      <use xlink:href="#DejaVuSans-31" transform="translate(254.646484 0)"/>
      <use xlink:href="#DejaVuSans-37" transform="translate(318.269531 0)"/>
     </g>
    </g>
    <g id="line2d_59">
     <path d="M 279.148507 235.470312 
L 289.148507 235.470312 
L 299.148507 235.470312 
" style="fill: none; stroke: #008eb8; stroke-opacity: 0.5; stroke-linecap: square"/>
    </g>
    <g id="text_24">
     <!-- AOU-18 -->
     <g transform="translate(307.148507 238.970312) scale(0.1 -0.1)">
      <use xlink:href="#DejaVuSans-41"/>
      <use xlink:href="#DejaVuSans-4f" transform="translate(66.658203 0)"/>
      <use xlink:href="#DejaVuSans-55" transform="translate(145.369141 0)"/>
      <use xlink:href="#DejaVuSans-2d" transform="translate(218.5625 0)"/>
      <use xlink:href="#DejaVuSans-31" transform="translate(254.646484 0)"/>
      <use xlink:href="#DejaVuSans-38" transform="translate(318.269531 0)"/>
     </g>
    </g>
    <g id="line2d_60">
     <path d="M 279.148507 250.148437 
L 289.148507 250.148437 
L 299.148507 250.148437 
" style="fill: none; stroke: #0097b3; stroke-opacity: 0.5; stroke-linecap: square"/>
    </g>
    <g id="text_25">
     <!-- AOU-19 -->
     <g transform="translate(307.148507 253.648437) scale(0.1 -0.1)">
      <use xlink:href="#DejaVuSans-41"/>
      <use xlink:href="#DejaVuSans-4f" transform="translate(66.658203 0)"/>
      <use xlink:href="#DejaVuSans-55" transform="translate(145.369141 0)"/>
      <use xlink:href="#DejaVuSans-2d" transform="translate(218.5625 0)"/>
      <use xlink:href="#DejaVuSans-31" transform="translate(254.646484 0)"/>
      <use xlink:href="#DejaVuSans-39" transform="translate(318.269531 0)"/>
     </g>
    </g>
    <g id="line2d_61">
     <path d="M 279.148507 264.826562 
L 289.148507 264.826562 
L 299.148507 264.826562 
" style="fill: none; stroke: #00a1ae; stroke-opacity: 0.5; stroke-linecap: square"/>
    </g>
    <g id="text_26">
     <!-- AOU-22 -->
     <g transform="translate(307.148507 268.326562) scale(0.1 -0.1)">
      <use xlink:href="#DejaVuSans-41"/>
      <use xlink:href="#DejaVuSans-4f" transform="translate(66.658203 0)"/>
      <use xlink:href="#DejaVuSans-55" transform="translate(145.369141 0)"/>
      <use xlink:href="#DejaVuSans-2d" transform="translate(218.5625 0)"/>
      <use xlink:href="#DejaVuSans-32" transform="translate(254.646484 0)"/>
      <use xlink:href="#DejaVuSans-32" transform="translate(318.269531 0)"/>
     </g>
    </g>
    <g id="line2d_62">
     <path d="M 279.148507 279.504687 
L 289.148507 279.504687 
L 299.148507 279.504687 
" style="fill: none; stroke: #00aaaa; stroke-opacity: 0.5; stroke-linecap: square"/>
    </g>
    <g id="text_27">
     <!-- AOU-23 -->
     <g transform="translate(307.148507 283.004687) scale(0.1 -0.1)">
      <use xlink:href="#DejaVuSans-41"/>
      <use xlink:href="#DejaVuSans-4f" transform="translate(66.658203 0)"/>
      <use xlink:href="#DejaVuSans-55" transform="translate(145.369141 0)"/>
      <use xlink:href="#DejaVuSans-2d" transform="translate(218.5625 0)"/>
      <use xlink:href="#DejaVuSans-32" transform="translate(254.646484 0)"/>
      <use xlink:href="#DejaVuSans-33" transform="translate(318.269531 0)"/>
     </g>
    </g>
    <g id="line2d_63">
     <path d="M 279.148507 294.182812 
L 289.148507 294.182812 
L 299.148507 294.182812 
" style="fill: none; stroke: #00b4a5; stroke-opacity: 0.5; stroke-linecap: square"/>
    </g>
    <g id="text_28">
     <!-- AOU-24 -->
     <g transform="translate(307.148507 297.682812) scale(0.1 -0.1)">
      <use xlink:href="#DejaVuSans-41"/>
      <use xlink:href="#DejaVuSans-4f" transform="translate(66.658203 0)"/>
      <use xlink:href="#DejaVuSans-55" transform="translate(145.369141 0)"/>
      <use xlink:href="#DejaVuSans-2d" transform="translate(218.5625 0)"/>
      <use xlink:href="#DejaVuSans-32" transform="translate(254.646484 0)"/>
      <use xlink:href="#DejaVuSans-34" transform="translate(318.269531 0)"/>
     </g>
    </g>
    <g id="line2d_64">
     <path d="M 279.148507 308.860937 
L 289.148507 308.860937 
L 299.148507 308.860937 
" style="fill: none; stroke: #00bda0; stroke-opacity: 0.5; stroke-linecap: square"/>
    </g>
    <g id="text_29">
     <!-- AOU-25 -->
     <g transform="translate(307.148507 312.360937) scale(0.1 -0.1)">
      <use xlink:href="#DejaVuSans-41"/>
      <use xlink:href="#DejaVuSans-4f" transform="translate(66.658203 0)"/>
      <use xlink:href="#DejaVuSans-55" transform="translate(145.369141 0)"/>
      <use xlink:href="#DejaVuSans-2d" transform="translate(218.5625 0)"/>
      <use xlink:href="#DejaVuSans-32" transform="translate(254.646484 0)"/>
      <use xlink:href="#DejaVuSans-35" transform="translate(318.269531 0)"/>
     </g>
    </g>
    <g id="line2d_65">
     <path d="M 279.148507 323.539062 
L 289.148507 323.539062 
L 299.148507 323.539062 
" style="fill: none; stroke: #00c79c; stroke-opacity: 0.5; stroke-linecap: square"/>
    </g>
    <g id="text_30">
     <!-- AOU-26 -->
     <g transform="translate(307.148507 327.039062) scale(0.1 -0.1)">
      <use xlink:href="#DejaVuSans-41"/>
      <use xlink:href="#DejaVuSans-4f" transform="translate(66.658203 0)"/>
      <use xlink:href="#DejaVuSans-55" transform="translate(145.369141 0)"/>
      <use xlink:href="#DejaVuSans-2d" transform="translate(218.5625 0)"/>
      <use xlink:href="#DejaVuSans-32" transform="translate(254.646484 0)"/>
      <use xlink:href="#DejaVuSans-36" transform="translate(318.269531 0)"/>
     </g>
    </g>
    <g id="line2d_66">
     <path d="M 279.148507 338.217188 
L 289.148507 338.217188 
L 299.148507 338.217188 
" style="fill: none; stroke: #00d097; stroke-opacity: 0.5; stroke-linecap: square"/>
    </g>
    <g id="text_31">
     <!-- AOU-27 -->
     <g transform="translate(307.148507 341.717188) scale(0.1 -0.1)">
      <use xlink:href="#DejaVuSans-41"/>
      <use xlink:href="#DejaVuSans-4f" transform="translate(66.658203 0)"/>
      <use xlink:href="#DejaVuSans-55" transform="translate(145.369141 0)"/>
      <use xlink:href="#DejaVuSans-2d" transform="translate(218.5625 0)"/>
      <use xlink:href="#DejaVuSans-32" transform="translate(254.646484 0)"/>
      <use xlink:href="#DejaVuSans-37" transform="translate(318.269531 0)"/>
     </g>
    </g>
    <g id="line2d_67">
     <path d="M 279.148507 352.895313 
L 289.148507 352.895313 
L 299.148507 352.895313 
" style="fill: none; stroke: #00da92; stroke-opacity: 0.5; stroke-linecap: square"/>
    </g>
    <g id="text_32">
     <!-- AOU-28 -->
     <g transform="translate(307.148507 356.395313) scale(0.1 -0.1)">
      <use xlink:href="#DejaVuSans-41"/>
      <use xlink:href="#DejaVuSans-4f" transform="translate(66.658203 0)"/>
      <use xlink:href="#DejaVuSans-55" transform="translate(145.369141 0)"/>
      <use xlink:href="#DejaVuSans-2d" transform="translate(218.5625 0)"/>
      <use xlink:href="#DejaVuSans-32" transform="translate(254.646484 0)"/>
      <use xlink:href="#DejaVuSans-38" transform="translate(318.269531 0)"/>
     </g>
    </g>
    <g id="line2d_68">
     <path d="M 279.148507 367.573438 
L 289.148507 367.573438 
L 299.148507 367.573438 
" style="fill: none; stroke: #00e38e; stroke-opacity: 0.5; stroke-linecap: square"/>
    </g>
    <g id="text_33">
     <!-- AOU-29 -->
     <g transform="translate(307.148507 371.073438) scale(0.1 -0.1)">
      <use xlink:href="#DejaVuSans-41"/>
      <use xlink:href="#DejaVuSans-4f" transform="translate(66.658203 0)"/>
      <use xlink:href="#DejaVuSans-55" transform="translate(145.369141 0)"/>
      <use xlink:href="#DejaVuSans-2d" transform="translate(218.5625 0)"/>
      <use xlink:href="#DejaVuSans-32" transform="translate(254.646484 0)"/>
      <use xlink:href="#DejaVuSans-39" transform="translate(318.269531 0)"/>
     </g>
    </g>
    <g id="line2d_69">
     <path d="M 279.148507 382.251563 
L 289.148507 382.251563 
L 299.148507 382.251563 
" style="fill: none; stroke: #00ed88; stroke-opacity: 0.5; stroke-linecap: square"/>
    </g>
    <g id="text_34">
     <!-- AOU-10 -->
     <g transform="translate(307.148507 385.751563) scale(0.1 -0.1)">
      <use xlink:href="#DejaVuSans-41"/>
      <use xlink:href="#DejaVuSans-4f" transform="translate(66.658203 0)"/>
      <use xlink:href="#DejaVuSans-55" transform="translate(145.369141 0)"/>
      <use xlink:href="#DejaVuSans-2d" transform="translate(218.5625 0)"/>
      <use xlink:href="#DejaVuSans-31" transform="translate(254.646484 0)"/>
      <use xlink:href="#DejaVuSans-30" transform="translate(318.269531 0)"/>
     </g>
    </g>
    <g id="line2d_70">
     <path d="M 279.148507 396.929688 
L 289.148507 396.929688 
L 299.148507 396.929688 
" style="fill: none; stroke: #00f684; stroke-opacity: 0.5; stroke-linecap: square"/>
    </g>
    <g id="text_35">
     <!-- AOU-11 -->
     <g transform="translate(307.148507 400.429688) scale(0.1 -0.1)">
      <use xlink:href="#DejaVuSans-41"/>
      <use xlink:href="#DejaVuSans-4f" transform="translate(66.658203 0)"/>
      <use xlink:href="#DejaVuSans-55" transform="translate(145.369141 0)"/>
      <use xlink:href="#DejaVuSans-2d" transform="translate(218.5625 0)"/>
      <use xlink:href="#DejaVuSans-31" transform="translate(254.646484 0)"/>
      <use xlink:href="#DejaVuSans-31" transform="translate(318.269531 0)"/>
     </g>
    </g>
    <g id="line2d_71">
     <path d="M 279.148507 411.607813 
L 289.148507 411.607813 
L 299.148507 411.607813 
" style="fill: none; stroke: #00ff80; stroke-opacity: 0.5; stroke-linecap: square"/>
    </g>
    <g id="text_36">
     <!-- AOU-30 -->
     <g transform="translate(307.148507 415.107813) scale(0.1 -0.1)">
      <use xlink:href="#DejaVuSans-41"/>
      <use xlink:href="#DejaVuSans-4f" transform="translate(66.658203 0)"/>
      <use xlink:href="#DejaVuSans-55" transform="translate(145.369141 0)"/>
      <use xlink:href="#DejaVuSans-2d" transform="translate(218.5625 0)"/>
      <use xlink:href="#DejaVuSans-33" transform="translate(254.646484 0)"/>
      <use xlink:href="#DejaVuSans-30" transform="translate(318.269531 0)"/>
     </g>
    </g>
    <g id="line2d_72">
     <path d="M 279.148507 426.285938 
L 289.148507 426.285938 
L 299.148507 426.285938 
" style="fill: none; stroke: #ff0000; stroke-width: 3; stroke-linecap: square"/>
    </g>
    <g id="text_37">
     <!-- TA-CONSTRAINTS -->
     <g transform="translate(307.148507 429.785938) scale(0.1 -0.1)">
      <defs>
       <path id="DejaVuSans-54" d="M -19 4666 
L 3928 4666 
L 3928 4134 
L 2272 4134 
L 2272 0 
L 1638 0 
L 1638 4134 
L -19 4134 
L -19 4666 
z
" transform="scale(0.015625)"/>
       <path id="DejaVuSans-43" d="M 4122 4306 
L 4122 3641 
Q 3803 3938 3442 4084 
Q 3081 4231 2675 4231 
Q 1875 4231 1450 3742 
Q 1025 3253 1025 2328 
Q 1025 1406 1450 917 
Q 1875 428 2675 428 
Q 3081 428 3442 575 
Q 3803 722 4122 1019 
L 4122 359 
Q 3791 134 3420 21 
Q 3050 -91 2638 -91 
Q 1578 -91 968 557 
Q 359 1206 359 2328 
Q 359 3453 968 4101 
Q 1578 4750 2638 4750 
Q 3056 4750 3426 4639 
Q 3797 4528 4122 4306 
z
" transform="scale(0.015625)"/>
       <path id="DejaVuSans-53" d="M 3425 4513 
L 3425 3897 
Q 3066 4069 2747 4153 
Q 2428 4238 2131 4238 
Q 1616 4238 1336 4038 
Q 1056 3838 1056 3469 
Q 1056 3159 1242 3001 
Q 1428 2844 1947 2747 
L 2328 2669 
Q 3034 2534 3370 2195 
Q 3706 1856 3706 1288 
Q 3706 609 3251 259 
Q 2797 -91 1919 -91 
Q 1588 -91 1214 -16 
Q 841 59 441 206 
L 441 856 
Q 825 641 1194 531 
Q 1563 422 1919 422 
Q 2459 422 2753 634 
Q 3047 847 3047 1241 
Q 3047 1584 2836 1778 
Q 2625 1972 2144 2069 
L 1759 2144 
Q 1053 2284 737 2584 
Q 422 2884 422 3419 
Q 422 4038 858 4394 
Q 1294 4750 2059 4750 
Q 2388 4750 2728 4690 
Q 3069 4631 3425 4513 
z
" transform="scale(0.015625)"/>
       <path id="DejaVuSans-52" d="M 2841 2188 
Q 3044 2119 3236 1894 
Q 3428 1669 3622 1275 
L 4263 0 
L 3584 0 
L 2988 1197 
Q 2756 1666 2539 1819 
Q 2322 1972 1947 1972 
L 1259 1972 
L 1259 0 
L 628 0 
L 628 4666 
L 2053 4666 
Q 2853 4666 3247 4331 
Q 3641 3997 3641 3322 
Q 3641 2881 3436 2590 
Q 3231 2300 2841 2188 
z
M 1259 4147 
L 1259 2491 
L 2053 2491 
Q 2509 2491 2742 2702 
Q 2975 2913 2975 3322 
Q 2975 3731 2742 3939 
Q 2509 4147 2053 4147 
L 1259 4147 
z
" transform="scale(0.015625)"/>
       <path id="DejaVuSans-49" d="M 628 4666 
L 1259 4666 
L 1259 0 
L 628 0 
L 628 4666 
z
" transform="scale(0.015625)"/>
      </defs>
      <use xlink:href="#DejaVuSans-54"/>
      <use xlink:href="#DejaVuSans-41" transform="translate(53.333984 0)"/>
      <use xlink:href="#DejaVuSans-2d" transform="translate(119.492188 0)"/>
      <use xlink:href="#DejaVuSans-43" transform="translate(155.576172 0)"/>
      <use xlink:href="#DejaVuSans-4f" transform="translate(225.400391 0)"/>
      <use xlink:href="#DejaVuSans-4e" transform="translate(304.111328 0)"/>
      <use xlink:href="#DejaVuSans-53" transform="translate(378.916016 0)"/>
      <use xlink:href="#DejaVuSans-54" transform="translate(442.392578 0)"/>
      <use xlink:href="#DejaVuSans-52" transform="translate(503.476562 0)"/>
      <use xlink:href="#DejaVuSans-41" transform="translate(568.958984 0)"/>
      <use xlink:href="#DejaVuSans-49" transform="translate(637.367188 0)"/>
      <use xlink:href="#DejaVuSans-4e" transform="translate(666.859375 0)"/>
      <use xlink:href="#DejaVuSans-54" transform="translate(741.664062 0)"/>
      <use xlink:href="#DejaVuSans-53" transform="translate(802.748047 0)"/>
     </g>
    </g>
   </g>
  </g>
 </g>
 <defs>
  <clipPath id="p7b44e067c3">
   <rect x="41.345313" y="88.476813" width="200.645934" height="266.112"/>
  </clipPath>
 </defs>
</svg>
