<?xml version="1.0" encoding="utf-8" standalone="no"?>
<!DOCTYPE svg PUBLIC "-//W3C//DTD SVG 1.1//EN"
  "http://www.w3.org/Graphics/SVG/1.1/DTD/svg11.dtd">
<svg xmlns:xlink="http://www.w3.org/1999/xlink" width="405.221944pt" height="293.690125pt" viewBox="0 0 405.221944 293.690125" xmlns="http://www.w3.org/2000/svg" version="1.1">
 <metadata>
  <rdf:RDF xmlns:dc="http://purl.org/dc/elements/1.1/" xmlns:cc="http://creativecommons.org/ns#" xmlns:rdf="http://www.w3.org/1999/02/22-rdf-syntax-ns#">
   <cc:Work>
    <dc:type rdf:resource="http://purl.org/dc/dcmitype/StillImage"/>
    <dc:date>2026-01-16T14:44:41.655335</dc:date>
    <dc:format>image/svg+xml</dc:format>
    <dc:creator>
     <cc:Agent>
      <dc:title>Matplotlib v3.10.8, https://matplotlib.org/</dc:title>
     </cc:Agent>
    </dc:creator>
   </cc:Work>
  </rdf:RDF>
 </metadata>
 <defs>
  <style type="text/css">*{stroke-linejoin: round; stroke-linecap: butt}</style>
 </defs>
 <g id="figure_1">
  <g id="patch_1">
   <path d="M 0 293.690125 
L 405.221944 293.690125 
L 405.221944 0 
L 0 0 
z
" style="fill: #ffffff"/>
  </g>
  <g id="axes_1">
   <g id="patch_2">
    <path d="M 26.603125 273.312 
L 227.249059 273.312 
L 227.249059 7.2 
L 26.603125 7.2 
z
" style="fill: #eeeeee"/>
   </g>
   <g id="matplotlib.axis_1">
    <g id="xtick_1">
     <g id="line2d_1">
      <path d="M 71.634127 273.312 
L 71.634127 7.2 
" clip-path="url(#p3bfe186f02)" style="fill: none; stroke-dasharray: 1.85,0.8; stroke-dashoffset: 0; stroke: #b2b2b2; stroke-width: 0.5"/>
     </g>
     <g id="line2d_2">
      <defs>
       <path id="m0ecb31fbda" d="M 0 0 
L 0 -3.5 
" style="stroke: #000000; stroke-width: 0.8"/>
      </defs>
      <g>
       <use xlink:href="#m0ecb31fbda" x="71.634127" y="273.312" style="stroke: #000000; stroke-width: 0.8"/>
      </g>
     </g>
     <g id="text_1">
      <!-- Dec -->
      <g transform="translate(61.958345 284.410437) scale(0.1 -0.1)">
       <defs>
        <path id="DejaVuSans-44" d="M 1259 4147 
L 1259 519 
L 2022 519 
Q 2988 519 3436 956 
Q 3884 1394 3884 2338 
Q 3884 3275 3436 3711 
Q 2988 4147 2022 4147 
L 1259 4147 
z
M 628 4666 
L 1925 4666 
Q 3281 4666 3915 4102 
Q 4550 3538 4550 2338 
Q 4550 1131 3912 565 
Q 3275 0 1925 0 
L 628 0 
L 628 4666 
z
" transform="scale(0.015625)"/>
        <path id="DejaVuSans-65" d="M 3597 1894 
L 3597 1613 
L 953 1613 
Q 991 1019 1311 708 
Q 1631 397 2203 397 
Q 2534 397 2845 478 
Q 3156 559 3463 722 
L 3463 178 
Q 3153 47 2828 -22 
Q 2503 -91 2169 -91 
Q 1331 -91 842 396 
Q 353 884 353 1716 
Q 353 2575 817 3079 
Q 1281 3584 2069 3584 
Q 2775 3584 3186 3129 
Q 3597 2675 3597 1894 
z
M 3022 2063 
Q 3016 2534 2758 2815 
Q 2500 3097 2075 3097 
Q 1594 3097 1305 2825 
Q 1016 2553 972 2059 
L 3022 2063 
z
" transform="scale(0.015625)"/>
        <path id="DejaVuSans-63" d="M 3122 3366 
L 3122 2828 
Q 2878 2963 2633 3030 
Q 2388 3097 2138 3097 
Q 1578 3097 1268 2742 
Q 959 2388 959 1747 
Q 959 1106 1268 751 
Q 1578 397 2138 397 
Q 2388 397 2633 464 
Q 2878 531 3122 666 
L 3122 134 
Q 2881 22 2623 -34 
Q 2366 -91 2075 -91 
Q 1284 -91 818 406 
Q 353 903 353 1747 
Q 353 2603 823 3093 
Q 1294 3584 2113 3584 
Q 2378 3584 2631 3529 
Q 2884 3475 3122 3366 
z
" transform="scale(0.015625)"/>
       </defs>
       <use xlink:href="#DejaVuSans-44"/>
       <use xlink:href="#DejaVuSans-65" transform="translate(77.001953 0)"/>
       <use xlink:href="#DejaVuSans-63" transform="translate(138.525391 0)"/>
      </g>
     </g>
    </g>
    <g id="xtick_2">
     <g id="line2d_3">
      <path d="M 169.058225 273.312 
L 169.058225 7.2 
" clip-path="url(#p3bfe186f02)" style="fill: none; stroke-dasharray: 1.85,0.8; stroke-dashoffset: 0; stroke: #b2b2b2; stroke-width: 0.5"/>
     </g>
     <g id="line2d_4">
      <g>
       <use xlink:href="#m0ecb31fbda" x="169.058225" y="273.312" style="stroke: #000000; stroke-width: 0.8"/>
      </g>
     </g>
     <g id="text_2">
      <!-- 2026 -->
      <g transform="translate(156.333225 284.410437) scale(0.1 -0.1)">
       <defs>
        <path id="DejaVuSans-32" d="M 1228 531 
L 3431 531 
L 3431 0 
L 469 0 
L 469 531 
Q 828 903 1448 1529 
Q 2069 2156 2228 2338 
Q 2531 2678 2651 2914 
Q 2772 3150 2772 3378 
Q 2772 3750 2511 3984 
Q 2250 4219 1831 4219 
Q 1534 4219 1204 4116 
Q 875 4013 500 3803 
L 500 4441 
Q 881 4594 1212 4672 
Q 1544 4750 1819 4750 
Q 2544 4750 2975 4387 
Q 3406 4025 3406 3419 
Q 3406 3131 3298 2873 
Q 3191 2616 2906 2266 
Q 2828 2175 2409 1742 
Q 1991 1309 1228 531 
z
" transform="scale(0.015625)"/>
        <path id="DejaVuSans-30" d="M 2034 4250 
Q 1547 4250 1301 3770 
Q 1056 3291 1056 2328 
Q 1056 1369 1301 889 
Q 1547 409 2034 409 
Q 2525 409 2770 889 
Q 3016 1369 3016 2328 
Q 3016 3291 2770 3770 
Q 2525 4250 2034 4250 
z
M 2034 4750 
Q 2819 4750 3233 4129 
Q 3647 3509 3647 2328 
Q 3647 1150 3233 529 
Q 2819 -91 2034 -91 
Q 1250 -91 836 529 
Q 422 1150 422 2328 
Q 422 3509 836 4129 
Q 1250 4750 2034 4750 
z
" transform="scale(0.015625)"/>
        <path id="DejaVuSans-36" d="M 2113 2584 
Q 1688 2584 1439 2293 
Q 1191 2003 1191 1497 
Q 1191 994 1439 701 
Q 1688 409 2113 409 
Q 2538 409 2786 701 
Q 3034 994 3034 1497 
Q 3034 2003 2786 2293 
Q 2538 2584 2113 2584 
z
M 3366 4563 
L 3366 3988 
Q 3128 4100 2886 4159 
Q 2644 4219 2406 4219 
Q 1781 4219 1451 3797 
Q 1122 3375 1075 2522 
Q 1259 2794 1537 2939 
Q 1816 3084 2150 3084 
Q 2853 3084 3261 2657 
Q 3669 2231 3669 1497 
Q 3669 778 3244 343 
Q 2819 -91 2113 -91 
Q 1303 -91 875 529 
Q 447 1150 447 2328 
Q 447 3434 972 4092 
Q 1497 4750 2381 4750 
Q 2619 4750 2861 4703 
Q 3103 4656 3366 4563 
z
" transform="scale(0.015625)"/>
       </defs>
       <use xlink:href="#DejaVuSans-32"/>
       <use xlink:href="#DejaVuSans-30" transform="translate(63.623047 0)"/>
       <use xlink:href="#DejaVuSans-32" transform="translate(127.246094 0)"/>
       <use xlink:href="#DejaVuSans-36" transform="translate(190.869141 0)"/>
      </g>
     </g>
    </g>
    <g id="xtick_3">
     <g id="line2d_5">
      <defs>
       <path id="mbe8c6d59fe" d="M 0 0 
L 0 -2 
" style="stroke: #000000; stroke-width: 0.6"/>
      </defs>
      <g>
       <use xlink:href="#mbe8c6d59fe" x="30.77886" y="273.312" style="stroke: #000000; stroke-width: 0.6"/>
      </g>
     </g>
    </g>
    <g id="xtick_4">
     <g id="line2d_6">
      <g>
       <use xlink:href="#mbe8c6d59fe" x="52.77785" y="273.312" style="stroke: #000000; stroke-width: 0.6"/>
      </g>
     </g>
    </g>
    <g id="xtick_5">
     <g id="line2d_7">
      <g>
       <use xlink:href="#mbe8c6d59fe" x="74.77684" y="273.312" style="stroke: #000000; stroke-width: 0.6"/>
      </g>
     </g>
    </g>
    <g id="xtick_6">
     <g id="line2d_8">
      <g>
       <use xlink:href="#mbe8c6d59fe" x="96.775829" y="273.312" style="stroke: #000000; stroke-width: 0.6"/>
      </g>
     </g>
    </g>
    <g id="xtick_7">
     <g id="line2d_9">
      <g>
       <use xlink:href="#mbe8c6d59fe" x="118.774819" y="273.312" style="stroke: #000000; stroke-width: 0.6"/>
      </g>
     </g>
    </g>
    <g id="xtick_8">
     <g id="line2d_10">
      <g>
       <use xlink:href="#mbe8c6d59fe" x="140.773809" y="273.312" style="stroke: #000000; stroke-width: 0.6"/>
      </g>
     </g>
    </g>
    <g id="xtick_9">
     <g id="line2d_11">
      <g>
       <use xlink:href="#mbe8c6d59fe" x="162.772799" y="273.312" style="stroke: #000000; stroke-width: 0.6"/>
      </g>
     </g>
    </g>
    <g id="xtick_10">
     <g id="line2d_12">
      <g>
       <use xlink:href="#mbe8c6d59fe" x="184.771789" y="273.312" style="stroke: #000000; stroke-width: 0.6"/>
      </g>
     </g>
    </g>
    <g id="xtick_11">
     <g id="line2d_13">
      <g>
       <use xlink:href="#mbe8c6d59fe" x="206.770779" y="273.312" style="stroke: #000000; stroke-width: 0.6"/>
      </g>
     </g>
    </g>
   </g>
   <g id="matplotlib.axis_2">
    <g id="ytick_1">
     <g id="line2d_14">
      <path d="M 26.603125 261.216 
L 227.249059 261.216 
" clip-path="url(#p3bfe186f02)" style="fill: none; stroke-dasharray: 1.85,0.8; stroke-dashoffset: 0; stroke: #b2b2b2; stroke-width: 0.5"/>
     </g>
     <g id="line2d_15">
      <defs>
       <path id="m0dab33f4fe" d="M 0 0 
L 3.5 0 
" style="stroke: #000000; stroke-width: 0.8"/>
      </defs>
      <g>
       <use xlink:href="#m0dab33f4fe" x="26.603125" y="261.216" style="stroke: #000000; stroke-width: 0.8"/>
      </g>
     </g>
     <g id="text_3">
      <!-- 0.0 -->
      <g transform="translate(7.2 265.015219) scale(0.1 -0.1)">
       <defs>
        <path id="DejaVuSans-2e" d="M 684 794 
L 1344 794 
L 1344 0 
L 684 0 
L 684 794 
z
" transform="scale(0.015625)"/>
       </defs>
       <use xlink:href="#DejaVuSans-30"/>
       <use xlink:href="#DejaVuSans-2e" transform="translate(63.623047 0)"/>
       <use xlink:href="#DejaVuSans-30" transform="translate(95.410156 0)"/>
      </g>
     </g>
    </g>
    <g id="ytick_2">
     <g id="line2d_16">
      <path d="M 26.603125 228.386579 
L 227.249059 228.386579 
" clip-path="url(#p3bfe186f02)" style="fill: none; stroke-dasharray: 1.85,0.8; stroke-dashoffset: 0; stroke: #b2b2b2; stroke-width: 0.5"/>
     </g>
     <g id="line2d_17">
      <g>
       <use xlink:href="#m0dab33f4fe" x="26.603125" y="228.386579" style="stroke: #000000; stroke-width: 0.8"/>
      </g>
     </g>
     <g id="text_4">
      <!-- 0.1 -->
      <g transform="translate(7.2 232.185798) scale(0.1 -0.1)">
       <defs>
        <path id="DejaVuSans-31" d="M 794 531 
L 1825 531 
L 1825 4091 
L 703 3866 
L 703 4441 
L 1819 4666 
L 2450 4666 
L 2450 531 
L 3481 531 
L 3481 0 
L 794 0 
L 794 531 
z
" transform="scale(0.015625)"/>
       </defs>
       <use xlink:href="#DejaVuSans-30"/>
       <use xlink:href="#DejaVuSans-2e" transform="translate(63.623047 0)"/>
       <use xlink:href="#DejaVuSans-31" transform="translate(95.410156 0)"/>
      </g>
     </g>
    </g>
    <g id="ytick_3">
     <g id="line2d_18">
      <path d="M 26.603125 195.557159 
L 227.249059 195.557159 
" clip-path="url(#p3bfe186f02)" style="fill: none; stroke-dasharray: 1.85,0.8; stroke-dashoffset: 0; stroke: #b2b2b2; stroke-width: 0.5"/>
     </g>
     <g id="line2d_19">
      <g>
       <use xlink:href="#m0dab33f4fe" x="26.603125" y="195.557159" style="stroke: #000000; stroke-width: 0.8"/>
      </g>
     </g>
     <g id="text_5">
      <!-- 0.2 -->
      <g transform="translate(7.2 199.356378) scale(0.1 -0.1)">
       <use xlink:href="#DejaVuSans-30"/>
       <use xlink:href="#DejaVuSans-2e" transform="translate(63.623047 0)"/>
       <use xlink:href="#DejaVuSans-32" transform="translate(95.410156 0)"/>
      </g>
     </g>
    </g>
    <g id="ytick_4">
     <g id="line2d_20">
      <path d="M 26.603125 162.727738 
L 227.249059 162.727738 
" clip-path="url(#p3bfe186f02)" style="fill: none; stroke-dasharray: 1.85,0.8; stroke-dashoffset: 0; stroke: #b2b2b2; stroke-width: 0.5"/>
     </g>
     <g id="line2d_21">
      <g>
       <use xlink:href="#m0dab33f4fe" x="26.603125" y="162.727738" style="stroke: #000000; stroke-width: 0.8"/>
      </g>
     </g>
     <g id="text_6">
      <!-- 0.3 -->
      <g transform="translate(7.2 166.526957) scale(0.1 -0.1)">
       <defs>
        <path id="DejaVuSans-33" d="M 2597 2516 
Q 3050 2419 3304 2112 
Q 3559 1806 3559 1356 
Q 3559 666 3084 287 
Q 2609 -91 1734 -91 
Q 1441 -91 1130 -33 
Q 819 25 488 141 
L 488 750 
Q 750 597 1062 519 
Q 1375 441 1716 441 
Q 2309 441 2620 675 
Q 2931 909 2931 1356 
Q 2931 1769 2642 2001 
Q 2353 2234 1838 2234 
L 1294 2234 
L 1294 2753 
L 1863 2753 
Q 2328 2753 2575 2939 
Q 2822 3125 2822 3475 
Q 2822 3834 2567 4026 
Q 2313 4219 1838 4219 
Q 1578 4219 1281 4162 
Q 984 4106 628 3988 
L 628 4550 
Q 988 4650 1302 4700 
Q 1616 4750 1894 4750 
Q 2613 4750 3031 4423 
Q 3450 4097 3450 3541 
Q 3450 3153 3228 2886 
Q 3006 2619 2597 2516 
z
" transform="scale(0.015625)"/>
       </defs>
       <use xlink:href="#DejaVuSans-30"/>
       <use xlink:href="#DejaVuSans-2e" transform="translate(63.623047 0)"/>
       <use xlink:href="#DejaVuSans-33" transform="translate(95.410156 0)"/>
      </g>
     </g>
    </g>
    <g id="ytick_5">
     <g id="line2d_22">
      <path d="M 26.603125 129.898318 
L 227.249059 129.898318 
" clip-path="url(#p3bfe186f02)" style="fill: none; stroke-dasharray: 1.85,0.8; stroke-dashoffset: 0; stroke: #b2b2b2; stroke-width: 0.5"/>
     </g>
     <g id="line2d_23">
      <g>
       <use xlink:href="#m0dab33f4fe" x="26.603125" y="129.898318" style="stroke: #000000; stroke-width: 0.8"/>
      </g>
     </g>
     <g id="text_7">
      <!-- 0.4 -->
      <g transform="translate(7.2 133.697537) scale(0.1 -0.1)">
       <defs>
        <path id="DejaVuSans-34" d="M 2419 4116 
L 825 1625 
L 2419 1625 
L 2419 4116 
z
M 2253 4666 
L 3047 4666 
L 3047 1625 
L 3713 1625 
L 3713 1100 
L 3047 1100 
L 3047 0 
L 2419 0 
L 2419 1100 
L 313 1100 
L 313 1709 
L 2253 4666 
z
" transform="scale(0.015625)"/>
       </defs>
       <use xlink:href="#DejaVuSans-30"/>
       <use xlink:href="#DejaVuSans-2e" transform="translate(63.623047 0)"/>
       <use xlink:href="#DejaVuSans-34" transform="translate(95.410156 0)"/>
      </g>
     </g>
    </g>
    <g id="ytick_6">
     <g id="line2d_24">
      <path d="M 26.603125 97.068897 
L 227.249059 97.068897 
" clip-path="url(#p3bfe186f02)" style="fill: none; stroke-dasharray: 1.85,0.8; stroke-dashoffset: 0; stroke: #b2b2b2; stroke-width: 0.5"/>
     </g>
     <g id="line2d_25">
      <g>
       <use xlink:href="#m0dab33f4fe" x="26.603125" y="97.068897" style="stroke: #000000; stroke-width: 0.8"/>
      </g>
     </g>
     <g id="text_8">
      <!-- 0.5 -->
      <g transform="translate(7.2 100.868116) scale(0.1 -0.1)">
       <defs>
        <path id="DejaVuSans-35" d="M 691 4666 
L 3169 4666 
L 3169 4134 
L 1269 4134 
L 1269 2991 
Q 1406 3038 1543 3061 
Q 1681 3084 1819 3084 
Q 2600 3084 3056 2656 
Q 3513 2228 3513 1497 
Q 3513 744 3044 326 
Q 2575 -91 1722 -91 
Q 1428 -91 1123 -41 
Q 819 9 494 109 
L 494 744 
Q 775 591 1075 516 
Q 1375 441 1709 441 
Q 2250 441 2565 725 
Q 2881 1009 2881 1497 
Q 2881 1984 2565 2268 
Q 2250 2553 1709 2553 
Q 1456 2553 1204 2497 
Q 953 2441 691 2322 
L 691 4666 
z
" transform="scale(0.015625)"/>
       </defs>
       <use xlink:href="#DejaVuSans-30"/>
       <use xlink:href="#DejaVuSans-2e" transform="translate(63.623047 0)"/>
       <use xlink:href="#DejaVuSans-35" transform="translate(95.410156 0)"/>
      </g>
     </g>
    </g>
    <g id="ytick_7">
     <g id="line2d_26">
      <path d="M 26.603125 64.239477 
L 227.249059 64.239477 
" clip-path="url(#p3bfe186f02)" style="fill: none; stroke-dasharray: 1.85,0.8; stroke-dashoffset: 0; stroke: #b2b2b2; stroke-width: 0.5"/>
     </g>
     <g id="line2d_27">
      <g>
       <use xlink:href="#m0dab33f4fe" x="26.603125" y="64.239477" style="stroke: #000000; stroke-width: 0.8"/>
      </g>
     </g>
     <g id="text_9">
      <!-- 0.6 -->
      <g transform="translate(7.2 68.038695) scale(0.1 -0.1)">
       <use xlink:href="#DejaVuSans-30"/>
       <use xlink:href="#DejaVuSans-2e" transform="translate(63.623047 0)"/>
       <use xlink:href="#DejaVuSans-36" transform="translate(95.410156 0)"/>
      </g>
     </g>
    </g>
    <g id="ytick_8">
     <g id="line2d_28">
      <path d="M 26.603125 31.410056 
L 227.249059 31.410056 
" clip-path="url(#p3bfe186f02)" style="fill: none; stroke-dasharray: 1.85,0.8; stroke-dashoffset: 0; stroke: #b2b2b2; stroke-width: 0.5"/>
     </g>
     <g id="line2d_29">
      <g>
       <use xlink:href="#m0dab33f4fe" x="26.603125" y="31.410056" style="stroke: #000000; stroke-width: 0.8"/>
      </g>
     </g>
     <g id="text_10">
      <!-- 0.7 -->
      <g transform="translate(7.2 35.209275) scale(0.1 -0.1)">
       <defs>
        <path id="DejaVuSans-37" d="M 525 4666 
L 3525 4666 
L 3525 4397 
L 1831 0 
L 1172 0 
L 2766 4134 
L 525 4134 
L 525 4666 
z
" transform="scale(0.015625)"/>
       </defs>
       <use xlink:href="#DejaVuSans-30"/>
       <use xlink:href="#DejaVuSans-2e" transform="translate(63.623047 0)"/>
       <use xlink:href="#DejaVuSans-37" transform="translate(95.410156 0)"/>
      </g>
     </g>
    </g>
   </g>
   <g id="line2d_30">
    <path d="M 35.723395 261.216 
L 38.495238 261.216 
L 50.738178 261.216 
L 51.603152 261.216 
L 54.660858 261.216 
L 57.500976 261.216 
L 76.882312 261.216 
L 82.117402 261.216 
L 82.893186 261.216 
L 83.040647 261.216 
L 85.575441 261.216 
L 96.041911 261.216 
L 98.070816 261.216 
L 98.482024 261.216 
L 117.863651 19.296 
L 120.584716 90.033552 
L 122.708521 98.096458 
L 205.693781 98.096458 
L 208.571873 98.096458 
L 217.989681 98.096458 
L 218.128789 98.096458 
" clip-path="url(#p3bfe186f02)" style="fill: none; stroke: #0000ff; stroke-opacity: 0.5; stroke-linecap: square"/>
   </g>
   <g id="line2d_31">
    <path d="M 35.723395 261.216 
L 38.495238 261.216 
L 50.738178 261.216 
L 51.603152 261.216 
L 54.660858 261.216 
L 57.500976 261.216 
L 76.882312 261.216 
L 82.117402 261.216 
L 82.893186 261.216 
L 83.040647 261.216 
L 85.575441 261.216 
L 96.041911 261.216 
L 98.070816 261.216 
L 98.482024 261.216 
L 117.863651 261.216 
L 120.584716 261.216 
L 122.708521 261.216 
L 205.693781 261.216 
L 208.571873 261.216 
L 217.989681 261.216 
L 218.128789 261.216 
" clip-path="url(#p3bfe186f02)" style="fill: none; stroke: #0033e6; stroke-opacity: 0.5; stroke-linecap: square"/>
   </g>
   <g id="line2d_32">
    <path d="M 35.723395 261.216 
L 38.495238 261.216 
L 50.738178 261.216 
L 51.603152 261.216 
L 54.660858 261.216 
L 57.500976 261.216 
L 76.882312 261.216 
L 82.117402 261.216 
L 82.893186 261.216 
L 83.040647 261.216 
L 85.575441 261.216 
L 96.041911 261.216 
L 98.070816 261.216 
L 98.482024 261.216 
L 117.863651 261.216 
L 120.584716 261.216 
L 122.708521 261.216 
L 205.693781 261.216 
L 208.571873 261.216 
L 217.989681 261.216 
L 218.128789 261.216 
" clip-path="url(#p3bfe186f02)" style="fill: none; stroke: #0066cc; stroke-opacity: 0.5; stroke-linecap: square"/>
   </g>
   <g id="line2d_33">
    <path d="M 35.723395 261.216 
L 38.495238 261.216 
L 50.738178 261.216 
L 51.603152 261.216 
L 54.660858 261.216 
L 57.500976 261.216 
L 76.882312 261.216 
L 82.117402 261.216 
L 82.893186 261.216 
L 83.040647 261.216 
L 85.575441 261.216 
L 96.041911 261.216 
L 98.070816 261.216 
L 98.482024 261.216 
L 117.863651 261.216 
L 120.584716 261.216 
L 122.708521 261.216 
L 205.693781 261.216 
L 208.571873 261.216 
L 217.989681 261.216 
L 218.128789 261.216 
" clip-path="url(#p3bfe186f02)" style="fill: none; stroke: #0099b2; stroke-opacity: 0.5; stroke-linecap: square"/>
   </g>
   <g id="line2d_34">
    <path d="M 35.723395 261.216 
L 38.495238 261.216 
L 50.738178 261.216 
L 51.603152 261.216 
L 54.660858 261.216 
L 57.500976 261.216 
L 76.882312 261.216 
L 82.117402 261.216 
L 82.893186 261.216 
L 83.040647 261.216 
L 85.575441 261.216 
L 96.041911 261.216 
L 98.070816 261.216 
L 98.482024 261.216 
L 117.863651 179.6907 
L 120.584716 179.6907 
L 122.708521 179.6907 
L 205.693781 179.6907 
L 208.571873 179.6907 
L 217.989681 179.6907 
L 218.128789 179.6907 
" clip-path="url(#p3bfe186f02)" style="fill: none; stroke: #00cc99; stroke-opacity: 0.5; stroke-linecap: square"/>
   </g>
   <g id="line2d_35">
    <path d="M 35.723395 261.216 
L 38.495238 261.216 
L 50.738178 261.216 
L 51.603152 261.216 
L 54.660858 261.216 
L 57.500976 261.216 
L 76.882312 261.216 
L 82.117402 261.216 
L 82.893186 261.216 
L 83.040647 261.216 
L 85.575441 261.216 
L 96.041911 261.216 
L 98.070816 261.216 
L 98.482024 261.216 
L 117.863651 261.216 
L 120.584716 261.216 
L 122.708521 261.216 
L 205.693781 261.216 
L 208.571873 261.216 
L 217.989681 261.216 
L 218.128789 261.216 
" clip-path="url(#p3bfe186f02)" style="fill: none; stroke: #00ff80; stroke-opacity: 0.5; stroke-linecap: square"/>
   </g>
   <g id="line2d_36">
    <path d="M 35.723395 261.216 
L 38.495238 261.216 
L 50.738178 261.216 
L 51.603152 261.216 
L 54.660858 261.216 
L 57.500976 261.216 
L 76.882312 261.216 
L 82.117402 261.216 
L 82.893186 261.216 
L 83.040647 261.216 
L 85.575441 261.216 
L 96.041911 261.216 
L 98.070816 261.216 
L 98.482024 261.216 
L 117.863651 220.894906 
L 120.584716 232.687234 
L 122.708521 234.029957 
L 205.693781 234.029957 
L 208.571873 234.029957 
L 217.989681 234.029957 
L 218.128789 234.029957 
" clip-path="url(#p3bfe186f02)" style="fill: none; stroke: #ff0000; stroke-width: 3; stroke-linecap: square"/>
   </g>
   <g id="patch_3">
    <path d="M 26.603125 273.312 
L 26.603125 7.2 
" style="fill: none; stroke: #bcbcbc; stroke-width: 0.8; stroke-linejoin: miter; stroke-linecap: square"/>
   </g>
   <g id="patch_4">
    <path d="M 227.249059 273.312 
L 227.249059 7.2 
" style="fill: none; stroke: #bcbcbc; stroke-width: 0.8; stroke-linejoin: miter; stroke-linecap: square"/>
   </g>
   <g id="patch_5">
    <path d="M 26.603125 273.312 
L 227.249059 273.312 
" style="fill: none; stroke: #bcbcbc; stroke-width: 0.8; stroke-linejoin: miter; stroke-linecap: square"/>
   </g>
   <g id="patch_6">
    <path d="M 26.603125 7.2 
L 227.249059 7.2 
" style="fill: none; stroke: #bcbcbc; stroke-width: 0.8; stroke-linejoin: miter; stroke-linecap: square"/>
   </g>
  </g>
  <g id="axes_2">
   <g id="legend_1">
    <g id="patch_7">
     <path d="M 247.415694 193.129437 
L 396.021944 193.129437 
Q 398.021944 193.129437 398.021944 191.129437 
L 398.021944 89.382563 
Q 398.021944 87.382563 396.021944 87.382563 
L 247.415694 87.382563 
Q 245.415694 87.382563 245.415694 89.382563 
L 245.415694 191.129437 
Q 245.415694 193.129437 247.415694 193.129437 
z
" style="fill: #eeeeee; opacity: 0.8; stroke: #cccccc; stroke-width: 0.5; stroke-linejoin: miter"/>
    </g>
    <g id="line2d_37">
     <path d="M 249.415694 95.481 
L 259.415694 95.481 
L 269.415694 95.481 
" style="fill: none; stroke: #0000ff; stroke-opacity: 0.5; stroke-linecap: square"/>
    </g>
    <g id="text_11">
     <!-- TT-CHANGES -->
     <g transform="translate(277.415694 98.981) scale(0.1 -0.1)">
      <defs>
       <path id="DejaVuSans-54" d="M -19 4666 
L 3928 4666 
L 3928 4134 
L 2272 4134 
L 2272 0 
L 1638 0 
L 1638 4134 
L -19 4134 
L -19 4666 
z
" transform="scale(0.015625)"/>
       <path id="DejaVuSans-2d" d="M 313 2009 
L 1997 2009 
L 1997 1497 
L 313 1497 
L 313 2009 
z
" transform="scale(0.015625)"/>
       <path id="DejaVuSans-43" d="M 4122 4306 
L 4122 3641 
Q 3803 3938 3442 4084 
Q 3081 4231 2675 4231 
Q 1875 4231 1450 3742 
Q 1025 3253 1025 2328 
Q 1025 1406 1450 917 
Q 1875 428 2675 428 
Q 3081 428 3442 575 
Q 3803 722 4122 1019 
L 4122 359 
Q 3791 134 3420 21 
Q 3050 -91 2638 -91 
Q 1578 -91 968 557 
Q 359 1206 359 2328 
Q 359 3453 968 4101 
Q 1578 4750 2638 4750 
Q 3056 4750 3426 4639 
Q 3797 4528 4122 4306 
z
" transform="scale(0.015625)"/>
       <path id="DejaVuSans-48" d="M 628 4666 
L 1259 4666 
L 1259 2753 
L 3553 2753 
L 3553 4666 
L 4184 4666 
L 4184 0 
L 3553 0 
L 3553 2222 
L 1259 2222 
L 1259 0 
L 628 0 
L 628 4666 
z
" transform="scale(0.015625)"/>
       <path id="DejaVuSans-41" d="M 2188 4044 
L 1331 1722 
L 3047 1722 
L 2188 4044 
z
M 1831 4666 
L 2547 4666 
L 4325 0 
L 3669 0 
L 3244 1197 
L 1141 1197 
L 716 0 
L 50 0 
L 1831 4666 
z
" transform="scale(0.015625)"/>
       <path id="DejaVuSans-4e" d="M 628 4666 
L 1478 4666 
L 3547 763 
L 3547 4666 
L 4159 4666 
L 4159 0 
L 3309 0 
L 1241 3903 
L 1241 0 
L 628 0 
L 628 4666 
z
" transform="scale(0.015625)"/>
       <path id="DejaVuSans-47" d="M 3809 666 
L 3809 1919 
L 2778 1919 
L 2778 2438 
L 4434 2438 
L 4434 434 
Q 4069 175 3628 42 
Q 3188 -91 2688 -91 
Q 1594 -91 976 548 
Q 359 1188 359 2328 
Q 359 3472 976 4111 
Q 1594 4750 2688 4750 
Q 3144 4750 3555 4637 
Q 3966 4525 4313 4306 
L 4313 3634 
Q 3963 3931 3569 4081 
Q 3175 4231 2741 4231 
Q 1884 4231 1454 3753 
Q 1025 3275 1025 2328 
Q 1025 1384 1454 906 
Q 1884 428 2741 428 
Q 3075 428 3337 486 
Q 3600 544 3809 666 
z
" transform="scale(0.015625)"/>
       <path id="DejaVuSans-45" d="M 628 4666 
L 3578 4666 
L 3578 4134 
L 1259 4134 
L 1259 2753 
L 3481 2753 
L 3481 2222 
L 1259 2222 
L 1259 531 
L 3634 531 
L 3634 0 
L 628 0 
L 628 4666 
z
" transform="scale(0.015625)"/>
       <path id="DejaVuSans-53" d="M 3425 4513 
L 3425 3897 
Q 3066 4069 2747 4153 
Q 2428 4238 2131 4238 
Q 1616 4238 1336 4038 
Q 1056 3838 1056 3469 
Q 1056 3159 1242 3001 
Q 1428 2844 1947 2747 
L 2328 2669 
Q 3034 2534 3370 2195 
Q 3706 1856 3706 1288 
Q 3706 609 3251 259 
Q 2797 -91 1919 -91 
Q 1588 -91 1214 -16 
Q 841 59 441 206 
L 441 856 
Q 825 641 1194 531 
Q 1563 422 1919 422 
Q 2459 422 2753 634 
Q 3047 847 3047 1241 
Q 3047 1584 2836 1778 
Q 2625 1972 2144 2069 
L 1759 2144 
Q 1053 2284 737 2584 
Q 422 2884 422 3419 
Q 422 4038 858 4394 
Q 1294 4750 2059 4750 
Q 2388 4750 2728 4690 
Q 3069 4631 3425 4513 
z
" transform="scale(0.015625)"/>
      </defs>
      <use xlink:href="#DejaVuSans-54"/>
      <use xlink:href="#DejaVuSans-54" transform="translate(59.333984 0)"/>
      <use xlink:href="#DejaVuSans-2d" transform="translate(111.292969 0)"/>
      <use xlink:href="#DejaVuSans-43" transform="translate(147.376953 0)"/>
      <use xlink:href="#DejaVuSans-48" transform="translate(217.201172 0)"/>
      <use xlink:href="#DejaVuSans-41" transform="translate(292.396484 0)"/>
      <use xlink:href="#DejaVuSans-4e" transform="translate(360.804688 0)"/>
      <use xlink:href="#DejaVuSans-47" transform="translate(435.609375 0)"/>
      <use xlink:href="#DejaVuSans-45" transform="translate(513.099609 0)"/>
      <use xlink:href="#DejaVuSans-53" transform="translate(576.283203 0)"/>
     </g>
    </g>
    <g id="line2d_38">
     <path d="M 249.415694 110.159125 
L 259.415694 110.159125 
L 269.415694 110.159125 
" style="fill: none; stroke: #0033e6; stroke-opacity: 0.5; stroke-linecap: square"/>
    </g>
    <g id="text_12">
     <!-- TT-CONFIDENCE -->
     <g transform="translate(277.415694 113.659125) scale(0.1 -0.1)">
      <defs>
       <path id="DejaVuSans-4f" d="M 2522 4238 
Q 1834 4238 1429 3725 
Q 1025 3213 1025 2328 
Q 1025 1447 1429 934 
Q 1834 422 2522 422 
Q 3209 422 3611 934 
Q 4013 1447 4013 2328 
Q 4013 3213 3611 3725 
Q 3209 4238 2522 4238 
z
M 2522 4750 
Q 3503 4750 4090 4092 
Q 4678 3434 4678 2328 
Q 4678 1225 4090 567 
Q 3503 -91 2522 -91 
Q 1538 -91 948 565 
Q 359 1222 359 2328 
Q 359 3434 948 4092 
Q 1538 4750 2522 4750 
z
" transform="scale(0.015625)"/>
       <path id="DejaVuSans-46" d="M 628 4666 
L 3309 4666 
L 3309 4134 
L 1259 4134 
L 1259 2759 
L 3109 2759 
L 3109 2228 
L 1259 2228 
L 1259 0 
L 628 0 
L 628 4666 
z
" transform="scale(0.015625)"/>
       <path id="DejaVuSans-49" d="M 628 4666 
L 1259 4666 
L 1259 0 
L 628 0 
L 628 4666 
z
" transform="scale(0.015625)"/>
      </defs>
      <use xlink:href="#DejaVuSans-54"/>
      <use xlink:href="#DejaVuSans-54" transform="translate(59.333984 0)"/>
      <use xlink:href="#DejaVuSans-2d" transform="translate(111.292969 0)"/>
      <use xlink:href="#DejaVuSans-43" transform="translate(147.376953 0)"/>
      <use xlink:href="#DejaVuSans-4f" transform="translate(217.201172 0)"/>
      <use xlink:href="#DejaVuSans-4e" transform="translate(295.912109 0)"/>
      <use xlink:href="#DejaVuSans-46" transform="translate(370.716797 0)"/>
      <use xlink:href="#DejaVuSans-49" transform="translate(428.236328 0)"/>
      <use xlink:href="#DejaVuSans-44" transform="translate(457.728516 0)"/>
      <use xlink:href="#DejaVuSans-45" transform="translate(534.730469 0)"/>
      <use xlink:href="#DejaVuSans-4e" transform="translate(597.914062 0)"/>
      <use xlink:href="#DejaVuSans-43" transform="translate(672.71875 0)"/>
      <use xlink:href="#DejaVuSans-45" transform="translate(742.542969 0)"/>
     </g>
    </g>
    <g id="line2d_39">
     <path d="M 249.415694 124.83725 
L 259.415694 124.83725 
L 269.415694 124.83725 
" style="fill: none; stroke: #0066cc; stroke-opacity: 0.5; stroke-linecap: square"/>
    </g>
    <g id="text_13">
     <!-- TT-CONSTRUCTION -->
     <g transform="translate(277.415694 128.33725) scale(0.1 -0.1)">
      <defs>
       <path id="DejaVuSans-52" d="M 2841 2188 
Q 3044 2119 3236 1894 
Q 3428 1669 3622 1275 
L 4263 0 
L 3584 0 
L 2988 1197 
Q 2756 1666 2539 1819 
Q 2322 1972 1947 1972 
L 1259 1972 
L 1259 0 
L 628 0 
L 628 4666 
L 2053 4666 
Q 2853 4666 3247 4331 
Q 3641 3997 3641 3322 
Q 3641 2881 3436 2590 
Q 3231 2300 2841 2188 
z
M 1259 4147 
L 1259 2491 
L 2053 2491 
Q 2509 2491 2742 2702 
Q 2975 2913 2975 3322 
Q 2975 3731 2742 3939 
Q 2509 4147 2053 4147 
L 1259 4147 
z
" transform="scale(0.015625)"/>
       <path id="DejaVuSans-55" d="M 556 4666 
L 1191 4666 
L 1191 1831 
Q 1191 1081 1462 751 
Q 1734 422 2344 422 
Q 2950 422 3222 751 
Q 3494 1081 3494 1831 
L 3494 4666 
L 4128 4666 
L 4128 1753 
Q 4128 841 3676 375 
Q 3225 -91 2344 -91 
Q 1459 -91 1007 375 
Q 556 841 556 1753 
L 556 4666 
z
" transform="scale(0.015625)"/>
      </defs>
      <use xlink:href="#DejaVuSans-54"/>
      <use xlink:href="#DejaVuSans-54" transform="translate(59.333984 0)"/>
      <use xlink:href="#DejaVuSans-2d" transform="translate(111.292969 0)"/>
      <use xlink:href="#DejaVuSans-43" transform="translate(147.376953 0)"/>
      <use xlink:href="#DejaVuSans-4f" transform="translate(217.201172 0)"/>
      <use xlink:href="#DejaVuSans-4e" transform="translate(295.912109 0)"/>
      <use xlink:href="#DejaVuSans-53" transform="translate(370.716797 0)"/>
      <use xlink:href="#DejaVuSans-54" transform="translate(434.193359 0)"/>
      <use xlink:href="#DejaVuSans-52" transform="translate(495.277344 0)"/>
      <use xlink:href="#DejaVuSans-55" transform="translate(564.759766 0)"/>
      <use xlink:href="#DejaVuSans-43" transform="translate(637.953125 0)"/>
      <use xlink:href="#DejaVuSans-54" transform="translate(707.777344 0)"/>
      <use xlink:href="#DejaVuSans-49" transform="translate(768.861328 0)"/>
      <use xlink:href="#DejaVuSans-4f" transform="translate(798.353516 0)"/>
      <use xlink:href="#DejaVuSans-4e" transform="translate(877.064453 0)"/>
     </g>
    </g>
    <g id="line2d_40">
     <path d="M 249.415694 139.515375 
L 259.415694 139.515375 
L 269.415694 139.515375 
" style="fill: none; stroke: #0099b2; stroke-opacity: 0.5; stroke-linecap: square"/>
    </g>
    <g id="text_14">
     <!-- TT-EXPECTATIONS -->
     <g transform="translate(277.415694 143.015375) scale(0.1 -0.1)">
      <defs>
       <path id="DejaVuSans-58" d="M 403 4666 
L 1081 4666 
L 2241 2931 
L 3406 4666 
L 4084 4666 
L 2584 2425 
L 4184 0 
L 3506 0 
L 2194 1984 
L 872 0 
L 191 0 
L 1856 2491 
L 403 4666 
z
" transform="scale(0.015625)"/>
       <path id="DejaVuSans-50" d="M 1259 4147 
L 1259 2394 
L 2053 2394 
Q 2494 2394 2734 2622 
Q 2975 2850 2975 3272 
Q 2975 3691 2734 3919 
Q 2494 4147 2053 4147 
L 1259 4147 
z
M 628 4666 
L 2053 4666 
Q 2838 4666 3239 4311 
Q 3641 3956 3641 3272 
Q 3641 2581 3239 2228 
Q 2838 1875 2053 1875 
L 1259 1875 
L 1259 0 
L 628 0 
L 628 4666 
z
" transform="scale(0.015625)"/>
      </defs>
      <use xlink:href="#DejaVuSans-54"/>
      <use xlink:href="#DejaVuSans-54" transform="translate(59.333984 0)"/>
      <use xlink:href="#DejaVuSans-2d" transform="translate(111.292969 0)"/>
      <use xlink:href="#DejaVuSans-45" transform="translate(147.376953 0)"/>
      <use xlink:href="#DejaVuSans-58" transform="translate(210.560547 0)"/>
      <use xlink:href="#DejaVuSans-50" transform="translate(279.066406 0)"/>
      <use xlink:href="#DejaVuSans-45" transform="translate(339.369141 0)"/>
      <use xlink:href="#DejaVuSans-43" transform="translate(402.552734 0)"/>
      <use xlink:href="#DejaVuSans-54" transform="translate(472.376953 0)"/>
      <use xlink:href="#DejaVuSans-41" transform="translate(525.710938 0)"/>
      <use xlink:href="#DejaVuSans-54" transform="translate(586.369141 0)"/>
      <use xlink:href="#DejaVuSans-49" transform="translate(647.453125 0)"/>
      <use xlink:href="#DejaVuSans-4f" transform="translate(676.945312 0)"/>
      <use xlink:href="#DejaVuSans-4e" transform="translate(755.65625 0)"/>
      <use xlink:href="#DejaVuSans-53" transform="translate(830.460938 0)"/>
     </g>
    </g>
    <g id="line2d_41">
     <path d="M 249.415694 154.1935 
L 259.415694 154.1935 
L 269.415694 154.1935 
" style="fill: none; stroke: #00cc99; stroke-opacity: 0.5; stroke-linecap: square"/>
    </g>
    <g id="text_15">
     <!-- TT-PROVENANCE -->
     <g transform="translate(277.415694 157.6935) scale(0.1 -0.1)">
      <defs>
       <path id="DejaVuSans-56" d="M 1831 0 
L 50 4666 
L 709 4666 
L 2188 738 
L 3669 4666 
L 4325 4666 
L 2547 0 
L 1831 0 
z
" transform="scale(0.015625)"/>
      </defs>
      <use xlink:href="#DejaVuSans-54"/>
      <use xlink:href="#DejaVuSans-54" transform="translate(59.333984 0)"/>
      <use xlink:href="#DejaVuSans-2d" transform="translate(111.292969 0)"/>
      <use xlink:href="#DejaVuSans-50" transform="translate(147.376953 0)"/>
      <use xlink:href="#DejaVuSans-52" transform="translate(207.679688 0)"/>
      <use xlink:href="#DejaVuSans-4f" transform="translate(277.162109 0)"/>
      <use xlink:href="#DejaVuSans-56" transform="translate(354.123047 0)"/>
      <use xlink:href="#DejaVuSans-45" transform="translate(422.53125 0)"/>
      <use xlink:href="#DejaVuSans-4e" transform="translate(485.714844 0)"/>
      <use xlink:href="#DejaVuSans-41" transform="translate(560.519531 0)"/>
      <use xlink:href="#DejaVuSans-4e" transform="translate(628.927734 0)"/>
      <use xlink:href="#DejaVuSans-43" transform="translate(703.732422 0)"/>
      <use xlink:href="#DejaVuSans-45" transform="translate(773.556641 0)"/>
     </g>
    </g>
    <g id="line2d_42">
     <path d="M 249.415694 168.871625 
L 259.415694 168.871625 
L 269.415694 168.871625 
" style="fill: none; stroke: #00ff80; stroke-opacity: 0.5; stroke-linecap: square"/>
    </g>
    <g id="text_16">
     <!-- TT-RESULTS -->
     <g transform="translate(277.415694 172.371625) scale(0.1 -0.1)">
      <defs>
       <path id="DejaVuSans-4c" d="M 628 4666 
L 1259 4666 
L 1259 531 
L 3531 531 
L 3531 0 
L 628 0 
L 628 4666 
z
" transform="scale(0.015625)"/>
      </defs>
      <use xlink:href="#DejaVuSans-54"/>
      <use xlink:href="#DejaVuSans-54" transform="translate(59.333984 0)"/>
      <use xlink:href="#DejaVuSans-2d" transform="translate(111.292969 0)"/>
      <use xlink:href="#DejaVuSans-52" transform="translate(147.376953 0)"/>
      <use xlink:href="#DejaVuSans-45" transform="translate(216.859375 0)"/>
      <use xlink:href="#DejaVuSans-53" transform="translate(280.042969 0)"/>
      <use xlink:href="#DejaVuSans-55" transform="translate(343.519531 0)"/>
      <use xlink:href="#DejaVuSans-4c" transform="translate(416.712891 0)"/>
      <use xlink:href="#DejaVuSans-54" transform="translate(458.675781 0)"/>
      <use xlink:href="#DejaVuSans-53" transform="translate(519.759766 0)"/>
     </g>
    </g>
    <g id="line2d_43">
     <path d="M 249.415694 183.54975 
L 259.415694 183.54975 
L 269.415694 183.54975 
" style="fill: none; stroke: #ff0000; stroke-width: 3; stroke-linecap: square"/>
    </g>
    <g id="text_17">
     <!-- TRUSTABLE-SOFTWARE -->
     <g transform="translate(277.415694 187.04975) scale(0.1 -0.1)">
      <defs>
       <path id="DejaVuSans-42" d="M 1259 2228 
L 1259 519 
L 2272 519 
Q 2781 519 3026 730 
Q 3272 941 3272 1375 
Q 3272 1813 3026 2020 
Q 2781 2228 2272 2228 
L 1259 2228 
z
M 1259 4147 
L 1259 2741 
L 2194 2741 
Q 2656 2741 2882 2914 
Q 3109 3088 3109 3444 
Q 3109 3797 2882 3972 
Q 2656 4147 2194 4147 
L 1259 4147 
z
M 628 4666 
L 2241 4666 
Q 2963 4666 3353 4366 
Q 3744 4066 3744 3513 
Q 3744 3084 3544 2831 
Q 3344 2578 2956 2516 
Q 3422 2416 3680 2098 
Q 3938 1781 3938 1306 
Q 3938 681 3513 340 
Q 3088 0 2303 0 
L 628 0 
L 628 4666 
z
" transform="scale(0.015625)"/>
       <path id="DejaVuSans-57" d="M 213 4666 
L 850 4666 
L 1831 722 
L 2809 4666 
L 3519 4666 
L 4500 722 
L 5478 4666 
L 6119 4666 
L 4947 0 
L 4153 0 
L 3169 4050 
L 2175 0 
L 1381 0 
L 213 4666 
z
" transform="scale(0.015625)"/>
      </defs>
      <use xlink:href="#DejaVuSans-54"/>
      <use xlink:href="#DejaVuSans-52" transform="translate(61.083984 0)"/>
      <use xlink:href="#DejaVuSans-55" transform="translate(130.566406 0)"/>
      <use xlink:href="#DejaVuSans-53" transform="translate(203.759766 0)"/>
      <use xlink:href="#DejaVuSans-54" transform="translate(267.236328 0)"/>
      <use xlink:href="#DejaVuSans-41" transform="translate(320.570312 0)"/>
      <use xlink:href="#DejaVuSans-42" transform="translate(388.978516 0)"/>
      <use xlink:href="#DejaVuSans-4c" transform="translate(457.582031 0)"/>
      <use xlink:href="#DejaVuSans-45" transform="translate(513.294922 0)"/>
      <use xlink:href="#DejaVuSans-2d" transform="translate(576.478516 0)"/>
      <use xlink:href="#DejaVuSans-53" transform="translate(612.5625 0)"/>
      <use xlink:href="#DejaVuSans-4f" transform="translate(676.039062 0)"/>
      <use xlink:href="#DejaVuSans-46" transform="translate(754.75 0)"/>
      <use xlink:href="#DejaVuSans-54" transform="translate(810.519531 0)"/>
      <use xlink:href="#DejaVuSans-57" transform="translate(871.603516 0)"/>
      <use xlink:href="#DejaVuSans-41" transform="translate(964.980469 0)"/>
      <use xlink:href="#DejaVuSans-52" transform="translate(1033.388672 0)"/>
      <use xlink:href="#DejaVuSans-45" transform="translate(1102.871094 0)"/>
     </g>
    </g>
   </g>
  </g>
 </g>
 <defs>
  <clipPath id="p3bfe186f02">
   <rect x="26.603125" y="7.2" width="200.645934" height="266.112"/>
  </clipPath>
 </defs>
</svg>
